<svg version="1.1" xmlns="http://www.w3.org/2000/svg" xmlns:xlink="http://www.w3.org/1999/xlink" width="527" height="422"><defs><clipPath id="dvIqUTUOuVTm"><path fill="none" stroke="none" d=" M 0 0 L 527 0 L 527 422 L 0 422 L 0 0 Z"/></clipPath></defs><g transform="scale(1,1)" clip-path="url(#dvIqUTUOuVTm)"><g><rect fill="rgb(255,255,255)" stroke="none" x="0" y="0" width="527" height="422" fill-opacity="1"/><path fill="rgb(21,101,192)" stroke="none" paint-order="stroke fill markers" fill-rule="evenodd" d=" M 137.3685102197256 364.4245557749478 L 393.2439451444527 364.4245557749478 L 393.2439451444527 229.30169249019147 Z" fill-opacity="0.09803921568627451"/><path fill="rgb(21,101,192)" stroke="none" paint-order="stroke fill markers" fill-rule="evenodd" d=" M 393.2439451444527 229.30169249019147 L 325.9999999999998 231 L 326.68136651443433 145.58427424129545 Z" fill-opacity="0.09803921568627451"/><path fill="none" stroke="rgb(21,101,192)" paint-order="fill stroke markers" d=" M 426.7306127490464 364.4245557749478 C 426.7306127490464 204.61427936902928 297.1787866256439 75.06245324562661 137.36851021972564 75.06245324562661 L 137.3685102197256 364.4245557749478 Z" stroke-opacity="0.8" stroke-linecap="round" stroke-linejoin="round" stroke-miterlimit="10" stroke-width="2.5"/><path fill="rgb(0,0,0)" stroke="none" paint-order="stroke fill markers" d=" M 167.36851021972555 364.4245557749478 C 167.36851021972555 359.5419304621551 166.17676564601555 354.73309307632707 163.896735514757 350.4155135986942 L 137.3685102197256 364.4245557749478 Z" fill-opacity="0.09803921568627451"/><path fill="none" stroke="rgb(0,0,0)" paint-order="fill stroke markers" d=" M 167.36851021972555 364.4245557749478 C 167.36851021972555 359.5419304621551 166.17676564601555 354.73309307632707 163.896735514757 350.4155135986942 L 137.3685102197256 364.4245557749478 Z" stroke-opacity="0.6" stroke-linecap="round" stroke-linejoin="round" stroke-miterlimit="10" stroke-width="2.5"/><text fill="rgb(0,0,0)" stroke="none" font-family="geogebra-sans-serif, sans-serif" font-size="16px" font-style="normal" font-weight="normal" text-decoration="normal" x="179" y="358" text-anchor="start" dominant-baseline="alphabetic" fill-opacity="1">θ</text><text fill="none" stroke="rgb(255,255,255)" font-family="geogebra-sans-serif, sans-serif" font-size="16px" font-style="normal" font-weight="normal" text-decoration="normal" x="179" y="358" text-anchor="start" dominant-baseline="alphabetic" stroke-opacity="1" stroke-linejoin="bevel" stroke-miterlimit="10" stroke-width="3">θ</text><text fill="rgb(0,0,0)" stroke="none" font-family="geogebra-sans-serif, sans-serif" font-size="16px" font-style="normal" font-weight="normal" text-decoration="normal" x="179" y="358" text-anchor="start" dominant-baseline="alphabetic" fill-opacity="1">θ</text><path fill="rgb(0,0,0)" stroke="none" paint-order="stroke fill markers" d=" M 163.896735514757 350.4155135986942 C 162.15573151611713 347.11866105628707 159.81544125582482 344.1752195223626 156.99577183829146 341.7359991580898 L 137.3685102197256 364.4245557749478 Z" fill-opacity="0.09803921568627451"/><path fill="none" stroke="rgb(0,0,0)" paint-order="fill stroke markers" d=" M 163.896735514757 350.4155135986942 C 162.15573151611713 347.11866105628707 159.81544125582482 344.1752195223626 156.99577183829146 341.7359991580898 L 137.3685102197256 364.4245557749478 Z" stroke-opacity="0.6" stroke-linecap="round" stroke-linejoin="round" stroke-miterlimit="10" stroke-width="2.5"/><text fill="rgb(0,0,0)" stroke="none" font-family="geogebra-sans-serif, sans-serif" font-size="16px" font-style="normal" font-weight="normal" text-decoration="normal" x="172" y="335" text-anchor="start" dominant-baseline="alphabetic" fill-opacity="1">dθ</text><text fill="none" stroke="rgb(255,255,255)" font-family="geogebra-sans-serif, sans-serif" font-size="16px" font-style="normal" font-weight="normal" text-decoration="normal" x="172" y="335" text-anchor="start" dominant-baseline="alphabetic" stroke-opacity="1" stroke-linejoin="bevel" stroke-miterlimit="10" stroke-width="3">dθ</text><text fill="rgb(0,0,0)" stroke="none" font-family="geogebra-sans-serif, sans-serif" font-size="16px" font-style="normal" font-weight="normal" text-decoration="normal" x="172" y="335" text-anchor="start" dominant-baseline="alphabetic" fill-opacity="1">dθ</text><path fill="rgb(0,0,0)" stroke="none" paint-order="stroke fill markers" d=" M 326.44206227723055 175.5833197841466 C 333.30517805104074 175.63806728212103 339.9795619840768 173.33789297227247 345.3517779777905 169.06651723017916 L 326.68136651443433 145.58427424129545 Z" fill-opacity="0.09803921568627451"/><path fill="none" stroke="rgb(0,0,0)" paint-order="fill stroke markers" d=" M 326.44206227723055 175.5833197841466 C 333.30517805104074 175.63806728212103 339.9795619840768 173.33789297227247 345.3517779777905 169.06651723017916 L 326.68136651443433 145.58427424129545 Z" stroke-opacity="0.6" stroke-linecap="round" stroke-linejoin="round" stroke-miterlimit="10" stroke-width="2.5"/><text fill="rgb(0,0,0)" stroke="none" font-family="geogebra-sans-serif, sans-serif" font-size="16px" font-style="normal" font-weight="normal" text-decoration="normal" x="336" y="190" text-anchor="start" dominant-baseline="alphabetic" fill-opacity="1">θ</text><text fill="none" stroke="rgb(255,255,255)" font-family="geogebra-sans-serif, sans-serif" font-size="16px" font-style="normal" font-weight="normal" text-decoration="normal" x="336" y="190" text-anchor="start" dominant-baseline="alphabetic" stroke-opacity="1" stroke-linejoin="bevel" stroke-miterlimit="10" stroke-width="3">θ</text><text fill="rgb(0,0,0)" stroke="none" font-family="geogebra-sans-serif, sans-serif" font-size="16px" font-style="normal" font-weight="normal" text-decoration="normal" x="336" y="190" text-anchor="start" dominant-baseline="alphabetic" fill-opacity="1">θ</text><path fill="none" stroke="rgb(0,0,0)" paint-order="fill stroke markers" d=" M 137.3685102197256 364.4245557749478 L 326.68136651443433 145.58427424129545" stroke-opacity="0.6980392156862745" stroke-linecap="round" stroke-linejoin="round" stroke-miterlimit="10" stroke-width="2.5"/><g transform="scale(19,19)"><g transform="translate(13.68421052631579,20.167684210526314)"><path fill="rgb(21,101,192)" stroke="none" paint-order="stroke fill markers" d=" M 0.359 -0.386 Q 0.323 -0.423 0.252 -0.423 Q 0.189 -0.423 0.151 -0.363 Q 0.117 -0.309 0.117 -0.218 Q 0.117 -0.074 0.203 -0.029 Q 0.23 -0.014 0.258 -0.014 Q 0.356 -0.014 0.389 -0.11900000000000001 Q 0.392 -0.129 0.402 -0.129 Q 0.41500000000000004 -0.129 0.41500000000000004 -0.11900000000000001 Q 0.41500000000000004 -0.1 0.393 -0.065 Q 0.34400000000000003 0.011 0.249 0.011 Q 0.155 0.011 0.09 -0.063 Q 0.034 -0.128 0.034 -0.216 Q 0.034 -0.319 0.105 -0.388 Q 0.166 -0.448 0.251 -0.448 Q 0.334 -0.448 0.378 -0.403 Q 0.404 -0.376 0.404 -0.341 Q 0.404 -0.303 0.371 -0.295 Q 0.365 -0.294 0.358 -0.294 Q 0.323 -0.294 0.314 -0.326 Q 0.312 -0.332 0.312 -0.34 Q 0.312 -0.376 0.34700000000000003 -0.384 Q 0.353 -0.386 0.359 -0.386 Z"/></g><g transform="translate(14.12821052631579,20.167684210526314)"><path fill="rgb(21,101,192)" stroke="none" paint-order="stroke fill markers" d=" M 0.47100000000000003 -0.214 L 0.47100000000000003 -0.214 Q 0.47100000000000003 -0.111 0.395 -0.044 Q 0.332 0.011 0.249 0.011 Q 0.153 0.011 0.08700000000000001 -0.061 Q 0.028 -0.126 0.028 -0.214 Q 0.028 -0.316 0.101 -0.386 Q 0.164 -0.448 0.25 -0.448 Q 0.34700000000000003 -0.448 0.41300000000000003 -0.371 Q 0.47100000000000003 -0.304 0.47100000000000003 -0.214 M 0.25 -0.014 L 0.25 -0.014 Q 0.317 -0.014 0.356 -0.07 L 0.366 -0.088 Q 0.388 -0.132 0.388 -0.222 Q 0.388 -0.318 0.362 -0.361 Q 0.319 -0.423 0.249 -0.426 Q 0.187 -0.426 0.147 -0.376 Q 0.14 -0.368 0.135 -0.359 Q 0.111 -0.315 0.111 -0.222 Q 0.111 -0.125 0.136 -0.081 Q 0.178 -0.016 0.25 -0.014 Z"/></g><g transform="translate(14.62821052631579,20.167684210526314)"><path fill="rgb(21,101,192)" stroke="none" paint-order="stroke fill markers" d=" M 0.20800000000000002 -0.194 L 0.20800000000000002 -0.194 Q 0.122 -0.211 0.095 -0.227 Q 0.085 -0.232 0.076 -0.24 Q 0.033 -0.275 0.033 -0.325 Q 0.033 -0.395 0.095 -0.427 Q 0.134 -0.448 0.193 -0.448 Q 0.249 -0.448 0.28700000000000003 -0.42 Q 0.298 -0.429 0.304 -0.436 Q 0.317 -0.448 0.324 -0.448 Q 0.334 -0.439 0.335 -0.424 L 0.335 -0.323 Q 0.335 -0.302 0.329 -0.3 L 0.328 -0.3 L 0.327 -0.299 L 0.322 -0.299 Q 0.311 -0.299 0.31 -0.308 Q 0.303 -0.40900000000000003 0.227 -0.426 Q 0.211 -0.429 0.193 -0.429 Q 0.099 -0.429 0.083 -0.371 Q 0.081 -0.362 0.081 -0.353 Q 0.081 -0.302 0.158 -0.281 Q 0.17300000000000001 -0.277 0.20400000000000001 -0.271 Q 0.276 -0.257 0.307 -0.232 Q 0.313 -0.228 0.318 -0.223 Q 0.36 -0.181 0.36 -0.128 Q 0.36 -0.043000000000000003 0.29 -0.008 Q 0.252 0.011 0.199 0.011 Q 0.134 0.011 0.089 -0.032 L 0.069 -0.009000000000000001 Q 0.049 0.011 0.044 0.011 Q 0.034 0.002 0.033 -0.013000000000000001 L 0.033 -0.145 Q 0.033 -0.167 0.04 -0.169 L 0.04 -0.169 L 0.041 -0.17 L 0.046 -0.17 Q 0.056 -0.17 0.059000000000000004 -0.159 Q 0.059000000000000004 -0.157 0.06 -0.153 Q 0.08600000000000001 -0.037 0.159 -0.016 Q 0.177 -0.011 0.199 -0.011 Q 0.289 -0.011 0.308 -0.074 Q 0.312 -0.08700000000000001 0.312 -0.10200000000000001 Q 0.312 -0.17500000000000002 0.20800000000000002 -0.194 Z"/></g><g transform="translate(15.188877192982455,20.167684210526314)"><path fill="rgb(21,101,192)" stroke="none" paint-order="stroke fill markers" d=" M 0.455 -0.5 L 0.455 -0.5 Q 0.455 -0.34700000000000003 0.377 -0.19 Q 0.307 -0.05 0.222 -0.005 Q 0.191 0.011 0.162 0.011 Q 0.08 0.011 0.052000000000000005 -0.101 Q 0.042 -0.14300000000000002 0.042 -0.194 Q 0.042 -0.35100000000000003 0.122 -0.509 Q 0.192 -0.646 0.277 -0.6900000000000001 Q 0.307 -0.705 0.335 -0.705 Q 0.422 -0.705 0.447 -0.578 Q 0.455 -0.54 0.455 -0.5 M 0.148 -0.363 L 0.148 -0.363 L 0.357 -0.363 Q 0.389 -0.495 0.389 -0.562 Q 0.389 -0.675 0.342 -0.682 Q 0.338 -0.683 0.334 -0.683 Q 0.28300000000000003 -0.683 0.225 -0.578 Q 0.187 -0.511 0.149 -0.368 Q 0.149 -0.365 0.148 -0.363 M 0.34800000000000003 -0.331 L 0.14 -0.331 Q 0.108 -0.21 0.108 -0.133 Q 0.108 -0.013000000000000001 0.162 -0.011 Q 0.218 -0.011 0.278 -0.128 Q 0.317 -0.202 0.34800000000000003 -0.331 Z"/></g></g><path fill="none" stroke="rgb(21,101,192)" paint-order="fill stroke markers" d=" M 137.3685102197256 364.4245557749478 L 393.2439451444527 364.4245557749478" stroke-opacity="0.6980392156862745" stroke-linecap="round" stroke-linejoin="round" stroke-miterlimit="10" stroke-width="2.5"/><g transform="scale(19,19)"><g transform="translate(18.42105263157895,16.588736842105263)"><path fill="rgb(21,101,192)" stroke="none" paint-order="stroke fill markers" d=" M 0.20800000000000002 -0.194 L 0.20800000000000002 -0.194 Q 0.122 -0.211 0.095 -0.227 Q 0.085 -0.232 0.076 -0.24 Q 0.033 -0.275 0.033 -0.325 Q 0.033 -0.395 0.095 -0.427 Q 0.134 -0.448 0.193 -0.448 Q 0.249 -0.448 0.28700000000000003 -0.42 Q 0.298 -0.429 0.304 -0.436 Q 0.317 -0.448 0.324 -0.448 Q 0.334 -0.439 0.335 -0.424 L 0.335 -0.323 Q 0.335 -0.302 0.329 -0.3 L 0.328 -0.3 L 0.327 -0.299 L 0.322 -0.299 Q 0.311 -0.299 0.31 -0.308 Q 0.303 -0.40900000000000003 0.227 -0.426 Q 0.211 -0.429 0.193 -0.429 Q 0.099 -0.429 0.083 -0.371 Q 0.081 -0.362 0.081 -0.353 Q 0.081 -0.302 0.158 -0.281 Q 0.17300000000000001 -0.277 0.20400000000000001 -0.271 Q 0.276 -0.257 0.307 -0.232 Q 0.313 -0.228 0.318 -0.223 Q 0.36 -0.181 0.36 -0.128 Q 0.36 -0.043000000000000003 0.29 -0.008 Q 0.252 0.011 0.199 0.011 Q 0.134 0.011 0.089 -0.032 L 0.069 -0.009000000000000001 Q 0.049 0.011 0.044 0.011 Q 0.034 0.002 0.033 -0.013000000000000001 L 0.033 -0.145 Q 0.033 -0.167 0.04 -0.169 L 0.04 -0.169 L 0.041 -0.17 L 0.046 -0.17 Q 0.056 -0.17 0.059000000000000004 -0.159 Q 0.059000000000000004 -0.157 0.06 -0.153 Q 0.08600000000000001 -0.037 0.159 -0.016 Q 0.177 -0.011 0.199 -0.011 Q 0.289 -0.011 0.308 -0.074 Q 0.312 -0.08700000000000001 0.312 -0.10200000000000001 Q 0.312 -0.17500000000000002 0.20800000000000002 -0.194 Z"/></g><g transform="translate(18.815052631578947,16.588736842105263)"><path fill="rgb(21,101,192)" stroke="none" paint-order="stroke fill markers" d=" M 0.177 -0.442 L 0.177 -0.442 L 0.177 -0.075 Q 0.177 -0.044 0.189 -0.037 L 0.189 -0.037 Q 0.201 -0.031 0.247 -0.031 L 0.247 0 Q 0.145 -0.003 0.14300000000000002 -0.003 Q 0.129 -0.003 0.033 0 L 0.033 -0.031 Q 0.092 -0.031 0.10200000000000001 -0.04 L 0.10400000000000001 -0.042 Q 0.111 -0.05 0.111 -0.076 L 0.111 -0.34500000000000003 Q 0.111 -0.385 0.095 -0.393 L 0.094 -0.393 L 0.094 -0.393 L 0.093 -0.394 L 0.093 -0.394 Q 0.08 -0.4 0.037 -0.4 L 0.037 -0.431 L 0.177 -0.442 M 0.181 -0.616 Q 0.181 -0.579 0.148 -0.5670000000000001 Q 0.138 -0.5630000000000001 0.128 -0.5630000000000001 Q 0.093 -0.5630000000000001 0.079 -0.595 L 0.079 -0.596 Q 0.075 -0.606 0.075 -0.616 Q 0.075 -0.647 0.10300000000000001 -0.662 Q 0.114 -0.669 0.128 -0.669 Q 0.162 -0.669 0.176 -0.639 Q 0.181 -0.628 0.181 -0.616 Z"/></g><g transform="translate(19.093052631578946,16.588736842105263)"><path fill="rgb(21,101,192)" stroke="none" paint-order="stroke fill markers" d=" M 0.11 -0.34400000000000003 Q 0.11 -0.383 0.095 -0.392 Q 0.083 -0.399 0.052000000000000005 -0.4 L 0.032 -0.4 L 0.032 -0.431 L 0.17300000000000001 -0.442 L 0.17300000000000001 -0.337 Q 0.22 -0.442 0.321 -0.442 Q 0.396 -0.442 0.426 -0.405 Q 0.453 -0.374 0.456 -0.32 Q 0.457 -0.301 0.457 -0.252 L 0.457 -0.061 Q 0.458 -0.037 0.486 -0.033 Q 0.498 -0.031 0.535 -0.031 L 0.535 0 Q 0.433 -0.003 0.423 -0.003 Q 0.41500000000000004 -0.003 0.31 0 L 0.31 -0.031 Q 0.369 -0.031 0.379 -0.04 L 0.381 -0.042 Q 0.388 -0.05 0.388 -0.076 L 0.388 -0.309 Q 0.388 -0.40800000000000003 0.331 -0.418 Q 0.323 -0.42 0.314 -0.42 Q 0.253 -0.42 0.212 -0.367 Q 0.179 -0.324 0.179 -0.26 L 0.179 -0.076 Q 0.179 -0.042 0.195 -0.036000000000000004 Q 0.20600000000000002 -0.031 0.257 -0.031 L 0.257 0 Q 0.155 -0.003 0.145 -0.003 Q 0.137 -0.003 0.032 0 L 0.032 -0.031 Q 0.091 -0.031 0.101 -0.04 L 0.10300000000000001 -0.042 Q 0.11 -0.05 0.11 -0.076 L 0.11 -0.34400000000000003 Z"/></g><g transform="translate(19.815719298245618,16.588736842105263)"><path fill="rgb(21,101,192)" stroke="none" paint-order="stroke fill markers" d=" M 0.455 -0.5 L 0.455 -0.5 Q 0.455 -0.34700000000000003 0.377 -0.19 Q 0.307 -0.05 0.222 -0.005 Q 0.191 0.011 0.162 0.011 Q 0.08 0.011 0.052000000000000005 -0.101 Q 0.042 -0.14300000000000002 0.042 -0.194 Q 0.042 -0.35100000000000003 0.122 -0.509 Q 0.192 -0.646 0.277 -0.6900000000000001 Q 0.307 -0.705 0.335 -0.705 Q 0.422 -0.705 0.447 -0.578 Q 0.455 -0.54 0.455 -0.5 M 0.148 -0.363 L 0.148 -0.363 L 0.357 -0.363 Q 0.389 -0.495 0.389 -0.562 Q 0.389 -0.675 0.342 -0.682 Q 0.338 -0.683 0.334 -0.683 Q 0.28300000000000003 -0.683 0.225 -0.578 Q 0.187 -0.511 0.149 -0.368 Q 0.149 -0.365 0.148 -0.363 M 0.34800000000000003 -0.331 L 0.14 -0.331 Q 0.108 -0.21 0.108 -0.133 Q 0.108 -0.013000000000000001 0.162 -0.011 Q 0.218 -0.011 0.278 -0.128 Q 0.317 -0.202 0.34800000000000003 -0.331 Z"/></g></g><path fill="none" stroke="rgb(21,101,192)" paint-order="fill stroke markers" d=" M 393.2439451444527 364.4245557749478 L 393.2439451444527 229.30169249019147" stroke-opacity="0.6980392156862745" stroke-linecap="round" stroke-linejoin="round" stroke-miterlimit="10" stroke-width="2.5"/><path fill="none" stroke="rgb(21,101,192)" paint-order="fill stroke markers" d=" M 393.2439451444527 229.30169249019147 L 137.3685102197256 364.4245557749478" stroke-opacity="0.6980392156862745" stroke-linecap="round" stroke-linejoin="round" stroke-miterlimit="10" stroke-width="2.5"/><text fill="rgb(21,101,192)" stroke="none" font-family="geogebra-sans-serif, sans-serif" font-size="16px" font-style="normal" font-weight="normal" text-decoration="normal" x="349" y="226" text-anchor="start" dominant-baseline="alphabetic" fill-opacity="1">dc</text><text fill="none" stroke="rgb(255,255,255)" font-family="geogebra-sans-serif, sans-serif" font-size="16px" font-style="normal" font-weight="normal" text-decoration="normal" x="349" y="226" text-anchor="start" dominant-baseline="alphabetic" stroke-opacity="1" stroke-linejoin="bevel" stroke-miterlimit="10" stroke-width="3">dc</text><text fill="rgb(21,101,192)" stroke="none" font-family="geogebra-sans-serif, sans-serif" font-size="16px" font-style="normal" font-weight="normal" text-decoration="normal" x="349" y="226" text-anchor="start" dominant-baseline="alphabetic" fill-opacity="1">dc</text><path fill="none" stroke="rgb(21,101,192)" paint-order="fill stroke markers" d=" M 393.2439451444527 229.30169249019147 L 325.9999999999998 231" stroke-opacity="0.6980392156862745" stroke-linecap="round" stroke-linejoin="round" stroke-miterlimit="10" stroke-width="2.5"/><text fill="rgb(21,101,192)" stroke="none" font-family="geogebra-sans-serif, sans-serif" font-size="16px" font-style="normal" font-weight="normal" text-decoration="normal" x="306" y="197" text-anchor="start" dominant-baseline="alphabetic" fill-opacity="1">ds</text><text fill="none" stroke="rgb(255,255,255)" font-family="geogebra-sans-serif, sans-serif" font-size="16px" font-style="normal" font-weight="normal" text-decoration="normal" x="306" y="197" text-anchor="start" dominant-baseline="alphabetic" stroke-opacity="1" stroke-linejoin="bevel" stroke-miterlimit="10" stroke-width="3">ds</text><text fill="rgb(21,101,192)" stroke="none" font-family="geogebra-sans-serif, sans-serif" font-size="16px" font-style="normal" font-weight="normal" text-decoration="normal" x="306" y="197" text-anchor="start" dominant-baseline="alphabetic" fill-opacity="1">ds</text><path fill="none" stroke="rgb(21,101,192)" paint-order="fill stroke markers" d=" M 325.9999999999998 231 L 326.68136651443433 145.58427424129545" stroke-opacity="0.6980392156862745" stroke-linecap="round" stroke-linejoin="round" stroke-miterlimit="10" stroke-width="2.5"/><path fill="none" stroke="rgb(21,101,192)" paint-order="fill stroke markers" d=" M 326.68136651443433 145.58427424129545 L 393.2439451444527 229.30169249019147" stroke-opacity="0.6980392156862745" stroke-linecap="round" stroke-linejoin="round" stroke-miterlimit="10" stroke-width="2.5"/><path fill="rgb(97,97,97)" stroke="none" paint-order="stroke fill markers" d=" M 142.3685102197256 364.4245557749478 C 142.3685102197256 367.18597952410175 140.12993396887958 369.4245557749478 137.3685102197256 369.4245557749478 C 134.60708647057163 369.4245557749478 132.3685102197256 367.18597952410175 132.3685102197256 364.4245557749478 C 132.3685102197256 361.66313202579386 134.60708647057163 359.4245557749478 137.3685102197256 359.4245557749478 C 140.12993396887958 359.4245557749478 142.3685102197256 361.66313202579386 142.3685102197256 364.4245557749478 Z" fill-opacity="1"/><path fill="none" stroke="rgb(0,0,0)" paint-order="fill stroke markers" d=" M 142.3685102197256 364.4245557749478 C 142.3685102197256 367.18597952410175 140.12993396887958 369.4245557749478 137.3685102197256 369.4245557749478 C 134.60708647057163 369.4245557749478 132.3685102197256 367.18597952410175 132.3685102197256 364.4245557749478 C 132.3685102197256 361.66313202579386 134.60708647057163 359.4245557749478 137.3685102197256 359.4245557749478 C 140.12993396887958 359.4245557749478 142.3685102197256 361.66313202579386 142.3685102197256 364.4245557749478 Z" stroke-opacity="1" stroke-linecap="round" stroke-linejoin="round" stroke-miterlimit="10"/><text fill="rgb(97,97,97)" stroke="none" font-family="geogebra-sans-serif, sans-serif" font-size="16px" font-style="normal" font-weight="normal" text-decoration="normal" x="112" y="380" text-anchor="start" dominant-baseline="alphabetic" fill-opacity="1">O</text><text fill="none" stroke="rgb(255,255,255)" font-family="geogebra-sans-serif, sans-serif" font-size="16px" font-style="normal" font-weight="normal" text-decoration="normal" x="112" y="380" text-anchor="start" dominant-baseline="alphabetic" stroke-opacity="1" stroke-linejoin="bevel" stroke-miterlimit="10" stroke-width="3">O</text><text fill="rgb(97,97,97)" stroke="none" font-family="geogebra-sans-serif, sans-serif" font-size="16px" font-style="normal" font-weight="normal" text-decoration="normal" x="112" y="380" text-anchor="start" dominant-baseline="alphabetic" fill-opacity="1">O</text><path fill="rgb(21,101,192)" stroke="none" paint-order="stroke fill markers" d=" M 431.7306127490464 364.4245557749478 C 431.7306127490464 367.18597952410175 429.4920364982003 369.4245557749478 426.7306127490464 369.4245557749478 C 423.9691889998924 369.4245557749478 421.7306127490464 367.18597952410175 421.7306127490464 364.4245557749478 C 421.7306127490464 361.66313202579386 423.9691889998924 359.4245557749478 426.7306127490464 359.4245557749478 C 429.4920364982003 359.4245557749478 431.7306127490464 361.66313202579386 431.7306127490464 364.4245557749478 Z" fill-opacity="1"/><path fill="none" stroke="rgb(0,0,0)" paint-order="fill stroke markers" d=" M 431.7306127490464 364.4245557749478 C 431.7306127490464 367.18597952410175 429.4920364982003 369.4245557749478 426.7306127490464 369.4245557749478 C 423.9691889998924 369.4245557749478 421.7306127490464 367.18597952410175 421.7306127490464 364.4245557749478 C 421.7306127490464 361.66313202579386 423.9691889998924 359.4245557749478 426.7306127490464 359.4245557749478 C 429.4920364982003 359.4245557749478 431.7306127490464 361.66313202579386 431.7306127490464 364.4245557749478 Z" stroke-opacity="1" stroke-linecap="round" stroke-linejoin="round" stroke-miterlimit="10"/><path fill="rgb(21,101,192)" stroke="none" paint-order="stroke fill markers" d=" M 142.3685102197256 75.06245324562661 C 142.3685102197256 77.82387699478058 140.12993396887958 80.06245324562661 137.3685102197256 80.06245324562661 C 134.60708647057163 80.06245324562661 132.3685102197256 77.82387699478058 132.3685102197256 75.06245324562661 C 132.3685102197256 72.30102949647265 134.60708647057163 70.06245324562661 137.3685102197256 70.06245324562661 C 140.12993396887958 70.06245324562661 142.3685102197256 72.30102949647265 142.3685102197256 75.06245324562661 Z" fill-opacity="1"/><path fill="none" stroke="rgb(0,0,0)" paint-order="fill stroke markers" d=" M 142.3685102197256 75.06245324562661 C 142.3685102197256 77.82387699478058 140.12993396887958 80.06245324562661 137.3685102197256 80.06245324562661 C 134.60708647057163 80.06245324562661 132.3685102197256 77.82387699478058 132.3685102197256 75.06245324562661 C 132.3685102197256 72.30102949647265 134.60708647057163 70.06245324562661 137.3685102197256 70.06245324562661 C 140.12993396887958 70.06245324562661 142.3685102197256 72.30102949647265 142.3685102197256 75.06245324562661 Z" stroke-opacity="1" stroke-linecap="round" stroke-linejoin="round" stroke-miterlimit="10"/><path fill="rgb(21,101,192)" stroke="none" paint-order="stroke fill markers" d=" M 398.2439451444527 229.30169249019147 C 398.2439451444527 232.06311623934545 396.00536889360666 234.30169249019147 393.2439451444527 234.30169249019147 C 390.48252139529876 234.30169249019147 388.2439451444527 232.06311623934545 388.2439451444527 229.30169249019147 C 388.2439451444527 226.5402687410375 390.48252139529876 224.30169249019147 393.2439451444527 224.30169249019147 C 396.00536889360666 224.30169249019147 398.2439451444527 226.5402687410375 398.2439451444527 229.30169249019147 Z" fill-opacity="1"/><path fill="none" stroke="rgb(0,0,0)" paint-order="fill stroke markers" d=" M 398.2439451444527 229.30169249019147 C 398.2439451444527 232.06311623934545 396.00536889360666 234.30169249019147 393.2439451444527 234.30169249019147 C 390.48252139529876 234.30169249019147 388.2439451444527 232.06311623934545 388.2439451444527 229.30169249019147 C 388.2439451444527 226.5402687410375 390.48252139529876 224.30169249019147 393.2439451444527 224.30169249019147 C 396.00536889360666 224.30169249019147 398.2439451444527 226.5402687410375 398.2439451444527 229.30169249019147 Z" stroke-opacity="1" stroke-linecap="round" stroke-linejoin="round" stroke-miterlimit="10"/><text fill="rgb(21,101,192)" stroke="none" font-family="geogebra-sans-serif, sans-serif" font-size="16px" font-style="normal" font-weight="normal" text-decoration="normal" x="397" y="219" text-anchor="start" dominant-baseline="alphabetic" fill-opacity="1">P</text><text fill="none" stroke="rgb(255,255,255)" font-family="geogebra-sans-serif, sans-serif" font-size="16px" font-style="normal" font-weight="normal" text-decoration="normal" x="397" y="219" text-anchor="start" dominant-baseline="alphabetic" stroke-opacity="1" stroke-linejoin="bevel" stroke-miterlimit="10" stroke-width="3">P</text><text fill="rgb(21,101,192)" stroke="none" font-family="geogebra-sans-serif, sans-serif" font-size="16px" font-style="normal" font-weight="normal" text-decoration="normal" x="397" y="219" text-anchor="start" dominant-baseline="alphabetic" fill-opacity="1">P</text><path fill="rgb(21,101,192)" stroke="none" paint-order="stroke fill markers" d=" M 331.68136651443433 145.58427424129545 C 331.68136651443433 148.34569799044942 329.4427902635883 150.58427424129545 326.68136651443433 150.58427424129545 C 323.9199427652804 150.58427424129545 321.68136651443433 148.34569799044942 321.68136651443433 145.58427424129545 C 321.68136651443433 142.82285049214147 323.9199427652804 140.58427424129545 326.68136651443433 140.58427424129545 C 329.4427902635883 140.58427424129545 331.68136651443433 142.82285049214147 331.68136651443433 145.58427424129545 Z" fill-opacity="1"/><path fill="none" stroke="rgb(0,0,0)" paint-order="fill stroke markers" d=" M 331.68136651443433 145.58427424129545 C 331.68136651443433 148.34569799044942 329.4427902635883 150.58427424129545 326.68136651443433 150.58427424129545 C 323.9199427652804 150.58427424129545 321.68136651443433 148.34569799044942 321.68136651443433 145.58427424129545 C 321.68136651443433 142.82285049214147 323.9199427652804 140.58427424129545 326.68136651443433 140.58427424129545 C 329.4427902635883 140.58427424129545 331.68136651443433 142.82285049214147 331.68136651443433 145.58427424129545 Z" stroke-opacity="1" stroke-linecap="round" stroke-linejoin="round" stroke-miterlimit="10"/><text fill="rgb(21,101,192)" stroke="none" font-family="geogebra-sans-serif, sans-serif" font-size="16px" font-style="normal" font-weight="normal" text-decoration="normal" x="331" y="136" text-anchor="start" dominant-baseline="alphabetic" fill-opacity="1">Q</text><text fill="none" stroke="rgb(255,255,255)" font-family="geogebra-sans-serif, sans-serif" font-size="16px" font-style="normal" font-weight="normal" text-decoration="normal" x="331" y="136" text-anchor="start" dominant-baseline="alphabetic" stroke-opacity="1" stroke-linejoin="bevel" stroke-miterlimit="10" stroke-width="3">Q</text><text fill="rgb(21,101,192)" stroke="none" font-family="geogebra-sans-serif, sans-serif" font-size="16px" font-style="normal" font-weight="normal" text-decoration="normal" x="331" y="136" text-anchor="start" dominant-baseline="alphabetic" fill-opacity="1">Q</text><path fill="rgb(21,101,192)" stroke="none" paint-order="stroke fill markers" d=" M 330.9999999999998 231 C 330.9999999999998 233.76142374915398 328.7614237491537 236 325.9999999999998 236 C 323.2385762508458 236 320.9999999999998 233.76142374915398 320.9999999999998 231 C 320.9999999999998 228.23857625084602 323.2385762508458 226 325.9999999999998 226 C 328.7614237491537 226 330.9999999999998 228.23857625084602 330.9999999999998 231 Z" fill-opacity="1"/><path fill="none" stroke="rgb(0,0,0)" paint-order="fill stroke markers" d=" M 330.9999999999998 231 C 330.9999999999998 233.76142374915398 328.7614237491537 236 325.9999999999998 236 C 323.2385762508458 236 320.9999999999998 233.76142374915398 320.9999999999998 231 C 320.9999999999998 228.23857625084602 323.2385762508458 226 325.9999999999998 226 C 328.7614237491537 226 330.9999999999998 228.23857625084602 330.9999999999998 231 Z" stroke-opacity="1" stroke-linecap="round" stroke-linejoin="round" stroke-miterlimit="10"/></g></g></svg>