<svg version="1.1" xmlns="http://www.w3.org/2000/svg" xmlns:xlink="http://www.w3.org/1999/xlink" width="518" height="439"><defs><clipPath id="ERXfLDwSMhzW"><path fill="none" stroke="none" d=" M 0 0 L 518 0 L 518 439 L 0 439 L 0 0 Z"/></clipPath></defs><g transform="scale(1,1)" clip-path="url(#ERXfLDwSMhzW)"><g><rect fill="rgb(255,255,255)" stroke="none" x="0" y="0" width="518" height="439" fill-opacity="1"/><path fill="none" stroke="rgb(0,0,0)" paint-order="fill stroke markers" d=" M 38.71974559499145 192.06738298994935 C 32.89367869228957 290.5449766386378 128.04643117378953 376.28562113924755 251.24936670023305 383.5744725255536 C 374.4523022266766 390.86332391185965 479.0509755004666 316.9402424450508 484.8770424031685 218.46264879636232 C 490.7031093058704 119.98505514767382 395.5503568243704 34.244410647064115 272.34742129792687 26.955559260758065 C 149.14448577148335 19.666707874452015 44.54581249769333 93.58978934126085 38.71974559499145 192.06738298994935 Z" stroke-opacity="0.6980392156862745" stroke-linecap="round" stroke-linejoin="round" stroke-miterlimit="10" stroke-width="2.5"/><path fill="none" stroke="rgb(211,47,47)" paint-order="fill stroke markers" d=" M 54.238575000000026 266.8091250000001 L 371.73652500000003 52.03110000000004" stroke-opacity="0.6980392156862745" stroke-linecap="round" stroke-linejoin="round" stroke-miterlimit="10" stroke-width="2.5"/><path fill="none" stroke="rgb(211,47,47)" paint-order="fill stroke markers" d=" M 54.238575000000026 266.8091250000001 L 450.00000000000006 305.4999999999999" stroke-opacity="0.6980392156862745" stroke-linecap="round" stroke-linejoin="round" stroke-miterlimit="10" stroke-width="2.5"/><path fill="none" stroke="rgb(0,0,0)" paint-order="fill stroke markers" d=" M 54.238575000000026 266.8091250000001 L 150.288375 48.02902500000005" stroke-opacity="0.6980392156862745" stroke-linecap="round" stroke-linejoin="round" stroke-miterlimit="10" stroke-width="2.5"/><path fill="none" stroke="rgb(0,0,0)" paint-order="fill stroke markers" d=" M 150.288375 48.02902500000005 L 450.00000000000006 305.4999999999999" stroke-opacity="0.6980392156862745" stroke-linecap="round" stroke-linejoin="round" stroke-miterlimit="10" stroke-width="2.5"/><path fill="none" stroke="rgb(0,0,0)" paint-order="fill stroke markers" d=" M 54.238575000000026 266.8091250000001 L 229.99999999999997 381.4999999999999" stroke-opacity="0.6980392156862745" stroke-linecap="round" stroke-linejoin="round" stroke-miterlimit="10" stroke-width="2.5"/><path fill="none" stroke="rgb(0,0,0)" paint-order="fill stroke markers" d=" M 229.99999999999997 381.4999999999999 L 450.00000000000006 305.4999999999999" stroke-opacity="0.6980392156862745" stroke-linecap="round" stroke-linejoin="round" stroke-miterlimit="10" stroke-width="2.5"/><path fill="none" stroke="rgb(0,0,0)" paint-order="fill stroke markers" d=" M 150.288375 48.02902500000005 L 371.73652500000003 52.03110000000004" stroke-opacity="0.6980392156862745" stroke-linecap="round" stroke-linejoin="round" stroke-miterlimit="10" stroke-width="2.5"/><path fill="none" stroke="rgb(0,0,0)" paint-order="fill stroke markers" d=" M 229.99999999999997 381.4999999999999 L 371.73652500000003 52.03110000000004" stroke-opacity="0.6980392156862745" stroke-linecap="round" stroke-linejoin="round" stroke-miterlimit="10" stroke-width="2.5"/><path fill="none" stroke="rgb(21,101,192)" paint-order="fill stroke markers" d=" M 477.938952219843 164.8928619017691 L 150.288375 48.02902500000005" stroke-opacity="0.6980392156862745" stroke-linecap="round" stroke-linejoin="round" stroke-miterlimit="10" stroke-width="2.5"/><path fill="none" stroke="rgb(21,101,192)" paint-order="fill stroke markers" d=" M 477.938952219843 164.8928619017691 L 229.99999999999997 381.4999999999999" stroke-opacity="0.6980392156862745" stroke-linecap="round" stroke-linejoin="round" stroke-miterlimit="10" stroke-width="2.5"/><path fill="none" stroke="rgb(21,101,192)" paint-order="fill stroke markers" d=" M 299.1596094510386 101.12724875370924 L 330.3793333139862 293.8055094059123" stroke-opacity="0.6980392156862745" stroke-linecap="round" stroke-linejoin="round" stroke-miterlimit="10" stroke-width="2.5"/><path fill="rgb(21,101,192)" stroke="none" paint-order="stroke fill markers" d=" M 59.238575000000026 266.8091250000001 C 59.238575000000026 269.57054874915406 56.99999874915399 271.8091250000001 54.238575000000026 271.8091250000001 C 51.477151250846056 271.8091250000001 49.238575000000026 269.57054874915406 49.238575000000026 266.8091250000001 C 49.238575000000026 264.04770125084616 51.477151250846056 261.8091250000001 54.238575000000026 261.8091250000001 C 56.99999874915399 261.8091250000001 59.238575000000026 264.04770125084616 59.238575000000026 266.8091250000001 Z" fill-opacity="1"/><path fill="none" stroke="rgb(0,0,0)" paint-order="fill stroke markers" d=" M 59.238575000000026 266.8091250000001 C 59.238575000000026 269.57054874915406 56.99999874915399 271.8091250000001 54.238575000000026 271.8091250000001 C 51.477151250846056 271.8091250000001 49.238575000000026 269.57054874915406 49.238575000000026 266.8091250000001 C 49.238575000000026 264.04770125084616 51.477151250846056 261.8091250000001 54.238575000000026 261.8091250000001 C 56.99999874915399 261.8091250000001 59.238575000000026 264.04770125084616 59.238575000000026 266.8091250000001 Z" stroke-opacity="1" stroke-linecap="round" stroke-linejoin="round" stroke-miterlimit="10"/><text fill="rgb(21,101,192)" stroke="none" font-family="geogebra-sans-serif, sans-serif" font-size="16px" font-style="normal" font-weight="normal" text-decoration="normal" x="39" y="259" text-anchor="start" dominant-baseline="alphabetic" fill-opacity="1">A</text><path fill="rgb(21,101,192)" stroke="none" paint-order="stroke fill markers" d=" M 376.73652500000003 52.03110000000004 C 376.73652500000003 54.792523749154 374.497948749154 57.03110000000004 371.73652500000003 57.03110000000004 C 368.9751012508461 57.03110000000004 366.73652500000003 54.792523749154 366.73652500000003 52.03110000000004 C 366.73652500000003 49.26967625084607 368.9751012508461 47.03110000000004 371.73652500000003 47.03110000000004 C 374.497948749154 47.03110000000004 376.73652500000003 49.26967625084607 376.73652500000003 52.03110000000004 Z" fill-opacity="1"/><path fill="none" stroke="rgb(0,0,0)" paint-order="fill stroke markers" d=" M 376.73652500000003 52.03110000000004 C 376.73652500000003 54.792523749154 374.497948749154 57.03110000000004 371.73652500000003 57.03110000000004 C 368.9751012508461 57.03110000000004 366.73652500000003 54.792523749154 366.73652500000003 52.03110000000004 C 366.73652500000003 49.26967625084607 368.9751012508461 47.03110000000004 371.73652500000003 47.03110000000004 C 374.497948749154 47.03110000000004 376.73652500000003 49.26967625084607 376.73652500000003 52.03110000000004 Z" stroke-opacity="1" stroke-linecap="round" stroke-linejoin="round" stroke-miterlimit="10"/><text fill="rgb(21,101,192)" stroke="none" font-family="geogebra-sans-serif, sans-serif" font-size="16px" font-style="normal" font-weight="normal" text-decoration="normal" x="376" y="42" text-anchor="start" dominant-baseline="alphabetic" fill-opacity="1">B</text><path fill="rgb(21,101,192)" stroke="none" paint-order="stroke fill markers" d=" M 455.00000000000006 305.4999999999999 C 455.00000000000006 308.26142374915383 452.761423749154 310.4999999999999 450.00000000000006 310.4999999999999 C 447.2385762508461 310.4999999999999 445.00000000000006 308.26142374915383 445.00000000000006 305.4999999999999 C 445.00000000000006 302.73857625084594 447.2385762508461 300.4999999999999 450.00000000000006 300.4999999999999 C 452.761423749154 300.4999999999999 455.00000000000006 302.73857625084594 455.00000000000006 305.4999999999999 Z" fill-opacity="1"/><path fill="none" stroke="rgb(0,0,0)" paint-order="fill stroke markers" d=" M 455.00000000000006 305.4999999999999 C 455.00000000000006 308.26142374915383 452.761423749154 310.4999999999999 450.00000000000006 310.4999999999999 C 447.2385762508461 310.4999999999999 445.00000000000006 308.26142374915383 445.00000000000006 305.4999999999999 C 445.00000000000006 302.73857625084594 447.2385762508461 300.4999999999999 450.00000000000006 300.4999999999999 C 452.761423749154 300.4999999999999 455.00000000000006 302.73857625084594 455.00000000000006 305.4999999999999 Z" stroke-opacity="1" stroke-linecap="round" stroke-linejoin="round" stroke-miterlimit="10"/><text fill="rgb(21,101,192)" stroke="none" font-family="geogebra-sans-serif, sans-serif" font-size="16px" font-style="normal" font-weight="normal" text-decoration="normal" x="454" y="295" text-anchor="start" dominant-baseline="alphabetic" fill-opacity="1">C</text><path fill="rgb(21,101,192)" stroke="none" paint-order="stroke fill markers" d=" M 155.288375 48.02902500000005 C 155.288375 50.79044874915401 153.04979874915398 53.02902500000005 150.288375 53.02902500000005 C 147.52695125084603 53.02902500000005 145.288375 50.79044874915401 145.288375 48.02902500000005 C 145.288375 45.26760125084608 147.52695125084603 43.02902500000005 150.288375 43.02902500000005 C 153.04979874915398 43.02902500000005 155.288375 45.26760125084608 155.288375 48.02902500000005 Z" fill-opacity="1"/><path fill="none" stroke="rgb(0,0,0)" paint-order="fill stroke markers" d=" M 155.288375 48.02902500000005 C 155.288375 50.79044874915401 153.04979874915398 53.02902500000005 150.288375 53.02902500000005 C 147.52695125084603 53.02902500000005 145.288375 50.79044874915401 145.288375 48.02902500000005 C 145.288375 45.26760125084608 147.52695125084603 43.02902500000005 150.288375 43.02902500000005 C 153.04979874915398 43.02902500000005 155.288375 45.26760125084608 155.288375 48.02902500000005 Z" stroke-opacity="1" stroke-linecap="round" stroke-linejoin="round" stroke-miterlimit="10"/><text fill="rgb(21,101,192)" stroke="none" font-family="geogebra-sans-serif, sans-serif" font-size="16px" font-style="normal" font-weight="normal" text-decoration="normal" x="134" y="37" text-anchor="start" dominant-baseline="alphabetic" fill-opacity="1">S</text><path fill="rgb(21,101,192)" stroke="none" paint-order="stroke fill markers" d=" M 234.99999999999997 381.4999999999999 C 234.99999999999997 384.26142374915383 232.76142374915395 386.4999999999999 229.99999999999997 386.4999999999999 C 227.238576250846 386.4999999999999 224.99999999999997 384.26142374915383 224.99999999999997 381.4999999999999 C 224.99999999999997 378.73857625084594 227.238576250846 376.4999999999999 229.99999999999997 376.4999999999999 C 232.76142374915395 376.4999999999999 234.99999999999997 378.73857625084594 234.99999999999997 381.4999999999999 Z" fill-opacity="1"/><path fill="none" stroke="rgb(0,0,0)" paint-order="fill stroke markers" d=" M 234.99999999999997 381.4999999999999 C 234.99999999999997 384.26142374915383 232.76142374915395 386.4999999999999 229.99999999999997 386.4999999999999 C 227.238576250846 386.4999999999999 224.99999999999997 384.26142374915383 224.99999999999997 381.4999999999999 C 224.99999999999997 378.73857625084594 227.238576250846 376.4999999999999 229.99999999999997 376.4999999999999 C 232.76142374915395 376.4999999999999 234.99999999999997 378.73857625084594 234.99999999999997 381.4999999999999 Z" stroke-opacity="1" stroke-linecap="round" stroke-linejoin="round" stroke-miterlimit="10"/><text fill="rgb(21,101,192)" stroke="none" font-family="geogebra-sans-serif, sans-serif" font-size="16px" font-style="normal" font-weight="normal" text-decoration="normal" x="237" y="408" text-anchor="start" dominant-baseline="alphabetic" fill-opacity="1">S'</text><path fill="rgb(21,101,192)" stroke="none" paint-order="stroke fill markers" d=" M 304.1596094510386 101.12724875370924 C 304.1596094510386 103.8886725028632 301.92103320019254 106.12724875370924 299.1596094510386 106.12724875370924 C 296.39818570188464 106.12724875370924 294.1596094510386 103.8886725028632 294.1596094510386 101.12724875370924 C 294.1596094510386 98.36582500455528 296.39818570188464 96.12724875370924 299.1596094510386 96.12724875370924 C 301.92103320019254 96.12724875370924 304.1596094510386 98.36582500455528 304.1596094510386 101.12724875370924 Z" fill-opacity="1"/><path fill="none" stroke="rgb(0,0,0)" paint-order="fill stroke markers" d=" M 304.1596094510386 101.12724875370924 C 304.1596094510386 103.8886725028632 301.92103320019254 106.12724875370924 299.1596094510386 106.12724875370924 C 296.39818570188464 106.12724875370924 294.1596094510386 103.8886725028632 294.1596094510386 101.12724875370924 C 294.1596094510386 98.36582500455528 296.39818570188464 96.12724875370924 299.1596094510386 96.12724875370924 C 301.92103320019254 96.12724875370924 304.1596094510386 98.36582500455528 304.1596094510386 101.12724875370924 Z" stroke-opacity="1" stroke-linecap="round" stroke-linejoin="round" stroke-miterlimit="10"/><text fill="rgb(21,101,192)" stroke="none" font-family="geogebra-sans-serif, sans-serif" font-size="16px" font-style="normal" font-weight="normal" text-decoration="normal" x="303" y="91" text-anchor="start" dominant-baseline="alphabetic" fill-opacity="1">D</text><path fill="rgb(110,109,115)" stroke="none" paint-order="stroke fill markers" d=" M 318.23767846494263 188.01263771001626 C 318.23767846494263 190.77406145917024 315.9991022140966 193.01263771001626 313.23767846494263 193.01263771001626 C 310.4762547157887 193.01263771001626 308.23767846494263 190.77406145917024 308.23767846494263 188.01263771001626 C 308.23767846494263 185.2512139608623 310.4762547157887 183.01263771001626 313.23767846494263 183.01263771001626 C 315.9991022140966 183.01263771001626 318.23767846494263 185.2512139608623 318.23767846494263 188.01263771001626 Z" fill-opacity="1"/><path fill="none" stroke="rgb(0,0,0)" paint-order="fill stroke markers" d=" M 318.23767846494263 188.01263771001626 C 318.23767846494263 190.77406145917024 315.9991022140966 193.01263771001626 313.23767846494263 193.01263771001626 C 310.4762547157887 193.01263771001626 308.23767846494263 190.77406145917024 308.23767846494263 188.01263771001626 C 308.23767846494263 185.2512139608623 310.4762547157887 183.01263771001626 313.23767846494263 183.01263771001626 C 315.9991022140966 183.01263771001626 318.23767846494263 185.2512139608623 318.23767846494263 188.01263771001626 Z" stroke-opacity="1" stroke-linecap="round" stroke-linejoin="round" stroke-miterlimit="10"/><text fill="rgb(110,109,115)" stroke="none" font-family="geogebra-sans-serif, sans-serif" font-size="16px" font-style="normal" font-weight="normal" text-decoration="normal" x="317" y="178" text-anchor="start" dominant-baseline="alphabetic" fill-opacity="1">M</text><path fill="rgb(110,109,115)" stroke="none" paint-order="stroke fill markers" d=" M 335.3793333139862 293.8055094059123 C 335.3793333139862 296.56693315506624 333.14075706314014 298.8055094059123 330.3793333139862 298.8055094059123 C 327.61790956483225 298.8055094059123 325.3793333139862 296.56693315506624 325.3793333139862 293.8055094059123 C 325.3793333139862 291.04408565675834 327.61790956483225 288.8055094059123 330.3793333139862 288.8055094059123 C 333.14075706314014 288.8055094059123 335.3793333139862 291.04408565675834 335.3793333139862 293.8055094059123 Z" fill-opacity="1"/><path fill="none" stroke="rgb(0,0,0)" paint-order="fill stroke markers" d=" M 335.3793333139862 293.8055094059123 C 335.3793333139862 296.56693315506624 333.14075706314014 298.8055094059123 330.3793333139862 298.8055094059123 C 327.61790956483225 298.8055094059123 325.3793333139862 296.56693315506624 325.3793333139862 293.8055094059123 C 325.3793333139862 291.04408565675834 327.61790956483225 288.8055094059123 330.3793333139862 288.8055094059123 C 333.14075706314014 288.8055094059123 335.3793333139862 291.04408565675834 335.3793333139862 293.8055094059123 Z" stroke-opacity="1" stroke-linecap="round" stroke-linejoin="round" stroke-miterlimit="10"/><text fill="rgb(110,109,115)" stroke="none" font-family="geogebra-sans-serif, sans-serif" font-size="16px" font-style="normal" font-weight="normal" text-decoration="normal" x="330" y="275" text-anchor="start" dominant-baseline="alphabetic" fill-opacity="1">D'</text><path fill="rgb(21,101,192)" stroke="none" paint-order="stroke fill markers" d=" M 482.938952219843 164.8928619017691 C 482.938952219843 167.65428565092307 480.7003759689969 169.8928619017691 477.938952219843 169.8928619017691 C 475.177528470689 169.8928619017691 472.938952219843 167.65428565092307 472.938952219843 164.8928619017691 C 472.938952219843 162.13143815261512 475.177528470689 159.8928619017691 477.938952219843 159.8928619017691 C 480.7003759689969 159.8928619017691 482.938952219843 162.13143815261512 482.938952219843 164.8928619017691 Z" fill-opacity="1"/><path fill="none" stroke="rgb(0,0,0)" paint-order="fill stroke markers" d=" M 482.938952219843 164.8928619017691 C 482.938952219843 167.65428565092307 480.7003759689969 169.8928619017691 477.938952219843 169.8928619017691 C 475.177528470689 169.8928619017691 472.938952219843 167.65428565092307 472.938952219843 164.8928619017691 C 472.938952219843 162.13143815261512 475.177528470689 159.8928619017691 477.938952219843 159.8928619017691 C 480.7003759689969 159.8928619017691 482.938952219843 162.13143815261512 482.938952219843 164.8928619017691 Z" stroke-opacity="1" stroke-linecap="round" stroke-linejoin="round" stroke-miterlimit="10"/><text fill="rgb(21,101,192)" stroke="none" font-family="geogebra-sans-serif, sans-serif" font-size="16px" font-style="normal" font-weight="normal" text-decoration="normal" x="482" y="155" text-anchor="start" dominant-baseline="alphabetic" fill-opacity="1">P</text></g></g></svg>
