<svg version="1.1" xmlns="http://www.w3.org/2000/svg" xmlns:xlink="http://www.w3.org/1999/xlink" width="403" height="351"><defs><clipPath id="dkTKzgEHLTyQ"><path fill="none" stroke="none" d=" M 0 0 L 403 0 L 403 351 L 0 351 L 0 0 Z"/></clipPath></defs><g transform="scale(1,1)" clip-path="url(#dkTKzgEHLTyQ)"><g><rect fill="rgb(255,255,255)" stroke="none" x="0" y="0" width="403" height="351" fill-opacity="1"/><path fill="none" stroke="rgb(0,0,0)" paint-order="fill stroke markers" d=" M -5 305.3206798337769 L 408 300.6540131671102" stroke-opacity="0.6980392156862745" stroke-linecap="round" stroke-linejoin="round" stroke-miterlimit="10" stroke-width="2.5"/><path fill="none" stroke="rgb(0,0,0)" paint-order="fill stroke markers" d=" M 98.30991735537204 212.198347107438 L 244.59090909090918 210.5454545454545" stroke-opacity="0.6980392156862745" stroke-linecap="round" stroke-linejoin="round" stroke-miterlimit="10" stroke-width="2.5"/><path fill="none" stroke="rgb(0,0,0)" paint-order="fill stroke markers" d=" M 203.3198330350359 31.258184705555436 L 118.29513743728077 303.92751443900534" stroke-opacity="0.6980392156862745" stroke-linecap="round" stroke-linejoin="round" stroke-miterlimit="10" stroke-width="2.5"/><path fill="none" stroke="rgb(0,0,0)" paint-order="fill stroke markers" d=" M 203.3198330350359 31.258184705555436 L 191.99936578365228 303.0946982994983" stroke-opacity="0.6980392156862745" stroke-linecap="round" stroke-linejoin="round" stroke-miterlimit="10" stroke-width="2.5"/><path fill="none" stroke="rgb(0,0,0)" paint-order="fill stroke markers" d=" M 44.59090909090925 304.76033057851237 L 203.3198330350359 31.258184705555436" stroke-opacity="0.6980392156862745" stroke-linecap="round" stroke-linejoin="round" stroke-miterlimit="10" stroke-width="2.5"/><path fill="none" stroke="rgb(0,0,0)" paint-order="fill stroke markers" d=" M 265.70359413002376 302.2618821599913 L 203.3198330350359 31.258184705555436" stroke-opacity="0.6980392156862745" stroke-linecap="round" stroke-linejoin="round" stroke-miterlimit="10" stroke-width="2.5"/><path fill="rgb(21,101,192)" stroke="none" paint-order="stroke fill markers" d=" M 103.30991735537204 212.198347107438 C 103.30991735537204 214.95977085659197 101.071341104526 217.198347107438 98.30991735537204 217.198347107438 C 95.54849360621807 217.198347107438 93.30991735537204 214.95977085659197 93.30991735537204 212.198347107438 C 93.30991735537204 209.43692335828402 95.54849360621807 207.198347107438 98.30991735537204 207.198347107438 C 101.071341104526 207.198347107438 103.30991735537204 209.43692335828402 103.30991735537204 212.198347107438 Z" fill-opacity="1"/><path fill="none" stroke="rgb(0,0,0)" paint-order="fill stroke markers" d=" M 103.30991735537204 212.198347107438 C 103.30991735537204 214.95977085659197 101.071341104526 217.198347107438 98.30991735537204 217.198347107438 C 95.54849360621807 217.198347107438 93.30991735537204 214.95977085659197 93.30991735537204 212.198347107438 C 93.30991735537204 209.43692335828402 95.54849360621807 207.198347107438 98.30991735537204 207.198347107438 C 101.071341104526 207.198347107438 103.30991735537204 209.43692335828402 103.30991735537204 212.198347107438 Z" stroke-opacity="1" stroke-linecap="round" stroke-linejoin="round" stroke-miterlimit="10"/><text fill="rgb(21,101,192)" stroke="none" font-family="geogebra-sans-serif, sans-serif" font-size="16px" font-style="normal" font-weight="normal" text-decoration="normal" x="72" y="213" text-anchor="start" dominant-baseline="alphabetic" fill-opacity="1">A</text><path fill="rgb(21,101,192)" stroke="none" paint-order="stroke fill markers" d=" M 249.59090909090918 210.5454545454545 C 249.59090909090918 213.30687829460848 247.35233284006316 215.5454545454545 244.59090909090918 215.5454545454545 C 241.8294853417552 215.5454545454545 239.59090909090918 213.30687829460848 239.59090909090918 210.5454545454545 C 239.59090909090918 207.78403079630053 241.8294853417552 205.5454545454545 244.59090909090918 205.5454545454545 C 247.35233284006316 205.5454545454545 249.59090909090918 207.78403079630053 249.59090909090918 210.5454545454545 Z" fill-opacity="1"/><path fill="none" stroke="rgb(0,0,0)" paint-order="fill stroke markers" d=" M 249.59090909090918 210.5454545454545 C 249.59090909090918 213.30687829460848 247.35233284006316 215.5454545454545 244.59090909090918 215.5454545454545 C 241.8294853417552 215.5454545454545 239.59090909090918 213.30687829460848 239.59090909090918 210.5454545454545 C 239.59090909090918 207.78403079630053 241.8294853417552 205.5454545454545 244.59090909090918 205.5454545454545 C 247.35233284006316 205.5454545454545 249.59090909090918 207.78403079630053 249.59090909090918 210.5454545454545 Z" stroke-opacity="1" stroke-linecap="round" stroke-linejoin="round" stroke-miterlimit="10"/><text fill="rgb(21,101,192)" stroke="none" font-family="geogebra-sans-serif, sans-serif" font-size="16px" font-style="normal" font-weight="normal" text-decoration="normal" x="249" y="201" text-anchor="start" dominant-baseline="alphabetic" fill-opacity="1">B</text><path fill="rgb(21,101,192)" stroke="none" paint-order="stroke fill markers" d=" M 49.59090909090925 304.76033057851237 C 49.59090909090925 307.5217543276663 47.35233284006321 309.76033057851237 44.59090909090925 309.76033057851237 C 41.82948534175528 309.76033057851237 39.59090909090925 307.5217543276663 39.59090909090925 304.76033057851237 C 39.59090909090925 301.9989068293584 41.82948534175528 299.76033057851237 44.59090909090925 299.76033057851237 C 47.35233284006321 299.76033057851237 49.59090909090925 301.9989068293584 49.59090909090925 304.76033057851237 Z" fill-opacity="1"/><path fill="none" stroke="rgb(0,0,0)" paint-order="fill stroke markers" d=" M 49.59090909090925 304.76033057851237 C 49.59090909090925 307.5217543276663 47.35233284006321 309.76033057851237 44.59090909090925 309.76033057851237 C 41.82948534175528 309.76033057851237 39.59090909090925 307.5217543276663 39.59090909090925 304.76033057851237 C 39.59090909090925 301.9989068293584 41.82948534175528 299.76033057851237 44.59090909090925 299.76033057851237 C 47.35233284006321 299.76033057851237 49.59090909090925 301.9989068293584 49.59090909090925 304.76033057851237 Z" stroke-opacity="1" stroke-linecap="round" stroke-linejoin="round" stroke-miterlimit="10"/><text fill="rgb(21,101,192)" stroke="none" font-family="geogebra-sans-serif, sans-serif" font-size="16px" font-style="normal" font-weight="normal" text-decoration="normal" x="34" y="329" text-anchor="start" dominant-baseline="alphabetic" fill-opacity="1">C</text><path fill="rgb(21,101,192)" stroke="none" paint-order="stroke fill markers" d=" M 344.40782247639527 301.42906602048424 C 344.40782247639527 304.1904897696382 342.1692462255492 306.42906602048424 339.40782247639527 306.42906602048424 C 336.6463987272413 306.42906602048424 334.40782247639527 304.1904897696382 334.40782247639527 301.42906602048424 C 334.40782247639527 298.6676422713303 336.6463987272413 296.42906602048424 339.40782247639527 296.42906602048424 C 342.1692462255492 296.42906602048424 344.40782247639527 298.6676422713303 344.40782247639527 301.42906602048424 Z" fill-opacity="1"/><path fill="none" stroke="rgb(0,0,0)" paint-order="fill stroke markers" d=" M 344.40782247639527 301.42906602048424 C 344.40782247639527 304.1904897696382 342.1692462255492 306.42906602048424 339.40782247639527 306.42906602048424 C 336.6463987272413 306.42906602048424 334.40782247639527 304.1904897696382 334.40782247639527 301.42906602048424 C 334.40782247639527 298.6676422713303 336.6463987272413 296.42906602048424 339.40782247639527 296.42906602048424 C 342.1692462255492 296.42906602048424 344.40782247639527 298.6676422713303 344.40782247639527 301.42906602048424 Z" stroke-opacity="1" stroke-linecap="round" stroke-linejoin="round" stroke-miterlimit="10"/><path fill="rgb(110,109,115)" stroke="none" paint-order="stroke fill markers" d=" M 196.99936578365228 303.0946982994983 C 196.99936578365228 305.85612204865225 194.76078953280626 308.0946982994983 191.99936578365228 308.0946982994983 C 189.2379420344983 308.0946982994983 186.99936578365228 305.85612204865225 186.99936578365228 303.0946982994983 C 186.99936578365228 300.33327455034436 189.2379420344983 298.0946982994983 191.99936578365228 298.0946982994983 C 194.76078953280626 298.0946982994983 196.99936578365228 300.33327455034436 196.99936578365228 303.0946982994983 Z" fill-opacity="1"/><path fill="none" stroke="rgb(0,0,0)" paint-order="fill stroke markers" d=" M 196.99936578365228 303.0946982994983 C 196.99936578365228 305.85612204865225 194.76078953280626 308.0946982994983 191.99936578365228 308.0946982994983 C 189.2379420344983 308.0946982994983 186.99936578365228 305.85612204865225 186.99936578365228 303.0946982994983 C 186.99936578365228 300.33327455034436 189.2379420344983 298.0946982994983 191.99936578365228 298.0946982994983 C 194.76078953280626 298.0946982994983 196.99936578365228 300.33327455034436 196.99936578365228 303.0946982994983 Z" stroke-opacity="1" stroke-linecap="round" stroke-linejoin="round" stroke-miterlimit="10"/><path fill="rgb(110,109,115)" stroke="none" paint-order="stroke fill markers" d=" M 123.29513743728077 303.92751443900534 C 123.29513743728077 306.6889381881593 121.05656118643473 308.92751443900534 118.29513743728077 308.92751443900534 C 115.53371368812681 308.92751443900534 113.29513743728077 306.6889381881593 113.29513743728077 303.92751443900534 C 113.29513743728077 301.1660906898514 115.53371368812681 298.92751443900534 118.29513743728077 298.92751443900534 C 121.05656118643473 298.92751443900534 123.29513743728077 301.1660906898514 123.29513743728077 303.92751443900534 Z" fill-opacity="1"/><path fill="none" stroke="rgb(0,0,0)" paint-order="fill stroke markers" d=" M 123.29513743728077 303.92751443900534 C 123.29513743728077 306.6889381881593 121.05656118643473 308.92751443900534 118.29513743728077 308.92751443900534 C 115.53371368812681 308.92751443900534 113.29513743728077 306.6889381881593 113.29513743728077 303.92751443900534 C 113.29513743728077 301.1660906898514 115.53371368812681 298.92751443900534 118.29513743728077 298.92751443900534 C 121.05656118643473 298.92751443900534 123.29513743728077 301.1660906898514 123.29513743728077 303.92751443900534 Z" stroke-opacity="1" stroke-linecap="round" stroke-linejoin="round" stroke-miterlimit="10"/><path fill="rgb(110,109,115)" stroke="none" paint-order="stroke fill markers" d=" M 270.70359413002376 302.2618821599913 C 270.70359413002376 305.0233059091452 268.4650178791777 307.2618821599913 265.70359413002376 307.2618821599913 C 262.9421703808698 307.2618821599913 260.70359413002376 305.0233059091452 260.70359413002376 302.2618821599913 C 260.70359413002376 299.5004584108373 262.9421703808698 297.2618821599913 265.70359413002376 297.2618821599913 C 268.4650178791777 297.2618821599913 270.70359413002376 299.5004584108373 270.70359413002376 302.2618821599913 Z" fill-opacity="1"/><path fill="none" stroke="rgb(0,0,0)" paint-order="fill stroke markers" d=" M 270.70359413002376 302.2618821599913 C 270.70359413002376 305.0233059091452 268.4650178791777 307.2618821599913 265.70359413002376 307.2618821599913 C 262.9421703808698 307.2618821599913 260.70359413002376 305.0233059091452 260.70359413002376 302.2618821599913 C 260.70359413002376 299.5004584108373 262.9421703808698 297.2618821599913 265.70359413002376 297.2618821599913 C 268.4650178791777 297.2618821599913 270.70359413002376 299.5004584108373 270.70359413002376 302.2618821599913 Z" stroke-opacity="1" stroke-linecap="round" stroke-linejoin="round" stroke-miterlimit="10"/><text fill="rgb(110,109,115)" stroke="none" font-family="geogebra-sans-serif, sans-serif" font-size="16px" font-style="normal" font-weight="normal" text-decoration="normal" x="275" y="327" text-anchor="start" dominant-baseline="alphabetic" fill-opacity="1">D</text><path fill="rgb(110,109,115)" stroke="none" paint-order="stroke fill markers" d=" M 208.3198330350359 31.258184705555436 C 208.3198330350359 34.0196084547094 206.0812567841899 36.258184705555436 203.3198330350359 36.258184705555436 C 200.55840928588194 36.258184705555436 198.3198330350359 34.0196084547094 198.3198330350359 31.258184705555436 C 198.3198330350359 28.49676095640147 200.55840928588194 26.258184705555436 203.3198330350359 26.258184705555436 C 206.0812567841899 26.258184705555436 208.3198330350359 28.49676095640147 208.3198330350359 31.258184705555436 Z" fill-opacity="1"/><path fill="none" stroke="rgb(0,0,0)" paint-order="fill stroke markers" d=" M 208.3198330350359 31.258184705555436 C 208.3198330350359 34.0196084547094 206.0812567841899 36.258184705555436 203.3198330350359 36.258184705555436 C 200.55840928588194 36.258184705555436 198.3198330350359 34.0196084547094 198.3198330350359 31.258184705555436 C 198.3198330350359 28.49676095640147 200.55840928588194 26.258184705555436 203.3198330350359 26.258184705555436 C 206.0812567841899 26.258184705555436 208.3198330350359 28.49676095640147 208.3198330350359 31.258184705555436 Z" stroke-opacity="1" stroke-linecap="round" stroke-linejoin="round" stroke-miterlimit="10"/><text fill="rgb(110,109,115)" stroke="none" font-family="geogebra-sans-serif, sans-serif" font-size="16px" font-style="normal" font-weight="normal" text-decoration="normal" x="217" y="40" text-anchor="start" dominant-baseline="alphabetic" fill-opacity="1">E</text><path fill="rgb(110,109,115)" stroke="none" paint-order="stroke fill markers" d=" M 152.07024793388442 211.64738292011015 C 152.07024793388442 214.40880666926412 149.8316716830384 216.64738292011015 147.07024793388442 216.64738292011015 C 144.30882418473044 216.64738292011015 142.07024793388442 214.40880666926412 142.07024793388442 211.64738292011015 C 142.07024793388442 208.88595917095617 144.30882418473044 206.64738292011015 147.07024793388442 206.64738292011015 C 149.8316716830384 206.64738292011015 152.07024793388442 208.88595917095617 152.07024793388442 211.64738292011015 Z" fill-opacity="1"/><path fill="none" stroke="rgb(0,0,0)" paint-order="fill stroke markers" d=" M 152.07024793388442 211.64738292011015 C 152.07024793388442 214.40880666926412 149.8316716830384 216.64738292011015 147.07024793388442 216.64738292011015 C 144.30882418473044 216.64738292011015 142.07024793388442 214.40880666926412 142.07024793388442 211.64738292011015 C 142.07024793388442 208.88595917095617 144.30882418473044 206.64738292011015 147.07024793388442 206.64738292011015 C 149.8316716830384 206.64738292011015 152.07024793388442 208.88595917095617 152.07024793388442 211.64738292011015 Z" stroke-opacity="1" stroke-linecap="round" stroke-linejoin="round" stroke-miterlimit="10"/><path fill="rgb(110,109,115)" stroke="none" paint-order="stroke fill markers" d=" M 200.83057851239678 211.0964187327823 C 200.83057851239678 213.85784248193627 198.59200226155076 216.0964187327823 195.83057851239678 216.0964187327823 C 193.0691547632428 216.0964187327823 190.83057851239678 213.85784248193627 190.83057851239678 211.0964187327823 C 190.83057851239678 208.33499498362832 193.0691547632428 206.0964187327823 195.83057851239678 206.0964187327823 C 198.59200226155076 206.0964187327823 200.83057851239678 208.33499498362832 200.83057851239678 211.0964187327823 Z" fill-opacity="1"/><path fill="none" stroke="rgb(0,0,0)" paint-order="fill stroke markers" d=" M 200.83057851239678 211.0964187327823 C 200.83057851239678 213.85784248193627 198.59200226155076 216.0964187327823 195.83057851239678 216.0964187327823 C 193.0691547632428 216.0964187327823 190.83057851239678 213.85784248193627 190.83057851239678 211.0964187327823 C 190.83057851239678 208.33499498362832 193.0691547632428 206.0964187327823 195.83057851239678 206.0964187327823 C 198.59200226155076 206.0964187327823 200.83057851239678 208.33499498362832 200.83057851239678 211.0964187327823 Z" stroke-opacity="1" stroke-linecap="round" stroke-linejoin="round" stroke-miterlimit="10"/></g></g></svg>