<svg version="1.1" xmlns="http://www.w3.org/2000/svg" xmlns:xlink="http://www.w3.org/1999/xlink" width="377" height="383"><defs><clipPath id="mnluZUwmwcMk"><path fill="none" stroke="none" d=" M 0 0 L 377 0 L 377 383 L 0 383 L 0 0 Z"/></clipPath></defs><g transform="scale(1,1)" clip-path="url(#mnluZUwmwcMk)"><g><rect fill="transparent" stroke="none" x="0" y="0" width="377" height="383" fill-opacity="1"/><path fill="rgb(0,0,0)" stroke="none" paint-order="stroke fill markers" d=" M 77.1944243191936 144.50467160843294 C 77.91403133802775 141.80805146572635 78.25381572612592 139.02420455438374 78.20394776073432 136.2336656025621 L 48.2087368659231 136.7696911390771 Z" fill-opacity="0.09803921568627451"/><path fill="none" stroke="rgb(0,0,0)" paint-order="fill stroke markers" d=" M 77.1944243191936 144.50467160843294 C 77.91403133802775 141.80805146572635 78.25381572612592 139.02420455438374 78.20394776073432 136.2336656025621 L 48.2087368659231 136.7696911390771 Z" stroke-opacity="0.6" stroke-linecap="round" stroke-linejoin="round" stroke-miterlimit="10" stroke-width="2.5"/><path fill="rgb(0,0,0)" stroke="none" paint-order="stroke fill markers" d=" M 56.77770855636578 165.51986895015148 C 59.45241857373992 164.72267337906203 62.00279888386248 163.55613262541212 64.35506878272429 162.05399389063598 L 48.2087368659231 136.7696911390771 Z" fill-opacity="0.09803921568627451"/><path fill="none" stroke="rgb(0,0,0)" paint-order="fill stroke markers" d=" M 56.77770855636578 165.51986895015148 C 59.45241857373992 164.72267337906203 62.00279888386248 163.55613262541212 64.35506878272429 162.05399389063598 L 48.2087368659231 136.7696911390771 Z" stroke-opacity="0.6" stroke-linecap="round" stroke-linejoin="round" stroke-miterlimit="10" stroke-width="2.5"/><path fill="none" stroke="rgb(211,47,47)" paint-order="fill stroke markers" d=" M 143.6367607936836 286.2049350325716 L 48.2087368659231 136.7696911390771" stroke-opacity="0.6980392156862745" stroke-linecap="round" stroke-linejoin="round" stroke-miterlimit="10" stroke-width="2.5"/><path fill="none" stroke="rgb(211,47,47)" paint-order="fill stroke markers" d=" M 48.2087368659231 136.7696911390771 L 317.5228701874012 131.9569477544424" stroke-opacity="0.6980392156862745" stroke-linecap="round" stroke-linejoin="round" stroke-miterlimit="10" stroke-width="2.5"/><path fill="none" stroke="rgb(0,0,0)" paint-order="fill stroke markers" d=" M 317.5228701874012 131.9569477544424 L 309.77499999999986 206.57000000000022" stroke-opacity="0.6980392156862745" stroke-linecap="round" stroke-linejoin="round" stroke-miterlimit="10" stroke-width="2.5"/><path fill="none" stroke="rgb(21,101,192)" paint-order="fill stroke markers" d=" M 309.77499999999986 206.57000000000022 L 48.2087368659231 136.7696911390771" stroke-opacity="0.6980392156862745" stroke-linecap="round" stroke-linejoin="round" stroke-miterlimit="10" stroke-width="2.5"/><path fill="none" stroke="rgb(0,0,0)" paint-order="fill stroke markers" d=" M 143.6367607936836 286.2049350325716 L 317.5228701874012 131.9569477544424" stroke-opacity="0.6980392156862745" stroke-linecap="round" stroke-linejoin="round" stroke-miterlimit="10" stroke-width="2.5"/><path fill="none" stroke="rgb(0,0,0)" paint-order="fill stroke markers" d=" M 309.77499999999986 206.57000000000022 L 0 355.0542509320212" stroke-opacity="0.6980392156862745" stroke-linecap="round" stroke-linejoin="round" stroke-miterlimit="10" stroke-width="2.5"/><path fill="none" stroke="rgb(21,101,192)" paint-order="fill stroke markers" d=" M 48.2087368659231 136.7696911390771 L 99.10919136421595 307.5483061650325" stroke-opacity="0.6980392156862745" stroke-linecap="round" stroke-linejoin="round" stroke-miterlimit="10" stroke-width="2.5"/><path fill="rgb(21,101,192)" stroke="none" paint-order="stroke fill markers" d=" M 314.77499999999986 206.57000000000022 C 314.77499999999986 209.3314237491542 312.5364237491538 211.57000000000022 309.77499999999986 211.57000000000022 C 307.0135762508459 211.57000000000022 304.77499999999986 209.3314237491542 304.77499999999986 206.57000000000022 C 304.77499999999986 203.80857625084624 307.0135762508459 201.57000000000022 309.77499999999986 201.57000000000022 C 312.5364237491538 201.57000000000022 314.77499999999986 203.80857625084624 314.77499999999986 206.57000000000022 Z" fill-opacity="1"/><path fill="none" stroke="rgb(0,0,0)" paint-order="fill stroke markers" d=" M 314.77499999999986 206.57000000000022 C 314.77499999999986 209.3314237491542 312.5364237491538 211.57000000000022 309.77499999999986 211.57000000000022 C 307.0135762508459 211.57000000000022 304.77499999999986 209.3314237491542 304.77499999999986 206.57000000000022 C 304.77499999999986 203.80857625084624 307.0135762508459 201.57000000000022 309.77499999999986 201.57000000000022 C 312.5364237491538 201.57000000000022 314.77499999999986 203.80857625084624 314.77499999999986 206.57000000000022 Z" stroke-opacity="1" stroke-linecap="round" stroke-linejoin="round" stroke-miterlimit="10"/><text fill="rgb(21,101,192)" stroke="none" font-family="geogebra-sans-serif, sans-serif" font-size="16px" font-style="normal" font-weight="normal" text-decoration="normal" x="314" y="197" text-anchor="start" dominant-baseline="alphabetic" fill-opacity="1">B</text><text fill="none" stroke="rgb(255,255,255)" font-family="geogebra-sans-serif, sans-serif" font-size="16px" font-style="normal" font-weight="normal" text-decoration="normal" x="314" y="197" text-anchor="start" dominant-baseline="alphabetic" stroke-opacity="1" stroke-linejoin="bevel" stroke-miterlimit="10" stroke-width="3">B</text><text fill="rgb(21,101,192)" stroke="none" font-family="geogebra-sans-serif, sans-serif" font-size="16px" font-style="normal" font-weight="normal" text-decoration="normal" x="314" y="197" text-anchor="start" dominant-baseline="alphabetic" fill-opacity="1">B</text><path fill="rgb(21,101,192)" stroke="none" paint-order="stroke fill markers" d=" M 148.6367607936836 286.2049350325716 C 148.6367607936836 288.96635878172555 146.39818454283758 291.2049350325716 143.6367607936836 291.2049350325716 C 140.87533704452963 291.2049350325716 138.6367607936836 288.96635878172555 138.6367607936836 286.2049350325716 C 138.6367607936836 283.44351128341765 140.87533704452963 281.2049350325716 143.6367607936836 281.2049350325716 C 146.39818454283758 281.2049350325716 148.6367607936836 283.44351128341765 148.6367607936836 286.2049350325716 Z" fill-opacity="1"/><path fill="none" stroke="rgb(0,0,0)" paint-order="fill stroke markers" d=" M 148.6367607936836 286.2049350325716 C 148.6367607936836 288.96635878172555 146.39818454283758 291.2049350325716 143.6367607936836 291.2049350325716 C 140.87533704452963 291.2049350325716 138.6367607936836 288.96635878172555 138.6367607936836 286.2049350325716 C 138.6367607936836 283.44351128341765 140.87533704452963 281.2049350325716 143.6367607936836 281.2049350325716 C 146.39818454283758 281.2049350325716 148.6367607936836 283.44351128341765 148.6367607936836 286.2049350325716 Z" stroke-opacity="1" stroke-linecap="round" stroke-linejoin="round" stroke-miterlimit="10"/><text fill="rgb(21,101,192)" stroke="none" font-family="geogebra-sans-serif, sans-serif" font-size="16px" font-style="normal" font-weight="normal" text-decoration="normal" x="148" y="276" text-anchor="start" dominant-baseline="alphabetic" fill-opacity="1">C</text><text fill="none" stroke="rgb(255,255,255)" font-family="geogebra-sans-serif, sans-serif" font-size="16px" font-style="normal" font-weight="normal" text-decoration="normal" x="148" y="276" text-anchor="start" dominant-baseline="alphabetic" stroke-opacity="1" stroke-linejoin="bevel" stroke-miterlimit="10" stroke-width="3">C</text><text fill="rgb(21,101,192)" stroke="none" font-family="geogebra-sans-serif, sans-serif" font-size="16px" font-style="normal" font-weight="normal" text-decoration="normal" x="148" y="276" text-anchor="start" dominant-baseline="alphabetic" fill-opacity="1">C</text><path fill="rgb(21,101,192)" stroke="none" paint-order="stroke fill markers" d=" M 53.2087368659231 136.7696911390771 C 53.2087368659231 139.5311148882311 50.97016061507706 141.7696911390771 48.2087368659231 141.7696911390771 C 45.44731311676913 141.7696911390771 43.2087368659231 139.5311148882311 43.2087368659231 136.7696911390771 C 43.2087368659231 134.00826738992313 45.44731311676913 131.7696911390771 48.2087368659231 131.7696911390771 C 50.97016061507706 131.7696911390771 53.2087368659231 134.00826738992313 53.2087368659231 136.7696911390771 Z" fill-opacity="1"/><path fill="none" stroke="rgb(0,0,0)" paint-order="fill stroke markers" d=" M 53.2087368659231 136.7696911390771 C 53.2087368659231 139.5311148882311 50.97016061507706 141.7696911390771 48.2087368659231 141.7696911390771 C 45.44731311676913 141.7696911390771 43.2087368659231 139.5311148882311 43.2087368659231 136.7696911390771 C 43.2087368659231 134.00826738992313 45.44731311676913 131.7696911390771 48.2087368659231 131.7696911390771 C 50.97016061507706 131.7696911390771 53.2087368659231 134.00826738992313 53.2087368659231 136.7696911390771 Z" stroke-opacity="1" stroke-linecap="round" stroke-linejoin="round" stroke-miterlimit="10"/><text fill="rgb(21,101,192)" stroke="none" font-family="geogebra-sans-serif, sans-serif" font-size="16px" font-style="normal" font-weight="normal" text-decoration="normal" x="52" y="127" text-anchor="start" dominant-baseline="alphabetic" fill-opacity="1">D</text><text fill="none" stroke="rgb(255,255,255)" font-family="geogebra-sans-serif, sans-serif" font-size="16px" font-style="normal" font-weight="normal" text-decoration="normal" x="52" y="127" text-anchor="start" dominant-baseline="alphabetic" stroke-opacity="1" stroke-linejoin="bevel" stroke-miterlimit="10" stroke-width="3">D</text><text fill="rgb(21,101,192)" stroke="none" font-family="geogebra-sans-serif, sans-serif" font-size="16px" font-style="normal" font-weight="normal" text-decoration="normal" x="52" y="127" text-anchor="start" dominant-baseline="alphabetic" fill-opacity="1">D</text><path fill="rgb(21,101,192)" stroke="none" paint-order="stroke fill markers" d=" M 322.5228701874012 131.9569477544424 C 322.5228701874012 134.7183715035964 320.2842939365552 136.9569477544424 317.5228701874012 136.9569477544424 C 314.7614464382473 136.9569477544424 312.5228701874012 134.7183715035964 312.5228701874012 131.9569477544424 C 312.5228701874012 129.19552400528843 314.7614464382473 126.95694775444241 317.5228701874012 126.95694775444241 C 320.2842939365552 126.95694775444241 322.5228701874012 129.19552400528843 322.5228701874012 131.9569477544424 Z" fill-opacity="1"/><path fill="none" stroke="rgb(0,0,0)" paint-order="fill stroke markers" d=" M 322.5228701874012 131.9569477544424 C 322.5228701874012 134.7183715035964 320.2842939365552 136.9569477544424 317.5228701874012 136.9569477544424 C 314.7614464382473 136.9569477544424 312.5228701874012 134.7183715035964 312.5228701874012 131.9569477544424 C 312.5228701874012 129.19552400528843 314.7614464382473 126.95694775444241 317.5228701874012 126.95694775444241 C 320.2842939365552 126.95694775444241 322.5228701874012 129.19552400528843 322.5228701874012 131.9569477544424 Z" stroke-opacity="1" stroke-linecap="round" stroke-linejoin="round" stroke-miterlimit="10"/><text fill="rgb(21,101,192)" stroke="none" font-family="geogebra-sans-serif, sans-serif" font-size="16px" font-style="normal" font-weight="normal" text-decoration="normal" x="322" y="122" text-anchor="start" dominant-baseline="alphabetic" fill-opacity="1">A</text><text fill="none" stroke="rgb(255,255,255)" font-family="geogebra-sans-serif, sans-serif" font-size="16px" font-style="normal" font-weight="normal" text-decoration="normal" x="322" y="122" text-anchor="start" dominant-baseline="alphabetic" stroke-opacity="1" stroke-linejoin="bevel" stroke-miterlimit="10" stroke-width="3">A</text><text fill="rgb(21,101,192)" stroke="none" font-family="geogebra-sans-serif, sans-serif" font-size="16px" font-style="normal" font-weight="normal" text-decoration="normal" x="322" y="122" text-anchor="start" dominant-baseline="alphabetic" fill-opacity="1">A</text><path fill="rgb(97,97,97)" stroke="none" paint-order="stroke fill markers" d=" M 104.10919136421595 307.5483061650325 C 104.10919136421595 310.30972991418645 101.87061511336991 312.5483061650325 99.10919136421595 312.5483061650325 C 96.34776761506198 312.5483061650325 94.10919136421595 310.30972991418645 94.10919136421595 307.5483061650325 C 94.10919136421595 304.78688241587855 96.34776761506198 302.5483061650325 99.10919136421595 302.5483061650325 C 101.87061511336991 302.5483061650325 104.10919136421595 304.78688241587855 104.10919136421595 307.5483061650325 Z" fill-opacity="1"/><path fill="none" stroke="rgb(0,0,0)" paint-order="fill stroke markers" d=" M 104.10919136421595 307.5483061650325 C 104.10919136421595 310.30972991418645 101.87061511336991 312.5483061650325 99.10919136421595 312.5483061650325 C 96.34776761506198 312.5483061650325 94.10919136421595 310.30972991418645 94.10919136421595 307.5483061650325 C 94.10919136421595 304.78688241587855 96.34776761506198 302.5483061650325 99.10919136421595 302.5483061650325 C 101.87061511336991 302.5483061650325 104.10919136421595 304.78688241587855 104.10919136421595 307.5483061650325 Z" stroke-opacity="1" stroke-linecap="round" stroke-linejoin="round" stroke-miterlimit="10"/><text fill="rgb(97,97,97)" stroke="none" font-family="geogebra-sans-serif, sans-serif" font-size="16px" font-style="normal" font-weight="normal" text-decoration="normal" x="103" y="298" text-anchor="start" dominant-baseline="alphabetic" fill-opacity="1">E</text><text fill="none" stroke="rgb(255,255,255)" font-family="geogebra-sans-serif, sans-serif" font-size="16px" font-style="normal" font-weight="normal" text-decoration="normal" x="103" y="298" text-anchor="start" dominant-baseline="alphabetic" stroke-opacity="1" stroke-linejoin="bevel" stroke-miterlimit="10" stroke-width="3">E</text><text fill="rgb(97,97,97)" stroke="none" font-family="geogebra-sans-serif, sans-serif" font-size="16px" font-style="normal" font-weight="normal" text-decoration="normal" x="103" y="298" text-anchor="start" dominant-baseline="alphabetic" fill-opacity="1">E</text></g></g></svg>
