<!--
\begin{tikzcd}
	X && Y \\
	& Z
	\arrow["f", from=1-1, to=1-3]
	\arrow["h"', from=1-1, to=2-2]
	\arrow["g", from=1-3, to=2-2]
\end{tikzcd}
-->
<svg version="1.1" xmlns="http://www.w3.org/2000/svg" xmlns:xlink="http://www.w3.org/1999/xlink" width="127.04143pt" height="64.56036pt" viewBox="-72 -72 127.04143 64.56036"><g stroke-miterlimit="10" transform="translate(-7.082626342773436,-37.93881225585937) scale(1,-1)"><g stroke="currentColor" fill="currentColor"><g stroke-width="0.4"><g transform="translate(-61.85405,-24.73958)"><g stroke="currentColor" fill="currentColor"><g stroke="none" transform="scale(-1,1) translate(-7.082626342773436,-37.93881225585937) scale(-1,-1)"><g stroke-miterlimit="10" transform="translate(6.177749633789061,-77.16801452636717) scale(1,-1)"><g transform="matrix(1.5,0.0,0.0,1.5,-6.80206,0.0)"><g stroke="currentColor" fill="currentColor"><g stroke="none" transform="scale(-1,1) translate(6.177749633789061,-77.16801452636717) scale(-1,-1)"><g fill="currentColor"><g stroke="none"><text alignment-baseline="baseline" y="-77.16801452636717" x="6.177749633789061" font-family="KaTeX_Math" font-size="10" fill="currentColor">X</text></g></g></g></g></g></g><g stroke-miterlimit="10" transform="translate(55.55265808105467,-77.16801452636717) scale(1,-1)"></g><g stroke-miterlimit="10" transform="translate(104.14633178710935,-77.16801452636717) scale(1,-1)"><g transform="matrix(1.5,0.0,0.0,1.5,-6.02083,0.0)"><g stroke="currentColor" fill="currentColor"><g stroke="none" transform="scale(-1,1) translate(104.14633178710935,-77.16801452636717) scale(-1,-1)"><g fill="currentColor"><g stroke="none"><text alignment-baseline="baseline" y="-77.16801452636717" x="104.14633178710935" font-family="KaTeX_Math" font-size="10" fill="currentColor">Y</text></g></g></g></g></g></g><g stroke-miterlimit="10" transform="translate(6.177749633789061,-37.93881225585937) scale(1,-1)"></g><g stroke-miterlimit="10" transform="translate(55.55265808105467,-37.93881225585937) scale(1,-1)"><g transform="matrix(1.5,0.0,0.0,1.5,-5.65623,0.0)"><g stroke="currentColor" fill="currentColor"><g stroke="none" transform="scale(-1,1) translate(55.55265808105467,-37.93881225585937) scale(-1,-1)"><g fill="currentColor"><g stroke="none"><text alignment-baseline="baseline" y="-37.93881225585937" x="55.55265808105467" font-family="KaTeX_Math" font-size="10" fill="currentColor">Z</text></g></g></g></g></g></g></g></g></g><g stroke-width="0.39998"><path d=" M -35.0333 18.23962 L 36.19582 18.23962  " fill="none"></path><g transform="translate(36.3958,18.23962)"><g stroke-dasharray="none" stroke-dashoffset="0.0"><g stroke-linecap="round"><g stroke-linejoin="round"><path d=" M -2.07988 2.39986 C -1.69989 0.95992 -0.85313 0.27998 0.0 0.0 C -0.85313 -0.27998 -1.69989 -0.95992 -2.07988 -2.39986  " fill="none"></path></g></g></g>  </g><g transform="matrix(1.5,0.0,0.0,1.5,-2.73183,23.8104)"><g stroke="currentColor" fill="currentColor"><g stroke="none" transform="scale(-1,1) translate(-7.082626342773436,-37.93881225585937) scale(-1,-1)"><g fill="currentColor"><g stroke="none"><text alignment-baseline="baseline" y="-37.93881225585937" x="-7.082626342773436" font-family="KaTeX_Math" font-size="7" fill="currentColor">f</text></g></g></g></g></g></g><g stroke-width="0.39998"><path d=" M -36.59088 8.70004 L -11.94643 -10.88094  " fill="currentColor"></path><g transform="matrix(0.78291,-0.62204,0.62204,0.78291,-11.78987,-11.00531)"><g stroke-dasharray="none" stroke-dashoffset="0.0"><g stroke-linecap="round"><g stroke-linejoin="round"><path d=" M -2.07988 2.39986 C -1.69989 0.95992 -0.85313 0.27998 0.0 0.0 C -0.85313 -0.27998 -1.69989 -0.95992 -2.07988 -2.39986  " fill="none"></path></g></g></g>  </g><g transform="matrix(1.5,0.0,0.0,1.5,-34.66382,-12.03558)"><g stroke="currentColor" fill="currentColor"><g stroke="none" transform="scale(-1,1) translate(-7.082626342773436,-37.93881225585937) scale(-1,-1)"><g fill="currentColor"><g stroke="none"><text alignment-baseline="baseline" y="-37.93881225585937" x="-7.082626342773436" font-family="KaTeX_Math" font-size="7" fill="currentColor">h</text></g></g></g></g></g></g><g stroke-width="0.39998"><path d=" M 37.56326 8.70004 L 13.50697 -10.71992  " fill="none"></path><g transform="matrix(-0.77808,-0.62811,0.62811,-0.77808,13.3514,-10.84554)"><g stroke-dasharray="none" stroke-dashoffset="0.0"><g stroke-linecap="round"><g stroke-linejoin="round"><path d=" M -2.07988 2.39986 C -1.69989 0.95992 -0.85313 0.27998 0.0 0.0 C -0.85313 -0.27998 -1.69989 -0.95992 -2.07988 -2.39986  " fill="none"></path></g></g></g>  </g><g transform="matrix(1.5,0.0,0.0,1.5,28.90866,-9.1855)"><g stroke="currentColor" fill="currentColor"><g stroke="none" transform="scale(-1,1) translate(-7.082626342773436,-37.93881225585937) scale(-1,-1)"><g fill="currentColor"><g stroke="none"><text alignment-baseline="baseline" y="-37.93881225585937" x="-7.082626342773436" font-family="KaTeX_Math" font-size="7" fill="currentColor">g</text></g></g></g></g></g></g></g></g></g></svg>
