<!--
\begin{tikzcd}
	A && B \\
	C && D
	\arrow["u", from=1-1, to=1-3]
	\arrow["x"', from=1-1, to=2-1]
	\arrow["v", from=1-3, to=2-3]
	\arrow["y"', from=2-1, to=2-3]
\end{tikzcd}
-->
<svg version="1.1" xmlns="http://www.w3.org/2000/svg" xmlns:xlink="http://www.w3.org/1999/xlink" width="103.25992pt" height="64.53949pt" viewBox="-72 -72 103.25992 64.53949"><g stroke-miterlimit="10" transform="translate(-18.500534057617184,-42.04083251953124) scale(1,-1)"><g stroke="currentColor" fill="#000"><g stroke-width="0.4"><g transform="translate(-49.23117,-24.73958)"><g stroke="#000" fill="#000"><g stroke="none" transform="scale(-1,1) translate(-18.500534057617184,-42.04083251953124) scale(-1,-1)"><g stroke-miterlimit="10" transform="translate(-6.145355224609373,-81.27003479003905) scale(1,-1)"><g transform="matrix(1.5,0.0,0.0,1.5,-5.625,0.0)"><g stroke="#000" fill="#000"><g stroke="none" transform="scale(-1,1) translate(-6.145355224609373,-81.27003479003905) scale(-1,-1)"><g fill="#000"><g stroke="none"><text alignment-baseline="baseline" y="-81.27003479003905" x="-6.145355224609373" font-family="KaTeX_Math" font-size="10" fill="currentColor">A</text></g></g></g></g></g></g><g stroke-miterlimit="10" transform="translate(30.209793090820305,-81.27003479003905) scale(1,-1)"></g><g stroke-miterlimit="10" transform="translate(67.08578491210936,-81.27003479003905) scale(1,-1)"><g transform="matrix(1.5,0.0,0.0,1.5,-6.0651,0.0)"><g stroke="currentColor" fill="currentColor"><g stroke="none" transform="scale(-1,1) translate(67.08578491210936,-81.27003479003905) scale(-1,-1)"><g fill="currentColor"><g stroke="none"><text alignment-baseline="baseline" y="-81.27003479003905" x="67.08578491210936" font-family="KaTeX_Math" font-size="10" fill="currentColor">B</text></g></g></g></g></g></g><g stroke-miterlimit="10" transform="translate(-6.145355224609373,-42.04083251953124) scale(1,-1)"><g transform="matrix(1.5,0.0,0.0,1.5,-5.89687,0.0)"><g stroke="currentColor" fill="currentColor"><g stroke="none" transform="scale(-1,1) translate(-6.145355224609373,-42.04083251953124) scale(-1,-1)"><g fill="currentColor"><g stroke="none"><text alignment-baseline="baseline" y="-42.04083251953124" x="-6.145355224609373" font-family="KaTeX_Math" font-size="10" fill="currentColor">C</text></g></g></g></g></g></g><g stroke-miterlimit="10" transform="translate(30.209793090820305,-42.04083251953124) scale(1,-1)"></g><g stroke-miterlimit="10" transform="translate(67.08578491210936,-42.04083251953124) scale(1,-1)"><g transform="matrix(1.5,0.0,0.0,1.5,-6.41771,0.0)"><g stroke="currentColor" fill="currentColor"><g stroke="none" transform="scale(-1,1) translate(67.08578491210936,-42.04083251953124) scale(-1,-1)"><g fill="currentColor"><g stroke="none"><text alignment-baseline="baseline" y="-42.04083251953124" x="67.08578491210936" font-family="KaTeX_Math" font-size="10" fill="currentColor">D</text></g></g></g></g></g></g></g></g></g><g stroke-width="0.39998"><path d=" M -24.49269 18.23962 L 23.13179 18.23962  " fill="none"></path><g transform="translate(23.33177,18.23962)"><g stroke-dasharray="none" stroke-dashoffset="0.0"><g stroke-linecap="round"><g stroke-linejoin="round"><path d=" M -2.07988 2.39986 C -1.69989 0.95992 -0.85313 0.27998 0.0 0.0 C -0.85313 -0.27998 -1.69989 -0.95992 -2.07988 -2.39986  " fill="none"></path></g></g></g>  </g><g transform="matrix(1.5,0.0,0.0,1.5,-4.0265,21.76875)"><g stroke="currentColor" fill="currentColor"><g stroke="none" transform="scale(-1,1) translate(-18.500534057617184,-42.04083251953124) scale(-1,-1)"><g fill="currentColor"><g stroke="none"><text alignment-baseline="baseline" y="-42.04083251953124" x="-18.500534057617184" font-family="KaTeX_Math" font-size="7" fill="currentColor">u</text></g></g></g></g></g></g><g stroke-width="0.39998"><path d=" M -36.87572 8.70004 L -36.87581 -8.30006  " fill="none"></path><g transform="matrix(0.0,-1.0,1.0,0.0,-36.87581,-8.50005)"><g stroke-dasharray="none" stroke-dashoffset="0.0"><g stroke-linecap="round"><g stroke-linejoin="round"><path d=" M -2.07988 2.39986 C -1.69989 0.95992 -0.85313 0.27998 0.0 0.0 C -0.85313 -0.27998 -1.69989 -0.95992 -2.07988 -2.39986  " fill="none"></path></g></g></g>  </g><g transform="matrix(1.5,0.0,0.0,1.5,-47.20699,-2.26039)"><g stroke="currentColor" fill="currentColor"><g stroke="none" transform="scale(-1,1) translate(-18.500534057617184,-42.04083251953124) scale(-1,-1)"><g fill="currentColor"><g stroke="none"><text alignment-baseline="baseline" y="-42.04083251953124" x="-18.500534057617184" font-family="KaTeX_Math" font-size="7" fill="currentColor">x</text></g></g></g></g></g></g><g stroke-width="0.39998"><path d=" M 36.35542 8.70004 L 36.35533 -8.30006  " fill="none"></path><g transform="matrix(0.0,-1.0,1.0,0.0,36.35533,-8.50005)"><g stroke-dasharray="none" stroke-dashoffset="0.0"><g stroke-linecap="round"><g stroke-linejoin="round"><path d=" M -2.07988 2.39986 C -1.69989 0.95992 -0.85313 0.27998 0.0 0.0 C -0.85313 -0.27998 -1.69989 -0.95992 -2.07988 -2.39986  " fill="none"></path></g></g></g>  </g><g transform="matrix(1.5,0.0,0.0,1.5,39.8845,-2.26039)"><g stroke="currentColor" fill="currentColor"><g stroke="none" transform="scale(-1,1) translate(-18.500534057617184,-42.04083251953124) scale(-1,-1)"><g fill="currentColor"><g stroke="none"><text alignment-baseline="baseline" y="-42.04083251953124" x="-18.500534057617184" font-family="KaTeX_Math" font-size="7" fill="currentColor">v</text></g></g></g></g></g></g><g stroke-width="0.39998"><path d=" M -24.22083 -20.98958 L 22.77917 -20.98958  " fill="none"></path><g transform="translate(22.97916,-20.98958)"><g stroke-dasharray="none" stroke-dashoffset="0.0"><g stroke-linecap="round"><g stroke-linejoin="round"><path d=" M -2.07988 2.39986 C -1.69989 0.95992 -0.85313 0.27998 0.0 0.0 C -0.85313 -0.27998 -1.69989 -0.95992 -2.07988 -2.39986  " fill="none"></path></g></g></g>  </g><g transform="matrix(1.5,0.0,0.0,1.5,-3.75089,-29.03954)"><g stroke="currentColor" fill="currentColor"><g stroke="none" transform="scale(-1,1) translate(-18.500534057617184,-42.04083251953124) scale(-1,-1)"><g fill="currentColor"><g stroke="none"><text alignment-baseline="baseline" y="-42.04083251953124" x="-18.500534057617184" font-family="KaTeX_Math" font-size="7" fill="currentColor">y</text></g></g></g></g></g></g></g></g></g></svg>

