<svg version="1.1" xmlns="http://www.w3.org/2000/svg" xmlns:xlink="http://www.w3.org/1999/xlink" width="297" height="346"><defs><clipPath id="viqFymRkNMwR"><path fill="none" stroke="none" d=" M 0 0 L 297 0 L 297 346 L 0 346 L 0 0 Z"/></clipPath></defs><g transform="scale(1,1)" clip-path="url(#viqFymRkNMwR)"><g><rect fill="none" stroke="none" x="0" y="0" width="297" height="346" fill-opacity="1"/><path fill="rgb(102,102,102)" stroke="none" paint-order="stroke fill markers" fill-rule="evenodd" d=" M 262 143.99999999999997 L 108.99999999999997 258.9999999999999 L 95.99999999999997 24.00000000000003 Z" fill-opacity="0.09803921568627451"/><path fill="none" stroke="rgb(0,0,0)" paint-order="fill stroke markers" d=" M 262.08269104253344 139.4869959946595 C 262.08269104253344 207.52503781194892 206.9269603753669 262.68076847911544 138.88891855807742 262.68076847911544 C 70.85087674078797 262.68076847911544 15.695146073621416 207.52503781194892 15.695146073621416 139.4869959946595 C 15.695146073621416 71.4489541773701 70.85087674078797 16.293223510203575 138.88891855807742 16.293223510203575 C 206.9269603753669 16.293223510203575 262.08269104253344 71.4489541773701 262.08269104253344 139.4869959946595 Z" stroke-opacity="0.6980392156862745" stroke-linecap="round" stroke-linejoin="round" stroke-miterlimit="10" stroke-width="2.5"/><path fill="none" stroke="rgb(102,102,102)" paint-order="fill stroke markers" d=" M 262 143.99999999999997 L 108.99999999999997 258.9999999999999" stroke-opacity="0.6980392156862745" stroke-linecap="round" stroke-linejoin="round" stroke-miterlimit="10" stroke-width="2.5"/><path fill="none" stroke="rgb(102,102,102)" paint-order="fill stroke markers" d=" M 108.99999999999997 258.9999999999999 L 95.99999999999997 24.00000000000003" stroke-opacity="0.6980392156862745" stroke-linecap="round" stroke-linejoin="round" stroke-miterlimit="10" stroke-width="2.5"/><path fill="none" stroke="rgb(102,102,102)" paint-order="fill stroke markers" d=" M 95.99999999999997 24.00000000000003 L 262 143.99999999999997" stroke-opacity="0.6980392156862745" stroke-linecap="round" stroke-linejoin="round" stroke-miterlimit="10" stroke-width="2.5"/><path fill="none" stroke="rgb(0,0,0)" paint-order="fill stroke markers" d=" M 162.0751218053407 144.93038978095797 L 262 143.99999999999997" stroke-opacity="0.6980392156862745" stroke-linecap="round" stroke-linejoin="round" stroke-miterlimit="10" stroke-width="2.5"/><path fill="none" stroke="rgb(0,0,0)" paint-order="fill stroke markers" d=" M 259.8441125096988 329.1858245127438 L 262 143.99999999999997" stroke-opacity="0.6980392156862745" stroke-linecap="round" stroke-linejoin="round" stroke-miterlimit="10" stroke-width="2.5"/><path fill="none" stroke="rgb(0,0,0)" paint-order="fill stroke markers" d=" M 162.0751218053407 144.93038978095797 L 108.99999999999997 258.9999999999999" stroke-opacity="0.6980392156862745" stroke-linecap="round" stroke-linejoin="round" stroke-miterlimit="10" stroke-width="2.5"/><path fill="none" stroke="rgb(0,0,0)" paint-order="fill stroke markers" d=" M 108.99999999999997 258.9999999999999 L 259.8441125096988 329.1858245127438" stroke-opacity="0.6980392156862745" stroke-linecap="round" stroke-linejoin="round" stroke-miterlimit="10" stroke-width="2.5"/><path fill="none" stroke="rgb(204,102,0)" paint-order="fill stroke markers" d=" M 212.9081249384861 237.96472274424673 L 108.99999999999997 258.9999999999999" stroke-opacity="0.6980392156862745" stroke-linecap="round" stroke-linejoin="round" stroke-miterlimit="10" stroke-width="2.5"/><path fill="none" stroke="rgb(204,102,0)" paint-order="fill stroke markers" d=" M 212.9081249384861 237.96472274424673 L 262 143.99999999999997" stroke-opacity="0.6980392156862745" stroke-linecap="round" stroke-linejoin="round" stroke-miterlimit="10" stroke-width="2.5"/><path fill="none" stroke="rgb(204,102,0)" paint-order="fill stroke markers" d=" M 95.99999999999997 24.00000000000003 L 259.8441125096988 329.1858245127438" stroke-opacity="0.6980392156862745" stroke-linecap="round" stroke-linejoin="round" stroke-miterlimit="10" stroke-width="2.5"/><path fill="rgb(77,77,255)" stroke="none" paint-order="stroke fill markers" d=" M 267 143.99999999999997 C 267 146.76142374915395 264.76142374915395 148.99999999999997 262 148.99999999999997 C 259.23857625084605 148.99999999999997 257 146.76142374915395 257 143.99999999999997 C 257 141.238576250846 259.23857625084605 138.99999999999997 262 138.99999999999997 C 264.76142374915395 138.99999999999997 267 141.238576250846 267 143.99999999999997 Z" fill-opacity="1"/><path fill="none" stroke="rgb(0,0,0)" paint-order="fill stroke markers" d=" M 267 143.99999999999997 C 267 146.76142374915395 264.76142374915395 148.99999999999997 262 148.99999999999997 C 259.23857625084605 148.99999999999997 257 146.76142374915395 257 143.99999999999997 C 257 141.238576250846 259.23857625084605 138.99999999999997 262 138.99999999999997 C 264.76142374915395 138.99999999999997 267 141.238576250846 267 143.99999999999997 Z" stroke-opacity="1" stroke-linecap="round" stroke-linejoin="round" stroke-miterlimit="10"/><text fill="rgb(77,77,255)" stroke="none" font-family="geogebra-sans-serif, sans-serif" font-size="16px" font-style="normal" font-weight="normal" text-decoration="normal" x="266" y="134" text-anchor="start" dominant-baseline="alphabetic" fill-opacity="1">A</text><text fill="none" stroke="rgb(255,255,255)" font-family="geogebra-sans-serif, sans-serif" font-size="16px" font-style="normal" font-weight="normal" text-decoration="normal" x="266" y="134" text-anchor="start" dominant-baseline="alphabetic" stroke-opacity="1" stroke-linejoin="bevel" stroke-miterlimit="10" stroke-width="3">A</text><text fill="rgb(77,77,255)" stroke="none" font-family="geogebra-sans-serif, sans-serif" font-size="16px" font-style="normal" font-weight="normal" text-decoration="normal" x="266" y="134" text-anchor="start" dominant-baseline="alphabetic" fill-opacity="1">A</text><path fill="rgb(77,77,255)" stroke="none" paint-order="stroke fill markers" d=" M 113.99999999999997 258.9999999999999 C 113.99999999999997 261.76142374915383 111.76142374915393 263.9999999999999 108.99999999999997 263.9999999999999 C 106.23857625084601 263.9999999999999 103.99999999999997 261.76142374915383 103.99999999999997 258.9999999999999 C 103.99999999999997 256.23857625084594 106.23857625084601 253.9999999999999 108.99999999999997 253.9999999999999 C 111.76142374915393 253.9999999999999 113.99999999999997 256.23857625084594 113.99999999999997 258.9999999999999 Z" fill-opacity="1"/><path fill="none" stroke="rgb(0,0,0)" paint-order="fill stroke markers" d=" M 113.99999999999997 258.9999999999999 C 113.99999999999997 261.76142374915383 111.76142374915393 263.9999999999999 108.99999999999997 263.9999999999999 C 106.23857625084601 263.9999999999999 103.99999999999997 261.76142374915383 103.99999999999997 258.9999999999999 C 103.99999999999997 256.23857625084594 106.23857625084601 253.9999999999999 108.99999999999997 253.9999999999999 C 111.76142374915393 253.9999999999999 113.99999999999997 256.23857625084594 113.99999999999997 258.9999999999999 Z" stroke-opacity="1" stroke-linecap="round" stroke-linejoin="round" stroke-miterlimit="10"/><text fill="rgb(77,77,255)" stroke="none" font-family="geogebra-sans-serif, sans-serif" font-size="16px" font-style="normal" font-weight="normal" text-decoration="normal" x="113" y="249" text-anchor="start" dominant-baseline="alphabetic" fill-opacity="1">B</text><text fill="none" stroke="rgb(255,255,255)" font-family="geogebra-sans-serif, sans-serif" font-size="16px" font-style="normal" font-weight="normal" text-decoration="normal" x="113" y="249" text-anchor="start" dominant-baseline="alphabetic" stroke-opacity="1" stroke-linejoin="bevel" stroke-miterlimit="10" stroke-width="3">B</text><text fill="rgb(77,77,255)" stroke="none" font-family="geogebra-sans-serif, sans-serif" font-size="16px" font-style="normal" font-weight="normal" text-decoration="normal" x="113" y="249" text-anchor="start" dominant-baseline="alphabetic" fill-opacity="1">B</text><path fill="rgb(77,77,255)" stroke="none" paint-order="stroke fill markers" d=" M 100.99999999999997 24.00000000000003 C 100.99999999999997 26.761423749153995 98.76142374915393 29.00000000000003 95.99999999999997 29.00000000000003 C 93.23857625084601 29.00000000000003 90.99999999999997 26.761423749153995 90.99999999999997 24.00000000000003 C 90.99999999999997 21.238576250846062 93.23857625084601 19.00000000000003 95.99999999999997 19.00000000000003 C 98.76142374915393 19.00000000000003 100.99999999999997 21.238576250846062 100.99999999999997 24.00000000000003 Z" fill-opacity="1"/><path fill="none" stroke="rgb(0,0,0)" paint-order="fill stroke markers" d=" M 100.99999999999997 24.00000000000003 C 100.99999999999997 26.761423749153995 98.76142374915393 29.00000000000003 95.99999999999997 29.00000000000003 C 93.23857625084601 29.00000000000003 90.99999999999997 26.761423749153995 90.99999999999997 24.00000000000003 C 90.99999999999997 21.238576250846062 93.23857625084601 19.00000000000003 95.99999999999997 19.00000000000003 C 98.76142374915393 19.00000000000003 100.99999999999997 21.238576250846062 100.99999999999997 24.00000000000003 Z" stroke-opacity="1" stroke-linecap="round" stroke-linejoin="round" stroke-miterlimit="10"/><text fill="rgb(77,77,255)" stroke="none" font-family="geogebra-sans-serif, sans-serif" font-size="16px" font-style="normal" font-weight="normal" text-decoration="normal" x="100" y="16" text-anchor="start" dominant-baseline="alphabetic" fill-opacity="1">C</text><text fill="none" stroke="rgb(255,255,255)" font-family="geogebra-sans-serif, sans-serif" font-size="16px" font-style="normal" font-weight="normal" text-decoration="normal" x="100" y="16" text-anchor="start" dominant-baseline="alphabetic" stroke-opacity="1" stroke-linejoin="bevel" stroke-miterlimit="10" stroke-width="3">C</text><text fill="rgb(77,77,255)" stroke="none" font-family="geogebra-sans-serif, sans-serif" font-size="16px" font-style="normal" font-weight="normal" text-decoration="normal" x="100" y="16" text-anchor="start" dominant-baseline="alphabetic" fill-opacity="1">C</text><path fill="rgb(68,68,68)" stroke="none" paint-order="stroke fill markers" d=" M 216.9081249384861 237.96472274424673 C 216.9081249384861 240.1738617435699 215.1172639378093 241.96472274424673 212.9081249384861 241.96472274424673 C 210.69898593916292 241.96472274424673 208.9081249384861 240.1738617435699 208.9081249384861 237.96472274424673 C 208.9081249384861 235.75558374492354 210.69898593916292 233.96472274424673 212.9081249384861 233.96472274424673 C 215.1172639378093 233.96472274424673 216.9081249384861 235.75558374492354 216.9081249384861 237.96472274424673 Z" fill-opacity="1"/><path fill="none" stroke="rgb(0,0,0)" paint-order="fill stroke markers" d=" M 216.9081249384861 237.96472274424673 C 216.9081249384861 240.1738617435699 215.1172639378093 241.96472274424673 212.9081249384861 241.96472274424673 C 210.69898593916292 241.96472274424673 208.9081249384861 240.1738617435699 208.9081249384861 237.96472274424673 C 208.9081249384861 235.75558374492354 210.69898593916292 233.96472274424673 212.9081249384861 233.96472274424673 C 215.1172639378093 233.96472274424673 216.9081249384861 235.75558374492354 216.9081249384861 237.96472274424673 Z" stroke-opacity="1" stroke-linecap="round" stroke-linejoin="round" stroke-miterlimit="10"/><text fill="rgb(68,68,68)" stroke="none" font-family="geogebra-sans-serif, sans-serif" font-size="16px" font-style="normal" font-weight="normal" text-decoration="normal" x="217" y="230" text-anchor="start" dominant-baseline="alphabetic" fill-opacity="1">K</text><text fill="none" stroke="rgb(255,255,255)" font-family="geogebra-sans-serif, sans-serif" font-size="16px" font-style="normal" font-weight="normal" text-decoration="normal" x="217" y="230" text-anchor="start" dominant-baseline="alphabetic" stroke-opacity="1" stroke-linejoin="bevel" stroke-miterlimit="10" stroke-width="3">K</text><text fill="rgb(68,68,68)" stroke="none" font-family="geogebra-sans-serif, sans-serif" font-size="16px" font-style="normal" font-weight="normal" text-decoration="normal" x="217" y="230" text-anchor="start" dominant-baseline="alphabetic" fill-opacity="1">K</text><path fill="rgb(68,68,68)" stroke="none" paint-order="stroke fill markers" d=" M 166.0751218053407 144.93038978095797 C 166.0751218053407 147.13952878028113 164.28426080466386 148.93038978095797 162.0751218053407 148.93038978095797 C 159.8659828060175 148.93038978095797 158.0751218053407 147.13952878028113 158.0751218053407 144.93038978095797 C 158.0751218053407 142.72125078163478 159.8659828060175 140.93038978095797 162.0751218053407 140.93038978095797 C 164.28426080466386 140.93038978095797 166.0751218053407 142.72125078163478 166.0751218053407 144.93038978095797 Z" fill-opacity="1"/><path fill="none" stroke="rgb(0,0,0)" paint-order="fill stroke markers" d=" M 166.0751218053407 144.93038978095797 C 166.0751218053407 147.13952878028113 164.28426080466386 148.93038978095797 162.0751218053407 148.93038978095797 C 159.8659828060175 148.93038978095797 158.0751218053407 147.13952878028113 158.0751218053407 144.93038978095797 C 158.0751218053407 142.72125078163478 159.8659828060175 140.93038978095797 162.0751218053407 140.93038978095797 C 164.28426080466386 140.93038978095797 166.0751218053407 142.72125078163478 166.0751218053407 144.93038978095797 Z" stroke-opacity="1" stroke-linecap="round" stroke-linejoin="round" stroke-miterlimit="10"/><text fill="rgb(68,68,68)" stroke="none" font-family="geogebra-sans-serif, sans-serif" font-size="16px" font-style="normal" font-weight="normal" text-decoration="normal" x="166" y="137" text-anchor="start" dominant-baseline="alphabetic" fill-opacity="1">I</text><text fill="none" stroke="rgb(255,255,255)" font-family="geogebra-sans-serif, sans-serif" font-size="16px" font-style="normal" font-weight="normal" text-decoration="normal" x="166" y="137" text-anchor="start" dominant-baseline="alphabetic" stroke-opacity="1" stroke-linejoin="bevel" stroke-miterlimit="10" stroke-width="3">I</text><text fill="rgb(68,68,68)" stroke="none" font-family="geogebra-sans-serif, sans-serif" font-size="16px" font-style="normal" font-weight="normal" text-decoration="normal" x="166" y="137" text-anchor="start" dominant-baseline="alphabetic" fill-opacity="1">I</text><path fill="rgb(125,125,255)" stroke="none" paint-order="stroke fill markers" d=" M 264.8441125096988 329.1858245127438 C 264.8441125096988 331.94724826189776 262.60553625885274 334.1858245127438 259.8441125096988 334.1858245127438 C 257.08268876054484 334.1858245127438 254.8441125096988 331.94724826189776 254.8441125096988 329.1858245127438 C 254.8441125096988 326.42440076358986 257.08268876054484 324.1858245127438 259.8441125096988 324.1858245127438 C 262.60553625885274 324.1858245127438 264.8441125096988 326.42440076358986 264.8441125096988 329.1858245127438 Z" fill-opacity="1"/><path fill="none" stroke="rgb(0,0,0)" paint-order="fill stroke markers" d=" M 264.8441125096988 329.1858245127438 C 264.8441125096988 331.94724826189776 262.60553625885274 334.1858245127438 259.8441125096988 334.1858245127438 C 257.08268876054484 334.1858245127438 254.8441125096988 331.94724826189776 254.8441125096988 329.1858245127438 C 254.8441125096988 326.42440076358986 257.08268876054484 324.1858245127438 259.8441125096988 324.1858245127438 C 262.60553625885274 324.1858245127438 264.8441125096988 326.42440076358986 264.8441125096988 329.1858245127438 Z" stroke-opacity="1" stroke-linecap="round" stroke-linejoin="round" stroke-miterlimit="10"/><text fill="rgb(125,125,255)" stroke="none" font-family="geogebra-sans-serif, sans-serif" font-size="16px" font-style="normal" font-weight="normal" text-decoration="normal" x="264" y="319" text-anchor="start" dominant-baseline="alphabetic" fill-opacity="1">J</text><text fill="none" stroke="rgb(255,255,255)" font-family="geogebra-sans-serif, sans-serif" font-size="16px" font-style="normal" font-weight="normal" text-decoration="normal" x="264" y="319" text-anchor="start" dominant-baseline="alphabetic" stroke-opacity="1" stroke-linejoin="bevel" stroke-miterlimit="10" stroke-width="3">J</text><text fill="rgb(125,125,255)" stroke="none" font-family="geogebra-sans-serif, sans-serif" font-size="16px" font-style="normal" font-weight="normal" text-decoration="normal" x="264" y="319" text-anchor="start" dominant-baseline="alphabetic" fill-opacity="1">J</text></g></g></svg>
