<svg version="1.1" xmlns="http://www.w3.org/2000/svg" xmlns:xlink="http://www.w3.org/1999/xlink" width="440" height="379"><defs><clipPath id="dyJIUhDSmCyS"><path fill="none" stroke="none" d=" M 0 0 L 440 0 L 440 379 L 0 379 L 0 0 Z"/></clipPath></defs><g transform="scale(1,1)" clip-path="url(#dyJIUhDSmCyS)"><g><rect fill="rgb(255,255,255)" stroke="none" x="0" y="0" width="440" height="379" fill-opacity="1"/><path fill="none" stroke="rgb(0,0,0)" paint-order="fill stroke markers" d=" M 395.470577652066 188.59266691861922 C 395.470577652066 256.63042768811687 340.3150748191507 311.78593052103224 272.2773140496532 311.78593052103224 C 204.2395532801557 311.78593052103224 149.08405044724043 256.63042768811687 149.08405044724043 188.59266691861922 C 149.08405044724043 120.55490614912155 204.2395532801557 65.39940331620618 272.2773140496532 65.39940331620618 C 340.3150748191507 65.39940331620618 395.470577652066 120.55490614912155 395.470577652066 188.59266691861922 Z" stroke-opacity="0.6980392156862745" stroke-linecap="round" stroke-linejoin="round" stroke-miterlimit="10" stroke-width="2.5"/><path fill="none" stroke="rgb(180,179,186)" paint-order="fill stroke markers" d=" M -5 142.35269760109566 L 445 104.16152797419045" stroke-opacity="0.6980392156862745" stroke-linecap="round" stroke-linejoin="round" stroke-miterlimit="10" stroke-width="2.5"/><path fill="none" stroke="rgb(180,179,186)" paint-order="fill stroke markers" d=" M 199.6365945481399 384 L 438.9157232078659 -5" stroke-opacity="0.6980392156862745" stroke-linecap="round" stroke-linejoin="round" stroke-miterlimit="10" stroke-width="2.5"/><path fill="none" stroke="rgb(180,179,186)" paint-order="fill stroke markers" d=" M 250.02747189786166 384 L 228.25129443788325 -5" stroke-opacity="0.6980392156862745" stroke-linecap="round" stroke-linejoin="round" stroke-miterlimit="10" stroke-width="2.5"/><path fill="none" stroke="rgb(180,179,186)" paint-order="fill stroke markers" d=" M 437.6845078664638 384 L 181.9555506199728 -5" stroke-opacity="0.6980392156862745" stroke-linecap="round" stroke-linejoin="round" stroke-miterlimit="10" stroke-width="2.5"/><path fill="none" stroke="rgb(180,179,186)" paint-order="fill stroke markers" d=" M -5 5.107697369714413 L 445 330.0822101472512" stroke-opacity="0.6980392156862745" stroke-linecap="round" stroke-linejoin="round" stroke-miterlimit="10" stroke-width="2.5"/><path fill="none" stroke="rgb(21,101,192)" paint-order="fill stroke markers" d=" M -5 130.2681011827842 L 445 224.09932378098785" stroke-opacity="0.6980392156862745" stroke-linecap="round" stroke-linejoin="round" stroke-miterlimit="10" stroke-width="2.5"/><path fill="none" stroke="rgb(255,204,2)" paint-order="fill stroke markers" d=" M -5 152.88553873731496 L 445 -0.3753308279028147" stroke-opacity="0.6980392156862745" stroke-linecap="round" stroke-linejoin="round" stroke-miterlimit="10" stroke-width="2.5"/><path fill="rgb(21,101,192)" stroke="none" paint-order="stroke fill markers" d=" M 372.73546480989205 110.71891235105579 C 372.73546480989205 113.48033610020975 370.496888559046 115.71891235105579 367.73546480989205 115.71891235105579 C 364.9740410607381 115.71891235105579 362.73546480989205 113.48033610020975 362.73546480989205 110.71891235105579 C 362.73546480989205 107.95748860190183 364.9740410607381 105.71891235105579 367.73546480989205 105.71891235105579 C 370.496888559046 105.71891235105579 372.73546480989205 107.95748860190183 372.73546480989205 110.71891235105579 Z" fill-opacity="1"/><path fill="none" stroke="rgb(0,0,0)" paint-order="fill stroke markers" d=" M 372.73546480989205 110.71891235105579 C 372.73546480989205 113.48033610020975 370.496888559046 115.71891235105579 367.73546480989205 115.71891235105579 C 364.9740410607381 115.71891235105579 362.73546480989205 113.48033610020975 362.73546480989205 110.71891235105579 C 362.73546480989205 107.95748860190183 364.9740410607381 105.71891235105579 367.73546480989205 105.71891235105579 C 370.496888559046 105.71891235105579 372.73546480989205 107.95748860190183 372.73546480989205 110.71891235105579 Z" stroke-opacity="1" stroke-linecap="round" stroke-linejoin="round" stroke-miterlimit="10"/><text fill="rgb(21,101,192)" stroke="none" font-family="geogebra-sans-serif, sans-serif" font-size="16px" font-style="normal" font-weight="normal" text-decoration="normal" x="364" y="89" text-anchor="start" dominant-baseline="alphabetic" fill-opacity="1">C</text><path fill="rgb(21,101,192)" stroke="none" paint-order="stroke fill markers" d=" M 170.06080997306853 127.91976151093934 C 170.06080997306853 130.68118526009332 167.8222337222225 132.91976151093934 165.06080997306853 132.91976151093934 C 162.29938622391455 132.91976151093934 160.06080997306853 130.68118526009332 160.06080997306853 127.91976151093934 C 160.06080997306853 125.15833776178538 162.29938622391455 122.91976151093934 165.06080997306853 122.91976151093934 C 167.8222337222225 122.91976151093934 170.06080997306853 125.15833776178538 170.06080997306853 127.91976151093934 Z" fill-opacity="1"/><path fill="none" stroke="rgb(0,0,0)" paint-order="fill stroke markers" d=" M 170.06080997306853 127.91976151093934 C 170.06080997306853 130.68118526009332 167.8222337222225 132.91976151093934 165.06080997306853 132.91976151093934 C 162.29938622391455 132.91976151093934 160.06080997306853 130.68118526009332 160.06080997306853 127.91976151093934 C 160.06080997306853 125.15833776178538 162.29938622391455 122.91976151093934 165.06080997306853 122.91976151093934 C 167.8222337222225 122.91976151093934 170.06080997306853 125.15833776178538 170.06080997306853 127.91976151093934 Z" stroke-opacity="1" stroke-linecap="round" stroke-linejoin="round" stroke-miterlimit="10"/><text fill="rgb(21,101,192)" stroke="none" font-family="geogebra-sans-serif, sans-serif" font-size="16px" font-style="normal" font-weight="normal" text-decoration="normal" x="154" y="116" text-anchor="start" dominant-baseline="alphabetic" fill-opacity="1">B</text><path fill="rgb(21,101,192)" stroke="none" paint-order="stroke fill markers" d=" M 250.8240687805606 308.91226636836325 C 250.8240687805606 311.6736901175172 248.58549252971457 313.91226636836325 245.8240687805606 313.91226636836325 C 243.06264503140662 313.91226636836325 240.8240687805606 311.6736901175172 240.8240687805606 308.91226636836325 C 240.8240687805606 306.1508426192093 243.06264503140662 303.91226636836325 245.8240687805606 303.91226636836325 C 248.58549252971457 303.91226636836325 250.8240687805606 306.1508426192093 250.8240687805606 308.91226636836325 Z" fill-opacity="1"/><path fill="none" stroke="rgb(0,0,0)" paint-order="fill stroke markers" d=" M 250.8240687805606 308.91226636836325 C 250.8240687805606 311.6736901175172 248.58549252971457 313.91226636836325 245.8240687805606 313.91226636836325 C 243.06264503140662 313.91226636836325 240.8240687805606 311.6736901175172 240.8240687805606 308.91226636836325 C 240.8240687805606 306.1508426192093 243.06264503140662 303.91226636836325 245.8240687805606 303.91226636836325 C 248.58549252971457 303.91226636836325 250.8240687805606 306.1508426192093 250.8240687805606 308.91226636836325 Z" stroke-opacity="1" stroke-linecap="round" stroke-linejoin="round" stroke-miterlimit="10"/><text fill="rgb(21,101,192)" stroke="none" font-family="geogebra-sans-serif, sans-serif" font-size="16px" font-style="normal" font-weight="normal" text-decoration="normal" x="250" y="299" text-anchor="start" dominant-baseline="alphabetic" fill-opacity="1">D</text><path fill="rgb(21,101,192)" stroke="none" paint-order="stroke fill markers" d=" M 237.56047312744818 71.97726165767662 C 237.56047312744818 74.73868540683058 235.32189687660215 76.97726165767662 232.56047312744818 76.97726165767662 C 229.7990493782942 76.97726165767662 227.56047312744818 74.73868540683058 227.56047312744818 71.97726165767662 C 227.56047312744818 69.21583790852266 229.7990493782942 66.97726165767662 232.56047312744818 66.97726165767662 C 235.32189687660215 66.97726165767662 237.56047312744818 69.21583790852266 237.56047312744818 71.97726165767662 Z" fill-opacity="1"/><path fill="none" stroke="rgb(0,0,0)" paint-order="fill stroke markers" d=" M 237.56047312744818 71.97726165767662 C 237.56047312744818 74.73868540683058 235.32189687660215 76.97726165767662 232.56047312744818 76.97726165767662 C 229.7990493782942 76.97726165767662 227.56047312744818 74.73868540683058 227.56047312744818 71.97726165767662 C 227.56047312744818 69.21583790852266 229.7990493782942 66.97726165767662 232.56047312744818 66.97726165767662 C 235.32189687660215 66.97726165767662 237.56047312744818 69.21583790852266 237.56047312744818 71.97726165767662 Z" stroke-opacity="1" stroke-linecap="round" stroke-linejoin="round" stroke-miterlimit="10"/><text fill="rgb(21,101,192)" stroke="none" font-family="geogebra-sans-serif, sans-serif" font-size="16px" font-style="normal" font-weight="normal" text-decoration="normal" x="237" y="62" text-anchor="start" dominant-baseline="alphabetic" fill-opacity="1">P</text><path fill="rgb(21,101,192)" stroke="none" paint-order="stroke fill markers" d=" M 368.5886998205876 271.2897710130505 C 368.5886998205876 274.05119476220443 366.3501235697415 276.2897710130505 363.5886998205876 276.2897710130505 C 360.82727607143363 276.2897710130505 358.5886998205876 274.05119476220443 358.5886998205876 271.2897710130505 C 358.5886998205876 268.52834726389653 360.82727607143363 266.2897710130505 363.5886998205876 266.2897710130505 C 366.3501235697415 266.2897710130505 368.5886998205876 268.52834726389653 368.5886998205876 271.2897710130505 Z" fill-opacity="1"/><path fill="none" stroke="rgb(0,0,0)" paint-order="fill stroke markers" d=" M 368.5886998205876 271.2897710130505 C 368.5886998205876 274.05119476220443 366.3501235697415 276.2897710130505 363.5886998205876 276.2897710130505 C 360.82727607143363 276.2897710130505 358.5886998205876 274.05119476220443 358.5886998205876 271.2897710130505 C 358.5886998205876 268.52834726389653 360.82727607143363 266.2897710130505 363.5886998205876 266.2897710130505 C 366.3501235697415 266.2897710130505 368.5886998205876 268.52834726389653 368.5886998205876 271.2897710130505 Z" stroke-opacity="1" stroke-linecap="round" stroke-linejoin="round" stroke-miterlimit="10"/><text fill="rgb(21,101,192)" stroke="none" font-family="geogebra-sans-serif, sans-serif" font-size="16px" font-style="normal" font-weight="normal" text-decoration="normal" x="388" y="279" text-anchor="start" dominant-baseline="alphabetic" fill-opacity="1">A</text><path fill="rgb(110,109,115)" stroke="none" paint-order="stroke fill markers" d=" M 319.7052144350199 196.93105927491482 C 319.7052144350199 199.6924830240688 317.46663818417386 201.93105927491482 314.7052144350199 201.93105927491482 C 311.94379068586596 201.93105927491482 309.7052144350199 199.6924830240688 309.7052144350199 196.93105927491482 C 309.7052144350199 194.16963552576084 311.94379068586596 191.93105927491482 314.7052144350199 191.93105927491482 C 317.46663818417386 191.93105927491482 319.7052144350199 194.16963552576084 319.7052144350199 196.93105927491482 Z" fill-opacity="1"/><path fill="none" stroke="rgb(0,0,0)" paint-order="fill stroke markers" d=" M 319.7052144350199 196.93105927491482 C 319.7052144350199 199.6924830240688 317.46663818417386 201.93105927491482 314.7052144350199 201.93105927491482 C 311.94379068586596 201.93105927491482 309.7052144350199 199.6924830240688 309.7052144350199 196.93105927491482 C 309.7052144350199 194.16963552576084 311.94379068586596 191.93105927491482 314.7052144350199 191.93105927491482 C 317.46663818417386 191.93105927491482 319.7052144350199 194.16963552576084 319.7052144350199 196.93105927491482 Z" stroke-opacity="1" stroke-linecap="round" stroke-linejoin="round" stroke-miterlimit="10"/><text fill="rgb(110,109,115)" stroke="none" font-family="geogebra-sans-serif, sans-serif" font-size="16px" font-style="normal" font-weight="normal" text-decoration="normal" x="319" y="187" text-anchor="start" dominant-baseline="alphabetic" fill-opacity="1">L</text><path fill="rgb(110,109,115)" stroke="none" paint-order="stroke fill markers" d=" M 243.6678203904759 181.07621117184607 C 243.6678203904759 183.83763492100005 241.42924413962987 186.07621117184607 238.6678203904759 186.07621117184607 C 235.90639664132192 186.07621117184607 233.6678203904759 183.83763492100005 233.6678203904759 181.07621117184607 C 233.6678203904759 178.3147874226921 235.90639664132192 176.07621117184607 238.6678203904759 176.07621117184607 C 241.42924413962987 176.07621117184607 243.6678203904759 178.3147874226921 243.6678203904759 181.07621117184607 Z" fill-opacity="1"/><path fill="none" stroke="rgb(0,0,0)" paint-order="fill stroke markers" d=" M 243.6678203904759 181.07621117184607 C 243.6678203904759 183.83763492100005 241.42924413962987 186.07621117184607 238.6678203904759 186.07621117184607 C 235.90639664132192 186.07621117184607 233.6678203904759 183.83763492100005 233.6678203904759 181.07621117184607 C 233.6678203904759 178.3147874226921 235.90639664132192 176.07621117184607 238.6678203904759 176.07621117184607 C 241.42924413962987 176.07621117184607 243.6678203904759 178.3147874226921 243.6678203904759 181.07621117184607 Z" stroke-opacity="1" stroke-linecap="round" stroke-linejoin="round" stroke-miterlimit="10"/><text fill="rgb(110,109,115)" stroke="none" font-family="geogebra-sans-serif, sans-serif" font-size="16px" font-style="normal" font-weight="normal" text-decoration="normal" x="243" y="171" text-anchor="start" dominant-baseline="alphabetic" fill-opacity="1">M</text><path fill="rgb(110,109,115)" stroke="none" paint-order="stroke fill markers" d=" M 41.19050031276373 138.85689008006932 C 41.19050031276373 141.6183138292233 38.951924061917694 143.85689008006932 36.19050031276373 143.85689008006932 C 33.42907656360976 143.85689008006932 31.19050031276373 141.6183138292233 31.19050031276373 138.85689008006932 C 31.19050031276373 136.09546633091534 33.42907656360976 133.85689008006932 36.19050031276373 133.85689008006932 C 38.951924061917694 133.85689008006932 41.19050031276373 136.09546633091534 41.19050031276373 138.85689008006932 Z" fill-opacity="1"/><path fill="none" stroke="rgb(0,0,0)" paint-order="fill stroke markers" d=" M 41.19050031276373 138.85689008006932 C 41.19050031276373 141.6183138292233 38.951924061917694 143.85689008006932 36.19050031276373 143.85689008006932 C 33.42907656360976 143.85689008006932 31.19050031276373 141.6183138292233 31.19050031276373 138.85689008006932 C 31.19050031276373 136.09546633091534 33.42907656360976 133.85689008006932 36.19050031276373 133.85689008006932 C 38.951924061917694 133.85689008006932 41.19050031276373 136.09546633091534 41.19050031276373 138.85689008006932 Z" stroke-opacity="1" stroke-linecap="round" stroke-linejoin="round" stroke-miterlimit="10"/><text fill="rgb(110,109,115)" stroke="none" font-family="geogebra-sans-serif, sans-serif" font-size="16px" font-style="normal" font-weight="normal" text-decoration="normal" x="40" y="129" text-anchor="start" dominant-baseline="alphabetic" fill-opacity="1">N</text></g></g></svg>