<svg version="1.1" xmlns="http://www.w3.org/2000/svg" xmlns:xlink="http://www.w3.org/1999/xlink" width="389" height="306"><defs><clipPath id="xfeTCTZTpxsa"><path fill="none" stroke="none" d=" M 0 0 L 389 0 L 389 306 L 0 306 L 0 0 Z"/></clipPath></defs><g transform="scale(1,1)" clip-path="url(#xfeTCTZTpxsa)"><g><rect fill="rgb(255,255,255)" stroke="none" x="0" y="0" width="389" height="306" fill-opacity="1"/><path fill="none" stroke="rgb(0,103,88)" paint-order="fill stroke markers" d=" M 279.3230398047227 155.5792430643329 C 279.3230398047227 226.6115493801317 221.73997816484038 284.19461102001407 150.70767184904162 284.19461102001407 C 79.67536553324283 284.19461102001407 22.09230389336048 226.6115493801317 22.09230389336048 155.5792430643329 C 22.09230389336048 84.5469367485341 79.67536553324283 26.963875108651735 150.70767184904162 26.963875108651735 C 221.73997816484038 26.963875108651735 279.3230398047227 84.5469367485341 279.3230398047227 155.5792430643329 Z" stroke-opacity="0.8" stroke-linecap="round" stroke-linejoin="round" stroke-miterlimit="10" stroke-width="2.5"/><path fill="none" stroke="rgb(0,0,0)" paint-order="fill stroke markers" d=" M 150.70767184904162 155.5792430643329 L 352.4999999999996 156.0000000000007" stroke-opacity="0.6980392156862745" stroke-linecap="round" stroke-linejoin="round" stroke-miterlimit="10" stroke-width="2.5"/><path fill="none" stroke="rgb(0,0,0)" paint-order="fill stroke markers" d=" M 352.4999999999996 156.0000000000007 L 41.98162905228226 224.285578231714" stroke-opacity="0.6980392156862745" stroke-linecap="round" stroke-linejoin="round" stroke-miterlimit="10" stroke-width="2.5"/><path fill="none" stroke="rgb(0,0,0)" paint-order="fill stroke markers" d=" M 232.88889581867872 56.644116333592834 L 232.47560400473122 254.85621997921382" stroke-opacity="0.6980392156862745" stroke-linecap="round" stroke-linejoin="round" stroke-miterlimit="10" stroke-width="2.5"/><path fill="none" stroke="rgb(0,0,0)" paint-order="fill stroke markers" d=" M 150.70767184904162 155.5792430643329 L 160.10438924735553 198.30939860141223" stroke-opacity="0.6980392156862745" stroke-linecap="round" stroke-linejoin="round" stroke-miterlimit="10" stroke-width="2.5"/><path fill="rgb(21,101,192)" stroke="none" paint-order="stroke fill markers" d=" M 155.70767184904162 155.5792430643329 C 155.70767184904162 158.34066681348688 153.4690955981956 160.5792430643329 150.70767184904162 160.5792430643329 C 147.94624809988764 160.5792430643329 145.70767184904162 158.34066681348688 145.70767184904162 155.5792430643329 C 145.70767184904162 152.81781931517892 147.94624809988764 150.5792430643329 150.70767184904162 150.5792430643329 C 153.4690955981956 150.5792430643329 155.70767184904162 152.81781931517892 155.70767184904162 155.5792430643329 Z" fill-opacity="1"/><path fill="none" stroke="rgb(0,0,0)" paint-order="fill stroke markers" d=" M 155.70767184904162 155.5792430643329 C 155.70767184904162 158.34066681348688 153.4690955981956 160.5792430643329 150.70767184904162 160.5792430643329 C 147.94624809988764 160.5792430643329 145.70767184904162 158.34066681348688 145.70767184904162 155.5792430643329 C 145.70767184904162 152.81781931517892 147.94624809988764 150.5792430643329 150.70767184904162 150.5792430643329 C 153.4690955981956 150.5792430643329 155.70767184904162 152.81781931517892 155.70767184904162 155.5792430643329 Z" stroke-opacity="1" stroke-linecap="round" stroke-linejoin="round" stroke-miterlimit="10"/><text fill="rgb(21,101,192)" stroke="none" font-family="geogebra-sans-serif, sans-serif" font-size="16px" font-style="normal" font-weight="normal" text-decoration="normal" x="155" y="146" text-anchor="start" dominant-baseline="alphabetic" fill-opacity="1">O</text><path fill="rgb(21,101,192)" stroke="none" paint-order="stroke fill markers" d=" M 357.4999999999996 156.0000000000007 C 357.4999999999996 158.7614237491547 355.26142374915355 161.0000000000007 352.4999999999996 161.0000000000007 C 349.73857625084565 161.0000000000007 347.4999999999996 158.7614237491547 347.4999999999996 156.0000000000007 C 347.4999999999996 153.23857625084673 349.73857625084565 151.0000000000007 352.4999999999996 151.0000000000007 C 355.26142374915355 151.0000000000007 357.4999999999996 153.23857625084673 357.4999999999996 156.0000000000007 Z" fill-opacity="1"/><path fill="none" stroke="rgb(0,0,0)" paint-order="fill stroke markers" d=" M 357.4999999999996 156.0000000000007 C 357.4999999999996 158.7614237491547 355.26142374915355 161.0000000000007 352.4999999999996 161.0000000000007 C 349.73857625084565 161.0000000000007 347.4999999999996 158.7614237491547 347.4999999999996 156.0000000000007 C 347.4999999999996 153.23857625084673 349.73857625084565 151.0000000000007 352.4999999999996 151.0000000000007 C 355.26142374915355 151.0000000000007 357.4999999999996 153.23857625084673 357.4999999999996 156.0000000000007 Z" stroke-opacity="1" stroke-linecap="round" stroke-linejoin="round" stroke-miterlimit="10"/><text fill="rgb(21,101,192)" stroke="none" font-family="geogebra-sans-serif, sans-serif" font-size="16px" font-style="normal" font-weight="normal" text-decoration="normal" x="356" y="146" text-anchor="start" dominant-baseline="alphabetic" fill-opacity="1">P</text><path fill="rgb(21,101,192)" stroke="none" paint-order="stroke fill markers" d=" M 46.98162905228226 224.285578231714 C 46.98162905228226 227.04700198086798 44.74305280143622 229.285578231714 41.98162905228226 229.285578231714 C 39.22020530312829 229.285578231714 36.98162905228226 227.04700198086798 36.98162905228226 224.285578231714 C 36.98162905228226 221.52415448256002 39.22020530312829 219.285578231714 41.98162905228226 219.285578231714 C 44.74305280143622 219.285578231714 46.98162905228226 221.52415448256002 46.98162905228226 224.285578231714 Z" fill-opacity="1"/><path fill="none" stroke="rgb(0,0,0)" paint-order="fill stroke markers" d=" M 46.98162905228226 224.285578231714 C 46.98162905228226 227.04700198086798 44.74305280143622 229.285578231714 41.98162905228226 229.285578231714 C 39.22020530312829 229.285578231714 36.98162905228226 227.04700198086798 36.98162905228226 224.285578231714 C 36.98162905228226 221.52415448256002 39.22020530312829 219.285578231714 41.98162905228226 219.285578231714 C 44.74305280143622 219.285578231714 46.98162905228226 221.52415448256002 46.98162905228226 224.285578231714 Z" stroke-opacity="1" stroke-linecap="round" stroke-linejoin="round" stroke-miterlimit="10"/><text fill="rgb(21,101,192)" stroke="none" font-family="geogebra-sans-serif, sans-serif" font-size="16px" font-style="normal" font-weight="normal" text-decoration="normal" x="37" y="251" text-anchor="start" dominant-baseline="alphabetic" fill-opacity="1">B</text><path fill="rgb(110,109,115)" stroke="none" paint-order="stroke fill markers" d=" M 283.22714944242875 172.33321897111045 C 283.22714944242875 175.09464272026443 280.9885731915827 177.33321897111045 278.22714944242875 177.33321897111045 C 275.4657256932748 177.33321897111045 273.22714944242875 175.09464272026443 273.22714944242875 172.33321897111045 C 273.22714944242875 169.57179522195648 275.4657256932748 167.33321897111045 278.22714944242875 167.33321897111045 C 280.9885731915827 167.33321897111045 283.22714944242875 169.57179522195648 283.22714944242875 172.33321897111045 Z" fill-opacity="1"/><path fill="none" stroke="rgb(0,0,0)" paint-order="fill stroke markers" d=" M 283.22714944242875 172.33321897111045 C 283.22714944242875 175.09464272026443 280.9885731915827 177.33321897111045 278.22714944242875 177.33321897111045 C 275.4657256932748 177.33321897111045 273.22714944242875 175.09464272026443 273.22714944242875 172.33321897111045 C 273.22714944242875 169.57179522195648 275.4657256932748 167.33321897111045 278.22714944242875 167.33321897111045 C 280.9885731915827 167.33321897111045 283.22714944242875 169.57179522195648 283.22714944242875 172.33321897111045 Z" stroke-opacity="1" stroke-linecap="round" stroke-linejoin="round" stroke-miterlimit="10"/><text fill="rgb(110,109,115)" stroke="none" font-family="geogebra-sans-serif, sans-serif" font-size="16px" font-style="normal" font-weight="normal" text-decoration="normal" x="284" y="194" text-anchor="start" dominant-baseline="alphabetic" fill-opacity="1">A</text><path fill="rgb(110,109,115)" stroke="none" paint-order="stroke fill markers" d=" M 237.88889581867872 56.644116333592834 C 237.88889581867872 59.405540082746796 235.6503195678327 61.644116333592834 232.88889581867872 61.644116333592834 C 230.12747206952474 61.644116333592834 227.88889581867872 59.405540082746796 227.88889581867872 56.644116333592834 C 227.88889581867872 53.882692584438864 230.12747206952474 51.644116333592834 232.88889581867872 51.644116333592834 C 235.6503195678327 51.644116333592834 237.88889581867872 53.882692584438864 237.88889581867872 56.644116333592834 Z" fill-opacity="1"/><path fill="none" stroke="rgb(0,0,0)" paint-order="fill stroke markers" d=" M 237.88889581867872 56.644116333592834 C 237.88889581867872 59.405540082746796 235.6503195678327 61.644116333592834 232.88889581867872 61.644116333592834 C 230.12747206952474 61.644116333592834 227.88889581867872 59.405540082746796 227.88889581867872 56.644116333592834 C 227.88889581867872 53.882692584438864 230.12747206952474 51.644116333592834 232.88889581867872 51.644116333592834 C 235.6503195678327 51.644116333592834 237.88889581867872 53.882692584438864 237.88889581867872 56.644116333592834 Z" stroke-opacity="1" stroke-linecap="round" stroke-linejoin="round" stroke-miterlimit="10"/><path fill="rgb(110,109,115)" stroke="none" paint-order="stroke fill markers" d=" M 237.47560400473122 254.85621997921382 C 237.47560400473122 257.6176437283678 235.2370277538852 259.85621997921385 232.47560400473122 259.85621997921385 C 229.71418025557725 259.85621997921385 227.47560400473122 257.6176437283678 227.47560400473122 254.85621997921382 C 227.47560400473122 252.09479623005984 229.71418025557725 249.85621997921382 232.47560400473122 249.85621997921382 C 235.2370277538852 249.85621997921382 237.47560400473122 252.09479623005984 237.47560400473122 254.85621997921382 Z" fill-opacity="1"/><path fill="none" stroke="rgb(0,0,0)" paint-order="fill stroke markers" d=" M 237.47560400473122 254.85621997921382 C 237.47560400473122 257.6176437283678 235.2370277538852 259.85621997921385 232.47560400473122 259.85621997921385 C 229.71418025557725 259.85621997921385 227.47560400473122 257.6176437283678 227.47560400473122 254.85621997921382 C 227.47560400473122 252.09479623005984 229.71418025557725 249.85621997921382 232.47560400473122 249.85621997921382 C 235.2370277538852 249.85621997921382 237.47560400473122 252.09479623005984 237.47560400473122 254.85621997921382 Z" stroke-opacity="1" stroke-linecap="round" stroke-linejoin="round" stroke-miterlimit="10"/><path fill="rgb(110,109,115)" stroke="none" paint-order="stroke fill markers" d=" M 237.62676344040102 182.36112397471516 C 237.62676344040102 185.12254772386913 235.388187189555 187.36112397471516 232.62676344040102 187.36112397471516 C 229.86533969124704 187.36112397471516 227.62676344040102 185.12254772386913 227.62676344040102 182.36112397471516 C 227.62676344040102 179.59970022556118 229.86533969124704 177.36112397471516 232.62676344040102 177.36112397471516 C 235.388187189555 177.36112397471516 237.62676344040102 179.59970022556118 237.62676344040102 182.36112397471516 Z" fill-opacity="1"/><path fill="none" stroke="rgb(0,0,0)" paint-order="fill stroke markers" d=" M 237.62676344040102 182.36112397471516 C 237.62676344040102 185.12254772386913 235.388187189555 187.36112397471516 232.62676344040102 187.36112397471516 C 229.86533969124704 187.36112397471516 227.62676344040102 185.12254772386913 227.62676344040102 182.36112397471516 C 227.62676344040102 179.59970022556118 229.86533969124704 177.36112397471516 232.62676344040102 177.36112397471516 C 235.388187189555 177.36112397471516 237.62676344040102 179.59970022556118 237.62676344040102 182.36112397471516 Z" stroke-opacity="1" stroke-linecap="round" stroke-linejoin="round" stroke-miterlimit="10"/><text fill="rgb(110,109,115)" stroke="none" font-family="geogebra-sans-serif, sans-serif" font-size="16px" font-style="normal" font-weight="normal" text-decoration="normal" x="240" y="199" text-anchor="start" dominant-baseline="alphabetic" fill-opacity="1">Q</text><path fill="rgb(110,109,115)" stroke="none" paint-order="stroke fill markers" d=" M 165.10438924735553 198.30939860141223 C 165.10438924735553 201.0708223505662 162.8658129965095 203.30939860141223 160.10438924735553 203.30939860141223 C 157.34296549820155 203.30939860141223 155.10438924735553 201.0708223505662 155.10438924735553 198.30939860141223 C 155.10438924735553 195.54797485225825 157.34296549820155 193.30939860141223 160.10438924735553 193.30939860141223 C 162.8658129965095 193.30939860141223 165.10438924735553 195.54797485225825 165.10438924735553 198.30939860141223 Z" fill-opacity="1"/><path fill="none" stroke="rgb(0,0,0)" paint-order="fill stroke markers" d=" M 165.10438924735553 198.30939860141223 C 165.10438924735553 201.0708223505662 162.8658129965095 203.30939860141223 160.10438924735553 203.30939860141223 C 157.34296549820155 203.30939860141223 155.10438924735553 201.0708223505662 155.10438924735553 198.30939860141223 C 155.10438924735553 195.54797485225825 157.34296549820155 193.30939860141223 160.10438924735553 193.30939860141223 C 162.8658129965095 193.30939860141223 165.10438924735553 195.54797485225825 165.10438924735553 198.30939860141223 Z" stroke-opacity="1" stroke-linecap="round" stroke-linejoin="round" stroke-miterlimit="10"/><text fill="rgb(110,109,115)" stroke="none" font-family="geogebra-sans-serif, sans-serif" font-size="16px" font-style="normal" font-weight="normal" text-decoration="normal" x="157" y="222" text-anchor="start" dominant-baseline="alphabetic" fill-opacity="1">M</text><path fill="rgb(110,109,115)" stroke="none" paint-order="stroke fill markers" d=" M 237.68224991170496 155.75016815640333 C 237.68224991170496 158.5115919055573 235.44367366085893 160.75016815640333 232.68224991170496 160.75016815640333 C 229.92082616255098 160.75016815640333 227.68224991170496 158.5115919055573 227.68224991170496 155.75016815640333 C 227.68224991170496 152.98874440724936 229.92082616255098 150.75016815640333 232.68224991170496 150.75016815640333 C 235.44367366085893 150.75016815640333 237.68224991170496 152.98874440724936 237.68224991170496 155.75016815640333 Z" fill-opacity="1"/><path fill="none" stroke="rgb(0,0,0)" paint-order="fill stroke markers" d=" M 237.68224991170496 155.75016815640333 C 237.68224991170496 158.5115919055573 235.44367366085893 160.75016815640333 232.68224991170496 160.75016815640333 C 229.92082616255098 160.75016815640333 227.68224991170496 158.5115919055573 227.68224991170496 155.75016815640333 C 227.68224991170496 152.98874440724936 229.92082616255098 150.75016815640333 232.68224991170496 150.75016815640333 C 235.44367366085893 150.75016815640333 237.68224991170496 152.98874440724936 237.68224991170496 155.75016815640333 Z" stroke-opacity="1" stroke-linecap="round" stroke-linejoin="round" stroke-miterlimit="10"/><text fill="rgb(110,109,115)" stroke="none" font-family="geogebra-sans-serif, sans-serif" font-size="16px" font-style="normal" font-weight="normal" text-decoration="normal" x="237" y="146" text-anchor="start" dominant-baseline="alphabetic" fill-opacity="1">D</text></g></g></svg>