<svg version="1.1" xmlns="http://www.w3.org/2000/svg" xmlns:xlink="http://www.w3.org/1999/xlink" width="378" height="313"><defs><clipPath id="zNPNuhuZaJKT"><path fill="none" stroke="none" d=" M 0 0 L 378 0 L 378 313 L 0 313 L 0 0 Z"/></clipPath></defs><g transform="scale(1,1)" clip-path="url(#zNPNuhuZaJKT)"><g><rect fill="none" stroke="none" x="0" y="0" width="378" height="313" fill-opacity="1"/><path fill="none" stroke="rgb(28,28,31)" paint-order="fill stroke markers" d=" M 145.5 2.5 L 145.5 313.5" stroke-opacity="1" stroke-miterlimit="10"/><path fill="none" stroke="rgb(28,28,31)" paint-order="fill stroke markers" d=" M 145.5 1.5 L 141.5 5.5" stroke-opacity="1" stroke-miterlimit="10"/><path fill="none" stroke="rgb(28,28,31)" paint-order="fill stroke markers" d=" M 145.5 1.5 L 149.5 5.5" stroke-opacity="1" stroke-miterlimit="10"/><path fill="none" stroke="rgb(28,28,31)" paint-order="fill stroke markers" d=" M 0.5 158.5 L 376.5 158.5" stroke-opacity="1" stroke-miterlimit="10"/><path fill="none" stroke="rgb(28,28,31)" paint-order="fill stroke markers" d=" M 377.5 158.5 L 373.5 154.5" stroke-opacity="1" stroke-miterlimit="10"/><path fill="none" stroke="rgb(28,28,31)" paint-order="fill stroke markers" d=" M 377.5 158.5 L 373.5 162.5" stroke-opacity="1" stroke-miterlimit="10"/><path fill="none" stroke="rgb(28,28,31)" paint-order="fill stroke markers" d=" M 55.5 158.5 L 55.5 161.5" stroke-opacity="1" stroke-miterlimit="10"/><path fill="none" stroke="rgb(28,28,31)" paint-order="fill stroke markers" d=" M 145.5 158.5 L 145.5 161.5" stroke-opacity="1" stroke-miterlimit="10"/><path fill="none" stroke="rgb(28,28,31)" paint-order="fill stroke markers" d=" M 234.5 158.5 L 234.5 161.5" stroke-opacity="1" stroke-miterlimit="10"/><path fill="none" stroke="rgb(28,28,31)" paint-order="fill stroke markers" d=" M 323.5 158.5 L 323.5 161.5" stroke-opacity="1" stroke-miterlimit="10"/><path fill="none" stroke="rgb(28,28,31)" paint-order="fill stroke markers" d=" M 142.5 247.5 L 145.5 247.5" stroke-opacity="1" stroke-miterlimit="10"/><path fill="none" stroke="rgb(28,28,31)" paint-order="fill stroke markers" d=" M 142.5 69.5 L 145.5 69.5" stroke-opacity="1" stroke-miterlimit="10"/><path fill="none" stroke="rgb(0,103,88)" paint-order="fill stroke markers" d=" M 234.30508136853373 158.39599133634667 C 234.30508136853373 207.6519831856363 194.37521055480306 247.58185399936696 145.11921870551336 247.58185399936696 C 95.86322685622366 247.58185399936696 55.93335604249299 207.6519831856363 55.93335604249299 158.39599133634667 C 55.93335604249299 109.13999948705701 95.86322685622366 69.21012867332637 145.11921870551336 69.21012867332637 C 194.37521055480306 69.21012867332637 234.30508136853373 109.13999948705701 234.30508136853373 158.39599133634667 Z" stroke-opacity="0.8" stroke-linecap="round" stroke-linejoin="round" stroke-miterlimit="10" stroke-width="2.5"/><path fill="none" stroke="rgb(0,0,0)" paint-order="fill stroke markers" d=" M 40.480785283917356 -5 L 383 192.75356081894938" stroke-opacity="0.6980392156862745" stroke-linecap="round" stroke-linejoin="round" stroke-miterlimit="10" stroke-width="2.5"/><path fill="none" stroke="rgb(0,0,0)" paint-order="fill stroke markers" d=" M 189.71215003702355 81.15876861174102 L 145.11921870551336 158.39599133634667" stroke-opacity="0.6980392156862745" stroke-linecap="round" stroke-linejoin="round" stroke-miterlimit="10" stroke-width="2.5"/><path fill="none" stroke="rgb(0,0,0)" paint-order="fill stroke markers" d=" M 189.71215003702355 81.15876861174102 L 189.71215003702355 158.39599133634667" stroke-opacity="0.6980392156862745" stroke-linecap="round" stroke-linejoin="round" stroke-miterlimit="10" stroke-width="2.5"/><path fill="rgb(21,101,192)" stroke="none" paint-order="stroke fill markers" d=" M 328.49094403155414 158.39599133634667 C 328.49094403155414 161.15741508550065 326.2523677807081 163.39599133634667 323.49094403155414 163.39599133634667 C 320.7295202824002 163.39599133634667 318.49094403155414 161.15741508550065 318.49094403155414 158.39599133634667 C 318.49094403155414 155.6345675871927 320.7295202824002 153.39599133634667 323.49094403155414 153.39599133634667 C 326.2523677807081 153.39599133634667 328.49094403155414 155.6345675871927 328.49094403155414 158.39599133634667 Z" fill-opacity="1"/><path fill="none" stroke="rgb(0,0,0)" paint-order="fill stroke markers" d=" M 328.49094403155414 158.39599133634667 C 328.49094403155414 161.15741508550065 326.2523677807081 163.39599133634667 323.49094403155414 163.39599133634667 C 320.7295202824002 163.39599133634667 318.49094403155414 161.15741508550065 318.49094403155414 158.39599133634667 C 318.49094403155414 155.6345675871927 320.7295202824002 153.39599133634667 323.49094403155414 153.39599133634667 C 326.2523677807081 153.39599133634667 328.49094403155414 155.6345675871927 328.49094403155414 158.39599133634667 Z" stroke-opacity="1" stroke-linecap="round" stroke-linejoin="round" stroke-miterlimit="10"/><text fill="rgb(21,101,192)" stroke="none" font-family="geogebra-sans-serif, sans-serif" font-size="16px" font-style="normal" font-weight="normal" text-decoration="normal" x="327" y="148" text-anchor="start" dominant-baseline="alphabetic" fill-opacity="1">P</text><path fill="rgb(110,109,115)" stroke="none" paint-order="stroke fill markers" d=" M 194.71215003702355 81.15876861174102 C 194.71215003702355 83.92019236089499 192.47357378617752 86.15876861174102 189.71215003702355 86.15876861174102 C 186.95072628786957 86.15876861174102 184.71215003702355 83.92019236089499 184.71215003702355 81.15876861174102 C 184.71215003702355 78.39734486258706 186.95072628786957 76.15876861174102 189.71215003702355 76.15876861174102 C 192.47357378617752 76.15876861174102 194.71215003702355 78.39734486258706 194.71215003702355 81.15876861174102 Z" fill-opacity="1"/><path fill="none" stroke="rgb(0,0,0)" paint-order="fill stroke markers" d=" M 194.71215003702355 81.15876861174102 C 194.71215003702355 83.92019236089499 192.47357378617752 86.15876861174102 189.71215003702355 86.15876861174102 C 186.95072628786957 86.15876861174102 184.71215003702355 83.92019236089499 184.71215003702355 81.15876861174102 C 184.71215003702355 78.39734486258706 186.95072628786957 76.15876861174102 189.71215003702355 76.15876861174102 C 192.47357378617752 76.15876861174102 194.71215003702355 78.39734486258706 194.71215003702355 81.15876861174102 Z" stroke-opacity="1" stroke-linecap="round" stroke-linejoin="round" stroke-miterlimit="10"/><text fill="rgb(110,109,115)" stroke="none" font-family="geogebra-sans-serif, sans-serif" font-size="16px" font-style="normal" font-weight="normal" text-decoration="normal" x="194" y="71" text-anchor="start" dominant-baseline="alphabetic" fill-opacity="1">R</text><path fill="rgb(110,109,115)" stroke="none" paint-order="stroke fill markers" d=" M 150.11921870551336 158.39599133634667 C 150.11921870551336 161.15741508550065 147.88064245466734 163.39599133634667 145.11921870551336 163.39599133634667 C 142.35779495635938 163.39599133634667 140.11921870551336 161.15741508550065 140.11921870551336 158.39599133634667 C 140.11921870551336 155.6345675871927 142.35779495635938 153.39599133634667 145.11921870551336 153.39599133634667 C 147.88064245466734 153.39599133634667 150.11921870551336 155.6345675871927 150.11921870551336 158.39599133634667 Z" fill-opacity="1"/><path fill="none" stroke="rgb(0,0,0)" paint-order="fill stroke markers" d=" M 150.11921870551336 158.39599133634667 C 150.11921870551336 161.15741508550065 147.88064245466734 163.39599133634667 145.11921870551336 163.39599133634667 C 142.35779495635938 163.39599133634667 140.11921870551336 161.15741508550065 140.11921870551336 158.39599133634667 C 140.11921870551336 155.6345675871927 142.35779495635938 153.39599133634667 145.11921870551336 153.39599133634667 C 147.88064245466734 153.39599133634667 150.11921870551336 155.6345675871927 150.11921870551336 158.39599133634667 Z" stroke-opacity="1" stroke-linecap="round" stroke-linejoin="round" stroke-miterlimit="10"/><text fill="rgb(110,109,115)" stroke="none" font-family="geogebra-sans-serif, sans-serif" font-size="16px" font-style="normal" font-weight="normal" text-decoration="normal" x="128" y="179" text-anchor="start" dominant-baseline="alphabetic" fill-opacity="1">O</text><path fill="rgb(110,109,115)" stroke="none" paint-order="stroke fill markers" d=" M 194.71215003702355 158.39599133634667 C 194.71215003702355 161.15741508550065 192.47357378617752 163.39599133634667 189.71215003702355 163.39599133634667 C 186.95072628786957 163.39599133634667 184.71215003702355 161.15741508550065 184.71215003702355 158.39599133634667 C 184.71215003702355 155.6345675871927 186.95072628786957 153.39599133634667 189.71215003702355 153.39599133634667 C 192.47357378617752 153.39599133634667 194.71215003702355 155.6345675871927 194.71215003702355 158.39599133634667 Z" fill-opacity="1"/><path fill="none" stroke="rgb(0,0,0)" paint-order="fill stroke markers" d=" M 194.71215003702355 158.39599133634667 C 194.71215003702355 161.15741508550065 192.47357378617752 163.39599133634667 189.71215003702355 163.39599133634667 C 186.95072628786957 163.39599133634667 184.71215003702355 161.15741508550065 184.71215003702355 158.39599133634667 C 184.71215003702355 155.6345675871927 186.95072628786957 153.39599133634667 189.71215003702355 153.39599133634667 C 192.47357378617752 153.39599133634667 194.71215003702355 155.6345675871927 194.71215003702355 158.39599133634667 Z" stroke-opacity="1" stroke-linecap="round" stroke-linejoin="round" stroke-miterlimit="10"/><text fill="rgb(110,109,115)" stroke="none" font-family="geogebra-sans-serif, sans-serif" font-size="16px" font-style="normal" font-weight="normal" text-decoration="normal" x="189" y="182" text-anchor="start" dominant-baseline="alphabetic" fill-opacity="1">Q</text></g></g></svg>
