<svg version="1.1" xmlns="http://www.w3.org/2000/svg" xmlns:xlink="http://www.w3.org/1999/xlink" width="434" height="322"><defs><clipPath id="QOUEEJRbEXdc"><path fill="none" stroke="none" d=" M 0 0 L 434 0 L 434 322 L 0 322 L 0 0 Z"/></clipPath></defs><g transform="scale(1,1)" clip-path="url(#QOUEEJRbEXdc)"><g><rect fill="transparent" stroke="none" x="0" y="0" width="434" height="322" fill-opacity="1"/><path fill="none" stroke="rgb(37,37,37)" paint-order="fill stroke markers" d=" M 178.5 2.5 L 178.5 322.5" stroke-opacity="1" stroke-miterlimit="10"/><path fill="none" stroke="rgb(37,37,37)" paint-order="fill stroke markers" d=" M 178.5 1.5 L 174.5 5.5" stroke-opacity="1" stroke-miterlimit="10"/><path fill="none" stroke="rgb(37,37,37)" paint-order="fill stroke markers" d=" M 178.5 1.5 L 182.5 5.5" stroke-opacity="1" stroke-miterlimit="10"/><path fill="none" stroke="rgb(37,37,37)" paint-order="fill stroke markers" d=" M 0.5 178.5 L 432.5 178.5" stroke-opacity="1" stroke-miterlimit="10"/><path fill="none" stroke="rgb(37,37,37)" paint-order="fill stroke markers" d=" M 433.5 178.5 L 429.5 174.5" stroke-opacity="1" stroke-miterlimit="10"/><path fill="none" stroke="rgb(37,37,37)" paint-order="fill stroke markers" d=" M 433.5 178.5 L 429.5 182.5" stroke-opacity="1" stroke-miterlimit="10"/><path fill="none" stroke="rgb(37,37,37)" paint-order="fill stroke markers" d=" M 13.5 178.5 L 13.5 181.5" stroke-opacity="1" stroke-miterlimit="10"/><path fill="none" stroke="rgb(37,37,37)" paint-order="fill stroke markers" d=" M 68.5 178.5 L 68.5 181.5" stroke-opacity="1" stroke-miterlimit="10"/><path fill="none" stroke="rgb(37,37,37)" paint-order="fill stroke markers" d=" M 123.5 178.5 L 123.5 181.5" stroke-opacity="1" stroke-miterlimit="10"/><path fill="none" stroke="rgb(37,37,37)" paint-order="fill stroke markers" d=" M 178.5 178.5 L 178.5 181.5" stroke-opacity="1" stroke-miterlimit="10"/><path fill="none" stroke="rgb(37,37,37)" paint-order="fill stroke markers" d=" M 233.5 178.5 L 233.5 181.5" stroke-opacity="1" stroke-miterlimit="10"/><path fill="none" stroke="rgb(37,37,37)" paint-order="fill stroke markers" d=" M 288.5 178.5 L 288.5 181.5" stroke-opacity="1" stroke-miterlimit="10"/><path fill="none" stroke="rgb(37,37,37)" paint-order="fill stroke markers" d=" M 343.5 178.5 L 343.5 181.5" stroke-opacity="1" stroke-miterlimit="10"/><path fill="none" stroke="rgb(37,37,37)" paint-order="fill stroke markers" d=" M 398.5 178.5 L 398.5 181.5" stroke-opacity="1" stroke-miterlimit="10"/><path fill="none" stroke="rgb(37,37,37)" paint-order="fill stroke markers" d=" M 175.5 288.5 L 178.5 288.5" stroke-opacity="1" stroke-miterlimit="10"/><path fill="none" stroke="rgb(37,37,37)" paint-order="fill stroke markers" d=" M 175.5 233.5 L 178.5 233.5" stroke-opacity="1" stroke-miterlimit="10"/><path fill="none" stroke="rgb(37,37,37)" paint-order="fill stroke markers" d=" M 175.5 123.5 L 178.5 123.5" stroke-opacity="1" stroke-miterlimit="10"/><path fill="none" stroke="rgb(37,37,37)" paint-order="fill stroke markers" d=" M 175.5 68.5 L 178.5 68.5" stroke-opacity="1" stroke-miterlimit="10"/><path fill="none" stroke="rgb(37,37,37)" paint-order="fill stroke markers" d=" M 175.5 13.5 L 178.5 13.5" stroke-opacity="1" stroke-miterlimit="10"/><path fill="none" stroke="rgb(46,125,50)" paint-order="fill stroke markers" d=" M 288.66130158410766 178.73289648250847 C 288.66130158410766 239.50972681293777 239.39194586820878 288.7790825288366 178.61511553777953 288.7790825288366 C 117.83828520735025 288.7790825288366 68.56892949145139 239.50972681293777 68.56892949145139 178.73289648250847 C 68.56892949145139 117.95606615207916 117.83828520735025 68.68671043618028 178.61511553777953 68.68671043618028 C 239.39194586820878 68.68671043618028 288.66130158410766 117.95606615207916 288.66130158410766 178.73289648250847 Z" stroke-opacity="0.8" stroke-linecap="round" stroke-linejoin="round" stroke-miterlimit="10" stroke-width="2.5"/><path fill="none" stroke="rgb(0,0,0)" paint-order="fill stroke markers" d=" M 398.7074876304358 178.73289648250847 L 178.61511553777953 68.68671043618028" stroke-opacity="0.6980392156862745" stroke-linecap="round" stroke-linejoin="round" stroke-miterlimit="10" stroke-width="2.5"/><path fill="none" stroke="rgb(0,0,0)" paint-order="fill stroke markers" d=" M 266.65206437484204 112.70518485471156 L 178.61511553777953 288.7790825288366" stroke-opacity="0.6980392156862745" stroke-linecap="round" stroke-linejoin="round" stroke-miterlimit="10" stroke-width="2.5"/><path fill="rgb(21,101,192)" stroke="none" paint-order="stroke fill markers" d=" M 403.7074876304358 178.73289648250847 C 403.7074876304358 181.49432023166244 401.46891137958977 183.73289648250847 398.7074876304358 183.73289648250847 C 395.9460638812819 183.73289648250847 393.7074876304358 181.49432023166244 393.7074876304358 178.73289648250847 C 393.7074876304358 175.9714727333545 395.9460638812819 173.73289648250847 398.7074876304358 173.73289648250847 C 401.46891137958977 173.73289648250847 403.7074876304358 175.9714727333545 403.7074876304358 178.73289648250847 Z" fill-opacity="1"/><path fill="none" stroke="rgb(0,0,0)" paint-order="fill stroke markers" d=" M 403.7074876304358 178.73289648250847 C 403.7074876304358 181.49432023166244 401.46891137958977 183.73289648250847 398.7074876304358 183.73289648250847 C 395.9460638812819 183.73289648250847 393.7074876304358 181.49432023166244 393.7074876304358 178.73289648250847 C 393.7074876304358 175.9714727333545 395.9460638812819 173.73289648250847 398.7074876304358 173.73289648250847 C 401.46891137958977 173.73289648250847 403.7074876304358 175.9714727333545 403.7074876304358 178.73289648250847 Z" stroke-opacity="1" stroke-linecap="round" stroke-linejoin="round" stroke-miterlimit="10"/><text fill="rgb(21,101,192)" stroke="none" font-family="geogebra-sans-serif, sans-serif" font-size="16px" font-style="normal" font-weight="normal" text-decoration="normal" x="403" y="169" text-anchor="start" dominant-baseline="alphabetic" fill-opacity="1">P</text><text fill="none" stroke="rgb(255,255,255)" font-family="geogebra-sans-serif, sans-serif" font-size="16px" font-style="normal" font-weight="normal" text-decoration="normal" x="403" y="169" text-anchor="start" dominant-baseline="alphabetic" stroke-opacity="1" stroke-linejoin="bevel" stroke-miterlimit="10" stroke-width="3">P</text><text fill="rgb(21,101,192)" stroke="none" font-family="geogebra-sans-serif, sans-serif" font-size="16px" font-style="normal" font-weight="normal" text-decoration="normal" x="403" y="169" text-anchor="start" dominant-baseline="alphabetic" fill-opacity="1">P</text><path fill="rgb(21,101,192)" stroke="none" paint-order="stroke fill markers" d=" M 183.61511553777953 178.73289648250847 C 183.61511553777953 181.49432023166244 181.3765392869335 183.73289648250847 178.61511553777953 183.73289648250847 C 175.85369178862555 183.73289648250847 173.61511553777953 181.49432023166244 173.61511553777953 178.73289648250847 C 173.61511553777953 175.9714727333545 175.85369178862555 173.73289648250847 178.61511553777953 173.73289648250847 C 181.3765392869335 173.73289648250847 183.61511553777953 175.9714727333545 183.61511553777953 178.73289648250847 Z" fill-opacity="1"/><path fill="none" stroke="rgb(0,0,0)" paint-order="fill stroke markers" d=" M 183.61511553777953 178.73289648250847 C 183.61511553777953 181.49432023166244 181.3765392869335 183.73289648250847 178.61511553777953 183.73289648250847 C 175.85369178862555 183.73289648250847 173.61511553777953 181.49432023166244 173.61511553777953 178.73289648250847 C 173.61511553777953 175.9714727333545 175.85369178862555 173.73289648250847 178.61511553777953 173.73289648250847 C 181.3765392869335 173.73289648250847 183.61511553777953 175.9714727333545 183.61511553777953 178.73289648250847 Z" stroke-opacity="1" stroke-linecap="round" stroke-linejoin="round" stroke-miterlimit="10"/><text fill="rgb(21,101,192)" stroke="none" font-family="geogebra-sans-serif, sans-serif" font-size="16px" font-style="normal" font-weight="normal" text-decoration="normal" x="183" y="169" text-anchor="start" dominant-baseline="alphabetic" fill-opacity="1">O</text><text fill="none" stroke="rgb(255,255,255)" font-family="geogebra-sans-serif, sans-serif" font-size="16px" font-style="normal" font-weight="normal" text-decoration="normal" x="183" y="169" text-anchor="start" dominant-baseline="alphabetic" stroke-opacity="1" stroke-linejoin="bevel" stroke-miterlimit="10" stroke-width="3">O</text><text fill="rgb(21,101,192)" stroke="none" font-family="geogebra-sans-serif, sans-serif" font-size="16px" font-style="normal" font-weight="normal" text-decoration="normal" x="183" y="169" text-anchor="start" dominant-baseline="alphabetic" fill-opacity="1">O</text><path fill="rgb(97,97,97)" stroke="none" paint-order="stroke fill markers" d=" M 183.61511553777953 68.68671043618028 C 183.61511553777953 71.44813418533424 181.3765392869335 73.68671043618028 178.61511553777953 73.68671043618028 C 175.85369178862555 73.68671043618028 173.61511553777953 71.44813418533424 173.61511553777953 68.68671043618028 C 173.61511553777953 65.92528668702631 175.85369178862555 63.68671043618028 178.61511553777953 63.68671043618028 C 181.3765392869335 63.68671043618028 183.61511553777953 65.92528668702631 183.61511553777953 68.68671043618028 Z" fill-opacity="1"/><path fill="none" stroke="rgb(0,0,0)" paint-order="fill stroke markers" d=" M 183.61511553777953 68.68671043618028 C 183.61511553777953 71.44813418533424 181.3765392869335 73.68671043618028 178.61511553777953 73.68671043618028 C 175.85369178862555 73.68671043618028 173.61511553777953 71.44813418533424 173.61511553777953 68.68671043618028 C 173.61511553777953 65.92528668702631 175.85369178862555 63.68671043618028 178.61511553777953 63.68671043618028 C 181.3765392869335 63.68671043618028 183.61511553777953 65.92528668702631 183.61511553777953 68.68671043618028 Z" stroke-opacity="1" stroke-linecap="round" stroke-linejoin="round" stroke-miterlimit="10"/><text fill="rgb(97,97,97)" stroke="none" font-family="geogebra-sans-serif, sans-serif" font-size="16px" font-style="normal" font-weight="normal" text-decoration="normal" x="183" y="59" text-anchor="start" dominant-baseline="alphabetic" fill-opacity="1">N</text><text fill="none" stroke="rgb(255,255,255)" font-family="geogebra-sans-serif, sans-serif" font-size="16px" font-style="normal" font-weight="normal" text-decoration="normal" x="183" y="59" text-anchor="start" dominant-baseline="alphabetic" stroke-opacity="1" stroke-linejoin="bevel" stroke-miterlimit="10" stroke-width="3">N</text><text fill="rgb(97,97,97)" stroke="none" font-family="geogebra-sans-serif, sans-serif" font-size="16px" font-style="normal" font-weight="normal" text-decoration="normal" x="183" y="59" text-anchor="start" dominant-baseline="alphabetic" fill-opacity="1">N</text><path fill="rgb(97,97,97)" stroke="none" paint-order="stroke fill markers" d=" M 271.65206437484204 112.70518485471156 C 271.65206437484204 115.46660860386552 269.413488123996 117.70518485471156 266.65206437484204 117.70518485471156 C 263.8906406256881 117.70518485471156 261.65206437484204 115.46660860386552 261.65206437484204 112.70518485471156 C 261.65206437484204 109.9437611055576 263.8906406256881 107.70518485471156 266.65206437484204 107.70518485471156 C 269.413488123996 107.70518485471156 271.65206437484204 109.9437611055576 271.65206437484204 112.70518485471156 Z" fill-opacity="1"/><path fill="none" stroke="rgb(0,0,0)" paint-order="fill stroke markers" d=" M 271.65206437484204 112.70518485471156 C 271.65206437484204 115.46660860386552 269.413488123996 117.70518485471156 266.65206437484204 117.70518485471156 C 263.8906406256881 117.70518485471156 261.65206437484204 115.46660860386552 261.65206437484204 112.70518485471156 C 261.65206437484204 109.9437611055576 263.8906406256881 107.70518485471156 266.65206437484204 107.70518485471156 C 269.413488123996 107.70518485471156 271.65206437484204 109.9437611055576 271.65206437484204 112.70518485471156 Z" stroke-opacity="1" stroke-linecap="round" stroke-linejoin="round" stroke-miterlimit="10"/><text fill="rgb(97,97,97)" stroke="none" font-family="geogebra-sans-serif, sans-serif" font-size="16px" font-style="normal" font-weight="normal" text-decoration="normal" x="271" y="103" text-anchor="start" dominant-baseline="alphabetic" fill-opacity="1">A</text><text fill="none" stroke="rgb(255,255,255)" font-family="geogebra-sans-serif, sans-serif" font-size="16px" font-style="normal" font-weight="normal" text-decoration="normal" x="271" y="103" text-anchor="start" dominant-baseline="alphabetic" stroke-opacity="1" stroke-linejoin="bevel" stroke-miterlimit="10" stroke-width="3">A</text><text fill="rgb(97,97,97)" stroke="none" font-family="geogebra-sans-serif, sans-serif" font-size="16px" font-style="normal" font-weight="normal" text-decoration="normal" x="271" y="103" text-anchor="start" dominant-baseline="alphabetic" fill-opacity="1">A</text><path fill="rgb(97,97,97)" stroke="none" paint-order="stroke fill markers" d=" M 183.61511553777953 288.7790825288366 C 183.61511553777953 291.5405062779906 181.3765392869335 293.7790825288366 178.61511553777953 293.7790825288366 C 175.85369178862555 293.7790825288366 173.61511553777953 291.5405062779906 173.61511553777953 288.7790825288366 C 173.61511553777953 286.0176587796827 175.85369178862555 283.7790825288366 178.61511553777953 283.7790825288366 C 181.3765392869335 283.7790825288366 183.61511553777953 286.0176587796827 183.61511553777953 288.7790825288366 Z" fill-opacity="1"/><path fill="none" stroke="rgb(0,0,0)" paint-order="fill stroke markers" d=" M 183.61511553777953 288.7790825288366 C 183.61511553777953 291.5405062779906 181.3765392869335 293.7790825288366 178.61511553777953 293.7790825288366 C 175.85369178862555 293.7790825288366 173.61511553777953 291.5405062779906 173.61511553777953 288.7790825288366 C 173.61511553777953 286.0176587796827 175.85369178862555 283.7790825288366 178.61511553777953 283.7790825288366 C 181.3765392869335 283.7790825288366 183.61511553777953 286.0176587796827 183.61511553777953 288.7790825288366 Z" stroke-opacity="1" stroke-linecap="round" stroke-linejoin="round" stroke-miterlimit="10"/><text fill="rgb(97,97,97)" stroke="none" font-family="geogebra-sans-serif, sans-serif" font-size="16px" font-style="normal" font-weight="normal" text-decoration="normal" x="186" y="308" text-anchor="start" dominant-baseline="alphabetic" fill-opacity="1">S</text><text fill="none" stroke="rgb(255,255,255)" font-family="geogebra-sans-serif, sans-serif" font-size="16px" font-style="normal" font-weight="normal" text-decoration="normal" x="186" y="308" text-anchor="start" dominant-baseline="alphabetic" stroke-opacity="1" stroke-linejoin="bevel" stroke-miterlimit="10" stroke-width="3">S</text><text fill="rgb(97,97,97)" stroke="none" font-family="geogebra-sans-serif, sans-serif" font-size="16px" font-style="normal" font-weight="normal" text-decoration="normal" x="186" y="308" text-anchor="start" dominant-baseline="alphabetic" fill-opacity="1">S</text><path fill="rgb(97,97,97)" stroke="none" paint-order="stroke fill markers" d=" M 238.6382085609436 178.73289648250847 C 238.6382085609436 181.49432023166244 236.3996323100976 183.73289648250847 233.6382085609436 183.73289648250847 C 230.87678481178963 183.73289648250847 228.6382085609436 181.49432023166244 228.6382085609436 178.73289648250847 C 228.6382085609436 175.9714727333545 230.87678481178963 173.73289648250847 233.6382085609436 173.73289648250847 C 236.3996323100976 173.73289648250847 238.6382085609436 175.9714727333545 238.6382085609436 178.73289648250847 Z" fill-opacity="1"/><path fill="none" stroke="rgb(0,0,0)" paint-order="fill stroke markers" d=" M 238.6382085609436 178.73289648250847 C 238.6382085609436 181.49432023166244 236.3996323100976 183.73289648250847 233.6382085609436 183.73289648250847 C 230.87678481178963 183.73289648250847 228.6382085609436 181.49432023166244 228.6382085609436 178.73289648250847 C 228.6382085609436 175.9714727333545 230.87678481178963 173.73289648250847 233.6382085609436 173.73289648250847 C 236.3996323100976 173.73289648250847 238.6382085609436 175.9714727333545 238.6382085609436 178.73289648250847 Z" stroke-opacity="1" stroke-linecap="round" stroke-linejoin="round" stroke-miterlimit="10"/><text fill="rgb(97,97,97)" stroke="none" font-family="geogebra-sans-serif, sans-serif" font-size="16px" font-style="normal" font-weight="normal" text-decoration="normal" x="239" y="201" text-anchor="start" dominant-baseline="alphabetic" fill-opacity="1">Q</text><text fill="none" stroke="rgb(255,255,255)" font-family="geogebra-sans-serif, sans-serif" font-size="16px" font-style="normal" font-weight="normal" text-decoration="normal" x="239" y="201" text-anchor="start" dominant-baseline="alphabetic" stroke-opacity="1" stroke-linejoin="bevel" stroke-miterlimit="10" stroke-width="3">Q</text><text fill="rgb(97,97,97)" stroke="none" font-family="geogebra-sans-serif, sans-serif" font-size="16px" font-style="normal" font-weight="normal" text-decoration="normal" x="239" y="201" text-anchor="start" dominant-baseline="alphabetic" fill-opacity="1">Q</text></g></g></svg>
