<svg version="1.1" xmlns="http://www.w3.org/2000/svg" xmlns:xlink="http://www.w3.org/1999/xlink" width="563" height="436"><defs><clipPath id="CqWDbuCweAUf"><path fill="none" stroke="none" d=" M 0 0 L 563 0 L 563 436 L 0 436 L 0 0 Z"/></clipPath></defs><g transform="scale(1,1)" clip-path="url(#CqWDbuCweAUf)"><g><rect fill="rgb(255,255,255)" stroke="none" x="0" y="0" width="563" height="436" fill-opacity="1"/><path fill="none" stroke="rgb(21,101,192)" paint-order="fill stroke markers" d=" M 534.339447879804 72.42268606026184 C 534.339447879804 213.56225320075472 419.9232221367631 327.9784789437964 278.78365499627125 327.9784789437964 C 137.64408785577936 327.9784789437964 23.227862112738563 213.56225320075472 23.227862112738563 72.42268606026184 C 23.227862112738563 -68.7168810802311 137.64408785577936 -183.13310682327275 278.78365499627125 -183.13310682327275 C 419.9232221367631 -183.13310682327275 534.339447879804 -68.7168810802311 534.339447879804 72.42268606026184 Z" stroke-opacity="0.6980392156862745" stroke-linecap="round" stroke-linejoin="round" stroke-miterlimit="10" stroke-width="2.5"/><path fill="none" stroke="rgb(180,179,186)" paint-order="fill stroke markers" d=" M 424.1669262136503 327.92832522375346 C 424.1669262136503 405.4251985757246 361.3432975497427 468.24882723963265 283.84642419777214 468.24882723963265 C 206.34955084580156 468.24882723963265 143.525922181894 405.4251985757246 143.525922181894 327.92832522375346 C 143.525922181894 250.4314518717823 206.34955084580156 187.60782320787428 283.84642419777214 187.60782320787428 C 361.3432975497427 187.60782320787428 424.1669262136503 250.4314518717823 424.1669262136503 327.92832522375346 Z" stroke-opacity="0.6980392156862745" stroke-linecap="round" stroke-linejoin="round" stroke-miterlimit="10" stroke-width="2.5"/><path fill="none" stroke="rgb(180,179,186)" paint-order="fill stroke markers" d=" M 288.50143518141647 292.0853645624051 C 288.50143518141647 369.58223791437626 225.67780651750888 432.4058665782843 148.1809331655383 432.4058665782843 C 70.68405981356773 432.4058665782843 7.860431149660172 369.58223791437626 7.860431149660172 292.0853645624051 C 7.860431149660172 214.58849121043394 70.68405981356773 151.76486254652593 148.1809331655383 151.76486254652593 C 225.67780651750888 151.76486254652593 288.50143518141647 214.58849121043394 288.50143518141647 292.0853645624051 Z" stroke-opacity="0.6980392156862745" stroke-linecap="round" stroke-linejoin="round" stroke-miterlimit="10" stroke-width="2.5"/><path fill="none" stroke="rgb(180,179,186)" paint-order="fill stroke markers" d=" M 558.3060503822383 286.73926535013885 C 558.3060503822383 364.23613870211 495.4824217183308 427.05976736601804 417.98554836636015 427.05976736601804 C 340.48867501438957 427.05976736601804 277.66504635048204 364.23613870211 277.66504635048204 286.73926535013885 C 277.66504635048204 209.24239199816768 340.48867501438957 146.41876333425967 417.98554836636015 146.41876333425967 C 495.4824217183308 146.41876333425967 558.3060503822383 209.24239199816768 558.3060503822383 286.73926535013885 Z" stroke-opacity="0.6980392156862745" stroke-linecap="round" stroke-linejoin="round" stroke-miterlimit="10" stroke-width="2.5"/><path fill="none" stroke="rgb(21,101,192)" paint-order="fill stroke markers" d=" M 359.36719864061024 250.89630468879054 C 359.36719864061024 293.44826585042006 324.8720184957556 327.943445995275 282.3200573341263 327.943445995275 C 239.76809617249708 327.943445995275 205.27291602764242 293.44826585042006 205.27291602764242 250.89630468879054 C 205.27291602764242 208.344343527161 239.76809617249708 173.84916338230607 282.3200573341263 173.84916338230607 C 324.8720184957556 173.84916338230607 359.36719864061024 208.344343527161 359.36719864061024 250.89630468879054 Z" stroke-opacity="0.6980392156862745" stroke-linecap="round" stroke-linejoin="round" stroke-miterlimit="10" stroke-width="2.5"/><path fill="none" stroke="rgb(180,179,186)" paint-order="fill stroke markers" d=" M 363.65853986432046 201.3243029046007 C 363.65853986432046 278.82117625657185 300.8349112004129 341.6448049204799 223.33803784844227 341.6448049204799 C 145.84116449647166 341.6448049204799 83.0175358325641 278.82117625657185 83.0175358325641 201.3243029046007 C 83.0175358325641 123.82742955262952 145.84116449647166 61.003800888721514 223.33803784844227 61.003800888721514 C 300.8349112004129 61.003800888721514 363.65853986432046 123.82742955262952 363.65853986432046 201.3243029046007 Z" stroke-opacity="0.6980392156862745" stroke-linecap="round" stroke-linejoin="round" stroke-miterlimit="10" stroke-width="2.5"/><path fill="none" stroke="rgb(180,179,186)" paint-order="fill stroke markers" d=" M 479.6125433614792 199.02670837941483 C 479.6125433614792 276.523581731386 416.78891469757167 339.34721039529404 339.2920413456011 339.34721039529404 C 261.7951679936305 339.34721039529404 198.97153932972296 276.523581731386 198.97153932972296 199.02670837941483 C 198.97153932972296 121.52983502744365 261.7951679936305 58.70620636353564 339.2920413456011 58.70620636353564 C 416.78891469757167 58.70620636353564 479.6125433614792 121.52983502744365 479.6125433614792 199.02670837941483 Z" stroke-opacity="0.6980392156862745" stroke-linecap="round" stroke-linejoin="round" stroke-miterlimit="10" stroke-width="2.5"/><path fill="none" stroke="rgb(0,0,0)" paint-order="fill stroke markers" d=" M 283.84642419777214 327.92832522375346 L 148.1809331655383 292.0853645624051" stroke-opacity="0.6980392156862745" stroke-linecap="round" stroke-linejoin="round" stroke-miterlimit="10" stroke-width="2.5"/><path fill="none" stroke="rgb(0,0,0)" paint-order="fill stroke markers" d=" M 148.1809331655383 292.0853645624051 L 282.3200573341263 250.89630468879054" stroke-opacity="0.6980392156862745" stroke-linecap="round" stroke-linejoin="round" stroke-miterlimit="10" stroke-width="2.5"/><path fill="none" stroke="rgb(0,0,0)" paint-order="fill stroke markers" d=" M 283.84642419777214 327.92832522375346 L 223.33803784844227 201.3243029046007" stroke-opacity="0.6980392156862745" stroke-linecap="round" stroke-linejoin="round" stroke-miterlimit="10" stroke-width="2.5"/><path fill="none" stroke="rgb(0,0,0)" paint-order="fill stroke markers" d=" M 223.33803784844227 201.3243029046007 L 278.78365499627125 72.42268606026184" stroke-opacity="0.6980392156862745" stroke-linecap="round" stroke-linejoin="round" stroke-miterlimit="10" stroke-width="2.5"/><path fill="none" stroke="rgb(0,0,0)" paint-order="fill stroke markers" d=" M 278.78365499627125 72.42268606026184 L 283.84642419777214 327.92832522375346" stroke-opacity="0.6980392156862745" stroke-linecap="round" stroke-linejoin="round" stroke-miterlimit="10" stroke-width="2.5"/><path fill="none" stroke="rgb(0,0,0)" paint-order="fill stroke markers" d=" M 223.33803784844227 201.3243029046007 L 282.3200573341263 250.89630468879054" stroke-opacity="0.6980392156862745" stroke-linecap="round" stroke-linejoin="round" stroke-miterlimit="10" stroke-width="2.5"/><path fill="none" stroke="rgb(0,0,0)" paint-order="fill stroke markers" d=" M 223.33803784844227 201.3243029046007 L 148.1809331655383 292.0853645624051" stroke-opacity="0.6980392156862745" stroke-linecap="round" stroke-linejoin="round" stroke-miterlimit="10" stroke-width="2.5"/><path fill="none" stroke="rgb(0,0,0)" paint-order="fill stroke markers" d=" M 278.78365499627125 72.42268606026184 L 148.1809331655383 292.0853645624051" stroke-opacity="0.6980392156862745" stroke-linecap="round" stroke-linejoin="round" stroke-miterlimit="10" stroke-width="2.5"/><path fill="rgb(21,101,192)" stroke="none" paint-order="stroke fill markers" d=" M 283.78365499627125 72.42268606026184 C 283.78365499627125 75.1841098094158 281.5450787454252 77.42268606026184 278.78365499627125 77.42268606026184 C 276.0222312471173 77.42268606026184 273.78365499627125 75.1841098094158 273.78365499627125 72.42268606026184 C 273.78365499627125 69.66126231110788 276.0222312471173 67.42268606026184 278.78365499627125 67.42268606026184 C 281.5450787454252 67.42268606026184 283.78365499627125 69.66126231110788 283.78365499627125 72.42268606026184 Z" fill-opacity="1"/><path fill="none" stroke="rgb(0,0,0)" paint-order="fill stroke markers" d=" M 283.78365499627125 72.42268606026184 C 283.78365499627125 75.1841098094158 281.5450787454252 77.42268606026184 278.78365499627125 77.42268606026184 C 276.0222312471173 77.42268606026184 273.78365499627125 75.1841098094158 273.78365499627125 72.42268606026184 C 273.78365499627125 69.66126231110788 276.0222312471173 67.42268606026184 278.78365499627125 67.42268606026184 C 281.5450787454252 67.42268606026184 283.78365499627125 69.66126231110788 283.78365499627125 72.42268606026184 Z" stroke-opacity="1" stroke-linecap="round" stroke-linejoin="round" stroke-miterlimit="10"/><text fill="rgb(21,101,192)" stroke="none" font-family="geogebra-sans-serif, sans-serif" font-size="16px" font-style="normal" font-weight="normal" text-decoration="normal" x="283" y="62" text-anchor="start" dominant-baseline="alphabetic" fill-opacity="1">O</text><path fill="rgb(21,101,192)" stroke="none" paint-order="stroke fill markers" d=" M 288.84642419777214 327.92832522375346 C 288.84642419777214 330.6897489729074 286.6078479469261 332.92832522375346 283.84642419777214 332.92832522375346 C 281.0850004486182 332.92832522375346 278.84642419777214 330.6897489729074 278.84642419777214 327.92832522375346 C 278.84642419777214 325.1669014745995 281.0850004486182 322.92832522375346 283.84642419777214 322.92832522375346 C 286.6078479469261 322.92832522375346 288.84642419777214 325.1669014745995 288.84642419777214 327.92832522375346 Z" fill-opacity="1"/><path fill="none" stroke="rgb(0,0,0)" paint-order="fill stroke markers" d=" M 288.84642419777214 327.92832522375346 C 288.84642419777214 330.6897489729074 286.6078479469261 332.92832522375346 283.84642419777214 332.92832522375346 C 281.0850004486182 332.92832522375346 278.84642419777214 330.6897489729074 278.84642419777214 327.92832522375346 C 278.84642419777214 325.1669014745995 281.0850004486182 322.92832522375346 283.84642419777214 322.92832522375346 C 286.6078479469261 322.92832522375346 288.84642419777214 325.1669014745995 288.84642419777214 327.92832522375346 Z" stroke-opacity="1" stroke-linecap="round" stroke-linejoin="round" stroke-miterlimit="10"/><text fill="rgb(21,101,192)" stroke="none" font-family="geogebra-sans-serif, sans-serif" font-size="16px" font-style="normal" font-weight="normal" text-decoration="normal" x="279" y="356" text-anchor="start" dominant-baseline="alphabetic" fill-opacity="1">P</text><path fill="rgb(21,101,192)" stroke="none" paint-order="stroke fill markers" d=" M 153.1809331655383 292.0853645624051 C 153.1809331655383 294.84678831155907 150.94235691469228 297.0853645624051 148.1809331655383 297.0853645624051 C 145.41950941638433 297.0853645624051 143.1809331655383 294.84678831155907 143.1809331655383 292.0853645624051 C 143.1809331655383 289.32394081325117 145.41950941638433 287.0853645624051 148.1809331655383 287.0853645624051 C 150.94235691469228 287.0853645624051 153.1809331655383 289.32394081325117 153.1809331655383 292.0853645624051 Z" fill-opacity="1"/><path fill="none" stroke="rgb(0,0,0)" paint-order="fill stroke markers" d=" M 153.1809331655383 292.0853645624051 C 153.1809331655383 294.84678831155907 150.94235691469228 297.0853645624051 148.1809331655383 297.0853645624051 C 145.41950941638433 297.0853645624051 143.1809331655383 294.84678831155907 143.1809331655383 292.0853645624051 C 143.1809331655383 289.32394081325117 145.41950941638433 287.0853645624051 148.1809331655383 287.0853645624051 C 150.94235691469228 287.0853645624051 153.1809331655383 289.32394081325117 153.1809331655383 292.0853645624051 Z" stroke-opacity="1" stroke-linecap="round" stroke-linejoin="round" stroke-miterlimit="10"/><text fill="rgb(21,101,192)" stroke="none" font-family="geogebra-sans-serif, sans-serif" font-size="16px" font-style="normal" font-weight="normal" text-decoration="normal" x="129" y="308" text-anchor="start" dominant-baseline="alphabetic" fill-opacity="1">A</text><path fill="rgb(110,109,115)" stroke="none" paint-order="stroke fill markers" d=" M 422.98554836636015 286.73926535013885 C 422.98554836636015 289.5006890992928 420.7469721155141 291.73926535013885 417.98554836636015 291.73926535013885 C 415.2241246172062 291.73926535013885 412.98554836636015 289.5006890992928 412.98554836636015 286.73926535013885 C 412.98554836636015 283.9778416009849 415.2241246172062 281.73926535013885 417.98554836636015 281.73926535013885 C 420.7469721155141 281.73926535013885 422.98554836636015 283.9778416009849 422.98554836636015 286.73926535013885 Z" fill-opacity="1"/><path fill="none" stroke="rgb(0,0,0)" paint-order="fill stroke markers" d=" M 422.98554836636015 286.73926535013885 C 422.98554836636015 289.5006890992928 420.7469721155141 291.73926535013885 417.98554836636015 291.73926535013885 C 415.2241246172062 291.73926535013885 412.98554836636015 289.5006890992928 412.98554836636015 286.73926535013885 C 412.98554836636015 283.9778416009849 415.2241246172062 281.73926535013885 417.98554836636015 281.73926535013885 C 420.7469721155141 281.73926535013885 422.98554836636015 283.9778416009849 422.98554836636015 286.73926535013885 Z" stroke-opacity="1" stroke-linecap="round" stroke-linejoin="round" stroke-miterlimit="10"/><text fill="rgb(110,109,115)" stroke="none" font-family="geogebra-sans-serif, sans-serif" font-size="16px" font-style="normal" font-weight="normal" text-decoration="normal" x="427" y="307" text-anchor="start" dominant-baseline="alphabetic" fill-opacity="1">A'</text><path fill="rgb(110,109,115)" stroke="none" paint-order="stroke fill markers" d=" M 287.3200573341263 250.89630468879054 C 287.3200573341263 253.6577284379445 285.08148108328027 255.89630468879054 282.3200573341263 255.89630468879054 C 279.55863358497237 255.89630468879054 277.3200573341263 253.6577284379445 277.3200573341263 250.89630468879054 C 277.3200573341263 248.13488093963656 279.55863358497237 245.89630468879054 282.3200573341263 245.89630468879054 C 285.08148108328027 245.89630468879054 287.3200573341263 248.13488093963656 287.3200573341263 250.89630468879054 Z" fill-opacity="1"/><path fill="none" stroke="rgb(0,0,0)" paint-order="fill stroke markers" d=" M 287.3200573341263 250.89630468879054 C 287.3200573341263 253.6577284379445 285.08148108328027 255.89630468879054 282.3200573341263 255.89630468879054 C 279.55863358497237 255.89630468879054 277.3200573341263 253.6577284379445 277.3200573341263 250.89630468879054 C 277.3200573341263 248.13488093963656 279.55863358497237 245.89630468879054 282.3200573341263 245.89630468879054 C 285.08148108328027 245.89630468879054 287.3200573341263 248.13488093963656 287.3200573341263 250.89630468879054 Z" stroke-opacity="1" stroke-linecap="round" stroke-linejoin="round" stroke-miterlimit="10"/><text fill="rgb(110,109,115)" stroke="none" font-family="geogebra-sans-serif, sans-serif" font-size="16px" font-style="normal" font-weight="normal" text-decoration="normal" x="290" y="257" text-anchor="start" dominant-baseline="alphabetic" fill-opacity="1">Q</text><path fill="rgb(110,109,115)" stroke="none" paint-order="stroke fill markers" d=" M 228.33803784844227 201.3243029046007 C 228.33803784844227 204.08572665375468 226.09946159759625 206.3243029046007 223.33803784844227 206.3243029046007 C 220.5766140992883 206.3243029046007 218.33803784844227 204.08572665375468 218.33803784844227 201.3243029046007 C 218.33803784844227 198.56287915544672 220.5766140992883 196.3243029046007 223.33803784844227 196.3243029046007 C 226.09946159759625 196.3243029046007 228.33803784844227 198.56287915544672 228.33803784844227 201.3243029046007 Z" fill-opacity="1"/><path fill="none" stroke="rgb(0,0,0)" paint-order="fill stroke markers" d=" M 228.33803784844227 201.3243029046007 C 228.33803784844227 204.08572665375468 226.09946159759625 206.3243029046007 223.33803784844227 206.3243029046007 C 220.5766140992883 206.3243029046007 218.33803784844227 204.08572665375468 218.33803784844227 201.3243029046007 C 218.33803784844227 198.56287915544672 220.5766140992883 196.3243029046007 223.33803784844227 196.3243029046007 C 226.09946159759625 196.3243029046007 228.33803784844227 198.56287915544672 228.33803784844227 201.3243029046007 Z" stroke-opacity="1" stroke-linecap="round" stroke-linejoin="round" stroke-miterlimit="10"/><text fill="rgb(110,109,115)" stroke="none" font-family="geogebra-sans-serif, sans-serif" font-size="16px" font-style="normal" font-weight="normal" text-decoration="normal" x="238" y="209" text-anchor="start" dominant-baseline="alphabetic" fill-opacity="1">B</text><path fill="rgb(110,109,115)" stroke="none" paint-order="stroke fill markers" d=" M 344.2920413456011 199.02670837941483 C 344.2920413456011 201.7881321285688 342.05346509475504 204.02670837941483 339.2920413456011 204.02670837941483 C 336.53061759644714 204.02670837941483 334.2920413456011 201.7881321285688 334.2920413456011 199.02670837941483 C 334.2920413456011 196.26528463026085 336.53061759644714 194.02670837941483 339.2920413456011 194.02670837941483 C 342.05346509475504 194.02670837941483 344.2920413456011 196.26528463026085 344.2920413456011 199.02670837941483 Z" fill-opacity="1"/><path fill="none" stroke="rgb(0,0,0)" paint-order="fill stroke markers" d=" M 344.2920413456011 199.02670837941483 C 344.2920413456011 201.7881321285688 342.05346509475504 204.02670837941483 339.2920413456011 204.02670837941483 C 336.53061759644714 204.02670837941483 334.2920413456011 201.7881321285688 334.2920413456011 199.02670837941483 C 334.2920413456011 196.26528463026085 336.53061759644714 194.02670837941483 339.2920413456011 194.02670837941483 C 342.05346509475504 194.02670837941483 344.2920413456011 196.26528463026085 344.2920413456011 199.02670837941483 Z" stroke-opacity="1" stroke-linecap="round" stroke-linejoin="round" stroke-miterlimit="10"/><text fill="rgb(110,109,115)" stroke="none" font-family="geogebra-sans-serif, sans-serif" font-size="16px" font-style="normal" font-weight="normal" text-decoration="normal" x="318" y="214" text-anchor="start" dominant-baseline="alphabetic" fill-opacity="1">B'</text></g></g></svg>