<svg version="1.1" xmlns="http://www.w3.org/2000/svg" xmlns:xlink="http://www.w3.org/1999/xlink" width="541" height="317"><defs><clipPath id="cpItoWtlzhxH"><path fill="none" stroke="none" d=" M 0 0 L 541 0 L 541 317 L 0 317 L 0 0 Z"/></clipPath></defs><g transform="scale(1,1)" clip-path="url(#cpItoWtlzhxH)"><g><rect fill="rgb(255,255,255)" stroke="none" x="0" y="0" width="541" height="317" fill-opacity="1"/><path fill="none" stroke="rgb(0,0,0)" paint-order="fill stroke markers" d=" M 151.1984556077415 199.76909363860318 C 185.61653952849537 227.33498400318408 239.1978411929722 217.6182303256728 270.87564248986496 178.06611686075394 C 302.5534437867577 138.51400339583503 300.33200580417326 84.10411088189403 265.91392188341933 56.53822051731315 C 231.49583796266546 28.97233015273227 177.91453629818864 38.68908383024353 146.23673500129587 78.24119729516242 C 114.5589337044031 117.7933107600813 116.78037168698759 172.20320327402231 151.1984556077415 199.76909363860318 Z" stroke-opacity="0.6980392156862745" stroke-linecap="round" stroke-linejoin="round" stroke-miterlimit="10" stroke-width="2.5"/><path fill="none" stroke="rgb(209,208,214)" paint-order="fill stroke markers" d=" M 18.11807438984299 322 L 496.0910462503091 -5" stroke-opacity="0.6980392156862745" stroke-linecap="round" stroke-linejoin="round" stroke-miterlimit="10" stroke-width="2.5"/><path fill="none" stroke="rgb(209,208,214)" paint-order="fill stroke markers" d=" M 299.6284625348327 322 L 73.31507081395063 -5" stroke-opacity="0.6980392156862745" stroke-linecap="round" stroke-linejoin="round" stroke-miterlimit="10" stroke-width="2.5"/><path fill="none" stroke="rgb(209,208,214)" paint-order="fill stroke markers" d=" M 211.88835212438897 322 L 108.83433857257567 -5" stroke-opacity="0.6980392156862745" stroke-linecap="round" stroke-linejoin="round" stroke-miterlimit="10" stroke-width="2.5"/><path fill="none" stroke="rgb(209,208,214)" paint-order="fill stroke markers" d=" M -5 219.3190137744498 L 546 200.08214877292775" stroke-opacity="0.6980392156862745" stroke-linecap="round" stroke-linejoin="round" stroke-miterlimit="10" stroke-width="2.5"/><path fill="none" stroke="rgb(209,208,214)" paint-order="fill stroke markers" d=" M 124.02415692684309 322 L 416.70102409180225 -5" stroke-opacity="0.6980392156862745" stroke-linecap="round" stroke-linejoin="round" stroke-miterlimit="10" stroke-width="2.5"/><path fill="none" stroke="rgb(209,208,214)" paint-order="fill stroke markers" d=" M -5 46.1330747597264 L 546 211.57957033940738" stroke-opacity="0.6980392156862745" stroke-linecap="round" stroke-linejoin="round" stroke-miterlimit="10" stroke-width="2.5"/><path fill="none" stroke="rgb(224,116,21)" paint-order="fill stroke markers" d=" M -5 278.3245782278407 L 546 196.1649032208448" stroke-opacity="0.6980392156862745" stroke-linecap="round" stroke-linejoin="round" stroke-miterlimit="10" stroke-width="2.5"/><path fill="none" stroke="rgb(0,0,0)" paint-order="fill stroke markers" d=" M 138.5310898893561 89.23056265251434 L 26.046466898766994 273.6952358857025" stroke-opacity="0.6980392156862745" stroke-linecap="round" stroke-linejoin="round" stroke-miterlimit="10" stroke-width="2.5"/><path fill="none" stroke="rgb(0,0,0)" paint-order="fill stroke markers" d=" M 26.046466898766994 273.6952358857025 L 223.05360332986228 211.35706027106102" stroke-opacity="0.6980392156862745" stroke-linecap="round" stroke-linejoin="round" stroke-miterlimit="10" stroke-width="2.5"/><path fill="none" stroke="rgb(0,0,0)" paint-order="fill stroke markers" d=" M 177.52023269285297 212.94675047797284 L 270.0817316712215 237.30710876419423" stroke-opacity="0.6980392156862745" stroke-linecap="round" stroke-linejoin="round" stroke-miterlimit="10" stroke-width="2.5"/><path fill="none" stroke="rgb(0,0,0)" paint-order="fill stroke markers" d=" M 270.0817316712215 237.30710876419423 L 291.30376866816005 135.1029842936639" stroke-opacity="0.6980392156862745" stroke-linecap="round" stroke-linejoin="round" stroke-miterlimit="10" stroke-width="2.5"/><path fill="rgb(21,101,192)" stroke="none" paint-order="stroke fill markers" d=" M 214.16870917288094 191.29479018263143 C 214.16870917288094 194.0562139317854 211.93013292203491 196.29479018263143 209.16870917288094 196.29479018263143 C 206.40728542372696 196.29479018263143 204.16870917288094 194.0562139317854 204.16870917288094 191.29479018263143 C 204.16870917288094 188.53336643347745 206.40728542372696 186.29479018263143 209.16870917288094 186.29479018263143 C 211.93013292203491 186.29479018263143 214.16870917288094 188.53336643347745 214.16870917288094 191.29479018263143 Z" fill-opacity="1"/><path fill="none" stroke="rgb(0,0,0)" paint-order="fill stroke markers" d=" M 214.16870917288094 191.29479018263143 C 214.16870917288094 194.0562139317854 211.93013292203491 196.29479018263143 209.16870917288094 196.29479018263143 C 206.40728542372696 196.29479018263143 204.16870917288094 194.0562139317854 204.16870917288094 191.29479018263143 C 204.16870917288094 188.53336643347745 206.40728542372696 186.29479018263143 209.16870917288094 186.29479018263143 C 211.93013292203491 186.29479018263143 214.16870917288094 188.53336643347745 214.16870917288094 191.29479018263143 Z" stroke-opacity="1" stroke-linecap="round" stroke-linejoin="round" stroke-miterlimit="10"/><text fill="rgb(21,101,192)" stroke="none" font-family="geogebra-sans-serif, sans-serif" font-size="16px" font-style="normal" font-weight="normal" text-decoration="normal" x="219" y="172" text-anchor="start" dominant-baseline="alphabetic" fill-opacity="1">O</text><path fill="rgb(21,101,192)" stroke="none" paint-order="stroke fill markers" d=" M 296.30376866816005 135.1029842936639 C 296.30376866816005 137.86440804281787 294.065192417314 140.1029842936639 291.30376866816005 140.1029842936639 C 288.5423449190061 140.1029842936639 286.30376866816005 137.86440804281787 286.30376866816005 135.1029842936639 C 286.30376866816005 132.34156054450992 288.5423449190061 130.1029842936639 291.30376866816005 130.1029842936639 C 294.065192417314 130.1029842936639 296.30376866816005 132.34156054450992 296.30376866816005 135.1029842936639 Z" fill-opacity="1"/><path fill="none" stroke="rgb(0,0,0)" paint-order="fill stroke markers" d=" M 296.30376866816005 135.1029842936639 C 296.30376866816005 137.86440804281787 294.065192417314 140.1029842936639 291.30376866816005 140.1029842936639 C 288.5423449190061 140.1029842936639 286.30376866816005 137.86440804281787 286.30376866816005 135.1029842936639 C 286.30376866816005 132.34156054450992 288.5423449190061 130.1029842936639 291.30376866816005 130.1029842936639 C 294.065192417314 130.1029842936639 296.30376866816005 132.34156054450992 296.30376866816005 135.1029842936639 Z" stroke-opacity="1" stroke-linecap="round" stroke-linejoin="round" stroke-miterlimit="10"/><text fill="rgb(21,101,192)" stroke="none" font-family="geogebra-sans-serif, sans-serif" font-size="16px" font-style="normal" font-weight="normal" text-decoration="normal" x="305" y="132" text-anchor="start" dominant-baseline="alphabetic" fill-opacity="1">N</text><path fill="rgb(21,101,192)" stroke="none" paint-order="stroke fill markers" d=" M 228.05360332986228 211.35706027106102 C 228.05360332986228 214.118484020215 225.81502707901626 216.35706027106102 223.05360332986228 216.35706027106102 C 220.2921795807083 216.35706027106102 218.05360332986228 214.118484020215 218.05360332986228 211.35706027106102 C 218.05360332986228 208.59563652190704 220.2921795807083 206.35706027106102 223.05360332986228 206.35706027106102 C 225.81502707901626 206.35706027106102 228.05360332986228 208.59563652190704 228.05360332986228 211.35706027106102 Z" fill-opacity="1"/><path fill="none" stroke="rgb(0,0,0)" paint-order="fill stroke markers" d=" M 228.05360332986228 211.35706027106102 C 228.05360332986228 214.118484020215 225.81502707901626 216.35706027106102 223.05360332986228 216.35706027106102 C 220.2921795807083 216.35706027106102 218.05360332986228 214.118484020215 218.05360332986228 211.35706027106102 C 218.05360332986228 208.59563652190704 220.2921795807083 206.35706027106102 223.05360332986228 206.35706027106102 C 225.81502707901626 206.35706027106102 228.05360332986228 208.59563652190704 228.05360332986228 211.35706027106102 Z" stroke-opacity="1" stroke-linecap="round" stroke-linejoin="round" stroke-miterlimit="10"/><text fill="rgb(21,101,192)" stroke="none" font-family="geogebra-sans-serif, sans-serif" font-size="16px" font-style="normal" font-weight="normal" text-decoration="normal" x="219" y="197" text-anchor="start" dominant-baseline="alphabetic" fill-opacity="1">M</text><path fill="rgb(110,109,115)" stroke="none" paint-order="stroke fill markers" d=" M 182.52023269285297 212.94675047797284 C 182.52023269285297 215.70817422712682 180.28165644200695 217.94675047797284 177.52023269285297 217.94675047797284 C 174.758808943699 217.94675047797284 172.52023269285297 215.70817422712682 172.52023269285297 212.94675047797284 C 172.52023269285297 210.18532672881886 174.758808943699 207.94675047797284 177.52023269285297 207.94675047797284 C 180.28165644200695 207.94675047797284 182.52023269285297 210.18532672881886 182.52023269285297 212.94675047797284 Z" fill-opacity="1"/><path fill="none" stroke="rgb(0,0,0)" paint-order="fill stroke markers" d=" M 182.52023269285297 212.94675047797284 C 182.52023269285297 215.70817422712682 180.28165644200695 217.94675047797284 177.52023269285297 217.94675047797284 C 174.758808943699 217.94675047797284 172.52023269285297 215.70817422712682 172.52023269285297 212.94675047797284 C 172.52023269285297 210.18532672881886 174.758808943699 207.94675047797284 177.52023269285297 207.94675047797284 C 180.28165644200695 207.94675047797284 182.52023269285297 210.18532672881886 182.52023269285297 212.94675047797284 Z" stroke-opacity="1" stroke-linecap="round" stroke-linejoin="round" stroke-miterlimit="10"/><text fill="rgb(110,109,115)" stroke="none" font-family="geogebra-sans-serif, sans-serif" font-size="16px" font-style="normal" font-weight="normal" text-decoration="normal" x="178" y="202" text-anchor="start" dominant-baseline="alphabetic" fill-opacity="1">L</text><path fill="rgb(110,109,115)" stroke="none" paint-order="stroke fill markers" d=" M 143.5310898893561 89.23056265251434 C 143.5310898893561 91.9919864016683 141.2925136385101 94.23056265251434 138.5310898893561 94.23056265251434 C 135.76966614020213 94.23056265251434 133.5310898893561 91.9919864016683 133.5310898893561 89.23056265251434 C 133.5310898893561 86.46913890336037 135.76966614020213 84.23056265251434 138.5310898893561 84.23056265251434 C 141.2925136385101 84.23056265251434 143.5310898893561 86.46913890336037 143.5310898893561 89.23056265251434 Z" fill-opacity="1"/><path fill="none" stroke="rgb(0,0,0)" paint-order="fill stroke markers" d=" M 143.5310898893561 89.23056265251434 C 143.5310898893561 91.9919864016683 141.2925136385101 94.23056265251434 138.5310898893561 94.23056265251434 C 135.76966614020213 94.23056265251434 133.5310898893561 91.9919864016683 133.5310898893561 89.23056265251434 C 133.5310898893561 86.46913890336037 135.76966614020213 84.23056265251434 138.5310898893561 84.23056265251434 C 141.2925136385101 84.23056265251434 143.5310898893561 86.46913890336037 143.5310898893561 89.23056265251434 Z" stroke-opacity="1" stroke-linecap="round" stroke-linejoin="round" stroke-miterlimit="10"/><text fill="rgb(110,109,115)" stroke="none" font-family="geogebra-sans-serif, sans-serif" font-size="16px" font-style="normal" font-weight="normal" text-decoration="normal" x="114" y="98" text-anchor="start" dominant-baseline="alphabetic" fill-opacity="1">K</text><path fill="rgb(110,109,115)" stroke="none" paint-order="stroke fill markers" d=" M 31.046466898766994 273.6952358857025 C 31.046466898766994 276.45665963485646 28.80789064792096 278.6952358857025 26.046466898766994 278.6952358857025 C 23.285043149613028 278.6952358857025 21.046466898766994 276.45665963485646 21.046466898766994 273.6952358857025 C 21.046466898766994 270.93381213654857 23.285043149613028 268.6952358857025 26.046466898766994 268.6952358857025 C 28.80789064792096 268.6952358857025 31.046466898766994 270.93381213654857 31.046466898766994 273.6952358857025 Z" fill-opacity="1"/><path fill="none" stroke="rgb(0,0,0)" paint-order="fill stroke markers" d=" M 31.046466898766994 273.6952358857025 C 31.046466898766994 276.45665963485646 28.80789064792096 278.6952358857025 26.046466898766994 278.6952358857025 C 23.285043149613028 278.6952358857025 21.046466898766994 276.45665963485646 21.046466898766994 273.6952358857025 C 21.046466898766994 270.93381213654857 23.285043149613028 268.6952358857025 26.046466898766994 268.6952358857025 C 28.80789064792096 268.6952358857025 31.046466898766994 270.93381213654857 31.046466898766994 273.6952358857025 Z" stroke-opacity="1" stroke-linecap="round" stroke-linejoin="round" stroke-miterlimit="10"/><text fill="rgb(110,109,115)" stroke="none" font-family="geogebra-sans-serif, sans-serif" font-size="16px" font-style="normal" font-weight="normal" text-decoration="normal" x="24" y="296" text-anchor="start" dominant-baseline="alphabetic" fill-opacity="1">P</text><path fill="rgb(110,109,115)" stroke="none" paint-order="stroke fill markers" d=" M 275.0817316712215 237.30710876419423 C 275.0817316712215 240.0685325133482 272.84315542037547 242.30710876419423 270.0817316712215 242.30710876419423 C 267.32030792206757 242.30710876419423 265.0817316712215 240.0685325133482 265.0817316712215 237.30710876419423 C 265.0817316712215 234.54568501504025 267.32030792206757 232.30710876419423 270.0817316712215 232.30710876419423 C 272.84315542037547 232.30710876419423 275.0817316712215 234.54568501504025 275.0817316712215 237.30710876419423 Z" fill-opacity="1"/><path fill="none" stroke="rgb(0,0,0)" paint-order="fill stroke markers" d=" M 275.0817316712215 237.30710876419423 C 275.0817316712215 240.0685325133482 272.84315542037547 242.30710876419423 270.0817316712215 242.30710876419423 C 267.32030792206757 242.30710876419423 265.0817316712215 240.0685325133482 265.0817316712215 237.30710876419423 C 265.0817316712215 234.54568501504025 267.32030792206757 232.30710876419423 270.0817316712215 232.30710876419423 C 272.84315542037547 232.30710876419423 275.0817316712215 234.54568501504025 275.0817316712215 237.30710876419423 Z" stroke-opacity="1" stroke-linecap="round" stroke-linejoin="round" stroke-miterlimit="10"/><text fill="rgb(110,109,115)" stroke="none" font-family="geogebra-sans-serif, sans-serif" font-size="16px" font-style="normal" font-weight="normal" text-decoration="normal" x="272" y="260" text-anchor="start" dominant-baseline="alphabetic" fill-opacity="1">Q</text><path fill="rgb(110,109,115)" stroke="none" paint-order="stroke fill markers" d=" M 194.0072518518843 249.3961340152251 C 194.0072518518843 252.15755776437908 191.76867560103827 254.3961340152251 189.0072518518843 254.3961340152251 C 186.24582810273031 254.3961340152251 184.0072518518843 252.15755776437908 184.0072518518843 249.3961340152251 C 184.0072518518843 246.63471026607112 186.24582810273031 244.3961340152251 189.0072518518843 244.3961340152251 C 191.76867560103827 244.3961340152251 194.0072518518843 246.63471026607112 194.0072518518843 249.3961340152251 Z" fill-opacity="1"/><path fill="none" stroke="rgb(0,0,0)" paint-order="fill stroke markers" d=" M 194.0072518518843 249.3961340152251 C 194.0072518518843 252.15755776437908 191.76867560103827 254.3961340152251 189.0072518518843 254.3961340152251 C 186.24582810273031 254.3961340152251 184.0072518518843 252.15755776437908 184.0072518518843 249.3961340152251 C 184.0072518518843 246.63471026607112 186.24582810273031 244.3961340152251 189.0072518518843 244.3961340152251 C 191.76867560103827 244.3961340152251 194.0072518518843 246.63471026607112 194.0072518518843 249.3961340152251 Z" stroke-opacity="1" stroke-linecap="round" stroke-linejoin="round" stroke-miterlimit="10"/><text fill="rgb(110,109,115)" stroke="none" font-family="geogebra-sans-serif, sans-serif" font-size="16px" font-style="normal" font-weight="normal" text-decoration="normal" x="179" y="274" text-anchor="start" dominant-baseline="alphabetic" fill-opacity="1">A</text><path fill="rgb(110,109,115)" stroke="none" paint-order="stroke fill markers" d=" M 248.73254254179744 241.23603946396074 C 248.73254254179744 243.9974632131147 246.49396629095142 246.23603946396074 243.73254254179744 246.23603946396074 C 240.97111879264347 246.23603946396074 238.73254254179744 243.9974632131147 238.73254254179744 241.23603946396074 C 238.73254254179744 238.47461571480676 240.97111879264347 236.23603946396074 243.73254254179744 236.23603946396074 C 246.49396629095142 236.23603946396074 248.73254254179744 238.47461571480676 248.73254254179744 241.23603946396074 Z" fill-opacity="1"/><path fill="none" stroke="rgb(0,0,0)" paint-order="fill stroke markers" d=" M 248.73254254179744 241.23603946396074 C 248.73254254179744 243.9974632131147 246.49396629095142 246.23603946396074 243.73254254179744 246.23603946396074 C 240.97111879264347 246.23603946396074 238.73254254179744 243.9974632131147 238.73254254179744 241.23603946396074 C 238.73254254179744 238.47461571480676 240.97111879264347 236.23603946396074 243.73254254179744 236.23603946396074 C 246.49396629095142 236.23603946396074 248.73254254179744 238.47461571480676 248.73254254179744 241.23603946396074 Z" stroke-opacity="1" stroke-linecap="round" stroke-linejoin="round" stroke-miterlimit="10"/><text fill="rgb(110,109,115)" stroke="none" font-family="geogebra-sans-serif, sans-serif" font-size="16px" font-style="normal" font-weight="normal" text-decoration="normal" x="237" y="264" text-anchor="start" dominant-baseline="alphabetic" fill-opacity="1">B</text><path fill="rgb(110,109,115)" stroke="none" paint-order="stroke fill markers" d=" M 516.6976174616184 201.279735528139 C 516.6976174616184 204.041159277293 514.4590412107724 206.279735528139 511.6976174616184 206.279735528139 C 508.93619371246444 206.279735528139 506.6976174616184 204.041159277293 506.6976174616184 201.279735528139 C 506.6976174616184 198.51831177898504 508.93619371246444 196.279735528139 511.6976174616184 196.279735528139 C 514.4590412107724 196.279735528139 516.6976174616184 198.51831177898504 516.6976174616184 201.279735528139 Z" fill-opacity="1"/><path fill="none" stroke="rgb(0,0,0)" paint-order="fill stroke markers" d=" M 516.6976174616184 201.279735528139 C 516.6976174616184 204.041159277293 514.4590412107724 206.279735528139 511.6976174616184 206.279735528139 C 508.93619371246444 206.279735528139 506.6976174616184 204.041159277293 506.6976174616184 201.279735528139 C 506.6976174616184 198.51831177898504 508.93619371246444 196.279735528139 511.6976174616184 196.279735528139 C 514.4590412107724 196.279735528139 516.6976174616184 198.51831177898504 516.6976174616184 201.279735528139 Z" stroke-opacity="1" stroke-linecap="round" stroke-linejoin="round" stroke-miterlimit="10"/><text fill="rgb(110,109,115)" stroke="none" font-family="geogebra-sans-serif, sans-serif" font-size="16px" font-style="normal" font-weight="normal" text-decoration="normal" x="510" y="224" text-anchor="start" dominant-baseline="alphabetic" fill-opacity="1">C</text><path fill="rgb(110,109,115)" stroke="none" paint-order="stroke fill markers" d=" M 111.19285525791955 261.74459846179604 C 111.19285525791955 264.50602221095 108.95427900707351 266.74459846179604 106.19285525791955 266.74459846179604 C 103.43143150876558 266.74459846179604 101.19285525791955 264.50602221095 101.19285525791955 261.74459846179604 C 101.19285525791955 258.9831747126421 103.43143150876558 256.74459846179604 106.19285525791955 256.74459846179604 C 108.95427900707351 256.74459846179604 111.19285525791955 258.9831747126421 111.19285525791955 261.74459846179604 Z" fill-opacity="1"/><path fill="none" stroke="rgb(0,0,0)" paint-order="fill stroke markers" d=" M 111.19285525791955 261.74459846179604 C 111.19285525791955 264.50602221095 108.95427900707351 266.74459846179604 106.19285525791955 266.74459846179604 C 103.43143150876558 266.74459846179604 101.19285525791955 264.50602221095 101.19285525791955 261.74459846179604 C 101.19285525791955 258.9831747126421 103.43143150876558 256.74459846179604 106.19285525791955 256.74459846179604 C 108.95427900707351 256.74459846179604 111.19285525791955 258.9831747126421 111.19285525791955 261.74459846179604 Z" stroke-opacity="1" stroke-linecap="round" stroke-linejoin="round" stroke-miterlimit="10"/><text fill="rgb(110,109,115)" stroke="none" font-family="geogebra-sans-serif, sans-serif" font-size="16px" font-style="normal" font-weight="normal" text-decoration="normal" x="105" y="282" text-anchor="start" dominant-baseline="alphabetic" fill-opacity="1">D</text></g></g></svg>