<svg version="1.1" xmlns="http://www.w3.org/2000/svg" xmlns:xlink="http://www.w3.org/1999/xlink" width="534" height="340"><defs><clipPath id="IVgQHZEnszCe"><path fill="none" stroke="none" d=" M 0 0 L 534 0 L 534 340 L 0 340 L 0 0 Z"/></clipPath></defs><g transform="scale(1,1)" clip-path="url(#IVgQHZEnszCe)"><g><rect fill="transparent" stroke="none" x="0" y="0" width="534" height="340" fill-opacity="1"/><path fill="none" stroke="rgb(21,101,192)" paint-order="fill stroke markers" d=" M 339.25573355274173 170.30156246134084 C 339.25573355274173 237.65489142891533 284.6550723219449 292.2555526597121 217.3017433543703 292.2555526597121 C 149.94841438679572 292.2555526597121 95.34775315599889 237.65489142891533 95.34775315599889 170.30156246134084 C 95.34775315599889 102.94823349376631 149.94841438679572 48.347572262969535 217.3017433543703 48.347572262969535 C 284.6550723219449 48.347572262969535 339.25573355274173 102.94823349376631 339.25573355274173 170.30156246134084 Z" stroke-opacity="0.8" stroke-linecap="round" stroke-linejoin="round" stroke-miterlimit="10" stroke-width="2.5"/><path fill="none" stroke="rgb(46,125,50)" paint-order="fill stroke markers" d=" M 0.9999999999999716 144.75531366299808 L 0.9999999999999716 145.73397564069043 L 0.9999999999999716 145.73397564069043 L 1.9999999999999716 146.71428945860558 L 1.9999999999999716 146.71428945860558 L 3 147.69618920380677 L 3 147.69618920380677 L 3.9999999999999716 148.67960885672488 L 3.9999999999999716 148.67960885672488 L 5 149.66448229559768 L 5 149.66448229559768 L 5.999999999999972 150.6507433009151 L 5.999999999999972 150.6507433009151 L 6.999999999999972 151.63832555987184 L 6.999999999999972 151.63832555987182 L 8 152.62716267082638 L 8 152.62716267082638 L 8.999999999999972 153.61718814776495 L 8.999999999999972 153.61718814776495 L 10 154.60833542477215 L 10 154.60833542477215 L 10.999999999999972 155.6005378605066 L 10.999999999999972 155.6005378605066 L 11.999999999999972 156.59372874268195 L 11.999999999999972 156.59372874268195 L 13 157.58784129255173 L 13 157.58784129255173 L 13.999999999999972 158.58280866939972 L 13.999999999999972 158.58280866939972 L 15 159.5785639750345 L 15 159.5785639750345 L 16 160.57504025828652 L 16 160.57504025828652 L 16.99999999999997 161.5721705195103 L 16.99999999999997 161.5721705195103 L 18 162.56988771508938 L 18 162.56988771508938 L 18.99999999999997 163.56812476194358 L 18.99999999999997 163.56812476194358 L 20 164.56681454203977 L 20 164.56681454203977 L 21 165.5658899069045 L 21 165.5658899069045 L 21.99999999999997 166.56528368213924 L 21.99999999999997 166.56528368213924 L 23 167.5649286719363 L 23 167.5649286719363 L 23.99999999999997 168.56475766359722 L 23.99999999999997 168.56475766359722 L 24.99999999999997 169.56470343205223 L 24.99999999999997 169.56470343205223 L 26 170.56469874437943 L 26 170.56469874437943 L 27 171.5646763643261 L 27 171.5646763643261 L 27.99999999999997 172.56456905682876 L 27.99999999999997 172.56456905682876 L 28.99999999999997 173.56430959253458 L 28.99999999999997 173.56430959253458 L 30 174.56383075232088 L 30 174.56383075232088 L 31 175.56306533181532 L 31 175.56306533181532 L 32 176.56194614591402 L 32 176.56194614591402 L 32.99999999999997 177.56040603329922 L 32.99999999999997 177.56040603329922 L 33.99999999999997 178.55837786095464 L 33.99999999999997 178.5583778609546 L 35 179.55579452867977 L 35 179.55579452867974 L 36 180.55258897360085 L 36 180.55258897360085 L 37 181.54869417468035 L 37 181.54869417468032 L 37.99999999999997 182.54404315722326 L 37.99999999999997 182.54404315722326 L 38.99999999999997 183.53856899737997 L 38.99999999999997 183.53856899737997 L 40 184.5322048266461 L 40 184.5322048266461 L 41 185.52488383635858 L 41 185.52488383635858 L 41.99999999999997 186.51653928218778 L 41.99999999999997 186.51653928218778 L 42.99999999999997 187.5071044886247 L 42.99999999999997 187.5071044886247 L 44 188.49651285346454 L 44 188.49651285346454 L 45 189.4846978522845 L 45 189.48469785228448 L 46 190.4715930429166 L 46 190.4715930429166 L 46.99999999999997 191.45713206991508 L 46.99999999999997 191.45713206991508 L 47.99999999999997 192.44124866901836 L 47.99999999999997 192.44124866901836 L 49 193.42387667160367 L 49 193.42387667160364 L 50 194.40495000913631 L 50 194.40495000913631 L 51 195.38440271761232 L 51 195.38440271761232 L 51.99999999999997 196.3621689419929 L 51.99999999999997 196.3621689419929 L 52.99999999999997 197.3381829406328 L 52.99999999999997 197.3381829406328 L 54 198.3123790897003 L 54 198.3123790897003 L 55 199.28469188758993 L 55 199.28469188758993 L 56 200.255055959326 L 56 200.255055959326 L 56.99999999999997 201.22340606095847 L 56.99999999999997 201.22340606095847 L 58 202.18967708395007 L 58 202.18967708395007 L 59 203.15380405955335 L 59 203.15380405955332 L 60 204.11572216317924 L 60 204.11572216317924 L 60.99999999999997 205.0753667187557 L 60.99999999999997 205.0753667187557 L 61.99999999999997 206.03267320307643 L 61.99999999999997 206.03267320307643 L 63 206.9875772501387 L 63 206.9875772501387 L 64 207.94001465547177 L 64 207.94001465547177 L 65 208.8899213804531 L 65 208.88992138045307 L 65.99999999999997 209.8372335566146 L 65.99999999999997 209.8372335566146 L 66.99999999999997 210.78188748993657 L 66.99999999999997 210.78188748993657 L 68 211.72381966513075 L 68 211.72381966513075 L 69 212.66296674991025 L 69 212.66296674991025 L 70 213.5992655992481 L 70 213.5992655992481 L 70.99999999999997 214.53265325962326 L 70.99999999999997 214.53265325962326 L 72 215.46306697325264 L 72 215.46306697325264 L 73 216.39044418231134 L 73 216.3904441823113 L 74 217.3147225331384 L 74 217.31472253313837 L 74.99999999999997 218.2358398804298 L 74.99999999999997 218.2358398804298 L 75.99999999999997 219.15373429141619 L 75.99999999999997 219.15373429141619 L 77 220.06834405002775 L 77 220.06834405002775 L 78 220.9796076610431 L 78 220.97960766104308 L 79 221.88746385422445 L 79 221.88746385422445 L 79.99999999999997 222.79185158843705 L 79.99999999999997 222.791851588437 L 80.99999999999997 223.6927100557536 L 80.99999999999997 223.6927100557536 L 82 224.58997868554243 L 82 224.58997868554243 L 83 225.48359714854018 L 83 225.48359714854016 L 84 226.37350536090838 L 84 226.37350536090838 L 84.99999999999997 227.25964348827299 L 84.99999999999997 227.25964348827296 L 86 228.1419519497474 L 86 228.14195194974738 L 87 229.02037142193868 L 87 229.02037142193865 L 88 229.89484284293638 L 88 229.89484284293638 L 89 230.7653074162833 L 89 230.76530741628326 L 89.99999999999999 231.6317066149287 L 89.99999999999999 231.63170661492867 L 90.99999999999999 232.4939821851642 L 90.99999999999999 232.49398218516419 L 92 233.35207615053966 L 92 233.35207615053963 L 93 234.20593081576175 L 93 234.20593081576172 L 93.99999999999999 235.05548877057308 L 93.99999999999999 235.05548877057305 L 94.99999999999999 235.90069289361267 L 94.99999999999999 235.90069289361264 L 95.99999999999999 236.7414863562558 L 95.99999999999999 236.74148635625573 L 97 237.5778126264357 L 97 237.57781262643567 L 98 238.40961547244424 L 98 238.40961547244422 L 98.99999999999999 239.23683896671272 L 98.99999999999999 239.2368389667127 L 99.99999999999999 240.05942748957227 L 99.99999999999999 240.05942748957227 L 101 240.87732573299397 L 101 240.87732573299394 L 102 241.69047870430674 L 102 241.6904787043067 L 103 242.49883172989547 L 103 242.49883172989544 L 103.99999999999999 243.30233045887712 L 103.99999999999999 243.30233045887712 L 104.99999999999999 244.10092086675465 L 104.99999999999999 244.10092086675462 L 106 244.89454925904977 L 106 244.89454925904974 L 107 245.683162274913 L 107 245.68316227491297 L 108.00000000000001 246.4667068907118 L 108.00000000000001 246.46670689071175 L 108.99999999999999 247.24513042359513 L 108.99999999999999 247.24513042359513 L 109.99999999999999 248.01838053503636 L 109.99999999999999 248.01838053503633 L 111 248.78640523435166 L 111 248.78640523435163 L 112 249.5491528821961 L 112 249.54915288219607 L 112.99999999999999 250.30657219403543 L 112.99999999999999 250.3065721940354 L 113.99999999999999 251.05861224359478 L 113.99999999999999 251.05861224359475 L 115 251.80522246628206 L 115 251.80522246628203 L 116 252.5463526625882 L 116 252.54635266258816 L 117 253.28195300146245 L 117 253.28195300146243 L 117.99999999999999 254.01197402366256 L 117.99999999999999 254.01197402366253 L 118.99999999999999 254.73636664508035 L 118.99999999999999 254.7363666450803 L 120 255.45508216004197 L 120 255.45508216004194 L 121 256.16807224458296 L 121 256.16807224458296 L 122.00000000000001 256.87528895969695 L 122.00000000000001 256.87528895969695 L 122.99999999999999 257.57668475455904 L 122.99999999999999 257.576684754559 L 123.99999999999999 258.2722124697233 L 123.99999999999999 258.2722124697233 L 125 258.96182534029316 L 125 258.96182534029316 L 126 259.64547699906586 L 126 259.64547699906586 L 127.00000000000001 260.3231214796501 L 127.00000000000001 260.3231214796501 L 127.99999999999999 260.99471321955684 L 127.99999999999999 260.99471321955684 L 129 261.6602070632622 L 129 261.66020706326213 L 130 262.31955826524415 L 130 262.31955826524415 L 131 262.9727224929908 L 131 262.9727224929907 L 132 263.61965582998096 L 132 263.6196558299809 L 133 264.26031477863734 L 133 264.2603147786373 L 134 264.894656263251 L 134 264.894656263251 L 135 265.5226376328776 L 135 265.5226376328776 L 136 266.1442166642049 L 136 266.1442166642049 L 137 266.7593515643923 L 137 266.75935156439226 L 138 267.36800097388004 L 138 267.36800097388004 L 139 267.9701239691708 L 139 267.9701239691708 L 140 268.5656800655807 L 140 268.5656800655807 L 141 269.1546292199619 L 141 269.15462921996186 L 142 269.7369318333944 L 142 269.73693183339435 L 143 270.312548753849 L 143 270.312548753849 L 144 270.88144127881947 L 144 270.8814412788194 L 145 271.44357115792474 L 145 271.44357115792474 L 146 271.998900595481 L 146 271.99890059548096 L 147 272.5473922530428 L 147 272.5473922530428 L 148 273.08900925191347 L 148 273.08900925191347 L 149 273.62371517562474 L 149 273.6237151756247 L 150 274.15147407238544 L 150 274.15147407238544 L 151 274.67225045749865 L 151 274.67225045749865 L 152 275.18600931574747 L 152 275.18600931574747 L 153 275.69271610374943 L 153 275.69271610374943 L 154 276.19233675227923 L 154 276.1923367522792 L 155 276.68483766855906 L 155 276.684837668559 L 156 277.1701857385175 L 156 277.17018573851743 L 157 277.6483483290161 L 157 277.6483483290161 L 158 278.1192932900433 L 158 278.1192932900433 L 159 278.5829889568762 L 159 278.5829889568762 L 160 279.0394041522095 L 160 279.0394041522095 L 161 279.48850818825196 L 161 279.4885081882519 L 162 279.93027086878936 L 162 279.9302708687893 L 163 280.3646624912153 L 163 280.3646624912153 L 164 280.7916538485279 L 164 280.79165384852786 L 165 281.21121623129363 L 165 281.21121623129363 L 166 281.62332142957786 L 166 281.62332142957786 L 167 282.02794173484136 L 167 282.02794173484136 L 168 282.4250499418035 L 168 282.4250499418035 L 169 282.8146193502712 L 169 282.8146193502712 L 170 283.1966237669345 L 170 283.1966237669345 L 171 283.57103750712747 L 171 283.57103750712747 L 172 283.93783539655516 L 172 283.93783539655516 L 173 284.2969927729863 L 173 284.29699277298624 L 174 284.6484854879115 L 174 284.6484854879115 L 175 284.99228990816704 L 175 284.992289908167 L 176 285.3283829175234 L 176 285.3283829175234 L 177 285.65674191824036 L 177 285.65674191824036 L 178 285.97734483258546 L 178 285.97734483258546 L 179 286.29017010431903 L 179 286.29017010431903 L 180 286.5951967001435 L 180 286.5951967001435 L 181 286.8924041111174 L 181 286.89240411111734 L 182 287.1817723540343 L 182 287.18177235403425 L 183 287.46328197276677 L 183 287.4632819727667 L 184 287.7369140395741 L 184 287.73691403957406 L 185 288.00265015637524 L 185 288.00265015637524 L 186 288.26047245598573 L 186 288.2604724559857 L 187 288.5103636033189 L 187 288.5103636033189 L 188 288.75230679655175 L 188 288.7523067965517 L 189 288.98628576825416 L 189 288.9862857682541 L 190 289.21228478648317 L 190 289.21228478648317 L 191 289.4302886558404 L 191 289.4302886558404 L 192 289.6402827184939 L 192 289.64028271849384 L 193 289.84225285516345 L 193 289.84225285516345 L 194 290.03618548607034 L 194 290.03618548607034 L 195 290.22206757185 L 195 290.22206757185 L 196 290.39988661442897 L 196 290.3998866144289 L 197 290.569630657865 L 197 290.56963065786493 L 198 290.7312882891512 L 198 290.73128828915117 L 199 290.88484863898327 L 199 290.88484863898327 L 200 291.03030138249034 L 200 291.0303013824903 L 201 291.16763673992904 L 201 291.167636739929 L 202 291.29684547734126 L 202 291.29684547734126 L 203 291.4179189071751 L 203 291.417918907175 L 204 291.53084888886843 L 204 291.5308488888684 L 205 291.635627829397 L 205 291.6356278293969 L 206 291.73224868378435 L 206 291.73224868378435 L 207 291.82070495557593 L 207 291.82070495557593 L 208 291.9009906972756 L 208 291.9009906972755 L 209 291.9731005107455 L 209 291.9731005107455 L 210 292.0370295475694 L 210 292.0370295475694 L 211 292.09277350937816 L 211 292.09277350937816 L 212 292.14032864813913 L 212 292.14032864813913 L 213 292.17969176640804 L 213 292.17969176640804 L 214 292.2108602175439 L 214 292.2108602175438 L 215 292.2338319058869 L 215 292.2338319058869 L 216 292.2486052868997 L 216 292.2486052868997 L 217 292.25517936727084 L 217 292.25355370498164 L 218 292.2555526597121 L 218 292.25355370498164 L 219 292.2437284093361 L 219 292.2437284093361 L 220 292.2257041409534 L 220 292.2257041409534 L 221 292.19948211172346 L 221 292.19948211172346 L 222 292.1650640847255 L 222 292.16506408472554 L 223 292.1224523741096 L 223 292.1224523741097 L 224 292.07164984494096 L 224 292.07164984494096 L 225 292.0126599130072 L 225 292.0126599130072 L 226 291.94548654458896 L 226 291.94548654458896 L 227 291.87013425619296 L 227 291.87013425619296 L 228 291.78660811424845 L 228 291.78660811424845 L 229 291.6949137347666 L 229 291.6949137347666 L 230 291.5950572829628 L 230 291.5950572829628 L 231 291.48704547284206 L 231 291.4870454728421 L 232 291.370885566748 L 232 291.370885566748 L 233 291.2465853748738 L 233 291.24658537487386 L 234 291.11415325473797 L 234 291.114153254738 L 235 290.9735981106217 L 235 290.9735981106217 L 236 290.8249293929705 L 236 290.8249293929705 L 237 290.66815709775864 L 237 290.6681570977587 L 238 290.5032917658173 L 238 290.5032917658174 L 239 290.33034448212567 L 239 290.33034448212567 L 240 290.1493268750654 L 240 290.1493268750654 L 241 289.9602511156392 L 241 289.9602511156392 L 242 289.76312991665225 L 242 289.76312991665225 L 243 289.5579765318574 L 243 289.55797653185743 L 244 289.3448047550643 L 244 289.3448047550643 L 245 289.1236289192114 L 245 289.12362891921146 L 246 288.894463895403 L 246 288.8944638954031 L 247 288.65732509190883 L 247 288.6573250919089 L 248 288.41222845312814 L 248 288.41222845312814 L 249 288.15919045851774 L 249 288.15919045851774 L 250 287.89822812148395 L 250 287.898228121484 L 251 287.6293589882388 L 251 287.6293589882388 L 252 287.3526011366199 L 252 287.35260113661997 L 253 287.06797317487553 L 253 287.06797317487553 L 254 286.7754942404129 L 254 286.77549424041297 L 255 286.47518399851185 L 255 286.4751839985119 L 256 286.16706264100236 L 256 286.1670626410024 L 257 285.85115088490704 L 257 285.8511508849071 L 258 285.5274699710482 L 258 285.5274699710482 L 259 285.1960416626196 L 259 285.1960416626196 L 260 284.8568882437233 L 260 284.8568882437233 L 261 284.51003251787114 L 261 284.51003251787114 L 262 284.15549780645176 L 262 284.1554978064518 L 263 283.7933079471625 L 263 283.7933079471625 L 264 283.42348729240626 L 264 283.4234872924063 L 265 283.0460607076549 L 265 283.04606070765493 L 266 282.6610535697765 L 266 282.6610535697765 L 267 282.26849176532977 L 267 282.26849176532977 L 268 281.8684016888231 L 268 281.86840168882316 L 269 281.46081024094025 L 269 281.46081024094025 L 270 281.0457448267312 L 270 281.0457448267312 L 271 280.62323335377005 L 271 280.62323335377005 L 272 280.19330423027804 L 272 280.1933042302781 L 273 279.7559863632141 L 273 279.75598636321416 L 274 279.31130915633065 L 274 279.3113091563307 L 275 278.859302508197 L 275 278.85930250819706 L 276 278.3999968101889 L 276 278.39999681018895 L 277 277.93342294444517 L 277 277.93342294444517 L 278 277.45961228179124 L 278 277.45961228179124 L 279 276.97859667962996 L 279 276.97859667963 L 280 276.49040847979967 L 280 276.49040847979967 L 281 275.99508050639935 L 281 275.9950805063994 L 282 275.49264606358213 L 282 275.4926460635822 L 283 274.9831389333155 L 283 274.98313893331556 L 284 274.46659337311036 L 284 274.4665933731104 L 285 273.9430441137174 L 285 273.9430441137174 L 286 273.41252635679194 L 286 273.412526356792 L 287 272.87507577252734 L 287 272.8750757725274 L 288 272.33072849725636 L 288 272.33072849725636 L 289 271.7795211310215 L 289 271.77952113102157 L 290 271.2214907351145 L 290 271.2214907351145 L 291 270.65667482958395 L 291 270.65667482958395 L 292 270.0851113907129 L 292 270.08511139071294 L 293 269.50683884846546 L 293 269.50683884846546 L 294 268.92189608390265 L 294 268.9218960839027 L 295 268.3303224265686 L 295 268.3303224265686 L 296 267.7321576518456 L 296 267.7321576518457 L 297 267.12744197828044 L 297 267.12744197828044 L 298 266.5162160648795 L 298 266.5162160648795 L 299 265.89852100837544 L 299 265.8985210083755 L 300 265.2743983404641 L 300 265.2743983404641 L 301 264.64389002501156 L 301 264.6438900250116 L 302 264.0070384552332 L 302 264.0070384552332 L 303 263.3638864508428 L 303 263.36388645084287 L 304 262.714477255174 L 304 262.714477255174 L 305 262.0588545322722 L 305 262.0588545322723 L 306 261.3970623639594 L 306 261.39706236395944 L 307 260.7291452468696 L 307 260.7291452468696 L 308 260.0551480894576 L 308 260.0551480894576 L 309 259.37511620897897 L 309 259.375116208979 L 310 258.68909532844367 L 310 258.68909532844367 L 311 257.9971315735412 L 311 257.99713157354125 L 312 257.29927146953975 L 312 257.29927146953975 L 313 256.5955619381576 L 313 256.59556193815763 L 314 255.8860502944085 L 314 255.88605029440853 L 315 255.17078424342048 L 315 255.1707842434205 L 316 254.44981187722794 L 316 254.44981187722797 L 317 253.7231816715385 L 317 253.7231816715385 L 318 252.99094248247337 L 318 252.9909424824734 L 319 252.25314354328262 L 319 252.25314354328265 L 320 251.5098344610348 L 320 251.50983446103484 L 321 250.76106521328165 L 321 250.76106521328168 L 322 250.00688614469757 L 322 250.0068861446976 L 323 249.24734796369486 L 323 249.2473479636949 L 324 248.4825017390141 L 324 248.48250173901414 L 325 247.7123988962905 L 325 247.71239889629052 L 326 246.93709121459625 L 326 246.93709121459628 L 327 246.15663082295902 L 327 246.15663082295904 L 328 245.37107019685703 L 328 245.3710701968571 L 329 244.5804621546908 L 329 244.58046215469085 L 330 243.78485985423174 L 330 243.78485985423174 L 331 242.98431678904797 L 331 242.98431678904802 L 332 242.1788867849079 L 332 242.1788867849079 L 333 241.3686239961607 L 333 241.3686239961607 L 334 240.55358290209548 L 334 240.5535829020955 L 335 239.7338183032783 L 335 239.73381830327833 L 336 238.9093853178673 L 336 238.90938531786733 L 337 238.08033937790705 L 337 238.08033937790708 L 338 237.24673622560127 L 338 237.2467362256013 L 339 236.408631909565 L 339 236.40863190956503 L 340 235.5660827810562 L 340 235.5660827810562 L 341.00000000000006 234.71914549018652 L 341.00000000000006 234.71914549018655 L 342 233.86787698211288 L 342 233.86787698211293 L 343 233.0123344932082 L 343 233.01233449320821 L 344 232.1525755472132 L 344 232.15257554721322 L 345 231.2886579513688 L 345 231.28865795136883 L 346 230.42063979252916 L 346 230.42063979252916 L 347 229.54857943325632 L 347 229.54857943325635 L 348 228.67253550789593 L 348 228.67253550789593 L 349 227.79256691863498 L 349 227.79256691863498 L 350 226.9087328315414 L 350 226.90873283154144 L 351 226.0210926725859 L 351 226.0210926725859 L 352 225.12970612364649 L 352 225.12970612364649 L 353 224.23463311849542 L 353 224.23463311849542 L 354 223.33593383876973 L 354 223.33593383876973 L 355 222.43366870992472 L 355 222.43366870992475 L 356 221.52789839717104 L 356 221.52789839717107 L 357 220.61868380139603 L 357 220.61868380139606 L 358 219.70608605506868 L 358 219.70608605506868 L 359 218.7901665181294 L 359 218.7901665181294 L 360 217.8709867738646 L 360 217.87098677386462 L 361 216.9486086247655 L 361 216.94860862476554 L 362 216.0230940883734 L 362 216.0230940883734 L 363 215.0945053931094 L 363 215.0945053931094 L 364 214.16290497409037 L 364 214.1629049740904 L 365 213.2283554689314 L 365 213.22835546893145 L 366 212.2909197135338 L 366 212.29091971353384 L 367 211.35066073786058 L 367 211.3506607378606 L 368 210.40764176169827 L 368 210.40764176169827 L 369 209.46192619040642 L 369 209.46192619040642 L 370 208.5135776106544 L 370 208.5135776106544 L 371 207.562659786146 L 371 207.562659786146 L 372 206.6092366533323 L 372 206.6092366533323 L 373 205.6533723171125 L 373 205.6533723171125 L 374 204.69513104652412 L 374 204.69513104652418 L 375 203.7345772704217 L 375 203.7345772704217 L 376 202.77177557314434 L 376 202.77177557314434 L 377 201.80679069017395 L 377 201.80679069017398 L 378 200.83968750378233 L 378 200.83968750378233 L 379 199.87053103866856 L 379 199.87053103866856 L 380 198.89938645758733 L 380 198.89938645758735 L 381 197.9263190569673 L 381 197.9263190569673 L 382 196.95139426252092 L 382 196.95139426252092 L 383 195.97467762484555 L 383 195.97467762484555 L 384 194.99623481501575 L 384 194.99623481501575 L 385 194.01613162016815 L 385 194.01613162016818 L 386 193.03443393907787 L 386 193.03443393907787 L 387 192.05120777772783 L 387 192.05120777772783 L 388 191.06651924487073 L 388 191.06651924487076 L 389 190.0804345475841 L 389 190.0804345475841 L 390 189.09301998681877 L 390 189.09301998681877 L 391 188.104341952941 L 391 188.104341952941 L 392 187.11446692126876 L 392 187.1144669212688 L 393 186.12346144760193 L 393 186.12346144760193 L 394 185.13139216374742 L 394 185.13139216374745 L 395 184.13832577303918 L 395 184.13832577303918 L 396 183.14432904585317 L 396 183.14432904585317 L 397 182.14946881511787 L 397 182.1494688151179 L 398 181.15381197182103 L 398 181.15381197182103 L 399 180.15742546051155 L 399 180.15742546051155 L 400 179.16037627479903 L 400 179.16037627479903 L 401 178.1627314528488 L 401 178.1627314528488 L 402 177.1645580728748 L 402 177.1645580728748 L 403 176.1659232486295 L 403 176.1659232486295 L 404 175.1668941248911 L 404 175.1668941248911 L 405 174.1675378729493 L 405 174.1675378729493 L 406 173.1679216860887 L 406 173.1679216860887 L 407 172.1681127750711 L 407 172.1681127750711 L 408 171.16817836361633 L 408 171.16817836361633 L 409 170.16818568388248 L 409 170.16818568388248 L 410 169.1682019719454 L 410 169.1682019719454 L 411 168.16829446327796 L 411 168.16829446327796 L 412 167.16853038822944 L 412 167.16853038822944 L 413 166.16897696750505 L 413 166.16897696750505 L 414 165.16970140764636 L 414 165.16970140764636 L 415 164.17077089651258 L 415 164.17077089651258 L 416 163.17225259876295 L 416 163.17225259876295 L 417 162.17421365134095 L 417 162.17421365134095 L 418 161.17672115896016 L 418 161.17672115896016 L 419 160.1798421895924 L 419 160.1798421895924 L 420 159.18364376995834 L 420 159.18364376995834 L 421 158.18819288102077 L 421 158.18819288102077 L 422 157.1935564534812 L 422 157.1935564534812 L 423 156.1998013632793 L 423 156.1998013632793 L 424 155.20699442709693 L 424 155.20699442709693 L 425 154.21520239786517 L 425 154.21520239786517 L 426 153.22449196027628 L 426 153.22449196027628 L 427 152.23492972629992 L 427 152.23492972629995 L 428 151.2465822307047 L 428 151.24658223070472 L 429 150.25951592658413 L 429 150.25951592658413 L 430 149.27379718088898 L 430 149.27379718088898 L 431 148.28949226996477 L 431 148.28949226996477 L 432 147.30666737509554 L 432 147.30666737509557 L 433 146.3253885780543 L 433 146.3253885780543 L 434 145.34572185665957 L 434 145.34572185665957 L 435 144.36773308033952 L 435 144.36773308033952 L 436 143.39148800570314 L 436 143.39148800570314 L 437 142.4170522721187 L 437 142.4170522721187 L 438 141.44449139730074 L 438 141.44449139730074 L 439 140.4738707729047 L 439 140.4738707729047 L 440.00000000000006 139.5052556601302 L 440.00000000000006 139.5052556601302 L 441 138.5387111853332 L 441 138.5387111853332 L 442 137.57430233564702 L 442 137.57430233564702 L 443 136.61209395461287 L 443 136.6120939546129 L 444 135.6521507378201 L 444 135.6521507378201 L 445 134.6945372285561 L 445 134.6945372285561 L 446 133.73931781346667 L 446 133.73931781346667 L 447 132.78655671822705 L 447 132.78655671822708 L 448 131.83631800322343 L 448 131.83631800322343 L 449 130.88866555924582 L 449 130.88866555924585 L 450 129.94366310319228 L 450 129.94366310319228 L 451 129.0013741737847 L 451 129.0013741737847 L 452 128.0618621272968 L 452 128.0618621272968 L 453 127.12519013329421 L 453 127.12519013329424 L 454.00000000000006 126.1914211703872 L 454.00000000000006 126.1914211703872 L 455 125.26061802199615 L 455 125.26061802199618 L 456 124.33284327213033 L 456 124.33284327213033 L 457 123.40815930117975 L 457 123.40815930117975 L 458 122.48662828172115 L 458 122.48662828172118 L 459.00000000000006 121.56831217433768 L 459.00000000000006 121.5683121743377 L 460 120.65327272345272 L 460 120.65327272345272 L 461 119.74157145317858 L 461 119.74157145317861 L 462.00000000000006 118.83326966317969 L 462.00000000000006 118.83326966317969 L 463 117.92842842455127 L 463 117.9284284245513 L 464 117.02710857571279 L 464 117.02710857571279 L 465.00000000000006 116.12937071831746 L 465.00000000000006 116.12937071831746 L 466 115.23527521317794 L 466 115.23527521317797 L 467 114.34488217620748 L 467 114.3448821762075 L 468.00000000000006 113.45825147437802 L 468.00000000000006 113.45825147437805 L 469 112.57544272169517 L 469 112.57544272169517 L 470 111.6965152751896 L 470 111.6965152751896 L 471 110.82152823092636 L 471 110.82152823092636 L 472.00000000000006 109.95054042003139 L 472.00000000000006 109.95054042003142 L 473.00000000000006 109.08361040473599 L 473.00000000000006 109.08361040473602 L 474 108.22079647443906 L 474 108.22079647443908 L 475 107.36215664178806 L 475 107.36215664178806 L 476 106.50774863877862 L 476 106.50774863877865 L 477 105.65762991287252 L 477 105.65762991287255 L 478 104.81185762313524 L 478 104.8118576231353 L 479 103.97048863639304 L 479 103.97048863639307 L 480 103.13357952340894 L 480 103.13357952340894 L 481 102.30118655507937 L 481 102.30118655507943 L 482.0000000000001 101.47336569865092 L 482.0000000000001 101.47336569865095 L 483 100.65017261395695 L 483 100.65017261395698 L 484 99.83166264967517 L 484 99.8316626496752 L 485.0000000000001 99.01789083960654 L 485.0000000000001 99.01789083960654 L 486 98.20891189897475 L 486 98.20891189897478 L 487 97.4047802207474 L 487 97.4047802207474 L 488 96.60554987197867 L 488 96.60554987197872 L 489 95.81127459017443 L 489 95.81127459017446 L 490 95.02200777967863 L 490 95.02200777967869 L 491 94.23780250808286 L 491 94.2378025080829 L 492.0000000000001 93.45871150265819 L 492.0000000000001 93.45871150265825 L 493 92.68478714681021 L 493 92.68478714681024 L 494 91.91608147655626 L 494 91.91608147655629 L 495.0000000000001 91.15264617702755 L 495.0000000000001 91.15264617702755 L 496 90.39453257899356 L 496 90.39453257899359 L 497 89.6417916554108 L 497 89.64179165541083 L 498 88.89447401799555 L 498 88.89447401799558 L 499 88.15262991382104 L 499 88.15262991382107 L 500 87.4163092219388 L 500 87.41630922193883 L 501 86.68556145002512 L 501 86.68556145002515 L 502 85.96043573105237 L 502 85.96043573105237 L 503 85.2409808199852 L 503 85.24098081998523 L 504 84.52724509050267 L 504 84.52724509050273 L 505.0000000000001 83.8192765317458 L 505.0000000000001 83.8192765317458 L 506 83.11712274509071 L 506 83.11712274509071 L 507 82.42083094094826 L 507 82.42083094094829 L 508.0000000000001 81.7304479355897 L 508.0000000000001 81.7304479355897 L 509 81.04602014799895 L 509 81.04602014799895 L 510 80.3675935967515 L 510 80.3675935967515 L 511 79.69521389692031 L 511 79.69521389692034 L 512.0000000000001 79.02892625700886 L 512.0000000000001 79.02892625700889 L 513 78.3687754759114 L 513 78.36877547591146 L 514 77.71480593990074 L 514 77.7148059399008 L 515.0000000000001 77.06706161964414 L 515.0000000000001 77.06706161964416 L 516 76.42558606724674 L 516 76.42558606724677 L 517 75.790422413323 L 517 75.790422413323 L 518.0000000000001 75.1616133640972 L 518.0000000000001 75.16161336409724 L 519 74.53920119853186 L 519 74.53920119853188 L 520 73.9232277654848 L 520 73.9232277654848 L 521 73.31373448089565 L 521 73.31373448089565 L 522.0000000000001 72.71076232500113 L 522.0000000000001 72.71076232500116 L 523 72.11435183957968 L 523 72.11435183957974 L 524 71.52454312522545 L 524 71.52454312522548 L 525.0000000000001 70.94137583865208 L 525.0000000000001 70.94137583865214 L 526 70.36488919002676 L 526 70.36488919002676 L 527 69.79512194033296 L 527 69.79512194033302 L 528.0000000000001 69.23211239876531 L 528.0000000000001 69.23211239876537 L 529 68.6758984201532 L 529 68.67589842015323 L 530 68.12651740241549 L 530 68.12651740241552 L 531.0000000000001 67.58400628404644 L 531.0000000000001 67.58400628404644 L 532.0000000000001 67.04840154163176 L 532.0000000000001 67.04840154163176 L 533 66.5197391873962 L 533 66.5197391873962 L 534 65.99805476678199" stroke-opacity="0.8" stroke-linecap="round" stroke-linejoin="round" stroke-miterlimit="10" stroke-width="2.5"/><path fill="none" stroke="rgb(0,0,0)" paint-order="fill stroke markers" d=" M 217.3017433543703 292.2555526597121 L 217.3017433543703 170.30156246134084" stroke-opacity="0.6980392156862745" stroke-linecap="round" stroke-linejoin="round" stroke-miterlimit="10" stroke-width="2.5"/><path fill="none" stroke="rgb(0,0,0)" paint-order="fill stroke markers" d=" M 217.3017433543703 170.30156246134084 L 256.0000000000003 286.1670626410023" stroke-opacity="0.6980392156862745" stroke-linecap="round" stroke-linejoin="round" stroke-miterlimit="10" stroke-width="2.5"/><path fill="rgb(0,0,0)" stroke="none" paint-order="stroke fill markers" d=" M 306.0000000000002 288.0055526597121 L 306.0000000000002 291.0055526597121 L 217.3017433543703 291.0055526597121 C 216.6113874170818 291.0055526597121 216.0517433543703 291.56519672242365 216.0517433543703 292.2555526597121 C 216.0517433543703 292.9459085970006 216.6113874170818 293.5055526597121 217.3017433543703 293.5055526597121 L 306.0000000000002 293.5055526597121 L 306.0000000000002 296.5055526597121 L 323.0000000000002 292.2555526597121 L 306.0000000000002 288.0055526597121 Z" fill-opacity="0.6980392156862745"/><g transform="scale(19,19)"><g transform="translate(15.31578947368421,16.69736842105263)"><path fill="rgb(0,0,0)" stroke="none" paint-order="stroke fill markers" d=" M 0.541 -0.362 Q 0.541 -0.325 0.526 -0.267 Q 0.511 -0.209 0.4835 -0.1455 Q 0.456 -0.082 0.406 -0.037 Q 0.356 0.008 0.296 0.008 Q 0.123 0.008 0.123 -0.126 Q 0.123 -0.161 0.1355 -0.2025 Q 0.148 -0.244 0.184 -0.335 Q 0.199 -0.375 0.199 -0.395 Q 0.199 -0.405 0.196 -0.41000000000000003 Q 0.193 -0.41500000000000004 0.19 -0.41550000000000004 Q 0.187 -0.41600000000000004 0.182 -0.41600000000000004 Q 0.17300000000000001 -0.41600000000000004 0.1625 -0.41200000000000003 Q 0.152 -0.40800000000000003 0.1365 -0.3965 Q 0.121 -0.385 0.1055 -0.359 Q 0.09 -0.333 0.079 -0.295 Q 0.075 -0.28200000000000003 0.056 -0.28200000000000003 Q 0.032 -0.28200000000000003 0.032 -0.296 Q 0.032 -0.306 0.042 -0.3295 Q 0.052000000000000005 -0.353 0.07 -0.3815 Q 0.088 -0.41000000000000003 0.11950000000000001 -0.431 Q 0.151 -0.452 0.188 -0.452 Q 0.233 -0.452 0.267 -0.4275 Q 0.301 -0.403 0.301 -0.362 Q 0.301 -0.34400000000000003 0.29 -0.317 Q 0.23 -0.167 0.23 -0.106 Q 0.23 -0.028 0.302 -0.028 Q 0.342 -0.028 0.378 -0.062 Q 0.41400000000000003 -0.096 0.434 -0.14100000000000001 Q 0.454 -0.186 0.4655 -0.2215 Q 0.47700000000000004 -0.257 0.47700000000000004 -0.269 Q 0.47700000000000004 -0.302 0.427 -0.332 Q 0.397 -0.34900000000000003 0.397 -0.377 Q 0.397 -0.404 0.4205 -0.4285 Q 0.444 -0.453 0.47300000000000003 -0.453 Q 0.47800000000000004 -0.453 0.485 -0.451 Q 0.492 -0.449 0.5065000000000001 -0.442 Q 0.521 -0.435 0.531 -0.41400000000000003 Q 0.541 -0.393 0.541 -0.362 Z"/></g><g transform="translate(15.91978947368421,16.69736842105263)"><path fill="rgb(0,0,0)" stroke="none" paint-order="stroke fill markers" d=" M 0.331 0.24 L 0.331 0.24 Q 0.331 0.25 0.321 0.25 Q 0.309 0.25 0.268 0.209 Q 0.20600000000000002 0.147 0.165 0.062 Q 0.099 -0.074 0.099 -0.25 Q 0.099 -0.419 0.162 -0.555 Q 0.214 -0.666 0.294 -0.733 Q 0.315 -0.75 0.321 -0.75 Q 0.331 -0.75 0.331 -0.74 Q 0.331 -0.735 0.318 -0.723 Q 0.157 -0.559 0.157 -0.25 Q 0.157 0.058 0.314 0.218 Q 0.331 0.23500000000000001 0.331 0.24 Z"/></g><g transform="translate(16.30878947368421,16.69736842105263)"><path fill="rgb(0,0,0)" stroke="none" paint-order="stroke fill markers" d=" M 0.20600000000000002 -0.4 L 0.132 -0.105 Q 0.126 -0.08 0.126 -0.057 Q 0.126 -0.011 0.157 -0.011 Q 0.223 -0.011 0.273 -0.108 L 0.28700000000000003 -0.139 Q 0.293 -0.152 0.302 -0.153 Q 0.314 -0.153 0.314 -0.14300000000000002 Q 0.314 -0.13 0.28800000000000003 -0.08600000000000001 Q 0.23 0.011 0.155 0.011 Q 0.097 0.011 0.073 -0.037 Q 0.063 -0.057 0.063 -0.081 Q 0.063 -0.1 0.124 -0.34 L 0.139 -0.4 L 0.051000000000000004 -0.4 Q 0.026000000000000002 -0.4 0.024 -0.40800000000000003 L 0.023 -0.40800000000000003 L 0.023 -0.41200000000000003 Q 0.023 -0.429 0.039 -0.431 L 0.053 -0.431 L 0.147 -0.431 L 0.186 -0.59 Q 0.195 -0.625 0.226 -0.626 Q 0.252 -0.626 0.255 -0.599 Q 0.255 -0.593 0.214 -0.431 L 0.302 -0.431 Q 0.328 -0.431 0.33 -0.42 Q 0.33 -0.402 0.314 -0.4 L 0.313 -0.4 L 0.3 -0.4 L 0.20600000000000002 -0.4 Z"/></g><g transform="translate(16.66978947368421,16.69736842105263)"><path fill="rgb(0,0,0)" stroke="none" paint-order="stroke fill markers" d=" M 0.289 -0.25 L 0.289 -0.25 Q 0.289 -0.081 0.226 0.055 Q 0.17400000000000002 0.166 0.094 0.233 Q 0.073 0.25 0.067 0.25 Q 0.057 0.25 0.057 0.24 Q 0.057 0.23500000000000001 0.07 0.223 Q 0.231 0.059000000000000004 0.231 -0.25 Q 0.231 -0.555 0.081 -0.712 L 0.076 -0.717 Q 0.057 -0.735 0.057 -0.74 Q 0.057 -0.75 0.067 -0.75 Q 0.079 -0.75 0.12 -0.709 Q 0.182 -0.647 0.223 -0.562 Q 0.289 -0.426 0.289 -0.25 Z"/></g></g><path fill="rgb(0,0,0)" stroke="none" paint-order="stroke fill markers" d=" M 335.9999999999996 257.9999999999998 L 318.5534319456264 259.63699820528376 L 319.54974589201436 262.4667258459292 L 255.5848691890053 284.98800945740004 C 254.9336960964623 285.21727987349743 254.5916764003006 285.9310203594543 254.82094681639802 286.5821934519973 C 255.00187303778793 287.0960595194559 255.48449830719252 287.4174033008509 255.99999273641723 287.4174033008509 C 256.13773486614076 287.4174033008509 256.27782378591087 287.3944600193121 256.41513081099527 287.34611582460457 L 320.3800075140043 264.82483221313373 L 321.37632146039226 267.6545598537792 L 336.0000000000001 257.9999999999998 Z" fill-opacity="0.6980392156862745"/><g transform="scale(19,19)"><g transform="translate(17.789473684210527,14.171052631578947)"><path fill="rgb(0,0,0)" stroke="none" paint-order="stroke fill markers" d=" M 0.541 -0.362 Q 0.541 -0.325 0.526 -0.267 Q 0.511 -0.209 0.4835 -0.1455 Q 0.456 -0.082 0.406 -0.037 Q 0.356 0.008 0.296 0.008 Q 0.123 0.008 0.123 -0.126 Q 0.123 -0.161 0.1355 -0.2025 Q 0.148 -0.244 0.184 -0.335 Q 0.199 -0.375 0.199 -0.395 Q 0.199 -0.405 0.196 -0.41000000000000003 Q 0.193 -0.41500000000000004 0.19 -0.41550000000000004 Q 0.187 -0.41600000000000004 0.182 -0.41600000000000004 Q 0.17300000000000001 -0.41600000000000004 0.1625 -0.41200000000000003 Q 0.152 -0.40800000000000003 0.1365 -0.3965 Q 0.121 -0.385 0.1055 -0.359 Q 0.09 -0.333 0.079 -0.295 Q 0.075 -0.28200000000000003 0.056 -0.28200000000000003 Q 0.032 -0.28200000000000003 0.032 -0.296 Q 0.032 -0.306 0.042 -0.3295 Q 0.052000000000000005 -0.353 0.07 -0.3815 Q 0.088 -0.41000000000000003 0.11950000000000001 -0.431 Q 0.151 -0.452 0.188 -0.452 Q 0.233 -0.452 0.267 -0.4275 Q 0.301 -0.403 0.301 -0.362 Q 0.301 -0.34400000000000003 0.29 -0.317 Q 0.23 -0.167 0.23 -0.106 Q 0.23 -0.028 0.302 -0.028 Q 0.342 -0.028 0.378 -0.062 Q 0.41400000000000003 -0.096 0.434 -0.14100000000000001 Q 0.454 -0.186 0.4655 -0.2215 Q 0.47700000000000004 -0.257 0.47700000000000004 -0.269 Q 0.47700000000000004 -0.302 0.427 -0.332 Q 0.397 -0.34900000000000003 0.397 -0.377 Q 0.397 -0.404 0.4205 -0.4285 Q 0.444 -0.453 0.47300000000000003 -0.453 Q 0.47800000000000004 -0.453 0.485 -0.451 Q 0.492 -0.449 0.5065000000000001 -0.442 Q 0.521 -0.435 0.531 -0.41400000000000003 Q 0.541 -0.393 0.541 -0.362 Z"/></g><g transform="translate(18.393473684210527,14.171052631578947)"><path fill="rgb(0,0,0)" stroke="none" paint-order="stroke fill markers" d=" M 0.331 0.24 L 0.331 0.24 Q 0.331 0.25 0.321 0.25 Q 0.309 0.25 0.268 0.209 Q 0.20600000000000002 0.147 0.165 0.062 Q 0.099 -0.074 0.099 -0.25 Q 0.099 -0.419 0.162 -0.555 Q 0.214 -0.666 0.294 -0.733 Q 0.315 -0.75 0.321 -0.75 Q 0.331 -0.75 0.331 -0.74 Q 0.331 -0.735 0.318 -0.723 Q 0.157 -0.559 0.157 -0.25 Q 0.157 0.058 0.314 0.218 Q 0.331 0.23500000000000001 0.331 0.24 Z"/></g><g transform="translate(18.782473684210526,14.171052631578947)"><path fill="rgb(0,0,0)" stroke="none" paint-order="stroke fill markers" d=" M 0.20600000000000002 -0.4 L 0.132 -0.105 Q 0.126 -0.08 0.126 -0.057 Q 0.126 -0.011 0.157 -0.011 Q 0.223 -0.011 0.273 -0.108 L 0.28700000000000003 -0.139 Q 0.293 -0.152 0.302 -0.153 Q 0.314 -0.153 0.314 -0.14300000000000002 Q 0.314 -0.13 0.28800000000000003 -0.08600000000000001 Q 0.23 0.011 0.155 0.011 Q 0.097 0.011 0.073 -0.037 Q 0.063 -0.057 0.063 -0.081 Q 0.063 -0.1 0.124 -0.34 L 0.139 -0.4 L 0.051000000000000004 -0.4 Q 0.026000000000000002 -0.4 0.024 -0.40800000000000003 L 0.023 -0.40800000000000003 L 0.023 -0.41200000000000003 Q 0.023 -0.429 0.039 -0.431 L 0.053 -0.431 L 0.147 -0.431 L 0.186 -0.59 Q 0.195 -0.625 0.226 -0.626 Q 0.252 -0.626 0.255 -0.599 Q 0.255 -0.593 0.214 -0.431 L 0.302 -0.431 Q 0.328 -0.431 0.33 -0.42 Q 0.33 -0.402 0.314 -0.4 L 0.313 -0.4 L 0.3 -0.4 L 0.20600000000000002 -0.4 Z"/></g><g transform="translate(19.365695906432748,14.171052631578947)"><path fill="rgb(0,0,0)" stroke="none" paint-order="stroke fill markers" d=" M 0.40900000000000003 -0.23 L 0.40900000000000003 0.05 Q 0.40900000000000003 0.082 0.389 0.083 Q 0.369 0.083 0.369 0.05 L 0.369 -0.23 L 0.089 -0.23 Q 0.057 -0.23 0.056 -0.25 Q 0.056 -0.27 0.089 -0.27 L 0.369 -0.27 L 0.369 -0.55 Q 0.369 -0.582 0.389 -0.583 Q 0.40900000000000003 -0.583 0.40900000000000003 -0.55 L 0.40900000000000003 -0.27 L 0.6880000000000001 -0.27 Q 0.72 -0.27 0.721 -0.25 Q 0.721 -0.23 0.6880000000000001 -0.23 L 0.40900000000000003 -0.23 Z"/></g><g transform="translate(20.365918128654968,14.171052631578947)"><path fill="rgb(0,0,0)" stroke="none" paint-order="stroke fill markers" d=" M 0.516 -0.683 L 0.372 -0.105 Q 0.366 -0.08 0.366 -0.057 Q 0.366 -0.011 0.396 -0.011 Q 0.434 -0.011 0.46 -0.091 Q 0.465 -0.108 0.47200000000000003 -0.135 Q 0.48 -0.152 0.486 -0.153 Q 0.498 -0.153 0.498 -0.14300000000000002 Q 0.498 -0.128 0.48 -0.073 Q 0.47400000000000003 -0.056 0.468 -0.044 Q 0.44 0.011 0.394 0.011 Q 0.338 0.011 0.313 -0.037 Q 0.306 -0.049 0.303 -0.064 Q 0.24 0.011 0.17300000000000001 0.011 Q 0.098 0.011 0.062 -0.057 Q 0.04 -0.097 0.04 -0.149 Q 0.04 -0.257 0.115 -0.34900000000000003 Q 0.185 -0.433 0.267 -0.441 Q 0.274 -0.442 0.281 -0.442 Q 0.342 -0.442 0.373 -0.378 L 0.433 -0.615 L 0.436 -0.635 Q 0.436 -0.646 0.422 -0.649 Q 0.41000000000000003 -0.652 0.386 -0.652 Q 0.364 -0.652 0.362 -0.664 Q 0.362 -0.681 0.376 -0.683 Q 0.47000000000000003 -0.6940000000000001 0.503 -0.6940000000000001 Q 0.516 -0.6940000000000001 0.516 -0.683 M 0.308 -0.11900000000000001 L 0.308 -0.11900000000000001 L 0.358 -0.315 Q 0.361 -0.33 0.361 -0.332 Q 0.361 -0.353 0.343 -0.383 Q 0.321 -0.42 0.28200000000000003 -0.42 Q 0.23 -0.42 0.183 -0.352 Q 0.17400000000000002 -0.339 0.166 -0.324 Q 0.137 -0.266 0.117 -0.159 Q 0.111 -0.125 0.111 -0.105 Q 0.111 -0.037 0.149 -0.017 Q 0.16 -0.011 0.17500000000000002 -0.011 Q 0.231 -0.011 0.28800000000000003 -0.082 Q 0.302 -0.098 0.307 -0.115 L 0.307 -0.116 Q 0.308 -0.11800000000000001 0.308 -0.11900000000000001 Z"/></g><g transform="translate(20.885918128654968,14.171052631578947)"><path fill="rgb(0,0,0)" stroke="none" paint-order="stroke fill markers" d=" M 0.20600000000000002 -0.4 L 0.132 -0.105 Q 0.126 -0.08 0.126 -0.057 Q 0.126 -0.011 0.157 -0.011 Q 0.223 -0.011 0.273 -0.108 L 0.28700000000000003 -0.139 Q 0.293 -0.152 0.302 -0.153 Q 0.314 -0.153 0.314 -0.14300000000000002 Q 0.314 -0.13 0.28800000000000003 -0.08600000000000001 Q 0.23 0.011 0.155 0.011 Q 0.097 0.011 0.073 -0.037 Q 0.063 -0.057 0.063 -0.081 Q 0.063 -0.1 0.124 -0.34 L 0.139 -0.4 L 0.051000000000000004 -0.4 Q 0.026000000000000002 -0.4 0.024 -0.40800000000000003 L 0.023 -0.40800000000000003 L 0.023 -0.41200000000000003 Q 0.023 -0.429 0.039 -0.431 L 0.053 -0.431 L 0.147 -0.431 L 0.186 -0.59 Q 0.195 -0.625 0.226 -0.626 Q 0.252 -0.626 0.255 -0.599 Q 0.255 -0.593 0.214 -0.431 L 0.302 -0.431 Q 0.328 -0.431 0.33 -0.42 Q 0.33 -0.402 0.314 -0.4 L 0.313 -0.4 L 0.3 -0.4 L 0.20600000000000002 -0.4 Z"/></g><g transform="translate(21.24691812865497,14.171052631578947)"><path fill="rgb(0,0,0)" stroke="none" paint-order="stroke fill markers" d=" M 0.289 -0.25 L 0.289 -0.25 Q 0.289 -0.081 0.226 0.055 Q 0.17400000000000002 0.166 0.094 0.233 Q 0.073 0.25 0.067 0.25 Q 0.057 0.25 0.057 0.24 Q 0.057 0.23500000000000001 0.07 0.223 Q 0.231 0.059000000000000004 0.231 -0.25 Q 0.231 -0.555 0.081 -0.712 L 0.076 -0.717 Q 0.057 -0.735 0.057 -0.74 Q 0.057 -0.75 0.067 -0.75 Q 0.079 -0.75 0.12 -0.709 Q 0.182 -0.647 0.223 -0.562 Q 0.289 -0.426 0.289 -0.25 Z"/></g></g><path fill="rgb(21,101,192)" stroke="none" paint-order="stroke fill markers" d=" M 222.3017433543703 292.2555526597121 C 222.3017433543703 295.01697640886607 220.06316710352428 297.2555526597121 217.3017433543703 297.2555526597121 C 214.54031960521633 297.2555526597121 212.3017433543703 295.01697640886607 212.3017433543703 292.2555526597121 C 212.3017433543703 289.4941289105582 214.54031960521633 287.2555526597121 217.3017433543703 287.2555526597121 C 220.06316710352428 287.2555526597121 222.3017433543703 289.4941289105582 222.3017433543703 292.2555526597121 Z" fill-opacity="1"/><path fill="none" stroke="rgb(0,0,0)" paint-order="fill stroke markers" d=" M 222.3017433543703 292.2555526597121 C 222.3017433543703 295.01697640886607 220.06316710352428 297.2555526597121 217.3017433543703 297.2555526597121 C 214.54031960521633 297.2555526597121 212.3017433543703 295.01697640886607 212.3017433543703 292.2555526597121 C 212.3017433543703 289.4941289105582 214.54031960521633 287.2555526597121 217.3017433543703 287.2555526597121 C 220.06316710352428 287.2555526597121 222.3017433543703 289.4941289105582 222.3017433543703 292.2555526597121 Z" stroke-opacity="1" stroke-linecap="round" stroke-linejoin="round" stroke-miterlimit="10"/><text fill="rgb(21,101,192)" stroke="none" font-family="geogebra-sans-serif, sans-serif" font-size="16px" font-style="normal" font-weight="normal" text-decoration="normal" x="209" y="320" text-anchor="start" dominant-baseline="alphabetic" fill-opacity="1">P</text><text fill="none" stroke="rgb(255,255,255)" font-family="geogebra-sans-serif, sans-serif" font-size="16px" font-style="normal" font-weight="normal" text-decoration="normal" x="209" y="320" text-anchor="start" dominant-baseline="alphabetic" stroke-opacity="1" stroke-linejoin="bevel" stroke-miterlimit="10" stroke-width="3">P</text><text fill="rgb(21,101,192)" stroke="none" font-family="geogebra-sans-serif, sans-serif" font-size="16px" font-style="normal" font-weight="normal" text-decoration="normal" x="209" y="320" text-anchor="start" dominant-baseline="alphabetic" fill-opacity="1">P</text><path fill="rgb(21,101,192)" stroke="none" paint-order="stroke fill markers" d=" M 261.0000000000003 286.1670626410023 C 261.0000000000003 288.92848639015625 258.76142374915423 291.1670626410023 256.0000000000003 291.1670626410023 C 253.2385762508463 291.1670626410023 251.00000000000028 288.92848639015625 251.00000000000028 286.1670626410023 C 251.00000000000028 283.40563889184835 253.2385762508463 281.1670626410023 256.0000000000003 281.1670626410023 C 258.76142374915423 281.1670626410023 261.0000000000003 283.40563889184835 261.0000000000003 286.1670626410023 Z" fill-opacity="1"/><path fill="none" stroke="rgb(0,0,0)" paint-order="fill stroke markers" d=" M 261.0000000000003 286.1670626410023 C 261.0000000000003 288.92848639015625 258.76142374915423 291.1670626410023 256.0000000000003 291.1670626410023 C 253.2385762508463 291.1670626410023 251.00000000000028 288.92848639015625 251.00000000000028 286.1670626410023 C 251.00000000000028 283.40563889184835 253.2385762508463 281.1670626410023 256.0000000000003 281.1670626410023 C 258.76142374915423 281.1670626410023 261.0000000000003 283.40563889184835 261.0000000000003 286.1670626410023 Z" stroke-opacity="1" stroke-linecap="round" stroke-linejoin="round" stroke-miterlimit="10"/><text fill="rgb(21,101,192)" stroke="none" font-family="geogebra-sans-serif, sans-serif" font-size="16px" font-style="normal" font-weight="normal" text-decoration="normal" x="261" y="266" text-anchor="start" dominant-baseline="alphabetic" fill-opacity="1">Q</text><text fill="none" stroke="rgb(255,255,255)" font-family="geogebra-sans-serif, sans-serif" font-size="16px" font-style="normal" font-weight="normal" text-decoration="normal" x="261" y="266" text-anchor="start" dominant-baseline="alphabetic" stroke-opacity="1" stroke-linejoin="bevel" stroke-miterlimit="10" stroke-width="3">Q</text><text fill="rgb(21,101,192)" stroke="none" font-family="geogebra-sans-serif, sans-serif" font-size="16px" font-style="normal" font-weight="normal" text-decoration="normal" x="261" y="266" text-anchor="start" dominant-baseline="alphabetic" fill-opacity="1">Q</text><path fill="rgb(97,97,97)" stroke="none" paint-order="stroke fill markers" d=" M 222.3017433543703 170.30156246134084 C 222.3017433543703 173.0629862104948 220.06316710352428 175.30156246134084 217.3017433543703 175.30156246134084 C 214.54031960521633 175.30156246134084 212.3017433543703 173.0629862104948 212.3017433543703 170.30156246134084 C 212.3017433543703 167.54013871218686 214.54031960521633 165.30156246134084 217.3017433543703 165.30156246134084 C 220.06316710352428 165.30156246134084 222.3017433543703 167.54013871218686 222.3017433543703 170.30156246134084 Z" fill-opacity="1"/><path fill="none" stroke="rgb(0,0,0)" paint-order="fill stroke markers" d=" M 222.3017433543703 170.30156246134084 C 222.3017433543703 173.0629862104948 220.06316710352428 175.30156246134084 217.3017433543703 175.30156246134084 C 214.54031960521633 175.30156246134084 212.3017433543703 173.0629862104948 212.3017433543703 170.30156246134084 C 212.3017433543703 167.54013871218686 214.54031960521633 165.30156246134084 217.3017433543703 165.30156246134084 C 220.06316710352428 165.30156246134084 222.3017433543703 167.54013871218686 222.3017433543703 170.30156246134084 Z" stroke-opacity="1" stroke-linecap="round" stroke-linejoin="round" stroke-miterlimit="10"/><text fill="rgb(97,97,97)" stroke="none" font-family="geogebra-sans-serif, sans-serif" font-size="16px" font-style="normal" font-weight="normal" text-decoration="normal" x="221" y="160" text-anchor="start" dominant-baseline="alphabetic" fill-opacity="1">O</text><text fill="none" stroke="rgb(255,255,255)" font-family="geogebra-sans-serif, sans-serif" font-size="16px" font-style="normal" font-weight="normal" text-decoration="normal" x="221" y="160" text-anchor="start" dominant-baseline="alphabetic" stroke-opacity="1" stroke-linejoin="bevel" stroke-miterlimit="10" stroke-width="3">O</text><text fill="rgb(97,97,97)" stroke="none" font-family="geogebra-sans-serif, sans-serif" font-size="16px" font-style="normal" font-weight="normal" text-decoration="normal" x="221" y="160" text-anchor="start" dominant-baseline="alphabetic" fill-opacity="1">O</text></g></g></svg>
