<svg version="1.1" xmlns="http://www.w3.org/2000/svg" xmlns:xlink="http://www.w3.org/1999/xlink" width="524" height="343"><defs><clipPath id="zVyWIigRhybd"><path fill="none" stroke="none" d=" M 0 0 L 524 0 L 524 343 L 0 343 L 0 0 Z"/></clipPath></defs><g transform="scale(1,1)" clip-path="url(#zVyWIigRhybd)"><g><rect fill="rgb(255,255,255)" stroke="none" x="0" y="0" width="524" height="343" fill-opacity="1"/><path fill="none" stroke="rgb(0,0,0)" paint-order="fill stroke markers" d=" M 357.48935447803524 193.38713476922675 C 357.48935447803524 142.32438863765853 295.6312004602479 100.929854087092 219.32530044054366 100.929854087092 C 143.01940042083942 100.929854087092 81.16124640305208 142.32438863765853 81.16124640305208 193.38713476922675 C 81.16124640305208 244.44988090079497 143.01940042083942 285.8444154513615 219.32530044054366 285.8444154513615 C 295.6312004602479 285.8444154513615 357.48935447803524 244.44988090079497 357.48935447803524 193.38713476922675 Z" stroke-opacity="0.6980392156862745" stroke-linecap="round" stroke-linejoin="round" stroke-miterlimit="10" stroke-width="2.5"/><path fill="rgb(0,0,0)" stroke="none" paint-order="stroke fill markers" fill-rule="evenodd" d=" M 377.2308176512714 247.21055906659024 L 387.1781138531651 228.47419607182167 L 368.44175085839595 218.5268998699261 L 358.4944546565029 237.26326286469657 L 377.2308176512714 247.21055906659024" fill-opacity="0.09803921568627451"/><path fill="none" stroke="rgb(0,0,0)" paint-order="fill stroke markers" d=" M 377.2308176512714 247.21055906659024 L 387.1781138531651 228.47419607182167 L 368.44175085839595 218.5268998699261 L 358.4944546565029 237.26326286469657 L 377.2308176512714 247.21055906659024" stroke-opacity="0.6" stroke-linecap="round" stroke-linejoin="round" stroke-miterlimit="10" stroke-width="2.5"/><path fill="none" stroke="rgb(0,0,0)" paint-order="fill stroke markers" d=" M 323.72083691126204 348 L 511.1315718681416 -5" stroke-opacity="0.6980392156862745" stroke-linecap="round" stroke-linejoin="round" stroke-miterlimit="10" stroke-width="2.5"/><text fill="rgb(0,0,0)" stroke="none" font-family="geogebra-sans-serif, sans-serif" font-size="16px" font-style="normal" font-weight="normal" text-decoration="normal" x="482" y="24" text-anchor="start" dominant-baseline="alphabetic" fill-opacity="1">q</text><path fill="none" stroke="rgb(0,0,0)" paint-order="fill stroke markers" d=" M -5 44.2809317034346 L 529 327.78612282800657" stroke-opacity="0.6980392156862745" stroke-linecap="round" stroke-linejoin="round" stroke-miterlimit="10" stroke-width="2.5"/><text fill="rgb(0,0,0)" stroke="none" font-family="geogebra-sans-serif, sans-serif" font-size="16px" font-style="normal" font-weight="normal" text-decoration="normal" x="24" y="49" text-anchor="start" dominant-baseline="alphabetic" fill-opacity="1">n</text><path fill="none" stroke="rgb(0,0,0)" paint-order="fill stroke markers" d=" M -5 193.38713476922675 L 529 193.38713476922675" stroke-opacity="0.6980392156862745" stroke-linecap="round" stroke-linejoin="round" stroke-miterlimit="10" stroke-width="2.5"/><text fill="rgb(0,0,0)" stroke="none" font-family="geogebra-sans-serif, sans-serif" font-size="16px" font-style="normal" font-weight="normal" text-decoration="normal" x="24" y="189" text-anchor="start" dominant-baseline="alphabetic" fill-opacity="1">x</text><path fill="rgb(21,101,192)" stroke="none" paint-order="stroke fill markers" d=" M 410.8061363636365 193.38713476922675 C 410.8061363636365 196.14855851838072 408.56756011279043 198.38713476922675 405.8061363636365 198.38713476922675 C 403.04471261448253 198.38713476922675 400.8061363636365 196.14855851838072 400.8061363636365 193.38713476922675 C 400.8061363636365 190.62571102007277 403.04471261448253 188.38713476922675 405.8061363636365 188.38713476922675 C 408.56756011279043 188.38713476922675 410.8061363636365 190.62571102007277 410.8061363636365 193.38713476922675 Z" fill-opacity="1"/><path fill="none" stroke="rgb(0,0,0)" paint-order="fill stroke markers" d=" M 410.8061363636365 193.38713476922675 C 410.8061363636365 196.14855851838072 408.56756011279043 198.38713476922675 405.8061363636365 198.38713476922675 C 403.04471261448253 198.38713476922675 400.8061363636365 196.14855851838072 400.8061363636365 193.38713476922675 C 400.8061363636365 190.62571102007277 403.04471261448253 188.38713476922675 405.8061363636365 188.38713476922675 C 408.56756011279043 188.38713476922675 410.8061363636365 190.62571102007277 410.8061363636365 193.38713476922675 Z" stroke-opacity="1" stroke-linecap="round" stroke-linejoin="round" stroke-miterlimit="10"/><text fill="rgb(21,101,192)" stroke="none" font-family="geogebra-sans-serif, sans-serif" font-size="16px" font-style="normal" font-weight="normal" text-decoration="normal" x="403" y="215" text-anchor="start" dominant-baseline="alphabetic" fill-opacity="1">P</text><path fill="rgb(110,109,115)" stroke="none" paint-order="stroke fill markers" d=" M 326.691346439756 217.7241762935971 C 326.691346439756 220.4856000427511 324.45277018890994 222.7241762935971 321.691346439756 222.7241762935971 C 318.92992269060204 222.7241762935971 316.691346439756 220.4856000427511 316.691346439756 217.7241762935971 C 316.691346439756 214.96275254444313 318.92992269060204 212.7241762935971 321.691346439756 212.7241762935971 C 324.45277018890994 212.7241762935971 326.691346439756 214.96275254444313 326.691346439756 217.7241762935971 Z" fill-opacity="1"/><path fill="none" stroke="rgb(0,0,0)" paint-order="fill stroke markers" d=" M 326.691346439756 217.7241762935971 C 326.691346439756 220.4856000427511 324.45277018890994 222.7241762935971 321.691346439756 222.7241762935971 C 318.92992269060204 222.7241762935971 316.691346439756 220.4856000427511 316.691346439756 217.7241762935971 C 316.691346439756 214.96275254444313 318.92992269060204 212.7241762935971 321.691346439756 212.7241762935971 C 324.45277018890994 212.7241762935971 326.691346439756 214.96275254444313 326.691346439756 217.7241762935971 Z" stroke-opacity="1" stroke-linecap="round" stroke-linejoin="round" stroke-miterlimit="10"/><text fill="rgb(110,109,115)" stroke="none" font-family="geogebra-sans-serif, sans-serif" font-size="16px" font-style="normal" font-weight="normal" text-decoration="normal" x="326" y="208" text-anchor="start" dominant-baseline="alphabetic" fill-opacity="1">Q</text><path fill="rgb(110,109,115)" stroke="none" paint-order="stroke fill markers" d=" M 280.850985907157 193.38713476922675 C 280.850985907157 196.14855851838072 278.61240965631094 198.38713476922675 275.850985907157 198.38713476922675 C 273.08956215800305 198.38713476922675 270.850985907157 196.14855851838072 270.850985907157 193.38713476922675 C 270.850985907157 190.62571102007277 273.08956215800305 188.38713476922675 275.850985907157 188.38713476922675 C 278.61240965631094 188.38713476922675 280.850985907157 190.62571102007277 280.850985907157 193.38713476922675 Z" fill-opacity="1"/><path fill="none" stroke="rgb(0,0,0)" paint-order="fill stroke markers" d=" M 280.850985907157 193.38713476922675 C 280.850985907157 196.14855851838072 278.61240965631094 198.38713476922675 275.850985907157 198.38713476922675 C 273.08956215800305 198.38713476922675 270.850985907157 196.14855851838072 270.850985907157 193.38713476922675 C 270.850985907157 190.62571102007277 273.08956215800305 188.38713476922675 275.850985907157 188.38713476922675 C 278.61240965631094 188.38713476922675 280.850985907157 190.62571102007277 280.850985907157 193.38713476922675 Z" stroke-opacity="1" stroke-linecap="round" stroke-linejoin="round" stroke-miterlimit="10"/><text fill="rgb(110,109,115)" stroke="none" font-family="geogebra-sans-serif, sans-serif" font-size="16px" font-style="normal" font-weight="normal" text-decoration="normal" x="269" y="220" text-anchor="start" dominant-baseline="alphabetic" fill-opacity="1">P'</text></g></g></svg>