<svg version="1.1" xmlns="http://www.w3.org/2000/svg" xmlns:xlink="http://www.w3.org/1999/xlink" width="462" height="265"><defs><clipPath id="PTKgsxGUWPVL"><path fill="none" stroke="none" d=" M 0 0 L 462 0 L 462 265 L 0 265 L 0 0 Z"/></clipPath></defs><g transform="scale(1,1)" clip-path="url(#PTKgsxGUWPVL)"><g><rect fill="rgb(255,255,255)" stroke="none" x="0" y="0" width="462" height="265" fill-opacity="1"/><path fill="rgb(21,101,192)" stroke="none" paint-order="stroke fill markers" d=" M 217.60471711142227 69.30891824176086 C 219.33788708135734 74.2235572066682 222.3213885182236 78.60195503501234 226.261355029138 82.01285201277972 L 245.89697095506048 59.331525173071896 Z" fill-opacity="0.09803921568627451"/><path fill="none" stroke="rgb(21,101,192)" paint-order="fill stroke markers" d=" M 217.60471711142227 69.30891824176086 C 219.33788708135734 74.2235572066682 222.3213885182236 78.60195503501234 226.261355029138 82.01285201277972 L 245.89697095506048 59.331525173071896 Z" stroke-opacity="0.6" stroke-linecap="round" stroke-linejoin="round" stroke-miterlimit="10" stroke-width="2.5"/><path fill="rgb(21,101,192)" stroke="none" paint-order="stroke fill markers" d=" M 226.261355029138 82.01285201277972 C 230.20132154005242 85.42374899054715 234.9618455135228 87.74948755389545 240.07402889874538 88.76098907931379 L 245.89697095506048 59.331525173071896 Z" fill-opacity="0.09803921568627451"/><path fill="none" stroke="rgb(21,101,192)" paint-order="fill stroke markers" d=" M 226.261355029138 82.01285201277972 C 230.20132154005242 85.42374899054715 234.9618455135228 87.74948755389545 240.07402889874538 88.76098907931379 L 245.89697095506048 59.331525173071896 Z" stroke-opacity="0.6" stroke-linecap="round" stroke-linejoin="round" stroke-miterlimit="10" stroke-width="2.5"/><text fill="rgb(21,101,192)" stroke="none" font-family="geogebra-sans-serif, sans-serif" font-size="16px" font-style="normal" font-weight="normal" text-decoration="normal" x="223" y="105" text-anchor="start" dominant-baseline="alphabetic" fill-opacity="1">α</text><path fill="rgb(224,116,21)" stroke="none" paint-order="stroke fill markers" d=" M 240.07402889874538 88.76098907931379 C 250.64483917119063 90.8525397749313 261.5253534667027 87.11407858700716 268.57829779476805 78.9671410989946 L 245.89697095506048 59.331525173071896 Z" fill-opacity="0.09803921568627451"/><path fill="none" stroke="rgb(224,116,21)" paint-order="fill stroke markers" d=" M 240.07402889874538 88.76098907931379 C 250.64483917119063 90.8525397749313 261.5253534667027 87.11407858700716 268.57829779476805 78.9671410989946 L 245.89697095506048 59.331525173071896 Z" stroke-opacity="0.6" stroke-linecap="round" stroke-linejoin="round" stroke-miterlimit="10" stroke-width="2.5"/><text fill="rgb(224,116,21)" stroke="none" font-family="geogebra-sans-serif, sans-serif" font-size="16px" font-style="normal" font-weight="normal" text-decoration="normal" x="253" y="104" text-anchor="start" dominant-baseline="alphabetic" fill-opacity="1">β</text><path fill="rgb(224,116,21)" stroke="none" paint-order="stroke fill markers" d=" M 268.5782977947681 78.96714109899472 C 275.6312421228335 70.82020361098222 277.7730185599012 59.516466305025176 274.1892247986987 49.35413210438304 L 245.89697095506054 59.33152517307201 Z" fill-opacity="0.09803921568627451"/><path fill="none" stroke="rgb(224,116,21)" paint-order="fill stroke markers" d=" M 268.5782977947681 78.96714109899472 C 275.6312421228335 70.82020361098222 277.7730185599012 59.516466305025176 274.1892247986987 49.35413210438304 L 245.89697095506054 59.33152517307201 Z" stroke-opacity="0.6" stroke-linecap="round" stroke-linejoin="round" stroke-miterlimit="10" stroke-width="2.5"/><path fill="rgb(0,0,0)" stroke="none" paint-order="stroke fill markers" fill-rule="evenodd" d=" M 224.00000000000034 170.00000000000034 L 237.87318232985834 172.7449612096514 L 240.61814353951047 158.8717788797925 L 226.74496120965136 156.1268176701422 L 224.00000000000034 170.00000000000034" fill-opacity="0.09803921568627451"/><path fill="none" stroke="rgb(0,0,0)" paint-order="fill stroke markers" d=" M 224.00000000000034 170.00000000000034 L 237.87318232985834 172.7449612096514 L 240.61814353951047 158.8717788797925 L 226.74496120965136 156.1268176701422 L 224.00000000000034 170.00000000000034" stroke-opacity="0.6" stroke-linecap="round" stroke-linejoin="round" stroke-miterlimit="10" stroke-width="2.5"/><path fill="none" stroke="rgb(0,0,0)" paint-order="fill stroke markers" d=" M -5 124.68983957219281 L 467 218.08021390374358" stroke-opacity="0.6980392156862745" stroke-linecap="round" stroke-linejoin="round" stroke-miterlimit="10" stroke-width="2.5"/><path fill="none" stroke="rgb(0,0,0)" paint-order="fill stroke markers" d=" M -5 147.8114926156433 L 428.3177523971329 -5" stroke-opacity="0.6980392156862745" stroke-linecap="round" stroke-linejoin="round" stroke-miterlimit="10" stroke-width="2.5"/><path fill="none" stroke="rgb(0,0,0)" paint-order="fill stroke markers" d=" M -5 130.53180093782046 L 467 158.26965706517498" stroke-opacity="0.6980392156862745" stroke-linecap="round" stroke-linejoin="round" stroke-miterlimit="10" stroke-width="2.5"/><path fill="none" stroke="rgb(0,0,0)" paint-order="fill stroke markers" d=" M 160.8981782156423 157.51461280202577 L 245.89697095506048 59.331525173071896" stroke-opacity="0.6980392156862745" stroke-linecap="round" stroke-linejoin="round" stroke-miterlimit="10" stroke-width="2.5"/><path fill="none" stroke="rgb(0,0,0)" paint-order="fill stroke markers" d=" M 245.89697095506048 59.331525173071896 L 224.00000000000034 170.00000000000034" stroke-opacity="0.6980392156862745" stroke-linecap="round" stroke-linejoin="round" stroke-miterlimit="10" stroke-width="2.5"/><path fill="none" stroke="rgb(0,0,0)" paint-order="fill stroke markers" d=" M 245.89697095506048 59.331525173071896 L 418.09124767225376 208.4030810902323" stroke-opacity="0.6980392156862745" stroke-linecap="round" stroke-linejoin="round" stroke-miterlimit="10" stroke-width="2.5"/><text fill="rgb(0,0,0)" stroke="none" font-family="geogebra-sans-serif, sans-serif" font-size="16px" font-style="normal" font-weight="normal" text-decoration="normal" x="95" y="160" text-anchor="start" dominant-baseline="alphabetic" fill-opacity="1">x</text><path fill="none" stroke="rgb(0,0,0)" paint-order="fill stroke markers" d=" M 37.000000000000455 133.00000000000037 L 160.8981782156423 157.51461280202577" stroke-opacity="0.6980392156862745" stroke-linecap="round" stroke-linejoin="round" stroke-miterlimit="10" stroke-width="2.5"/><text fill="rgb(0,0,0)" stroke="none" font-family="geogebra-sans-serif, sans-serif" font-size="16px" font-style="normal" font-weight="normal" text-decoration="normal" x="187" y="182" text-anchor="start" dominant-baseline="alphabetic" fill-opacity="1">1</text><path fill="none" stroke="rgb(0,0,0)" paint-order="fill stroke markers" d=" M 160.8981782156423 157.51461280202577 L 224.00000000000034 170.00000000000034" stroke-opacity="0.6980392156862745" stroke-linecap="round" stroke-linejoin="round" stroke-miterlimit="10" stroke-width="2.5"/><text fill="rgb(0,0,0)" stroke="none" font-family="geogebra-sans-serif, sans-serif" font-size="16px" font-style="normal" font-weight="normal" text-decoration="normal" x="315" y="204" text-anchor="start" dominant-baseline="alphabetic" fill-opacity="1">y</text><path fill="none" stroke="rgb(0,0,0)" paint-order="fill stroke markers" d=" M 224.00000000000034 170.00000000000034 L 418.09124767225376 208.4030810902323" stroke-opacity="0.6980392156862745" stroke-linecap="round" stroke-linejoin="round" stroke-miterlimit="10" stroke-width="2.5"/><path fill="rgb(110,109,115)" stroke="none" paint-order="stroke fill markers" d=" M 42.000000000000455 133.00000000000037 C 42.000000000000455 135.76142374915435 39.76142374915442 138.00000000000037 37.000000000000455 138.00000000000037 C 34.238576250846485 138.00000000000037 32.000000000000455 135.76142374915435 32.000000000000455 133.00000000000037 C 32.000000000000455 130.2385762508464 34.238576250846485 128.00000000000037 37.000000000000455 128.00000000000037 C 39.76142374915442 128.00000000000037 42.000000000000455 130.2385762508464 42.000000000000455 133.00000000000037 Z" fill-opacity="1"/><path fill="none" stroke="rgb(0,0,0)" paint-order="fill stroke markers" d=" M 42.000000000000455 133.00000000000037 C 42.000000000000455 135.76142374915435 39.76142374915442 138.00000000000037 37.000000000000455 138.00000000000037 C 34.238576250846485 138.00000000000037 32.000000000000455 135.76142374915435 32.000000000000455 133.00000000000037 C 32.000000000000455 130.2385762508464 34.238576250846485 128.00000000000037 37.000000000000455 128.00000000000037 C 39.76142374915442 128.00000000000037 42.000000000000455 130.2385762508464 42.000000000000455 133.00000000000037 Z" stroke-opacity="1" stroke-linecap="round" stroke-linejoin="round" stroke-miterlimit="10"/><text fill="rgb(110,109,115)" stroke="none" font-family="geogebra-sans-serif, sans-serif" font-size="16px" font-style="normal" font-weight="normal" text-decoration="normal" x="27" y="157" text-anchor="start" dominant-baseline="alphabetic" fill-opacity="1">A</text><path fill="rgb(110,109,115)" stroke="none" paint-order="stroke fill markers" d=" M 229.00000000000034 170.00000000000034 C 229.00000000000034 172.76142374915432 226.76142374915432 175.00000000000034 224.00000000000034 175.00000000000034 C 221.23857625084636 175.00000000000034 219.00000000000034 172.76142374915432 219.00000000000034 170.00000000000034 C 219.00000000000034 167.23857625084636 221.23857625084636 165.00000000000034 224.00000000000034 165.00000000000034 C 226.76142374915432 165.00000000000034 229.00000000000034 167.23857625084636 229.00000000000034 170.00000000000034 Z" fill-opacity="1"/><path fill="none" stroke="rgb(0,0,0)" paint-order="fill stroke markers" d=" M 229.00000000000034 170.00000000000034 C 229.00000000000034 172.76142374915432 226.76142374915432 175.00000000000034 224.00000000000034 175.00000000000034 C 221.23857625084636 175.00000000000034 219.00000000000034 172.76142374915432 219.00000000000034 170.00000000000034 C 219.00000000000034 167.23857625084636 221.23857625084636 165.00000000000034 224.00000000000034 165.00000000000034 C 226.76142374915432 165.00000000000034 229.00000000000034 167.23857625084636 229.00000000000034 170.00000000000034 Z" stroke-opacity="1" stroke-linecap="round" stroke-linejoin="round" stroke-miterlimit="10"/><text fill="rgb(110,109,115)" stroke="none" font-family="geogebra-sans-serif, sans-serif" font-size="16px" font-style="normal" font-weight="normal" text-decoration="normal" x="219" y="193" text-anchor="start" dominant-baseline="alphabetic" fill-opacity="1">B'</text><path fill="rgb(110,109,115)" stroke="none" paint-order="stroke fill markers" d=" M 165.8981782156423 157.51461280202577 C 165.8981782156423 160.27603655117974 163.65960196479628 162.51461280202577 160.8981782156423 162.51461280202577 C 158.13675446648833 162.51461280202577 155.8981782156423 160.27603655117974 155.8981782156423 157.51461280202577 C 155.8981782156423 154.7531890528718 158.13675446648833 152.51461280202577 160.8981782156423 152.51461280202577 C 163.65960196479628 152.51461280202577 165.8981782156423 154.7531890528718 165.8981782156423 157.51461280202577 Z" fill-opacity="1"/><path fill="none" stroke="rgb(0,0,0)" paint-order="fill stroke markers" d=" M 165.8981782156423 157.51461280202577 C 165.8981782156423 160.27603655117974 163.65960196479628 162.51461280202577 160.8981782156423 162.51461280202577 C 158.13675446648833 162.51461280202577 155.8981782156423 160.27603655117974 155.8981782156423 157.51461280202577 C 155.8981782156423 154.7531890528718 158.13675446648833 152.51461280202577 160.8981782156423 152.51461280202577 C 163.65960196479628 152.51461280202577 165.8981782156423 154.7531890528718 165.8981782156423 157.51461280202577 Z" stroke-opacity="1" stroke-linecap="round" stroke-linejoin="round" stroke-miterlimit="10"/><text fill="rgb(110,109,115)" stroke="none" font-family="geogebra-sans-serif, sans-serif" font-size="16px" font-style="normal" font-weight="normal" text-decoration="normal" x="147" y="179" text-anchor="start" dominant-baseline="alphabetic" fill-opacity="1">C'</text><path fill="rgb(110,109,115)" stroke="none" paint-order="stroke fill markers" d=" M 423.09124767225376 208.4030810902323 C 423.09124767225376 211.16450483938627 420.8526714214077 213.4030810902323 418.09124767225376 213.4030810902323 C 415.3298239230998 213.4030810902323 413.09124767225376 211.16450483938627 413.09124767225376 208.4030810902323 C 413.09124767225376 205.64165734107831 415.3298239230998 203.4030810902323 418.09124767225376 203.4030810902323 C 420.8526714214077 203.4030810902323 423.09124767225376 205.64165734107831 423.09124767225376 208.4030810902323 Z" fill-opacity="1"/><path fill="none" stroke="rgb(0,0,0)" paint-order="fill stroke markers" d=" M 423.09124767225376 208.4030810902323 C 423.09124767225376 211.16450483938627 420.8526714214077 213.4030810902323 418.09124767225376 213.4030810902323 C 415.3298239230998 213.4030810902323 413.09124767225376 211.16450483938627 413.09124767225376 208.4030810902323 C 413.09124767225376 205.64165734107831 415.3298239230998 203.4030810902323 418.09124767225376 203.4030810902323 C 420.8526714214077 203.4030810902323 423.09124767225376 205.64165734107831 423.09124767225376 208.4030810902323 Z" stroke-opacity="1" stroke-linecap="round" stroke-linejoin="round" stroke-miterlimit="10"/><text fill="rgb(110,109,115)" stroke="none" font-family="geogebra-sans-serif, sans-serif" font-size="16px" font-style="normal" font-weight="normal" text-decoration="normal" x="407" y="228" text-anchor="start" dominant-baseline="alphabetic" fill-opacity="1">D'</text><path fill="rgb(110,109,115)" stroke="none" paint-order="stroke fill markers" d=" M 250.89697095506048 59.331525173071896 C 250.89697095506048 62.09294892222586 248.65839470421446 64.3315251730719 245.89697095506048 64.3315251730719 C 243.1355472059065 64.3315251730719 240.89697095506048 62.09294892222586 240.89697095506048 59.331525173071896 C 240.89697095506048 56.570101423917926 243.1355472059065 54.331525173071896 245.89697095506048 54.331525173071896 C 248.65839470421446 54.331525173071896 250.89697095506048 56.570101423917926 250.89697095506048 59.331525173071896 Z" fill-opacity="1"/><path fill="none" stroke="rgb(0,0,0)" paint-order="fill stroke markers" d=" M 250.89697095506048 59.331525173071896 C 250.89697095506048 62.09294892222586 248.65839470421446 64.3315251730719 245.89697095506048 64.3315251730719 C 243.1355472059065 64.3315251730719 240.89697095506048 62.09294892222586 240.89697095506048 59.331525173071896 C 240.89697095506048 56.570101423917926 243.1355472059065 54.331525173071896 245.89697095506048 54.331525173071896 C 248.65839470421446 54.331525173071896 250.89697095506048 56.570101423917926 250.89697095506048 59.331525173071896 Z" stroke-opacity="1" stroke-linecap="round" stroke-linejoin="round" stroke-miterlimit="10"/><text fill="rgb(110,109,115)" stroke="none" font-family="geogebra-sans-serif, sans-serif" font-size="16px" font-style="normal" font-weight="normal" text-decoration="normal" x="250" y="49" text-anchor="start" dominant-baseline="alphabetic" fill-opacity="1">O</text><path fill="rgb(110,109,115)" stroke="none" paint-order="stroke fill markers" d=" M 357.40243496755954 151.53514271895682 C 357.40243496755954 154.2965664681108 355.1638587167135 156.53514271895682 352.40243496755954 156.53514271895682 C 349.6410112184056 156.53514271895682 347.40243496755954 154.2965664681108 347.40243496755954 151.53514271895682 C 347.40243496755954 148.77371896980284 349.6410112184056 146.53514271895682 352.40243496755954 146.53514271895682 C 355.1638587167135 146.53514271895682 357.40243496755954 148.77371896980284 357.40243496755954 151.53514271895682 Z" fill-opacity="1"/><path fill="none" stroke="rgb(0,0,0)" paint-order="fill stroke markers" d=" M 357.40243496755954 151.53514271895682 C 357.40243496755954 154.2965664681108 355.1638587167135 156.53514271895682 352.40243496755954 156.53514271895682 C 349.6410112184056 156.53514271895682 347.40243496755954 154.2965664681108 347.40243496755954 151.53514271895682 C 347.40243496755954 148.77371896980284 349.6410112184056 146.53514271895682 352.40243496755954 146.53514271895682 C 355.1638587167135 146.53514271895682 357.40243496755954 148.77371896980284 357.40243496755954 151.53514271895682 Z" stroke-opacity="1" stroke-linecap="round" stroke-linejoin="round" stroke-miterlimit="10"/><text fill="rgb(110,109,115)" stroke="none" font-family="geogebra-sans-serif, sans-serif" font-size="16px" font-style="normal" font-weight="normal" text-decoration="normal" x="354" y="141" text-anchor="start" dominant-baseline="alphabetic" fill-opacity="1">D</text><path fill="rgb(110,109,115)" stroke="none" paint-order="stroke fill markers" d=" M 180.095263757169 141.11539524992713 C 180.095263757169 143.8768189990811 177.85668750632297 146.11539524992713 175.095263757169 146.11539524992713 C 172.33384000801502 146.11539524992713 170.095263757169 143.8768189990811 170.095263757169 141.11539524992713 C 170.095263757169 138.35397150077316 172.33384000801502 136.11539524992713 175.095263757169 136.11539524992713 C 177.85668750632297 136.11539524992713 180.095263757169 138.35397150077316 180.095263757169 141.11539524992713 Z" fill-opacity="1"/><path fill="none" stroke="rgb(0,0,0)" paint-order="fill stroke markers" d=" M 180.095263757169 141.11539524992713 C 180.095263757169 143.8768189990811 177.85668750632297 146.11539524992713 175.095263757169 146.11539524992713 C 172.33384000801502 146.11539524992713 170.095263757169 143.8768189990811 170.095263757169 141.11539524992713 C 170.095263757169 138.35397150077316 172.33384000801502 136.11539524992713 175.095263757169 136.11539524992713 C 177.85668750632297 136.11539524992713 180.095263757169 138.35397150077316 180.095263757169 141.11539524992713 Z" stroke-opacity="1" stroke-linecap="round" stroke-linejoin="round" stroke-miterlimit="10"/><text fill="rgb(110,109,115)" stroke="none" font-family="geogebra-sans-serif, sans-serif" font-size="16px" font-style="normal" font-weight="normal" text-decoration="normal" x="168" y="128" text-anchor="start" dominant-baseline="alphabetic" fill-opacity="1">C</text><path fill="rgb(110,109,115)" stroke="none" paint-order="stroke fill markers" d=" M 234.08733613855244 144.2883281646146 C 234.08733613855244 147.04975191376857 231.84875988770642 149.2883281646146 229.08733613855244 149.2883281646146 C 226.32591238939847 149.2883281646146 224.08733613855244 147.04975191376857 224.08733613855244 144.2883281646146 C 224.08733613855244 141.52690441546062 226.32591238939847 139.2883281646146 229.08733613855244 139.2883281646146 C 231.84875988770642 139.2883281646146 234.08733613855244 141.52690441546062 234.08733613855244 144.2883281646146 Z" fill-opacity="1"/><path fill="none" stroke="rgb(0,0,0)" paint-order="fill stroke markers" d=" M 234.08733613855244 144.2883281646146 C 234.08733613855244 147.04975191376857 231.84875988770642 149.2883281646146 229.08733613855244 149.2883281646146 C 226.32591238939847 149.2883281646146 224.08733613855244 147.04975191376857 224.08733613855244 144.2883281646146 C 224.08733613855244 141.52690441546062 226.32591238939847 139.2883281646146 229.08733613855244 139.2883281646146 C 231.84875988770642 139.2883281646146 234.08733613855244 141.52690441546062 234.08733613855244 144.2883281646146 Z" stroke-opacity="1" stroke-linecap="round" stroke-linejoin="round" stroke-miterlimit="10"/><text fill="rgb(110,109,115)" stroke="none" font-family="geogebra-sans-serif, sans-serif" font-size="16px" font-style="normal" font-weight="normal" text-decoration="normal" x="240" y="134" text-anchor="start" dominant-baseline="alphabetic" fill-opacity="1">B</text></g></g></svg>