<svg version="1.1" xmlns="http://www.w3.org/2000/svg" xmlns:xlink="http://www.w3.org/1999/xlink" width="409" height="527"><defs><clipPath id="BtJasDupJMyA"><path fill="none" stroke="none" d=" M 0 0 L 409 0 L 409 527 L 0 527 L 0 0 Z"/></clipPath></defs><g transform="scale(1,1)" clip-path="url(#BtJasDupJMyA)"><g><rect fill="rgb(255,255,255)" stroke="none" x="0" y="0" width="409" height="527" fill-opacity="1"/><path fill="rgb(21,101,192)" stroke="none" paint-order="stroke fill markers" fill-rule="evenodd" d=" M 169.546824146636 54.42853735084782 L 113.93884864283534 142.2121967939545 L 205.704065823748 201.71530271354692 L 239.72658142069633 193.68285887103036 Z" fill-opacity="0.09803921568627451"/><path fill="rgb(21,101,192)" stroke="none" paint-order="stroke fill markers" fill-rule="evenodd" d=" M 192.939019802851 254.07553807066438 L 168.07377617246954 314.46088973925384 L 212.20638571354567 336.0975867180083 L 229.94755316560034 327.11908542424453 Z" fill-opacity="0.09803921568627451"/><path fill="none" stroke="rgb(0,0,0)" paint-order="fill stroke markers" d=" M 53.47950587950598 237.65430392348685 L 169.546824146636 54.42853735084782" stroke-opacity="0.6980392156862745" stroke-linecap="round" stroke-linejoin="round" stroke-miterlimit="10" stroke-width="2.5"/><path fill="none" stroke="rgb(0,0,0)" paint-order="fill stroke markers" d=" M 169.546824146636 54.42853735084782 L 262.2546821335889 238.3842870572424" stroke-opacity="0.6980392156862745" stroke-linecap="round" stroke-linejoin="round" stroke-miterlimit="10" stroke-width="2.5"/><path fill="none" stroke="rgb(0,0,0)" paint-order="fill stroke markers" d=" M 262.2546821335889 238.3842870572424 L 113.93884864283534 142.2121967939545" stroke-opacity="0.6980392156862745" stroke-linecap="round" stroke-linejoin="round" stroke-miterlimit="10" stroke-width="2.5"/><path fill="none" stroke="rgb(0,0,0)" paint-order="fill stroke markers" d=" M 53.47950587950598 237.65430392348685 L 239.72658142069633 193.68285887103036" stroke-opacity="0.6980392156862745" stroke-linecap="round" stroke-linejoin="round" stroke-miterlimit="10" stroke-width="2.5"/><path fill="none" stroke="rgb(0,0,0)" paint-order="fill stroke markers" d=" M 349.71854951317334 238.6901047753528 L 53.47950587950598 237.65430392348685" stroke-opacity="0.6980392156862745" stroke-linecap="round" stroke-linejoin="round" stroke-miterlimit="10" stroke-width="2.5"/><path fill="none" stroke="rgb(0,0,0)" paint-order="fill stroke markers" d=" M 349.71854951317334 238.6901047753528 L 113.93884864283534 142.2121967939545" stroke-opacity="0.6980392156862745" stroke-linecap="round" stroke-linejoin="round" stroke-miterlimit="10" stroke-width="2.5"/><path fill="none" stroke="rgb(0,0,0)" paint-order="fill stroke markers" d=" M 214.6650397203579 238.21788970614713 L 169.546824146636 54.42853735084782" stroke-opacity="0.6980392156862745" stroke-linecap="round" stroke-linejoin="round" stroke-miterlimit="10" stroke-width="2.5"/><path fill="none" stroke="rgb(180,179,186)" paint-order="fill stroke markers" d=" M 219.0000000000001 476.49999999999994 L 53.47950587950598 237.65430392348685" stroke-opacity="0.6980392156862745" stroke-linecap="round" stroke-linejoin="round" stroke-miterlimit="10" stroke-width="2.5"/><path fill="none" stroke="rgb(180,179,186)" paint-order="fill stroke markers" d=" M 219.0000000000001 476.49999999999994 L 113.93884864283534 142.2121967939545" stroke-opacity="0.6980392156862745" stroke-linecap="round" stroke-linejoin="round" stroke-miterlimit="10" stroke-width="2.5"/><path fill="none" stroke="rgb(180,179,186)" paint-order="fill stroke markers" d=" M 219.0000000000001 476.49999999999994 L 169.546824146636 54.42853735084782" stroke-opacity="0.6980392156862745" stroke-linecap="round" stroke-linejoin="round" stroke-miterlimit="10" stroke-width="2.5"/><path fill="none" stroke="rgb(180,179,186)" paint-order="fill stroke markers" d=" M 205.704065823748 201.71530271354692 L 219.0000000000001 476.49999999999994" stroke-opacity="0.6980392156862745" stroke-linecap="round" stroke-linejoin="round" stroke-miterlimit="10" stroke-width="2.5"/><path fill="none" stroke="rgb(180,179,186)" paint-order="fill stroke markers" d=" M 214.6650397203579 238.21788970614713 L 219.0000000000001 476.49999999999994" stroke-opacity="0.6980392156862745" stroke-linecap="round" stroke-linejoin="round" stroke-miterlimit="10" stroke-width="2.5"/><path fill="none" stroke="rgb(180,179,186)" paint-order="fill stroke markers" d=" M 239.72658142069633 193.68285887103036 L 219.0000000000001 476.49999999999994" stroke-opacity="0.6980392156862745" stroke-linecap="round" stroke-linejoin="round" stroke-miterlimit="10" stroke-width="2.5"/><path fill="none" stroke="rgb(180,179,186)" paint-order="fill stroke markers" d=" M 262.2546821335889 238.3842870572424 L 219.0000000000001 476.49999999999994" stroke-opacity="0.6980392156862745" stroke-linecap="round" stroke-linejoin="round" stroke-miterlimit="10" stroke-width="2.5"/><path fill="none" stroke="rgb(180,179,186)" paint-order="fill stroke markers" d=" M 349.71854951317334 238.6901047753528 L 219.0000000000001 476.49999999999994" stroke-opacity="0.6980392156862745" stroke-linecap="round" stroke-linejoin="round" stroke-miterlimit="10" stroke-width="2.5"/><path fill="none" stroke="rgb(0,0,0)" paint-order="fill stroke markers" d=" M 145.2008229392715 370.00795556402875 L 192.939019802851 254.07553807066438" stroke-opacity="0.6980392156862745" stroke-linecap="round" stroke-linejoin="round" stroke-miterlimit="10" stroke-width="2.5"/><path fill="none" stroke="rgb(0,0,0)" paint-order="fill stroke markers" d=" M 145.2008229392715 370.00795556402875 L 293.91755972604864 340.20612973224263" stroke-opacity="0.6980392156862745" stroke-linecap="round" stroke-linejoin="round" stroke-miterlimit="10" stroke-width="2.5"/><path fill="none" stroke="rgb(0,0,0)" paint-order="fill stroke markers" d=" M 241.86344640471683 350.6374211426679 L 192.939019802851 254.07553807066438" stroke-opacity="0.6980392156862745" stroke-linecap="round" stroke-linejoin="round" stroke-miterlimit="10" stroke-width="2.5"/><path fill="none" stroke="rgb(0,0,0)" paint-order="fill stroke markers" d=" M 168.07377617246954 314.46088973925384 L 241.86344640471683 350.6374211426679" stroke-opacity="0.6980392156862745" stroke-linecap="round" stroke-linejoin="round" stroke-miterlimit="10" stroke-width="2.5"/><path fill="none" stroke="rgb(0,0,0)" paint-order="fill stroke markers" d=" M 229.94755316560034 327.11908542424453 L 145.2008229392715 370.00795556402875" stroke-opacity="0.6980392156862745" stroke-linecap="round" stroke-linejoin="round" stroke-miterlimit="10" stroke-width="2.5"/><path fill="none" stroke="rgb(0,0,0)" paint-order="fill stroke markers" d=" M 168.07377617246954 314.46088973925384 L 293.91755972604864 340.20612973224263" stroke-opacity="0.6980392156862745" stroke-linecap="round" stroke-linejoin="round" stroke-miterlimit="10" stroke-width="2.5"/><path fill="none" stroke="rgb(0,0,0)" paint-order="fill stroke markers" d=" M 216.80160524053338 355.65964420603257 L 192.939019802851 254.07553807066438" stroke-opacity="0.6980392156862745" stroke-linecap="round" stroke-linejoin="round" stroke-miterlimit="10" stroke-width="2.5"/><path fill="none" stroke="rgb(21,101,192)" paint-order="fill stroke markers" d=" M 169.546824146636 54.42853735084782 L 113.93884864283534 142.2121967939545" stroke-opacity="0.6980392156862745" stroke-linecap="round" stroke-linejoin="round" stroke-miterlimit="10" stroke-width="2.5"/><path fill="none" stroke="rgb(21,101,192)" paint-order="fill stroke markers" d=" M 113.93884864283534 142.2121967939545 L 205.704065823748 201.71530271354692" stroke-opacity="0.6980392156862745" stroke-linecap="round" stroke-linejoin="round" stroke-miterlimit="10" stroke-width="2.5"/><path fill="none" stroke="rgb(21,101,192)" paint-order="fill stroke markers" d=" M 205.704065823748 201.71530271354692 L 239.72658142069633 193.68285887103036" stroke-opacity="0.6980392156862745" stroke-linecap="round" stroke-linejoin="round" stroke-miterlimit="10" stroke-width="2.5"/><path fill="none" stroke="rgb(21,101,192)" paint-order="fill stroke markers" d=" M 239.72658142069633 193.68285887103036 L 169.546824146636 54.42853735084782" stroke-opacity="0.6980392156862745" stroke-linecap="round" stroke-linejoin="round" stroke-miterlimit="10" stroke-width="2.5"/><path fill="none" stroke="rgb(21,101,192)" paint-order="fill stroke markers" d=" M 192.939019802851 254.07553807066438 L 168.07377617246954 314.46088973925384" stroke-opacity="0.6980392156862745" stroke-linecap="round" stroke-linejoin="round" stroke-miterlimit="10" stroke-width="2.5"/><path fill="none" stroke="rgb(21,101,192)" paint-order="fill stroke markers" d=" M 168.07377617246954 314.46088973925384 L 212.20638571354567 336.0975867180083" stroke-opacity="0.6980392156862745" stroke-linecap="round" stroke-linejoin="round" stroke-miterlimit="10" stroke-width="2.5"/><path fill="none" stroke="rgb(21,101,192)" paint-order="fill stroke markers" d=" M 212.20638571354567 336.0975867180083 L 229.94755316560034 327.11908542424453" stroke-opacity="0.6980392156862745" stroke-linecap="round" stroke-linejoin="round" stroke-miterlimit="10" stroke-width="2.5"/><path fill="none" stroke="rgb(21,101,192)" paint-order="fill stroke markers" d=" M 229.94755316560034 327.11908542424453 L 192.939019802851 254.07553807066438" stroke-opacity="0.6980392156862745" stroke-linecap="round" stroke-linejoin="round" stroke-miterlimit="10" stroke-width="2.5"/><path fill="rgb(21,101,192)" stroke="none" paint-order="stroke fill markers" d=" M 224.0000000000001 476.49999999999994 C 224.0000000000001 479.2614237491539 221.7614237491541 481.49999999999994 219.0000000000001 481.49999999999994 C 216.23857625084614 481.49999999999994 214.0000000000001 479.2614237491539 214.0000000000001 476.49999999999994 C 214.0000000000001 473.738576250846 216.23857625084614 471.49999999999994 219.0000000000001 471.49999999999994 C 221.7614237491541 471.49999999999994 224.0000000000001 473.738576250846 224.0000000000001 476.49999999999994 Z" fill-opacity="1"/><path fill="none" stroke="rgb(0,0,0)" paint-order="fill stroke markers" d=" M 224.0000000000001 476.49999999999994 C 224.0000000000001 479.2614237491539 221.7614237491541 481.49999999999994 219.0000000000001 481.49999999999994 C 216.23857625084614 481.49999999999994 214.0000000000001 479.2614237491539 214.0000000000001 476.49999999999994 C 214.0000000000001 473.738576250846 216.23857625084614 471.49999999999994 219.0000000000001 471.49999999999994 C 221.7614237491541 471.49999999999994 224.0000000000001 473.738576250846 224.0000000000001 476.49999999999994 Z" stroke-opacity="1" stroke-linecap="round" stroke-linejoin="round" stroke-miterlimit="10"/><text fill="rgb(21,101,192)" stroke="none" font-family="geogebra-sans-serif, sans-serif" font-size="16px" font-style="normal" font-weight="normal" text-decoration="normal" x="249" y="494" text-anchor="start" dominant-baseline="alphabetic" fill-opacity="1">S</text><path fill="rgb(21,101,192)" stroke="none" paint-order="stroke fill markers" d=" M 58.47950587950598 237.65430392348685 C 58.47950587950598 240.41572767264083 56.24092962865994 242.65430392348685 53.47950587950598 242.65430392348685 C 50.71808213035201 242.65430392348685 48.47950587950598 240.41572767264083 48.47950587950598 237.65430392348685 C 48.47950587950598 234.89288017433287 50.71808213035201 232.65430392348685 53.47950587950598 232.65430392348685 C 56.24092962865994 232.65430392348685 58.47950587950598 234.89288017433287 58.47950587950598 237.65430392348685 Z" fill-opacity="1"/><path fill="none" stroke="rgb(0,0,0)" paint-order="fill stroke markers" d=" M 58.47950587950598 237.65430392348685 C 58.47950587950598 240.41572767264083 56.24092962865994 242.65430392348685 53.47950587950598 242.65430392348685 C 50.71808213035201 242.65430392348685 48.47950587950598 240.41572767264083 48.47950587950598 237.65430392348685 C 48.47950587950598 234.89288017433287 50.71808213035201 232.65430392348685 53.47950587950598 232.65430392348685 C 56.24092962865994 232.65430392348685 58.47950587950598 234.89288017433287 58.47950587950598 237.65430392348685 Z" stroke-opacity="1" stroke-linecap="round" stroke-linejoin="round" stroke-miterlimit="10"/><text fill="rgb(21,101,192)" stroke="none" font-family="geogebra-sans-serif, sans-serif" font-size="16px" font-style="normal" font-weight="normal" text-decoration="normal" x="38" y="261" text-anchor="start" dominant-baseline="alphabetic" fill-opacity="1">A</text><path fill="rgb(21,101,192)" stroke="none" paint-order="stroke fill markers" d=" M 174.546824146636 54.42853735084782 C 174.546824146636 57.18996110000178 172.30824789578998 59.42853735084782 169.546824146636 59.42853735084782 C 166.78540039748202 59.42853735084782 164.546824146636 57.18996110000178 164.546824146636 54.42853735084782 C 164.546824146636 51.66711360169385 166.78540039748202 49.42853735084782 169.546824146636 49.42853735084782 C 172.30824789578998 49.42853735084782 174.546824146636 51.66711360169385 174.546824146636 54.42853735084782 Z" fill-opacity="1"/><path fill="none" stroke="rgb(0,0,0)" paint-order="fill stroke markers" d=" M 174.546824146636 54.42853735084782 C 174.546824146636 57.18996110000178 172.30824789578998 59.42853735084782 169.546824146636 59.42853735084782 C 166.78540039748202 59.42853735084782 164.546824146636 57.18996110000178 164.546824146636 54.42853735084782 C 164.546824146636 51.66711360169385 166.78540039748202 49.42853735084782 169.546824146636 49.42853735084782 C 172.30824789578998 49.42853735084782 174.546824146636 51.66711360169385 174.546824146636 54.42853735084782 Z" stroke-opacity="1" stroke-linecap="round" stroke-linejoin="round" stroke-miterlimit="10"/><text fill="rgb(21,101,192)" stroke="none" font-family="geogebra-sans-serif, sans-serif" font-size="16px" font-style="normal" font-weight="normal" text-decoration="normal" x="174" y="44" text-anchor="start" dominant-baseline="alphabetic" fill-opacity="1">L</text><path fill="rgb(21,101,192)" stroke="none" paint-order="stroke fill markers" d=" M 267.2546821335889 238.3842870572424 C 267.2546821335889 241.14571080639638 265.01610588274286 243.3842870572424 262.2546821335889 243.3842870572424 C 259.49325838443497 243.3842870572424 257.2546821335889 241.14571080639638 257.2546821335889 238.3842870572424 C 257.2546821335889 235.62286330808843 259.49325838443497 233.3842870572424 262.2546821335889 233.3842870572424 C 265.01610588274286 233.3842870572424 267.2546821335889 235.62286330808843 267.2546821335889 238.3842870572424 Z" fill-opacity="1"/><path fill="none" stroke="rgb(0,0,0)" paint-order="fill stroke markers" d=" M 267.2546821335889 238.3842870572424 C 267.2546821335889 241.14571080639638 265.01610588274286 243.3842870572424 262.2546821335889 243.3842870572424 C 259.49325838443497 243.3842870572424 257.2546821335889 241.14571080639638 257.2546821335889 238.3842870572424 C 257.2546821335889 235.62286330808843 259.49325838443497 233.3842870572424 262.2546821335889 233.3842870572424 C 265.01610588274286 233.3842870572424 267.2546821335889 235.62286330808843 267.2546821335889 238.3842870572424 Z" stroke-opacity="1" stroke-linecap="round" stroke-linejoin="round" stroke-miterlimit="10"/><text fill="rgb(21,101,192)" stroke="none" font-family="geogebra-sans-serif, sans-serif" font-size="16px" font-style="normal" font-weight="normal" text-decoration="normal" x="264" y="263" text-anchor="start" dominant-baseline="alphabetic" fill-opacity="1">C</text><path fill="rgb(21,101,192)" stroke="none" paint-order="stroke fill markers" d=" M 118.93884864283534 142.2121967939545 C 118.93884864283534 144.97362054310847 116.7002723919893 147.2121967939545 113.93884864283534 147.2121967939545 C 111.17742489368138 147.2121967939545 108.93884864283534 144.97362054310847 108.93884864283534 142.2121967939545 C 108.93884864283534 139.4507730448005 111.17742489368138 137.2121967939545 113.93884864283534 137.2121967939545 C 116.7002723919893 137.2121967939545 118.93884864283534 139.4507730448005 118.93884864283534 142.2121967939545 Z" fill-opacity="1"/><path fill="none" stroke="rgb(0,0,0)" paint-order="fill stroke markers" d=" M 118.93884864283534 142.2121967939545 C 118.93884864283534 144.97362054310847 116.7002723919893 147.2121967939545 113.93884864283534 147.2121967939545 C 111.17742489368138 147.2121967939545 108.93884864283534 144.97362054310847 108.93884864283534 142.2121967939545 C 108.93884864283534 139.4507730448005 111.17742489368138 137.2121967939545 113.93884864283534 137.2121967939545 C 116.7002723919893 137.2121967939545 118.93884864283534 139.4507730448005 118.93884864283534 142.2121967939545 Z" stroke-opacity="1" stroke-linecap="round" stroke-linejoin="round" stroke-miterlimit="10"/><text fill="rgb(21,101,192)" stroke="none" font-family="geogebra-sans-serif, sans-serif" font-size="16px" font-style="normal" font-weight="normal" text-decoration="normal" x="100" y="131" text-anchor="start" dominant-baseline="alphabetic" fill-opacity="1">K</text><path fill="rgb(21,101,192)" stroke="none" paint-order="stroke fill markers" d=" M 244.72658142069633 193.68285887103036 C 244.72658142069633 196.44428262018434 242.4880051698503 198.68285887103036 239.72658142069633 198.68285887103036 C 236.96515767154236 198.68285887103036 234.72658142069633 196.44428262018434 234.72658142069633 193.68285887103036 C 234.72658142069633 190.92143512187639 236.96515767154236 188.68285887103036 239.72658142069633 188.68285887103036 C 242.4880051698503 188.68285887103036 244.72658142069633 190.92143512187639 244.72658142069633 193.68285887103036 Z" fill-opacity="1"/><path fill="none" stroke="rgb(0,0,0)" paint-order="fill stroke markers" d=" M 244.72658142069633 193.68285887103036 C 244.72658142069633 196.44428262018434 242.4880051698503 198.68285887103036 239.72658142069633 198.68285887103036 C 236.96515767154236 198.68285887103036 234.72658142069633 196.44428262018434 234.72658142069633 193.68285887103036 C 234.72658142069633 190.92143512187639 236.96515767154236 188.68285887103036 239.72658142069633 188.68285887103036 C 242.4880051698503 188.68285887103036 244.72658142069633 190.92143512187639 244.72658142069633 193.68285887103036 Z" stroke-opacity="1" stroke-linecap="round" stroke-linejoin="round" stroke-miterlimit="10"/><text fill="rgb(21,101,192)" stroke="none" font-family="geogebra-sans-serif, sans-serif" font-size="16px" font-style="normal" font-weight="normal" text-decoration="normal" x="244" y="184" text-anchor="start" dominant-baseline="alphabetic" fill-opacity="1">M</text><path fill="rgb(21,101,192)" stroke="none" paint-order="stroke fill markers" d=" M 354.71854951317334 238.6901047753528 C 354.71854951317334 241.45152852450678 352.4799732623273 243.6901047753528 349.71854951317334 243.6901047753528 C 346.9571257640194 243.6901047753528 344.71854951317334 241.45152852450678 344.71854951317334 238.6901047753528 C 344.71854951317334 235.92868102619883 346.9571257640194 233.6901047753528 349.71854951317334 233.6901047753528 C 352.4799732623273 233.6901047753528 354.71854951317334 235.92868102619883 354.71854951317334 238.6901047753528 Z" fill-opacity="1"/><path fill="none" stroke="rgb(0,0,0)" paint-order="fill stroke markers" d=" M 354.71854951317334 238.6901047753528 C 354.71854951317334 241.45152852450678 352.4799732623273 243.6901047753528 349.71854951317334 243.6901047753528 C 346.9571257640194 243.6901047753528 344.71854951317334 241.45152852450678 344.71854951317334 238.6901047753528 C 344.71854951317334 235.92868102619883 346.9571257640194 233.6901047753528 349.71854951317334 233.6901047753528 C 352.4799732623273 233.6901047753528 354.71854951317334 235.92868102619883 354.71854951317334 238.6901047753528 Z" stroke-opacity="1" stroke-linecap="round" stroke-linejoin="round" stroke-miterlimit="10"/><text fill="rgb(21,101,192)" stroke="none" font-family="geogebra-sans-serif, sans-serif" font-size="16px" font-style="normal" font-weight="normal" text-decoration="normal" x="353" y="262" text-anchor="start" dominant-baseline="alphabetic" fill-opacity="1">D</text><path fill="rgb(21,101,192)" stroke="none" paint-order="stroke fill markers" d=" M 210.704065823748 201.71530271354692 C 210.704065823748 204.4767264627009 208.465489572902 206.71530271354692 205.704065823748 206.71530271354692 C 202.94264207459403 206.71530271354692 200.704065823748 204.4767264627009 200.704065823748 201.71530271354692 C 200.704065823748 198.95387896439294 202.94264207459403 196.71530271354692 205.704065823748 196.71530271354692 C 208.465489572902 196.71530271354692 210.704065823748 198.95387896439294 210.704065823748 201.71530271354692 Z" fill-opacity="1"/><path fill="none" stroke="rgb(0,0,0)" paint-order="fill stroke markers" d=" M 210.704065823748 201.71530271354692 C 210.704065823748 204.4767264627009 208.465489572902 206.71530271354692 205.704065823748 206.71530271354692 C 202.94264207459403 206.71530271354692 200.704065823748 204.4767264627009 200.704065823748 201.71530271354692 C 200.704065823748 198.95387896439294 202.94264207459403 196.71530271354692 205.704065823748 196.71530271354692 C 208.465489572902 196.71530271354692 210.704065823748 198.95387896439294 210.704065823748 201.71530271354692 Z" stroke-opacity="1" stroke-linecap="round" stroke-linejoin="round" stroke-miterlimit="10"/><text fill="rgb(21,101,192)" stroke="none" font-family="geogebra-sans-serif, sans-serif" font-size="16px" font-style="normal" font-weight="normal" text-decoration="normal" x="191" y="226" text-anchor="start" dominant-baseline="alphabetic" fill-opacity="1">N</text><path fill="rgb(21,101,192)" stroke="none" paint-order="stroke fill markers" d=" M 219.6650397203579 238.21788970614713 C 219.6650397203579 240.9793134553011 217.42646346951187 243.21788970614713 214.6650397203579 243.21788970614713 C 211.90361597120392 243.21788970614713 209.6650397203579 240.9793134553011 209.6650397203579 238.21788970614713 C 209.6650397203579 235.45646595699316 211.90361597120392 233.21788970614713 214.6650397203579 233.21788970614713 C 217.42646346951187 233.21788970614713 219.6650397203579 235.45646595699316 219.6650397203579 238.21788970614713 Z" fill-opacity="1"/><path fill="none" stroke="rgb(0,0,0)" paint-order="fill stroke markers" d=" M 219.6650397203579 238.21788970614713 C 219.6650397203579 240.9793134553011 217.42646346951187 243.21788970614713 214.6650397203579 243.21788970614713 C 211.90361597120392 243.21788970614713 209.6650397203579 240.9793134553011 209.6650397203579 238.21788970614713 C 209.6650397203579 235.45646595699316 211.90361597120392 233.21788970614713 214.6650397203579 233.21788970614713 C 217.42646346951187 233.21788970614713 219.6650397203579 235.45646595699316 219.6650397203579 238.21788970614713 Z" stroke-opacity="1" stroke-linecap="round" stroke-linejoin="round" stroke-miterlimit="10"/><text fill="rgb(21,101,192)" stroke="none" font-family="geogebra-sans-serif, sans-serif" font-size="16px" font-style="normal" font-weight="normal" text-decoration="normal" x="208" y="265" text-anchor="start" dominant-baseline="alphabetic" fill-opacity="1">B</text><path fill="rgb(110,109,115)" stroke="none" paint-order="stroke fill markers" d=" M 150.2008229392715 370.00795556402875 C 150.2008229392715 372.7693793131827 147.96224668842547 375.00795556402875 145.2008229392715 375.00795556402875 C 142.4393991901175 375.00795556402875 140.2008229392715 372.7693793131827 140.2008229392715 370.00795556402875 C 140.2008229392715 367.2465318148748 142.4393991901175 365.00795556402875 145.2008229392715 365.00795556402875 C 147.96224668842547 365.00795556402875 150.2008229392715 367.2465318148748 150.2008229392715 370.00795556402875 Z" fill-opacity="1"/><path fill="none" stroke="rgb(0,0,0)" paint-order="fill stroke markers" d=" M 150.2008229392715 370.00795556402875 C 150.2008229392715 372.7693793131827 147.96224668842547 375.00795556402875 145.2008229392715 375.00795556402875 C 142.4393991901175 375.00795556402875 140.2008229392715 372.7693793131827 140.2008229392715 370.00795556402875 C 140.2008229392715 367.2465318148748 142.4393991901175 365.00795556402875 145.2008229392715 365.00795556402875 C 147.96224668842547 365.00795556402875 150.2008229392715 367.2465318148748 150.2008229392715 370.00795556402875 Z" stroke-opacity="1" stroke-linecap="round" stroke-linejoin="round" stroke-miterlimit="10"/><text fill="rgb(110,109,115)" stroke="none" font-family="geogebra-sans-serif, sans-serif" font-size="16px" font-style="normal" font-weight="normal" text-decoration="normal" x="138" y="398" text-anchor="start" dominant-baseline="alphabetic" fill-opacity="1">A'</text><path fill="rgb(110,109,115)" stroke="none" paint-order="stroke fill markers" d=" M 197.939019802851 254.07553807066438 C 197.939019802851 256.8369618198183 195.70044355200497 259.0755380706644 192.939019802851 259.0755380706644 C 190.17759605369702 259.0755380706644 187.939019802851 256.8369618198183 187.939019802851 254.07553807066438 C 187.939019802851 251.3141143215104 190.17759605369702 249.07553807066438 192.939019802851 249.07553807066438 C 195.70044355200497 249.07553807066438 197.939019802851 251.3141143215104 197.939019802851 254.07553807066438 Z" fill-opacity="1"/><path fill="none" stroke="rgb(0,0,0)" paint-order="fill stroke markers" d=" M 197.939019802851 254.07553807066438 C 197.939019802851 256.8369618198183 195.70044355200497 259.0755380706644 192.939019802851 259.0755380706644 C 190.17759605369702 259.0755380706644 187.939019802851 256.8369618198183 187.939019802851 254.07553807066438 C 187.939019802851 251.3141143215104 190.17759605369702 249.07553807066438 192.939019802851 249.07553807066438 C 195.70044355200497 249.07553807066438 197.939019802851 251.3141143215104 197.939019802851 254.07553807066438 Z" stroke-opacity="1" stroke-linecap="round" stroke-linejoin="round" stroke-miterlimit="10"/><path fill="rgb(110,109,115)" stroke="none" paint-order="stroke fill markers" d=" M 298.91755972604864 340.20612973224263 C 298.91755972604864 342.9675534813966 296.6789834752026 345.20612973224263 293.91755972604864 345.20612973224263 C 291.1561359768947 345.20612973224263 288.91755972604864 342.9675534813966 288.91755972604864 340.20612973224263 C 288.91755972604864 337.4447059830887 291.1561359768947 335.20612973224263 293.91755972604864 335.20612973224263 C 296.6789834752026 335.20612973224263 298.91755972604864 337.4447059830887 298.91755972604864 340.20612973224263 Z" fill-opacity="1"/><path fill="none" stroke="rgb(0,0,0)" paint-order="fill stroke markers" d=" M 298.91755972604864 340.20612973224263 C 298.91755972604864 342.9675534813966 296.6789834752026 345.20612973224263 293.91755972604864 345.20612973224263 C 291.1561359768947 345.20612973224263 288.91755972604864 342.9675534813966 288.91755972604864 340.20612973224263 C 288.91755972604864 337.4447059830887 291.1561359768947 335.20612973224263 293.91755972604864 335.20612973224263 C 296.6789834752026 335.20612973224263 298.91755972604864 337.4447059830887 298.91755972604864 340.20612973224263 Z" stroke-opacity="1" stroke-linecap="round" stroke-linejoin="round" stroke-miterlimit="10"/><text fill="rgb(110,109,115)" stroke="none" font-family="geogebra-sans-serif, sans-serif" font-size="16px" font-style="normal" font-weight="normal" text-decoration="normal" x="295" y="362" text-anchor="start" dominant-baseline="alphabetic" fill-opacity="1">D'</text><path fill="rgb(110,109,115)" stroke="none" paint-order="stroke fill markers" d=" M 246.86344640471683 350.6374211426679 C 246.86344640471683 353.39884489182185 244.6248701538708 355.6374211426679 241.86344640471683 355.6374211426679 C 239.10202265556285 355.6374211426679 236.86344640471683 353.39884489182185 236.86344640471683 350.6374211426679 C 236.86344640471683 347.87599739351396 239.10202265556285 345.6374211426679 241.86344640471683 345.6374211426679 C 244.6248701538708 345.6374211426679 246.86344640471683 347.87599739351396 246.86344640471683 350.6374211426679 Z" fill-opacity="1"/><path fill="none" stroke="rgb(0,0,0)" paint-order="fill stroke markers" d=" M 246.86344640471683 350.6374211426679 C 246.86344640471683 353.39884489182185 244.6248701538708 355.6374211426679 241.86344640471683 355.6374211426679 C 239.10202265556285 355.6374211426679 236.86344640471683 353.39884489182185 236.86344640471683 350.6374211426679 C 236.86344640471683 347.87599739351396 239.10202265556285 345.6374211426679 241.86344640471683 345.6374211426679 C 244.6248701538708 345.6374211426679 246.86344640471683 347.87599739351396 246.86344640471683 350.6374211426679 Z" stroke-opacity="1" stroke-linecap="round" stroke-linejoin="round" stroke-miterlimit="10"/><text fill="rgb(110,109,115)" stroke="none" font-family="geogebra-sans-serif, sans-serif" font-size="16px" font-style="normal" font-weight="normal" text-decoration="normal" x="240" y="378" text-anchor="start" dominant-baseline="alphabetic" fill-opacity="1">C'</text><path fill="rgb(110,109,115)" stroke="none" paint-order="stroke fill markers" d=" M 173.07377617246954 314.46088973925384 C 173.07377617246954 317.2223134884078 170.8351999216235 319.46088973925384 168.07377617246954 319.46088973925384 C 165.31235242331556 319.46088973925384 163.07377617246954 317.2223134884078 163.07377617246954 314.46088973925384 C 163.07377617246954 311.6994659900999 165.31235242331556 309.46088973925384 168.07377617246954 309.46088973925384 C 170.8351999216235 309.46088973925384 173.07377617246954 311.6994659900999 173.07377617246954 314.46088973925384 Z" fill-opacity="1"/><path fill="none" stroke="rgb(0,0,0)" paint-order="fill stroke markers" d=" M 173.07377617246954 314.46088973925384 C 173.07377617246954 317.2223134884078 170.8351999216235 319.46088973925384 168.07377617246954 319.46088973925384 C 165.31235242331556 319.46088973925384 163.07377617246954 317.2223134884078 163.07377617246954 314.46088973925384 C 163.07377617246954 311.6994659900999 165.31235242331556 309.46088973925384 168.07377617246954 309.46088973925384 C 170.8351999216235 309.46088973925384 173.07377617246954 311.6994659900999 173.07377617246954 314.46088973925384 Z" stroke-opacity="1" stroke-linecap="round" stroke-linejoin="round" stroke-miterlimit="10"/><path fill="rgb(110,109,115)" stroke="none" paint-order="stroke fill markers" d=" M 234.94755316560034 327.11908542424453 C 234.94755316560034 329.8805091733985 232.70897691475432 332.11908542424453 229.94755316560034 332.11908542424453 C 227.18612941644636 332.11908542424453 224.94755316560034 329.8805091733985 224.94755316560034 327.11908542424453 C 224.94755316560034 324.3576616750906 227.18612941644636 322.11908542424453 229.94755316560034 322.11908542424453 C 232.70897691475432 322.11908542424453 234.94755316560034 324.3576616750906 234.94755316560034 327.11908542424453 Z" fill-opacity="1"/><path fill="none" stroke="rgb(0,0,0)" paint-order="fill stroke markers" d=" M 234.94755316560034 327.11908542424453 C 234.94755316560034 329.8805091733985 232.70897691475432 332.11908542424453 229.94755316560034 332.11908542424453 C 227.18612941644636 332.11908542424453 224.94755316560034 329.8805091733985 224.94755316560034 327.11908542424453 C 224.94755316560034 324.3576616750906 227.18612941644636 322.11908542424453 229.94755316560034 322.11908542424453 C 232.70897691475432 322.11908542424453 234.94755316560034 324.3576616750906 234.94755316560034 327.11908542424453 Z" stroke-opacity="1" stroke-linecap="round" stroke-linejoin="round" stroke-miterlimit="10"/><path fill="rgb(110,109,115)" stroke="none" paint-order="stroke fill markers" d=" M 221.80160524053338 355.65964420603257 C 221.80160524053338 358.4210679551865 219.56302898968735 360.65964420603257 216.80160524053338 360.65964420603257 C 214.0401814913794 360.65964420603257 211.80160524053338 358.4210679551865 211.80160524053338 355.65964420603257 C 211.80160524053338 352.8982204568786 214.0401814913794 350.65964420603257 216.80160524053338 350.65964420603257 C 219.56302898968735 350.65964420603257 221.80160524053338 352.8982204568786 221.80160524053338 355.65964420603257 Z" fill-opacity="1"/><path fill="none" stroke="rgb(0,0,0)" paint-order="fill stroke markers" d=" M 221.80160524053338 355.65964420603257 C 221.80160524053338 358.4210679551865 219.56302898968735 360.65964420603257 216.80160524053338 360.65964420603257 C 214.0401814913794 360.65964420603257 211.80160524053338 358.4210679551865 211.80160524053338 355.65964420603257 C 211.80160524053338 352.8982204568786 214.0401814913794 350.65964420603257 216.80160524053338 350.65964420603257 C 219.56302898968735 350.65964420603257 221.80160524053338 352.8982204568786 221.80160524053338 355.65964420603257 Z" stroke-opacity="1" stroke-linecap="round" stroke-linejoin="round" stroke-miterlimit="10"/><text fill="rgb(110,109,115)" stroke="none" font-family="geogebra-sans-serif, sans-serif" font-size="16px" font-style="normal" font-weight="normal" text-decoration="normal" x="211" y="385" text-anchor="start" dominant-baseline="alphabetic" fill-opacity="1">B'</text><path fill="rgb(110,109,115)" stroke="none" paint-order="stroke fill markers" d=" M 217.20638571354567 336.0975867180083 C 217.20638571354567 338.85901046716225 214.96780946269965 341.0975867180083 212.20638571354567 341.0975867180083 C 209.4449619643917 341.0975867180083 207.20638571354567 338.85901046716225 207.20638571354567 336.0975867180083 C 207.20638571354567 333.33616296885435 209.4449619643917 331.0975867180083 212.20638571354567 331.0975867180083 C 214.96780946269965 331.0975867180083 217.20638571354567 333.33616296885435 217.20638571354567 336.0975867180083 Z" fill-opacity="1"/><path fill="none" stroke="rgb(0,0,0)" paint-order="fill stroke markers" d=" M 217.20638571354567 336.0975867180083 C 217.20638571354567 338.85901046716225 214.96780946269965 341.0975867180083 212.20638571354567 341.0975867180083 C 209.4449619643917 341.0975867180083 207.20638571354567 338.85901046716225 207.20638571354567 336.0975867180083 C 207.20638571354567 333.33616296885435 209.4449619643917 331.0975867180083 212.20638571354567 331.0975867180083 C 214.96780946269965 331.0975867180083 217.20638571354567 333.33616296885435 217.20638571354567 336.0975867180083 Z" stroke-opacity="1" stroke-linecap="round" stroke-linejoin="round" stroke-miterlimit="10"/></g></g></svg>