<svg version="1.1" xmlns="http://www.w3.org/2000/svg" xmlns:xlink="http://www.w3.org/1999/xlink" width="538" height="425"><defs><clipPath id="qgDaNhSDPkMZ"><path fill="none" stroke="none" d=" M 0 0 L 538 0 L 538 425 L 0 425 L 0 0 Z"/></clipPath></defs><g transform="scale(1,1)" clip-path="url(#qgDaNhSDPkMZ)"><g><rect fill="rgb(255,255,255)" stroke="none" x="0" y="0" width="538" height="425" fill-opacity="1"/><path fill="none" stroke="rgb(0,0,0)" paint-order="fill stroke markers" d=" M -5 316.62674173130983 L 543 316.62674173130983" stroke-opacity="0.6980392156862745" stroke-linecap="round" stroke-linejoin="round" stroke-miterlimit="10" stroke-width="2.5"/><path fill="none" stroke="rgb(180,179,186)" paint-order="fill stroke markers" d=" M -5 410.96030594336344 L 255.00987380366138 -5" stroke-opacity="0.6980392156862745" stroke-linecap="round" stroke-linejoin="round" stroke-miterlimit="10" stroke-width="2.5"/><path fill="none" stroke="rgb(180,179,186)" paint-order="fill stroke markers" d=" M 326.1627012970248 430 L 179.5276411925697 -5" stroke-opacity="0.6980392156862745" stroke-linecap="round" stroke-linejoin="round" stroke-miterlimit="10" stroke-width="2.5"/><path fill="none" stroke="rgb(180,179,186)" paint-order="fill stroke markers" d=" M 32.35903748241458 430 L 417.35871689823307 -5" stroke-opacity="0.6980392156862745" stroke-linecap="round" stroke-linejoin="round" stroke-miterlimit="10" stroke-width="2.5"/><path fill="none" stroke="rgb(180,179,186)" paint-order="fill stroke markers" d=" M 195.9487731727307 430 L 208.17779164705604 -5" stroke-opacity="0.6980392156862745" stroke-linecap="round" stroke-linejoin="round" stroke-miterlimit="10" stroke-width="2.5"/><path fill="none" stroke="rgb(180,179,186)" paint-order="fill stroke markers" d=" M 280.40548896010574 430 L 100.18364471889642 -5" stroke-opacity="0.6980392156862745" stroke-linecap="round" stroke-linejoin="round" stroke-miterlimit="10" stroke-width="2.5"/><path fill="none" stroke="rgb(180,179,186)" paint-order="fill stroke markers" d=" M -5 52.43400939994217 L 543 352.95202178953366" stroke-opacity="0.6980392156862745" stroke-linecap="round" stroke-linejoin="round" stroke-miterlimit="10" stroke-width="2.5"/><path fill="none" stroke="rgb(21,101,192)" paint-order="fill stroke markers" d=" M 203.35107490037154 166.69176653186653 L 203.36117490037154 166.69176653186653 M 2.6522030921214634 435 L 10.364545228216427 435 L 13.107881966676018 431.5131793570323 L 15.831933806214181 428.0500206857232 L 18.520815281253874 424.63071476262826 L 21.175198583095664 421.2544069215842 L 23.795738764749785 417.92026385776643 L 26.383074279873995 414.6274729420179 L 28.9378275013554 411.37524156052655 L 31.4606052204158 408.1627964787305 L 33.95199912708665 404.98938322837085 L 36.41258627284947 401.8542655166783 L 38.84292951620208 398.7567246567178 L 41.2435779518743 395.69605901796587 L 43.61506732437908 392.671583496239 L 45.95792042655498 389.68262900213017 L 48.27264748372042 386.7285419671525 L 50.55974652403472 383.8086838668214 L 52.81970373562871 380.9224307599445 L 55.05299381104405 378.0691728434197 L 57.2600802794922 375.2483140218736 L 59.441415827422475 372.4592714914976 L 61.59744260786306 369.701475337474 L 63.72859253898068 366.9743681444011 L 65.83528759227914 364.27740461915783 L 67.9179400708426 361.6100512256676 L 69.9769528780073 358.971785831043 L 72.01271977682705 356.3620973626172 L 74.02562564068668 353.78048547537765 L 76.0160466953927 351.2264602293483 L 77.98435075306256 348.69954177647367 L 79.93089743811777 346.19926005657476 L 83.76011755255942 341.2767737503548 L 87.5064283975891 336.4554255657955 L 91.17243356588943 331.73177828534364 L 94.76062488518079 327.1025248543001 L 98.27338802689184 322.56448042876497 L 101.71300774836229 318.11457479333865 L 105.08167279223909 313.7498451075897 L 108.38148046447645 309.4674289415401 L 111.6144409102391 305.264557561227 L 114.7824811050283 301.1385494257347 L 117.88744857645833 297.0868038569519 L 120.93111487030149 293.1067948426276 L 123.91517877265503 289.1960649320499 L 126.84126929834278 285.35221918176467 L 129.71094845392022 281.5729191061012 L 132.52571378187298 277.85587658376414 L 135.2870006907474 274.19884766723936 L 137.99618457399492 270.5996262360528 L 140.65458271819398 267.05603742779044 L 143.26345599898121 263.5659307719358 L 145.8240103604107 260.12717294063305 L 148.33739807047525 256.73764001697225 L 150.8047187420653 253.39520916471196 L 153.22702010457436 250.09774956274478 L 155.60529850651457 246.84311244208098 L 157.94049912366705 243.62912003141525 L 160.2335158401784 240.45355317780653 L 162.485190761265 237.31413735949684 L 164.6963133053264 234.2085267456157 L 166.86761880967077 231.1342858787445 L 168.999786566889 228.08886845610812 L 171.09343718706322 225.06959255689696 L 173.14912915295702 222.0736114979319 L 175.16735439905437 219.09787928536883 L 177.14853269797374 216.13910934958184 L 179.093004575463 213.19372488044277 L 181.0010223923866 210.2577985881739 L 182.87273912104664 207.32697905435037 L 184.70819419265626 204.39639994181312 L 186.5072955865466 201.46056710437716 L 188.26979704581217 198.51321693469532 L 189.99526890283997 195.5471368984901 L 191.68306042732166 192.5539358025738 L 193.33225078530228 189.5237464344455 L 194.9415844892981 186.44483601047105 L 196.50938541625362 183.30308912477426 L 198.03344072804882 180.0813115517958 L 199.51084177197782 176.75827788704112 L 200.93776227486677 173.3074057061109 L 202.3091431198245 169.6948732269696 L 203.61823450204065 165.87688726419827 L 204.8559142213448 161.79561734681954 L 206.00964328220857 157.372968712363 L 207.0618119994086 152.5007234856502 L 207.5422858608689 149.85015762919107 L 207.987017192211 147.02431238274426 L 208.39084936058418 143.9920739952252 L 208.7473675083745 140.7148362302365 L 209.0484948148531 137.1440944129067 L 209.2839225220508 133.21804888462282 L 209.4402879904921 128.85670697712965 L 209.49996049778537 123.95464753999693 L 209.48642529916546 121.25835974026649 L 209.43919751534605 118.3700341681589 L 209.35388287362542 115.2634418002497 L 209.22525466877673 111.9073934639257 L 209.0470471676934 108.26450873955204 L 208.81168426889496 104.28959904835855 L 208.5099184400444 99.92751608975294 L 208.13034330251858 95.11024734530696 L 207.90706285629267 92.50519587590486 L 207.65872508158466 89.7529322084371 L 207.38295628068423 86.83930634673447 L 207.07706920452924 83.74829986883998 L 206.738009529406 80.46170698322942 L 206.3622909822941 76.95874794265012 L 205.94591620327827 73.21559746557983 L 205.48427954749377 69.2048055359133 L 204.97204682783587 64.89458079337132 L 204.4030053533613 60.24789691683975 L 204.09495421499622 57.78510989008237 L 203.76987533584708 55.2213688017419 L 203.4266527932739 52.55002327186352 L 203.064070532959 49.76382623991489 L 202.6808008811276 46.85486550945518 L 202.27539143807837 43.814485647081995 L 201.8462500805288 40.63319861186355 L 201.39162774656194 37.30058117135863 L 200.90959861103062 33.80515676745381 L 200.39803717796048 30.134259010690243 L 199.85459171571176 26.27387338120039 L 199.27665333507906 22.20845296604699 L 198.66131985316278 17.920703125132775 L 198.005353387555 13.391328796247365 L 197.30513037394655 8.598736651509569 L 196.93717049255332 6.096272067726716 L 196.55658237937013 3.5186824052879047 L 196.16277642258888 0.8624541083615895 L 195.7551256709634 -1.8761488833924318 L 195.33296283048637 -4.7011030315350695 L 194.89557696644752 -7.616644851180354 L 194.536672536035 -10 M 548 -10 L 548 435 L 274.32900451992134 435 L 274.09622669266923 433.5492781033736 L 273.5669835015581 430.24719471044534 L 273.0509842950502 427.0240613815794 L 272.5477559278336 423.87705864946304 L 272.0568475203513 420.8034997277424 L 271.57782916428147 417.8008227970155 L 271.1102907172889 414.8665838227963 L 270.65384067995893 411.99844986319613 L 270.2081051484374 409.19419282773896 L 269.77272683689995 406.45168365228346 L 269.34736416447225 403.7688868580113 L 268.93169040169727 401.1438554652485 L 268.52539287207134 398.5747262354463 L 267.7397416332408 393.59711357155936 L 266.9881628430814 388.8226553869698 L 266.2685905223758 384.2390405042466 L 265.5791223348195 379.83493288914 L 264.9180036993389 375.599876976368 L 264.2836137181428 371.52421381530405 L 263.6744526829419 367.5990066199219 L 263.08913095662854 363.8159745150641 L 262.5263590569424 360.16743344530596 L 261.9849387931973 356.6462433589838 L 261.4637553278719 353.2457609034566 L 260.96177005239923 349.95979697214955 L 260.47801418136396 346.7825785325746 L 260.01158298198567 343.7087142399951 L 259.561630566582 340.7331634058742 L 259.12736518495325 337.85120794533714 L 258.70804496158513 335.0584269752922 L 258.30297402938703 332.3506737754966 L 257.9114990175958 329.7240548600806 L 257.53300585655876 327.1749109373475 L 257.1669168665359 324.6997995620353 L 256.4698069222454 319.95889530195217 L 255.81618016263405 315.4775710654617 L 255.20248175353402 311.2346431516518 L 254.62553354029512 307.2111724822355 L 254.08248544391657 303.39017497258334 L 253.57077419361676 299.7563756203629 L 253.08808813559583 296.2959988020279 L 252.63233709922483 292.996588706357 L 252.20162649254607 289.8468549703291 L 251.79423495039353 286.8365394849533 L 251.40859497941463 283.95630105954274 L 251.0432761414532 281.19761521200405 L 250.69697039521589 278.55268682027594 L 250.05670267578 273.5761198789657 L 249.47932609767844 268.9761489138781 L 248.95765892871236 264.70997388148265 L 248.48556890847507 260.74104852222564 L 248.05778831896131 257.0379783718806 L 247.6697668280114 253.5736438600705 L 247.3175534007372 250.32449662400424 L 246.99770079363648 247.2699903917667 L 246.70718774865173 244.39211733903747 L 246.4433551748222 241.67502779744967 L 246.2038534691458 239.10471634116266 L 245.78973644064232 234.35610617009036 L 245.45073717927585 230.06223498824087 L 245.1755507973993 226.15570407992675 L 244.955007504986 222.58183791771523 L 244.7815914544458 219.29581697176354 L 244.64908408931126 216.26055243393608 L 244.55229596465327 213.44508814226907 L 244.48686245153976 210.82338318851475 L 244.4490862491281 208.37337345096 L 244.44434294689592 203.91583460415734 L 244.5177750574724 199.95130591707206 L 244.65414303984903 196.3887262822635 L 244.84178111863906 193.15833359004887 L 245.07160960485493 190.2057791320081 L 245.33645758593568 187.48809148621655 L 245.63058786254868 184.9708455856538 L 246.28896779355108 180.43110649735132 L 247.01870199182858 176.41758645033667 L 247.80041419227453 172.81302480104637 L 248.62031079154792 169.53347023706448 L 249.46832397711324 166.51721449610454 L 250.3369492073229 163.717863745162 L 251.22049191720674 161.0998485648979 L 253.0157430283269 156.30262968908357 L 254.36608721540497 153.03356140474614 L 255.71952203927063 149.97286831329185 L 257.0711146371027 147.08641218151686 L 258.4172428121936 144.34802162387416 L 259.75522128903464 141.7372585560535 L 261.0830476017937 139.23789785271592 L 263.7026382227472 134.52349652755356 L 266.2680869072406 130.12590497882502 L 268.7751696764889 125.99024330071373 L 271.2219026503604 122.0767926529478 L 273.607695377305 118.35581385247366 L 275.9328399031192 114.8043787103519 L 278.1981916536532 111.40435523582283 L 280.4049644716464 108.14108284300019 L 282.55459597795584 105.00247541184586 L 284.64865755017274 101.97839815611434 L 286.6887933307945 99.06022464561221 L 288.67667853488456 96.2405153195624 L 290.6139908271738 93.51277975756238 L 292.502390689215 90.87129785477975 L 294.3435080520502 88.31098317840957 L 296.1389333425868 85.8272770333096 L 297.8902116654173 83.41606522693539 L 299.59883922557106 81.07361184998237 L 301.26626135867343 78.79650597941128 L 302.89387171510236 76.58161831503472 L 304.483012270697 74.42606553927806 L 304.8744388897589 73.89613150945326 L 305.27071607057707 73.36002323531207 L 305.73015703429496 72.73894945842551 L 306.26174762196644 72.02098333035178 L 307.34631143996467 70.55824247506857 L 309.0174477666267 68.30960884490398 L 310.7580484833863 65.97384931356683 L 312.5724771441473 63.54546870010927 L 314.465470876978 61.01850147287948 L 316.4421812349846 58.38646031537692 L 318.5082205275774 55.642277791909265 L 320.66971450951223 52.77824000836421 L 322.9333624693796 49.78591095655901 L 325.3065059589389 46.65604597915927 L 327.79720764856137 43.37849248511807 L 330.4143420931613 39.942075668975065 L 333.1677005616296 36.3344665232201 L 336.0681125393661 32.54202885805711 L 339.1275870819858 28.549641327148294 L 342.3594779099639 24.340489561852337 L 345.7786770301452 19.895822388139607 L 349.40184280535493 15.194664670933435 L 353.24766984090405 10.213477508049493 L 355.26055793402423 7.609718050357287 L 357.3372099150096 4.9257541562670895 L 359.4806884525074 2.1577295771784293 L 361.69425558269876 -0.6984629529088124 L 363.9813892001045 -3.647202480475414 L 366.34580121278077 -6.693162691147904 L 368.7914575612405 -9.84133711492575 L 368.9148088319446 -10 M 203.35107490037154 166.69176653186653 L 203.36117490037154 166.69176653186653" stroke-opacity="0.6980392156862745" stroke-linecap="round" stroke-linejoin="round" stroke-miterlimit="10" stroke-width="2.5"/><path fill="rgb(21,101,192)" stroke="none" paint-order="stroke fill markers" d=" M 58.96634312401264 316.6267417313098 C 58.96634312401264 319.3881654804637 56.7277668731666 321.6267417313098 53.96634312401264 321.6267417313098 C 51.20491937485867 321.6267417313098 48.96634312401264 319.3881654804637 48.96634312401264 316.6267417313098 C 48.96634312401264 313.86531798215583 51.20491937485867 311.6267417313098 53.96634312401264 311.6267417313098 C 56.7277668731666 311.6267417313098 58.96634312401264 313.86531798215583 58.96634312401264 316.6267417313098 Z" fill-opacity="1"/><path fill="none" stroke="rgb(0,0,0)" paint-order="fill stroke markers" d=" M 58.96634312401264 316.6267417313098 C 58.96634312401264 319.3881654804637 56.7277668731666 321.6267417313098 53.96634312401264 321.6267417313098 C 51.20491937485867 321.6267417313098 48.96634312401264 319.3881654804637 48.96634312401264 316.6267417313098 C 48.96634312401264 313.86531798215583 51.20491937485867 311.6267417313098 53.96634312401264 311.6267417313098 C 56.7277668731666 311.6267417313098 58.96634312401264 313.86531798215583 58.96634312401264 316.6267417313098 Z" stroke-opacity="1" stroke-linecap="round" stroke-linejoin="round" stroke-miterlimit="10"/><text fill="rgb(21,101,192)" stroke="none" font-family="geogebra-sans-serif, sans-serif" font-size="16px" font-style="normal" font-weight="normal" text-decoration="normal" x="54" y="339" text-anchor="start" dominant-baseline="alphabetic" fill-opacity="1">A</text><path fill="rgb(21,101,192)" stroke="none" paint-order="stroke fill markers" d=" M 238.4345977122476 316.6267417313098 C 238.4345977122476 319.3881654804637 236.19602146140159 321.6267417313098 233.4345977122476 321.6267417313098 C 230.67317396309363 321.6267417313098 228.4345977122476 319.3881654804637 228.4345977122476 316.6267417313098 C 228.4345977122476 313.86531798215583 230.67317396309363 311.6267417313098 233.4345977122476 311.6267417313098 C 236.19602146140159 311.6267417313098 238.4345977122476 313.86531798215583 238.4345977122476 316.6267417313098 Z" fill-opacity="1"/><path fill="none" stroke="rgb(0,0,0)" paint-order="fill stroke markers" d=" M 238.4345977122476 316.6267417313098 C 238.4345977122476 319.3881654804637 236.19602146140159 321.6267417313098 233.4345977122476 321.6267417313098 C 230.67317396309363 321.6267417313098 228.4345977122476 319.3881654804637 228.4345977122476 316.6267417313098 C 228.4345977122476 313.86531798215583 230.67317396309363 311.6267417313098 233.4345977122476 311.6267417313098 C 236.19602146140159 311.6267417313098 238.4345977122476 313.86531798215583 238.4345977122476 316.6267417313098 Z" stroke-opacity="1" stroke-linecap="round" stroke-linejoin="round" stroke-miterlimit="10"/><text fill="rgb(21,101,192)" stroke="none" font-family="geogebra-sans-serif, sans-serif" font-size="16px" font-style="normal" font-weight="normal" text-decoration="normal" x="222" y="340" text-anchor="start" dominant-baseline="alphabetic" fill-opacity="1">B</text><path fill="rgb(21,101,192)" stroke="none" paint-order="stroke fill markers" d=" M 137.70080320143185 316.62674173130983 C 137.70080320143185 319.3881654804638 135.46222695058583 321.62674173130983 132.70080320143185 321.62674173130983 C 129.93937945227788 321.62674173130983 127.70080320143185 319.3881654804638 127.70080320143185 316.62674173130983 C 127.70080320143185 313.8653179821559 129.93937945227788 311.62674173130983 132.70080320143185 311.62674173130983 C 135.46222695058583 311.62674173130983 137.70080320143185 313.8653179821559 137.70080320143185 316.62674173130983 Z" fill-opacity="1"/><path fill="none" stroke="rgb(0,0,0)" paint-order="fill stroke markers" d=" M 137.70080320143185 316.62674173130983 C 137.70080320143185 319.3881654804638 135.46222695058583 321.62674173130983 132.70080320143185 321.62674173130983 C 129.93937945227788 321.62674173130983 127.70080320143185 319.3881654804638 127.70080320143185 316.62674173130983 C 127.70080320143185 313.8653179821559 129.93937945227788 311.62674173130983 132.70080320143185 311.62674173130983 C 135.46222695058583 311.62674173130983 137.70080320143185 313.8653179821559 137.70080320143185 316.62674173130983 Z" stroke-opacity="1" stroke-linecap="round" stroke-linejoin="round" stroke-miterlimit="10"/><text fill="rgb(21,101,192)" stroke="none" font-family="geogebra-sans-serif, sans-serif" font-size="16px" font-style="normal" font-weight="normal" text-decoration="normal" x="127" y="341" text-anchor="start" dominant-baseline="alphabetic" fill-opacity="1">A'</text><path fill="rgb(21,101,192)" stroke="none" paint-order="stroke fill markers" d=" M 292.94547246836436 316.62674173130983 C 292.94547246836436 319.3881654804638 290.7068962175183 321.62674173130983 287.94547246836436 321.62674173130983 C 285.1840487192104 321.62674173130983 282.94547246836436 319.3881654804638 282.94547246836436 316.62674173130983 C 282.94547246836436 313.8653179821559 285.1840487192104 311.62674173130983 287.94547246836436 311.62674173130983 C 290.7068962175183 311.62674173130983 292.94547246836436 313.8653179821559 292.94547246836436 316.62674173130983 Z" fill-opacity="1"/><path fill="none" stroke="rgb(0,0,0)" paint-order="fill stroke markers" d=" M 292.94547246836436 316.62674173130983 C 292.94547246836436 319.3881654804638 290.7068962175183 321.62674173130983 287.94547246836436 321.62674173130983 C 285.1840487192104 321.62674173130983 282.94547246836436 319.3881654804638 282.94547246836436 316.62674173130983 C 282.94547246836436 313.8653179821559 285.1840487192104 311.62674173130983 287.94547246836436 311.62674173130983 C 290.7068962175183 311.62674173130983 292.94547246836436 313.8653179821559 292.94547246836436 316.62674173130983 Z" stroke-opacity="1" stroke-linecap="round" stroke-linejoin="round" stroke-miterlimit="10"/><text fill="rgb(21,101,192)" stroke="none" font-family="geogebra-sans-serif, sans-serif" font-size="16px" font-style="normal" font-weight="normal" text-decoration="normal" x="274" y="339" text-anchor="start" dominant-baseline="alphabetic" fill-opacity="1">B'</text><path fill="rgb(21,101,192)" stroke="none" paint-order="stroke fill markers" d=" M 210.97236407441338 73.44954982394756 C 210.97236407441338 76.21097357310153 208.73378782356735 78.44954982394756 205.97236407441338 78.44954982394756 C 203.2109403252594 78.44954982394756 200.97236407441338 76.21097357310153 200.97236407441338 73.44954982394756 C 200.97236407441338 70.6881260747936 203.2109403252594 68.44954982394756 205.97236407441338 68.44954982394756 C 208.73378782356735 68.44954982394756 210.97236407441338 70.6881260747936 210.97236407441338 73.44954982394756 Z" fill-opacity="1"/><path fill="none" stroke="rgb(0,0,0)" paint-order="fill stroke markers" d=" M 210.97236407441338 73.44954982394756 C 210.97236407441338 76.21097357310153 208.73378782356735 78.44954982394756 205.97236407441338 78.44954982394756 C 203.2109403252594 78.44954982394756 200.97236407441338 76.21097357310153 200.97236407441338 73.44954982394756 C 200.97236407441338 70.6881260747936 203.2109403252594 68.44954982394756 205.97236407441338 68.44954982394756 C 208.73378782356735 68.44954982394756 210.97236407441338 70.6881260747936 210.97236407441338 73.44954982394756 Z" stroke-opacity="1" stroke-linecap="round" stroke-linejoin="round" stroke-miterlimit="10"/><text fill="rgb(21,101,192)" stroke="none" font-family="geogebra-sans-serif, sans-serif" font-size="16px" font-style="normal" font-weight="normal" text-decoration="normal" x="185" y="74" text-anchor="start" dominant-baseline="alphabetic" fill-opacity="1">L</text><path fill="rgb(21,101,192)" stroke="none" paint-order="stroke fill markers" d=" M 250.12601445214344 189.60074792200123 C 250.12601445214344 192.3621716711552 247.8874382012974 194.60074792200123 245.12601445214344 194.60074792200123 C 242.36459070298946 194.60074792200123 240.12601445214344 192.3621716711552 240.12601445214344 189.60074792200123 C 240.12601445214344 186.83932417284726 242.36459070298946 184.60074792200123 245.12601445214344 184.60074792200123 C 247.8874382012974 184.60074792200123 250.12601445214344 186.83932417284726 250.12601445214344 189.60074792200123 Z" fill-opacity="1"/><path fill="none" stroke="rgb(0,0,0)" paint-order="fill stroke markers" d=" M 250.12601445214344 189.60074792200123 C 250.12601445214344 192.3621716711552 247.8874382012974 194.60074792200123 245.12601445214344 194.60074792200123 C 242.36459070298946 194.60074792200123 240.12601445214344 192.3621716711552 240.12601445214344 189.60074792200123 C 240.12601445214344 186.83932417284726 242.36459070298946 184.60074792200123 245.12601445214344 184.60074792200123 C 247.8874382012974 184.60074792200123 250.12601445214344 186.83932417284726 250.12601445214344 189.60074792200123 Z" stroke-opacity="1" stroke-linecap="round" stroke-linejoin="round" stroke-miterlimit="10"/><text fill="rgb(21,101,192)" stroke="none" font-family="geogebra-sans-serif, sans-serif" font-size="16px" font-style="normal" font-weight="normal" text-decoration="normal" x="262" y="198" text-anchor="start" dominant-baseline="alphabetic" fill-opacity="1">M</text><path fill="rgb(21,101,192)" stroke="none" paint-order="stroke fill markers" d=" M 204.1360000000003 316.62674173130983 C 204.1360000000003 319.3881654804638 201.89742374915429 321.62674173130983 199.1360000000003 321.62674173130983 C 196.37457625084633 321.62674173130983 194.1360000000003 319.3881654804638 194.1360000000003 316.62674173130983 C 194.1360000000003 313.8653179821559 196.37457625084633 311.62674173130983 199.1360000000003 311.62674173130983 C 201.89742374915429 311.62674173130983 204.1360000000003 313.8653179821559 204.1360000000003 316.62674173130983 Z" fill-opacity="1"/><path fill="none" stroke="rgb(0,0,0)" paint-order="fill stroke markers" d=" M 204.1360000000003 316.62674173130983 C 204.1360000000003 319.3881654804638 201.89742374915429 321.62674173130983 199.1360000000003 321.62674173130983 C 196.37457625084633 321.62674173130983 194.1360000000003 319.3881654804638 194.1360000000003 316.62674173130983 C 194.1360000000003 313.8653179821559 196.37457625084633 311.62674173130983 199.1360000000003 311.62674173130983 C 201.89742374915429 311.62674173130983 204.1360000000003 313.8653179821559 204.1360000000003 316.62674173130983 Z" stroke-opacity="1" stroke-linecap="round" stroke-linejoin="round" stroke-miterlimit="10"/><text fill="rgb(21,101,192)" stroke="none" font-family="geogebra-sans-serif, sans-serif" font-size="16px" font-style="normal" font-weight="normal" text-decoration="normal" x="178" y="338" text-anchor="start" dominant-baseline="alphabetic" fill-opacity="1">C</text><path fill="rgb(110,109,115)" stroke="none" paint-order="stroke fill markers" d=" M 206.3154559876126 239.10103052220515 C 206.3154559876126 241.86245427135913 204.07687973676659 244.10103052220515 201.3154559876126 244.10103052220515 C 198.55403223845863 244.10103052220515 196.3154559876126 241.86245427135913 196.3154559876126 239.10103052220515 C 196.3154559876126 236.33960677305117 198.55403223845863 234.10103052220515 201.3154559876126 234.10103052220515 C 204.07687973676659 234.10103052220515 206.3154559876126 236.33960677305117 206.3154559876126 239.10103052220515 Z" fill-opacity="1"/><path fill="none" stroke="rgb(0,0,0)" paint-order="fill stroke markers" d=" M 206.3154559876126 239.10103052220515 C 206.3154559876126 241.86245427135913 204.07687973676659 244.10103052220515 201.3154559876126 244.10103052220515 C 198.55403223845863 244.10103052220515 196.3154559876126 241.86245427135913 196.3154559876126 239.10103052220515 C 196.3154559876126 236.33960677305117 198.55403223845863 234.10103052220515 201.3154559876126 234.10103052220515 C 204.07687973676659 234.10103052220515 206.3154559876126 236.33960677305117 206.3154559876126 239.10103052220515 Z" stroke-opacity="1" stroke-linecap="round" stroke-linejoin="round" stroke-miterlimit="10"/><text fill="rgb(110,109,115)" stroke="none" font-family="geogebra-sans-serif, sans-serif" font-size="16px" font-style="normal" font-weight="normal" text-decoration="normal" x="213" y="247" text-anchor="start" dominant-baseline="alphabetic" fill-opacity="1">N</text><path fill="rgb(110,109,115)" stroke="none" paint-order="stroke fill markers" d=" M 166.8979223439272 143.9592500837914 C 166.8979223439272 146.72067383294538 164.65934609308118 148.9592500837914 161.8979223439272 148.9592500837914 C 159.13649859477323 148.9592500837914 156.8979223439272 146.72067383294538 156.8979223439272 143.9592500837914 C 156.8979223439272 141.19782633463743 159.13649859477323 138.9592500837914 161.8979223439272 138.9592500837914 C 164.65934609308118 138.9592500837914 166.8979223439272 141.19782633463743 166.8979223439272 143.9592500837914 Z" fill-opacity="1"/><path fill="none" stroke="rgb(0,0,0)" paint-order="fill stroke markers" d=" M 166.8979223439272 143.9592500837914 C 166.8979223439272 146.72067383294538 164.65934609308118 148.9592500837914 161.8979223439272 148.9592500837914 C 159.13649859477323 148.9592500837914 156.8979223439272 146.72067383294538 156.8979223439272 143.9592500837914 C 156.8979223439272 141.19782633463743 159.13649859477323 138.9592500837914 161.8979223439272 138.9592500837914 C 164.65934609308118 138.9592500837914 166.8979223439272 141.19782633463743 166.8979223439272 143.9592500837914 Z" stroke-opacity="1" stroke-linecap="round" stroke-linejoin="round" stroke-miterlimit="10"/><text fill="rgb(110,109,115)" stroke="none" font-family="geogebra-sans-serif, sans-serif" font-size="16px" font-style="normal" font-weight="normal" text-decoration="normal" x="138" y="156" text-anchor="start" dominant-baseline="alphabetic" fill-opacity="1">K</text><path fill="rgb(110,109,115)" stroke="none" paint-order="stroke fill markers" d=" M 481.7601985530897 316.62674173130983 C 481.7601985530897 319.3881654804638 479.52162230224366 321.62674173130983 476.7601985530897 321.62674173130983 C 473.99877480393576 321.62674173130983 471.7601985530897 319.3881654804638 471.7601985530897 316.62674173130983 C 471.7601985530897 313.8653179821559 473.99877480393576 311.62674173130983 476.7601985530897 311.62674173130983 C 479.52162230224366 311.62674173130983 481.7601985530897 313.8653179821559 481.7601985530897 316.62674173130983 Z" fill-opacity="1"/><path fill="none" stroke="rgb(0,0,0)" paint-order="fill stroke markers" d=" M 481.7601985530897 316.62674173130983 C 481.7601985530897 319.3881654804638 479.52162230224366 321.62674173130983 476.7601985530897 321.62674173130983 C 473.99877480393576 321.62674173130983 471.7601985530897 319.3881654804638 471.7601985530897 316.62674173130983 C 471.7601985530897 313.8653179821559 473.99877480393576 311.62674173130983 476.7601985530897 311.62674173130983 C 479.52162230224366 311.62674173130983 481.7601985530897 313.8653179821559 481.7601985530897 316.62674173130983 Z" stroke-opacity="1" stroke-linecap="round" stroke-linejoin="round" stroke-miterlimit="10"/><text fill="rgb(110,109,115)" stroke="none" font-family="geogebra-sans-serif, sans-serif" font-size="16px" font-style="normal" font-weight="normal" text-decoration="normal" x="463" y="339" text-anchor="start" dominant-baseline="alphabetic" fill-opacity="1">C'</text><path fill="rgb(110,109,115)" stroke="none" paint-order="stroke fill markers" d=" M 208.35107490037154 166.69176653186653 C 208.35107490037154 169.4531902810205 206.11249864952552 171.69176653186653 203.35107490037154 171.69176653186653 C 200.58965115121757 171.69176653186653 198.35107490037154 169.4531902810205 198.35107490037154 166.69176653186653 C 198.35107490037154 163.93034278271256 200.58965115121757 161.69176653186653 203.35107490037154 161.69176653186653 C 206.11249864952552 161.69176653186653 208.35107490037154 163.93034278271256 208.35107490037154 166.69176653186653 Z" fill-opacity="1"/><path fill="none" stroke="rgb(0,0,0)" paint-order="fill stroke markers" d=" M 208.35107490037154 166.69176653186653 C 208.35107490037154 169.4531902810205 206.11249864952552 171.69176653186653 203.35107490037154 171.69176653186653 C 200.58965115121757 171.69176653186653 198.35107490037154 169.4531902810205 198.35107490037154 166.69176653186653 C 198.35107490037154 163.93034278271256 200.58965115121757 161.69176653186653 203.35107490037154 161.69176653186653 C 206.11249864952552 161.69176653186653 208.35107490037154 163.93034278271256 208.35107490037154 166.69176653186653 Z" stroke-opacity="1" stroke-linecap="round" stroke-linejoin="round" stroke-miterlimit="10"/><text fill="rgb(110,109,115)" stroke="none" font-family="geogebra-sans-serif, sans-serif" font-size="16px" font-style="normal" font-weight="normal" text-decoration="normal" x="210" y="162" text-anchor="start" dominant-baseline="alphabetic" fill-opacity="1">P</text></g></g></svg>