<svg version="1.1" xmlns="http://www.w3.org/2000/svg" xmlns:xlink="http://www.w3.org/1999/xlink" width="554" height="308"><defs><clipPath id="pULqPSHIGJcB"><path fill="none" stroke="none" d=" M 0 0 L 554 0 L 554 308 L 0 308 L 0 0 Z"/></clipPath></defs><g transform="scale(1,1)" clip-path="url(#pULqPSHIGJcB)"><g><rect fill="rgb(255,255,255)" stroke="none" x="0" y="0" width="554" height="308" fill-opacity="1"/><path fill="none" stroke="rgb(0,0,0)" paint-order="fill stroke markers" d=" M -5 182.83354919574458 L 559 187.71473645181513" stroke-opacity="0.6980392156862745" stroke-linecap="round" stroke-linejoin="round" stroke-miterlimit="10" stroke-width="2.5"/><path fill="none" stroke="rgb(0,0,0)" paint-order="fill stroke markers" d=" M 260.7195708820274 313 L 29.62640318016435 -5" stroke-opacity="0.6980392156862745" stroke-linecap="round" stroke-linejoin="round" stroke-miterlimit="10" stroke-width="2.5"/><path fill="none" stroke="rgb(0,0,0)" paint-order="fill stroke markers" d=" M 252.7680832470322 313 L 170.35727277333805 -5" stroke-opacity="0.6980392156862745" stroke-linecap="round" stroke-linejoin="round" stroke-miterlimit="10" stroke-width="2.5"/><path fill="none" stroke="rgb(0,0,0)" paint-order="fill stroke markers" d=" M 244.71735002419732 313 L 312.844658696674 -5" stroke-opacity="0.6980392156862745" stroke-linecap="round" stroke-linejoin="round" stroke-miterlimit="10" stroke-width="2.5"/><path fill="none" stroke="rgb(0,0,0)" paint-order="fill stroke markers" d=" M 233.95075406674408 313 L 503.39924183936 -5" stroke-opacity="0.6980392156862745" stroke-linecap="round" stroke-linejoin="round" stroke-miterlimit="10" stroke-width="2.5"/><path fill="none" stroke="rgb(0,0,0)" paint-order="fill stroke markers" d=" M -5 141.33701419338138 L 559 22.29884406316988" stroke-opacity="0.6980392156862745" stroke-linecap="round" stroke-linejoin="round" stroke-miterlimit="10" stroke-width="2.5"/><path fill="none" stroke="rgb(180,179,186)" paint-order="fill stroke markers" d=" M -5 266.83976912004476 L 559 -3.4059515237059372" stroke-opacity="0.6980392156862745" stroke-linecap="round" stroke-linejoin="round" stroke-miterlimit="10" stroke-width="2.5"/><path fill="none" stroke="rgb(180,179,186)" paint-order="fill stroke markers" d=" M -5 30.013534281021354 L 559 221.46092876902088" stroke-opacity="0.6980392156862745" stroke-linecap="round" stroke-linejoin="round" stroke-miterlimit="10" stroke-width="2.5"/><path fill="rgb(21,101,192)" stroke="none" paint-order="stroke fill markers" d=" M 172.20964826369155 184.32395263630687 C 172.20964826369155 187.08537638546085 169.97107201284553 189.32395263630687 167.20964826369155 189.32395263630687 C 164.44822451453757 189.32395263630687 162.20964826369155 187.08537638546085 162.20964826369155 184.32395263630687 C 162.20964826369155 181.5625288871529 164.44822451453757 179.32395263630687 167.20964826369155 179.32395263630687 C 169.97107201284553 179.32395263630687 172.20964826369155 181.5625288871529 172.20964826369155 184.32395263630687 Z" fill-opacity="1"/><path fill="none" stroke="rgb(0,0,0)" paint-order="fill stroke markers" d=" M 172.20964826369155 184.32395263630687 C 172.20964826369155 187.08537638546085 169.97107201284553 189.32395263630687 167.20964826369155 189.32395263630687 C 164.44822451453757 189.32395263630687 162.20964826369155 187.08537638546085 162.20964826369155 184.32395263630687 C 162.20964826369155 181.5625288871529 164.44822451453757 179.32395263630687 167.20964826369155 179.32395263630687 C 169.97107201284553 179.32395263630687 172.20964826369155 181.5625288871529 172.20964826369155 184.32395263630687 Z" stroke-opacity="1" stroke-linecap="round" stroke-linejoin="round" stroke-miterlimit="10"/><text fill="rgb(21,101,192)" stroke="none" font-family="geogebra-sans-serif, sans-serif" font-size="16px" font-style="normal" font-weight="normal" text-decoration="normal" x="171" y="174" text-anchor="start" dominant-baseline="alphabetic" fill-opacity="1">A</text><path fill="rgb(21,101,192)" stroke="none" paint-order="stroke fill markers" d=" M 224.5386030901318 184.7768381459209 C 224.5386030901318 187.53826189507487 222.30002683928578 189.7768381459209 219.5386030901318 189.7768381459209 C 216.77717934097782 189.7768381459209 214.5386030901318 187.53826189507487 214.5386030901318 184.7768381459209 C 214.5386030901318 182.01541439676691 216.77717934097782 179.7768381459209 219.5386030901318 179.7768381459209 C 222.30002683928578 179.7768381459209 224.5386030901318 182.01541439676691 224.5386030901318 184.7768381459209 Z" fill-opacity="1"/><path fill="none" stroke="rgb(0,0,0)" paint-order="fill stroke markers" d=" M 224.5386030901318 184.7768381459209 C 224.5386030901318 187.53826189507487 222.30002683928578 189.7768381459209 219.5386030901318 189.7768381459209 C 216.77717934097782 189.7768381459209 214.5386030901318 187.53826189507487 214.5386030901318 184.7768381459209 C 214.5386030901318 182.01541439676691 216.77717934097782 179.7768381459209 219.5386030901318 179.7768381459209 C 222.30002683928578 179.7768381459209 224.5386030901318 182.01541439676691 224.5386030901318 184.7768381459209 Z" stroke-opacity="1" stroke-linecap="round" stroke-linejoin="round" stroke-miterlimit="10"/><text fill="rgb(21,101,192)" stroke="none" font-family="geogebra-sans-serif, sans-serif" font-size="16px" font-style="normal" font-weight="normal" text-decoration="normal" x="227" y="177" text-anchor="start" dominant-baseline="alphabetic" fill-opacity="1">B</text><path fill="rgb(21,101,192)" stroke="none" paint-order="stroke fill markers" d=" M 277.0900351815374 185.23164910445428 C 277.0900351815374 187.99307285360825 274.85145893069136 190.23164910445428 272.0900351815374 190.23164910445428 C 269.32861143238347 190.23164910445428 267.0900351815374 187.99307285360825 267.0900351815374 185.23164910445428 C 267.0900351815374 182.4702253553003 269.32861143238347 180.23164910445428 272.0900351815374 180.23164910445428 C 274.85145893069136 180.23164910445428 277.0900351815374 182.4702253553003 277.0900351815374 185.23164910445428 Z" fill-opacity="1"/><path fill="none" stroke="rgb(0,0,0)" paint-order="fill stroke markers" d=" M 277.0900351815374 185.23164910445428 C 277.0900351815374 187.99307285360825 274.85145893069136 190.23164910445428 272.0900351815374 190.23164910445428 C 269.32861143238347 190.23164910445428 267.0900351815374 187.99307285360825 267.0900351815374 185.23164910445428 C 267.0900351815374 182.4702253553003 269.32861143238347 180.23164910445428 272.0900351815374 180.23164910445428 C 274.85145893069136 180.23164910445428 277.0900351815374 182.4702253553003 277.0900351815374 185.23164910445428 Z" stroke-opacity="1" stroke-linecap="round" stroke-linejoin="round" stroke-miterlimit="10"/><text fill="rgb(21,101,192)" stroke="none" font-family="geogebra-sans-serif, sans-serif" font-size="16px" font-style="normal" font-weight="normal" text-decoration="normal" x="282" y="179" text-anchor="start" dominant-baseline="alphabetic" fill-opacity="1">C</text><path fill="rgb(21,101,192)" stroke="none" paint-order="stroke fill markers" d=" M 346.7012508678432 185.83410544999964 C 346.7012508678432 188.59552919915362 344.46267461699716 190.83410544999964 341.7012508678432 190.83410544999964 C 338.93982711868927 190.83410544999964 336.7012508678432 188.59552919915362 336.7012508678432 185.83410544999964 C 336.7012508678432 183.07268170084566 338.93982711868927 180.83410544999964 341.7012508678432 180.83410544999964 C 344.46267461699716 180.83410544999964 346.7012508678432 183.07268170084566 346.7012508678432 185.83410544999964 Z" fill-opacity="1"/><path fill="none" stroke="rgb(0,0,0)" paint-order="fill stroke markers" d=" M 346.7012508678432 185.83410544999964 C 346.7012508678432 188.59552919915362 344.46267461699716 190.83410544999964 341.7012508678432 190.83410544999964 C 338.93982711868927 190.83410544999964 336.7012508678432 188.59552919915362 336.7012508678432 185.83410544999964 C 336.7012508678432 183.07268170084566 338.93982711868927 180.83410544999964 341.7012508678432 180.83410544999964 C 344.46267461699716 180.83410544999964 346.7012508678432 183.07268170084566 346.7012508678432 185.83410544999964 Z" stroke-opacity="1" stroke-linecap="round" stroke-linejoin="round" stroke-miterlimit="10"/><text fill="rgb(21,101,192)" stroke="none" font-family="geogebra-sans-serif, sans-serif" font-size="16px" font-style="normal" font-weight="normal" text-decoration="normal" x="366" y="179" text-anchor="start" dominant-baseline="alphabetic" fill-opacity="1">D</text><path fill="rgb(21,101,192)" stroke="none" paint-order="stroke fill markers" d=" M 253.3607779507763 295.9934558809279 C 253.3607779507763 298.75487963008186 251.1222016999303 300.9934558809279 248.3607779507763 300.9934558809279 C 245.59935420162233 300.9934558809279 243.3607779507763 298.75487963008186 243.3607779507763 295.9934558809279 C 243.3607779507763 293.23203213177396 245.59935420162233 290.9934558809279 248.3607779507763 290.9934558809279 C 251.1222016999303 290.9934558809279 253.3607779507763 293.23203213177396 253.3607779507763 295.9934558809279 Z" fill-opacity="1"/><path fill="none" stroke="rgb(0,0,0)" paint-order="fill stroke markers" d=" M 253.3607779507763 295.9934558809279 C 253.3607779507763 298.75487963008186 251.1222016999303 300.9934558809279 248.3607779507763 300.9934558809279 C 245.59935420162233 300.9934558809279 243.3607779507763 298.75487963008186 243.3607779507763 295.9934558809279 C 243.3607779507763 293.23203213177396 245.59935420162233 290.9934558809279 248.3607779507763 290.9934558809279 C 251.1222016999303 290.9934558809279 253.3607779507763 293.23203213177396 253.3607779507763 295.9934558809279 Z" stroke-opacity="1" stroke-linecap="round" stroke-linejoin="round" stroke-miterlimit="10"/><text fill="rgb(21,101,192)" stroke="none" font-family="geogebra-sans-serif, sans-serif" font-size="16px" font-style="normal" font-weight="normal" text-decoration="normal" x="264" y="300" text-anchor="start" dominant-baseline="alphabetic" fill-opacity="1">O</text><path fill="rgb(21,101,192)" stroke="none" paint-order="stroke fill markers" d=" M 122.22403932116336 115.5403369119731 C 122.22403932116336 118.30176066112706 119.98546307031732 120.5403369119731 117.22403932116336 120.5403369119731 C 114.4626155720094 120.5403369119731 112.22403932116336 118.30176066112706 112.22403932116336 115.5403369119731 C 112.22403932116336 112.77891316281914 114.4626155720094 110.5403369119731 117.22403932116336 110.5403369119731 C 119.98546307031732 110.5403369119731 122.22403932116336 112.77891316281914 122.22403932116336 115.5403369119731 Z" fill-opacity="1"/><path fill="none" stroke="rgb(0,0,0)" paint-order="fill stroke markers" d=" M 122.22403932116336 115.5403369119731 C 122.22403932116336 118.30176066112706 119.98546307031732 120.5403369119731 117.22403932116336 120.5403369119731 C 114.4626155720094 120.5403369119731 112.22403932116336 118.30176066112706 112.22403932116336 115.5403369119731 C 112.22403932116336 112.77891316281914 114.4626155720094 110.5403369119731 117.22403932116336 110.5403369119731 C 119.98546307031732 110.5403369119731 122.22403932116336 112.77891316281914 122.22403932116336 115.5403369119731 Z" stroke-opacity="1" stroke-linecap="round" stroke-linejoin="round" stroke-miterlimit="10"/><text fill="rgb(21,101,192)" stroke="none" font-family="geogebra-sans-serif, sans-serif" font-size="16px" font-style="normal" font-weight="normal" text-decoration="normal" x="121" y="106" text-anchor="start" dominant-baseline="alphabetic" fill-opacity="1">A'</text><path fill="rgb(21,101,192)" stroke="none" paint-order="stroke fill markers" d=" M 468.12182022815125 42.53494880688683 C 468.12182022815125 45.296372556040794 465.8832439773052 47.53494880688683 463.12182022815125 47.53494880688683 C 460.3603964789973 47.53494880688683 458.12182022815125 45.296372556040794 458.12182022815125 42.53494880688683 C 458.12182022815125 39.77352505773286 460.3603964789973 37.53494880688683 463.12182022815125 37.53494880688683 C 465.8832439773052 37.53494880688683 468.12182022815125 39.77352505773286 468.12182022815125 42.53494880688683 Z" fill-opacity="1"/><path fill="none" stroke="rgb(0,0,0)" paint-order="fill stroke markers" d=" M 468.12182022815125 42.53494880688683 C 468.12182022815125 45.296372556040794 465.8832439773052 47.53494880688683 463.12182022815125 47.53494880688683 C 460.3603964789973 47.53494880688683 458.12182022815125 45.296372556040794 458.12182022815125 42.53494880688683 C 458.12182022815125 39.77352505773286 460.3603964789973 37.53494880688683 463.12182022815125 37.53494880688683 C 465.8832439773052 37.53494880688683 468.12182022815125 39.77352505773286 468.12182022815125 42.53494880688683 Z" stroke-opacity="1" stroke-linecap="round" stroke-linejoin="round" stroke-miterlimit="10"/><text fill="rgb(21,101,192)" stroke="none" font-family="geogebra-sans-serif, sans-serif" font-size="16px" font-style="normal" font-weight="normal" text-decoration="normal" x="458" y="25" text-anchor="start" dominant-baseline="alphabetic" fill-opacity="1">D'</text><path fill="rgb(110,109,115)" stroke="none" paint-order="stroke fill markers" d=" M 202.22016681444265 98.65630741852789 C 202.22016681444265 101.41773116768185 199.98159056359663 103.65630741852789 197.22016681444265 103.65630741852789 C 194.45874306528867 103.65630741852789 192.22016681444265 101.41773116768185 192.22016681444265 98.65630741852789 C 192.22016681444265 95.89488366937393 194.45874306528867 93.65630741852789 197.22016681444265 93.65630741852789 C 199.98159056359663 93.65630741852789 202.22016681444265 95.89488366937393 202.22016681444265 98.65630741852789 Z" fill-opacity="1"/><path fill="none" stroke="rgb(0,0,0)" paint-order="fill stroke markers" d=" M 202.22016681444265 98.65630741852789 C 202.22016681444265 101.41773116768185 199.98159056359663 103.65630741852789 197.22016681444265 103.65630741852789 C 194.45874306528867 103.65630741852789 192.22016681444265 101.41773116768185 192.22016681444265 98.65630741852789 C 192.22016681444265 95.89488366937393 194.45874306528867 93.65630741852789 197.22016681444265 93.65630741852789 C 199.98159056359663 93.65630741852789 202.22016681444265 95.89488366937393 202.22016681444265 98.65630741852789 Z" stroke-opacity="1" stroke-linecap="round" stroke-linejoin="round" stroke-miterlimit="10"/><text fill="rgb(110,109,115)" stroke="none" font-family="geogebra-sans-serif, sans-serif" font-size="16px" font-style="normal" font-weight="normal" text-decoration="normal" x="201" y="89" text-anchor="start" dominant-baseline="alphabetic" fill-opacity="1">B'</text><path fill="rgb(110,109,115)" stroke="none" paint-order="stroke fill markers" d=" M 300.0617593068371 78.00580363675402 C 300.0617593068371 80.76722738590799 297.823183055991 83.00580363675402 295.0617593068371 83.00580363675402 C 292.3003355576831 83.00580363675402 290.0617593068371 80.76722738590799 290.0617593068371 78.00580363675402 C 290.0617593068371 75.24437988760006 292.3003355576831 73.00580363675402 295.0617593068371 73.00580363675402 C 297.823183055991 73.00580363675402 300.0617593068371 75.24437988760006 300.0617593068371 78.00580363675402 Z" fill-opacity="1"/><path fill="none" stroke="rgb(0,0,0)" paint-order="fill stroke markers" d=" M 300.0617593068371 78.00580363675402 C 300.0617593068371 80.76722738590799 297.823183055991 83.00580363675402 295.0617593068371 83.00580363675402 C 292.3003355576831 83.00580363675402 290.0617593068371 80.76722738590799 290.0617593068371 78.00580363675402 C 290.0617593068371 75.24437988760006 292.3003355576831 73.00580363675402 295.0617593068371 73.00580363675402 C 297.823183055991 73.00580363675402 300.0617593068371 75.24437988760006 300.0617593068371 78.00580363675402 Z" stroke-opacity="1" stroke-linecap="round" stroke-linejoin="round" stroke-miterlimit="10"/><text fill="rgb(110,109,115)" stroke="none" font-family="geogebra-sans-serif, sans-serif" font-size="16px" font-style="normal" font-weight="normal" text-decoration="normal" x="302" y="68" text-anchor="start" dominant-baseline="alphabetic" fill-opacity="1">C'</text><path fill="rgb(110,109,115)" stroke="none" paint-order="stroke fill markers" d=" M 289.304717942552 128.21678687532489 C 289.304717942552 130.97821062447886 287.0661416917059 133.21678687532489 284.304717942552 133.21678687532489 C 281.543294193398 133.21678687532489 279.304717942552 130.97821062447886 279.304717942552 128.21678687532489 C 279.304717942552 125.45536312617092 281.543294193398 123.21678687532489 284.304717942552 123.21678687532489 C 287.0661416917059 123.21678687532489 289.304717942552 125.45536312617092 289.304717942552 128.21678687532489 Z" fill-opacity="1"/><path fill="none" stroke="rgb(0,0,0)" paint-order="fill stroke markers" d=" M 289.304717942552 128.21678687532489 C 289.304717942552 130.97821062447886 287.0661416917059 133.21678687532489 284.304717942552 133.21678687532489 C 281.543294193398 133.21678687532489 279.304717942552 130.97821062447886 279.304717942552 128.21678687532489 C 279.304717942552 125.45536312617092 281.543294193398 123.21678687532489 284.304717942552 123.21678687532489 C 287.0661416917059 123.21678687532489 289.304717942552 125.45536312617092 289.304717942552 128.21678687532489 Z" stroke-opacity="1" stroke-linecap="round" stroke-linejoin="round" stroke-miterlimit="10"/><text fill="rgb(110,109,115)" stroke="none" font-family="geogebra-sans-serif, sans-serif" font-size="16px" font-style="normal" font-weight="normal" text-decoration="normal" x="302" y="138" text-anchor="start" dominant-baseline="alphabetic" fill-opacity="1">S</text><path fill="rgb(110,109,115)" stroke="none" paint-order="stroke fill markers" d=" M 79.741488746274 57.081442531142415 C 79.741488746274 59.84286628029638 77.50291249542796 62.081442531142415 74.741488746274 62.081442531142415 C 71.98006499712004 62.081442531142415 69.741488746274 59.84286628029638 69.741488746274 57.081442531142415 C 69.741488746274 54.320018781988445 71.98006499712004 52.081442531142415 74.741488746274 52.081442531142415 C 77.50291249542796 52.081442531142415 79.741488746274 54.320018781988445 79.741488746274 57.081442531142415 Z" fill-opacity="1"/><path fill="none" stroke="rgb(0,0,0)" paint-order="fill stroke markers" d=" M 79.741488746274 57.081442531142415 C 79.741488746274 59.84286628029638 77.50291249542796 62.081442531142415 74.741488746274 62.081442531142415 C 71.98006499712004 62.081442531142415 69.741488746274 59.84286628029638 69.741488746274 57.081442531142415 C 69.741488746274 54.320018781988445 71.98006499712004 52.081442531142415 74.741488746274 52.081442531142415 C 77.50291249542796 52.081442531142415 79.741488746274 54.320018781988445 79.741488746274 57.081442531142415 Z" stroke-opacity="1" stroke-linecap="round" stroke-linejoin="round" stroke-miterlimit="10"/><text fill="rgb(110,109,115)" stroke="none" font-family="geogebra-sans-serif, sans-serif" font-size="16px" font-style="normal" font-weight="normal" text-decoration="normal" x="79" y="47" text-anchor="start" dominant-baseline="alphabetic" fill-opacity="1">E</text><path fill="rgb(110,109,115)" stroke="none" paint-order="stroke fill markers" d=" M 218.65397694586164 162.0697308729589 C 218.65397694586164 164.83115462211288 216.41540069501562 167.0697308729589 213.65397694586164 167.0697308729589 C 210.89255319670767 167.0697308729589 208.65397694586164 164.83115462211288 208.65397694586164 162.0697308729589 C 208.65397694586164 159.30830712380492 210.89255319670767 157.0697308729589 213.65397694586164 157.0697308729589 C 216.41540069501562 157.0697308729589 218.65397694586164 159.30830712380492 218.65397694586164 162.0697308729589 Z" fill-opacity="1"/><path fill="none" stroke="rgb(0,0,0)" paint-order="fill stroke markers" d=" M 218.65397694586164 162.0697308729589 C 218.65397694586164 164.83115462211288 216.41540069501562 167.0697308729589 213.65397694586164 167.0697308729589 C 210.89255319670767 167.0697308729589 208.65397694586164 164.83115462211288 208.65397694586164 162.0697308729589 C 208.65397694586164 159.30830712380492 210.89255319670767 157.0697308729589 213.65397694586164 157.0697308729589 C 216.41540069501562 157.0697308729589 218.65397694586164 159.30830712380492 218.65397694586164 162.0697308729589 Z" stroke-opacity="1" stroke-linecap="round" stroke-linejoin="round" stroke-miterlimit="10"/><text fill="rgb(110,109,115)" stroke="none" font-family="geogebra-sans-serif, sans-serif" font-size="16px" font-style="normal" font-weight="normal" text-decoration="normal" x="218" y="152" text-anchor="start" dominant-baseline="alphabetic" fill-opacity="1">F</text></g></g></svg>