<svg version="1.1" xmlns="http://www.w3.org/2000/svg" xmlns:xlink="http://www.w3.org/1999/xlink" width="556" height="343"><defs><clipPath id="ABEcNBaEOOri"><path fill="none" stroke="none" d=" M 0 0 L 556 0 L 556 343 L 0 343 L 0 0 Z"/></clipPath></defs><g transform="scale(1,1)" clip-path="url(#ABEcNBaEOOri)"><g><rect fill="rgb(255,255,255)" stroke="none" x="0" y="0" width="556" height="343" fill-opacity="1"/><path fill="none" stroke="rgb(0,0,0)" paint-order="fill stroke markers" d=" M 256.07657707742936 204.18130686323065 C 256.07657707742936 260.6360034559384 210.31100303980725 306.4015774935606 153.85630644709954 306.4015774935606 C 97.40160985439184 306.4015774935606 51.636035816769706 260.6360034559384 51.636035816769706 204.18130686323065 C 51.636035816769706 147.72661027052288 97.40160985439184 101.96103623290071 153.85630644709954 101.96103623290071 C 210.31100303980725 101.96103623290071 256.07657707742936 147.72661027052288 256.07657707742936 204.18130686323065 Z" stroke-opacity="0.6980392156862745" stroke-linecap="round" stroke-linejoin="round" stroke-miterlimit="10" stroke-width="2.5"/><path fill="none" stroke="rgb(0,0,0)" paint-order="fill stroke markers" d=" M 537.4000882124496 154.0097100117518 C 537.4000882124496 237.1107983274406 470.0333456833633 304.47754085652707 386.93225736767454 304.47754085652707 C 303.8311690519858 304.47754085652707 236.46442652289943 237.1107983274406 236.46442652289943 154.0097100117518 C 236.46442652289943 70.90862169606297 303.8311690519858 3.5418791669765426 386.93225736767454 3.5418791669765426 C 470.0333456833633 3.5418791669765426 537.4000882124496 70.90862169606297 537.4000882124496 154.0097100117518 Z" stroke-opacity="0.6980392156862745" stroke-linecap="round" stroke-linejoin="round" stroke-miterlimit="10" stroke-width="2.5"/><path fill="none" stroke="rgb(0,0,0)" paint-order="fill stroke markers" d=" M -5 292.70331569021295 L 561 299.922703445315" stroke-opacity="0.6980392156862745" stroke-linecap="round" stroke-linejoin="round" stroke-miterlimit="10" stroke-width="2.5"/><path fill="none" stroke="rgb(0,0,0)" paint-order="fill stroke markers" d=" M 280.59874895766495 348 L 204.6124723014035 -5" stroke-opacity="0.6980392156862745" stroke-linecap="round" stroke-linejoin="round" stroke-miterlimit="10" stroke-width="2.5"/><path fill="rgb(21,101,192)" stroke="none" paint-order="stroke fill markers" d=" M 110.25717547857496 294.1096572141744 C 110.25717547857496 296.8710809633283 108.01859922772893 299.1096572141744 105.25717547857496 299.1096572141744 C 102.495751729421 299.1096572141744 100.25717547857496 296.8710809633283 100.25717547857496 294.1096572141744 C 100.25717547857496 291.3482334650204 102.495751729421 289.1096572141744 105.25717547857496 289.1096572141744 C 108.01859922772893 289.1096572141744 110.25717547857496 291.3482334650204 110.25717547857496 294.1096572141744 Z" fill-opacity="1"/><path fill="none" stroke="rgb(0,0,0)" paint-order="fill stroke markers" d=" M 110.25717547857496 294.1096572141744 C 110.25717547857496 296.8710809633283 108.01859922772893 299.1096572141744 105.25717547857496 299.1096572141744 C 102.495751729421 299.1096572141744 100.25717547857496 296.8710809633283 100.25717547857496 294.1096572141744 C 100.25717547857496 291.3482334650204 102.495751729421 289.1096572141744 105.25717547857496 289.1096572141744 C 108.01859922772893 289.1096572141744 110.25717547857496 291.3482334650204 110.25717547857496 294.1096572141744 Z" stroke-opacity="1" stroke-linecap="round" stroke-linejoin="round" stroke-miterlimit="10"/><text fill="rgb(21,101,192)" stroke="none" font-family="geogebra-sans-serif, sans-serif" font-size="16px" font-style="normal" font-weight="normal" text-decoration="normal" x="93" y="316" text-anchor="start" dominant-baseline="alphabetic" fill-opacity="1">A</text><path fill="rgb(21,101,192)" stroke="none" paint-order="stroke fill markers" d=" M 434.7763340059978 298.2489321953915 C 434.7763340059978 301.01035594454544 432.53775775515174 303.2489321953915 429.7763340059978 303.2489321953915 C 427.01491025684385 303.2489321953915 424.7763340059978 301.01035594454544 424.7763340059978 298.2489321953915 C 424.7763340059978 295.48750844623754 427.01491025684385 293.2489321953915 429.7763340059978 293.2489321953915 C 432.53775775515174 293.2489321953915 434.7763340059978 295.48750844623754 434.7763340059978 298.2489321953915 Z" fill-opacity="1"/><path fill="none" stroke="rgb(0,0,0)" paint-order="fill stroke markers" d=" M 434.7763340059978 298.2489321953915 C 434.7763340059978 301.01035594454544 432.53775775515174 303.2489321953915 429.7763340059978 303.2489321953915 C 427.01491025684385 303.2489321953915 424.7763340059978 301.01035594454544 424.7763340059978 298.2489321953915 C 424.7763340059978 295.48750844623754 427.01491025684385 293.2489321953915 429.7763340059978 293.2489321953915 C 432.53775775515174 293.2489321953915 434.7763340059978 295.48750844623754 434.7763340059978 298.2489321953915 Z" stroke-opacity="1" stroke-linecap="round" stroke-linejoin="round" stroke-miterlimit="10"/><text fill="rgb(21,101,192)" stroke="none" font-family="geogebra-sans-serif, sans-serif" font-size="16px" font-style="normal" font-weight="normal" text-decoration="normal" x="439" y="321" text-anchor="start" dominant-baseline="alphabetic" fill-opacity="1">B</text><path fill="rgb(21,101,192)" stroke="none" paint-order="stroke fill markers" d=" M 205.14590914799194 295.3199726946516 C 205.14590914799194 298.08139644380555 202.90733289714592 300.3199726946516 200.14590914799194 300.3199726946516 C 197.38448539883797 300.3199726946516 195.14590914799194 298.08139644380555 195.14590914799194 295.3199726946516 C 195.14590914799194 292.55854894549765 197.38448539883797 290.3199726946516 200.14590914799194 290.3199726946516 C 202.90733289714592 290.3199726946516 205.14590914799194 292.55854894549765 205.14590914799194 295.3199726946516 Z" fill-opacity="1"/><path fill="none" stroke="rgb(0,0,0)" paint-order="fill stroke markers" d=" M 205.14590914799194 295.3199726946516 C 205.14590914799194 298.08139644380555 202.90733289714592 300.3199726946516 200.14590914799194 300.3199726946516 C 197.38448539883797 300.3199726946516 195.14590914799194 298.08139644380555 195.14590914799194 295.3199726946516 C 195.14590914799194 292.55854894549765 197.38448539883797 290.3199726946516 200.14590914799194 290.3199726946516 C 202.90733289714592 290.3199726946516 205.14590914799194 292.55854894549765 205.14590914799194 295.3199726946516 Z" stroke-opacity="1" stroke-linecap="round" stroke-linejoin="round" stroke-miterlimit="10"/><text fill="rgb(21,101,192)" stroke="none" font-family="geogebra-sans-serif, sans-serif" font-size="16px" font-style="normal" font-weight="normal" text-decoration="normal" x="198" y="314" text-anchor="start" dominant-baseline="alphabetic" fill-opacity="1">A'</text><path fill="rgb(21,101,192)" stroke="none" paint-order="stroke fill markers" d=" M 345.42314583987996 297.1092231626604 C 345.42314583987996 299.87064691181433 343.1845695890339 302.1092231626604 340.42314583987996 302.1092231626604 C 337.661722090726 302.1092231626604 335.42314583987996 299.87064691181433 335.42314583987996 297.1092231626604 C 335.42314583987996 294.34779941350644 337.661722090726 292.1092231626604 340.42314583987996 292.1092231626604 C 343.1845695890339 292.1092231626604 345.42314583987996 294.34779941350644 345.42314583987996 297.1092231626604 Z" fill-opacity="1"/><path fill="none" stroke="rgb(0,0,0)" paint-order="fill stroke markers" d=" M 345.42314583987996 297.1092231626604 C 345.42314583987996 299.87064691181433 343.1845695890339 302.1092231626604 340.42314583987996 302.1092231626604 C 337.661722090726 302.1092231626604 335.42314583987996 299.87064691181433 335.42314583987996 297.1092231626604 C 335.42314583987996 294.34779941350644 337.661722090726 292.1092231626604 340.42314583987996 292.1092231626604 C 343.1845695890339 292.1092231626604 345.42314583987996 294.34779941350644 345.42314583987996 297.1092231626604 Z" stroke-opacity="1" stroke-linecap="round" stroke-linejoin="round" stroke-miterlimit="10"/><text fill="rgb(21,101,192)" stroke="none" font-family="geogebra-sans-serif, sans-serif" font-size="16px" font-style="normal" font-weight="normal" text-decoration="normal" x="322" y="319" text-anchor="start" dominant-baseline="alphabetic" fill-opacity="1">B'</text><path fill="rgb(21,101,192)" stroke="none" paint-order="stroke fill markers" d=" M 241.77171900826423 144.398214876033 C 241.77171900826423 147.15963862518697 239.5331427574182 149.398214876033 236.77171900826423 149.398214876033 C 234.01029525911025 149.398214876033 231.77171900826423 147.15963862518697 231.77171900826423 144.398214876033 C 231.77171900826423 141.63679112687902 234.01029525911025 139.398214876033 236.77171900826423 139.398214876033 C 239.5331427574182 139.398214876033 241.77171900826423 141.63679112687902 241.77171900826423 144.398214876033 Z" fill-opacity="1"/><path fill="none" stroke="rgb(0,0,0)" paint-order="fill stroke markers" d=" M 241.77171900826423 144.398214876033 C 241.77171900826423 147.15963862518697 239.5331427574182 149.398214876033 236.77171900826423 149.398214876033 C 234.01029525911025 149.398214876033 231.77171900826423 147.15963862518697 231.77171900826423 144.398214876033 C 231.77171900826423 141.63679112687902 234.01029525911025 139.398214876033 236.77171900826423 139.398214876033 C 239.5331427574182 139.398214876033 241.77171900826423 141.63679112687902 241.77171900826423 144.398214876033 Z" stroke-opacity="1" stroke-linecap="round" stroke-linejoin="round" stroke-miterlimit="10"/><text fill="rgb(21,101,192)" stroke="none" font-family="geogebra-sans-serif, sans-serif" font-size="16px" font-style="normal" font-weight="normal" text-decoration="normal" x="246" y="142" text-anchor="start" dominant-baseline="alphabetic" fill-opacity="1">G</text><path fill="rgb(110,109,115)" stroke="none" paint-order="stroke fill markers" d=" M 259.02589233971787 224.55378314470482 C 259.02589233971787 227.3152068938588 256.7873160888719 229.55378314470482 254.0258923397179 229.55378314470482 C 251.26446859056392 229.55378314470482 249.0258923397179 227.3152068938588 249.0258923397179 224.55378314470482 C 249.0258923397179 221.79235939555085 251.26446859056392 219.55378314470482 254.0258923397179 219.55378314470482 C 256.7873160888719 219.55378314470482 259.02589233971787 221.79235939555085 259.02589233971787 224.55378314470482 Z" fill-opacity="1"/><path fill="none" stroke="rgb(0,0,0)" paint-order="fill stroke markers" d=" M 259.02589233971787 224.55378314470482 C 259.02589233971787 227.3152068938588 256.7873160888719 229.55378314470482 254.0258923397179 229.55378314470482 C 251.26446859056392 229.55378314470482 249.0258923397179 227.3152068938588 249.0258923397179 224.55378314470482 C 249.0258923397179 221.79235939555085 251.26446859056392 219.55378314470482 254.0258923397179 219.55378314470482 C 256.7873160888719 219.55378314470482 259.02589233971787 221.79235939555085 259.02589233971787 224.55378314470482 Z" stroke-opacity="1" stroke-linecap="round" stroke-linejoin="round" stroke-miterlimit="10"/><text fill="rgb(110,109,115)" stroke="none" font-family="geogebra-sans-serif, sans-serif" font-size="16px" font-style="normal" font-weight="normal" text-decoration="normal" x="258" y="215" text-anchor="start" dominant-baseline="alphabetic" fill-opacity="1">G'</text><path fill="rgb(110,109,115)" stroke="none" paint-order="stroke fill markers" d=" M 274.449203645933 296.2039432877376 C 274.449203645933 298.96536703689156 272.21062739508693 301.2039432877376 269.449203645933 301.2039432877376 C 266.68777989677903 301.2039432877376 264.449203645933 298.96536703689156 264.449203645933 296.2039432877376 C 264.449203645933 293.44251953858367 266.68777989677903 291.2039432877376 269.449203645933 291.2039432877376 C 272.21062739508693 291.2039432877376 274.449203645933 293.44251953858367 274.449203645933 296.2039432877376 Z" fill-opacity="1"/><path fill="none" stroke="rgb(0,0,0)" paint-order="fill stroke markers" d=" M 274.449203645933 296.2039432877376 C 274.449203645933 298.96536703689156 272.21062739508693 301.2039432877376 269.449203645933 301.2039432877376 C 266.68777989677903 301.2039432877376 264.449203645933 298.96536703689156 264.449203645933 296.2039432877376 C 264.449203645933 293.44251953858367 266.68777989677903 291.2039432877376 269.449203645933 291.2039432877376 C 272.21062739508693 291.2039432877376 274.449203645933 293.44251953858367 274.449203645933 296.2039432877376 Z" stroke-opacity="1" stroke-linecap="round" stroke-linejoin="round" stroke-miterlimit="10"/><text fill="rgb(110,109,115)" stroke="none" font-family="geogebra-sans-serif, sans-serif" font-size="16px" font-style="normal" font-weight="normal" text-decoration="normal" x="249" y="312" text-anchor="start" dominant-baseline="alphabetic" fill-opacity="1">O</text></g></g></svg>