<svg version="1.1" xmlns="http://www.w3.org/2000/svg" xmlns:xlink="http://www.w3.org/1999/xlink" width="452" height="480"><defs><clipPath id="wTqvfMcgLNWb"><path fill="none" stroke="none" d=" M 0 0 L 452 0 L 452 480 L 0 480 L 0 0 Z"/></clipPath></defs><g transform="scale(1,1)" clip-path="url(#wTqvfMcgLNWb)"><g><rect fill="rgb(255,255,255)" stroke="none" x="0" y="0" width="452" height="480" fill-opacity="1"/><path fill="rgb(56,140,131)" stroke="none" paint-order="stroke fill markers" fill-rule="evenodd" d=" M 61.25664426051404 352.0323989927758 L 38.55560509043278 284.00946199254366 L 60.84775209596401 248.29688761862917 Z" fill-opacity="0.09803921568627451"/><path fill="rgb(56,140,131)" stroke="none" paint-order="stroke fill markers" fill-rule="evenodd" d=" M 387.68518622387757 243.09462823292841 L 364.98414705379633 175.0716912326963 L 279.2521173951809 175.40961943793684 Z" fill-opacity="0.09803921568627451"/><path fill="rgb(211,47,47)" stroke="none" paint-order="stroke fill markers" fill-rule="evenodd" d=" M 105.91823879855623 176.09284607720787 L 60.84775209596401 248.29688761862917 L 279.2521173951809 175.40961943793684 Z" fill-opacity="0.09803921568627451"/><path fill="rgb(211,47,47)" stroke="none" paint-order="stroke fill markers" fill-rule="evenodd" d=" M 320.32255251575407 351.0112441482642 L 61.25664426051404 352.0323989927758 L 387.68518622387757 243.09462823292841 Z" fill-opacity="0.09803921568627451"/><path fill="none" stroke="rgb(21,101,192)" paint-order="fill stroke markers" d=" M 365.33251412427467 263.55204511273604 C 365.33251412427467 215.0174228017302 297.1848274259833 175.67233754182143 213.12039565715517 175.67233754182143 C 129.05596388832703 175.67233754182143 60.908277190035676 215.0174228017302 60.908277190035676 263.55204511273604 C 60.908277190035676 312.0866674237419 129.05596388832703 351.43175268365064 213.12039565715517 351.43175268365064 C 297.1848274259833 351.43175268365064 365.33251412427467 312.0866674237419 365.33251412427467 263.55204511273604 Z" stroke-opacity="0.8" stroke-linecap="round" stroke-linejoin="round" stroke-miterlimit="10" stroke-width="2.5"/><path fill="none" stroke="rgb(21,101,192)" paint-order="fill stroke markers" d=" M 388.87981079898447 263.55204511273604 C 388.87981079898447 360.62128973474773 310.1896402791669 439.3114602545653 213.12039565715517 439.3114602545653 C 116.05115103514343 439.3114602545653 37.36098051532588 360.62128973474773 37.36098051532588 263.55204511273604 C 37.36098051532588 166.48280049072434 116.05115103514343 87.7926299709068 213.12039565715517 87.7926299709068 C 310.1896402791669 87.7926299709068 388.87981079898447 166.48280049072434 388.87981079898447 263.55204511273604 Z" stroke-opacity="0.8" stroke-linecap="round" stroke-linejoin="round" stroke-miterlimit="10" stroke-width="2.5"/><path fill="none" stroke="rgb(0,0,0)" paint-order="fill stroke markers" d=" M 154.82591281521331 97.74153494770331 L 38.55560509043278 284.00946199254366" stroke-opacity="0.6980392156862745" stroke-linecap="round" stroke-linejoin="round" stroke-miterlimit="10" stroke-width="2.5"/><path fill="none" stroke="rgb(0,0,0)" paint-order="fill stroke markers" d=" M 38.55560509043278 284.00946199254366 L 271.414878499097 429.36255527776876" stroke-opacity="0.6980392156862745" stroke-linecap="round" stroke-linejoin="round" stroke-miterlimit="10" stroke-width="2.5"/><path fill="none" stroke="rgb(0,0,0)" paint-order="fill stroke markers" d=" M 271.414878499097 429.36255527776876 L 387.68518622387757 243.09462823292841" stroke-opacity="0.6980392156862745" stroke-linecap="round" stroke-linejoin="round" stroke-miterlimit="10" stroke-width="2.5"/><path fill="none" stroke="rgb(0,0,0)" paint-order="fill stroke markers" d=" M 387.68518622387757 243.09462823292841 L 154.82591281521331 97.74153494770331" stroke-opacity="0.6980392156862745" stroke-linecap="round" stroke-linejoin="round" stroke-miterlimit="10" stroke-width="2.5"/><path fill="none" stroke="rgb(0,0,0)" paint-order="fill stroke markers" d=" M 60.563851551368714 176.2716185469984 L 61.25664426051404 352.0323989927758" stroke-opacity="0.6980392156862745" stroke-linecap="round" stroke-linejoin="round" stroke-miterlimit="10" stroke-width="2.5"/><path fill="none" stroke="rgb(0,0,0)" paint-order="fill stroke markers" d=" M 61.25664426051404 352.0323989927758 L 365.67693976294163 350.83247167847367" stroke-opacity="0.6980392156862745" stroke-linecap="round" stroke-linejoin="round" stroke-miterlimit="10" stroke-width="2.5"/><path fill="none" stroke="rgb(0,0,0)" paint-order="fill stroke markers" d=" M 365.67693976294163 350.83247167847367 L 364.98414705379633 175.0716912326963" stroke-opacity="0.6980392156862745" stroke-linecap="round" stroke-linejoin="round" stroke-miterlimit="10" stroke-width="2.5"/><path fill="none" stroke="rgb(0,0,0)" paint-order="fill stroke markers" d=" M 364.98414705379633 175.0716912326963 L 60.563851551368714 176.2716185469984" stroke-opacity="0.6980392156862745" stroke-linecap="round" stroke-linejoin="round" stroke-miterlimit="10" stroke-width="2.5"/><path fill="none" stroke="rgb(180,179,186)" paint-order="fill stroke markers" d=" M 60.021049811048556 38.56338887510367 L 60.563851551368714 176.2716185469984" stroke-opacity="0.6980392156862745" stroke-linecap="round" stroke-linejoin="round" stroke-miterlimit="10" stroke-width="2.5"/><path fill="none" stroke="rgb(180,179,186)" paint-order="fill stroke markers" d=" M 154.82591281521331 97.74153494770331 L 60.563851551368714 176.2716185469984" stroke-opacity="0.6980392156862745" stroke-linecap="round" stroke-linejoin="round" stroke-miterlimit="10" stroke-width="2.5"/><path fill="none" stroke="rgb(56,140,131)" paint-order="fill stroke markers" d=" M 61.25664426051404 352.0323989927758 L 38.55560509043278 284.00946199254366" stroke-opacity="0.6980392156862745" stroke-linecap="round" stroke-linejoin="round" stroke-miterlimit="10" stroke-width="2.5"/><path fill="none" stroke="rgb(56,140,131)" paint-order="fill stroke markers" d=" M 38.55560509043278 284.00946199254366 L 60.84775209596401 248.29688761862917" stroke-opacity="0.6980392156862745" stroke-linecap="round" stroke-linejoin="round" stroke-miterlimit="10" stroke-width="2.5"/><path fill="none" stroke="rgb(56,140,131)" paint-order="fill stroke markers" d=" M 60.84775209596401 248.29688761862917 L 61.25664426051404 352.0323989927758" stroke-opacity="0.6980392156862745" stroke-linecap="round" stroke-linejoin="round" stroke-miterlimit="10" stroke-width="2.5"/><path fill="none" stroke="rgb(56,140,131)" paint-order="fill stroke markers" d=" M 387.68518622387757 243.09462823292841 L 364.98414705379633 175.0716912326963" stroke-opacity="0.6980392156862745" stroke-linecap="round" stroke-linejoin="round" stroke-miterlimit="10" stroke-width="2.5"/><path fill="none" stroke="rgb(56,140,131)" paint-order="fill stroke markers" d=" M 364.98414705379633 175.0716912326963 L 279.2521173951809 175.40961943793684" stroke-opacity="0.6980392156862745" stroke-linecap="round" stroke-linejoin="round" stroke-miterlimit="10" stroke-width="2.5"/><path fill="none" stroke="rgb(56,140,131)" paint-order="fill stroke markers" d=" M 279.2521173951809 175.40961943793684 L 387.68518622387757 243.09462823292841" stroke-opacity="0.6980392156862745" stroke-linecap="round" stroke-linejoin="round" stroke-miterlimit="10" stroke-width="2.5"/><path fill="none" stroke="rgb(211,47,47)" paint-order="fill stroke markers" d=" M 105.91823879855623 176.09284607720787 L 60.84775209596401 248.29688761862917" stroke-opacity="0.6980392156862745" stroke-linecap="round" stroke-linejoin="round" stroke-miterlimit="10" stroke-width="2.5"/><path fill="none" stroke="rgb(211,47,47)" paint-order="fill stroke markers" d=" M 60.84775209596401 248.29688761862917 L 279.2521173951809 175.40961943793684" stroke-opacity="0.6980392156862745" stroke-linecap="round" stroke-linejoin="round" stroke-miterlimit="10" stroke-width="2.5"/><path fill="none" stroke="rgb(211,47,47)" paint-order="fill stroke markers" d=" M 279.2521173951809 175.40961943793684 L 105.91823879855623 176.09284607720787" stroke-opacity="0.6980392156862745" stroke-linecap="round" stroke-linejoin="round" stroke-miterlimit="10" stroke-width="2.5"/><path fill="none" stroke="rgb(211,47,47)" paint-order="fill stroke markers" d=" M 320.32255251575407 351.0112441482642 L 61.25664426051404 352.0323989927758" stroke-opacity="0.6980392156862745" stroke-linecap="round" stroke-linejoin="round" stroke-miterlimit="10" stroke-width="2.5"/><path fill="none" stroke="rgb(211,47,47)" paint-order="fill stroke markers" d=" M 61.25664426051404 352.0323989927758 L 387.68518622387757 243.09462823292841" stroke-opacity="0.6980392156862745" stroke-linecap="round" stroke-linejoin="round" stroke-miterlimit="10" stroke-width="2.5"/><path fill="none" stroke="rgb(211,47,47)" paint-order="fill stroke markers" d=" M 387.68518622387757 243.09462823292841 L 320.32255251575407 351.0112441482642" stroke-opacity="0.6980392156862745" stroke-linecap="round" stroke-linejoin="round" stroke-miterlimit="10" stroke-width="2.5"/><path fill="none" stroke="rgb(180,179,186)" paint-order="fill stroke markers" d=" M 61.25664426051404 352.0323989927758 L 279.2521173951809 175.40961943793684" stroke-opacity="0.6980392156862745" stroke-linecap="round" stroke-linejoin="round" stroke-miterlimit="10" stroke-width="2.5"/><path fill="none" stroke="rgb(180,179,186)" paint-order="fill stroke markers" d=" M 60.84775209596401 248.29688761862917 L 387.68518622387757 243.09462823292841" stroke-opacity="0.6980392156862745" stroke-linecap="round" stroke-linejoin="round" stroke-miterlimit="10" stroke-width="2.5"/><path fill="none" stroke="rgb(180,179,186)" paint-order="fill stroke markers" d=" M 105.91823879855623 176.09284607720787 L 320.32255251575407 351.0112441482642" stroke-opacity="0.6980392156862745" stroke-linecap="round" stroke-linejoin="round" stroke-miterlimit="10" stroke-width="2.5"/><path fill="none" stroke="rgb(180,179,186)" paint-order="fill stroke markers" d=" M 60.021049811048556 38.56338887510367 L 154.82591281521331 97.74153494770331" stroke-opacity="0.6980392156862745" stroke-linecap="round" stroke-linejoin="round" stroke-miterlimit="10" stroke-width="2.5"/><path fill="none" stroke="rgb(180,179,186)" paint-order="fill stroke markers" d=" M 60.021049811048556 38.56338887510367 L 105.91823879855623 176.09284607720787" stroke-opacity="0.6980392156862745" stroke-linecap="round" stroke-linejoin="round" stroke-miterlimit="10" stroke-width="2.5"/><path fill="rgb(21,101,192)" stroke="none" paint-order="stroke fill markers" d=" M 159.82591281521331 97.74153494770331 C 159.82591281521331 100.50295869685728 157.5873365643673 102.74153494770331 154.82591281521331 102.74153494770331 C 152.06448906605934 102.74153494770331 149.82591281521331 100.50295869685728 149.82591281521331 97.74153494770331 C 149.82591281521331 94.98011119854935 152.06448906605934 92.74153494770331 154.82591281521331 92.74153494770331 C 157.5873365643673 92.74153494770331 159.82591281521331 94.98011119854935 159.82591281521331 97.74153494770331 Z" fill-opacity="1"/><path fill="none" stroke="rgb(0,0,0)" paint-order="fill stroke markers" d=" M 159.82591281521331 97.74153494770331 C 159.82591281521331 100.50295869685728 157.5873365643673 102.74153494770331 154.82591281521331 102.74153494770331 C 152.06448906605934 102.74153494770331 149.82591281521331 100.50295869685728 149.82591281521331 97.74153494770331 C 149.82591281521331 94.98011119854935 152.06448906605934 92.74153494770331 154.82591281521331 92.74153494770331 C 157.5873365643673 92.74153494770331 159.82591281521331 94.98011119854935 159.82591281521331 97.74153494770331 Z" stroke-opacity="1" stroke-linecap="round" stroke-linejoin="round" stroke-miterlimit="10"/><text fill="rgb(21,101,192)" stroke="none" font-family="geogebra-sans-serif, sans-serif" font-size="16px" font-style="normal" font-weight="normal" text-decoration="normal" x="143" y="82" text-anchor="start" dominant-baseline="alphabetic" fill-opacity="1">A</text><path fill="rgb(110,109,115)" stroke="none" paint-order="stroke fill markers" d=" M 43.55560509043278 284.00946199254366 C 43.55560509043278 286.7708857416976 41.31702883958674 289.00946199254366 38.55560509043278 289.00946199254366 C 35.79418134127881 289.00946199254366 33.55560509043278 286.7708857416976 33.55560509043278 284.00946199254366 C 33.55560509043278 281.2480382433897 35.79418134127881 279.00946199254366 38.55560509043278 279.00946199254366 C 41.31702883958674 279.00946199254366 43.55560509043278 281.2480382433897 43.55560509043278 284.00946199254366 Z" fill-opacity="1"/><path fill="none" stroke="rgb(0,0,0)" paint-order="fill stroke markers" d=" M 43.55560509043278 284.00946199254366 C 43.55560509043278 286.7708857416976 41.31702883958674 289.00946199254366 38.55560509043278 289.00946199254366 C 35.79418134127881 289.00946199254366 33.55560509043278 286.7708857416976 33.55560509043278 284.00946199254366 C 33.55560509043278 281.2480382433897 35.79418134127881 279.00946199254366 38.55560509043278 279.00946199254366 C 41.31702883958674 279.00946199254366 43.55560509043278 281.2480382433897 43.55560509043278 284.00946199254366 Z" stroke-opacity="1" stroke-linecap="round" stroke-linejoin="round" stroke-miterlimit="10"/><text fill="rgb(110,109,115)" stroke="none" font-family="geogebra-sans-serif, sans-serif" font-size="16px" font-style="normal" font-weight="normal" text-decoration="normal" x="24" y="302" text-anchor="start" dominant-baseline="alphabetic" fill-opacity="1">B</text><path fill="rgb(110,109,115)" stroke="none" paint-order="stroke fill markers" d=" M 392.68518622387757 243.09462823292841 C 392.68518622387757 245.8560519820824 390.4466099730315 248.09462823292841 387.68518622387757 248.09462823292841 C 384.9237624747236 248.09462823292841 382.68518622387757 245.8560519820824 382.68518622387757 243.09462823292841 C 382.68518622387757 240.33320448377444 384.9237624747236 238.09462823292841 387.68518622387757 238.09462823292841 C 390.4466099730315 238.09462823292841 392.68518622387757 240.33320448377444 392.68518622387757 243.09462823292841 Z" fill-opacity="1"/><path fill="none" stroke="rgb(0,0,0)" paint-order="fill stroke markers" d=" M 392.68518622387757 243.09462823292841 C 392.68518622387757 245.8560519820824 390.4466099730315 248.09462823292841 387.68518622387757 248.09462823292841 C 384.9237624747236 248.09462823292841 382.68518622387757 245.8560519820824 382.68518622387757 243.09462823292841 C 382.68518622387757 240.33320448377444 384.9237624747236 238.09462823292841 387.68518622387757 238.09462823292841 C 390.4466099730315 238.09462823292841 392.68518622387757 240.33320448377444 392.68518622387757 243.09462823292841 Z" stroke-opacity="1" stroke-linecap="round" stroke-linejoin="round" stroke-miterlimit="10"/><text fill="rgb(110,109,115)" stroke="none" font-family="geogebra-sans-serif, sans-serif" font-size="16px" font-style="normal" font-weight="normal" text-decoration="normal" x="396" y="237" text-anchor="start" dominant-baseline="alphabetic" fill-opacity="1">D</text><path fill="rgb(110,109,115)" stroke="none" paint-order="stroke fill markers" d=" M 276.414878499097 429.36255527776876 C 276.414878499097 432.1239790269227 274.1763022482509 434.36255527776876 271.414878499097 434.36255527776876 C 268.653454749943 434.36255527776876 266.414878499097 432.1239790269227 266.414878499097 429.36255527776876 C 266.414878499097 426.6011315286148 268.653454749943 424.36255527776876 271.414878499097 424.36255527776876 C 274.1763022482509 424.36255527776876 276.414878499097 426.6011315286148 276.414878499097 429.36255527776876 Z" fill-opacity="1"/><path fill="none" stroke="rgb(0,0,0)" paint-order="fill stroke markers" d=" M 276.414878499097 429.36255527776876 C 276.414878499097 432.1239790269227 274.1763022482509 434.36255527776876 271.414878499097 434.36255527776876 C 268.653454749943 434.36255527776876 266.414878499097 432.1239790269227 266.414878499097 429.36255527776876 C 266.414878499097 426.6011315286148 268.653454749943 424.36255527776876 271.414878499097 424.36255527776876 C 274.1763022482509 424.36255527776876 276.414878499097 426.6011315286148 276.414878499097 429.36255527776876 Z" stroke-opacity="1" stroke-linecap="round" stroke-linejoin="round" stroke-miterlimit="10"/><text fill="rgb(110,109,115)" stroke="none" font-family="geogebra-sans-serif, sans-serif" font-size="16px" font-style="normal" font-weight="normal" text-decoration="normal" x="279" y="453" text-anchor="start" dominant-baseline="alphabetic" fill-opacity="1">C</text><path fill="rgb(21,101,192)" stroke="none" paint-order="stroke fill markers" d=" M 65.56385155136871 176.2716185469984 C 65.56385155136871 179.0330422961524 63.32527530052268 181.2716185469984 60.563851551368714 181.2716185469984 C 57.802427802214744 181.2716185469984 55.563851551368714 179.0330422961524 55.563851551368714 176.2716185469984 C 55.563851551368714 173.51019479784443 57.802427802214744 171.2716185469984 60.563851551368714 171.2716185469984 C 63.32527530052268 171.2716185469984 65.56385155136871 173.51019479784443 65.56385155136871 176.2716185469984 Z" fill-opacity="1"/><path fill="none" stroke="rgb(0,0,0)" paint-order="fill stroke markers" d=" M 65.56385155136871 176.2716185469984 C 65.56385155136871 179.0330422961524 63.32527530052268 181.2716185469984 60.563851551368714 181.2716185469984 C 57.802427802214744 181.2716185469984 55.563851551368714 179.0330422961524 55.563851551368714 176.2716185469984 C 55.563851551368714 173.51019479784443 57.802427802214744 171.2716185469984 60.563851551368714 171.2716185469984 C 63.32527530052268 171.2716185469984 65.56385155136871 173.51019479784443 65.56385155136871 176.2716185469984 Z" stroke-opacity="1" stroke-linecap="round" stroke-linejoin="round" stroke-miterlimit="10"/><text fill="rgb(21,101,192)" stroke="none" font-family="geogebra-sans-serif, sans-serif" font-size="16px" font-style="normal" font-weight="normal" text-decoration="normal" x="36" y="177" text-anchor="start" dominant-baseline="alphabetic" fill-opacity="1">A'</text><path fill="rgb(110,109,115)" stroke="none" paint-order="stroke fill markers" d=" M 66.25664426051404 352.0323989927758 C 66.25664426051404 354.7938227419298 64.018068009668 357.0323989927758 61.25664426051404 357.0323989927758 C 58.49522051136007 357.0323989927758 56.25664426051404 354.7938227419298 56.25664426051404 352.0323989927758 C 56.25664426051404 349.2709752436219 58.49522051136007 347.0323989927758 61.25664426051404 347.0323989927758 C 64.018068009668 347.0323989927758 66.25664426051404 349.2709752436219 66.25664426051404 352.0323989927758 Z" fill-opacity="1"/><path fill="none" stroke="rgb(0,0,0)" paint-order="fill stroke markers" d=" M 66.25664426051404 352.0323989927758 C 66.25664426051404 354.7938227419298 64.018068009668 357.0323989927758 61.25664426051404 357.0323989927758 C 58.49522051136007 357.0323989927758 56.25664426051404 354.7938227419298 56.25664426051404 352.0323989927758 C 56.25664426051404 349.2709752436219 58.49522051136007 347.0323989927758 61.25664426051404 347.0323989927758 C 64.018068009668 347.0323989927758 66.25664426051404 349.2709752436219 66.25664426051404 352.0323989927758 Z" stroke-opacity="1" stroke-linecap="round" stroke-linejoin="round" stroke-miterlimit="10"/><text fill="rgb(110,109,115)" stroke="none" font-family="geogebra-sans-serif, sans-serif" font-size="16px" font-style="normal" font-weight="normal" text-decoration="normal" x="40" y="376" text-anchor="start" dominant-baseline="alphabetic" fill-opacity="1">B'</text><path fill="rgb(110,109,115)" stroke="none" paint-order="stroke fill markers" d=" M 369.98414705379633 175.0716912326963 C 369.98414705379633 177.8331149818503 367.7455708029503 180.0716912326963 364.98414705379633 180.0716912326963 C 362.2227233046424 180.0716912326963 359.98414705379633 177.8331149818503 359.98414705379633 175.0716912326963 C 359.98414705379633 172.31026748354233 362.2227233046424 170.0716912326963 364.98414705379633 170.0716912326963 C 367.7455708029503 170.0716912326963 369.98414705379633 172.31026748354233 369.98414705379633 175.0716912326963 Z" fill-opacity="1"/><path fill="none" stroke="rgb(0,0,0)" paint-order="fill stroke markers" d=" M 369.98414705379633 175.0716912326963 C 369.98414705379633 177.8331149818503 367.7455708029503 180.0716912326963 364.98414705379633 180.0716912326963 C 362.2227233046424 180.0716912326963 359.98414705379633 177.8331149818503 359.98414705379633 175.0716912326963 C 359.98414705379633 172.31026748354233 362.2227233046424 170.0716912326963 364.98414705379633 170.0716912326963 C 367.7455708029503 170.0716912326963 369.98414705379633 172.31026748354233 369.98414705379633 175.0716912326963 Z" stroke-opacity="1" stroke-linecap="round" stroke-linejoin="round" stroke-miterlimit="10"/><text fill="rgb(110,109,115)" stroke="none" font-family="geogebra-sans-serif, sans-serif" font-size="16px" font-style="normal" font-weight="normal" text-decoration="normal" x="376" y="167" text-anchor="start" dominant-baseline="alphabetic" fill-opacity="1">D'</text><path fill="rgb(110,109,115)" stroke="none" paint-order="stroke fill markers" d=" M 370.67693976294163 350.83247167847367 C 370.67693976294163 353.5938954276276 368.4383635120956 355.83247167847367 365.67693976294163 355.83247167847367 C 362.9155160137877 355.83247167847367 360.67693976294163 353.5938954276276 360.67693976294163 350.83247167847367 C 360.67693976294163 348.0710479293197 362.9155160137877 345.83247167847367 365.67693976294163 345.83247167847367 C 368.4383635120956 345.83247167847367 370.67693976294163 348.0710479293197 370.67693976294163 350.83247167847367 Z" fill-opacity="1"/><path fill="none" stroke="rgb(0,0,0)" paint-order="fill stroke markers" d=" M 370.67693976294163 350.83247167847367 C 370.67693976294163 353.5938954276276 368.4383635120956 355.83247167847367 365.67693976294163 355.83247167847367 C 362.9155160137877 355.83247167847367 360.67693976294163 353.5938954276276 360.67693976294163 350.83247167847367 C 360.67693976294163 348.0710479293197 362.9155160137877 345.83247167847367 365.67693976294163 345.83247167847367 C 368.4383635120956 345.83247167847367 370.67693976294163 348.0710479293197 370.67693976294163 350.83247167847367 Z" stroke-opacity="1" stroke-linecap="round" stroke-linejoin="round" stroke-miterlimit="10"/><text fill="rgb(110,109,115)" stroke="none" font-family="geogebra-sans-serif, sans-serif" font-size="16px" font-style="normal" font-weight="normal" text-decoration="normal" x="373" y="375" text-anchor="start" dominant-baseline="alphabetic" fill-opacity="1">C'</text><path fill="rgb(110,109,115)" stroke="none" paint-order="stroke fill markers" d=" M 65.84775209596401 248.29688761862917 C 65.84775209596401 251.05831136778315 63.609175845117974 253.29688761862917 60.84775209596401 253.29688761862917 C 58.08632834681004 253.29688761862917 55.84775209596401 251.05831136778315 55.84775209596401 248.29688761862917 C 55.84775209596401 245.5354638694752 58.08632834681004 243.29688761862917 60.84775209596401 243.29688761862917 C 63.609175845117974 243.29688761862917 65.84775209596401 245.5354638694752 65.84775209596401 248.29688761862917 Z" fill-opacity="1"/><path fill="none" stroke="rgb(0,0,0)" paint-order="fill stroke markers" d=" M 65.84775209596401 248.29688761862917 C 65.84775209596401 251.05831136778315 63.609175845117974 253.29688761862917 60.84775209596401 253.29688761862917 C 58.08632834681004 253.29688761862917 55.84775209596401 251.05831136778315 55.84775209596401 248.29688761862917 C 55.84775209596401 245.5354638694752 58.08632834681004 243.29688761862917 60.84775209596401 243.29688761862917 C 63.609175845117974 243.29688761862917 65.84775209596401 245.5354638694752 65.84775209596401 248.29688761862917 Z" stroke-opacity="1" stroke-linecap="round" stroke-linejoin="round" stroke-miterlimit="10"/><text fill="rgb(110,109,115)" stroke="none" font-family="geogebra-sans-serif, sans-serif" font-size="16px" font-style="normal" font-weight="normal" text-decoration="normal" x="71" y="265" text-anchor="start" dominant-baseline="alphabetic" fill-opacity="1">K</text><path fill="rgb(110,109,115)" stroke="none" paint-order="stroke fill markers" d=" M 284.2521173951809 175.40961943793684 C 284.2521173951809 178.17104318709082 282.01354114433485 180.40961943793684 279.2521173951809 180.40961943793684 C 276.49069364602695 180.40961943793684 274.2521173951809 178.17104318709082 274.2521173951809 175.40961943793684 C 274.2521173951809 172.64819568878286 276.49069364602695 170.40961943793684 279.2521173951809 170.40961943793684 C 282.01354114433485 170.40961943793684 284.2521173951809 172.64819568878286 284.2521173951809 175.40961943793684 Z" fill-opacity="1"/><path fill="none" stroke="rgb(0,0,0)" paint-order="fill stroke markers" d=" M 284.2521173951809 175.40961943793684 C 284.2521173951809 178.17104318709082 282.01354114433485 180.40961943793684 279.2521173951809 180.40961943793684 C 276.49069364602695 180.40961943793684 274.2521173951809 178.17104318709082 274.2521173951809 175.40961943793684 C 274.2521173951809 172.64819568878286 276.49069364602695 170.40961943793684 279.2521173951809 170.40961943793684 C 282.01354114433485 170.40961943793684 284.2521173951809 172.64819568878286 284.2521173951809 175.40961943793684 Z" stroke-opacity="1" stroke-linecap="round" stroke-linejoin="round" stroke-miterlimit="10"/><text fill="rgb(110,109,115)" stroke="none" font-family="geogebra-sans-serif, sans-serif" font-size="16px" font-style="normal" font-weight="normal" text-decoration="normal" x="283" y="165" text-anchor="start" dominant-baseline="alphabetic" fill-opacity="1">Q</text><path fill="rgb(110,109,115)" stroke="none" paint-order="stroke fill markers" d=" M 110.91823879855623 176.09284607720787 C 110.91823879855623 178.85426982636184 108.6796625477102 181.09284607720787 105.91823879855623 181.09284607720787 C 103.15681504940227 181.09284607720787 100.91823879855623 178.85426982636184 100.91823879855623 176.09284607720787 C 100.91823879855623 173.3314223280539 103.15681504940227 171.09284607720787 105.91823879855623 171.09284607720787 C 108.6796625477102 171.09284607720787 110.91823879855623 173.3314223280539 110.91823879855623 176.09284607720787 Z" fill-opacity="1"/><path fill="none" stroke="rgb(0,0,0)" paint-order="fill stroke markers" d=" M 110.91823879855623 176.09284607720787 C 110.91823879855623 178.85426982636184 108.6796625477102 181.09284607720787 105.91823879855623 181.09284607720787 C 103.15681504940227 181.09284607720787 100.91823879855623 178.85426982636184 100.91823879855623 176.09284607720787 C 100.91823879855623 173.3314223280539 103.15681504940227 171.09284607720787 105.91823879855623 171.09284607720787 C 108.6796625477102 171.09284607720787 110.91823879855623 173.3314223280539 110.91823879855623 176.09284607720787 Z" stroke-opacity="1" stroke-linecap="round" stroke-linejoin="round" stroke-miterlimit="10"/><text fill="rgb(110,109,115)" stroke="none" font-family="geogebra-sans-serif, sans-serif" font-size="16px" font-style="normal" font-weight="normal" text-decoration="normal" x="121" y="163" text-anchor="start" dominant-baseline="alphabetic" fill-opacity="1">M</text><path fill="rgb(110,109,115)" stroke="none" paint-order="stroke fill markers" d=" M 325.32255251575407 351.0112441482642 C 325.32255251575407 353.77266789741816 323.083976264908 356.0112441482642 320.32255251575407 356.0112441482642 C 317.5611287666001 356.0112441482642 315.32255251575407 353.77266789741816 315.32255251575407 351.0112441482642 C 315.32255251575407 348.24982039911026 317.5611287666001 346.0112441482642 320.32255251575407 346.0112441482642 C 323.083976264908 346.0112441482642 325.32255251575407 348.24982039911026 325.32255251575407 351.0112441482642 Z" fill-opacity="1"/><path fill="none" stroke="rgb(0,0,0)" paint-order="fill stroke markers" d=" M 325.32255251575407 351.0112441482642 C 325.32255251575407 353.77266789741816 323.083976264908 356.0112441482642 320.32255251575407 356.0112441482642 C 317.5611287666001 356.0112441482642 315.32255251575407 353.77266789741816 315.32255251575407 351.0112441482642 C 315.32255251575407 348.24982039911026 317.5611287666001 346.0112441482642 320.32255251575407 346.0112441482642 C 323.083976264908 346.0112441482642 325.32255251575407 348.24982039911026 325.32255251575407 351.0112441482642 Z" stroke-opacity="1" stroke-linecap="round" stroke-linejoin="round" stroke-miterlimit="10"/><text fill="rgb(110,109,115)" stroke="none" font-family="geogebra-sans-serif, sans-serif" font-size="16px" font-style="normal" font-weight="normal" text-decoration="normal" x="327" y="371" text-anchor="start" dominant-baseline="alphabetic" fill-opacity="1">N</text><path fill="rgb(110,109,115)" stroke="none" paint-order="stroke fill markers" d=" M 65.02104981104856 38.56338887510367 C 65.02104981104856 41.32481262425763 62.78247356020252 43.56338887510367 60.021049811048556 43.56338887510367 C 57.259626061894586 43.56338887510367 55.021049811048556 41.32481262425763 55.021049811048556 38.56338887510367 C 55.021049811048556 35.8019651259497 57.259626061894586 33.56338887510367 60.021049811048556 33.56338887510367 C 62.78247356020252 33.56338887510367 65.02104981104856 35.8019651259497 65.02104981104856 38.56338887510367 Z" fill-opacity="1"/><path fill="none" stroke="rgb(0,0,0)" paint-order="fill stroke markers" d=" M 65.02104981104856 38.56338887510367 C 65.02104981104856 41.32481262425763 62.78247356020252 43.56338887510367 60.021049811048556 43.56338887510367 C 57.259626061894586 43.56338887510367 55.021049811048556 41.32481262425763 55.021049811048556 38.56338887510367 C 55.021049811048556 35.8019651259497 57.259626061894586 33.56338887510367 60.021049811048556 33.56338887510367 C 62.78247356020252 33.56338887510367 65.02104981104856 35.8019651259497 65.02104981104856 38.56338887510367 Z" stroke-opacity="1" stroke-linecap="round" stroke-linejoin="round" stroke-miterlimit="10"/><text fill="rgb(110,109,115)" stroke="none" font-family="geogebra-sans-serif, sans-serif" font-size="16px" font-style="normal" font-weight="normal" text-decoration="normal" x="50" y="29" text-anchor="start" dominant-baseline="alphabetic" fill-opacity="1">P</text></g></g></svg>