<svg version="1.1" xmlns="http://www.w3.org/2000/svg" xmlns:xlink="http://www.w3.org/1999/xlink" width="282" height="426"><defs><clipPath id="EkkWzVnhKkSJ"><path fill="none" stroke="none" d=" M 0 0 L 282 0 L 282 426 L 0 426 L 0 0 Z"/></clipPath></defs><g transform="scale(1,1)" clip-path="url(#EkkWzVnhKkSJ)"><g><rect fill="none" stroke="none" x="0" y="0" width="282" height="426" fill-opacity="1"/><path fill="none" stroke="rgb(0,0,0)" paint-order="fill stroke markers" d=" M 208.49999999999997 258.49999999999983 C 208.49999999999997 295.77922061357833 178.27922061357853 325.9999999999998 141 325.9999999999998 C 103.72077938642147 325.9999999999998 73.50000000000003 295.77922061357833 73.50000000000003 258.49999999999983 C 73.50000000000003 221.2207793864213 103.72077938642147 190.99999999999986 141 190.99999999999986 C 178.27922061357853 190.99999999999986 208.49999999999997 221.2207793864213 208.49999999999997 258.49999999999983 Z" stroke-opacity="0.6980392156862745" stroke-linecap="round" stroke-linejoin="round" stroke-miterlimit="10" stroke-width="2.5"/><path fill="none" stroke="rgb(0,0,0)" paint-order="fill stroke markers" d=" M 287 430.04999999999984 L -5 86.94999999999983" stroke-opacity="0.6980392156862745" stroke-linecap="round" stroke-linejoin="round" stroke-miterlimit="10" stroke-width="2.5"/><path fill="none" stroke="rgb(0,0,0)" paint-order="fill stroke markers" d=" M 141 431 L 141 -5" stroke-opacity="0.6980392156862745" stroke-linecap="round" stroke-linejoin="round" stroke-miterlimit="10" stroke-width="2.5"/><text fill="rgb(0,0,0)" stroke="none" font-family="geogebra-sans-serif, sans-serif" font-size="16px" font-style="normal" font-weight="normal" text-decoration="normal" x="125" y="24" text-anchor="start" dominant-baseline="alphabetic" fill-opacity="1">l</text><path fill="none" stroke="rgb(224,116,21)" paint-order="fill stroke markers" d=" M 97.25199250683585 207.09609119553195 L 97.25209250683585 207.09609119553195 M 140.99999821999927 190.99999711989824 L 140.99999777278563 190.99999639629138 L 140.52508968298065 190.23521579472765 L 140.0379476284154 189.45823893435826 L 139.2883845852379 188.27737324616743 L 138.5090802675411 187.0682355761233 L 137.69834944919435 185.83011852531007 L 136.85438815980152 184.56232740924833 L 135.9752643750615 183.26418751486457 L 135.0589080285208 181.93505281649226 L 134.10310033080944 180.5743164138365 L 133.10546239626774 179.18142300108235 L 132.06344319649565 177.7558837303569 L 130.97430688763794 176.2972938956696 L 129.83511959554747 174.80535393640352 L 128.64273579342412 173.2798943435382 L 127.39378447404621 171.7209051480615 L 126.08465540832094 170.12857078018567 L 124.71148589994782 168.5033112101821 L 123.27014860052577 166.84583041610253 L 121.75624115042352 165.1571733680448 L 120.16507867046815 163.43879286825552 L 118.49169046288026 161.6926277329653 L 116.73082270455086 159.92119393185754 L 114.8769494519959 158.1276903932879 L 112.9242949473752 156.3161212057924 L 110.86687104138548 154.49143585206852 L 108.6985345513144 152.659688833217 L 106.4130705621898 150.82821948464087 L 104.00430904883251 149.00585182283965 L 101.46628370674206 147.20311272597232 L 98.79344343450362 145.4324644270211 L 95.98092832624612 143.70854393034097 L 93.02492299463508 142.04839726684637 L 89.92310005297634 140.47169020951597 L 86.67516489710161 139.00086900166357 L 83.2835085157419 137.66123485983718 L 79.75396661194941 136.48088500393166 L 76.09666935553345 135.49046198976743 L 72.32694525393877 134.72264452650202 L 68.46621429216647 134.21131051635916 L 64.54277068277271 133.99031198669397 L 60.5923182255939 134.09182804975887 L 56.658089463603204 134.54431155589066 L 52.79036615219131 135.3701197741076 L 49.04523874530757 136.58301400001648 L 45.48251099696043 138.18581134297682 L 42.16277783440958 140.16854637443126 L 39.1438684239766 142.5075166012448 L 36.47701777266427 145.16551527744008 L 34.203258025689365 148.09339110470617 L 32.35055323370871 151.23284389335134 L 30.93211056647219 154.52012714418964 L 29.946100005644453 157.89015396462707 L 29.376758026413455 161.2804455380539 L 29.196613382230822 164.6344341844704 L 29.369418428400692 167.90380359516513 L 29.853326056942123 171.04975733246394 L 30.603909044284663 174.0432930491035 L 31.576737440595963 176.86468512407902 L 32.72936607229849 179.50243185167338 L 34.02270358256115 181.95191670453113 L 35.42181864188008 184.21398895846016 L 36.896285139507455 186.29360963752225 L 38.420182968878265 188.19865088275043 L 39.97186473580008 189.93888959405493 L 40.752437605188064 190.75058208412446 L 41.26452118039843 191.26244212175928 L 42.07136558358218 192.0382128897376 L 43.18423152562231 193.05141690725048 L 44.91779295729668 194.51251581629586 L 46.73604326597716 195.91015748381585 L 48.63232276981083 197.2391056386386 L 50.59943735703922 198.49484332089793 L 52.6297804695041 199.67362127601197 L 54.71545950081885 200.7724860440664 L 56.848422219369326 201.7892879430953 L 59.020579134724755 202.72267003115675 L 61.223918238728956 203.57203987919019 L 63.450609212265974 204.3375265557689 L 65.69309493264787 205.01992559737195 L 67.94416888349393 205.62063491412968 L 70.19703780495561 206.1415845776592 L 72.44536958457677 206.58516328282406 L 74.68332694857666 206.95414400415197 L 76.9055879538221 207.25161101761864 L 79.10735459809993 207.48089006541028 L 81.28435106608862 207.6454830365962 L 83.43281322322348 207.7490081458452 L 85.54947097631184 207.79514623417143 L 87.63152505701784 207.78759350241825 L 89.67661967089168 207.73002072618493 L 91.68281230771272 207.62603879177578 L 93.64854184348557 207.4791702345049 L 95.57259589267349 207.29282634882154 L 97.4540782005614 207.07028936826305 L 99.29237670675889 206.81469917554693 L 101.08713276620585 206.52904399250852 L 102.83821188613172 206.21615450977598 L 104.54567622722524 205.87870094142878 L 106.20975902465449 205.51919252557337 L 107.83084100860587 205.13997903380005 L 109.40942884325722 204.74325389768222 L 110.9461355558576 204.33105860639753 L 112.44166289204674 203.9052880744049 L 113.89678550791633 203.46769672064352 L 115.31233689190255 203.01990504013125 L 116.68919689886005 202.563406484659 L 118.02828077323511 202.09957450131975 L 119.33052953694562 201.62966960586525 L 120.59690161938391 201.15484639249098 L 121.82836561105003 200.6761604028325 L 123.02589402801414 200.19457479499428 L 124.19045798114877 199.71096676863155 L 125.32302265143159 199.2261337147797 L 126.4245434802621 198.74079906958175 L 127.49596299140792 198.25561785959337 L 128.53820816871132 197.77118193321598 L 129.55218832091225 197.2880248782677 L 130.53879337178975 196.80662662996644 L 131.4988925202343 196.32741777686658 L 132.43333322080835 195.85078357472403 L 133.34294044082003 195.3770676800178 L 134.22851615493153 194.90657561604843 L 135.09083904285902 194.43957798527566 L 135.93066435982107 193.97631344193977 L 136.74872395307875 193.51699143910685 L 137.5457264012145 193.06179476415343 L 138.3223572557449 192.61088187641207 L 139.07927936728814 192.16438906027838 L 139.8171332808345 191.7224324065692 L 140.53653768673053 191.28510963434726 M 97.25199250683585 207.09609119553195 L 97.25209250683585 207.09609119553195" stroke-opacity="0.6980392156862745" stroke-linecap="round" stroke-linejoin="round" stroke-miterlimit="10" stroke-width="2.5"/><path fill="none" stroke="rgb(224,116,21)" paint-order="fill stroke markers" d=" M 184.74800749316415 309.90390880446773 L 184.74810749316416 309.90390880446773 M 141.00000178000073 190.99999889989888 L 141.00000222721437 190.99999862350563 L 141.9620523715846 190.39968339692985 L 142.7116154147621 189.92397027101575 L 143.4909197324589 189.42190923854076 L 144.30165055080565 188.89146106869111 L 145.14561184019848 188.33038651976733 L 146.0247356249385 187.73622284032317 L 146.9410919714792 187.1062570912941 L 147.89689966919056 186.43749580986594 L 148.89453760373226 185.7266304579263 L 149.93655680350435 184.96999800694024 L 151.02569311236206 184.16353590488606 L 152.16488040445253 183.30273054710722 L 153.35726420657588 182.38255822896625 L 154.6062155259538 181.39741739119586 L 155.91534459167906 180.34105077589348 L 157.28851410005217 179.2064558892913 L 158.72985139947423 177.9857819141501 L 160.24375884957647 176.67021092798154 L 161.83492132953185 175.2498209627471 L 163.50830953711974 173.7134280889229 L 165.26917729544914 172.04840432716293 L 167.1230505480041 170.24046779499042 L 169.0757050526248 168.27344110273987 L 171.13312895861452 166.12897365239303 L 173.3014654486856 163.78622321050437 L 175.5869294378102 161.22149198792172 L 177.9956909511675 158.407812555686 L 180.53371629325795 155.31447937893395 L 183.20655656549638 151.9065227092771 L 186.0190716737539 148.1441232136878 L 188.97507700536494 143.98196820608104 L 192.07689994702366 139.3685538064524 L 193.6826815945594 136.87465429791098 L 195.32483510289842 134.24544175456444 L 197.00297255794206 131.4724007229586 L 198.71649148425809 128.54648461585504 L 200.46454877783557 125.45809111039516 L 202.2460333880506 122.19703784552013 L 204.05953807058597 118.75253856741409 L 205.90333064446656 115.11317982923129 L 207.77532531276455 111.26689828068758 L 209.6730547460612 107.20095847651574 L 211.5936437769975 102.90193098169712 L 213.53378570783352 98.35567034654815 L 215.48972238322 93.54729225669516 L 216.47231209503468 91.03994976376235 L 217.4572293172273 88.4611488225875 L 218.44387173930488 85.80880954649834 L 219.43160727441648 83.08080055239341 L 220.41977425290563 80.27493775964834 L 221.40768177440611 77.38898304469622 L 222.39461022949465 74.42064272459812 L 223.3798120013239 71.36756583988793 L 224.36251235686674 68.22734220378734 L 225.34191053639677 64.99750018154603 L 226.31718104860101 61.675504160183834 L 227.28747517726404 58.258751665306136 L 228.2519227037765 54.744570077942114 L 229.2096338478087 51.13021290053149 L 230.1597014263616 47.412855517267445 L 231.10120322907574 43.589590389997795 L 232.03320460516704 39.65742162679874 L 232.95476125469244 35.61325885615793 L 233.86492221406135 31.453910335431175 L 234.76273302284582 27.17607521783978 L 235.64723905603984 22.776334897734046 L 236.51748900303954 18.25114334909756 L 237.3725384718066 13.596816367261482 L 238.21145369400074 8.809519618439055 L 239.03331530438672 3.8852553958814724 L 239.43756858267514 1.3704629528572525 L 239.83722216559045 -1.180152024936774 L 240.23216688904034 -3.767141969308284 L 240.6222952073657 -6.391072546825626 L 241.00750131182116 -9.052523255446658 L 241.14093454113572 -10 M 240.99919081272057 436 L 204.27924308471052 436.00000000000006 L 204.2661068922195 435.8763032637495 L 203.99068753607543 433.3165607688886 L 203.7156234868673 430.79306670394317 L 203.440923029871 428.3050844217936 L 202.89264540189964 423.43280791521255 L 202.3459184129523 418.6942259266706 L 201.80080382071992 414.0841219025865 L 201.25736139489476 409.5975491779964 L 200.71564893391096 405.229813563119 L 200.1757222832292 400.97645726559233 L 199.63763535506916 396.8332440304277 L 199.10144014949697 392.7961453914769 L 198.56718677677608 388.8613279386496 L 198.03492348089202 385.02514151442097 L 197.50469666416257 381.28410826147183 L 196.9765509128495 377.6349124507153 L 196.45052902368775 374.0743910255985 L 195.92667203125188 370.59952480450875 L 195.4050192360812 367.207430288443 L 194.88560823348905 363.89535202589 L 194.36847494298175 360.66065549117343 L 193.85365363821796 357.50082043638736 L 193.34117697744017 354.41343468054504 L 192.83107603431324 351.39618830272025 L 192.32338032910792 348.4468682088066 L 191.818117860169 345.5633530441014 L 191.31531513561123 342.74360842625504 L 190.814997205189 339.98568247524315 L 190.3171876922869 337.28770161894107 L 189.82190882598277 334.6478666546234 L 189.32918147313592 332.0644490483021 L 188.83902517045652 329.5357874552586 L 188.351458156514 327.06028444644255 L 187.38415864972742 322.262665731187 L 186.42740410732614 317.6599790452907 L 185.4812969384864 313.24145350738337 L 184.54592179943822 308.99708529876546 L 183.62134656743274 304.9175699084583 L 182.70762329324074 300.99424152566644 L 181.80478912964196 297.21901870951194 L 180.9128672337938 293.58435558498957 L 180.03186764176343 290.08319791518034 L 179.16178811386797 286.7089434858259 L 178.30261494979553 283.4554063118368 L 177.45432377277444 280.31678423819733 L 176.61688028232246 277.28762956170345 L 175.7902409753452 274.362822346402 L 174.97435383555833 271.53754614564554 L 174.16915899139383 268.807265878292 L 173.37458934270742 266.1677076365711 L 172.5905711567425 263.61484022917676 L 171.81702463392259 261.1448582858071 L 170.30100023430853 256.4393667573937 L 168.82577607778234 252.02474877019478 L 167.39054643592186 247.87726391592298 L 165.99445317482724 243.97557337869654 L 164.63659746094606 240.3004479534603 L 163.31605004004837 236.83451783991248 L 162.0318602131731 233.56205731789592 L 160.78306363032382 230.46879869525546 L 159.56868901772296 227.54177093901168 L 158.38776394815696 224.76915921492957 L 157.23931975684582 222.1401822143642 L 156.12239569773246 219.64498467515344 L 155.0360424274035 217.27454293181188 L 153.97932489623867 215.02058167985783 L 152.9513247190032 212.875500425707 L 151.95114209005212 210.8323083296494 L 150.9778973016826 208.88456634477723 L 150.03073191799018 207.02633571708736 L 149.1088096508779 205.25213204747934 L 148.211316979637 203.5568842299098 L 147.33746355075357 201.93589767547329 L 146.4864823902813 200.38482131281793 L 145.6576299572302 198.89961792363275 L 144.85018606293016 197.47653743003636 L 144.06345367820603 196.11209280025102 L 143.296758647417 194.80303828134774 L 142.54944932594114 193.54634970424053 L 141.82089615549341 192.3392066374308 L 141.11049118972863 191.17897619303812 M 184.74800749316415 309.90390880446773 L 184.74810749316416 309.90390880446773" stroke-opacity="0.6980392156862745" stroke-linecap="round" stroke-linejoin="round" stroke-miterlimit="10" stroke-width="2.5"/><path fill="rgb(110,109,115)" stroke="none" paint-order="stroke fill markers" d=" M 146 190.99999999999986 C 146 193.76142374915383 143.76142374915398 195.99999999999986 141 195.99999999999986 C 138.23857625084602 195.99999999999986 136 193.76142374915383 136 190.99999999999986 C 136 188.23857625084588 138.23857625084602 185.99999999999986 141 185.99999999999986 C 143.76142374915398 185.99999999999986 146 188.23857625084588 146 190.99999999999986 Z" fill-opacity="1"/><path fill="none" stroke="rgb(0,0,0)" paint-order="fill stroke markers" d=" M 146 190.99999999999986 C 146 193.76142374915383 143.76142374915398 195.99999999999986 141 195.99999999999986 C 138.23857625084602 195.99999999999986 136 193.76142374915383 136 190.99999999999986 C 136 188.23857625084588 138.23857625084602 185.99999999999986 141 185.99999999999986 C 143.76142374915398 185.99999999999986 146 188.23857625084588 146 190.99999999999986 Z" stroke-opacity="1" stroke-linecap="round" stroke-linejoin="round" stroke-miterlimit="10"/><text fill="rgb(110,109,115)" stroke="none" font-family="geogebra-sans-serif, sans-serif" font-size="16px" font-style="normal" font-weight="normal" text-decoration="normal" x="145" y="176" text-anchor="start" dominant-baseline="alphabetic" fill-opacity="1">Q</text><path fill="rgb(21,101,192)" stroke="none" paint-order="stroke fill markers" d=" M 46.00000000000004 140.9999999999999 C 46.00000000000004 143.76142374915386 43.761423749154005 145.9999999999999 41.00000000000004 145.9999999999999 C 38.23857625084607 145.9999999999999 36.00000000000004 143.76142374915386 36.00000000000004 140.9999999999999 C 36.00000000000004 138.2385762508459 38.23857625084607 135.9999999999999 41.00000000000004 135.9999999999999 C 43.761423749154005 135.9999999999999 46.00000000000004 138.2385762508459 46.00000000000004 140.9999999999999 Z" fill-opacity="1"/><path fill="none" stroke="rgb(0,0,0)" paint-order="fill stroke markers" d=" M 46.00000000000004 140.9999999999999 C 46.00000000000004 143.76142374915386 43.761423749154005 145.9999999999999 41.00000000000004 145.9999999999999 C 38.23857625084607 145.9999999999999 36.00000000000004 143.76142374915386 36.00000000000004 140.9999999999999 C 36.00000000000004 138.2385762508459 38.23857625084607 135.9999999999999 41.00000000000004 135.9999999999999 C 43.761423749154005 135.9999999999999 46.00000000000004 138.2385762508459 46.00000000000004 140.9999999999999 Z" stroke-opacity="1" stroke-linecap="round" stroke-linejoin="round" stroke-miterlimit="10"/><text fill="rgb(21,101,192)" stroke="none" font-family="geogebra-sans-serif, sans-serif" font-size="16px" font-style="normal" font-weight="normal" text-decoration="normal" x="45" y="131" text-anchor="start" dominant-baseline="alphabetic" fill-opacity="1">O</text><path fill="rgb(21,101,192)" stroke="none" paint-order="stroke fill markers" d=" M 146 258.49999999999983 C 146 261.2614237491538 143.76142374915398 263.49999999999983 141 263.49999999999983 C 138.23857625084602 263.49999999999983 136 261.2614237491538 136 258.49999999999983 C 136 255.73857625084585 138.23857625084602 253.49999999999983 141 253.49999999999983 C 143.76142374915398 253.49999999999983 146 255.73857625084585 146 258.49999999999983 Z" fill-opacity="1"/><path fill="none" stroke="rgb(0,0,0)" paint-order="fill stroke markers" d=" M 146 258.49999999999983 C 146 261.2614237491538 143.76142374915398 263.49999999999983 141 263.49999999999983 C 138.23857625084602 263.49999999999983 136 261.2614237491538 136 258.49999999999983 C 136 255.73857625084585 138.23857625084602 253.49999999999983 141 253.49999999999983 C 143.76142374915398 253.49999999999983 146 255.73857625084585 146 258.49999999999983 Z" stroke-opacity="1" stroke-linecap="round" stroke-linejoin="round" stroke-miterlimit="10"/><text fill="rgb(21,101,192)" stroke="none" font-family="geogebra-sans-serif, sans-serif" font-size="16px" font-style="normal" font-weight="normal" text-decoration="normal" x="145" y="248" text-anchor="start" dominant-baseline="alphabetic" fill-opacity="1">P</text><path fill="rgb(110,109,115)" stroke="none" paint-order="stroke fill markers" d=" M 102.25199250683585 207.09609119553195 C 102.25199250683585 209.85751494468593 100.01341625598981 212.09609119553195 97.25199250683585 212.09609119553195 C 94.49056875768188 212.09609119553195 92.25199250683585 209.85751494468593 92.25199250683585 207.09609119553195 C 92.25199250683585 204.33466744637798 94.49056875768188 202.09609119553195 97.25199250683585 202.09609119553195 C 100.01341625598981 202.09609119553195 102.25199250683585 204.33466744637798 102.25199250683585 207.09609119553195 Z" fill-opacity="1"/><path fill="none" stroke="rgb(0,0,0)" paint-order="fill stroke markers" d=" M 102.25199250683585 207.09609119553195 C 102.25199250683585 209.85751494468593 100.01341625598981 212.09609119553195 97.25199250683585 212.09609119553195 C 94.49056875768188 212.09609119553195 92.25199250683585 209.85751494468593 92.25199250683585 207.09609119553195 C 92.25199250683585 204.33466744637798 94.49056875768188 202.09609119553195 97.25199250683585 202.09609119553195 C 100.01341625598981 202.09609119553195 102.25199250683585 204.33466744637798 102.25199250683585 207.09609119553195 Z" stroke-opacity="1" stroke-linecap="round" stroke-linejoin="round" stroke-miterlimit="10"/><text fill="rgb(110,109,115)" stroke="none" font-family="geogebra-sans-serif, sans-serif" font-size="16px" font-style="normal" font-weight="normal" text-decoration="normal" x="97" y="192" text-anchor="start" dominant-baseline="alphabetic" fill-opacity="1">M</text><path fill="rgb(110,109,115)" stroke="none" paint-order="stroke fill markers" d=" M 189.74800749316415 309.90390880446773 C 189.74800749316415 312.6653325536217 187.50943124231813 314.90390880446773 184.74800749316415 314.90390880446773 C 181.98658374401018 314.90390880446773 179.74800749316415 312.6653325536217 179.74800749316415 309.90390880446773 C 179.74800749316415 307.1424850553138 181.98658374401018 304.90390880446773 184.74800749316415 304.90390880446773 C 187.50943124231813 304.90390880446773 189.74800749316415 307.1424850553138 189.74800749316415 309.90390880446773 Z" fill-opacity="1"/><path fill="none" stroke="rgb(0,0,0)" paint-order="fill stroke markers" d=" M 189.74800749316415 309.90390880446773 C 189.74800749316415 312.6653325536217 187.50943124231813 314.90390880446773 184.74800749316415 314.90390880446773 C 181.98658374401018 314.90390880446773 179.74800749316415 312.6653325536217 179.74800749316415 309.90390880446773 C 179.74800749316415 307.1424850553138 181.98658374401018 304.90390880446773 184.74800749316415 304.90390880446773 C 187.50943124231813 304.90390880446773 189.74800749316415 307.1424850553138 189.74800749316415 309.90390880446773 Z" stroke-opacity="1" stroke-linecap="round" stroke-linejoin="round" stroke-miterlimit="10"/><text fill="rgb(110,109,115)" stroke="none" font-family="geogebra-sans-serif, sans-serif" font-size="16px" font-style="normal" font-weight="normal" text-decoration="normal" x="197" y="315" text-anchor="start" dominant-baseline="alphabetic" fill-opacity="1">N</text></g></g></svg>
