<svg version="1.1" xmlns="http://www.w3.org/2000/svg" xmlns:xlink="http://www.w3.org/1999/xlink" width="683" height="615"><defs><clipPath id="cizZevaVCkzH"><path fill="none" stroke="none" d=" M 0 0 L 683 0 L 683 615 L 0 615 L 0 0 Z"/></clipPath></defs><g transform="scale(1,1)" clip-path="url(#cizZevaVCkzH)"><g><path fill="none" stroke="rgb(0,0,0)" paint-order="fill stroke markers" d=" M 1034.0892255203896 -73.33483708315902 C -5.1113853198378365 186.46531562689802 -5.1113853198378365 446.265468336955 1034.0892255203896 706.065621047012" stroke-opacity="0.6980392156862745" stroke-linecap="round" stroke-linejoin="round" stroke-miterlimit="10" stroke-width="2.5"/><path fill="none" stroke="rgb(0,0,0)" paint-order="fill stroke markers" d=" M 449.5388819227616 511.2155065144693 C 510.8693785271613 465.2176340611696 546.963939189033 393.0285127374262 546.963939189033 316.36539198192656 C 546.963939189033 239.70227122642694 510.8693785271613 167.51314990268355 449.53888192276173 121.51527744938377" stroke-opacity="0.6980392156862745" stroke-linecap="round" stroke-linejoin="round" stroke-miterlimit="10" stroke-width="2.5"/><path fill="none" stroke="rgb(0,0,0)" paint-order="fill stroke markers" d=" M 205.97623875708337 620 L 205.97623875708337 -5" stroke-opacity="0.6980392156862745" stroke-linecap="round" stroke-linejoin="round" stroke-miterlimit="10" stroke-width="2.5"/><path fill="none" stroke="rgb(0,0,0)" paint-order="fill stroke markers" d=" M -5 316.3653919819265 L 688 316.3653919819265" stroke-opacity="0.6980392156862745" stroke-linecap="round" stroke-linejoin="round" stroke-miterlimit="10" stroke-width="2.5"/><path fill="none" stroke="rgb(0,0,0)" paint-order="fill stroke markers" d=" M 449.5388819227617 620 L 449.5388819227617 -5" stroke-opacity="0.6980392156862745" stroke-linecap="round" stroke-linejoin="round" stroke-miterlimit="10" stroke-width="2.5"/><path fill="rgb(77,77,255)" stroke="none" paint-order="stroke fill markers" d=" M 308.4012960233547 316.3653919819265 C 308.4012960233547 319.12681573108046 306.16271977250864 321.3653919819265 303.4012960233547 321.3653919819265 C 300.63987227420074 321.3653919819265 298.4012960233547 319.12681573108046 298.4012960233547 316.3653919819265 C 298.4012960233547 313.60396823277256 300.63987227420074 311.3653919819265 303.4012960233547 311.3653919819265 C 306.16271977250864 311.3653919819265 308.4012960233547 313.60396823277256 308.4012960233547 316.3653919819265 Z" fill-opacity="1"/><path fill="none" stroke="rgb(0,0,0)" paint-order="fill stroke markers" d=" M 308.4012960233547 316.3653919819265 C 308.4012960233547 319.12681573108046 306.16271977250864 321.3653919819265 303.4012960233547 321.3653919819265 C 300.63987227420074 321.3653919819265 298.4012960233547 319.12681573108046 298.4012960233547 316.3653919819265 C 298.4012960233547 313.60396823277256 300.63987227420074 311.3653919819265 303.4012960233547 311.3653919819265 C 306.16271977250864 311.3653919819265 308.4012960233547 313.60396823277256 308.4012960233547 316.3653919819265 Z" stroke-opacity="1" stroke-linecap="round" stroke-linejoin="round" stroke-miterlimit="10"/><text fill="rgb(77,77,255)" stroke="none" font-family="geogebra-sans-serif, sans-serif" font-size="32px" font-style="normal" font-weight="normal" text-decoration="normal" x="307" y="306" text-anchor="start" dominant-baseline="alphabetic" fill-opacity="1">S</text><text fill="none" stroke="rgb(255,255,255)" font-family="geogebra-sans-serif, sans-serif" font-size="32px" font-style="normal" font-weight="normal" text-decoration="normal" x="307" y="306" text-anchor="start" dominant-baseline="alphabetic" stroke-opacity="1" stroke-linecap="round" stroke-linejoin="bevel" stroke-miterlimit="10" stroke-width="3">S</text><text fill="rgb(77,77,255)" stroke="none" font-family="geogebra-sans-serif, sans-serif" font-size="32px" font-style="normal" font-weight="normal" text-decoration="normal" x="307" y="306" text-anchor="start" dominant-baseline="alphabetic" fill-opacity="1">S</text><path fill="rgb(68,68,68)" stroke="none" paint-order="stroke fill markers" d=" M 209.97623875708337 316.3653919819265 C 209.97623875708337 318.57453098124967 208.18537775640652 320.3653919819265 205.97623875708337 320.3653919819265 C 203.76709975776018 320.3653919819265 201.97623875708337 318.57453098124967 201.97623875708337 316.3653919819265 C 201.97623875708337 314.15625298260335 203.76709975776018 312.3653919819265 205.97623875708337 312.3653919819265 C 208.18537775640652 312.3653919819265 209.97623875708337 314.15625298260335 209.97623875708337 316.3653919819265 Z" fill-opacity="1"/><path fill="none" stroke="rgb(0,0,0)" paint-order="fill stroke markers" d=" M 209.97623875708337 316.3653919819265 C 209.97623875708337 318.57453098124967 208.18537775640652 320.3653919819265 205.97623875708337 320.3653919819265 C 203.76709975776018 320.3653919819265 201.97623875708337 318.57453098124967 201.97623875708337 316.3653919819265 C 201.97623875708337 314.15625298260335 203.76709975776018 312.3653919819265 205.97623875708337 312.3653919819265 C 208.18537775640652 312.3653919819265 209.97623875708337 314.15625298260335 209.97623875708337 316.3653919819265 Z" stroke-opacity="1" stroke-linecap="round" stroke-linejoin="round" stroke-miterlimit="10"/><text fill="rgb(68,68,68)" stroke="none" font-family="geogebra-sans-serif, sans-serif" font-size="32px" font-style="normal" font-weight="normal" text-decoration="normal" x="210" y="308" text-anchor="start" dominant-baseline="alphabetic" fill-opacity="1">X</text><text fill="none" stroke="rgb(255,255,255)" font-family="geogebra-sans-serif, sans-serif" font-size="32px" font-style="normal" font-weight="normal" text-decoration="normal" x="210" y="308" text-anchor="start" dominant-baseline="alphabetic" stroke-opacity="1" stroke-linecap="round" stroke-linejoin="bevel" stroke-miterlimit="10" stroke-width="3">X</text><text fill="rgb(68,68,68)" stroke="none" font-family="geogebra-sans-serif, sans-serif" font-size="32px" font-style="normal" font-weight="normal" text-decoration="normal" x="210" y="308" text-anchor="start" dominant-baseline="alphabetic" fill-opacity="1">X</text><path fill="rgb(68,68,68)" stroke="none" paint-order="stroke fill markers" d=" M 258.688767390219 316.3653919819265 C 258.688767390219 318.57453098124967 256.8979063895422 320.3653919819265 254.68876739021903 320.3653919819265 C 252.47962839089584 320.3653919819265 250.68876739021903 318.57453098124967 250.68876739021903 316.3653919819265 C 250.68876739021903 314.15625298260335 252.47962839089584 312.3653919819265 254.68876739021903 312.3653919819265 C 256.8979063895422 312.3653919819265 258.688767390219 314.15625298260335 258.688767390219 316.3653919819265 Z" fill-opacity="1"/><path fill="none" stroke="rgb(0,0,0)" paint-order="fill stroke markers" d=" M 258.688767390219 316.3653919819265 C 258.688767390219 318.57453098124967 256.8979063895422 320.3653919819265 254.68876739021903 320.3653919819265 C 252.47962839089584 320.3653919819265 250.68876739021903 318.57453098124967 250.68876739021903 316.3653919819265 C 250.68876739021903 314.15625298260335 252.47962839089584 312.3653919819265 254.68876739021903 312.3653919819265 C 256.8979063895422 312.3653919819265 258.688767390219 314.15625298260335 258.688767390219 316.3653919819265 Z" stroke-opacity="1" stroke-linecap="round" stroke-linejoin="round" stroke-miterlimit="10"/><text fill="rgb(68,68,68)" stroke="none" font-family="geogebra-sans-serif, sans-serif" font-size="32px" font-style="normal" font-weight="normal" text-decoration="normal" x="259" y="308" text-anchor="start" dominant-baseline="alphabetic" fill-opacity="1">A</text><text fill="none" stroke="rgb(255,255,255)" font-family="geogebra-sans-serif, sans-serif" font-size="32px" font-style="normal" font-weight="normal" text-decoration="normal" x="259" y="308" text-anchor="start" dominant-baseline="alphabetic" stroke-opacity="1" stroke-linecap="round" stroke-linejoin="bevel" stroke-miterlimit="10" stroke-width="3">A</text><text fill="rgb(68,68,68)" stroke="none" font-family="geogebra-sans-serif, sans-serif" font-size="32px" font-style="normal" font-weight="normal" text-decoration="normal" x="259" y="308" text-anchor="start" dominant-baseline="alphabetic" fill-opacity="1">A</text><path fill="rgb(68,68,68)" stroke="none" paint-order="stroke fill markers" d=" M 453.5388819227617 121.51527744938375 C 453.5388819227617 123.72441644870692 451.74802092208483 125.51527744938375 449.5388819227617 125.51527744938375 C 447.3297429234385 125.51527744938375 445.5388819227617 123.72441644870692 445.5388819227617 121.51527744938375 C 445.5388819227617 119.30613845006057 447.3297429234385 117.51527744938375 449.5388819227617 117.51527744938375 C 451.74802092208483 117.51527744938375 453.5388819227617 119.30613845006057 453.5388819227617 121.51527744938375 Z" fill-opacity="1"/><path fill="none" stroke="rgb(0,0,0)" paint-order="fill stroke markers" d=" M 453.5388819227617 121.51527744938375 C 453.5388819227617 123.72441644870692 451.74802092208483 125.51527744938375 449.5388819227617 125.51527744938375 C 447.3297429234385 125.51527744938375 445.5388819227617 123.72441644870692 445.5388819227617 121.51527744938375 C 445.5388819227617 119.30613845006057 447.3297429234385 117.51527744938375 449.5388819227617 117.51527744938375 C 451.74802092208483 117.51527744938375 453.5388819227617 119.30613845006057 453.5388819227617 121.51527744938375 Z" stroke-opacity="1" stroke-linecap="round" stroke-linejoin="round" stroke-miterlimit="10"/><text fill="rgb(68,68,68)" stroke="none" font-family="geogebra-sans-serif, sans-serif" font-size="32px" font-style="normal" font-weight="normal" text-decoration="normal" x="454" y="114" text-anchor="start" dominant-baseline="alphabetic" fill-opacity="1">P</text><text fill="none" stroke="rgb(255,255,255)" font-family="geogebra-sans-serif, sans-serif" font-size="32px" font-style="normal" font-weight="normal" text-decoration="normal" x="454" y="114" text-anchor="start" dominant-baseline="alphabetic" stroke-opacity="1" stroke-linecap="round" stroke-linejoin="bevel" stroke-miterlimit="10" stroke-width="3">P</text><text fill="rgb(68,68,68)" stroke="none" font-family="geogebra-sans-serif, sans-serif" font-size="32px" font-style="normal" font-weight="normal" text-decoration="normal" x="454" y="114" text-anchor="start" dominant-baseline="alphabetic" fill-opacity="1">P</text><path fill="rgb(68,68,68)" stroke="none" paint-order="stroke fill markers" d=" M 453.5388819227617 511.21550651446927 C 453.5388819227617 513.4246455137925 451.74802092208483 515.2155065144693 449.5388819227617 515.2155065144693 C 447.3297429234385 515.2155065144693 445.5388819227617 513.4246455137925 445.5388819227617 511.21550651446927 C 445.5388819227617 509.0063675151461 447.3297429234385 507.21550651446927 449.5388819227617 507.21550651446927 C 451.74802092208483 507.21550651446927 453.5388819227617 509.0063675151461 453.5388819227617 511.21550651446927 Z" fill-opacity="1"/><path fill="none" stroke="rgb(0,0,0)" paint-order="fill stroke markers" d=" M 453.5388819227617 511.21550651446927 C 453.5388819227617 513.4246455137925 451.74802092208483 515.2155065144693 449.5388819227617 515.2155065144693 C 447.3297429234385 515.2155065144693 445.5388819227617 513.4246455137925 445.5388819227617 511.21550651446927 C 445.5388819227617 509.0063675151461 447.3297429234385 507.21550651446927 449.5388819227617 507.21550651446927 C 451.74802092208483 507.21550651446927 453.5388819227617 509.0063675151461 453.5388819227617 511.21550651446927 Z" stroke-opacity="1" stroke-linecap="round" stroke-linejoin="round" stroke-miterlimit="10"/><text fill="rgb(68,68,68)" stroke="none" font-family="geogebra-sans-serif, sans-serif" font-size="32px" font-style="normal" font-weight="normal" text-decoration="normal" x="454" y="503" text-anchor="start" dominant-baseline="alphabetic" fill-opacity="1">P'</text><text fill="none" stroke="rgb(255,255,255)" font-family="geogebra-sans-serif, sans-serif" font-size="32px" font-style="normal" font-weight="normal" text-decoration="normal" x="454" y="503" text-anchor="start" dominant-baseline="alphabetic" stroke-opacity="1" stroke-linecap="round" stroke-linejoin="bevel" stroke-miterlimit="10" stroke-width="3">P'</text><text fill="rgb(68,68,68)" stroke="none" font-family="geogebra-sans-serif, sans-serif" font-size="32px" font-style="normal" font-weight="normal" text-decoration="normal" x="454" y="503" text-anchor="start" dominant-baseline="alphabetic" fill-opacity="1">P'</text></g></g></svg>