<svg version="1.1" xmlns="http://www.w3.org/2000/svg" xmlns:xlink="http://www.w3.org/1999/xlink" width="683" height="617"><defs><clipPath id="KeIiUQyHZiVt"><path fill="none" stroke="none" d=" M 0 0 L 683 0 L 683 617 L 0 617 L 0 0 Z"/></clipPath></defs><g transform="scale(1,1)" clip-path="url(#KeIiUQyHZiVt)"><g><path fill="none" stroke="rgb(0,0,0)" paint-order="fill stroke markers" d=" M 1401.2107327987273 -210.5479464632284 C -137.21906263877574 174.05950239614742 -137.21906263877574 558.6669512555233 1401.2107327987273 943.2744001148991" stroke-opacity="0.6980392156862745" stroke-linecap="round" stroke-linejoin="round" stroke-miterlimit="10" stroke-width="2.5"/><path fill="none" stroke="rgb(0,0,0)" paint-order="fill stroke markers" d=" M 63.694830018301474 303.4030637472881 L 683 7.250867911311673" stroke-opacity="0.6980392156862745" stroke-linecap="round" stroke-linejoin="round" stroke-miterlimit="10" stroke-width="2.5"/><path fill="none" stroke="rgb(0,0,0)" paint-order="fill stroke markers" d=" M 63.694830018301474 303.4030637472881 L 458.5661189714507 303.4030637472881" stroke-opacity="0.6980392156862745" stroke-linecap="round" stroke-linejoin="round" stroke-miterlimit="10" stroke-width="2.5"/><path fill="none" stroke="rgb(0,0,0)" paint-order="fill stroke markers" d=" M 319.5022828817329 366.36322682583534 L 261.13047449487607 303.4030637472881" stroke-opacity="0.6980392156862745" stroke-linecap="round" stroke-linejoin="round" stroke-miterlimit="10" stroke-width="2.5"/><path fill="none" stroke="rgb(0,0,0)" paint-order="fill stroke markers" d=" M 319.5022828817329 366.36322682583534 L 313.2186502633332 184.08058613720877" stroke-opacity="0.6980392156862745" stroke-linecap="round" stroke-linejoin="round" stroke-miterlimit="10" stroke-width="2.5"/><path fill="none" stroke="rgb(0,0,0)" paint-order="fill stroke markers" d=" M 319.5022828817329 366.36322682583534 L 562.7424705083649 64.75810852712937" stroke-opacity="0.6980392156862745" stroke-linecap="round" stroke-linejoin="round" stroke-miterlimit="10" stroke-width="2.5"/><path fill="none" stroke="rgb(0,0,0)" paint-order="fill stroke markers" d=" M 261.13047449487607 303.4030637472881 L 313.2186502633332 184.08058613720877" stroke-opacity="0.6980392156862745" stroke-linecap="round" stroke-linejoin="round" stroke-miterlimit="10" stroke-width="2.5"/><path fill="none" stroke="rgb(0,0,0)" paint-order="fill stroke markers" d=" M 562.7424705083649 64.75810852712937 L 458.5661189714507 303.4030637472881" stroke-opacity="0.6980392156862745" stroke-linecap="round" stroke-linejoin="round" stroke-miterlimit="10" stroke-width="2.5"/><path fill="rgb(77,77,255)" stroke="none" paint-order="stroke fill markers" d=" M 324.5022828817329 366.36322682583534 C 324.5022828817329 369.1246505749893 322.2637066308869 371.36322682583534 319.5022828817329 371.36322682583534 C 316.740859132579 371.36322682583534 314.5022828817329 369.1246505749893 314.5022828817329 366.36322682583534 C 314.5022828817329 363.6018030766814 316.740859132579 361.36322682583534 319.5022828817329 361.36322682583534 C 322.2637066308869 361.36322682583534 324.5022828817329 363.6018030766814 324.5022828817329 366.36322682583534 Z" fill-opacity="1"/><path fill="none" stroke="rgb(0,0,0)" paint-order="fill stroke markers" d=" M 324.5022828817329 366.36322682583534 C 324.5022828817329 369.1246505749893 322.2637066308869 371.36322682583534 319.5022828817329 371.36322682583534 C 316.740859132579 371.36322682583534 314.5022828817329 369.1246505749893 314.5022828817329 366.36322682583534 C 314.5022828817329 363.6018030766814 316.740859132579 361.36322682583534 319.5022828817329 361.36322682583534 C 322.2637066308869 361.36322682583534 324.5022828817329 363.6018030766814 324.5022828817329 366.36322682583534 Z" stroke-opacity="1" stroke-linecap="round" stroke-linejoin="round" stroke-miterlimit="10"/><text fill="rgb(77,77,255)" stroke="none" font-family="geogebra-sans-serif, sans-serif" font-size="32px" font-style="normal" font-weight="normal" text-decoration="normal" x="324" y="356" text-anchor="start" dominant-baseline="alphabetic" fill-opacity="1">S</text><text fill="none" stroke="rgb(255,255,255)" font-family="geogebra-sans-serif, sans-serif" font-size="32px" font-style="normal" font-weight="normal" text-decoration="normal" x="324" y="356" text-anchor="start" dominant-baseline="alphabetic" stroke-opacity="1" stroke-linecap="round" stroke-linejoin="bevel" stroke-miterlimit="10" stroke-width="3">S</text><text fill="rgb(77,77,255)" stroke="none" font-family="geogebra-sans-serif, sans-serif" font-size="32px" font-style="normal" font-weight="normal" text-decoration="normal" x="324" y="356" text-anchor="start" dominant-baseline="alphabetic" fill-opacity="1">S</text><path fill="rgb(125,125,255)" stroke="none" paint-order="stroke fill markers" d=" M 567.7424705083649 64.75810852712937 C 567.7424705083649 67.51953227628333 565.5038942575189 69.75810852712937 562.7424705083649 69.75810852712937 C 559.9810467592109 69.75810852712937 557.7424705083649 67.51953227628333 557.7424705083649 64.75810852712937 C 557.7424705083649 61.996684777975396 559.9810467592109 59.758108527129366 562.7424705083649 59.758108527129366 C 565.5038942575189 59.758108527129366 567.7424705083649 61.996684777975396 567.7424705083649 64.75810852712937 Z" fill-opacity="1"/><path fill="none" stroke="rgb(0,0,0)" paint-order="fill stroke markers" d=" M 567.7424705083649 64.75810852712937 C 567.7424705083649 67.51953227628333 565.5038942575189 69.75810852712937 562.7424705083649 69.75810852712937 C 559.9810467592109 69.75810852712937 557.7424705083649 67.51953227628333 557.7424705083649 64.75810852712937 C 557.7424705083649 61.996684777975396 559.9810467592109 59.758108527129366 562.7424705083649 59.758108527129366 C 565.5038942575189 59.758108527129366 567.7424705083649 61.996684777975396 567.7424705083649 64.75810852712937 Z" stroke-opacity="1" stroke-linecap="round" stroke-linejoin="round" stroke-miterlimit="10"/><text fill="rgb(125,125,255)" stroke="none" font-family="geogebra-sans-serif, sans-serif" font-size="32px" font-style="normal" font-weight="normal" text-decoration="normal" x="567" y="55" text-anchor="start" dominant-baseline="alphabetic" fill-opacity="1">P</text><text fill="none" stroke="rgb(255,255,255)" font-family="geogebra-sans-serif, sans-serif" font-size="32px" font-style="normal" font-weight="normal" text-decoration="normal" x="567" y="55" text-anchor="start" dominant-baseline="alphabetic" stroke-opacity="1" stroke-linecap="round" stroke-linejoin="bevel" stroke-miterlimit="10" stroke-width="3">P</text><text fill="rgb(125,125,255)" stroke="none" font-family="geogebra-sans-serif, sans-serif" font-size="32px" font-style="normal" font-weight="normal" text-decoration="normal" x="567" y="55" text-anchor="start" dominant-baseline="alphabetic" fill-opacity="1">P</text><path fill="rgb(68,68,68)" stroke="none" paint-order="stroke fill markers" d=" M 67.69483001830147 303.4030637472881 C 67.69483001830147 305.6122027466113 65.90396901762465 307.4030637472881 63.694830018301474 307.4030637472881 C 61.4856910189783 307.4030637472881 59.694830018301474 305.6122027466113 59.694830018301474 303.4030637472881 C 59.694830018301474 301.19392474796496 61.4856910189783 299.4030637472881 63.694830018301474 299.4030637472881 C 65.90396901762465 299.4030637472881 67.69483001830147 301.19392474796496 67.69483001830147 303.4030637472881 Z" fill-opacity="1"/><path fill="none" stroke="rgb(0,0,0)" paint-order="fill stroke markers" d=" M 67.69483001830147 303.4030637472881 C 67.69483001830147 305.6122027466113 65.90396901762465 307.4030637472881 63.694830018301474 307.4030637472881 C 61.4856910189783 307.4030637472881 59.694830018301474 305.6122027466113 59.694830018301474 303.4030637472881 C 59.694830018301474 301.19392474796496 61.4856910189783 299.4030637472881 63.694830018301474 299.4030637472881 C 65.90396901762465 299.4030637472881 67.69483001830147 301.19392474796496 67.69483001830147 303.4030637472881 Z" stroke-opacity="1" stroke-linecap="round" stroke-linejoin="round" stroke-miterlimit="10"/><text fill="rgb(68,68,68)" stroke="none" font-family="geogebra-sans-serif, sans-serif" font-size="32px" font-style="normal" font-weight="normal" text-decoration="normal" x="68" y="295" text-anchor="start" dominant-baseline="alphabetic" fill-opacity="1">O</text><text fill="none" stroke="rgb(255,255,255)" font-family="geogebra-sans-serif, sans-serif" font-size="32px" font-style="normal" font-weight="normal" text-decoration="normal" x="68" y="295" text-anchor="start" dominant-baseline="alphabetic" stroke-opacity="1" stroke-linecap="round" stroke-linejoin="bevel" stroke-miterlimit="10" stroke-width="3">O</text><text fill="rgb(68,68,68)" stroke="none" font-family="geogebra-sans-serif, sans-serif" font-size="32px" font-style="normal" font-weight="normal" text-decoration="normal" x="68" y="295" text-anchor="start" dominant-baseline="alphabetic" fill-opacity="1">O</text><path fill="rgb(68,68,68)" stroke="none" paint-order="stroke fill markers" d=" M 462.5661189714507 303.4030637472881 C 462.5661189714507 305.6122027466113 460.77525797077385 307.4030637472881 458.5661189714507 307.4030637472881 C 456.35697997212753 307.4030637472881 454.5661189714507 305.6122027466113 454.5661189714507 303.4030637472881 C 454.5661189714507 301.19392474796496 456.35697997212753 299.4030637472881 458.5661189714507 299.4030637472881 C 460.77525797077385 299.4030637472881 462.5661189714507 301.19392474796496 462.5661189714507 303.4030637472881 Z" fill-opacity="1"/><path fill="none" stroke="rgb(0,0,0)" paint-order="fill stroke markers" d=" M 462.5661189714507 303.4030637472881 C 462.5661189714507 305.6122027466113 460.77525797077385 307.4030637472881 458.5661189714507 307.4030637472881 C 456.35697997212753 307.4030637472881 454.5661189714507 305.6122027466113 454.5661189714507 303.4030637472881 C 454.5661189714507 301.19392474796496 456.35697997212753 299.4030637472881 458.5661189714507 299.4030637472881 C 460.77525797077385 299.4030637472881 462.5661189714507 301.19392474796496 462.5661189714507 303.4030637472881 Z" stroke-opacity="1" stroke-linecap="round" stroke-linejoin="round" stroke-miterlimit="10"/><text fill="rgb(68,68,68)" stroke="none" font-family="geogebra-sans-serif, sans-serif" font-size="32px" font-style="normal" font-weight="normal" text-decoration="normal" x="463" y="295" text-anchor="start" dominant-baseline="alphabetic" fill-opacity="1">V</text><text fill="none" stroke="rgb(255,255,255)" font-family="geogebra-sans-serif, sans-serif" font-size="32px" font-style="normal" font-weight="normal" text-decoration="normal" x="463" y="295" text-anchor="start" dominant-baseline="alphabetic" stroke-opacity="1" stroke-linecap="round" stroke-linejoin="bevel" stroke-miterlimit="10" stroke-width="3">V</text><text fill="rgb(68,68,68)" stroke="none" font-family="geogebra-sans-serif, sans-serif" font-size="32px" font-style="normal" font-weight="normal" text-decoration="normal" x="463" y="295" text-anchor="start" dominant-baseline="alphabetic" fill-opacity="1">V</text><path fill="rgb(68,68,68)" stroke="none" paint-order="stroke fill markers" d=" M 265.13047449487607 303.4030637472881 C 265.13047449487607 305.6122027466113 263.3396134941992 307.4030637472881 261.13047449487607 307.4030637472881 C 258.9213354955529 307.4030637472881 257.13047449487607 305.6122027466113 257.13047449487607 303.4030637472881 C 257.13047449487607 301.19392474796496 258.9213354955529 299.4030637472881 261.13047449487607 299.4030637472881 C 263.3396134941992 299.4030637472881 265.13047449487607 301.19392474796496 265.13047449487607 303.4030637472881 Z" fill-opacity="1"/><path fill="none" stroke="rgb(0,0,0)" paint-order="fill stroke markers" d=" M 265.13047449487607 303.4030637472881 C 265.13047449487607 305.6122027466113 263.3396134941992 307.4030637472881 261.13047449487607 307.4030637472881 C 258.9213354955529 307.4030637472881 257.13047449487607 305.6122027466113 257.13047449487607 303.4030637472881 C 257.13047449487607 301.19392474796496 258.9213354955529 299.4030637472881 261.13047449487607 299.4030637472881 C 263.3396134941992 299.4030637472881 265.13047449487607 301.19392474796496 265.13047449487607 303.4030637472881 Z" stroke-opacity="1" stroke-linecap="round" stroke-linejoin="round" stroke-miterlimit="10"/><text fill="rgb(68,68,68)" stroke="none" font-family="geogebra-sans-serif, sans-serif" font-size="32px" font-style="normal" font-weight="normal" text-decoration="normal" x="265" y="295" text-anchor="start" dominant-baseline="alphabetic" fill-opacity="1">A</text><text fill="none" stroke="rgb(255,255,255)" font-family="geogebra-sans-serif, sans-serif" font-size="32px" font-style="normal" font-weight="normal" text-decoration="normal" x="265" y="295" text-anchor="start" dominant-baseline="alphabetic" stroke-opacity="1" stroke-linecap="round" stroke-linejoin="bevel" stroke-miterlimit="10" stroke-width="3">A</text><text fill="rgb(68,68,68)" stroke="none" font-family="geogebra-sans-serif, sans-serif" font-size="32px" font-style="normal" font-weight="normal" text-decoration="normal" x="265" y="295" text-anchor="start" dominant-baseline="alphabetic" fill-opacity="1">A</text><path fill="rgb(68,68,68)" stroke="none" paint-order="stroke fill markers" d=" M 317.2186502633332 184.08058613720877 C 317.2186502633332 186.28972513653196 315.42778926265635 188.08058613720877 313.2186502633332 188.08058613720877 C 311.00951126401003 188.08058613720877 309.2186502633332 186.28972513653196 309.2186502633332 184.08058613720877 C 309.2186502633332 181.87144713788558 311.00951126401003 180.08058613720877 313.2186502633332 180.08058613720877 C 315.42778926265635 180.08058613720877 317.2186502633332 181.87144713788558 317.2186502633332 184.08058613720877 Z" fill-opacity="1"/><path fill="none" stroke="rgb(0,0,0)" paint-order="fill stroke markers" d=" M 317.2186502633332 184.08058613720877 C 317.2186502633332 186.28972513653196 315.42778926265635 188.08058613720877 313.2186502633332 188.08058613720877 C 311.00951126401003 188.08058613720877 309.2186502633332 186.28972513653196 309.2186502633332 184.08058613720877 C 309.2186502633332 181.87144713788558 311.00951126401003 180.08058613720877 313.2186502633332 180.08058613720877 C 315.42778926265635 180.08058613720877 317.2186502633332 181.87144713788558 317.2186502633332 184.08058613720877 Z" stroke-opacity="1" stroke-linecap="round" stroke-linejoin="round" stroke-miterlimit="10"/><text fill="rgb(68,68,68)" stroke="none" font-family="geogebra-sans-serif, sans-serif" font-size="32px" font-style="normal" font-weight="normal" text-decoration="normal" x="317" y="176" text-anchor="start" dominant-baseline="alphabetic" fill-opacity="1">Y</text><text fill="none" stroke="rgb(255,255,255)" font-family="geogebra-sans-serif, sans-serif" font-size="32px" font-style="normal" font-weight="normal" text-decoration="normal" x="317" y="176" text-anchor="start" dominant-baseline="alphabetic" stroke-opacity="1" stroke-linecap="round" stroke-linejoin="bevel" stroke-miterlimit="10" stroke-width="3">Y</text><text fill="rgb(68,68,68)" stroke="none" font-family="geogebra-sans-serif, sans-serif" font-size="32px" font-style="normal" font-weight="normal" text-decoration="normal" x="317" y="176" text-anchor="start" dominant-baseline="alphabetic" fill-opacity="1">Y</text></g></g></svg>