<svg version="1.1" xmlns="http://www.w3.org/2000/svg" xmlns:xlink="http://www.w3.org/1999/xlink" width="683" height="617"><defs><clipPath id="qVOkTRVSPPQH"><path fill="none" stroke="none" d=" M 0 0 L 683 0 L 683 617 L 0 617 L 0 0 Z"/></clipPath></defs><g transform="scale(1,1)" clip-path="url(#qVOkTRVSPPQH)"><g><path fill="none" stroke="rgb(0,0,0)" paint-order="fill stroke markers" d=" M 1300.4101497381662 -157.5953198479712 C -13.60832736669596 170.90929942824462 -13.60832736669596 499.41391870446046 1300.4101497381662 827.9185379806763" stroke-opacity="0.6980392156862745" stroke-linecap="round" stroke-linejoin="round" stroke-miterlimit="10" stroke-width="2.5"/><path fill="none" stroke="rgb(0,0,0)" paint-order="fill stroke markers" d=" M 392.90986168484244 258.95084223874835 C 392.90986168484244 361.1680927934647 310.046407791295 444.0315466870122 207.8291572365787 444.0315466870122 C 105.61190668186238 444.0315466870122 22.748452788314978 361.1680927934647 22.748452788314978 258.95084223874835 C 22.748452788314978 156.73359168403192 105.61190668186238 73.87013779048448 207.8291572365787 73.87013779048448 C 310.046407791295 73.87013779048448 392.90986168484244 156.73359168403192 392.90986168484244 258.95084223874835 Z" stroke-opacity="0.6980392156862745" stroke-linecap="round" stroke-linejoin="round" stroke-miterlimit="10" stroke-width="2.5"/><path fill="none" stroke="rgb(0,0,0)" paint-order="fill stroke markers" d=" M 253.30167579522913 622 L 253.30167579522913 -5" stroke-opacity="0.6980392156862745" stroke-linecap="round" stroke-linejoin="round" stroke-miterlimit="10" stroke-width="2.5"/><path fill="none" stroke="rgb(0,0,0)" paint-order="fill stroke markers" d=" M 253.30167579522913 79.54315785761935 L 580.1012591631097 79.54315785761935" stroke-opacity="0.6980392156862745" stroke-linecap="round" stroke-linejoin="round" stroke-miterlimit="10" stroke-width="2.5"/><path fill="none" stroke="rgb(0,0,0)" paint-order="fill stroke markers" d=" M 253.30167579522913 438.35852661987735 L 358.1208643818456 438.35852661987735" stroke-opacity="0.6980392156862745" stroke-linecap="round" stroke-linejoin="round" stroke-miterlimit="10" stroke-width="2.5"/><path fill="none" stroke="rgb(0,0,0)" paint-order="fill stroke markers" d=" M 207.8291572365787 258.95084223874835 L 580.1012591631097 79.54315785761935" stroke-opacity="0.6980392156862745" stroke-linecap="round" stroke-linejoin="round" stroke-miterlimit="10" stroke-width="2.5"/><path fill="none" stroke="rgb(0,0,0)" paint-order="fill stroke markers" d=" M 207.8291572365787 258.95084223874835 L 358.1208643818456 438.35852661987735" stroke-opacity="0.6980392156862745" stroke-linecap="round" stroke-linejoin="round" stroke-miterlimit="10" stroke-width="2.5"/><path fill="none" stroke="rgb(0,0,0)" paint-order="fill stroke markers" d=" M 207.8291572365787 258.95084223874835 L 253.30167579522913 79.54315785761935" stroke-opacity="0.6980392156862745" stroke-linecap="round" stroke-linejoin="round" stroke-miterlimit="10" stroke-width="2.5"/><path fill="none" stroke="rgb(0,0,0)" paint-order="fill stroke markers" d=" M 207.8291572365787 258.95084223874835 L 253.30167579522913 438.35852661987735" stroke-opacity="0.6980392156862745" stroke-linecap="round" stroke-linejoin="round" stroke-miterlimit="10" stroke-width="2.5"/><path fill="none" stroke="rgb(0,0,0)" paint-order="fill stroke markers" d=" M 207.8291572365787 258.95084223874835 L 376.49090802381 335.1616090663525" stroke-opacity="0.6980392156862745" stroke-linecap="round" stroke-linejoin="round" stroke-miterlimit="10" stroke-width="2.5"/><path fill="none" stroke="rgb(0,0,0)" paint-order="fill stroke markers" d=" M 376.49090802381 335.1616090663525 L 580.1012591631097 79.54315785761935" stroke-opacity="0.6980392156862745" stroke-linecap="round" stroke-linejoin="round" stroke-miterlimit="10" stroke-width="2.5"/><path fill="none" stroke="rgb(0,0,0)" paint-order="fill stroke markers" d=" M 376.49090802381 335.1616090663525 L 358.1208643818456 438.35852661987735" stroke-opacity="0.6980392156862745" stroke-linecap="round" stroke-linejoin="round" stroke-miterlimit="10" stroke-width="2.5"/><path fill="rgb(77,77,255)" stroke="none" paint-order="stroke fill markers" d=" M 381.49090802381 335.1616090663525 C 381.49090802381 337.9230328155065 379.25233177296394 340.1616090663525 376.49090802381 340.1616090663525 C 373.72948427465604 340.1616090663525 371.49090802381 337.9230328155065 371.49090802381 335.1616090663525 C 371.49090802381 332.4001853171986 373.72948427465604 330.1616090663525 376.49090802381 330.1616090663525 C 379.25233177296394 330.1616090663525 381.49090802381 332.4001853171986 381.49090802381 335.1616090663525 Z" fill-opacity="1"/><path fill="none" stroke="rgb(0,0,0)" paint-order="fill stroke markers" d=" M 381.49090802381 335.1616090663525 C 381.49090802381 337.9230328155065 379.25233177296394 340.1616090663525 376.49090802381 340.1616090663525 C 373.72948427465604 340.1616090663525 371.49090802381 337.9230328155065 371.49090802381 335.1616090663525 C 371.49090802381 332.4001853171986 373.72948427465604 330.1616090663525 376.49090802381 330.1616090663525 C 379.25233177296394 330.1616090663525 381.49090802381 332.4001853171986 381.49090802381 335.1616090663525 Z" stroke-opacity="1" stroke-linecap="round" stroke-linejoin="round" stroke-miterlimit="10"/><text fill="rgb(77,77,255)" stroke="none" font-family="geogebra-sans-serif, sans-serif" font-size="32px" font-style="normal" font-weight="normal" text-decoration="normal" x="380" y="325" text-anchor="start" dominant-baseline="alphabetic" fill-opacity="1">S</text><text fill="none" stroke="rgb(255,255,255)" font-family="geogebra-sans-serif, sans-serif" font-size="32px" font-style="normal" font-weight="normal" text-decoration="normal" x="380" y="325" text-anchor="start" dominant-baseline="alphabetic" stroke-opacity="1" stroke-linecap="round" stroke-linejoin="bevel" stroke-miterlimit="10" stroke-width="3">S</text><text fill="rgb(77,77,255)" stroke="none" font-family="geogebra-sans-serif, sans-serif" font-size="32px" font-style="normal" font-weight="normal" text-decoration="normal" x="380" y="325" text-anchor="start" dominant-baseline="alphabetic" fill-opacity="1">S</text><path fill="rgb(77,77,255)" stroke="none" paint-order="stroke fill markers" d=" M 212.8291572365787 258.95084223874835 C 212.8291572365787 261.7122659879023 210.5905809857327 263.95084223874835 207.8291572365787 263.95084223874835 C 205.06773348742473 263.95084223874835 202.8291572365787 261.7122659879023 202.8291572365787 258.95084223874835 C 202.8291572365787 256.1894184895944 205.06773348742473 253.95084223874835 207.8291572365787 253.95084223874835 C 210.5905809857327 253.95084223874835 212.8291572365787 256.1894184895944 212.8291572365787 258.95084223874835 Z" fill-opacity="1"/><path fill="none" stroke="rgb(0,0,0)" paint-order="fill stroke markers" d=" M 212.8291572365787 258.95084223874835 C 212.8291572365787 261.7122659879023 210.5905809857327 263.95084223874835 207.8291572365787 263.95084223874835 C 205.06773348742473 263.95084223874835 202.8291572365787 261.7122659879023 202.8291572365787 258.95084223874835 C 202.8291572365787 256.1894184895944 205.06773348742473 253.95084223874835 207.8291572365787 253.95084223874835 C 210.5905809857327 253.95084223874835 212.8291572365787 256.1894184895944 212.8291572365787 258.95084223874835 Z" stroke-opacity="1" stroke-linecap="round" stroke-linejoin="round" stroke-miterlimit="10"/><text fill="rgb(77,77,255)" stroke="none" font-family="geogebra-sans-serif, sans-serif" font-size="32px" font-style="normal" font-weight="normal" text-decoration="normal" x="212" y="249" text-anchor="start" dominant-baseline="alphabetic" fill-opacity="1">O</text><text fill="none" stroke="rgb(255,255,255)" font-family="geogebra-sans-serif, sans-serif" font-size="32px" font-style="normal" font-weight="normal" text-decoration="normal" x="212" y="249" text-anchor="start" dominant-baseline="alphabetic" stroke-opacity="1" stroke-linecap="round" stroke-linejoin="bevel" stroke-miterlimit="10" stroke-width="3">O</text><text fill="rgb(77,77,255)" stroke="none" font-family="geogebra-sans-serif, sans-serif" font-size="32px" font-style="normal" font-weight="normal" text-decoration="normal" x="212" y="249" text-anchor="start" dominant-baseline="alphabetic" fill-opacity="1">O</text><path fill="rgb(68,68,68)" stroke="none" paint-order="stroke fill markers" d=" M 257.30167579522913 79.54315785761935 C 257.30167579522913 81.75229685694252 255.5108147945523 83.54315785761935 253.30167579522913 83.54315785761935 C 251.09253679590594 83.54315785761935 249.30167579522913 81.75229685694252 249.30167579522913 79.54315785761935 C 249.30167579522913 77.33401885829618 251.09253679590594 75.54315785761935 253.30167579522913 75.54315785761935 C 255.5108147945523 75.54315785761935 257.30167579522913 77.33401885829618 257.30167579522913 79.54315785761935 Z" fill-opacity="1"/><path fill="none" stroke="rgb(0,0,0)" paint-order="fill stroke markers" d=" M 257.30167579522913 79.54315785761935 C 257.30167579522913 81.75229685694252 255.5108147945523 83.54315785761935 253.30167579522913 83.54315785761935 C 251.09253679590594 83.54315785761935 249.30167579522913 81.75229685694252 249.30167579522913 79.54315785761935 C 249.30167579522913 77.33401885829618 251.09253679590594 75.54315785761935 253.30167579522913 75.54315785761935 C 255.5108147945523 75.54315785761935 257.30167579522913 77.33401885829618 257.30167579522913 79.54315785761935 Z" stroke-opacity="1" stroke-linecap="round" stroke-linejoin="round" stroke-miterlimit="10"/><text fill="rgb(68,68,68)" stroke="none" font-family="geogebra-sans-serif, sans-serif" font-size="32px" font-style="normal" font-weight="normal" text-decoration="normal" x="257" y="72" text-anchor="start" dominant-baseline="alphabetic" fill-opacity="1">M</text><text fill="none" stroke="rgb(255,255,255)" font-family="geogebra-sans-serif, sans-serif" font-size="32px" font-style="normal" font-weight="normal" text-decoration="normal" x="257" y="72" text-anchor="start" dominant-baseline="alphabetic" stroke-opacity="1" stroke-linecap="round" stroke-linejoin="bevel" stroke-miterlimit="10" stroke-width="3">M</text><text fill="rgb(68,68,68)" stroke="none" font-family="geogebra-sans-serif, sans-serif" font-size="32px" font-style="normal" font-weight="normal" text-decoration="normal" x="257" y="72" text-anchor="start" dominant-baseline="alphabetic" fill-opacity="1">M</text><path fill="rgb(68,68,68)" stroke="none" paint-order="stroke fill markers" d=" M 257.30167579522913 438.35852661987735 C 257.30167579522913 440.5676656192005 255.5108147945523 442.35852661987735 253.30167579522913 442.35852661987735 C 251.09253679590594 442.35852661987735 249.30167579522913 440.5676656192005 249.30167579522913 438.35852661987735 C 249.30167579522913 436.1493876205542 251.09253679590594 434.35852661987735 253.30167579522913 434.35852661987735 C 255.5108147945523 434.35852661987735 257.30167579522913 436.1493876205542 257.30167579522913 438.35852661987735 Z" fill-opacity="1"/><path fill="none" stroke="rgb(0,0,0)" paint-order="fill stroke markers" d=" M 257.30167579522913 438.35852661987735 C 257.30167579522913 440.5676656192005 255.5108147945523 442.35852661987735 253.30167579522913 442.35852661987735 C 251.09253679590594 442.35852661987735 249.30167579522913 440.5676656192005 249.30167579522913 438.35852661987735 C 249.30167579522913 436.1493876205542 251.09253679590594 434.35852661987735 253.30167579522913 434.35852661987735 C 255.5108147945523 434.35852661987735 257.30167579522913 436.1493876205542 257.30167579522913 438.35852661987735 Z" stroke-opacity="1" stroke-linecap="round" stroke-linejoin="round" stroke-miterlimit="10"/><text fill="rgb(68,68,68)" stroke="none" font-family="geogebra-sans-serif, sans-serif" font-size="32px" font-style="normal" font-weight="normal" text-decoration="normal" x="257" y="430" text-anchor="start" dominant-baseline="alphabetic" fill-opacity="1">N</text><text fill="none" stroke="rgb(255,255,255)" font-family="geogebra-sans-serif, sans-serif" font-size="32px" font-style="normal" font-weight="normal" text-decoration="normal" x="257" y="430" text-anchor="start" dominant-baseline="alphabetic" stroke-opacity="1" stroke-linecap="round" stroke-linejoin="bevel" stroke-miterlimit="10" stroke-width="3">N</text><text fill="rgb(68,68,68)" stroke="none" font-family="geogebra-sans-serif, sans-serif" font-size="32px" font-style="normal" font-weight="normal" text-decoration="normal" x="257" y="430" text-anchor="start" dominant-baseline="alphabetic" fill-opacity="1">N</text><path fill="rgb(68,68,68)" stroke="none" paint-order="stroke fill markers" d=" M 584.1012591631097 79.54315785761935 C 584.1012591631097 81.75229685694252 582.3103981624329 83.54315785761935 580.1012591631097 83.54315785761935 C 577.8921201637866 83.54315785761935 576.1012591631097 81.75229685694252 576.1012591631097 79.54315785761935 C 576.1012591631097 77.33401885829618 577.8921201637866 75.54315785761935 580.1012591631097 75.54315785761935 C 582.3103981624329 75.54315785761935 584.1012591631097 77.33401885829618 584.1012591631097 79.54315785761935 Z" fill-opacity="1"/><path fill="none" stroke="rgb(0,0,0)" paint-order="fill stroke markers" d=" M 584.1012591631097 79.54315785761935 C 584.1012591631097 81.75229685694252 582.3103981624329 83.54315785761935 580.1012591631097 83.54315785761935 C 577.8921201637866 83.54315785761935 576.1012591631097 81.75229685694252 576.1012591631097 79.54315785761935 C 576.1012591631097 77.33401885829618 577.8921201637866 75.54315785761935 580.1012591631097 75.54315785761935 C 582.3103981624329 75.54315785761935 584.1012591631097 77.33401885829618 584.1012591631097 79.54315785761935 Z" stroke-opacity="1" stroke-linecap="round" stroke-linejoin="round" stroke-miterlimit="10"/><text fill="rgb(68,68,68)" stroke="none" font-family="geogebra-sans-serif, sans-serif" font-size="32px" font-style="normal" font-weight="normal" text-decoration="normal" x="584" y="72" text-anchor="start" dominant-baseline="alphabetic" fill-opacity="1">P</text><text fill="none" stroke="rgb(255,255,255)" font-family="geogebra-sans-serif, sans-serif" font-size="32px" font-style="normal" font-weight="normal" text-decoration="normal" x="584" y="72" text-anchor="start" dominant-baseline="alphabetic" stroke-opacity="1" stroke-linecap="round" stroke-linejoin="bevel" stroke-miterlimit="10" stroke-width="3">P</text><text fill="rgb(68,68,68)" stroke="none" font-family="geogebra-sans-serif, sans-serif" font-size="32px" font-style="normal" font-weight="normal" text-decoration="normal" x="584" y="72" text-anchor="start" dominant-baseline="alphabetic" fill-opacity="1">P</text><path fill="rgb(68,68,68)" stroke="none" paint-order="stroke fill markers" d=" M 362.1208643818456 438.35852661987735 C 362.1208643818456 440.5676656192005 360.33000338116875 442.35852661987735 358.1208643818456 442.35852661987735 C 355.91172538252243 442.35852661987735 354.1208643818456 440.5676656192005 354.1208643818456 438.35852661987735 C 354.1208643818456 436.1493876205542 355.91172538252243 434.35852661987735 358.1208643818456 434.35852661987735 C 360.33000338116875 434.35852661987735 362.1208643818456 436.1493876205542 362.1208643818456 438.35852661987735 Z" fill-opacity="1"/><path fill="none" stroke="rgb(0,0,0)" paint-order="fill stroke markers" d=" M 362.1208643818456 438.35852661987735 C 362.1208643818456 440.5676656192005 360.33000338116875 442.35852661987735 358.1208643818456 442.35852661987735 C 355.91172538252243 442.35852661987735 354.1208643818456 440.5676656192005 354.1208643818456 438.35852661987735 C 354.1208643818456 436.1493876205542 355.91172538252243 434.35852661987735 358.1208643818456 434.35852661987735 C 360.33000338116875 434.35852661987735 362.1208643818456 436.1493876205542 362.1208643818456 438.35852661987735 Z" stroke-opacity="1" stroke-linecap="round" stroke-linejoin="round" stroke-miterlimit="10"/><text fill="rgb(68,68,68)" stroke="none" font-family="geogebra-sans-serif, sans-serif" font-size="32px" font-style="normal" font-weight="normal" text-decoration="normal" x="362" y="430" text-anchor="start" dominant-baseline="alphabetic" fill-opacity="1">Q</text><text fill="none" stroke="rgb(255,255,255)" font-family="geogebra-sans-serif, sans-serif" font-size="32px" font-style="normal" font-weight="normal" text-decoration="normal" x="362" y="430" text-anchor="start" dominant-baseline="alphabetic" stroke-opacity="1" stroke-linecap="round" stroke-linejoin="bevel" stroke-miterlimit="10" stroke-width="3">Q</text><text fill="rgb(68,68,68)" stroke="none" font-family="geogebra-sans-serif, sans-serif" font-size="32px" font-style="normal" font-weight="normal" text-decoration="normal" x="362" y="430" text-anchor="start" dominant-baseline="alphabetic" fill-opacity="1">Q</text></g></g></svg>