<svg version="1.1" xmlns="http://www.w3.org/2000/svg" xmlns:xlink="http://www.w3.org/1999/xlink" width="683" height="615"><defs><clipPath id="IlLNGdtdWtSa"><path fill="none" stroke="none" d=" M 0 0 L 683 0 L 683 615 L 0 615 L 0 0 Z"/></clipPath></defs><g transform="scale(1,1)" clip-path="url(#IlLNGdtdWtSa)"><g><path fill="none" stroke="rgb(0,0,0)" paint-order="fill stroke markers" d=" M 609.1635694224254 0 C 131.29147685919128 205.92033333333336 131.29147685919128 411.8406666666667 609.1635694224254 617.7610000000001" stroke-opacity="0.6980392156862745" stroke-linecap="round" stroke-linejoin="round" stroke-miterlimit="10" stroke-width="2.5"/><path fill="none" stroke="rgb(0,0,0)" paint-order="fill stroke markers" d=" M 184.20949999999982 620 L 184.20949999999982 -5" stroke-opacity="0.6980392156862745" stroke-linecap="round" stroke-linejoin="round" stroke-miterlimit="10" stroke-width="2.5"/><path fill="none" stroke="rgb(0,0,0)" paint-order="fill stroke markers" d=" M 105.79738669754872 246.2421954903919 L 683 -39.54224279586708" stroke-opacity="0.6980392156862745" stroke-linecap="round" stroke-linejoin="round" stroke-miterlimit="10" stroke-width="2.5"/><path fill="none" stroke="rgb(0,0,0)" paint-order="fill stroke markers" d=" M 105.79738669754872 246.2421954903919 L 683 781.4365811906086" stroke-opacity="0.6980392156862745" stroke-linecap="round" stroke-linejoin="round" stroke-miterlimit="10" stroke-width="2.5"/><path fill="none" stroke="rgb(0,0,0)" paint-order="fill stroke markers" d=" M 522.233026144201 40.05666798433481 L 317.30949999999984 308.88050000000004" stroke-opacity="0.6980392156862745" stroke-linecap="round" stroke-linejoin="round" stroke-miterlimit="10" stroke-width="2.5"/><path fill="none" stroke="rgb(0,0,0)" paint-order="fill stroke markers" d=" M 317.30949999999984 308.88050000000004 L 328.16673226894113 452.427722996449" stroke-opacity="0.6980392156862745" stroke-linecap="round" stroke-linejoin="round" stroke-miterlimit="10" stroke-width="2.5"/><path fill="none" stroke="rgb(0,0,0)" paint-order="fill stroke markers" d=" M 317.30949999999984 308.88050000000004 L 105.79738669754872 246.2421954903919" stroke-opacity="0.6980392156862745" stroke-linecap="round" stroke-linejoin="round" stroke-miterlimit="10" stroke-width="2.5"/><path fill="none" stroke="rgb(0,0,0)" paint-order="fill stroke markers" d=" M 250.75949999999983 174.46858399216742 L 250.75949999999983 380.6541114982245" stroke-opacity="0.6980392156862745" stroke-linejoin="round" stroke-miterlimit="10" stroke-width="2.5" stroke-dasharray="10.5,8"/><path fill="none" stroke="rgb(0,0,0)" paint-order="fill stroke markers" d=" M 317.30949999999984 308.88050000000004 L 250.75949999999983 174.46858399216742" stroke-opacity="0.6980392156862745" stroke-linejoin="round" stroke-miterlimit="10" stroke-width="2.5" stroke-dasharray="10.5,8"/><path fill="none" stroke="rgb(0,0,0)" paint-order="fill stroke markers" d=" M 317.30949999999984 308.88050000000004 L 250.75949999999983 380.6541114982245" stroke-opacity="0.6980392156862745" stroke-linejoin="round" stroke-miterlimit="10" stroke-width="2.5" stroke-dasharray="10.5,8"/><path fill="rgb(77,77,255)" stroke="none" paint-order="stroke fill markers" d=" M 322.30949999999984 308.88050000000004 C 322.30949999999984 311.641923749154 320.0709237491538 313.88050000000004 317.30949999999984 313.88050000000004 C 314.5480762508459 313.88050000000004 312.30949999999984 311.641923749154 312.30949999999984 308.88050000000004 C 312.30949999999984 306.1190762508461 314.5480762508459 303.88050000000004 317.30949999999984 303.88050000000004 C 320.0709237491538 303.88050000000004 322.30949999999984 306.1190762508461 322.30949999999984 308.88050000000004 Z" fill-opacity="1"/><path fill="none" stroke="rgb(0,0,0)" paint-order="fill stroke markers" d=" M 322.30949999999984 308.88050000000004 C 322.30949999999984 311.641923749154 320.0709237491538 313.88050000000004 317.30949999999984 313.88050000000004 C 314.5480762508459 313.88050000000004 312.30949999999984 311.641923749154 312.30949999999984 308.88050000000004 C 312.30949999999984 306.1190762508461 314.5480762508459 303.88050000000004 317.30949999999984 303.88050000000004 C 320.0709237491538 303.88050000000004 322.30949999999984 306.1190762508461 322.30949999999984 308.88050000000004 Z" stroke-opacity="1" stroke-linecap="round" stroke-linejoin="round" stroke-miterlimit="10"/><text fill="rgb(77,77,255)" stroke="none" font-family="geogebra-sans-serif, sans-serif" font-size="32px" font-style="normal" font-weight="normal" text-decoration="normal" x="321" y="299" text-anchor="start" dominant-baseline="alphabetic" fill-opacity="1">S</text><text fill="none" stroke="rgb(255,255,255)" font-family="geogebra-sans-serif, sans-serif" font-size="32px" font-style="normal" font-weight="normal" text-decoration="normal" x="321" y="299" text-anchor="start" dominant-baseline="alphabetic" stroke-opacity="1" stroke-linecap="round" stroke-linejoin="bevel" stroke-miterlimit="10" stroke-width="3">S</text><text fill="rgb(77,77,255)" stroke="none" font-family="geogebra-sans-serif, sans-serif" font-size="32px" font-style="normal" font-weight="normal" text-decoration="normal" x="321" y="299" text-anchor="start" dominant-baseline="alphabetic" fill-opacity="1">S</text><path fill="rgb(125,125,255)" stroke="none" paint-order="stroke fill markers" d=" M 527.233026144201 40.05666798433481 C 527.233026144201 42.81809173348877 524.994449893355 45.05666798433481 522.233026144201 45.05666798433481 C 519.471602395047 45.05666798433481 517.233026144201 42.81809173348877 517.233026144201 40.05666798433481 C 517.233026144201 37.29524423518084 519.471602395047 35.05666798433481 522.233026144201 35.05666798433481 C 524.994449893355 35.05666798433481 527.233026144201 37.29524423518084 527.233026144201 40.05666798433481 Z" fill-opacity="1"/><path fill="none" stroke="rgb(0,0,0)" paint-order="fill stroke markers" d=" M 527.233026144201 40.05666798433481 C 527.233026144201 42.81809173348877 524.994449893355 45.05666798433481 522.233026144201 45.05666798433481 C 519.471602395047 45.05666798433481 517.233026144201 42.81809173348877 517.233026144201 40.05666798433481 C 517.233026144201 37.29524423518084 519.471602395047 35.05666798433481 522.233026144201 35.05666798433481 C 524.994449893355 35.05666798433481 527.233026144201 37.29524423518084 527.233026144201 40.05666798433481 Z" stroke-opacity="1" stroke-linecap="round" stroke-linejoin="round" stroke-miterlimit="10"/><text fill="rgb(125,125,255)" stroke="none" font-family="geogebra-sans-serif, sans-serif" font-size="32px" font-style="normal" font-weight="normal" text-decoration="normal" x="526" y="32" text-anchor="start" dominant-baseline="alphabetic" fill-opacity="1">P</text><text fill="none" stroke="rgb(255,255,255)" font-family="geogebra-sans-serif, sans-serif" font-size="32px" font-style="normal" font-weight="normal" text-decoration="normal" x="526" y="32" text-anchor="start" dominant-baseline="alphabetic" stroke-opacity="1" stroke-linecap="round" stroke-linejoin="bevel" stroke-miterlimit="10" stroke-width="3">P</text><text fill="rgb(125,125,255)" stroke="none" font-family="geogebra-sans-serif, sans-serif" font-size="32px" font-style="normal" font-weight="normal" text-decoration="normal" x="526" y="32" text-anchor="start" dominant-baseline="alphabetic" fill-opacity="1">P</text><path fill="rgb(125,125,255)" stroke="none" paint-order="stroke fill markers" d=" M 333.16673226894113 452.427722996449 C 333.16673226894113 455.18914674560295 330.9281560180951 457.427722996449 328.16673226894113 457.427722996449 C 325.4053085197872 457.427722996449 323.16673226894113 455.18914674560295 323.16673226894113 452.427722996449 C 323.16673226894113 449.66629924729506 325.4053085197872 447.427722996449 328.16673226894113 447.427722996449 C 330.9281560180951 447.427722996449 333.16673226894113 449.66629924729506 333.16673226894113 452.427722996449 Z" fill-opacity="1"/><path fill="none" stroke="rgb(0,0,0)" paint-order="fill stroke markers" d=" M 333.16673226894113 452.427722996449 C 333.16673226894113 455.18914674560295 330.9281560180951 457.427722996449 328.16673226894113 457.427722996449 C 325.4053085197872 457.427722996449 323.16673226894113 455.18914674560295 323.16673226894113 452.427722996449 C 323.16673226894113 449.66629924729506 325.4053085197872 447.427722996449 328.16673226894113 447.427722996449 C 330.9281560180951 447.427722996449 333.16673226894113 449.66629924729506 333.16673226894113 452.427722996449 Z" stroke-opacity="1" stroke-linecap="round" stroke-linejoin="round" stroke-miterlimit="10"/><text fill="rgb(125,125,255)" stroke="none" font-family="geogebra-sans-serif, sans-serif" font-size="32px" font-style="normal" font-weight="normal" text-decoration="normal" x="332" y="442" text-anchor="start" dominant-baseline="alphabetic" fill-opacity="1">Q</text><text fill="none" stroke="rgb(255,255,255)" font-family="geogebra-sans-serif, sans-serif" font-size="32px" font-style="normal" font-weight="normal" text-decoration="normal" x="332" y="442" text-anchor="start" dominant-baseline="alphabetic" stroke-opacity="1" stroke-linecap="round" stroke-linejoin="bevel" stroke-miterlimit="10" stroke-width="3">Q</text><text fill="rgb(125,125,255)" stroke="none" font-family="geogebra-sans-serif, sans-serif" font-size="32px" font-style="normal" font-weight="normal" text-decoration="normal" x="332" y="442" text-anchor="start" dominant-baseline="alphabetic" fill-opacity="1">Q</text><path fill="rgb(68,68,68)" stroke="none" paint-order="stroke fill markers" d=" M 109.79738669754872 246.2421954903919 C 109.79738669754872 248.45133448971507 108.00652569687189 250.2421954903919 105.79738669754872 250.2421954903919 C 103.58824769822554 250.2421954903919 101.79738669754872 248.45133448971507 101.79738669754872 246.2421954903919 C 101.79738669754872 244.03305649106872 103.58824769822554 242.2421954903919 105.79738669754872 242.2421954903919 C 108.00652569687189 242.2421954903919 109.79738669754872 244.03305649106872 109.79738669754872 246.2421954903919 Z" fill-opacity="1"/><path fill="none" stroke="rgb(0,0,0)" paint-order="fill stroke markers" d=" M 109.79738669754872 246.2421954903919 C 109.79738669754872 248.45133448971507 108.00652569687189 250.2421954903919 105.79738669754872 250.2421954903919 C 103.58824769822554 250.2421954903919 101.79738669754872 248.45133448971507 101.79738669754872 246.2421954903919 C 101.79738669754872 244.03305649106872 103.58824769822554 242.2421954903919 105.79738669754872 242.2421954903919 C 108.00652569687189 242.2421954903919 109.79738669754872 244.03305649106872 109.79738669754872 246.2421954903919 Z" stroke-opacity="1" stroke-linecap="round" stroke-linejoin="round" stroke-miterlimit="10"/><text fill="rgb(68,68,68)" stroke="none" font-family="geogebra-sans-serif, sans-serif" font-size="32px" font-style="normal" font-weight="normal" text-decoration="normal" x="110" y="238" text-anchor="start" dominant-baseline="alphabetic" fill-opacity="1">O</text><text fill="none" stroke="rgb(255,255,255)" font-family="geogebra-sans-serif, sans-serif" font-size="32px" font-style="normal" font-weight="normal" text-decoration="normal" x="110" y="238" text-anchor="start" dominant-baseline="alphabetic" stroke-opacity="1" stroke-linecap="round" stroke-linejoin="bevel" stroke-miterlimit="10" stroke-width="3">O</text><text fill="rgb(68,68,68)" stroke="none" font-family="geogebra-sans-serif, sans-serif" font-size="32px" font-style="normal" font-weight="normal" text-decoration="normal" x="110" y="238" text-anchor="start" dominant-baseline="alphabetic" fill-opacity="1">O</text><path fill="rgb(77,77,255)" stroke="none" paint-order="stroke fill markers" d=" M 255.75949999999983 308.88050000000004 C 255.75949999999983 311.641923749154 253.5209237491538 313.88050000000004 250.75949999999983 313.88050000000004 C 247.99807625084586 313.88050000000004 245.75949999999983 311.641923749154 245.75949999999983 308.88050000000004 C 245.75949999999983 306.1190762508461 247.99807625084586 303.88050000000004 250.75949999999983 303.88050000000004 C 253.5209237491538 303.88050000000004 255.75949999999983 306.1190762508461 255.75949999999983 308.88050000000004 Z" fill-opacity="1"/><path fill="none" stroke="rgb(0,0,0)" paint-order="fill stroke markers" d=" M 255.75949999999983 308.88050000000004 C 255.75949999999983 311.641923749154 253.5209237491538 313.88050000000004 250.75949999999983 313.88050000000004 C 247.99807625084586 313.88050000000004 245.75949999999983 311.641923749154 245.75949999999983 308.88050000000004 C 245.75949999999983 306.1190762508461 247.99807625084586 303.88050000000004 250.75949999999983 303.88050000000004 C 253.5209237491538 303.88050000000004 255.75949999999983 306.1190762508461 255.75949999999983 308.88050000000004 Z" stroke-opacity="1" stroke-linecap="round" stroke-linejoin="round" stroke-miterlimit="10"/><text fill="rgb(77,77,255)" stroke="none" font-family="geogebra-sans-serif, sans-serif" font-size="32px" font-style="normal" font-weight="normal" text-decoration="normal" x="255" y="299" text-anchor="start" dominant-baseline="alphabetic" fill-opacity="1">A</text><text fill="none" stroke="rgb(255,255,255)" font-family="geogebra-sans-serif, sans-serif" font-size="32px" font-style="normal" font-weight="normal" text-decoration="normal" x="255" y="299" text-anchor="start" dominant-baseline="alphabetic" stroke-opacity="1" stroke-linecap="round" stroke-linejoin="bevel" stroke-miterlimit="10" stroke-width="3">A</text><text fill="rgb(77,77,255)" stroke="none" font-family="geogebra-sans-serif, sans-serif" font-size="32px" font-style="normal" font-weight="normal" text-decoration="normal" x="255" y="299" text-anchor="start" dominant-baseline="alphabetic" fill-opacity="1">A</text><path fill="rgb(68,68,68)" stroke="none" paint-order="stroke fill markers" d=" M 254.75949999999983 380.6541114982245 C 254.75949999999983 382.86325049754765 252.968638999323 384.6541114982245 250.75949999999983 384.6541114982245 C 248.55036100067665 384.6541114982245 246.75949999999983 382.86325049754765 246.75949999999983 380.6541114982245 C 246.75949999999983 378.44497249890134 248.55036100067665 376.6541114982245 250.75949999999983 376.6541114982245 C 252.968638999323 376.6541114982245 254.75949999999983 378.44497249890134 254.75949999999983 380.6541114982245 Z" fill-opacity="1"/><path fill="none" stroke="rgb(0,0,0)" paint-order="fill stroke markers" d=" M 254.75949999999983 380.6541114982245 C 254.75949999999983 382.86325049754765 252.968638999323 384.6541114982245 250.75949999999983 384.6541114982245 C 248.55036100067665 384.6541114982245 246.75949999999983 382.86325049754765 246.75949999999983 380.6541114982245 C 246.75949999999983 378.44497249890134 248.55036100067665 376.6541114982245 250.75949999999983 376.6541114982245 C 252.968638999323 376.6541114982245 254.75949999999983 378.44497249890134 254.75949999999983 380.6541114982245 Z" stroke-opacity="1" stroke-linecap="round" stroke-linejoin="round" stroke-miterlimit="10"/><text fill="rgb(68,68,68)" stroke="none" font-family="geogebra-sans-serif, sans-serif" font-size="32px" font-style="normal" font-weight="normal" text-decoration="normal" x="255" y="373" text-anchor="start" dominant-baseline="alphabetic" fill-opacity="1">Z</text><text fill="none" stroke="rgb(255,255,255)" font-family="geogebra-sans-serif, sans-serif" font-size="32px" font-style="normal" font-weight="normal" text-decoration="normal" x="255" y="373" text-anchor="start" dominant-baseline="alphabetic" stroke-opacity="1" stroke-linecap="round" stroke-linejoin="bevel" stroke-miterlimit="10" stroke-width="3">Z</text><text fill="rgb(68,68,68)" stroke="none" font-family="geogebra-sans-serif, sans-serif" font-size="32px" font-style="normal" font-weight="normal" text-decoration="normal" x="255" y="373" text-anchor="start" dominant-baseline="alphabetic" fill-opacity="1">Z</text><path fill="rgb(68,68,68)" stroke="none" paint-order="stroke fill markers" d=" M 254.75949999999983 174.46858399216742 C 254.75949999999983 176.6777229914906 252.968638999323 178.46858399216742 250.75949999999983 178.46858399216742 C 248.55036100067665 178.46858399216742 246.75949999999983 176.6777229914906 246.75949999999983 174.46858399216742 C 246.75949999999983 172.25944499284424 248.55036100067665 170.46858399216742 250.75949999999983 170.46858399216742 C 252.968638999323 170.46858399216742 254.75949999999983 172.25944499284424 254.75949999999983 174.46858399216742 Z" fill-opacity="1"/><path fill="none" stroke="rgb(0,0,0)" paint-order="fill stroke markers" d=" M 254.75949999999983 174.46858399216742 C 254.75949999999983 176.6777229914906 252.968638999323 178.46858399216742 250.75949999999983 178.46858399216742 C 248.55036100067665 178.46858399216742 246.75949999999983 176.6777229914906 246.75949999999983 174.46858399216742 C 246.75949999999983 172.25944499284424 248.55036100067665 170.46858399216742 250.75949999999983 170.46858399216742 C 252.968638999323 170.46858399216742 254.75949999999983 172.25944499284424 254.75949999999983 174.46858399216742 Z" stroke-opacity="1" stroke-linecap="round" stroke-linejoin="round" stroke-miterlimit="10"/><text fill="rgb(68,68,68)" stroke="none" font-family="geogebra-sans-serif, sans-serif" font-size="32px" font-style="normal" font-weight="normal" text-decoration="normal" x="255" y="166" text-anchor="start" dominant-baseline="alphabetic" fill-opacity="1">Y</text><text fill="none" stroke="rgb(255,255,255)" font-family="geogebra-sans-serif, sans-serif" font-size="32px" font-style="normal" font-weight="normal" text-decoration="normal" x="255" y="166" text-anchor="start" dominant-baseline="alphabetic" stroke-opacity="1" stroke-linecap="round" stroke-linejoin="bevel" stroke-miterlimit="10" stroke-width="3">Y</text><text fill="rgb(68,68,68)" stroke="none" font-family="geogebra-sans-serif, sans-serif" font-size="32px" font-style="normal" font-weight="normal" text-decoration="normal" x="255" y="166" text-anchor="start" dominant-baseline="alphabetic" fill-opacity="1">Y</text></g></g></svg>