<svg version="1.1" xmlns="http://www.w3.org/2000/svg" xmlns:xlink="http://www.w3.org/1999/xlink" width="428" height="348"><defs><clipPath id="zxOzNrlwrBQV"><path fill="none" stroke="none" d=" M 0 0 L 428 0 L 428 348 L 0 348 L 0 0 Z"/></clipPath></defs><g transform="scale(1,1)" clip-path="url(#zxOzNrlwrBQV)"><g><rect fill="rgb(255,255,255)" stroke="none" x="0" y="0" width="428" height="348" fill-opacity="1"/><path fill="none" stroke="rgb(21,101,192)" paint-order="fill stroke markers" d=" M 286.621733894848 203.67788395438546 C 286.621733894848 171.11649625432682 240.90213947365027 144.72027610800788 184.50416161220016 144.72027610800788 C 128.10618375075006 144.72027610800788 82.38658932955234 171.11649625432682 82.38658932955234 203.67788395438546 C 82.38658932955234 236.23927165444414 128.10618375075006 262.6354918007631 184.50416161220016 262.6354918007631 C 240.90213947365027 262.6354918007631 286.621733894848 236.23927165444414 286.621733894848 203.67788395438546 Z" stroke-opacity="0.8" stroke-linecap="round" stroke-linejoin="round" stroke-miterlimit="10" stroke-width="2.5"/><path fill="none" stroke="rgb(21,101,192)" paint-order="fill stroke markers" d=" M 19.969359528288777 124.58860180476118 C -3.805770316397826 201.20109719354468 55.540749727982416 287.7059359380045 152.52352207234148 317.8025669573144 C 249.50629441670057 347.89919797662435 347.3999161490432 310.19063937638 371.1750459937298 233.57814398759643 C 394.9501758384164 156.9656485988129 335.6036557940362 70.46080985435319 238.6208834496771 40.36417883504325 C 141.63811110531802 10.267547815733309 43.74448937297538 47.976106415977625 19.969359528288777 124.58860180476118 Z" stroke-opacity="0.6980392156862745" stroke-linecap="round" stroke-linejoin="round" stroke-miterlimit="10" stroke-width="2.5"/><path fill="none" stroke="rgb(0,0,0)" paint-order="fill stroke markers" d=" M 376.3419942624414 196.16876173428895 L 36.739618228073454 91.03400559918477" stroke-opacity="0.6980392156862745" stroke-linecap="round" stroke-linejoin="round" stroke-miterlimit="10" stroke-width="2.5"/><path fill="none" stroke="rgb(0,0,0)" paint-order="fill stroke markers" d=" M 36.739618228073454 91.03400559918477 L 118.43986894616899 304.18380994502587" stroke-opacity="0.6980392156862745" stroke-linecap="round" stroke-linejoin="round" stroke-miterlimit="10" stroke-width="2.5"/><path fill="none" stroke="rgb(0,0,0)" paint-order="fill stroke markers" d=" M 118.43986894616899 304.18380994502587 L 376.3419942624414 196.16876173428895" stroke-opacity="0.6980392156862745" stroke-linecap="round" stroke-linejoin="round" stroke-miterlimit="10" stroke-width="2.5"/><path fill="none" stroke="rgb(0,0,0)" paint-order="fill stroke markers" d=" M 348.09449840671215 275.1865956664128 L 167.68008948866492 30.076911074776405" stroke-opacity="0.6980392156862745" stroke-linecap="round" stroke-linejoin="round" stroke-miterlimit="10" stroke-width="2.5"/><path fill="none" stroke="rgb(0,0,0)" paint-order="fill stroke markers" d=" M 52.25341034758014 253.35616274622816 L 348.09449840671215 275.1865956664128" stroke-opacity="0.6980392156862745" stroke-linecap="round" stroke-linejoin="round" stroke-miterlimit="10" stroke-width="2.5"/><path fill="none" stroke="rgb(0,0,0)" paint-order="fill stroke markers" d=" M 52.25341034758014 253.35616274622816 L 167.68008948866492 30.076911074776405" stroke-opacity="0.6980392156862745" stroke-linecap="round" stroke-linejoin="round" stroke-miterlimit="10" stroke-width="2.5"/><path fill="none" stroke="rgb(180,179,186)" paint-order="fill stroke markers" d=" M 52.25341034758014 253.35616274622816 L 376.3419942624414 196.16876173428895" stroke-opacity="0.6980392156862745" stroke-linecap="round" stroke-linejoin="round" stroke-miterlimit="10" stroke-width="2.5"/><path fill="none" stroke="rgb(180,179,186)" paint-order="fill stroke markers" d=" M 36.739618228073454 91.03400559918477 L 348.09449840671215 275.1865956664128" stroke-opacity="0.6980392156862745" stroke-linecap="round" stroke-linejoin="round" stroke-miterlimit="10" stroke-width="2.5"/><path fill="none" stroke="rgb(180,179,186)" paint-order="fill stroke markers" d=" M 79.07261001541951 201.47759466455315 L 310.2939933390998 223.83110842960488" stroke-opacity="0.6980392156862745" stroke-linecap="round" stroke-linejoin="round" stroke-miterlimit="10" stroke-width="2.5"/><path fill="rgb(21,101,192)" stroke="none" paint-order="stroke fill markers" d=" M 381.3419942624414 196.16876173428895 C 381.3419942624414 198.93018548344293 379.10341801159535 201.16876173428895 376.3419942624414 201.16876173428895 C 373.58057051328746 201.16876173428895 371.3419942624414 198.93018548344293 371.3419942624414 196.16876173428895 C 371.3419942624414 193.40733798513497 373.58057051328746 191.16876173428895 376.3419942624414 191.16876173428895 C 379.10341801159535 191.16876173428895 381.3419942624414 193.40733798513497 381.3419942624414 196.16876173428895 Z" fill-opacity="1"/><path fill="none" stroke="rgb(0,0,0)" paint-order="fill stroke markers" d=" M 381.3419942624414 196.16876173428895 C 381.3419942624414 198.93018548344293 379.10341801159535 201.16876173428895 376.3419942624414 201.16876173428895 C 373.58057051328746 201.16876173428895 371.3419942624414 198.93018548344293 371.3419942624414 196.16876173428895 C 371.3419942624414 193.40733798513497 373.58057051328746 191.16876173428895 376.3419942624414 191.16876173428895 C 379.10341801159535 191.16876173428895 381.3419942624414 193.40733798513497 381.3419942624414 196.16876173428895 Z" stroke-opacity="1" stroke-linecap="round" stroke-linejoin="round" stroke-miterlimit="10"/><text fill="rgb(21,101,192)" stroke="none" font-family="geogebra-sans-serif, sans-serif" font-size="16px" font-style="normal" font-weight="normal" text-decoration="normal" x="380" y="186" text-anchor="start" dominant-baseline="alphabetic" fill-opacity="1">A</text><path fill="rgb(110,109,115)" stroke="none" paint-order="stroke fill markers" d=" M 123.43986894616899 304.18380994502587 C 123.43986894616899 306.9452336941798 121.20129269532295 309.18380994502587 118.43986894616899 309.18380994502587 C 115.67844519701502 309.18380994502587 113.43986894616899 306.9452336941798 113.43986894616899 304.18380994502587 C 113.43986894616899 301.4223861958719 115.67844519701502 299.18380994502587 118.43986894616899 299.18380994502587 C 121.20129269532295 299.18380994502587 123.43986894616899 301.4223861958719 123.43986894616899 304.18380994502587 Z" fill-opacity="1"/><path fill="none" stroke="rgb(0,0,0)" paint-order="fill stroke markers" d=" M 123.43986894616899 304.18380994502587 C 123.43986894616899 306.9452336941798 121.20129269532295 309.18380994502587 118.43986894616899 309.18380994502587 C 115.67844519701502 309.18380994502587 113.43986894616899 306.9452336941798 113.43986894616899 304.18380994502587 C 113.43986894616899 301.4223861958719 115.67844519701502 299.18380994502587 118.43986894616899 299.18380994502587 C 121.20129269532295 299.18380994502587 123.43986894616899 301.4223861958719 123.43986894616899 304.18380994502587 Z" stroke-opacity="1" stroke-linecap="round" stroke-linejoin="round" stroke-miterlimit="10"/><text fill="rgb(110,109,115)" stroke="none" font-family="geogebra-sans-serif, sans-serif" font-size="16px" font-style="normal" font-weight="normal" text-decoration="normal" x="117" y="329" text-anchor="start" dominant-baseline="alphabetic" fill-opacity="1">C</text><path fill="rgb(110,109,115)" stroke="none" paint-order="stroke fill markers" d=" M 41.739618228073454 91.03400559918477 C 41.739618228073454 93.79542934833873 39.501041977227416 96.03400559918477 36.739618228073454 96.03400559918477 C 33.978194478919484 96.03400559918477 31.739618228073454 93.79542934833873 31.739618228073454 91.03400559918477 C 31.739618228073454 88.2725818500308 33.978194478919484 86.03400559918477 36.739618228073454 86.03400559918477 C 39.501041977227416 86.03400559918477 41.739618228073454 88.2725818500308 41.739618228073454 91.03400559918477 Z" fill-opacity="1"/><path fill="none" stroke="rgb(0,0,0)" paint-order="fill stroke markers" d=" M 41.739618228073454 91.03400559918477 C 41.739618228073454 93.79542934833873 39.501041977227416 96.03400559918477 36.739618228073454 96.03400559918477 C 33.978194478919484 96.03400559918477 31.739618228073454 93.79542934833873 31.739618228073454 91.03400559918477 C 31.739618228073454 88.2725818500308 33.978194478919484 86.03400559918477 36.739618228073454 86.03400559918477 C 39.501041977227416 86.03400559918477 41.739618228073454 88.2725818500308 41.739618228073454 91.03400559918477 Z" stroke-opacity="1" stroke-linecap="round" stroke-linejoin="round" stroke-miterlimit="10"/><text fill="rgb(110,109,115)" stroke="none" font-family="geogebra-sans-serif, sans-serif" font-size="16px" font-style="normal" font-weight="normal" text-decoration="normal" x="24" y="80" text-anchor="start" dominant-baseline="alphabetic" fill-opacity="1">B</text><path fill="rgb(21,101,192)" stroke="none" paint-order="stroke fill markers" d=" M 57.25341034758014 253.35616274622816 C 57.25341034758014 256.1175864953821 55.014834096734106 258.35616274622816 52.25341034758014 258.35616274622816 C 49.49198659842617 258.35616274622816 47.25341034758014 256.1175864953821 47.25341034758014 253.35616274622816 C 47.25341034758014 250.5947389970742 49.49198659842617 248.35616274622816 52.25341034758014 248.35616274622816 C 55.014834096734106 248.35616274622816 57.25341034758014 250.5947389970742 57.25341034758014 253.35616274622816 Z" fill-opacity="1"/><path fill="none" stroke="rgb(0,0,0)" paint-order="fill stroke markers" d=" M 57.25341034758014 253.35616274622816 C 57.25341034758014 256.1175864953821 55.014834096734106 258.35616274622816 52.25341034758014 258.35616274622816 C 49.49198659842617 258.35616274622816 47.25341034758014 256.1175864953821 47.25341034758014 253.35616274622816 C 47.25341034758014 250.5947389970742 49.49198659842617 248.35616274622816 52.25341034758014 248.35616274622816 C 55.014834096734106 248.35616274622816 57.25341034758014 250.5947389970742 57.25341034758014 253.35616274622816 Z" stroke-opacity="1" stroke-linecap="round" stroke-linejoin="round" stroke-miterlimit="10"/><text fill="rgb(21,101,192)" stroke="none" font-family="geogebra-sans-serif, sans-serif" font-size="16px" font-style="normal" font-weight="normal" text-decoration="normal" x="26" y="266" text-anchor="start" dominant-baseline="alphabetic" fill-opacity="1">A'</text><path fill="rgb(110,109,115)" stroke="none" paint-order="stroke fill markers" d=" M 353.09449840671215 275.1865956664128 C 353.09449840671215 277.94801941556676 350.8559221558661 280.1865956664128 348.09449840671215 280.1865956664128 C 345.3330746575582 280.1865956664128 343.09449840671215 277.94801941556676 343.09449840671215 275.1865956664128 C 343.09449840671215 272.42517191725887 345.3330746575582 270.1865956664128 348.09449840671215 270.1865956664128 C 350.8559221558661 270.1865956664128 353.09449840671215 272.42517191725887 353.09449840671215 275.1865956664128 Z" fill-opacity="1"/><path fill="none" stroke="rgb(0,0,0)" paint-order="fill stroke markers" d=" M 353.09449840671215 275.1865956664128 C 353.09449840671215 277.94801941556676 350.8559221558661 280.1865956664128 348.09449840671215 280.1865956664128 C 345.3330746575582 280.1865956664128 343.09449840671215 277.94801941556676 343.09449840671215 275.1865956664128 C 343.09449840671215 272.42517191725887 345.3330746575582 270.1865956664128 348.09449840671215 270.1865956664128 C 350.8559221558661 270.1865956664128 353.09449840671215 272.42517191725887 353.09449840671215 275.1865956664128 Z" stroke-opacity="1" stroke-linecap="round" stroke-linejoin="round" stroke-miterlimit="10"/><text fill="rgb(110,109,115)" stroke="none" font-family="geogebra-sans-serif, sans-serif" font-size="16px" font-style="normal" font-weight="normal" text-decoration="normal" x="370" y="298" text-anchor="start" dominant-baseline="alphabetic" fill-opacity="1">B'</text><path fill="rgb(110,109,115)" stroke="none" paint-order="stroke fill markers" d=" M 172.68008948866492 30.076911074776405 C 172.68008948866492 32.83833482393037 170.4415132378189 35.076911074776405 167.68008948866492 35.076911074776405 C 164.91866573951094 35.076911074776405 162.68008948866492 32.83833482393037 162.68008948866492 30.076911074776405 C 162.68008948866492 27.31548732562244 164.91866573951094 25.076911074776405 167.68008948866492 25.076911074776405 C 170.4415132378189 25.076911074776405 172.68008948866492 27.31548732562244 172.68008948866492 30.076911074776405 Z" fill-opacity="1"/><path fill="none" stroke="rgb(0,0,0)" paint-order="fill stroke markers" d=" M 172.68008948866492 30.076911074776405 C 172.68008948866492 32.83833482393037 170.4415132378189 35.076911074776405 167.68008948866492 35.076911074776405 C 164.91866573951094 35.076911074776405 162.68008948866492 32.83833482393037 162.68008948866492 30.076911074776405 C 162.68008948866492 27.31548732562244 164.91866573951094 25.076911074776405 167.68008948866492 25.076911074776405 C 170.4415132378189 25.076911074776405 172.68008948866492 27.31548732562244 172.68008948866492 30.076911074776405 Z" stroke-opacity="1" stroke-linecap="round" stroke-linejoin="round" stroke-miterlimit="10"/><text fill="rgb(110,109,115)" stroke="none" font-family="geogebra-sans-serif, sans-serif" font-size="16px" font-style="normal" font-weight="normal" text-decoration="normal" x="149" y="24" text-anchor="start" dominant-baseline="alphabetic" fill-opacity="1">C'</text><path fill="rgb(110,109,115)" stroke="none" paint-order="stroke fill markers" d=" M 84.07261001541951 201.47759466455315 C 84.07261001541951 204.23901841370713 81.83403376457348 206.47759466455315 79.07261001541951 206.47759466455315 C 76.31118626626555 206.47759466455315 74.07261001541951 204.23901841370713 74.07261001541951 201.47759466455315 C 74.07261001541951 198.71617091539918 76.31118626626555 196.47759466455315 79.07261001541951 196.47759466455315 C 81.83403376457348 196.47759466455315 84.07261001541951 198.71617091539918 84.07261001541951 201.47759466455315 Z" fill-opacity="1"/><path fill="none" stroke="rgb(0,0,0)" paint-order="fill stroke markers" d=" M 84.07261001541951 201.47759466455315 C 84.07261001541951 204.23901841370713 81.83403376457348 206.47759466455315 79.07261001541951 206.47759466455315 C 76.31118626626555 206.47759466455315 74.07261001541951 204.23901841370713 74.07261001541951 201.47759466455315 C 74.07261001541951 198.71617091539918 76.31118626626555 196.47759466455315 79.07261001541951 196.47759466455315 C 81.83403376457348 196.47759466455315 84.07261001541951 198.71617091539918 84.07261001541951 201.47759466455315 Z" stroke-opacity="1" stroke-linecap="round" stroke-linejoin="round" stroke-miterlimit="10"/><text fill="rgb(110,109,115)" stroke="none" font-family="geogebra-sans-serif, sans-serif" font-size="16px" font-style="normal" font-weight="normal" text-decoration="normal" x="46" y="203" text-anchor="start" dominant-baseline="alphabetic" fill-opacity="1">N</text><path fill="rgb(110,109,115)" stroke="none" paint-order="stroke fill markers" d=" M 315.2939933390998 223.83110842960488 C 315.2939933390998 226.59253217875886 313.05541708825376 228.83110842960488 310.2939933390998 228.83110842960488 C 307.53256958994587 228.83110842960488 305.2939933390998 226.59253217875886 305.2939933390998 223.83110842960488 C 305.2939933390998 221.0696846804509 307.53256958994587 218.83110842960488 310.2939933390998 218.83110842960488 C 313.05541708825376 218.83110842960488 315.2939933390998 221.0696846804509 315.2939933390998 223.83110842960488 Z" fill-opacity="1"/><path fill="none" stroke="rgb(0,0,0)" paint-order="fill stroke markers" d=" M 315.2939933390998 223.83110842960488 C 315.2939933390998 226.59253217875886 313.05541708825376 228.83110842960488 310.2939933390998 228.83110842960488 C 307.53256958994587 228.83110842960488 305.2939933390998 226.59253217875886 305.2939933390998 223.83110842960488 C 305.2939933390998 221.0696846804509 307.53256958994587 218.83110842960488 310.2939933390998 218.83110842960488 C 313.05541708825376 218.83110842960488 315.2939933390998 221.0696846804509 315.2939933390998 223.83110842960488 Z" stroke-opacity="1" stroke-linecap="round" stroke-linejoin="round" stroke-miterlimit="10"/><text fill="rgb(110,109,115)" stroke="none" font-family="geogebra-sans-serif, sans-serif" font-size="16px" font-style="normal" font-weight="normal" text-decoration="normal" x="330" y="236" text-anchor="start" dominant-baseline="alphabetic" fill-opacity="1">M</text><path fill="rgb(110,109,115)" stroke="none" paint-order="stroke fill markers" d=" M 256.6857671718321 218.1651108841213 C 256.6857671718321 220.92653463327528 254.44719092098606 223.1651108841213 251.68576717183208 223.1651108841213 C 248.9243434226781 223.1651108841213 246.68576717183208 220.92653463327528 246.68576717183208 218.1651108841213 C 246.68576717183208 215.40368713496733 248.9243434226781 213.1651108841213 251.68576717183208 213.1651108841213 C 254.44719092098606 213.1651108841213 256.6857671718321 215.40368713496733 256.6857671718321 218.1651108841213 Z" fill-opacity="1"/><path fill="none" stroke="rgb(0,0,0)" paint-order="fill stroke markers" d=" M 256.6857671718321 218.1651108841213 C 256.6857671718321 220.92653463327528 254.44719092098606 223.1651108841213 251.68576717183208 223.1651108841213 C 248.9243434226781 223.1651108841213 246.68576717183208 220.92653463327528 246.68576717183208 218.1651108841213 C 246.68576717183208 215.40368713496733 248.9243434226781 213.1651108841213 251.68576717183208 213.1651108841213 C 254.44719092098606 213.1651108841213 256.6857671718321 215.40368713496733 256.6857671718321 218.1651108841213 Z" stroke-opacity="1" stroke-linecap="round" stroke-linejoin="round" stroke-miterlimit="10"/><text fill="rgb(110,109,115)" stroke="none" font-family="geogebra-sans-serif, sans-serif" font-size="16px" font-style="normal" font-weight="normal" text-decoration="normal" x="256" y="208" text-anchor="start" dominant-baseline="alphabetic" fill-opacity="1">L</text></g></g></svg>