<svg version="1.1" xmlns="http://www.w3.org/2000/svg" viewBox="0 0 439.16131114445466 436.34312736219965" width="439.16131114445466" height="436.34312736219965">
  <!-- svg-source:excalidraw -->
  
  <defs>
    <style class="style-fonts">
      @font-face {
        font-family: "Virgil";
        src: url("https://excalidraw.com/Virgil.woff2");
      }
      @font-face {
        font-family: "Cascadia";
        src: url("https://excalidraw.com/Cascadia.woff2");
      }
      @font-face {
        font-family: "Assistant";
        src: url("https://excalidraw.com/Assistant-Regular.woff2");
      }
    </style>
    
  </defs>
  <rect x="0" y="0" width="439.16131114445466" height="436.34312736219965" fill="#ffffff"></rect><g stroke-linecap="round"><g transform="translate(244.92186805033316 43.87009818218834) rotate(354.92314440148965 -111.60000610351562 144.00000762939453)"><path d="M0 0 C-17.73 11.73, -75.07 41.33, -106.4 70.4 C-137.73 99.47, -168.53 138.13, -188 174.4 C-207.47 210.67, -217.33 269.07, -223.2 288 M0 0 C-17.73 11.73, -75.07 41.33, -106.4 70.4 C-137.73 99.47, -168.53 138.13, -188 174.4 C-207.47 210.67, -217.33 269.07, -223.2 288" stroke="#1e1e1e" stroke-width="2" fill="none"></path></g></g><mask></mask><g stroke-linecap="round"><g transform="translate(429.81386460951126 53.01161893688507) rotate(114.30519681556862 -111.60000610351562 144.00000762939456)"><path d="M0 0 C-17.73 11.73, -75.07 41.33, -106.4 70.4 C-137.73 99.47, -168.53 138.13, -188 174.4 C-207.47 210.67, -217.33 269.07, -223.2 288 M0 0 C-17.73 11.73, -75.07 41.33, -106.4 70.4 C-137.73 99.47, -168.53 138.13, -188 174.4 C-207.47 210.67, -217.33 269.07, -223.2 288" stroke="#1e1e1e" stroke-width="2" fill="none"></path></g></g><mask></mask><g stroke-linecap="round"><g transform="translate(329.9537956777931 206.4907236299682) rotate(234.65337202093608 -111.60000610351562 144.00000762939453)"><path d="M0 0 C-17.73 11.73, -75.07 41.33, -106.4 70.4 C-137.73 99.47, -168.53 138.13, -188 174.4 C-207.47 210.67, -217.33 269.07, -223.2 288 M0 0 C-17.73 11.73, -75.07 41.33, -106.4 70.4 C-137.73 99.47, -168.53 138.13, -188 174.4 C-207.47 210.67, -217.33 269.07, -223.2 288" stroke="#1e1e1e" stroke-width="2" fill="none"></path></g></g><mask></mask><g stroke-linecap="round"><g transform="translate(240.77816137801483 101.14326677840174) rotate(354.92314440148965 -78.53156196745118 101.33104752675274)"><path d="M0 0 C-12.48 8.26, -52.82 29.09, -74.87 49.54 C-96.92 69.99, -118.59 97.2, -132.29 122.72 C-145.99 148.24, -152.93 189.34, -157.06 202.66 M0 0 C-12.48 8.26, -52.82 29.09, -74.87 49.54 C-96.92 69.99, -118.59 97.2, -132.29 122.72 C-145.99 148.24, -152.93 189.34, -157.06 202.66" stroke="#1e1e1e" stroke-width="2" fill="none"></path></g></g><mask></mask><g stroke-linecap="round"><g transform="translate(370.8844023365041 107.5760433407822) rotate(114.30519681556862 -78.53156196745118 101.33104752675274)"><path d="M0 0 C-12.48 8.26, -52.82 29.09, -74.87 49.54 C-96.92 69.99, -118.59 97.2, -132.29 122.72 C-145.99 148.24, -152.93 189.34, -157.06 202.66 M0 0 C-12.48 8.26, -52.82 29.09, -74.87 49.54 C-96.92 69.99, -118.59 97.2, -132.29 122.72 C-145.99 148.24, -152.93 189.34, -157.06 202.66" stroke="#1e1e1e" stroke-width="2" fill="none"></path></g></g><mask></mask><g stroke-linecap="round"><g transform="translate(300.61409084466504 215.57741575767923) rotate(234.65337202093608 -78.53156196745118 101.33104752675277)"><path d="M0 0 C-12.48 8.26, -52.82 29.09, -74.87 49.54 C-96.92 69.99, -118.59 97.2, -132.29 122.72 C-145.99 148.24, -152.93 189.34, -157.06 202.66 M0 0 C-12.48 8.26, -52.82 29.09, -74.87 49.54 C-96.92 69.99, -118.59 97.2, -132.29 122.72 C-145.99 148.24, -152.93 189.34, -157.06 202.66" stroke="#1e1e1e" stroke-width="2" fill="none"></path></g></g><mask></mask><g stroke-linecap="round"><g transform="translate(92.75194735637047 310.5217566604547) rotate(0 -3.791911660557787 26.873171589002197)"><path d="M0 0 C-0.82 5.88, -3.68 26.32, -4.95 35.28 C-6.21 44.24, -7.14 50.67, -7.58 53.75" stroke="#1e1e1e" stroke-width="2.5" fill="none" stroke-dasharray="8 10"></path></g></g><mask></mask><g stroke-linecap="round"><g transform="translate(352.2511039305757 323.0515867131684) rotate(0 1.4838095664483717 27.038035125847045)"><path d="M0 0 C0.44 5.22, 2.14 22.31, 2.64 31.32 C3.13 40.34, 2.91 50.28, 2.97 54.08" stroke="#1e1e1e" stroke-width="2.5" fill="none" stroke-dasharray="8 10"></path></g></g><mask></mask><g transform="translate(217.57219486818326 10) rotate(0 8.5791015625 11.5)"><text x="0" y="18.400390625" font-family="Helvetica, Segoe UI Emoji" font-size="20px" fill="#1e1e1e" text-anchor="start" style="white-space: pre;" direction="ltr" dominant-baseline="alphabetic">A'</text></g><g transform="translate(10 345.8240299041795) rotate(0 8.5791015625 11.5)"><text x="0" y="18.400390625" font-family="Helvetica, Segoe UI Emoji" font-size="20px" fill="#1e1e1e" text-anchor="start" style="white-space: pre;" direction="ltr" dominant-baseline="alphabetic">B'</text></g><g transform="translate(410.89959239445466 361.10752624312727) rotate(0 9.130859375 11.5)"><text x="0" y="18.400390625" font-family="Helvetica, Segoe UI Emoji" font-size="20px" fill="#1e1e1e" text-anchor="start" style="white-space: pre;" direction="ltr" dominant-baseline="alphabetic">C'</text></g><g transform="translate(224.96017917299991 68.03411784174696) rotate(0 6.669921875 11.5)"><text x="0" y="18.400390625" font-family="Helvetica, Segoe UI Emoji" font-size="20px" fill="#1e1e1e" text-anchor="start" style="white-space: pre;" direction="ltr" dominant-baseline="alphabetic">A</text></g><g transform="translate(74.92443468779334 297.7542424541232) rotate(0 6.669921875 11.5)"><text x="0" y="18.400390625" font-family="Helvetica, Segoe UI Emoji" font-size="20px" fill="#1e1e1e" text-anchor="start" style="white-space: pre;" direction="ltr" dominant-baseline="alphabetic">B</text></g><g transform="translate(363.36229614268586 313.2062686411781) rotate(0 7.2216796875 11.499999999999972)"><text x="0" y="18.400390625" font-family="Helvetica, Segoe UI Emoji" font-size="20px" fill="#1e1e1e" text-anchor="start" style="white-space: pre;" direction="ltr" dominant-baseline="alphabetic">C</text></g><g transform="translate(73.8943546238047 374.4993137091361) rotate(0 7.2216796875 11.5)"><text x="0" y="18.400390625" font-family="Helvetica, Segoe UI Emoji" font-size="20px" fill="#1e1e1e" text-anchor="start" style="white-space: pre;" direction="ltr" dominant-baseline="alphabetic">D</text></g><g transform="translate(355.12122336889684 383.25544616318666) rotate(0 6.669921875 11.5)"><text x="0" y="18.400390625" font-family="Helvetica, Segoe UI Emoji" font-size="20px" fill="#1e1e1e" text-anchor="start" style="white-space: pre;" direction="ltr" dominant-baseline="alphabetic">E</text></g><g transform="translate(63.07786555910411 149.92987431657858) rotate(0 6.9091796875 11.5)"><text x="0" y="18.400390625" font-family="Helvetica, Segoe UI Emoji" font-size="20px" fill="#1e1e1e" text-anchor="start" style="white-space: pre;" direction="ltr" dominant-baseline="alphabetic">c'</text></g><g transform="translate(363.6380980104475 143.7490599121032) rotate(0 7.470703125 11.5)"><text x="0" y="18.400390625" font-family="Helvetica, Segoe UI Emoji" font-size="20px" fill="#1e1e1e" text-anchor="start" style="white-space: pre;" direction="ltr" dominant-baseline="alphabetic">b'</text></g><g transform="translate(216.32875025662975 403.34312736219965) rotate(0 7.470703125 11.5)"><text x="0" y="18.400390625" font-family="Helvetica, Segoe UI Emoji" font-size="20px" fill="#1e1e1e" text-anchor="start" style="white-space: pre;" direction="ltr" dominant-baseline="alphabetic">a'</text></g><g transform="translate(116.92077799436561 171.56269525984155) rotate(0 5 11.5)"><text x="0" y="18.400390625" font-family="Helvetica, Segoe UI Emoji" font-size="20px" fill="#1e1e1e" text-anchor="start" style="white-space: pre;" direction="ltr" dominant-baseline="alphabetic">c</text></g><g transform="translate(328.61352889771047 183.92430442052492) rotate(0 5.5615234375 11.5)"><text x="0" y="18.400390625" font-family="Helvetica, Segoe UI Emoji" font-size="20px" fill="#1e1e1e" text-anchor="start" style="white-space: pre;" direction="ltr" dominant-baseline="alphabetic">b</text></g><g transform="translate(223.02464398963411 350.29115506803066) rotate(0 5.5615234375 11.5)"><text x="0" y="18.400390625" font-family="Helvetica, Segoe UI Emoji" font-size="20px" fill="#1e1e1e" text-anchor="start" style="white-space: pre;" direction="ltr" dominant-baseline="alphabetic">a</text></g></svg>