<svg version="1.1" xmlns="http://www.w3.org/2000/svg" viewBox="0 0 424.2761141417957 275.6419823182396" width="424.2761141417957" height="275.6419823182396">
  <!-- svg-source:excalidraw -->
  
  <defs>
    <style class="style-fonts">
      @font-face {
        font-family: "Virgil";
        src: url("https://excalidraw.com/Virgil.woff2");
      }
      @font-face {
        font-family: "Cascadia";
        src: url("https://excalidraw.com/Cascadia.woff2");
      }
      @font-face {
        font-family: "Assistant";
        src: url("https://excalidraw.com/Assistant-Regular.woff2");
      }
    </style>
    
  </defs>
  <rect x="0" y="0" width="424.2761141417957" height="275.6419823182396" fill="#ffffff"></rect><g stroke-linecap="round"><g transform="translate(347.4692008153579 239.72011478824248) rotate(0 -158.94293331744828 -41.9230706897327)"><path d="M0 0 C-52.98 -13.97, -264.9 -69.87, -317.89 -83.85 M0 0 C-52.98 -13.97, -264.9 -69.87, -317.89 -83.85" stroke="#1e1e1e" stroke-width="2" fill="none"></path></g></g><mask></mask><g stroke-linecap="round"><g transform="translate(270.80994513911355 34.723265542701824) rotate(0 -120.61332814546509 60.57535393303763)"><path d="M0 0 C-40.2 20.19, -201.02 100.96, -241.23 121.15 M0 0 C-40.2 20.19, -201.02 100.96, -241.23 121.15" stroke="#1e1e1e" stroke-width="2" fill="none"></path></g></g><mask></mask><g stroke-linecap="round"><g transform="translate(270.8891402535471 34.31632902016861) rotate(0 37.69583744888365 102.3404926881521)"><path d="M0 0 C8.28 16.81, 37.14 66.73, 49.71 100.85 C62.27 134.96, 71.11 187.38, 75.39 204.68 M0 0 C8.28 16.81, 37.14 66.73, 49.71 100.85 C62.27 134.96, 71.11 187.38, 75.39 204.68" stroke="#1e1e1e" stroke-width="2" fill="none"></path></g></g><mask></mask><g stroke-linecap="round"><g transform="translate(33.14837784189706 155.15122816314232) rotate(0 180.03630286530273 -3.252684482166444)"><path d="M0 0 C60.01 -1.08, 300.06 -5.42, 360.07 -6.51 M0 0 C60.01 -1.08, 300.06 -5.42, 360.07 -6.51" stroke="#1e1e1e" stroke-width="2" fill="none"></path></g></g><mask></mask><g stroke-linecap="round"><g transform="translate(392.6268134066197 148.64585919880943) rotate(0 -22.87589137857225 45.175727598831685)"><path d="M0 0 C-2.73 8.31, -8.78 34.81, -16.4 49.87 C-24.03 64.93, -40.86 83.6, -45.75 90.35 M0 0 C-2.73 8.31, -8.78 34.81, -16.4 49.87 C-24.03 64.93, -40.86 83.6, -45.75 90.35" stroke="#1e1e1e" stroke-width="2" fill="none"></path></g></g><mask></mask><g stroke-linecap="round"><g transform="translate(272.8702684889722 35.75337697842485) rotate(0 59.58118737588228 56.084840914307335)"><path d="M0 0 C11.13 8.24, 46.92 30.75, 66.78 49.45 C86.64 68.14, 110.43 101.72, 119.16 112.17 M0 0 C11.13 8.24, 46.92 30.75, 66.78 49.45 C86.64 68.14, 110.43 101.72, 119.16 112.17" stroke="#1e1e1e" stroke-width="2" fill="none"></path></g></g><mask></mask><g stroke-linecap="round"><g transform="translate(271.66505209364414 34.72323796963434) rotate(0 1.2876688489212142 75.19986274182725)"><path d="M0 0 C0.43 25.07, 2.15 125.33, 2.58 150.4 M0 0 C0.43 25.07, 2.15 125.33, 2.58 150.4" stroke="#1e1e1e" stroke-width="2" fill="none"></path></g></g><mask></mask><g stroke-linecap="round"><g transform="translate(274.24038979148656 187.18324147086975) rotate(0 -17.254774364505067 12.104079320552728)"><path d="M0 0 C-5.75 4.03, -28.76 20.17, -34.51 24.21 M0 0 C-5.75 4.03, -28.76 20.17, -34.51 24.21" stroke="#1e1e1e" stroke-width="2" fill="none"></path></g></g><mask></mask><g stroke-linecap="round"><g transform="translate(286.08691962364105 150.09841398881923) rotate(0 -5.408205235815672 17.769804572365558)"><path d="M0 0 C-1.8 5.92, -9.01 29.62, -10.82 35.54 M0 0 C-1.8 5.92, -9.01 29.62, -10.82 35.54" stroke="#1e1e1e" stroke-width="2" fill="none"></path></g></g><mask></mask><g stroke-linecap="round"><g transform="translate(270.1198337563246 34.72323796963434) rotate(0 -14.936946858525971 88.07655123103962)"><path d="M0 0 C-4.98 29.36, -24.89 146.79, -29.87 176.15 M0 0 C-4.98 29.36, -24.89 146.79, -29.87 176.15" stroke="#1e1e1e" stroke-width="2" fill="none"></path></g></g><mask></mask><g stroke-linecap="round"><g transform="translate(271.1499924133825 35.23831729816328) rotate(0 7.468463605129273 57.17249885692985)"><path d="M0 0 C2.49 19.06, 12.45 95.29, 14.94 114.34 M0 0 C2.49 19.06, 12.45 95.29, 14.94 114.34" stroke="#1e1e1e" stroke-width="2" fill="none"></path></g></g><mask></mask><g transform="translate(271.66505209364414 10) rotate(0 7.2216796875 11.5)"><text x="0" y="18.400390625" font-family="Helvetica, Segoe UI Emoji" font-size="20px" fill="#1e1e1e" text-anchor="start" style="white-space: pre;" direction="ltr" dominant-baseline="alphabetic">C</text></g><g transform="translate(10 147.3545660911371) rotate(0 7.7783203125 11.5)"><text x="0" y="18.400390625" font-family="Helvetica, Segoe UI Emoji" font-size="20px" fill="#1e1e1e" text-anchor="start" style="white-space: pre;" direction="ltr" dominant-baseline="alphabetic">O</text></g><g transform="translate(220.66263154282183 212.76810824945505) rotate(0 6.669921875 11.5)"><text x="0" y="18.400390625" font-family="Helvetica, Segoe UI Emoji" font-size="20px" fill="#1e1e1e" text-anchor="start" style="white-space: pre;" direction="ltr" dominant-baseline="alphabetic">E</text></g><g transform="translate(339.12816564357604 242.64198231823957) rotate(0 6.669921875 11.500000000000028)"><text x="0" y="18.400390625" font-family="Helvetica, Segoe UI Emoji" font-size="20px" fill="#1e1e1e" text-anchor="start" style="white-space: pre;" direction="ltr" dominant-baseline="alphabetic">A</text></g><g transform="translate(400.9362703917957 137.5682553317614) rotate(0 6.669921875 11.5)"><text x="0" y="18.400390625" font-family="Helvetica, Segoe UI Emoji" font-size="20px" fill="#1e1e1e" text-anchor="start" style="white-space: pre;" direction="ltr" dominant-baseline="alphabetic">B</text></g><g transform="translate(275.2597828777755 183.92435354119357) rotate(0 7.2216796875 11.5)"><text x="0" y="18.400390625" font-family="Helvetica, Segoe UI Emoji" font-size="20px" fill="#1e1e1e" text-anchor="start" style="white-space: pre;" direction="ltr" dominant-baseline="alphabetic">D</text></g><g transform="translate(290.1967493845689 154.05038123107215) rotate(0 6.1083984375 11.5)"><text x="0" y="18.400390625" font-family="Helvetica, Segoe UI Emoji" font-size="20px" fill="#1e1e1e" text-anchor="start" style="white-space: pre;" direction="ltr" dominant-baseline="alphabetic">F</text></g><g transform="translate(303.58849755404276 121.60116946444487) rotate(0 5.5615234375 11.5)"><text x="0" y="18.400390625" font-family="Helvetica, Segoe UI Emoji" font-size="20px" fill="#1e1e1e" text-anchor="start" style="white-space: pre;" direction="ltr" dominant-baseline="alphabetic">b</text></g><g transform="translate(340.1583243006338 65.97385947243345) rotate(0 5.5615234375 11.5)"><text x="0" y="18.400390625" font-family="Helvetica, Segoe UI Emoji" font-size="20px" fill="#1e1e1e" text-anchor="start" style="white-space: pre;" direction="ltr" dominant-baseline="alphabetic">a</text></g><g transform="translate(378.7883504717363 191.6503076899188) rotate(0 5 11.5)"><text x="0" y="18.400390625" font-family="Helvetica, Segoe UI Emoji" font-size="20px" fill="#1e1e1e" text-anchor="start" style="white-space: pre;" direction="ltr" dominant-baseline="alphabetic">c</text></g><g stroke-opacity="0.4" fill-opacity="0.4" transform="translate(278.8760055069099 42.44925106316185) rotate(0 52.27934347724204 93.22722662672459)" stroke="none"><path fill="#aaa" d="M 4.26,-2.66 Q 4.26,-2.66 5.08,-1.53 5.90,-0.39 7.21,1.37 8.51,3.14 9.67,5.45 10.83,7.75 12.95,9.18 15.07,10.60 16.99,12.36 18.92,14.11 20.67,15.66 22.42,17.21 24.02,19.55 25.63,21.90 27.05,24.54 28.47,27.19 29.40,29.69 30.32,32.18 31.55,34.76 32.77,37.34 33.95,40.02 35.13,42.71 36.14,44.89 37.15,47.07 38.13,49.05 39.10,51.03 40.28,53.04 41.47,55.05 42.64,56.93 43.81,58.80 45.33,61.72 46.84,64.65 47.56,66.70 48.27,68.75 49.27,71.68 50.28,74.60 51.37,77.02 52.46,79.45 53.46,82.00 54.47,84.56 55.01,86.76 55.55,88.97 56.34,91.28 57.13,93.59 57.79,95.66 58.46,97.73 59.47,100.47 60.48,103.20 60.91,105.33 61.34,107.46 62.49,110.33 63.65,113.19 64.29,115.38 64.93,117.57 65.67,120.18 66.40,122.79 66.92,125.07 67.43,127.35 68.20,129.94 68.98,132.52 69.51,134.71 70.04,136.91 70.93,139.61 71.82,142.31 72.25,144.69 72.68,147.06 73.11,149.35 73.55,151.65 74.02,153.81 74.50,155.97 74.88,158.22 75.26,160.47 75.77,163.36 76.27,166.26 76.44,168.42 76.61,170.58 76.95,172.78 77.29,174.98 77.58,177.10 77.88,179.22 78.36,181.72 78.85,184.22 78.88,184.97 78.92,185.72 78.84,186.66 78.77,187.61 78.48,188.51 78.18,189.41 77.68,190.21 77.18,191.01 76.49,191.67 75.81,192.33 75.00,192.81 74.18,193.28 73.27,193.55 72.36,193.82 71.42,193.86 70.47,193.90 69.54,193.72 68.61,193.53 67.75,193.13 66.90,192.73 66.16,192.13 65.42,191.54 64.85,190.78 64.28,190.03 63.90,189.16 63.53,188.29 63.37,187.35 63.22,186.42 63.86,183.79 64.50,181.16 65.30,178.97 66.11,176.77 67.52,174.71 68.94,172.64 67.64,174.58 66.34,176.52 67.20,174.18 68.05,171.83 68.94,169.82 69.83,167.81 71.35,165.29 72.86,162.76 75.03,160.41 77.21,158.05 78.91,155.68 80.60,153.31 82.40,151.18 84.20,149.04 84.88,146.55 85.55,144.06 86.45,142.03 87.35,140.01 88.85,137.28 90.34,134.56 89.15,136.41 87.95,138.27 88.89,135.60 89.82,132.94 91.19,130.58 92.56,128.22 93.32,125.82 94.09,123.43 94.62,119.81 95.14,116.20 96.09,112.97 97.03,109.73 95.29,107.46 93.54,105.18 91.78,102.46 90.02,99.73 88.35,97.45 86.68,95.16 84.84,92.76 83.00,90.37 84.51,92.07 86.03,93.77 83.43,91.41 80.84,89.05 78.87,86.72 76.89,84.38 74.72,81.52 72.54,78.67 70.69,76.52 68.83,74.38 67.66,72.56 66.50,70.73 65.00,68.57 63.51,66.41 64.70,68.17 65.89,69.94 64.32,68.38 62.75,66.83 60.77,64.16 58.78,61.50 57.09,59.86 55.40,58.22 53.24,55.98 51.09,53.73 49.49,52.24 47.89,50.75 45.96,48.75 44.04,46.74 42.25,45.27 40.47,43.80 38.68,42.24 36.90,40.69 34.80,38.78 32.69,36.88 30.75,35.74 28.81,34.61 26.42,32.62 24.03,30.63 21.32,29.07 18.60,27.51 16.53,26.38 14.46,25.25 11.87,23.67 9.28,22.10 11.10,23.40 12.91,24.70 10.98,23.77 9.05,22.84 6.54,19.93 4.02,17.03 4.74,18.27 5.45,19.50 4.76,18.85 4.07,18.20 3.56,17.40 3.05,16.61 2.74,15.71 2.43,14.82 2.35,13.87 2.27,12.93 2.41,11.99 2.55,11.05 2.92,10.18 3.28,9.31 3.85,8.54 4.41,7.78 5.14,7.18 5.87,6.57 6.72,6.16 7.57,5.74 8.50,5.55 9.43,5.35 10.37,5.38 11.32,5.41 12.23,5.67 13.15,5.92 13.97,6.39 14.79,6.86 15.95,10.98 17.11,15.10 19.17,16.18 21.22,17.25 22.30,19.45 23.37,21.65 25.06,23.95 26.74,26.26 28.40,28.44 30.06,30.62 31.99,32.10 33.92,33.58 35.63,34.98 37.35,36.37 39.72,38.20 42.08,40.03 43.86,41.50 45.64,42.97 47.51,44.69 49.37,46.41 51.46,48.92 53.54,51.43 55.09,53.54 56.63,55.66 57.90,58.18 59.16,60.70 60.67,63.27 62.19,65.84 63.48,68.63 64.77,71.43 65.95,74.29 67.13,77.16 68.29,80.00 69.44,82.85 70.30,85.11 71.17,87.37 71.97,89.47 72.77,91.58 73.39,93.67 74.02,95.76 74.81,98.33 75.59,100.89 76.56,104.10 77.52,107.32 78.25,110.36 78.99,113.40 79.53,115.58 80.07,117.77 80.79,120.43 81.51,123.09 82.00,125.80 82.49,128.50 83.15,131.87 83.81,135.24 84.53,138.91 85.24,142.58 85.32,144.74 85.39,146.90 85.44,149.29 85.50,151.69 84.06,155.54 82.62,159.40 77.29,160.50 71.96,161.60 70.29,159.47 68.62,157.34 67.35,153.43 66.07,149.52 65.65,147.40 65.24,145.27 64.41,141.38 63.59,137.49 62.44,132.61 61.28,127.73 60.55,125.48 59.82,123.24 58.19,120.16 56.56,117.08 55.42,115.09 54.27,113.10 52.82,110.26 51.36,107.42 50.09,104.34 48.83,101.27 47.72,98.66 46.62,96.04 45.51,92.74 44.40,89.43 43.89,87.01 43.38,84.58 42.76,81.68 42.15,78.77 41.94,76.39 41.73,74.01 42.20,71.67 42.67,69.32 43.88,67.46 45.10,65.60 48.14,64.90 51.18,64.21 54.03,64.65 56.88,65.10 60.23,67.11 63.58,69.12 65.46,70.92 67.34,72.72 69.05,75.07 70.76,77.43 71.77,79.35 72.78,81.27 74.34,84.25 75.90,87.24 77.58,91.16 79.25,95.08 80.27,97.56 81.29,100.04 82.34,102.98 83.40,105.92 84.37,108.61 85.34,111.30 86.61,115.19 87.88,119.08 88.51,122.05 89.14,125.02 89.32,127.18 89.50,129.34 89.64,131.46 89.79,133.59 89.98,134.62 90.17,135.64 90.30,136.43 90.43,137.21 90.37,138.00 90.31,138.79 90.06,139.54 89.81,140.30 89.39,140.97 88.97,141.64 88.40,142.19 87.83,142.74 87.14,143.14 86.46,143.54 85.69,143.76 84.93,143.99 84.14,144.02 83.35,144.05 82.57,143.90 81.79,143.74 81.07,143.40 80.36,143.07 79.74,142.57 79.13,142.07 78.65,141.43 78.17,140.80 77.86,140.07 77.54,139.34 78.55,136.16 79.55,132.97 79.83,128.81 80.10,124.64 80.65,122.48 81.20,120.33 81.60,117.58 82.00,114.83 81.91,112.20 81.82,109.57 81.10,107.56 80.38,105.55 79.06,103.82 77.75,102.08 76.09,100.69 74.43,99.29 72.17,96.99 69.91,94.69 68.38,92.95 66.85,91.21 65.23,88.40 63.61,85.58 62.68,83.41 61.75,81.25 64.79,76.65 67.84,72.06 71.08,72.71 74.32,73.36 76.02,74.71 77.73,76.07 79.71,78.18 81.68,80.28 83.20,83.52 84.71,86.76 85.78,90.06 86.85,93.36 87.86,95.85 88.87,98.34 89.97,101.36 91.07,104.38 92.25,107.24 93.43,110.10 95.65,112.65 97.87,115.20 98.75,117.59 99.63,119.98 99.66,120.32 99.70,120.65 99.71,121.50 99.72,122.36 99.52,123.19 99.32,124.02 98.93,124.78 98.55,125.54 97.99,126.18 97.43,126.83 96.73,127.32 96.03,127.82 95.23,128.13 94.44,128.44 93.59,128.55 92.74,128.66 91.89,128.57 91.05,128.47 90.24,128.18 89.44,127.88 88.73,127.41 88.03,126.93 87.45,126.29 86.88,125.66 86.47,124.91 86.07,124.16 85.86,123.33 85.64,122.50 85.37,119.32 85.10,116.15 85.06,113.90 85.01,111.65 84.30,109.61 83.58,107.57 82.86,105.41 82.14,103.24 81.10,100.48 80.06,97.71 78.98,95.61 77.90,93.51 76.79,91.48 75.68,89.45 74.51,87.57 73.33,85.69 70.73,84.12 68.13,82.56 64.71,80.21 61.29,77.86 60.80,77.33 60.32,76.80 59.32,76.14 58.32,75.48 57.58,74.53 56.85,73.59 56.45,72.45 56.06,71.32 56.05,70.13 56.03,68.93 56.40,67.79 56.77,66.65 57.48,65.69 58.20,64.73 59.18,64.05 60.16,63.36 61.31,63.03 62.46,62.70 63.66,62.75 64.86,62.80 65.97,63.23 67.09,63.66 68.01,64.42 68.93,65.19 69.56,66.21 70.19,67.23 70.46,68.39 70.73,69.56 70.62,70.75 70.50,71.94 70.01,73.04 69.52,74.13 68.71,75.01 67.89,75.89 66.84,76.46 65.79,77.03 64.61,77.24 63.43,77.44 62.25,77.26 61.06,77.08 60.00,76.53 58.94,75.99 58.10,75.13 57.27,74.27 56.75,73.18 56.24,72.10 56.10,70.92 55.95,69.73 56.20,68.55 56.44,67.38 57.05,66.35 57.65,65.32 58.56,64.53 59.46,63.75 60.57,63.29 61.68,62.83 62.87,62.76 64.07,62.68 65.22,62.99 66.38,63.29 66.38,63.29 66.38,63.29 68.92,65.37 71.46,67.44 73.58,68.68 75.71,69.93 77.68,71.42 79.65,72.90 81.56,74.37 83.47,75.84 85.11,78.21 86.76,80.59 87.89,82.41 89.02,84.23 90.47,86.75 91.92,89.27 93.20,92.21 94.48,95.14 95.47,97.60 96.46,100.05 97.11,102.72 97.77,105.38 98.58,108.47 99.38,111.56 99.37,113.69 99.36,115.82 99.53,118.23 99.70,120.65 99.71,121.50 99.72,122.35 99.52,123.19 99.32,124.02 98.94,124.78 98.55,125.54 97.99,126.18 97.43,126.83 96.73,127.32 96.03,127.81 95.23,128.13 94.44,128.44 93.59,128.55 92.74,128.66 91.90,128.57 91.05,128.47 90.24,128.18 89.44,127.88 88.73,127.41 88.03,126.93 87.45,126.29 86.88,125.66 86.48,124.91 86.07,124.16 85.86,123.33 85.64,122.50 86.48,123.24 87.31,123.98 85.22,122.04 83.13,120.09 82.04,117.89 80.96,115.68 79.55,112.42 78.13,109.16 77.27,106.77 76.40,104.38 75.18,101.48 73.96,98.58 72.71,95.16 71.46,91.74 70.35,88.77 69.25,85.80 72.14,81.76 75.03,77.73 76.29,80.13 77.54,82.53 78.99,84.25 80.45,85.97 82.00,87.70 83.56,89.42 85.36,91.07 87.17,92.72 89.12,95.32 91.08,97.92 92.47,101.21 93.87,104.50 94.40,108.62 94.92,112.73 94.60,116.22 94.28,119.72 93.45,123.33 92.62,126.94 92.24,129.48 91.86,132.03 91.50,134.18 91.14,136.33 90.00,138.89 88.86,141.45 89.52,138.55 90.17,135.64 90.30,136.42 90.43,137.21 90.37,138.00 90.31,138.79 90.06,139.54 89.81,140.30 89.39,140.97 88.97,141.64 88.40,142.19 87.83,142.74 87.14,143.14 86.46,143.54 85.69,143.76 84.93,143.99 84.14,144.02 83.35,144.05 82.57,143.90 81.79,143.74 81.08,143.40 80.36,143.07 79.74,142.57 79.13,142.07 78.65,141.43 78.17,140.80 77.86,140.07 77.54,139.34 77.50,138.97 77.45,138.60 77.25,135.50 77.05,132.39 76.99,129.87 76.94,127.35 76.46,124.45 75.99,121.55 75.12,118.66 74.26,115.76 73.11,113.18 71.95,110.59 70.78,108.08 69.61,105.57 67.45,101.20 65.30,96.84 63.73,93.90 62.17,90.97 60.57,88.08 58.97,85.18 57.48,83.13 55.98,81.07 54.15,78.98 52.31,76.88 53.75,74.69 55.18,72.49 55.15,74.71 55.13,76.93 55.57,79.29 56.00,81.66 56.96,85.16 57.92,88.67 58.87,91.24 59.81,93.81 60.91,96.50 62.01,99.20 63.17,101.87 64.33,104.54 65.54,106.87 66.75,109.21 68.03,111.82 69.32,114.43 70.46,116.70 71.59,118.97 72.66,121.69 73.73,124.41 74.56,126.99 75.38,129.56 76.70,133.93 78.02,138.30 78.90,141.84 79.78,145.38 80.42,148.20 81.05,151.02 76.06,151.36 71.07,151.70 71.10,149.42 71.13,147.13 71.12,144.85 71.10,142.57 70.53,140.11 69.97,137.65 69.52,135.16 69.07,132.66 68.50,129.54 67.92,126.42 67.19,123.76 66.45,121.10 65.90,118.79 65.36,116.48 64.77,114.04 64.18,111.61 63.18,108.57 62.18,105.53 61.44,103.16 60.71,100.78 59.77,97.57 58.83,94.36 58.04,92.26 57.25,90.17 56.36,87.91 55.46,85.66 54.14,82.80 52.83,79.95 51.79,77.69 50.75,75.43 49.44,73.14 48.13,70.85 46.31,67.57 44.49,64.30 43.15,62.56 41.81,60.82 39.51,58.27 37.20,55.72 35.53,54.33 33.86,52.94 31.99,51.52 30.13,50.09 28.34,48.38 26.55,46.66 23.65,44.51 20.75,42.35 18.94,40.53 17.13,38.70 15.90,36.95 14.66,35.20 13.22,33.40 11.77,31.60 10.25,29.15 8.72,26.70 7.22,24.14 5.72,21.57 4.43,19.69 3.14,17.81 2.94,14.95 2.74,12.09 4.10,15.80 5.45,19.50 4.76,18.85 4.07,18.20 3.56,17.41 3.05,16.61 2.74,15.71 2.43,14.82 2.35,13.87 2.27,12.93 2.41,11.99 2.55,11.06 2.92,10.18 3.28,9.31 3.85,8.54 4.41,7.78 5.14,7.18 5.87,6.57 6.72,6.16 7.57,5.75 8.50,5.55 9.43,5.35 10.37,5.38 11.32,5.41 12.23,5.67 13.14,5.92 13.97,6.39 14.79,6.86 15.03,7.07 15.26,7.28 17.22,9.13 19.18,10.98 21.51,12.21 23.84,13.45 26.08,14.70 28.33,15.96 30.52,17.32 32.71,18.67 34.48,19.94 36.24,21.22 38.02,22.49 39.79,23.77 41.47,25.12 43.14,26.47 45.52,28.03 47.90,29.59 49.64,31.08 51.39,32.57 53.16,34.10 54.94,35.63 56.52,37.21 58.09,38.78 59.84,40.51 61.59,42.24 63.25,43.90 64.90,45.57 66.99,48.33 69.07,51.10 71.00,53.11 72.93,55.12 74.49,56.75 76.05,58.38 77.41,60.70 78.76,63.03 77.05,61.07 75.34,59.12 77.02,60.75 78.70,62.38 80.09,64.05 81.49,65.72 83.32,67.87 85.14,70.01 86.37,71.76 87.60,73.50 89.63,76.28 91.66,79.07 93.42,80.78 95.18,82.50 97.71,85.05 100.25,87.60 101.33,89.80 102.41,92.01 103.58,93.93 104.76,95.85 106.85,97.64 108.94,99.42 110.68,102.95 112.42,106.48 112.40,108.65 112.39,110.81 111.87,112.95 111.35,115.08 110.90,117.51 110.45,119.94 110.03,122.20 109.61,124.46 108.99,126.86 108.36,129.26 107.62,131.26 106.89,133.26 105.55,135.93 104.22,138.59 103.56,140.74 102.90,142.89 101.90,144.85 100.91,146.82 100.05,149.25 99.20,151.67 98.09,154.49 96.98,157.31 95.61,159.09 94.24,160.87 92.67,162.39 91.10,163.90 89.71,166.18 88.32,168.46 86.26,170.68 84.21,172.90 83.39,175.10 82.57,177.30 81.81,179.31 81.06,181.31 79.99,183.51 78.92,185.72 78.84,186.66 78.77,187.61 78.48,188.51 78.18,189.40 77.68,190.21 77.18,191.01 76.50,191.67 75.82,192.33 75.00,192.81 74.18,193.28 73.27,193.55 72.36,193.82 71.42,193.86 70.47,193.90 69.54,193.72 68.61,193.53 67.76,193.13 66.90,192.73 66.16,192.13 65.42,191.54 64.85,190.78 64.28,190.03 63.91,189.16 63.53,188.29 63.37,187.35 63.22,186.42 63.63,187.15 64.03,187.88 63.19,184.66 62.34,181.45 62.12,179.25 61.91,177.04 61.30,173.89 60.69,170.73 60.81,168.42 60.92,166.11 60.26,162.96 59.59,159.80 59.07,157.44 58.55,155.08 58.08,152.11 57.61,149.13 56.88,146.89 56.15,144.66 55.77,142.12 55.39,139.59 54.59,137.21 53.80,134.82 53.02,132.24 52.24,129.67 51.43,126.68 50.62,123.68 50.01,121.55 49.40,119.42 48.95,116.94 48.49,114.47 47.27,111.23 46.05,107.98 45.28,105.90 44.50,103.82 43.48,101.14 42.47,98.46 41.83,95.68 41.19,92.90 42.47,94.81 43.76,96.71 42.55,94.46 41.35,92.21 40.26,89.50 39.17,86.78 40.58,88.74 42.00,90.71 40.53,88.28 39.06,85.85 38.07,83.96 37.07,82.06 36.22,79.56 35.38,77.05 34.39,74.86 33.41,72.67 32.54,70.72 31.68,68.76 30.47,66.71 29.26,64.65 28.05,62.54 26.84,60.43 25.82,58.08 24.81,55.74 24.08,53.72 23.36,51.71 22.17,49.32 20.99,46.94 19.96,43.98 18.94,41.01 17.57,37.82 16.20,34.63 15.15,31.81 14.09,28.98 13.18,27.01 12.26,25.03 9.56,22.42 6.87,19.80 4.39,17.18 1.92,14.56 0.74,12.51 -0.42,10.46 -1.68,7.79 -2.94,5.13 -3.60,3.90 -4.26,2.66 -4.52,2.11 -4.77,1.56 -4.89,0.97 -5.01,0.37 -4.98,-0.22 -4.95,-0.83 -4.78,-1.41 -4.61,-1.99 -4.31,-2.51 -4.00,-3.04 -3.58,-3.47 -3.15,-3.91 -2.64,-4.23 -2.13,-4.55 -1.55,-4.74 -0.97,-4.93 -0.37,-4.97 0.22,-5.02 0.82,-4.92 1.42,-4.82 1.98,-4.58 2.53,-4.34 3.02,-3.97 3.50,-3.60 3.88,-3.13 4.26,-2.66 4.26,-2.66 L 4.26,-2.66 Z"></path></g></svg>