<svg version="1.1" xmlns="http://www.w3.org/2000/svg" viewBox="0 0 365.78832189357615 297.7899317106999" width="365.78832189357615" height="297.7899317106999">
  <!-- svg-source:excalidraw -->
  
  <defs>
    <style class="style-fonts">
      @font-face {
        font-family: "Virgil";
        src: url("https://excalidraw.com/Virgil.woff2");
      }
      @font-face {
        font-family: "Cascadia";
        src: url("https://excalidraw.com/Cascadia.woff2");
      }
      @font-face {
        font-family: "Assistant";
        src: url("https://excalidraw.com/Assistant-Regular.woff2");
      }
    </style>
    
  </defs>
  <rect x="0" y="0" width="365.78832189357615" height="297.7899317106999" fill="#ffffff"></rect><g stroke-linecap="round"><g transform="translate(27.486332346631627 177.3969994804297) rotate(0 151.42986449244492 0.2575101918634459)"><path d="M0 0 C50.48 0.09, 252.38 0.43, 302.86 0.52 M0 0 C50.48 0.09, 252.38 0.43, 302.86 0.52" stroke="#1e1e1e" stroke-width="2" fill="none"></path></g></g><mask></mask><g stroke-linecap="round"><g transform="translate(168.09978636744495 34.20816846523917) rotate(0 -70.30671718627298 71.59438603519425)"><path d="M0 0 C-23.44 23.86, -117.18 119.32, -140.61 143.19 M0 0 C-23.44 23.86, -117.18 119.32, -140.61 143.19" stroke="#1e1e1e" stroke-width="2" fill="none"></path></g></g><mask></mask><g stroke-linecap="round"><g transform="translate(167.06966700692192 34.72325761790171) rotate(0 81.38066732216896 71.33684145886298)"><path d="M0 0 C27.13 23.78, 135.63 118.89, 162.76 142.67 M0 0 C27.13 23.78, 135.63 118.89, 162.76 142.67" stroke="#1e1e1e" stroke-width="2" fill="none"></path></g></g><mask></mask><g stroke-linecap="round"><g transform="translate(168.61484604770658 35.75337697842485) rotate(0 58.97523721024629 109.45185707037228)"><path d="M0 0 C19.66 36.48, 98.29 182.42, 117.95 218.9 M0 0 C19.66 36.48, 98.29 182.42, 117.95 218.9" stroke="#1e1e1e" stroke-width="2" fill="none"></path></g></g><mask></mask><g stroke-linecap="round"><g transform="translate(329.3159419709982 177.9120198641566) rotate(0 -20.860251071137952 38.63006546763722)"><path d="M0 0 C-6.95 12.88, -34.77 64.38, -41.72 77.26 M0 0 C-6.95 12.88, -34.77 64.38, -41.72 77.26" stroke="#1e1e1e" stroke-width="2" fill="none"></path></g></g><mask></mask><g stroke-linecap="round"><g transform="translate(28.516471355422084 177.9120198641566) rotate(0 129.5394842366501 39.40267463629692)"><path d="M0 0 C43.18 13.13, 215.9 65.67, 259.08 78.81 M0 0 C43.18 13.13, 215.9 65.67, 259.08 78.81" stroke="#1e1e1e" stroke-width="2" fill="none"></path></g></g><mask></mask><g stroke-linecap="round"><g transform="translate(167.58472668718343 37.813645171872054) rotate(0 9.013681942448727 93.22722662672459)"><path d="M0 0 C2.83 16.83, 13.99 69.88, 17 100.95 C20 132.03, 17.86 172.2, 18.03 186.45 M0 0 C2.83 16.83, 13.99 69.88, 17 100.95 C20 132.03, 17.86 172.2, 18.03 186.45" stroke="#1e1e1e" stroke-width="2" fill="none"></path></g></g><mask></mask><g stroke-linecap="round"><g transform="translate(271.11329428114436 177.39694053562766) rotate(0 -42.49307201440098 24.20818811350648)"><path d="M0 0 C-5.58 4.46, -19.32 18.71, -33.48 26.78 C-47.64 34.85, -76.4 44.81, -84.99 48.42 M0 0 C-5.58 4.46, -19.32 18.71, -33.48 26.78 C-47.64 34.85, -76.4 44.81, -84.99 48.42" stroke="#1e1e1e" stroke-width="2" fill="none"></path></g></g><mask></mask><g stroke-linecap="round"><g transform="translate(168.09978636744506 36.268475955221106) rotate(0 51.24920446845147 70.56424211433696)"><path d="M0 0 C10.22 11.33, 44.21 44.47, 61.29 67.99 C78.38 91.51, 95.63 128.94, 102.5 141.13 M0 0 C10.22 11.33, 44.21 44.47, 61.29 67.99 C78.38 91.51, 95.63 128.94, 102.5 141.13" stroke="#1e1e1e" stroke-width="2" fill="none"></path></g></g><mask></mask><g stroke-opacity="0.4" fill-opacity="0.4" transform="translate(171.19018374554912 41.93418155876657) rotate(0 45.58348904077229 89.36422990409454)" stroke="none"><path fill="#aaaaaaaa" d="M 4.04,-3.03 Q 4.04,-3.03 5.01,-1.90 5.98,-0.77 7.53,1.62 9.08,4.02 10.16,6.30 11.25,8.58 12.64,11.46 14.04,14.34 15.57,16.56 17.10,18.77 17.37,21.12 17.63,23.47 18.21,26.08 18.80,28.70 19.06,30.95 19.31,33.21 19.68,35.32 20.04,37.43 20.38,39.55 20.72,41.67 21.00,43.91 21.29,46.14 21.33,48.36 21.36,50.57 21.85,52.70 22.34,54.83 22.40,57.23 22.46,59.62 22.97,61.69 23.49,63.75 23.53,65.90 23.58,68.06 23.59,70.50 23.60,72.94 24.03,75.20 24.46,77.47 24.82,80.02 25.17,82.57 25.61,84.89 26.04,87.21 26.14,89.75 26.24,92.28 26.71,94.39 27.19,96.49 27.49,99.08 27.80,101.66 28.30,104.07 28.80,106.49 29.02,109.30 29.25,112.10 29.54,114.42 29.83,116.75 29.86,118.98 29.89,121.22 29.89,123.45 29.90,125.68 29.90,127.94 29.91,130.20 29.66,133.70 29.41,137.20 29.39,139.90 29.36,142.59 29.36,144.95 29.36,147.31 29.36,149.74 29.36,152.16 29.12,155.23 28.88,158.30 28.27,161.86 27.67,165.43 27.53,168.00 27.39,170.57 26.74,173.97 26.10,177.38 23.73,174.53 21.37,171.68 18.04,172.61 14.71,173.54 15.64,171.37 16.58,169.20 18.93,167.75 21.27,166.29 23.94,164.84 26.61,163.39 29.31,162.81 32.02,162.23 34.44,161.88 36.86,161.52 38.79,160.13 40.72,158.74 43.84,157.33 46.96,155.93 49.34,154.71 51.72,153.50 54.00,152.74 56.28,151.99 58.44,151.50 60.60,151.02 62.61,149.81 64.63,148.60 66.47,147.55 68.32,146.49 70.87,145.48 73.42,144.47 75.27,143.29 77.11,142.11 78.45,139.82 79.79,137.53 81.13,135.65 82.47,133.78 84.40,131.29 86.32,128.80 84.94,130.97 83.57,133.14 82.37,131.16 81.18,129.17 80.37,126.50 79.56,123.83 78.99,121.45 78.42,119.08 77.26,117.03 76.09,114.99 74.84,112.77 73.60,110.55 72.23,108.53 70.87,106.51 69.45,104.44 68.03,102.37 66.01,99.66 63.99,96.96 61.83,93.93 59.68,90.89 57.90,88.13 56.12,85.36 54.87,83.15 53.62,80.93 52.25,77.91 50.87,74.88 50.05,72.90 49.23,70.92 48.07,68.39 46.91,65.87 45.39,63.09 43.87,60.31 42.33,58.03 40.80,55.75 39.32,54.11 37.85,52.46 36.19,50.79 34.54,49.11 32.60,47.20 30.66,45.28 28.61,43.49 26.56,41.71 24.09,39.62 21.62,37.52 18.91,36.04 16.20,34.55 14.60,32.67 13.00,30.79 13.45,30.95 13.91,31.11 13.00,30.86 12.10,30.61 11.28,30.15 10.46,29.69 9.78,29.04 9.09,28.40 8.58,27.61 8.08,26.82 7.77,25.94 7.46,25.05 7.38,24.11 7.29,23.18 7.43,22.25 7.58,21.32 7.94,20.46 8.29,19.59 8.85,18.83 9.41,18.08 10.13,17.47 10.85,16.87 11.69,16.46 12.54,16.05 13.46,15.86 14.37,15.66 15.31,15.69 16.25,15.72 19.30,18.14 22.34,20.56 23.79,23.08 25.24,25.60 26.43,27.37 27.62,29.15 28.93,31.82 30.24,34.49 31.51,36.79 32.78,39.09 34.07,41.65 35.35,44.21 36.42,46.43 37.48,48.65 38.48,51.14 39.48,53.63 40.43,55.93 41.39,58.24 42.33,61.16 43.26,64.08 44.01,67.57 44.75,71.06 45.36,74.01 45.96,76.97 46.79,80.16 47.62,83.34 48.48,86.46 49.34,89.58 50.00,91.69 50.67,93.81 51.56,96.43 52.46,99.05 52.81,100.25 53.16,101.45 53.35,102.30 53.53,103.15 53.51,104.02 53.48,104.89 53.25,105.73 53.02,106.57 52.59,107.33 52.16,108.09 51.57,108.72 50.97,109.36 50.24,109.83 49.51,110.31 48.69,110.59 47.86,110.88 47.00,110.96 46.13,111.04 45.27,110.91 44.41,110.78 43.60,110.44 42.80,110.11 42.09,109.60 41.39,109.08 40.83,108.41 40.28,107.74 39.89,106.96 39.51,106.18 41.88,108.15 44.24,110.13 41.44,108.58 38.63,107.04 36.98,105.09 35.33,103.14 33.49,100.35 31.66,97.56 29.96,94.47 28.26,91.39 26.89,87.57 25.52,83.75 23.94,78.43 22.37,73.12 20.95,68.49 19.54,63.85 18.28,59.59 17.02,55.32 16.02,52.15 15.03,48.97 13.94,45.85 12.86,42.73 12.68,42.13 12.51,41.53 12.46,40.96 12.42,40.39 12.51,39.83 12.60,39.27 12.82,38.74 13.04,38.22 13.38,37.76 13.72,37.31 14.16,36.94 14.60,36.58 15.12,36.34 15.63,36.09 16.19,35.98 16.75,35.86 17.31,35.88 17.88,35.91 18.43,36.06 18.98,36.22 19.47,36.50 19.97,36.79 20.38,37.18 20.79,37.57 21.09,38.05 21.40,38.54 21.58,39.07 21.76,39.61 24.10,43.89 26.44,48.16 27.75,51.62 29.07,55.07 30.08,58.83 31.10,62.58 31.96,65.90 32.82,69.22 33.50,72.68 34.17,76.13 34.89,79.26 35.60,82.39 36.37,85.32 37.14,88.25 37.82,91.22 38.49,94.19 39.12,96.73 39.74,99.26 40.43,102.08 41.12,104.90 41.67,107.06 42.22,109.21 43.04,112.91 43.86,116.61 44.23,119.82 44.60,123.03 45.05,125.53 45.49,128.02 45.66,130.14 45.82,132.26 45.73,132.99 45.65,133.73 45.39,134.43 45.13,135.12 44.71,135.74 44.29,136.35 43.73,136.85 43.18,137.34 42.52,137.69 41.86,138.04 41.14,138.22 40.42,138.40 39.68,138.40 38.93,138.40 38.21,138.23 37.49,138.05 36.83,137.71 36.17,137.37 35.61,136.88 35.05,136.39 34.63,135.78 34.20,135.17 33.94,134.47 33.67,133.78 33.58,133.04 33.49,132.30 32.36,128.17 31.24,124.04 30.36,120.34 29.48,116.65 28.57,111.80 27.65,106.94 26.89,103.59 26.12,100.23 25.65,97.75 25.17,95.26 24.73,92.59 24.29,89.93 23.98,88.67 23.68,87.40 23.73,86.76 23.79,86.11 23.99,85.49 24.20,84.87 24.55,84.32 24.90,83.78 25.38,83.33 25.85,82.88 26.41,82.55 26.98,82.23 27.61,82.05 28.23,81.87 28.88,81.85 29.53,81.83 30.17,81.96 30.81,82.09 31.40,82.38 31.98,82.66 32.48,83.07 32.99,83.49 33.38,84.01 33.77,84.53 34.02,85.13 34.27,85.73 34.37,86.37 34.47,87.02 34.44,89.56 34.41,92.10 34.49,95.86 34.56,99.61 34.56,101.92 34.56,104.23 34.57,106.54 34.57,108.86 34.55,111.32 34.54,113.79 34.55,116.02 34.56,118.25 34.97,121.79 35.37,125.33 35.93,128.45 36.48,131.57 36.92,135.07 37.37,138.58 37.52,140.89 37.68,143.19 37.96,145.68 38.24,148.16 38.34,150.72 38.44,153.28 35.78,151.91 33.12,150.55 29.94,152.59 26.76,154.63 26.46,150.55 26.15,146.46 26.63,143.69 27.11,140.91 27.64,138.37 28.18,135.83 28.63,133.00 29.07,130.17 30.17,128.32 31.27,126.46 30.74,126.94 30.21,127.42 30.64,126.78 31.07,126.14 31.64,125.62 32.22,125.10 32.90,124.74 33.58,124.37 34.33,124.18 35.08,123.98 35.85,123.98 36.63,123.97 37.38,124.14 38.13,124.32 38.82,124.67 39.51,125.03 40.09,125.53 40.68,126.04 41.12,126.67 41.57,127.30 41.85,128.03 42.13,128.75 42.23,129.51 42.33,130.28 42.25,131.05 42.16,131.82 41.90,132.54 41.63,133.27 41.97,136.49 42.31,139.72 41.83,143.39 41.36,147.06 41.27,149.61 41.18,152.17 41.17,152.46 41.17,152.75 41.05,153.54 40.93,154.33 40.62,155.07 40.31,155.81 39.84,156.45 39.36,157.10 38.75,157.61 38.13,158.12 37.41,158.47 36.69,158.82 35.91,158.99 35.13,159.16 34.33,159.13 33.53,159.11 32.76,158.89 31.98,158.68 31.29,158.28 30.59,157.89 30.01,157.34 29.43,156.79 28.99,156.12 28.56,155.44 28.30,154.69 28.04,153.93 27.96,153.13 27.89,152.33 28.58,149.46 29.27,146.59 33.94,143.79 38.60,141.00 41.48,144.02 44.36,147.05 43.35,151.33 42.34,155.61 40.71,159.10 39.07,162.58 38.87,163.26 38.66,163.95 38.33,164.70 38.01,165.45 37.51,166.11 37.01,166.76 36.37,167.27 35.73,167.79 34.99,168.14 34.24,168.48 33.44,168.64 32.63,168.80 31.81,168.76 30.99,168.72 30.20,168.49 29.42,168.25 28.71,167.84 28.00,167.42 27.41,166.85 26.82,166.28 26.39,165.58 25.95,164.88 25.70,164.10 25.44,163.32 25.38,162.50 25.32,161.68 25.46,160.87 25.60,160.06 27.08,157.67 28.57,155.27 32.04,152.21 35.51,149.15 37.54,147.87 39.56,146.59 41.90,144.91 44.23,143.23 45.77,141.74 47.32,140.25 48.97,138.74 50.62,137.23 52.53,135.75 54.45,134.27 56.89,132.28 59.33,130.28 61.20,128.43 63.07,126.57 65.07,125.41 67.07,124.25 69.36,123.75 71.66,123.24 73.76,123.72 75.87,124.20 78.16,126.86 80.44,129.53 81.17,131.99 81.89,134.46 81.51,137.02 81.14,139.59 79.78,141.40 78.43,143.22 76.04,144.96 73.64,146.70 69.58,148.61 65.52,150.51 63.22,151.42 60.91,152.33 57.91,153.59 54.90,154.86 54.29,155.09 53.68,155.31 52.89,155.56 52.10,155.80 51.27,155.85 50.45,155.90 49.63,155.75 48.82,155.60 48.07,155.26 47.31,154.92 46.66,154.41 46.01,153.89 45.50,153.24 45.00,152.59 44.66,151.83 44.32,151.08 44.17,150.27 44.02,149.45 44.08,148.63 44.13,147.80 44.38,147.01 44.62,146.22 45.05,145.52 45.48,144.81 46.07,144.23 46.65,143.64 47.36,143.21 48.07,142.79 51.47,141.17 54.86,139.54 57.08,138.45 59.30,137.36 62.14,135.30 64.97,133.23 67.25,131.62 69.53,130.00 71.06,127.81 72.58,125.62 71.56,127.50 70.54,129.37 68.43,128.36 66.32,127.36 65.19,125.53 64.06,123.71 63.09,121.80 62.12,119.88 60.61,117.35 59.09,114.83 57.95,112.59 56.81,110.35 55.56,107.83 54.32,105.30 52.72,102.03 51.13,98.75 49.50,96.40 47.87,94.05 46.05,91.65 44.24,89.25 42.85,87.06 41.45,84.87 39.81,82.44 38.16,80.01 37.00,78.07 35.84,76.14 34.67,74.18 33.50,72.23 32.19,70.01 30.88,67.80 30.19,66.19 29.50,64.59 29.40,63.71 29.30,62.83 29.41,61.95 29.53,61.08 29.85,60.25 30.17,59.43 30.68,58.71 31.19,57.99 31.85,57.40 32.52,56.82 33.31,56.42 34.09,56.02 34.95,55.81 35.81,55.61 36.70,55.62 37.58,55.63 38.44,55.84 39.29,56.06 40.07,56.48 40.85,56.90 41.51,57.49 42.16,58.08 42.66,58.82 43.15,59.55 43.46,60.38 43.77,61.21 45.63,64.71 47.49,68.22 48.64,71.95 49.78,75.67 50.67,79.38 51.55,83.08 52.32,86.47 53.09,89.87 53.47,92.40 53.85,94.92 54.05,97.93 54.24,100.93 54.10,104.20 53.95,107.47 53.43,111.28 52.92,115.09 52.44,117.28 51.97,119.47 51.36,122.91 50.75,126.35 49.96,129.84 49.17,133.34 48.61,135.54 48.06,137.74 48.01,138.57 47.96,139.39 47.76,140.18 47.55,140.97 47.16,141.69 46.77,142.41 46.22,143.01 45.67,143.61 44.99,144.07 44.31,144.52 43.55,144.80 42.78,145.08 41.97,145.17 41.15,145.25 40.35,145.14 39.54,145.03 38.78,144.73 38.02,144.43 37.35,143.96 36.69,143.49 36.15,142.87 35.62,142.25 35.25,141.52 34.88,140.79 34.70,140.00 34.51,139.20 34.53,138.39 34.54,137.57 35.31,133.94 36.09,130.31 37.11,126.94 38.13,123.57 39.05,120.59 39.97,117.62 40.63,115.59 41.30,113.56 41.70,112.36 42.10,111.17 42.39,110.48 42.68,109.80 43.12,109.20 43.57,108.61 44.14,108.14 44.72,107.66 45.39,107.34 46.06,107.02 46.78,106.87 47.51,106.72 48.25,106.75 48.99,106.77 49.71,106.98 50.42,107.18 51.07,107.55 51.71,107.92 52.25,108.43 52.79,108.95 53.19,109.57 53.58,110.20 53.82,110.90 54.06,111.61 54.12,112.35 54.18,113.09 54.07,113.82 53.95,114.55 53.65,112.21 53.34,109.86 54.15,112.10 54.95,114.34 54.93,118.15 54.90,121.95 54.50,124.33 54.09,126.71 53.74,129.21 53.39,131.72 53.36,132.44 53.34,133.16 53.15,133.91 52.96,134.66 52.60,135.35 52.23,136.04 51.71,136.61 51.19,137.19 50.55,137.63 49.91,138.07 49.18,138.34 48.45,138.61 47.68,138.70 46.90,138.79 46.13,138.69 45.36,138.59 44.64,138.31 43.91,138.03 43.28,137.58 42.64,137.14 42.13,136.55 41.61,135.97 41.26,135.28 40.90,134.59 40.72,133.83 40.54,133.08 40.54,132.30 40.55,131.52 41.79,128.34 43.02,125.16 44.00,123.18 44.98,121.19 47.05,117.80 49.11,114.40 51.97,112.64 54.82,110.88 57.95,112.30 61.08,113.71 62.18,116.96 63.29,120.20 63.33,122.97 63.37,125.75 62.95,128.87 62.54,132.00 62.18,133.54 61.82,135.07 61.47,135.82 61.12,136.57 60.60,137.22 60.08,137.86 59.42,138.37 58.76,138.87 58.00,139.20 57.24,139.53 56.43,139.67 55.61,139.81 54.78,139.75 53.96,139.69 53.17,139.43 52.38,139.18 51.68,138.74 50.97,138.30 50.40,137.71 49.82,137.12 49.40,136.40 48.98,135.69 48.74,134.90 48.50,134.10 48.46,133.27 48.42,132.45 48.58,131.63 48.74,130.82 49.37,128.41 50.00,126.00 50.97,123.97 51.93,121.95 53.54,119.06 55.15,116.17 55.28,115.90 55.42,115.63 55.87,114.93 56.31,114.23 56.91,113.66 57.51,113.08 58.23,112.67 58.95,112.25 59.75,112.02 60.54,111.79 61.37,111.76 62.20,111.73 63.01,111.90 63.83,112.07 64.58,112.42 65.33,112.78 65.97,113.30 66.61,113.83 67.11,114.50 67.60,115.16 67.93,115.92 68.25,116.69 68.38,117.51 68.52,118.33 68.45,119.15 68.38,119.98 68.11,120.77 67.85,121.55 67.86,124.09 67.88,126.62 67.99,128.58 68.11,130.54 67.98,131.38 67.86,132.22 67.53,133.00 67.21,133.78 66.71,134.47 66.21,135.15 65.56,135.69 64.91,136.24 64.15,136.61 63.39,136.98 62.56,137.16 61.73,137.34 60.88,137.31 60.04,137.29 59.22,137.06 58.40,136.84 57.66,136.42 56.92,136.01 56.31,135.43 55.69,134.85 55.23,134.14 54.77,133.43 54.49,132.63 54.21,131.82 54.13,130.98 54.06,130.14 55.57,127.35 57.08,124.56 57.98,122.31 58.87,120.05 59.94,116.78 61.00,113.50 60.55,115.86 60.10,118.22 57.92,117.09 55.73,115.95 53.82,114.33 51.90,112.70 53.23,113.80 54.56,114.90 53.72,114.62 52.87,114.35 52.12,113.88 51.37,113.41 50.75,112.77 50.13,112.13 49.68,111.36 49.24,110.60 48.98,109.75 48.73,108.89 48.69,108.01 48.65,107.12 48.82,106.25 49.00,105.38 49.37,104.57 49.75,103.77 50.31,103.08 50.87,102.39 51.57,101.85 52.28,101.31 53.10,100.96 53.91,100.61 54.79,100.46 55.66,100.32 56.55,100.38 57.43,100.45 59.97,102.24 62.50,104.04 64.61,105.97 66.72,107.90 69.48,109.78 72.24,111.66 74.61,113.14 76.97,114.62 74.50,116.34 72.02,118.06 70.11,116.76 68.19,115.46 66.71,113.36 65.22,111.25 63.96,109.47 62.69,107.69 61.29,105.55 59.88,103.42 58.51,101.23 57.14,99.05 56.06,96.89 54.97,94.74 53.32,92.34 51.68,89.95 50.47,87.95 49.26,85.96 48.06,83.70 46.86,81.45 45.66,79.47 44.46,77.48 43.20,75.74 41.94,73.99 40.21,71.57 38.48,69.15 36.87,67.52 35.26,65.89 33.70,63.80 32.13,61.71 36.24,61.66 40.35,61.61 42.00,60.28 43.66,58.94 43.58,61.87 43.51,64.80 43.50,67.50 43.49,70.19 43.49,72.84 43.48,75.49 43.47,77.73 43.45,79.97 43.85,82.23 44.26,84.48 43.24,82.91 42.22,81.34 42.93,81.89 43.64,82.43 44.21,83.12 44.77,83.82 45.15,84.63 45.53,85.44 45.71,86.32 45.88,87.20 45.84,88.09 45.80,88.99 45.55,89.85 45.29,90.71 44.84,91.48 44.39,92.26 43.77,92.90 43.14,93.54 42.39,94.02 41.63,94.49 40.77,94.77 39.92,95.05 39.03,95.12 38.14,95.19 37.25,95.04 36.37,94.89 35.55,94.54 34.73,94.18 33.02,90.26 31.32,86.35 30.30,83.30 29.29,80.25 28.76,77.14 28.23,74.03 27.86,70.77 27.48,67.52 26.92,64.18 26.35,60.84 26.36,59.67 26.37,58.50 26.76,57.40 27.14,56.30 27.86,55.38 28.57,54.46 29.54,53.81 30.52,53.17 31.64,52.87 32.77,52.57 33.93,52.64 35.10,52.72 36.18,53.16 37.25,53.61 38.14,54.37 39.02,55.13 39.61,56.14 40.20,57.14 40.44,58.29 40.68,59.43 40.54,60.59 40.40,61.74 39.90,62.80 39.40,63.85 38.59,64.69 37.78,65.53 36.74,66.06 35.70,66.60 34.55,66.77 33.40,66.95 32.25,66.75 31.10,66.55 30.08,65.99 29.05,65.44 28.26,64.58 27.47,63.73 26.99,62.66 26.51,61.60 26.39,60.44 26.28,59.28 26.54,58.14 26.81,57.00 27.42,56.01 28.03,55.02 28.93,54.27 29.82,53.53 30.91,53.11 32.00,52.69 33.16,52.64 34.33,52.59 35.45,52.91 36.57,53.23 37.53,53.90 38.49,54.56 39.18,55.50 39.88,56.43 40.24,57.54 40.60,58.65 40.60,58.65 40.60,58.65 41.23,62.51 41.85,66.37 42.22,68.93 42.59,71.49 43.13,74.19 43.67,76.88 44.32,79.97 44.97,83.05 45.38,85.70 45.80,88.35 44.01,84.85 42.22,81.34 42.93,81.89 43.64,82.43 44.21,83.12 44.77,83.82 45.15,84.63 45.53,85.44 45.71,86.32 45.88,87.20 45.84,88.09 45.80,88.99 45.55,89.85 45.30,90.71 44.84,91.48 44.39,92.25 43.77,92.90 43.15,93.54 42.39,94.02 41.63,94.49 40.78,94.77 39.92,95.05 39.03,95.12 38.14,95.19 37.25,95.04 36.37,94.89 35.55,94.54 34.73,94.18 33.30,92.81 31.87,91.44 30.72,88.59 29.57,85.75 29.11,82.87 28.65,79.99 28.63,76.89 28.62,73.79 28.61,71.03 28.61,68.28 28.61,65.32 28.61,62.36 28.68,59.71 28.75,57.06 31.11,53.64 33.46,50.22 38.68,51.40 43.90,52.58 45.07,54.45 46.23,56.32 47.77,58.15 49.31,59.98 50.98,62.06 52.65,64.13 54.55,66.68 56.46,69.23 57.96,71.74 59.47,74.25 60.49,76.28 61.51,78.31 63.11,80.85 64.70,83.38 66.33,85.86 67.96,88.34 69.26,90.75 70.57,93.17 71.94,95.24 73.30,97.31 75.42,100.31 77.54,103.31 78.76,105.20 79.98,107.09 81.33,109.73 82.69,112.37 83.95,114.32 85.20,116.28 85.18,119.67 85.16,123.06 82.01,125.78 78.86,128.51 75.68,128.12 72.50,127.73 69.97,126.37 67.45,125.01 64.51,123.21 61.56,121.41 59.74,120.18 57.92,118.95 56.24,116.93 54.56,114.90 53.72,114.62 52.87,114.35 52.12,113.88 51.37,113.41 50.75,112.77 50.13,112.13 49.68,111.36 49.24,110.60 48.98,109.75 48.73,108.90 48.69,108.01 48.65,107.12 48.82,106.25 49.00,105.38 49.37,104.58 49.75,103.77 50.31,103.08 50.87,102.39 51.57,101.85 52.28,101.32 53.10,100.96 53.91,100.61 54.79,100.46 55.66,100.32 56.55,100.38 57.43,100.45 57.68,100.48 57.93,100.50 60.62,101.95 63.32,103.40 65.08,104.63 66.84,105.86 68.80,107.65 70.76,109.43 72.42,112.92 74.08,116.40 73.62,118.93 73.15,121.45 72.40,123.68 71.66,125.91 70.45,128.25 69.25,130.59 67.88,132.75 66.50,134.90 67.31,132.72 68.11,130.54 67.98,131.38 67.86,132.22 67.53,133.00 67.21,133.78 66.71,134.47 66.21,135.15 65.56,135.69 64.91,136.24 64.15,136.61 63.39,136.98 62.56,137.16 61.73,137.34 60.88,137.31 60.04,137.29 59.22,137.06 58.40,136.84 57.66,136.42 56.93,136.01 56.31,135.43 55.69,134.85 55.23,134.14 54.77,133.43 54.49,132.63 54.21,131.83 54.13,130.98 54.06,130.14 53.95,129.95 53.85,129.75 53.94,127.49 54.03,125.24 54.45,122.72 54.88,120.21 55.15,117.92 55.42,115.63 55.87,114.93 56.31,114.23 56.91,113.66 57.51,113.08 58.23,112.67 58.95,112.25 59.75,112.02 60.54,111.79 61.37,111.76 62.20,111.73 63.01,111.90 63.83,112.06 64.58,112.42 65.32,112.78 65.97,113.30 66.61,113.83 67.11,114.49 67.60,115.16 67.93,115.92 68.25,116.69 68.38,117.51 68.52,118.32 68.45,119.15 68.38,119.98 68.12,120.77 67.85,121.55 66.79,123.18 65.74,124.82 64.43,127.51 63.12,130.20 62.47,132.64 61.82,135.07 61.47,135.82 61.12,136.57 60.60,137.22 60.08,137.86 59.42,138.37 58.76,138.87 58.00,139.20 57.24,139.53 56.43,139.67 55.61,139.81 54.78,139.75 53.96,139.69 53.17,139.44 52.38,139.18 51.68,138.74 50.98,138.30 50.40,137.71 49.82,137.12 49.40,136.40 48.98,135.69 48.74,134.90 48.50,134.10 48.46,133.28 48.42,132.45 48.58,131.63 48.74,130.82 49.33,128.31 49.92,125.80 50.84,122.87 51.77,119.95 55.70,120.94 59.62,121.92 58.09,124.43 56.55,126.94 54.95,130.05 53.34,133.16 53.15,133.91 52.96,134.66 52.60,135.35 52.23,136.04 51.71,136.61 51.19,137.19 50.55,137.63 49.91,138.07 49.18,138.34 48.45,138.61 47.68,138.70 46.91,138.79 46.13,138.69 45.36,138.59 44.64,138.31 43.91,138.03 43.28,137.59 42.64,137.14 42.13,136.55 41.62,135.97 41.26,135.28 40.90,134.59 40.72,133.83 40.54,133.08 40.54,132.30 40.55,131.52 40.82,129.66 41.10,127.80 41.70,124.42 42.30,121.04 43.02,119.00 43.74,116.97 42.92,114.07 42.10,111.17 42.39,110.48 42.68,109.80 43.12,109.20 43.57,108.61 44.14,108.14 44.71,107.66 45.38,107.34 46.05,107.02 46.78,106.87 47.51,106.72 48.25,106.75 48.99,106.77 49.71,106.98 50.42,107.18 51.07,107.55 51.71,107.92 52.25,108.43 52.79,108.95 53.19,109.57 53.58,110.20 53.82,110.90 54.06,111.61 54.12,112.35 54.18,113.09 54.07,113.82 53.95,114.55 53.64,114.98 53.33,115.40 52.42,118.03 51.50,120.66 50.89,123.49 50.28,126.32 49.79,129.62 49.30,132.93 48.63,136.16 47.96,139.39 47.76,140.18 47.55,140.97 47.16,141.69 46.77,142.41 46.22,143.01 45.67,143.61 44.99,144.07 44.31,144.52 43.55,144.80 42.78,145.08 41.97,145.17 41.15,145.25 40.35,145.14 39.54,145.03 38.78,144.73 38.02,144.43 37.35,143.96 36.69,143.49 36.15,142.87 35.62,142.25 35.25,141.52 34.88,140.79 34.70,140.00 34.51,139.20 34.53,138.39 34.54,137.57 34.71,136.45 34.89,135.34 35.57,132.84 36.26,130.34 36.95,127.24 37.63,124.14 38.22,120.47 38.81,116.81 39.34,113.31 39.86,109.80 40.15,106.79 40.43,103.78 40.36,100.58 40.29,97.38 39.96,94.96 39.63,92.54 38.81,89.32 38.00,86.10 37.10,82.86 36.20,79.63 35.18,76.70 34.16,73.77 33.09,71.60 32.02,69.42 30.76,67.01 29.50,64.59 29.40,63.71 29.30,62.83 29.41,61.95 29.53,61.08 29.85,60.25 30.17,59.43 30.68,58.71 31.19,57.99 31.85,57.41 32.52,56.83 33.31,56.42 34.09,56.02 34.95,55.81 35.81,55.61 36.70,55.62 37.58,55.63 38.44,55.84 39.29,56.06 40.07,56.48 40.85,56.90 41.51,57.49 42.16,58.08 42.66,58.81 43.15,59.55 43.46,60.38 43.77,61.20 43.38,60.53 43.00,59.86 44.10,61.75 45.20,63.65 46.36,65.55 47.53,67.45 48.80,69.66 50.08,71.87 51.41,73.80 52.75,75.74 54.33,78.27 55.91,80.79 58.10,83.91 60.29,87.03 61.54,89.00 62.79,90.97 64.30,93.90 65.81,96.83 66.93,99.08 68.06,101.32 69.27,103.71 70.48,106.09 71.47,108.04 72.45,109.99 74.45,113.41 76.44,116.83 77.65,118.91 78.86,120.99 80.89,123.11 82.92,125.22 83.45,127.82 83.99,130.42 83.41,132.53 82.83,134.63 81.38,136.70 79.93,138.77 77.23,140.47 74.52,142.16 72.16,143.95 69.80,145.73 67.66,147.23 65.53,148.72 63.00,150.23 60.47,151.74 57.08,153.53 53.68,155.31 52.89,155.56 52.10,155.80 51.27,155.85 50.45,155.90 49.63,155.75 48.82,155.60 48.07,155.26 47.31,154.92 46.66,154.41 46.01,153.89 45.50,153.24 45.00,152.59 44.66,151.84 44.32,151.08 44.17,150.27 44.02,149.45 44.08,148.63 44.13,147.80 44.38,147.01 44.62,146.22 45.05,145.52 45.48,144.81 46.07,144.23 46.65,143.64 47.36,143.22 48.07,142.79 49.87,142.09 51.66,141.38 55.43,139.63 59.20,137.87 63.34,136.84 67.49,135.81 69.58,136.82 71.68,137.84 68.99,140.30 66.30,142.76 64.45,144.18 62.61,145.60 60.32,147.03 58.04,148.46 55.86,150.49 53.68,152.52 51.68,153.99 49.68,155.47 46.70,157.63 43.71,159.79 41.18,161.87 38.66,163.95 38.33,164.70 38.01,165.45 37.51,166.11 37.01,166.76 36.37,167.27 35.73,167.79 34.99,168.14 34.24,168.48 33.44,168.64 32.63,168.80 31.81,168.76 30.99,168.72 30.20,168.49 29.42,168.25 28.71,167.84 28.00,167.42 27.41,166.85 26.82,166.28 26.39,165.58 25.95,164.88 25.70,164.10 25.44,163.32 25.38,162.50 25.32,161.68 25.46,160.87 25.60,160.06 25.80,159.80 26.00,159.54 27.14,156.76 28.28,153.99 29.49,151.10 30.70,148.22 33.30,150.17 35.89,152.12 38.53,152.44 41.17,152.75 41.05,153.54 40.93,154.33 40.62,155.07 40.31,155.81 39.84,156.45 39.36,157.10 38.75,157.61 38.13,158.12 37.41,158.47 36.69,158.82 35.91,158.99 35.13,159.16 34.33,159.13 33.53,159.11 32.76,158.89 31.98,158.68 31.29,158.28 30.59,157.89 30.01,157.34 29.43,156.79 28.99,156.12 28.56,155.44 28.30,154.69 28.04,153.93 27.96,153.13 27.89,152.34 27.99,150.55 28.09,148.76 28.44,145.30 28.80,141.84 29.14,139.05 29.47,136.26 29.51,134.09 29.55,131.93 29.88,129.67 30.21,127.42 30.64,126.78 31.07,126.14 31.64,125.62 32.22,125.10 32.90,124.74 33.58,124.37 34.33,124.18 35.08,123.98 35.85,123.98 36.63,123.97 37.38,124.14 38.13,124.32 38.82,124.67 39.51,125.03 40.09,125.53 40.68,126.04 41.12,126.67 41.57,127.30 41.85,128.02 42.13,128.74 42.23,129.51 42.33,130.28 42.25,131.05 42.16,131.82 41.90,132.54 41.63,133.27 41.60,132.76 41.57,132.26 41.05,135.19 40.53,138.12 40.17,140.42 39.80,142.71 39.47,147.02 39.13,151.33 38.53,154.43 37.94,157.52 34.63,159.58 31.32,161.64 28.34,158.68 25.36,155.72 25.39,153.46 25.42,151.21 25.40,148.94 25.39,146.67 25.26,144.17 25.14,141.67 25.09,139.36 25.04,137.05 24.60,133.51 24.16,129.97 23.76,126.31 23.37,122.65 23.24,120.45 23.12,118.25 23.13,116.02 23.14,113.79 23.13,111.32 23.11,108.85 23.12,106.54 23.12,104.22 23.12,101.90 23.13,99.58 23.24,95.76 23.35,91.93 23.51,89.67 23.68,87.41 23.73,86.76 23.79,86.11 23.99,85.49 24.20,84.87 24.55,84.33 24.90,83.78 25.38,83.33 25.85,82.88 26.41,82.55 26.98,82.23 27.60,82.05 28.23,81.87 28.88,81.85 29.53,81.83 30.17,81.96 30.81,82.09 31.39,82.38 31.98,82.66 32.48,83.07 32.99,83.49 33.38,84.01 33.76,84.53 34.02,85.13 34.27,85.73 34.37,86.37 34.47,87.02 34.50,89.11 34.52,91.20 34.76,94.62 34.99,98.04 35.87,101.30 36.74,104.55 38.26,108.97 39.79,113.40 41.18,116.90 42.57,120.40 43.67,123.35 44.76,126.31 45.29,129.28 45.82,132.25 45.73,132.99 45.65,133.73 45.39,134.43 45.13,135.12 44.71,135.74 44.29,136.35 43.73,136.85 43.18,137.34 42.52,137.69 41.86,138.04 41.14,138.22 40.42,138.40 39.68,138.40 38.93,138.40 38.21,138.23 37.49,138.05 36.83,137.71 36.17,137.37 35.61,136.88 35.05,136.39 34.63,135.78 34.20,135.17 33.94,134.47 33.67,133.78 33.58,133.04 33.49,132.30 33.51,131.89 33.54,131.49 33.67,128.85 33.81,126.20 33.70,123.66 33.58,121.12 33.37,118.02 33.16,114.92 32.61,110.99 32.05,107.06 31.38,104.15 30.70,101.23 30.22,98.64 29.73,96.05 29.17,93.23 28.61,90.41 27.87,87.37 27.13,84.34 26.38,81.10 25.64,77.87 24.97,74.70 24.30,71.54 23.39,68.35 22.48,65.15 21.42,61.95 20.35,58.75 18.87,55.58 17.38,52.41 16.20,49.88 15.01,47.36 13.76,44.44 12.51,41.53 12.46,40.96 12.42,40.39 12.51,39.83 12.60,39.27 12.82,38.74 13.04,38.22 13.38,37.76 13.72,37.31 14.16,36.94 14.60,36.58 15.12,36.34 15.63,36.09 16.19,35.98 16.74,35.86 17.31,35.88 17.88,35.91 18.43,36.06 18.98,36.22 19.47,36.50 19.96,36.79 20.38,37.18 20.79,37.57 21.09,38.05 21.40,38.53 21.58,39.07 21.76,39.61 21.78,40.25 21.80,40.88 22.25,43.79 22.70,46.70 23.54,49.71 24.38,52.73 26.04,56.76 27.71,60.79 29.69,65.22 31.67,69.64 33.90,74.50 36.13,79.37 37.45,82.06 38.77,84.75 40.61,87.25 42.45,89.74 44.06,91.70 45.67,93.67 46.47,95.71 47.27,97.76 50.21,99.60 53.16,101.45 53.35,102.30 53.53,103.15 53.51,104.02 53.48,104.89 53.25,105.73 53.02,106.57 52.59,107.33 52.16,108.09 51.57,108.72 50.97,109.36 50.24,109.83 49.51,110.30 48.69,110.59 47.86,110.88 47.00,110.96 46.13,111.04 45.27,110.91 44.41,110.78 43.60,110.44 42.80,110.11 42.10,109.60 41.39,109.08 40.83,108.41 40.28,107.74 39.89,106.96 39.51,106.18 38.66,103.64 37.80,101.09 36.84,98.41 35.89,95.72 35.24,93.43 34.59,91.14 34.07,88.52 33.56,85.90 32.93,83.77 32.30,81.64 31.95,79.53 31.61,77.41 30.81,74.28 30.01,71.15 29.21,68.60 28.40,66.05 27.43,63.62 26.47,61.19 25.67,59.21 24.88,57.24 23.86,55.12 22.83,53.01 21.85,51.09 20.88,49.17 19.90,47.14 18.92,45.12 17.81,42.93 16.70,40.74 15.33,38.58 13.96,36.41 12.68,34.31 11.41,32.20 9.82,29.69 8.24,27.17 11.07,29.14 13.91,31.11 13.00,30.86 12.10,30.61 11.28,30.15 10.46,29.69 9.78,29.04 9.09,28.40 8.59,27.61 8.08,26.82 7.77,25.94 7.46,25.05 7.38,24.11 7.29,23.18 7.43,22.25 7.58,21.32 7.93,20.46 8.29,19.59 8.85,18.83 9.41,18.08 10.13,17.48 10.85,16.87 11.69,16.46 12.54,16.05 13.45,15.86 14.37,15.66 15.31,15.69 16.25,15.72 19.20,17.33 22.15,18.94 24.00,20.61 25.85,22.28 28.63,23.97 31.42,25.66 33.64,27.34 35.87,29.02 37.38,30.61 38.90,32.21 41.13,34.13 43.35,36.06 45.03,37.70 46.70,39.34 48.38,41.25 50.06,43.16 51.42,44.86 52.79,46.56 54.11,48.58 55.43,50.61 56.84,52.44 58.24,54.28 59.56,56.91 60.88,59.54 62.10,62.26 63.33,64.98 63.95,67.12 64.58,69.26 65.61,71.51 66.65,73.77 68.40,76.54 70.14,79.30 71.30,81.61 72.47,83.91 74.12,85.66 75.78,87.42 77.45,89.85 79.13,92.28 80.55,94.21 81.97,96.14 83.81,98.56 85.64,100.98 86.81,102.98 87.98,104.98 89.34,107.41 90.69,109.85 91.42,112.06 92.14,114.27 93.08,116.68 94.02,119.09 95.01,121.90 96.00,124.70 96.83,126.82 97.65,128.95 98.16,131.12 98.66,133.30 97.41,136.28 96.15,139.26 94.77,141.93 93.39,144.59 91.66,146.80 89.93,149.01 88.14,151.20 86.34,153.38 84.69,155.02 83.03,156.65 80.92,157.81 78.81,158.97 76.67,159.82 74.54,160.68 72.04,162.31 69.55,163.94 67.21,164.91 64.87,165.87 62.62,166.40 60.37,166.92 62.20,165.79 64.04,164.65 60.95,166.06 57.86,167.46 55.00,168.75 52.15,170.04 49.73,171.24 47.32,172.44 44.93,173.89 42.54,175.35 40.32,176.07 38.10,176.80 35.50,176.98 32.90,177.16 30.20,178.72 27.50,180.29 25.75,181.54 23.99,182.80 20.36,183.68 16.74,184.57 14.01,180.09 11.28,175.62 11.56,173.21 11.83,170.79 12.09,168.44 12.36,166.09 12.63,163.94 12.91,161.80 13.22,159.35 13.53,156.91 13.71,154.54 13.89,152.16 13.89,149.73 13.89,147.31 13.89,144.94 13.90,142.58 13.91,140.16 13.93,137.74 14.15,135.45 14.38,133.16 14.38,130.64 14.39,128.11 14.39,125.73 14.40,123.35 14.39,120.76 14.38,118.17 14.15,115.81 13.91,113.45 13.70,110.04 13.49,106.64 13.02,103.10 12.55,99.56 11.69,96.36 10.82,93.15 10.68,90.80 10.53,88.44 10.41,85.98 10.29,83.51 9.55,80.30 8.81,77.09 8.56,74.66 8.31,72.22 8.33,69.86 8.35,67.51 8.21,65.27 8.07,63.04 7.78,59.50 7.50,55.95 6.97,53.73 6.44,51.51 6.57,49.01 6.69,46.52 6.39,43.33 6.08,40.13 5.40,36.61 4.73,33.08 4.75,30.78 4.77,28.48 4.90,26.22 5.03,23.95 3.89,21.59 2.75,19.22 1.73,17.15 0.71,15.08 -0.02,12.69 -0.77,10.29 -1.59,7.90 -2.42,5.51 -3.23,4.27 -4.04,3.03 -4.35,2.50 -4.65,1.97 -4.82,1.39 -4.99,0.80 -5.02,0.19 -5.04,-0.41 -4.92,-1.00 -4.80,-1.60 -4.53,-2.15 -4.27,-2.70 -3.88,-3.18 -3.50,-3.65 -3.01,-4.02 -2.52,-4.38 -1.96,-4.62 -1.40,-4.86 -0.80,-4.96 -0.19,-5.05 0.40,-5.00 1.01,-4.95 1.59,-4.76 2.17,-4.57 2.69,-4.24 3.20,-3.91 3.62,-3.47 4.05,-3.03 4.04,-3.03 L 4.04,-3.03 Z"></path></g><g transform="translate(149.5573628022861 10) rotate(0 6.669921875 11.5)"><text x="0" y="18.400390625" font-family="Helvetica, Segoe UI Emoji" font-size="20px" fill="#1e1e1e" text-anchor="start" style="white-space: pre;" direction="ltr" dominant-baseline="alphabetic">A</text></g><g transform="translate(10 167.44213922467964) rotate(0 7.7783203125 11.5)"><text x="0" y="18.400390625" font-family="Helvetica, Segoe UI Emoji" font-size="20px" fill="#1e1e1e" text-anchor="start" style="white-space: pre;" direction="ltr" dominant-baseline="alphabetic">O</text></g><g transform="translate(287.621431334994 264.7899317106999) rotate(0 7.2216796875 11.5)"><text x="0" y="18.400390625" font-family="Helvetica, Segoe UI Emoji" font-size="20px" fill="#1e1e1e" text-anchor="start" style="white-space: pre;" direction="ltr" dominant-baseline="alphabetic">N</text></g><g transform="translate(275.77484255803745 178.77360937657272) rotate(0 6.669921875 11.5)"><text x="0" y="18.400390625" font-family="Helvetica, Segoe UI Emoji" font-size="20px" fill="#1e1e1e" text-anchor="start" style="white-space: pre;" direction="ltr" dominant-baseline="alphabetic">B</text></g><g transform="translate(170.70105662675712 229.25028326943402) rotate(0 7.2216796875 11.5)"><text x="0" y="18.400390625" font-family="Helvetica, Segoe UI Emoji" font-size="20px" fill="#1e1e1e" text-anchor="start" style="white-space: pre;" direction="ltr" dominant-baseline="alphabetic">C</text></g><g transform="translate(339.12816564357615 170.53255625105112) rotate(0 8.330078125 11.5)"><text x="0" y="18.400390625" font-family="Helvetica, Segoe UI Emoji" font-size="20px" fill="#1e1e1e" text-anchor="start" style="white-space: pre;" direction="ltr" dominant-baseline="alphabetic">M</text></g><g transform="translate(168.64081790571072 128.2970337250482) rotate(0 5.5615234375 11.5)"><text x="0" y="18.400390625" font-family="Helvetica, Segoe UI Emoji" font-size="20px" fill="#1e1e1e" text-anchor="start" style="white-space: pre;" direction="ltr" dominant-baseline="alphabetic">b</text></g><g transform="translate(232.50920067151162 201.95166830542257) rotate(0 5.5615234375 11.5)"><text x="0" y="18.400390625" font-family="Helvetica, Segoe UI Emoji" font-size="20px" fill="#1e1e1e" text-anchor="start" style="white-space: pre;" direction="ltr" dominant-baseline="alphabetic">a</text></g><g transform="translate(245.90094884098528 111.29978920067401) rotate(0 5 11.5)"><text x="0" y="18.400390625" font-family="Helvetica, Segoe UI Emoji" font-size="20px" fill="#1e1e1e" text-anchor="start" style="white-space: pre;" direction="ltr" dominant-baseline="alphabetic">c</text></g></svg>