<svg version="1.1" xmlns="http://www.w3.org/2000/svg" xmlns:xlink="http://www.w3.org/1999/xlink" width="569" height="411"><defs><clipPath id="aKHdvPzeXTLQ"><path fill="none" stroke="none" d=" M 0 0 L 569 0 L 569 411 L 0 411 L 0 0 Z"/></clipPath></defs><g transform="scale(1,1)" clip-path="url(#aKHdvPzeXTLQ)"><g><rect fill="rgb(255,255,255)" stroke="none" x="0" y="0" width="569" height="411" fill-opacity="1"/><path fill="rgb(21,101,192)" stroke="none" paint-order="stroke fill markers" fill-rule="evenodd" d=" M 140.09977654079677 196.06648305673966 L 325.29054245626446 235.34679544709343 L 341.06041234611826 145.37999569139865 L 221.53332886269277 276.04630009916804 Z" fill-opacity="0.09803921568627451"/><path fill="none" stroke="rgb(0,0,0)" paint-order="fill stroke markers" d=" M 345.17220519948796 174.29048355547312 C 345.17220519948796 231.5582020202737 298.74754671137435 277.98286050838743 241.47982824657396 277.98286050838743 C 184.2121097817735 277.98286050838743 137.78745129365996 231.5582020202737 137.78745129365996 174.29048355547312 C 137.78745129365996 117.02276509067252 184.2121097817735 70.59810660255881 241.47982824657396 70.59810660255881 C 298.74754671137435 70.59810660255881 345.17220519948796 117.02276509067252 345.17220519948796 174.29048355547312 Z" stroke-opacity="0.6980392156862745" stroke-linecap="round" stroke-linejoin="round" stroke-miterlimit="10" stroke-width="2.5"/><path fill="none" stroke="rgb(0,0,0)" paint-order="fill stroke markers" d=" M -5 322.3803688396751 L 574 319.1569588634303" stroke-opacity="0.6980392156862745" stroke-linecap="round" stroke-linejoin="round" stroke-miterlimit="10" stroke-width="2.5"/><path fill="none" stroke="rgb(224,116,21)" paint-order="fill stroke markers" d=" M 349.1293311596812 416 L 175.11405943043764 -5" stroke-opacity="0.6980392156862745" stroke-linecap="round" stroke-linejoin="round" stroke-miterlimit="10" stroke-width="2.5"/><text fill="rgb(224,116,21)" stroke="none" font-family="geogebra-sans-serif, sans-serif" font-size="16px" font-style="normal" font-weight="normal" text-decoration="normal" x="189" y="24" text-anchor="start" dominant-baseline="alphabetic" fill-opacity="1">v</text><path fill="none" stroke="rgb(180,179,186)" paint-order="fill stroke markers" d=" M 193.68423763697496 416 L 500.38377538414204 -5" stroke-opacity="0.6980392156862745" stroke-linecap="round" stroke-linejoin="round" stroke-miterlimit="10" stroke-width="2.5"/><path fill="none" stroke="rgb(180,179,186)" paint-order="fill stroke markers" d=" M -5 263.9198146740171 L 574 294.91408424314585" stroke-opacity="0.6980392156862745" stroke-linecap="round" stroke-linejoin="round" stroke-miterlimit="10" stroke-width="2.5"/><path fill="none" stroke="rgb(0,0,0)" paint-order="fill stroke markers" d=" M 32.45818259304576 322.1718315694464 L 247.0689903937597 70.74884794622778" stroke-opacity="0.6980392156862745" stroke-linecap="round" stroke-linejoin="round" stroke-miterlimit="10" stroke-width="2.5"/><path fill="none" stroke="rgb(0,0,0)" paint-order="fill stroke markers" d=" M 247.0689903937597 70.74884794622778 L 560.0153939978256 319.23481399037547" stroke-opacity="0.6980392156862745" stroke-linecap="round" stroke-linejoin="round" stroke-miterlimit="10" stroke-width="2.5"/><path fill="none" stroke="rgb(0,0,0)" paint-order="fill stroke markers" d=" M 251.15795961457675 320.95428572652116 L 247.0689903937597 70.74884794622778" stroke-opacity="0.6980392156862745" stroke-linecap="round" stroke-linejoin="round" stroke-miterlimit="10" stroke-width="2.5"/><path fill="none" stroke="rgb(0,0,0)" paint-order="fill stroke markers" d=" M 247.0689903937597 70.74884794622778 L 215.9231073397615 321.1504452676855" stroke-opacity="0.6980392156862745" stroke-linecap="round" stroke-linejoin="round" stroke-miterlimit="10" stroke-width="2.5"/><path fill="none" stroke="rgb(0,0,0)" paint-order="fill stroke markers" d=" M 247.0689903937597 70.74884794622778 L 365.67065303820334 320.31677042705934" stroke-opacity="0.6980392156862745" stroke-linecap="round" stroke-linejoin="round" stroke-miterlimit="10" stroke-width="2.5"/><path fill="none" stroke="rgb(180,179,186)" paint-order="fill stroke markers" d=" M 140.09977654079677 196.06648305673966 L 341.06041234611826 145.37999569139865" stroke-opacity="0.6980392156862745" stroke-linecap="round" stroke-linejoin="round" stroke-miterlimit="10" stroke-width="2.5"/><path fill="none" stroke="rgb(180,179,186)" paint-order="fill stroke markers" d=" M 140.09977654079677 196.06648305673966 L 310.1533328931738 321.7042803936726" stroke-opacity="0.6980392156862745" stroke-linecap="round" stroke-linejoin="round" stroke-miterlimit="10" stroke-width="2.5"/><path fill="none" stroke="rgb(180,179,186)" paint-order="fill stroke markers" d=" M 310.1533328931738 321.7042803936726 L 341.06041234611826 145.37999569139865" stroke-opacity="0.6980392156862745" stroke-linecap="round" stroke-linejoin="round" stroke-miterlimit="10" stroke-width="2.5"/><path fill="none" stroke="rgb(21,101,192)" paint-order="fill stroke markers" d=" M 140.09977654079677 196.06648305673966 L 325.29054245626446 235.34679544709343" stroke-opacity="0.6980392156862745" stroke-linecap="round" stroke-linejoin="round" stroke-miterlimit="10" stroke-width="2.5"/><path fill="none" stroke="rgb(21,101,192)" paint-order="fill stroke markers" d=" M 325.29054245626446 235.34679544709343 L 341.06041234611826 145.37999569139865" stroke-opacity="0.6980392156862745" stroke-linecap="round" stroke-linejoin="round" stroke-miterlimit="10" stroke-width="2.5"/><path fill="none" stroke="rgb(21,101,192)" paint-order="fill stroke markers" d=" M 341.06041234611826 145.37999569139865 L 221.53332886269277 276.04630009916804" stroke-opacity="0.6980392156862745" stroke-linecap="round" stroke-linejoin="round" stroke-miterlimit="10" stroke-width="2.5"/><path fill="none" stroke="rgb(21,101,192)" paint-order="fill stroke markers" d=" M 221.53332886269277 276.04630009916804 L 140.09977654079677 196.06648305673966" stroke-opacity="0.6980392156862745" stroke-linecap="round" stroke-linejoin="round" stroke-miterlimit="10" stroke-width="2.5"/><path fill="rgb(21,101,192)" stroke="none" paint-order="stroke fill markers" d=" M 37.45818259304576 322.1718315694464 C 37.45818259304576 324.93325531860035 35.219606342199725 327.1718315694464 32.45818259304576 327.1718315694464 C 29.696758843891796 327.1718315694464 27.458182593045763 324.93325531860035 27.458182593045763 322.1718315694464 C 27.458182593045763 319.41040782029245 29.696758843891796 317.1718315694464 32.45818259304576 317.1718315694464 C 35.219606342199725 317.1718315694464 37.45818259304576 319.41040782029245 37.45818259304576 322.1718315694464 Z" fill-opacity="1"/><path fill="none" stroke="rgb(0,0,0)" paint-order="fill stroke markers" d=" M 37.45818259304576 322.1718315694464 C 37.45818259304576 324.93325531860035 35.219606342199725 327.1718315694464 32.45818259304576 327.1718315694464 C 29.696758843891796 327.1718315694464 27.458182593045763 324.93325531860035 27.458182593045763 322.1718315694464 C 27.458182593045763 319.41040782029245 29.696758843891796 317.1718315694464 32.45818259304576 317.1718315694464 C 35.219606342199725 317.1718315694464 37.45818259304576 319.41040782029245 37.45818259304576 322.1718315694464 Z" stroke-opacity="1" stroke-linecap="round" stroke-linejoin="round" stroke-miterlimit="10"/><text fill="rgb(21,101,192)" stroke="none" font-family="geogebra-sans-serif, sans-serif" font-size="16px" font-style="normal" font-weight="normal" text-decoration="normal" x="24" y="349" text-anchor="start" dominant-baseline="alphabetic" fill-opacity="1">A</text><path fill="rgb(21,101,192)" stroke="none" paint-order="stroke fill markers" d=" M 565.0153939978256 319.23481399037547 C 565.0153939978256 321.9962377395294 562.7768177469796 324.23481399037547 560.0153939978256 324.23481399037547 C 557.2539702486716 324.23481399037547 555.0153939978256 321.9962377395294 555.0153939978256 319.23481399037547 C 555.0153939978256 316.4733902412215 557.2539702486716 314.23481399037547 560.0153939978256 314.23481399037547 C 562.7768177469796 314.23481399037547 565.0153939978256 316.4733902412215 565.0153939978256 319.23481399037547 Z" fill-opacity="1"/><path fill="none" stroke="rgb(0,0,0)" paint-order="fill stroke markers" d=" M 565.0153939978256 319.23481399037547 C 565.0153939978256 321.9962377395294 562.7768177469796 324.23481399037547 560.0153939978256 324.23481399037547 C 557.2539702486716 324.23481399037547 555.0153939978256 321.9962377395294 555.0153939978256 319.23481399037547 C 555.0153939978256 316.4733902412215 557.2539702486716 314.23481399037547 560.0153939978256 314.23481399037547 C 562.7768177469796 314.23481399037547 565.0153939978256 316.4733902412215 565.0153939978256 319.23481399037547 Z" stroke-opacity="1" stroke-linecap="round" stroke-linejoin="round" stroke-miterlimit="10"/><text fill="rgb(21,101,192)" stroke="none" font-family="geogebra-sans-serif, sans-serif" font-size="16px" font-style="normal" font-weight="normal" text-decoration="normal" x="551" y="344" text-anchor="start" dominant-baseline="alphabetic" fill-opacity="1">B</text><path fill="rgb(21,101,192)" stroke="none" paint-order="stroke fill markers" d=" M 220.9231073397615 321.1504452676855 C 220.9231073397615 323.91186901683943 218.68453108891546 326.1504452676855 215.9231073397615 326.1504452676855 C 213.1616835906075 326.1504452676855 210.9231073397615 323.91186901683943 210.9231073397615 321.1504452676855 C 210.9231073397615 318.38902151853154 213.1616835906075 316.1504452676855 215.9231073397615 316.1504452676855 C 218.68453108891546 316.1504452676855 220.9231073397615 318.38902151853154 220.9231073397615 321.1504452676855 Z" fill-opacity="1"/><path fill="none" stroke="rgb(0,0,0)" paint-order="fill stroke markers" d=" M 220.9231073397615 321.1504452676855 C 220.9231073397615 323.91186901683943 218.68453108891546 326.1504452676855 215.9231073397615 326.1504452676855 C 213.1616835906075 326.1504452676855 210.9231073397615 323.91186901683943 210.9231073397615 321.1504452676855 C 210.9231073397615 318.38902151853154 213.1616835906075 316.1504452676855 215.9231073397615 316.1504452676855 C 218.68453108891546 316.1504452676855 220.9231073397615 318.38902151853154 220.9231073397615 321.1504452676855 Z" stroke-opacity="1" stroke-linecap="round" stroke-linejoin="round" stroke-miterlimit="10"/><text fill="rgb(21,101,192)" stroke="none" font-family="geogebra-sans-serif, sans-serif" font-size="16px" font-style="normal" font-weight="normal" text-decoration="normal" x="204" y="345" text-anchor="start" dominant-baseline="alphabetic" fill-opacity="1">C</text><path fill="rgb(21,101,192)" stroke="none" paint-order="stroke fill markers" d=" M 370.67065303820334 320.31677042705934 C 370.67065303820334 323.0781941762133 368.4320767873573 325.31677042705934 365.67065303820334 325.31677042705934 C 362.9092292890494 325.31677042705934 360.67065303820334 323.0781941762133 360.67065303820334 320.31677042705934 C 360.67065303820334 317.5553466779054 362.9092292890494 315.31677042705934 365.67065303820334 315.31677042705934 C 368.4320767873573 315.31677042705934 370.67065303820334 317.5553466779054 370.67065303820334 320.31677042705934 Z" fill-opacity="1"/><path fill="none" stroke="rgb(0,0,0)" paint-order="fill stroke markers" d=" M 370.67065303820334 320.31677042705934 C 370.67065303820334 323.0781941762133 368.4320767873573 325.31677042705934 365.67065303820334 325.31677042705934 C 362.9092292890494 325.31677042705934 360.67065303820334 323.0781941762133 360.67065303820334 320.31677042705934 C 360.67065303820334 317.5553466779054 362.9092292890494 315.31677042705934 365.67065303820334 315.31677042705934 C 368.4320767873573 315.31677042705934 370.67065303820334 317.5553466779054 370.67065303820334 320.31677042705934 Z" stroke-opacity="1" stroke-linecap="round" stroke-linejoin="round" stroke-miterlimit="10"/><text fill="rgb(21,101,192)" stroke="none" font-family="geogebra-sans-serif, sans-serif" font-size="16px" font-style="normal" font-weight="normal" text-decoration="normal" x="366" y="344" text-anchor="start" dominant-baseline="alphabetic" fill-opacity="1">D</text><path fill="rgb(21,101,192)" stroke="none" paint-order="stroke fill markers" d=" M 256.1579596145767 320.95428572652116 C 256.1579596145767 323.7157094756751 253.91938336373073 325.95428572652116 251.15795961457675 325.95428572652116 C 248.39653586542278 325.95428572652116 246.15795961457675 323.7157094756751 246.15795961457675 320.95428572652116 C 246.15795961457675 318.1928619773672 248.39653586542278 315.95428572652116 251.15795961457675 315.95428572652116 C 253.91938336373073 315.95428572652116 256.1579596145767 318.1928619773672 256.1579596145767 320.95428572652116 Z" fill-opacity="1"/><path fill="none" stroke="rgb(0,0,0)" paint-order="fill stroke markers" d=" M 256.1579596145767 320.95428572652116 C 256.1579596145767 323.7157094756751 253.91938336373073 325.95428572652116 251.15795961457675 325.95428572652116 C 248.39653586542278 325.95428572652116 246.15795961457675 323.7157094756751 246.15795961457675 320.95428572652116 C 246.15795961457675 318.1928619773672 248.39653586542278 315.95428572652116 251.15795961457675 315.95428572652116 C 253.91938336373073 315.95428572652116 256.1579596145767 318.1928619773672 256.1579596145767 320.95428572652116 Z" stroke-opacity="1" stroke-linecap="round" stroke-linejoin="round" stroke-miterlimit="10"/><text fill="rgb(21,101,192)" stroke="none" font-family="geogebra-sans-serif, sans-serif" font-size="16px" font-style="normal" font-weight="normal" text-decoration="normal" x="239" y="346" text-anchor="start" dominant-baseline="alphabetic" fill-opacity="1">E</text><path fill="rgb(21,101,192)" stroke="none" paint-order="stroke fill markers" d=" M 252.0689903937597 70.74884794622778 C 252.0689903937597 73.51027169538175 249.83041414291367 75.74884794622778 247.0689903937597 75.74884794622778 C 244.3075666446057 75.74884794622778 242.0689903937597 73.51027169538175 242.0689903937597 70.74884794622778 C 242.0689903937597 67.98742419707382 244.3075666446057 65.74884794622778 247.0689903937597 65.74884794622778 C 249.83041414291367 65.74884794622778 252.0689903937597 67.98742419707382 252.0689903937597 70.74884794622778 Z" fill-opacity="1"/><path fill="none" stroke="rgb(0,0,0)" paint-order="fill stroke markers" d=" M 252.0689903937597 70.74884794622778 C 252.0689903937597 73.51027169538175 249.83041414291367 75.74884794622778 247.0689903937597 75.74884794622778 C 244.3075666446057 75.74884794622778 242.0689903937597 73.51027169538175 242.0689903937597 70.74884794622778 C 242.0689903937597 67.98742419707382 244.3075666446057 65.74884794622778 247.0689903937597 65.74884794622778 C 249.83041414291367 65.74884794622778 252.0689903937597 67.98742419707382 252.0689903937597 70.74884794622778 Z" stroke-opacity="1" stroke-linecap="round" stroke-linejoin="round" stroke-miterlimit="10"/><text fill="rgb(21,101,192)" stroke="none" font-family="geogebra-sans-serif, sans-serif" font-size="16px" font-style="normal" font-weight="normal" text-decoration="normal" x="251" y="61" text-anchor="start" dominant-baseline="alphabetic" fill-opacity="1">S</text><path fill="rgb(110,109,115)" stroke="none" paint-order="stroke fill markers" d=" M 145.09977654079677 196.06648305673966 C 145.09977654079677 198.82790680589363 142.86120028995074 201.06648305673966 140.09977654079677 201.06648305673966 C 137.3383527916428 201.06648305673966 135.09977654079677 198.82790680589363 135.09977654079677 196.06648305673966 C 135.09977654079677 193.30505930758568 137.3383527916428 191.06648305673966 140.09977654079677 191.06648305673966 C 142.86120028995074 191.06648305673966 145.09977654079677 193.30505930758568 145.09977654079677 196.06648305673966 Z" fill-opacity="1"/><path fill="none" stroke="rgb(0,0,0)" paint-order="fill stroke markers" d=" M 145.09977654079677 196.06648305673966 C 145.09977654079677 198.82790680589363 142.86120028995074 201.06648305673966 140.09977654079677 201.06648305673966 C 137.3383527916428 201.06648305673966 135.09977654079677 198.82790680589363 135.09977654079677 196.06648305673966 C 135.09977654079677 193.30505930758568 137.3383527916428 191.06648305673966 140.09977654079677 191.06648305673966 C 142.86120028995074 191.06648305673966 145.09977654079677 193.30505930758568 145.09977654079677 196.06648305673966 Z" stroke-opacity="1" stroke-linecap="round" stroke-linejoin="round" stroke-miterlimit="10"/><text fill="rgb(110,109,115)" stroke="none" font-family="geogebra-sans-serif, sans-serif" font-size="16px" font-style="normal" font-weight="normal" text-decoration="normal" x="113" y="202" text-anchor="start" dominant-baseline="alphabetic" fill-opacity="1">A'</text><path fill="rgb(110,109,115)" stroke="none" paint-order="stroke fill markers" d=" M 346.06041234611826 145.37999569139865 C 346.06041234611826 148.14141944055262 343.8218360952722 150.37999569139865 341.06041234611826 150.37999569139865 C 338.2989885969643 150.37999569139865 336.06041234611826 148.14141944055262 336.06041234611826 145.37999569139865 C 336.06041234611826 142.61857194224467 338.2989885969643 140.37999569139865 341.06041234611826 140.37999569139865 C 343.8218360952722 140.37999569139865 346.06041234611826 142.61857194224467 346.06041234611826 145.37999569139865 Z" fill-opacity="1"/><path fill="none" stroke="rgb(0,0,0)" paint-order="fill stroke markers" d=" M 346.06041234611826 145.37999569139865 C 346.06041234611826 148.14141944055262 343.8218360952722 150.37999569139865 341.06041234611826 150.37999569139865 C 338.2989885969643 150.37999569139865 336.06041234611826 148.14141944055262 336.06041234611826 145.37999569139865 C 336.06041234611826 142.61857194224467 338.2989885969643 140.37999569139865 341.06041234611826 140.37999569139865 C 343.8218360952722 140.37999569139865 346.06041234611826 142.61857194224467 346.06041234611826 145.37999569139865 Z" stroke-opacity="1" stroke-linecap="round" stroke-linejoin="round" stroke-miterlimit="10"/><text fill="rgb(110,109,115)" stroke="none" font-family="geogebra-sans-serif, sans-serif" font-size="16px" font-style="normal" font-weight="normal" text-decoration="normal" x="358" y="149" text-anchor="start" dominant-baseline="alphabetic" fill-opacity="1">B'</text><path fill="rgb(110,109,115)" stroke="none" paint-order="stroke fill markers" d=" M 226.53332886269277 276.04630009916804 C 226.53332886269277 278.807723848322 224.29475261184675 281.04630009916804 221.53332886269277 281.04630009916804 C 218.7719051135388 281.04630009916804 216.53332886269277 278.807723848322 216.53332886269277 276.04630009916804 C 216.53332886269277 273.2848763500141 218.7719051135388 271.04630009916804 221.53332886269277 271.04630009916804 C 224.29475261184675 271.04630009916804 226.53332886269277 273.2848763500141 226.53332886269277 276.04630009916804 Z" fill-opacity="1"/><path fill="none" stroke="rgb(0,0,0)" paint-order="fill stroke markers" d=" M 226.53332886269277 276.04630009916804 C 226.53332886269277 278.807723848322 224.29475261184675 281.04630009916804 221.53332886269277 281.04630009916804 C 218.7719051135388 281.04630009916804 216.53332886269277 278.807723848322 216.53332886269277 276.04630009916804 C 216.53332886269277 273.2848763500141 218.7719051135388 271.04630009916804 221.53332886269277 271.04630009916804 C 224.29475261184675 271.04630009916804 226.53332886269277 273.2848763500141 226.53332886269277 276.04630009916804 Z" stroke-opacity="1" stroke-linecap="round" stroke-linejoin="round" stroke-miterlimit="10"/><text fill="rgb(110,109,115)" stroke="none" font-family="geogebra-sans-serif, sans-serif" font-size="16px" font-style="normal" font-weight="normal" text-decoration="normal" x="198" y="296" text-anchor="start" dominant-baseline="alphabetic" fill-opacity="1">C'</text><path fill="rgb(110,109,115)" stroke="none" paint-order="stroke fill markers" d=" M 255.4493496042619 277.59419464447154 C 255.4493496042619 280.3556183936255 253.21077335341587 282.59419464447154 250.4493496042619 282.59419464447154 C 247.68792585510792 282.59419464447154 245.4493496042619 280.3556183936255 245.4493496042619 277.59419464447154 C 245.4493496042619 274.8327708953176 247.68792585510792 272.59419464447154 250.4493496042619 272.59419464447154 C 253.21077335341587 272.59419464447154 255.4493496042619 274.8327708953176 255.4493496042619 277.59419464447154 Z" fill-opacity="1"/><path fill="none" stroke="rgb(0,0,0)" paint-order="fill stroke markers" d=" M 255.4493496042619 277.59419464447154 C 255.4493496042619 280.3556183936255 253.21077335341587 282.59419464447154 250.4493496042619 282.59419464447154 C 247.68792585510792 282.59419464447154 245.4493496042619 280.3556183936255 245.4493496042619 277.59419464447154 C 245.4493496042619 274.8327708953176 247.68792585510792 272.59419464447154 250.4493496042619 272.59419464447154 C 253.21077335341587 272.59419464447154 255.4493496042619 274.8327708953176 255.4493496042619 277.59419464447154 Z" stroke-opacity="1" stroke-linecap="round" stroke-linejoin="round" stroke-miterlimit="10"/><text fill="rgb(110,109,115)" stroke="none" font-family="geogebra-sans-serif, sans-serif" font-size="16px" font-style="normal" font-weight="normal" text-decoration="normal" x="231" y="301" text-anchor="start" dominant-baseline="alphabetic" fill-opacity="1">E'</text><path fill="rgb(110,109,115)" stroke="none" paint-order="stroke fill markers" d=" M 330.29054245626446 235.34679544709343 C 330.29054245626446 238.1082191962474 328.0519662054184 240.34679544709343 325.29054245626446 240.34679544709343 C 322.5291187071105 240.34679544709343 320.29054245626446 238.1082191962474 320.29054245626446 235.34679544709343 C 320.29054245626446 232.58537169793945 322.5291187071105 230.34679544709343 325.29054245626446 230.34679544709343 C 328.0519662054184 230.34679544709343 330.29054245626446 232.58537169793945 330.29054245626446 235.34679544709343 Z" fill-opacity="1"/><path fill="none" stroke="rgb(0,0,0)" paint-order="fill stroke markers" d=" M 330.29054245626446 235.34679544709343 C 330.29054245626446 238.1082191962474 328.0519662054184 240.34679544709343 325.29054245626446 240.34679544709343 C 322.5291187071105 240.34679544709343 320.29054245626446 238.1082191962474 320.29054245626446 235.34679544709343 C 320.29054245626446 232.58537169793945 322.5291187071105 230.34679544709343 325.29054245626446 230.34679544709343 C 328.0519662054184 230.34679544709343 330.29054245626446 232.58537169793945 330.29054245626446 235.34679544709343 Z" stroke-opacity="1" stroke-linecap="round" stroke-linejoin="round" stroke-miterlimit="10"/><text fill="rgb(110,109,115)" stroke="none" font-family="geogebra-sans-serif, sans-serif" font-size="16px" font-style="normal" font-weight="normal" text-decoration="normal" x="341" y="241" text-anchor="start" dominant-baseline="alphabetic" fill-opacity="1">D'</text><path fill="rgb(110,109,115)" stroke="none" paint-order="stroke fill markers" d=" M 274.57370176897535 223.5288470910761 C 274.57370176897535 226.29027084023008 272.3351255181293 228.5288470910761 269.57370176897535 228.5288470910761 C 266.8122780198214 228.5288470910761 264.57370176897535 226.29027084023008 264.57370176897535 223.5288470910761 C 264.57370176897535 220.76742334192213 266.8122780198214 218.5288470910761 269.57370176897535 218.5288470910761 C 272.3351255181293 218.5288470910761 274.57370176897535 220.76742334192213 274.57370176897535 223.5288470910761 Z" fill-opacity="1"/><path fill="none" stroke="rgb(0,0,0)" paint-order="fill stroke markers" d=" M 274.57370176897535 223.5288470910761 C 274.57370176897535 226.29027084023008 272.3351255181293 228.5288470910761 269.57370176897535 228.5288470910761 C 266.8122780198214 228.5288470910761 264.57370176897535 226.29027084023008 264.57370176897535 223.5288470910761 C 264.57370176897535 220.76742334192213 266.8122780198214 218.5288470910761 269.57370176897535 218.5288470910761 C 272.3351255181293 218.5288470910761 274.57370176897535 220.76742334192213 274.57370176897535 223.5288470910761 Z" stroke-opacity="1" stroke-linecap="round" stroke-linejoin="round" stroke-miterlimit="10"/><text fill="rgb(110,109,115)" stroke="none" font-family="geogebra-sans-serif, sans-serif" font-size="16px" font-style="normal" font-weight="normal" text-decoration="normal" x="268" y="209" text-anchor="start" dominant-baseline="alphabetic" fill-opacity="1">G</text><path fill="rgb(110,109,115)" stroke="none" paint-order="stroke fill markers" d=" M 315.1533328931738 321.7042803936726 C 315.1533328931738 324.46570414282655 312.91475664232775 326.7042803936726 310.1533328931738 326.7042803936726 C 307.39190914401985 326.7042803936726 305.1533328931738 324.46570414282655 305.1533328931738 321.7042803936726 C 305.1533328931738 318.94285664451866 307.39190914401985 316.7042803936726 310.1533328931738 316.7042803936726 C 312.91475664232775 316.7042803936726 315.1533328931738 318.94285664451866 315.1533328931738 321.7042803936726 Z" fill-opacity="1"/><path fill="none" stroke="rgb(0,0,0)" paint-order="fill stroke markers" d=" M 315.1533328931738 321.7042803936726 C 315.1533328931738 324.46570414282655 312.91475664232775 326.7042803936726 310.1533328931738 326.7042803936726 C 307.39190914401985 326.7042803936726 305.1533328931738 324.46570414282655 305.1533328931738 321.7042803936726 C 305.1533328931738 318.94285664451866 307.39190914401985 316.7042803936726 310.1533328931738 316.7042803936726 C 312.91475664232775 316.7042803936726 315.1533328931738 318.94285664451866 315.1533328931738 321.7042803936726 Z" stroke-opacity="1" stroke-linecap="round" stroke-linejoin="round" stroke-miterlimit="10"/><text fill="rgb(110,109,115)" stroke="none" font-family="geogebra-sans-serif, sans-serif" font-size="16px" font-style="normal" font-weight="normal" text-decoration="normal" x="314" y="312" text-anchor="start" dominant-baseline="alphabetic" fill-opacity="1">H</text></g></g></svg>