<svg version="1.1" xmlns="http://www.w3.org/2000/svg" xmlns:xlink="http://www.w3.org/1999/xlink" width="496" height="312"><defs><clipPath id="fCTtnuRutSrS"><path fill="none" stroke="none" d=" M 0 0 L 496 0 L 496 312 L 0 312 L 0 0 Z"/></clipPath></defs><g transform="scale(1,1)" clip-path="url(#fCTtnuRutSrS)"><g><rect fill="transparent" stroke="none" x="0" y="0" width="496" height="312" fill-opacity="1"/><path fill="rgb(21,101,192)" stroke="none" paint-order="stroke fill markers" fill-rule="evenodd" d=" M 173.06413223140495 174.89909090909111 L 223.47735537190079 276.55198347107444 L 397.03107438016525 275.7255371900827 L 348.2707438016529 175.72553719008283 Z" fill-opacity="0.09803921568627451"/><path fill="rgb(0,0,0)" stroke="none" paint-order="stroke fill markers" d=" M 299.3053552883967 196.69882193675602 C 296.5534772715322 195.8704706294331 293.69685167943726 195.44183033696123 290.8230477190617 195.42604092988648 L 290.658222605917 225.4255881378374 Z" fill-opacity="0.09803921568627451"/><path fill="none" stroke="rgb(0,0,0)" paint-order="fill stroke markers" d=" M 299.3053552883967 196.69882193675602 C 296.5534772715322 195.8704706294331 293.69685167943726 195.44183033696123 290.8230477190617 195.42604092988648 L 290.658222605917 225.4255881378374 Z" stroke-opacity="0.6" stroke-linecap="round" stroke-linejoin="round" stroke-miterlimit="10" stroke-width="2.5"/><path fill="none" stroke="rgb(211,47,47)" paint-order="fill stroke markers" d=" M -6.294170292541921 299.26418481031703 L 1.7353142260551948 297.7295680593558 L 9.851920301829693 296.1949513083945 L 18.047233001049932 294.6603345574333 L 26.312545393854478 293.12571780647204 L 34.63886120609921 291.59110105551076 L 43.0168982032785 290.05648430454954 L 51.43709233861471 288.52186755358827 L 59.88960269738729 286.98725080262705 L 68.36431726940157 285.4526340516658 L 76.85085958122434 283.91801730070455 L 85.33859621941207 282.3834005497433 L 93.8166452754193 280.84878379878205 L 102.27388574219921 279.3141670478208 L 110.69896789167211 277.77955029685955 L 119.08032466125299 276.2449335458983 L 127.40618407645249 274.71031679493706 L 135.66458273524802 273.1757000439758 L 143.8433803783636 271.64108329301456 L 151.9302755678938 270.1064665420533 L 159.91282249475609 268.57184979109206 L 167.77844893331596 267.03723304013084 L 175.51447535914622 265.50261628916957 L 183.10813524328117 263.96799953820835 L 190.54659653346624 262.433382787247 L 197.81698432981176 260.89876603628585 L 204.90640475890092 259.3641492853246 L 211.80197004676512 257.8295325343633 L 218.49082478727198 256.2949157834021 L 224.96017339827193 254.7602990324408 L 231.19730875341733 253.22568228147958 L 237.18964197281525 251.69106553051836 L 242.92473335065435 250.15644877955708 L 248.3903243926189 248.62183202859586 L 253.57437093029463 247.08721527763458 L 258.46507727386347 245.5525985266733 L 267.32074083090686 242.4833650247508 L 274.86927774646614 239.4141315228283 L 281.02896827178415 236.34489802090582 L 285.72565272183016 233.27566451898338 L 287.50457420548173 231.74104776802204 L 288.8940106002514 230.20643101706088 L 289.887391777473 228.67181426609955 L 290.2337031361467 227.90450589061896 L 290.4788635414643 227.13719751513838 L 290.6222598015096 226.36988913965774 L 290.6633285747391 225.6025807641771 L 290.60155763232603 224.83527238869647 L 290.4364871125889 224.06796401321583 L 290.1677107661957 223.3006556377352 L 289.7948771908033 222.5333472622546 L 288.735914301433 220.99873051129333 L 287.2579302827039 219.4641137603321 L 285.3602112604983 217.9294970093709 L 280.3077036201771 214.86026350744834 L 273.5931294736937 211.79103000552584 L 265.24869302670663 208.72179650360334 L 255.32499095888102 205.65256300168085 L 249.79194903460711 204.11794625071963 L 243.8917818346219 202.58332949975835 L 237.6362987051136 201.04871274879713 L 231.03856750525492 199.5140959978359 L 224.1129202337371 197.97947924687458 L 216.87495445286095 196.4448624959134 L 209.34153025652054 194.91024574495208 L 201.5307625314823 193.37562899399092 L 193.46200826591695 191.84101224302964 L 185.15584866539365 190.30639549206836 L 176.6340658444792 188.77177874110714 L 167.91961387192868 187.23716199014586 L 159.03658395920104 185.70254523918464 L 150.0101635958688 184.16792848822342 L 140.86658945145086 182.63331173726215 L 131.63309388142648 181.09869498630087 L 122.33784489571242 179.56407823533965 L 113.0098794708362 178.02946148437837 L 103.67903011246578 176.49484473341715 L 94.37584460288183 174.96022798245588 L 85.1314988985421 173.42561123149466 L 75.97770317599068 171.89099448053338 M 75.97770317599068 171.89099448053338 L 66.94660106017568 170.35637772957216 L 58.07066210761778 168.82176097861088 L 49.382567657910954 167.28714422764966 L 40.915090210633934 165.75252747668844 L 32.7009665308816 164.21791072572717 L 24.77276473517621 162.6832939747659 L 17.16274566042283 161.1486772238046 L 9.902718871643216 159.6140604728434 L 3.0238937193384317 158.07944372188217 L -3.4432740857450455 156.5448269709209 L -9.46923985412991 155.01021021995967 M -6.813877410875818 124.3178752007347 L -0.07104965503287985 122.78325844977343 L 7.216198085362706 121.24864169881221 L 15.016535018952908 119.71402494785093 L 23.29512143974405 118.17940819688971 L 32.01367758683145 116.64479144592849 L 41.130577189522214 115.11017469496721 L 50.60096656358839 113.57555794400594 L 60.376909996180125 112.04094119304466 L 65.36368366687552 111.27363281756408 L 70.407562012178 110.50632444208344 L 75.50176744024039 109.73901606660286 L 80.63936695323852 108.97170769112216 L 85.81327989371543 108.20439931564152 L 91.016286122412 107.43709094016094 L 96.24103462597283 106.66978256468036 L 101.48005255202395 105.90247418919972 L 106.72575466820392 105.13516581371903 L 111.97045324077473 104.36785743823845 L 117.20636832745895 103.6005490627578 L 122.42563847813469 102.83324068727723 L 127.62033183600117 102.06593231179659 L 132.78245763073787 101.29862393631595 L 137.90397805412596 100.53131556083531 L 142.97682050745775 99.76400718535467 L 152.94408314826148 98.22939043439351 L 162.6194565981653 96.69477368343217 L 171.938436933189 95.16015693247095 L 180.83725450211955 93.62554018150968 L 189.25334003819086 92.09092343054846 L 197.1258049810342 90.55630667958724 L 204.3959330341474 89.02168992862596 L 211.00767966975621 87.48707317766474 L 216.9081759846344 85.95245642670346 L 226.38284229870476 82.88322292478097 L 232.4795279782266 79.81398942285847 L 232.9902470559138 79.43033523511815 L 234.17685233756202 78.27937267189719 L 234.6764671418055 77.51206429641661 L 234.9401253914465 76.74475592093597 L 234.96590073526966 75.97744754545539 L 234.75229465995807 75.2101391699747 L 234.2982473990826 74.44283079449406 L 233.60314818916243 73.67552241901348 L 232.66684482993395 72.9082140435329 L 231.48965250610752 72.14090566805226 L 228.41624604999515 70.60628891709098 L 219.4462196312759 67.53705541516848 L 213.59774559913407 66.0024386642072 L 206.88584257529186 64.46782191324604 L 199.35477822920052 62.93320516228471 L 191.05682372211874 61.398588411323544 L 182.05209345032625 59.86397166036221 L 172.40830343255726 58.32935490940105 L 167.36992247436038 57.56204653392035 L 162.2004457262084 56.79473815843977 L 156.9103165737228 56.02742978295913 L 151.5103769686269 55.26012140747844 L 146.011849805029 54.492813031997855 L 140.4263199336365 53.72550465651727 L 134.76571382132676 52.95819628103669 L 129.0422778674717 52.190887905555996 L 123.2685553925732 51.42357953007536 L 117.45736231899656 50.65627115459472 L 111.62176156800118 49.888962779114195 L 105.77503620171922 49.12165440363344 L 99.93066134335085 48.35434602815292 L 94.10227491348915 47.58703765267228 L 88.30364722527975 46.81972927719153 L 82.5486494859224 46.052420901711 L 76.85122125689614 45.285112526230364 L 71.22533693023564 44.517804150749726 L 65.68497128311914 43.75049577526909 L 60.244064177974074 42.98318739978845 L 54.91648448031127 42.215879024307924 L 49.71599327138148 41.448570648827285 L 39.75055672422435 39.91395389786601 L 30.45425323349049 38.37933714690473 L 21.929415157698656 36.84472039594357 L 14.272960369067164 35.31010364498218 L 7.575142213678745 33.775486894021014 L 1.9183123538661135 32.24087014305974 L -2.6242878027609606 30.706253392098574 L -5.989690587024441 29.171636641137297 M -5.484182989878576 22.265861261811665 L -3.8054487420999834 21.498552886331026 L 6.07978658706314 18.429319384408473 L 12.847616219808359 16.89470263344731 L 20.749829488114685 15.360085882486032 L 29.705028739532764 13.82546913152487 L 39.61664173943447 12.290852380563479 L 44.89693508072574 11.523544005082954 L 50.373590128946596 10.756235629602202 L 56.0306028238143 9.988927254121677 L 61.851187361772205 9.221618878641038 L 67.8178168865712 8.4543105031604 L 73.91226774000225 7.687002127679875 L 80.11566722390914 6.919693752199123 L 86.40854480952844 6.152385376718598 L 92.77088671478357 5.38507700123796 L 99.18219375432939 4.617768625757208 L 105.62154235109261 3.850460250276683 L 112.0676485817673 3.0831518747960445 L 118.49893511220365 2.315843499315406 L 124.89360086208974 1.5485351238347675 L 131.22969322169246 0.7812267483541291 L 137.48518262680307 0.013918372873604312 L 143.6380392815792 -0.7533900026070341 L 149.66631180263903 -1.5206983780876726 L 155.54820754170962 -2.288006753568311 L 161.2621743284505 -3.0553151290489495 L 166.78698335975918 -3.822623504529588 L 172.1018129471406 -4.5899318800102265 L 182.02078866579143 -6.124548630971503 M 181.73951254447755 -10.000000000000002" stroke-opacity="0.8" stroke-linecap="round" stroke-linejoin="round" stroke-miterlimit="10" stroke-width="2.5"/><path fill="none" stroke="rgb(21,101,192)" paint-order="fill stroke markers" d=" M 173.06413223140495 174.89909090909111 L 223.47735537190079 276.55198347107444" stroke-opacity="0.6980392156862745" stroke-linecap="round" stroke-linejoin="round" stroke-miterlimit="10" stroke-width="2.5"/><path fill="none" stroke="rgb(21,101,192)" paint-order="fill stroke markers" d=" M 223.47735537190079 276.55198347107444 L 397.03107438016525 275.7255371900827" stroke-opacity="0.6980392156862745" stroke-linecap="round" stroke-linejoin="round" stroke-miterlimit="10" stroke-width="2.5"/><path fill="none" stroke="rgb(21,101,192)" paint-order="fill stroke markers" d=" M 397.03107438016525 275.7255371900827 L 348.2707438016529 175.72553719008283" stroke-opacity="0.6980392156862745" stroke-linecap="round" stroke-linejoin="round" stroke-miterlimit="10" stroke-width="2.5"/><path fill="none" stroke="rgb(21,101,192)" paint-order="fill stroke markers" d=" M 348.2707438016529 175.72553719008283 L 173.06413223140495 174.89909090909111" stroke-opacity="0.6980392156862745" stroke-linecap="round" stroke-linejoin="round" stroke-miterlimit="10" stroke-width="2.5"/><path fill="rgb(0,0,0)" stroke="none" paint-order="stroke fill markers" d=" M 291.26045249641413 115.81471825694877 L 286.9171157445058 132.79111145042546 L 289.917070465303 132.80759396173994 L 289.91707046530087 132.80759396173994 L 289.40824147225237 225.4187204247897 C 289.4044485390699 226.10906594248888 289.96100937517014 226.67177633831957 290.65135489286934 226.675569271502 C 290.6536943222843 226.67558212491994 290.6560322859588 226.67558854332867 290.65836876710904 226.67558854332867 C 291.3455077960644 226.67558854332867 291.9044236598171 226.1204619391693 291.9082037395816 225.43245585088508 L 292.4170327326301 132.82132938783533 L 292.4170327326331 132.82132938783533 L 295.4169874534252 132.83781189914978 L 291.26045249641413 115.81471825694877 Z" fill-opacity="0.6980392156862745"/><g transform="scale(19,19)"><g transform="translate(13.842105263157896,5.697368421052632)"><path fill="rgb(0,0,0)" stroke="none" paint-order="stroke fill markers" d=" M 0.281 -0.659 L 0.222 -0.42 Q 0.274 -0.452 0.331 -0.452 Q 0.403 -0.452 0.4545 -0.41200000000000003 Q 0.506 -0.372 0.506 -0.28700000000000003 Q 0.506 -0.23700000000000002 0.4865 -0.1855 Q 0.467 -0.134 0.4325 -0.0905 Q 0.398 -0.047 0.3425 -0.0195 Q 0.28700000000000003 0.008 0.222 0.008 Q 0.154 0.008 0.10300000000000001 -0.03 Q 0.052000000000000005 -0.068 0.052000000000000005 -0.155 Q 0.052000000000000005 -0.19 0.066 -0.246 L 0.135 -0.522 Q 0.14400000000000002 -0.556 0.163 -0.637 Q 0.15 -0.639 0.121 -0.639 Q 0.095 -0.639 0.095 -0.657 Q 0.095 -0.67 0.101 -0.677 Q 0.107 -0.684 0.112 -0.685 Q 0.117 -0.686 0.127 -0.687 L 0.256 -0.6930000000000001 Q 0.258 -0.6940000000000001 0.263 -0.6940000000000001 Q 0.28500000000000003 -0.6940000000000001 0.28500000000000003 -0.676 Q 0.28500000000000003 -0.673 0.281 -0.659 M 0.224 -0.028 Q 0.253 -0.028 0.28650000000000003 -0.05 Q 0.32 -0.07200000000000001 0.343 -0.126 Q 0.357 -0.16 0.375 -0.232 Q 0.393 -0.304 0.393 -0.34 Q 0.393 -0.41600000000000004 0.326 -0.41600000000000004 Q 0.28500000000000003 -0.41600000000000004 0.2465 -0.3905 Q 0.20800000000000002 -0.365 0.203 -0.34800000000000003 Q 0.187 -0.279 0.169 -0.211 Q 0.152 -0.136 0.152 -0.111 Q 0.152 -0.028 0.224 -0.028 Z"/></g><g transform="translate(14.363105263157896,5.697368421052632)"><path fill="rgb(0,0,0)" stroke="none" paint-order="stroke fill markers" d=" M 0.331 0.24 L 0.331 0.24 Q 0.331 0.25 0.321 0.25 Q 0.309 0.25 0.268 0.209 Q 0.20600000000000002 0.147 0.165 0.062 Q 0.099 -0.074 0.099 -0.25 Q 0.099 -0.419 0.162 -0.555 Q 0.214 -0.666 0.294 -0.733 Q 0.315 -0.75 0.321 -0.75 Q 0.331 -0.75 0.331 -0.74 Q 0.331 -0.735 0.318 -0.723 Q 0.157 -0.559 0.157 -0.25 Q 0.157 0.058 0.314 0.218 Q 0.331 0.23500000000000001 0.331 0.24 Z"/></g><g transform="translate(14.752105263157896,5.697368421052632)"><path fill="rgb(0,0,0)" stroke="none" paint-order="stroke fill markers" d=" M 0.391 -0.374 L 0.391 -0.374 Q 0.37 -0.418 0.301 -0.42 Q 0.22 -0.42 0.195 -0.359 Q 0.189 -0.34400000000000003 0.189 -0.33 Q 0.189 -0.291 0.23700000000000002 -0.277 L 0.23700000000000002 -0.277 L 0.23800000000000002 -0.276 Q 0.245 -0.274 0.265 -0.27 Q 0.327 -0.257 0.34800000000000003 -0.242 Q 0.357 -0.23600000000000002 0.365 -0.228 Q 0.396 -0.197 0.396 -0.155 Q 0.396 -0.10300000000000001 0.357 -0.056 Q 0.301 0.011 0.195 0.011 Q 0.10200000000000001 0.011 0.066 -0.041 Q 0.052000000000000005 -0.061 0.052000000000000005 -0.08600000000000001 Q 0.052000000000000005 -0.135 0.09 -0.149 Q 0.099 -0.152 0.108 -0.152 Q 0.14100000000000001 -0.147 0.145 -0.117 Q 0.145 -0.08600000000000001 0.11800000000000001 -0.07100000000000001 Q 0.10200000000000001 -0.061 0.082 -0.064 Q 0.105 -0.011 0.196 -0.011 Q 0.299 -0.011 0.331 -0.08600000000000001 Q 0.339 -0.105 0.339 -0.121 Q 0.339 -0.169 0.28 -0.187 L 0.28 -0.187 L 0.279 -0.187 Q 0.264 -0.191 0.23500000000000001 -0.197 Q 0.145 -0.216 0.134 -0.277 Q 0.132 -0.28600000000000003 0.132 -0.296 Q 0.132 -0.34600000000000003 0.17 -0.389 Q 0.217 -0.442 0.301 -0.442 Q 0.38 -0.442 0.41000000000000003 -0.393 Q 0.42 -0.376 0.42 -0.356 Q 0.42 -0.311 0.386 -0.302 Q 0.38 -0.3 0.374 -0.3 Q 0.34600000000000003 -0.304 0.343 -0.329 Q 0.343 -0.356 0.37 -0.369 Q 0.38 -0.374 0.391 -0.374 Z"/></g><g transform="translate(15.221105263157895,5.697368421052632)"><path fill="rgb(0,0,0)" stroke="none" paint-order="stroke fill markers" d=" M 0.289 -0.25 L 0.289 -0.25 Q 0.289 -0.081 0.226 0.055 Q 0.17400000000000002 0.166 0.094 0.233 Q 0.073 0.25 0.067 0.25 Q 0.057 0.25 0.057 0.24 Q 0.057 0.23500000000000001 0.07 0.223 Q 0.231 0.059000000000000004 0.231 -0.25 Q 0.231 -0.555 0.081 -0.712 L 0.076 -0.717 Q 0.057 -0.735 0.057 -0.74 Q 0.057 -0.75 0.067 -0.75 Q 0.079 -0.75 0.12 -0.709 Q 0.182 -0.647 0.223 -0.562 Q 0.289 -0.426 0.289 -0.25 Z"/></g></g><path fill="rgb(0,0,0)" stroke="none" paint-order="stroke fill markers" d=" M 277.9354524964141 175.2647182569488 L 277.99542238353047 192.7878145476344 L 280.90334274099587 192.05025153701223 L 280.9033427409959 192.05025153701223 L 289.44658912363974 225.73290605892998 C 289.5901606593938 226.29895205847066 290.09889498504805 226.67588700805442 290.6573099966002 226.67588700805442 C 290.7590404994132 226.67588700805442 290.86241983190416 226.6633770855297 290.9655405270096 226.63722162011464 C 291.6347072216557 226.4674946189455 292.03958308936336 225.7874369113909 291.86985608819424 225.1182702167448 L 283.3266097055504 191.43561569482705 L 283.3266097055505 191.43561569482705 L 286.2345300630159 190.69805268420487 L 277.9354524964141 175.2647182569488 Z" fill-opacity="0.6980392156862745"/><g transform="scale(19,19)"><g transform="translate(14.052631578947368,8.549263157894737)"><path fill="rgb(0,0,0)" stroke="none" paint-order="stroke fill markers" d=" M 0.541 -0.362 Q 0.541 -0.325 0.526 -0.267 Q 0.511 -0.209 0.4835 -0.1455 Q 0.456 -0.082 0.406 -0.037 Q 0.356 0.008 0.296 0.008 Q 0.123 0.008 0.123 -0.126 Q 0.123 -0.161 0.1355 -0.2025 Q 0.148 -0.244 0.184 -0.335 Q 0.199 -0.375 0.199 -0.395 Q 0.199 -0.405 0.196 -0.41000000000000003 Q 0.193 -0.41500000000000004 0.19 -0.41550000000000004 Q 0.187 -0.41600000000000004 0.182 -0.41600000000000004 Q 0.17300000000000001 -0.41600000000000004 0.1625 -0.41200000000000003 Q 0.152 -0.40800000000000003 0.1365 -0.3965 Q 0.121 -0.385 0.1055 -0.359 Q 0.09 -0.333 0.079 -0.295 Q 0.075 -0.28200000000000003 0.056 -0.28200000000000003 Q 0.032 -0.28200000000000003 0.032 -0.296 Q 0.032 -0.306 0.042 -0.3295 Q 0.052000000000000005 -0.353 0.07 -0.3815 Q 0.088 -0.41000000000000003 0.11950000000000001 -0.431 Q 0.151 -0.452 0.188 -0.452 Q 0.233 -0.452 0.267 -0.4275 Q 0.301 -0.403 0.301 -0.362 Q 0.301 -0.34400000000000003 0.29 -0.317 Q 0.23 -0.167 0.23 -0.106 Q 0.23 -0.028 0.302 -0.028 Q 0.342 -0.028 0.378 -0.062 Q 0.41400000000000003 -0.096 0.434 -0.14100000000000001 Q 0.454 -0.186 0.4655 -0.2215 Q 0.47700000000000004 -0.257 0.47700000000000004 -0.269 Q 0.47700000000000004 -0.302 0.427 -0.332 Q 0.397 -0.34900000000000003 0.397 -0.377 Q 0.397 -0.404 0.4205 -0.4285 Q 0.444 -0.453 0.47300000000000003 -0.453 Q 0.47800000000000004 -0.453 0.485 -0.451 Q 0.492 -0.449 0.5065000000000001 -0.442 Q 0.521 -0.435 0.531 -0.41400000000000003 Q 0.541 -0.393 0.541 -0.362 Z"/></g></g><path fill="rgb(0,0,0)" stroke="none" paint-order="stroke fill markers" d=" M 212.88546524194916 222.0695447028345 L 195.9354524964141 226.51471825694887 L 212.9831924738223 230.56898288357033 L 212.9831924738224 230.56898288357033 L 212.94870050963186 227.5691811727224 L 290.67259425766304 226.67550551735738 C 291.36290456492037 226.66756827326816 291.9160772295262 226.1015267933487 291.90813998543695 225.41121648609135 C 291.9002590307571 224.7258017268461 291.3421617070298 224.1755863998131 290.6585186936383 224.1755863998131 C 290.6536358002514 224.1755863998131 290.6487465021831 224.17561446890798 290.64385095417094 224.1756707583174 L 212.9199572061422 225.0693464136824 L 212.9199572061397 225.0693464136824 L 212.88546524194916 222.0695447028345 Z" fill-opacity="0.6980392156862745"/><g transform="scale(19,19)"><g transform="translate(9.052631578947368,12.022947368421054)"><path fill="rgb(0,0,0)" stroke="none" paint-order="stroke fill markers" d=" M 0.28 -0.376 Q 0.35100000000000003 -0.452 0.445 -0.452 Q 0.509 -0.452 0.5515 -0.4255 Q 0.594 -0.399 0.594 -0.336 Q 0.594 -0.281 0.532 -0.122 Q 0.512 -0.07200000000000001 0.512 -0.049 Q 0.512 -0.039 0.515 -0.034 Q 0.518 -0.029 0.521 -0.0285 Q 0.524 -0.028 0.529 -0.028 Q 0.538 -0.028 0.548 -0.032 Q 0.558 -0.036000000000000004 0.5735 -0.0465 Q 0.589 -0.057 0.6045 -0.0835 Q 0.62 -0.11 0.632 -0.149 Q 0.636 -0.162 0.655 -0.162 Q 0.679 -0.162 0.679 -0.148 Q 0.679 -0.138 0.669 -0.1145 Q 0.659 -0.091 0.641 -0.0625 Q 0.623 -0.034 0.5915 -0.013000000000000001 Q 0.56 0.008 0.523 0.008 Q 0.47800000000000004 0.008 0.444 -0.0165 Q 0.41000000000000003 -0.041 0.41000000000000003 -0.082 Q 0.41000000000000003 -0.099 0.424 -0.133 Q 0.487 -0.299 0.487 -0.357 Q 0.487 -0.41600000000000004 0.437 -0.41600000000000004 Q 0.384 -0.41600000000000004 0.334 -0.377 Q 0.312 -0.359 0.2925 -0.3325 Q 0.273 -0.306 0.272 -0.299 Q 0.271 -0.297 0.257 -0.241 Q 0.243 -0.185 0.241 -0.18 Q 0.227 -0.12 0.213 -0.068 Q 0.209 -0.053 0.20550000000000002 -0.043000000000000003 Q 0.202 -0.033 0.1945 -0.0195 Q 0.187 -0.006 0.17350000000000002 0.001 Q 0.16 0.008 0.14200000000000002 0.008 Q 0.12 0.008 0.1075 -0.0055 Q 0.095 -0.019 0.095 -0.036000000000000004 Q 0.095 -0.039 0.10300000000000001 -0.076 L 0.139 -0.216 Q 0.14400000000000002 -0.23800000000000002 0.161 -0.306 Q 0.17500000000000002 -0.362 0.17500000000000002 -0.379 Q 0.17500000000000002 -0.41600000000000004 0.152 -0.41600000000000004 Q 0.11 -0.41600000000000004 0.084 -0.316 Q 0.077 -0.28800000000000003 0.076 -0.28700000000000003 Q 0.07100000000000001 -0.28200000000000003 0.056 -0.28200000000000003 Q 0.032 -0.28200000000000003 0.032 -0.296 Q 0.032 -0.304 0.043000000000000003 -0.3365 Q 0.054 -0.369 0.07 -0.395 Q 0.105 -0.452 0.157 -0.452 Q 0.2 -0.452 0.23500000000000001 -0.432 Q 0.27 -0.41200000000000003 0.28 -0.376 Z"/></g></g><path fill="rgb(0,0,0)" stroke="none" paint-order="stroke fill markers" d=" M 323.0354524964141 117.86471825694879 L 314.0657854311891 132.91820864087694 L 316.9384620512972 133.7829219091249 L 316.9384620512973 133.7829219091249 L 289.4612740142053 225.06529094273407 C 289.2622873679429 225.7263473962679 289.63686895727983 226.42355008328673 290.29792541081366 226.6225367295491 C 290.4180585798629 226.65869838607054 290.5393854946065 226.67591769242952 290.6586990813287 226.67591769242952 C 291.1959320347603 226.67591769242952 291.69234620788774 226.32680861742537 291.8551711976287 225.78588533294072 L 319.3323592347207 134.50351629933155 L 319.33235923472074 134.50351629933155 L 322.20503585482885 135.3682295675795 L 323.0354524964141 117.86471825694879 Z" fill-opacity="0.6980392156862745"/><g transform="scale(19,19)"><g transform="translate(16.894736842105264,5.855263157894737)"><path fill="rgb(0,0,0)" stroke="none" paint-order="stroke fill markers" d=" M 0.281 -0.659 L 0.222 -0.42 Q 0.274 -0.452 0.331 -0.452 Q 0.403 -0.452 0.4545 -0.41200000000000003 Q 0.506 -0.372 0.506 -0.28700000000000003 Q 0.506 -0.23700000000000002 0.4865 -0.1855 Q 0.467 -0.134 0.4325 -0.0905 Q 0.398 -0.047 0.3425 -0.0195 Q 0.28700000000000003 0.008 0.222 0.008 Q 0.154 0.008 0.10300000000000001 -0.03 Q 0.052000000000000005 -0.068 0.052000000000000005 -0.155 Q 0.052000000000000005 -0.19 0.066 -0.246 L 0.135 -0.522 Q 0.14400000000000002 -0.556 0.163 -0.637 Q 0.15 -0.639 0.121 -0.639 Q 0.095 -0.639 0.095 -0.657 Q 0.095 -0.67 0.101 -0.677 Q 0.107 -0.684 0.112 -0.685 Q 0.117 -0.686 0.127 -0.687 L 0.256 -0.6930000000000001 Q 0.258 -0.6940000000000001 0.263 -0.6940000000000001 Q 0.28500000000000003 -0.6940000000000001 0.28500000000000003 -0.676 Q 0.28500000000000003 -0.673 0.281 -0.659 M 0.224 -0.028 Q 0.253 -0.028 0.28650000000000003 -0.05 Q 0.32 -0.07200000000000001 0.343 -0.126 Q 0.357 -0.16 0.375 -0.232 Q 0.393 -0.304 0.393 -0.34 Q 0.393 -0.41600000000000004 0.326 -0.41600000000000004 Q 0.28500000000000003 -0.41600000000000004 0.2465 -0.3905 Q 0.20800000000000002 -0.365 0.203 -0.34800000000000003 Q 0.187 -0.279 0.169 -0.211 Q 0.152 -0.136 0.152 -0.111 Q 0.152 -0.028 0.224 -0.028 Z"/></g><g transform="translate(17.415736842105265,5.855263157894737)"><path fill="rgb(0,0,0)" stroke="none" paint-order="stroke fill markers" d=" M 0.331 0.24 L 0.331 0.24 Q 0.331 0.25 0.321 0.25 Q 0.309 0.25 0.268 0.209 Q 0.20600000000000002 0.147 0.165 0.062 Q 0.099 -0.074 0.099 -0.25 Q 0.099 -0.419 0.162 -0.555 Q 0.214 -0.666 0.294 -0.733 Q 0.315 -0.75 0.321 -0.75 Q 0.331 -0.75 0.331 -0.74 Q 0.331 -0.735 0.318 -0.723 Q 0.157 -0.559 0.157 -0.25 Q 0.157 0.058 0.314 0.218 Q 0.331 0.23500000000000001 0.331 0.24 Z"/></g><g transform="translate(17.804736842105264,5.855263157894737)"><path fill="rgb(0,0,0)" stroke="none" paint-order="stroke fill markers" d=" M 0.391 -0.374 L 0.391 -0.374 Q 0.37 -0.418 0.301 -0.42 Q 0.22 -0.42 0.195 -0.359 Q 0.189 -0.34400000000000003 0.189 -0.33 Q 0.189 -0.291 0.23700000000000002 -0.277 L 0.23700000000000002 -0.277 L 0.23800000000000002 -0.276 Q 0.245 -0.274 0.265 -0.27 Q 0.327 -0.257 0.34800000000000003 -0.242 Q 0.357 -0.23600000000000002 0.365 -0.228 Q 0.396 -0.197 0.396 -0.155 Q 0.396 -0.10300000000000001 0.357 -0.056 Q 0.301 0.011 0.195 0.011 Q 0.10200000000000001 0.011 0.066 -0.041 Q 0.052000000000000005 -0.061 0.052000000000000005 -0.08600000000000001 Q 0.052000000000000005 -0.135 0.09 -0.149 Q 0.099 -0.152 0.108 -0.152 Q 0.14100000000000001 -0.147 0.145 -0.117 Q 0.145 -0.08600000000000001 0.11800000000000001 -0.07100000000000001 Q 0.10200000000000001 -0.061 0.082 -0.064 Q 0.105 -0.011 0.196 -0.011 Q 0.299 -0.011 0.331 -0.08600000000000001 Q 0.339 -0.105 0.339 -0.121 Q 0.339 -0.169 0.28 -0.187 L 0.28 -0.187 L 0.279 -0.187 Q 0.264 -0.191 0.23500000000000001 -0.197 Q 0.145 -0.216 0.134 -0.277 Q 0.132 -0.28600000000000003 0.132 -0.296 Q 0.132 -0.34600000000000003 0.17 -0.389 Q 0.217 -0.442 0.301 -0.442 Q 0.38 -0.442 0.41000000000000003 -0.393 Q 0.42 -0.376 0.42 -0.356 Q 0.42 -0.311 0.386 -0.302 Q 0.38 -0.3 0.374 -0.3 Q 0.34600000000000003 -0.304 0.343 -0.329 Q 0.343 -0.356 0.37 -0.369 Q 0.38 -0.374 0.391 -0.374 Z"/></g><g transform="translate(18.495959064327486,5.855263157894737)"><path fill="rgb(0,0,0)" stroke="none" paint-order="stroke fill markers" d=" M 0.40900000000000003 -0.23 L 0.40900000000000003 0.05 Q 0.40900000000000003 0.082 0.389 0.083 Q 0.369 0.083 0.369 0.05 L 0.369 -0.23 L 0.089 -0.23 Q 0.057 -0.23 0.056 -0.25 Q 0.056 -0.27 0.089 -0.27 L 0.369 -0.27 L 0.369 -0.55 Q 0.369 -0.582 0.389 -0.583 Q 0.40900000000000003 -0.583 0.40900000000000003 -0.55 L 0.40900000000000003 -0.27 L 0.6880000000000001 -0.27 Q 0.72 -0.27 0.721 -0.25 Q 0.721 -0.23 0.6880000000000001 -0.23 L 0.40900000000000003 -0.23 Z"/></g><g transform="translate(19.496181286549707,5.855263157894737)"><path fill="rgb(0,0,0)" stroke="none" paint-order="stroke fill markers" d=" M 0.516 -0.683 L 0.372 -0.105 Q 0.366 -0.08 0.366 -0.057 Q 0.366 -0.011 0.396 -0.011 Q 0.434 -0.011 0.46 -0.091 Q 0.465 -0.108 0.47200000000000003 -0.135 Q 0.48 -0.152 0.486 -0.153 Q 0.498 -0.153 0.498 -0.14300000000000002 Q 0.498 -0.128 0.48 -0.073 Q 0.47400000000000003 -0.056 0.468 -0.044 Q 0.44 0.011 0.394 0.011 Q 0.338 0.011 0.313 -0.037 Q 0.306 -0.049 0.303 -0.064 Q 0.24 0.011 0.17300000000000001 0.011 Q 0.098 0.011 0.062 -0.057 Q 0.04 -0.097 0.04 -0.149 Q 0.04 -0.257 0.115 -0.34900000000000003 Q 0.185 -0.433 0.267 -0.441 Q 0.274 -0.442 0.281 -0.442 Q 0.342 -0.442 0.373 -0.378 L 0.433 -0.615 L 0.436 -0.635 Q 0.436 -0.646 0.422 -0.649 Q 0.41000000000000003 -0.652 0.386 -0.652 Q 0.364 -0.652 0.362 -0.664 Q 0.362 -0.681 0.376 -0.683 Q 0.47000000000000003 -0.6940000000000001 0.503 -0.6940000000000001 Q 0.516 -0.6940000000000001 0.516 -0.683 M 0.308 -0.11900000000000001 L 0.308 -0.11900000000000001 L 0.358 -0.315 Q 0.361 -0.33 0.361 -0.332 Q 0.361 -0.353 0.343 -0.383 Q 0.321 -0.42 0.28200000000000003 -0.42 Q 0.23 -0.42 0.183 -0.352 Q 0.17400000000000002 -0.339 0.166 -0.324 Q 0.137 -0.266 0.117 -0.159 Q 0.111 -0.125 0.111 -0.105 Q 0.111 -0.037 0.149 -0.017 Q 0.16 -0.011 0.17500000000000002 -0.011 Q 0.231 -0.011 0.28800000000000003 -0.082 Q 0.302 -0.098 0.307 -0.115 L 0.307 -0.116 Q 0.308 -0.11800000000000001 0.308 -0.11900000000000001 Z"/></g><g transform="translate(20.016181286549706,5.855263157894737)"><path fill="rgb(0,0,0)" stroke="none" paint-order="stroke fill markers" d=" M 0.391 -0.374 L 0.391 -0.374 Q 0.37 -0.418 0.301 -0.42 Q 0.22 -0.42 0.195 -0.359 Q 0.189 -0.34400000000000003 0.189 -0.33 Q 0.189 -0.291 0.23700000000000002 -0.277 L 0.23700000000000002 -0.277 L 0.23800000000000002 -0.276 Q 0.245 -0.274 0.265 -0.27 Q 0.327 -0.257 0.34800000000000003 -0.242 Q 0.357 -0.23600000000000002 0.365 -0.228 Q 0.396 -0.197 0.396 -0.155 Q 0.396 -0.10300000000000001 0.357 -0.056 Q 0.301 0.011 0.195 0.011 Q 0.10200000000000001 0.011 0.066 -0.041 Q 0.052000000000000005 -0.061 0.052000000000000005 -0.08600000000000001 Q 0.052000000000000005 -0.135 0.09 -0.149 Q 0.099 -0.152 0.108 -0.152 Q 0.14100000000000001 -0.147 0.145 -0.117 Q 0.145 -0.08600000000000001 0.11800000000000001 -0.07100000000000001 Q 0.10200000000000001 -0.061 0.082 -0.064 Q 0.105 -0.011 0.196 -0.011 Q 0.299 -0.011 0.331 -0.08600000000000001 Q 0.339 -0.105 0.339 -0.121 Q 0.339 -0.169 0.28 -0.187 L 0.28 -0.187 L 0.279 -0.187 Q 0.264 -0.191 0.23500000000000001 -0.197 Q 0.145 -0.216 0.134 -0.277 Q 0.132 -0.28600000000000003 0.132 -0.296 Q 0.132 -0.34600000000000003 0.17 -0.389 Q 0.217 -0.442 0.301 -0.442 Q 0.38 -0.442 0.41000000000000003 -0.393 Q 0.42 -0.376 0.42 -0.356 Q 0.42 -0.311 0.386 -0.302 Q 0.38 -0.3 0.374 -0.3 Q 0.34600000000000003 -0.304 0.343 -0.329 Q 0.343 -0.356 0.37 -0.369 Q 0.38 -0.374 0.391 -0.374 Z"/></g><g transform="translate(20.485181286549707,5.855263157894737)"><path fill="rgb(0,0,0)" stroke="none" paint-order="stroke fill markers" d=" M 0.289 -0.25 L 0.289 -0.25 Q 0.289 -0.081 0.226 0.055 Q 0.17400000000000002 0.166 0.094 0.233 Q 0.073 0.25 0.067 0.25 Q 0.057 0.25 0.057 0.24 Q 0.057 0.23500000000000001 0.07 0.223 Q 0.231 0.059000000000000004 0.231 -0.25 Q 0.231 -0.555 0.081 -0.712 L 0.076 -0.717 Q 0.057 -0.735 0.057 -0.74 Q 0.057 -0.75 0.067 -0.75 Q 0.079 -0.75 0.12 -0.709 Q 0.182 -0.647 0.223 -0.562 Q 0.289 -0.426 0.289 -0.25 Z"/></g></g><path fill="rgb(21,101,192)" stroke="none" paint-order="stroke fill markers" d=" M 295.658222605917 225.4255881378374 C 295.658222605917 228.18701188699137 293.41964635507094 230.4255881378374 290.658222605917 230.4255881378374 C 287.89679885676304 230.4255881378374 285.658222605917 228.18701188699137 285.658222605917 225.4255881378374 C 285.658222605917 222.66416438868342 287.89679885676304 220.4255881378374 290.658222605917 220.4255881378374 C 293.41964635507094 220.4255881378374 295.658222605917 222.66416438868342 295.658222605917 225.4255881378374 Z" fill-opacity="1"/><path fill="none" stroke="rgb(0,0,0)" paint-order="fill stroke markers" d=" M 295.658222605917 225.4255881378374 C 295.658222605917 228.18701188699137 293.41964635507094 230.4255881378374 290.658222605917 230.4255881378374 C 287.89679885676304 230.4255881378374 285.658222605917 228.18701188699137 285.658222605917 225.4255881378374 C 285.658222605917 222.66416438868342 287.89679885676304 220.4255881378374 290.658222605917 220.4255881378374 C 293.41964635507094 220.4255881378374 295.658222605917 222.66416438868342 295.658222605917 225.4255881378374 Z" stroke-opacity="1" stroke-linecap="round" stroke-linejoin="round" stroke-miterlimit="10"/></g></g></svg>
