<svg version="1.1" xmlns="http://www.w3.org/2000/svg" xmlns:xlink="http://www.w3.org/1999/xlink" width="522" height="349"><defs><clipPath id="TguJRLtvWTsr"><path fill="none" stroke="none" d=" M 0 0 L 522 0 L 522 349 L 0 349 L 0 0 Z"/></clipPath></defs><g transform="scale(1,1)" clip-path="url(#TguJRLtvWTsr)"><g><rect fill="none" stroke="none" x="0" y="0" width="522" height="349" fill-opacity="1"/><path fill="rgb(153,51,0)" stroke="none" paint-order="stroke fill markers" fill-rule="evenodd" d=" M 68.99999999999994 32.99999999999997 L 493.9999999999998 318.9999999999998 L 61.99999999999994 245.99999999999983 Z" fill-opacity="0.09803921568627451"/><path fill="none" stroke="rgb(153,51,0)" paint-order="fill stroke markers" d=" M 68.99999999999994 32.99999999999997 L 493.9999999999998 318.9999999999998" stroke-opacity="0.6980392156862745" stroke-linecap="round" stroke-linejoin="round" stroke-miterlimit="10" stroke-width="2.5"/><path fill="none" stroke="rgb(153,51,0)" paint-order="fill stroke markers" d=" M 493.9999999999998 318.9999999999998 L 61.99999999999994 245.99999999999983" stroke-opacity="0.6980392156862745" stroke-linecap="round" stroke-linejoin="round" stroke-miterlimit="10" stroke-width="2.5"/><path fill="none" stroke="rgb(153,51,0)" paint-order="fill stroke markers" d=" M 61.99999999999994 245.99999999999983 L 68.99999999999994 32.99999999999997" stroke-opacity="0.6980392156862745" stroke-linecap="round" stroke-linejoin="round" stroke-miterlimit="10" stroke-width="2.5"/><path fill="none" stroke="rgb(0,0,0)" paint-order="fill stroke markers" d=" M 23.28535454515975 303.5305046094652 L 300.85732272741996 147.23474769526723" stroke-opacity="0.6980392156862745" stroke-linecap="round" stroke-linejoin="round" stroke-miterlimit="10" stroke-width="2.5"/><path fill="none" stroke="rgb(0,0,0)" paint-order="fill stroke markers" d=" M 143.76342331684788 179.16506443286414 L 300.85732272741996 147.23474769526723" stroke-opacity="0.6980392156862745" stroke-linecap="round" stroke-linejoin="round" stroke-miterlimit="10" stroke-width="2.5"/><path fill="none" stroke="rgb(0,0,0)" paint-order="fill stroke markers" d=" M 143.76342331684788 179.16506443286414 L 337.4731533663039 239.66987113427132" stroke-opacity="0.6980392156862745" stroke-linecap="round" stroke-linejoin="round" stroke-miterlimit="10" stroke-width="2.5"/><path fill="none" stroke="rgb(0,0,0)" paint-order="fill stroke markers" d=" M 337.4731533663039 239.66987113427132 L 23.28535454515975 303.5305046094652" stroke-opacity="0.6980392156862745" stroke-linecap="round" stroke-linejoin="round" stroke-miterlimit="10" stroke-width="2.5"/><path fill="rgb(77,77,255)" stroke="none" paint-order="stroke fill markers" d=" M 73.99999999999994 32.99999999999997 C 73.99999999999994 35.761423749153934 71.7614237491539 37.99999999999997 68.99999999999994 37.99999999999997 C 66.23857625084598 37.99999999999997 63.99999999999994 35.761423749153934 63.99999999999994 32.99999999999997 C 63.99999999999994 30.238576250846005 66.23857625084598 27.99999999999997 68.99999999999994 27.99999999999997 C 71.7614237491539 27.99999999999997 73.99999999999994 30.238576250846005 73.99999999999994 32.99999999999997 Z" fill-opacity="1"/><path fill="none" stroke="rgb(0,0,0)" paint-order="fill stroke markers" d=" M 73.99999999999994 32.99999999999997 C 73.99999999999994 35.761423749153934 71.7614237491539 37.99999999999997 68.99999999999994 37.99999999999997 C 66.23857625084598 37.99999999999997 63.99999999999994 35.761423749153934 63.99999999999994 32.99999999999997 C 63.99999999999994 30.238576250846005 66.23857625084598 27.99999999999997 68.99999999999994 27.99999999999997 C 71.7614237491539 27.99999999999997 73.99999999999994 30.238576250846005 73.99999999999994 32.99999999999997 Z" stroke-opacity="1" stroke-linecap="round" stroke-linejoin="round" stroke-miterlimit="10"/><text fill="rgb(77,77,255)" stroke="none" font-family="geogebra-sans-serif, sans-serif" font-size="16px" font-style="normal" font-weight="normal" text-decoration="normal" x="73" y="23" text-anchor="start" dominant-baseline="alphabetic" fill-opacity="1">A</text><text fill="none" stroke="rgb(255,255,255)" font-family="geogebra-sans-serif, sans-serif" font-size="16px" font-style="normal" font-weight="normal" text-decoration="normal" x="73" y="23" text-anchor="start" dominant-baseline="alphabetic" stroke-opacity="1" stroke-linejoin="bevel" stroke-miterlimit="10" stroke-width="3">A</text><text fill="rgb(77,77,255)" stroke="none" font-family="geogebra-sans-serif, sans-serif" font-size="16px" font-style="normal" font-weight="normal" text-decoration="normal" x="73" y="23" text-anchor="start" dominant-baseline="alphabetic" fill-opacity="1">A</text><path fill="rgb(77,77,255)" stroke="none" paint-order="stroke fill markers" d=" M 498.9999999999998 318.9999999999998 C 498.9999999999998 321.7614237491537 496.7614237491537 323.9999999999998 493.9999999999998 323.9999999999998 C 491.2385762508458 323.9999999999998 488.9999999999998 321.7614237491537 488.9999999999998 318.9999999999998 C 488.9999999999998 316.2385762508458 491.2385762508458 313.9999999999998 493.9999999999998 313.9999999999998 C 496.7614237491537 313.9999999999998 498.9999999999998 316.2385762508458 498.9999999999998 318.9999999999998 Z" fill-opacity="1"/><path fill="none" stroke="rgb(0,0,0)" paint-order="fill stroke markers" d=" M 498.9999999999998 318.9999999999998 C 498.9999999999998 321.7614237491537 496.7614237491537 323.9999999999998 493.9999999999998 323.9999999999998 C 491.2385762508458 323.9999999999998 488.9999999999998 321.7614237491537 488.9999999999998 318.9999999999998 C 488.9999999999998 316.2385762508458 491.2385762508458 313.9999999999998 493.9999999999998 313.9999999999998 C 496.7614237491537 313.9999999999998 498.9999999999998 316.2385762508458 498.9999999999998 318.9999999999998 Z" stroke-opacity="1" stroke-linecap="round" stroke-linejoin="round" stroke-miterlimit="10"/><text fill="rgb(77,77,255)" stroke="none" font-family="geogebra-sans-serif, sans-serif" font-size="16px" font-style="normal" font-weight="normal" text-decoration="normal" x="498" y="309" text-anchor="start" dominant-baseline="alphabetic" fill-opacity="1">B</text><text fill="none" stroke="rgb(255,255,255)" font-family="geogebra-sans-serif, sans-serif" font-size="16px" font-style="normal" font-weight="normal" text-decoration="normal" x="498" y="309" text-anchor="start" dominant-baseline="alphabetic" stroke-opacity="1" stroke-linejoin="bevel" stroke-miterlimit="10" stroke-width="3">B</text><text fill="rgb(77,77,255)" stroke="none" font-family="geogebra-sans-serif, sans-serif" font-size="16px" font-style="normal" font-weight="normal" text-decoration="normal" x="498" y="309" text-anchor="start" dominant-baseline="alphabetic" fill-opacity="1">B</text><path fill="rgb(77,77,255)" stroke="none" paint-order="stroke fill markers" d=" M 66.99999999999994 245.99999999999983 C 66.99999999999994 248.7614237491538 64.7614237491539 250.99999999999983 61.99999999999994 250.99999999999983 C 59.23857625084597 250.99999999999983 56.99999999999994 248.7614237491538 56.99999999999994 245.99999999999983 C 56.99999999999994 243.23857625084585 59.23857625084597 240.99999999999983 61.99999999999994 240.99999999999983 C 64.7614237491539 240.99999999999983 66.99999999999994 243.23857625084585 66.99999999999994 245.99999999999983 Z" fill-opacity="1"/><path fill="none" stroke="rgb(0,0,0)" paint-order="fill stroke markers" d=" M 66.99999999999994 245.99999999999983 C 66.99999999999994 248.7614237491538 64.7614237491539 250.99999999999983 61.99999999999994 250.99999999999983 C 59.23857625084597 250.99999999999983 56.99999999999994 248.7614237491538 56.99999999999994 245.99999999999983 C 56.99999999999994 243.23857625084585 59.23857625084597 240.99999999999983 61.99999999999994 240.99999999999983 C 64.7614237491539 240.99999999999983 66.99999999999994 243.23857625084585 66.99999999999994 245.99999999999983 Z" stroke-opacity="1" stroke-linecap="round" stroke-linejoin="round" stroke-miterlimit="10"/><text fill="rgb(77,77,255)" stroke="none" font-family="geogebra-sans-serif, sans-serif" font-size="16px" font-style="normal" font-weight="normal" text-decoration="normal" x="66" y="236" text-anchor="start" dominant-baseline="alphabetic" fill-opacity="1">C</text><text fill="none" stroke="rgb(255,255,255)" font-family="geogebra-sans-serif, sans-serif" font-size="16px" font-style="normal" font-weight="normal" text-decoration="normal" x="66" y="236" text-anchor="start" dominant-baseline="alphabetic" stroke-opacity="1" stroke-linejoin="bevel" stroke-miterlimit="10" stroke-width="3">C</text><text fill="rgb(77,77,255)" stroke="none" font-family="geogebra-sans-serif, sans-serif" font-size="16px" font-style="normal" font-weight="normal" text-decoration="normal" x="66" y="236" text-anchor="start" dominant-baseline="alphabetic" fill-opacity="1">C</text><path fill="rgb(68,68,68)" stroke="none" paint-order="stroke fill markers" d=" M 304.85732272741996 147.23474769526723 C 304.85732272741996 149.4438866945904 303.0664617267431 151.23474769526723 300.85732272741996 151.23474769526723 C 298.6481837280968 151.23474769526723 296.85732272741996 149.4438866945904 296.85732272741996 147.23474769526723 C 296.85732272741996 145.02560869594404 298.6481837280968 143.23474769526723 300.85732272741996 143.23474769526723 C 303.0664617267431 143.23474769526723 304.85732272741996 145.02560869594404 304.85732272741996 147.23474769526723 Z" fill-opacity="1"/><path fill="none" stroke="rgb(0,0,0)" paint-order="fill stroke markers" d=" M 304.85732272741996 147.23474769526723 C 304.85732272741996 149.4438866945904 303.0664617267431 151.23474769526723 300.85732272741996 151.23474769526723 C 298.6481837280968 151.23474769526723 296.85732272741996 149.4438866945904 296.85732272741996 147.23474769526723 C 296.85732272741996 145.02560869594404 298.6481837280968 143.23474769526723 300.85732272741996 143.23474769526723 C 303.0664617267431 143.23474769526723 304.85732272741996 145.02560869594404 304.85732272741996 147.23474769526723 Z" stroke-opacity="1" stroke-linecap="round" stroke-linejoin="round" stroke-miterlimit="10"/><text fill="rgb(68,68,68)" stroke="none" font-family="geogebra-sans-serif, sans-serif" font-size="16px" font-style="normal" font-weight="normal" text-decoration="normal" x="305" y="139" text-anchor="start" dominant-baseline="alphabetic" fill-opacity="1">O</text><text fill="none" stroke="rgb(255,255,255)" font-family="geogebra-sans-serif, sans-serif" font-size="16px" font-style="normal" font-weight="normal" text-decoration="normal" x="305" y="139" text-anchor="start" dominant-baseline="alphabetic" stroke-opacity="1" stroke-linejoin="bevel" stroke-miterlimit="10" stroke-width="3">O</text><text fill="rgb(68,68,68)" stroke="none" font-family="geogebra-sans-serif, sans-serif" font-size="16px" font-style="normal" font-weight="normal" text-decoration="normal" x="305" y="139" text-anchor="start" dominant-baseline="alphabetic" fill-opacity="1">O</text><path fill="rgb(68,68,68)" stroke="none" paint-order="stroke fill markers" d=" M 27.28535454515975 303.5305046094652 C 27.28535454515975 305.73964360878836 25.49449354448292 307.5305046094652 23.28535454515975 307.5305046094652 C 21.076215545836575 307.5305046094652 19.28535454515975 305.73964360878836 19.28535454515975 303.5305046094652 C 19.28535454515975 301.32136561014204 21.076215545836575 299.5305046094652 23.28535454515975 299.5305046094652 C 25.49449354448292 299.5305046094652 27.28535454515975 301.32136561014204 27.28535454515975 303.5305046094652 Z" fill-opacity="1"/><path fill="none" stroke="rgb(0,0,0)" paint-order="fill stroke markers" d=" M 27.28535454515975 303.5305046094652 C 27.28535454515975 305.73964360878836 25.49449354448292 307.5305046094652 23.28535454515975 307.5305046094652 C 21.076215545836575 307.5305046094652 19.28535454515975 305.73964360878836 19.28535454515975 303.5305046094652 C 19.28535454515975 301.32136561014204 21.076215545836575 299.5305046094652 23.28535454515975 299.5305046094652 C 25.49449354448292 299.5305046094652 27.28535454515975 301.32136561014204 27.28535454515975 303.5305046094652 Z" stroke-opacity="1" stroke-linecap="round" stroke-linejoin="round" stroke-miterlimit="10"/><text fill="rgb(68,68,68)" stroke="none" font-family="geogebra-sans-serif, sans-serif" font-size="16px" font-style="normal" font-weight="normal" text-decoration="normal" x="27" y="296" text-anchor="start" dominant-baseline="alphabetic" fill-opacity="1">H</text><text fill="none" stroke="rgb(255,255,255)" font-family="geogebra-sans-serif, sans-serif" font-size="16px" font-style="normal" font-weight="normal" text-decoration="normal" x="27" y="296" text-anchor="start" dominant-baseline="alphabetic" stroke-opacity="1" stroke-linejoin="bevel" stroke-miterlimit="10" stroke-width="3">H</text><text fill="rgb(68,68,68)" stroke="none" font-family="geogebra-sans-serif, sans-serif" font-size="16px" font-style="normal" font-weight="normal" text-decoration="normal" x="27" y="296" text-anchor="start" dominant-baseline="alphabetic" fill-opacity="1">H</text><path fill="rgb(68,68,68)" stroke="none" paint-order="stroke fill markers" d=" M 147.76342331684788 179.16506443286414 C 147.76342331684788 181.3742034321873 145.97256231617104 183.16506443286414 143.76342331684788 183.16506443286414 C 141.5542843175247 183.16506443286414 139.76342331684788 181.3742034321873 139.76342331684788 179.16506443286414 C 139.76342331684788 176.95592543354095 141.5542843175247 175.16506443286414 143.76342331684788 175.16506443286414 C 145.97256231617104 175.16506443286414 147.76342331684788 176.95592543354095 147.76342331684788 179.16506443286414 Z" fill-opacity="1"/><path fill="none" stroke="rgb(0,0,0)" paint-order="fill stroke markers" d=" M 147.76342331684788 179.16506443286414 C 147.76342331684788 181.3742034321873 145.97256231617104 183.16506443286414 143.76342331684788 183.16506443286414 C 141.5542843175247 183.16506443286414 139.76342331684788 181.3742034321873 139.76342331684788 179.16506443286414 C 139.76342331684788 176.95592543354095 141.5542843175247 175.16506443286414 143.76342331684788 175.16506443286414 C 145.97256231617104 175.16506443286414 147.76342331684788 176.95592543354095 147.76342331684788 179.16506443286414 Z" stroke-opacity="1" stroke-linecap="round" stroke-linejoin="round" stroke-miterlimit="10"/><text fill="rgb(68,68,68)" stroke="none" font-family="geogebra-sans-serif, sans-serif" font-size="16px" font-style="normal" font-weight="normal" text-decoration="normal" x="148" y="171" text-anchor="start" dominant-baseline="alphabetic" fill-opacity="1">I</text><text fill="none" stroke="rgb(255,255,255)" font-family="geogebra-sans-serif, sans-serif" font-size="16px" font-style="normal" font-weight="normal" text-decoration="normal" x="148" y="171" text-anchor="start" dominant-baseline="alphabetic" stroke-opacity="1" stroke-linejoin="bevel" stroke-miterlimit="10" stroke-width="3">I</text><text fill="rgb(68,68,68)" stroke="none" font-family="geogebra-sans-serif, sans-serif" font-size="16px" font-style="normal" font-weight="normal" text-decoration="normal" x="148" y="171" text-anchor="start" dominant-baseline="alphabetic" fill-opacity="1">I</text><path fill="rgb(68,68,68)" stroke="none" paint-order="stroke fill markers" d=" M 341.4731533663039 239.66987113427132 C 341.4731533663039 241.87901013359448 339.68229236562706 243.66987113427132 337.4731533663039 243.66987113427132 C 335.26401436698075 243.66987113427132 333.4731533663039 241.87901013359448 333.4731533663039 239.66987113427132 C 333.4731533663039 237.46073213494813 335.26401436698075 235.66987113427132 337.4731533663039 235.66987113427132 C 339.68229236562706 235.66987113427132 341.4731533663039 237.46073213494813 341.4731533663039 239.66987113427132 Z" fill-opacity="1"/><path fill="none" stroke="rgb(0,0,0)" paint-order="fill stroke markers" d=" M 341.4731533663039 239.66987113427132 C 341.4731533663039 241.87901013359448 339.68229236562706 243.66987113427132 337.4731533663039 243.66987113427132 C 335.26401436698075 243.66987113427132 333.4731533663039 241.87901013359448 333.4731533663039 239.66987113427132 C 333.4731533663039 237.46073213494813 335.26401436698075 235.66987113427132 337.4731533663039 235.66987113427132 C 339.68229236562706 235.66987113427132 341.4731533663039 237.46073213494813 341.4731533663039 239.66987113427132 Z" stroke-opacity="1" stroke-linecap="round" stroke-linejoin="round" stroke-miterlimit="10"/><text fill="rgb(68,68,68)" stroke="none" font-family="geogebra-sans-serif, sans-serif" font-size="16px" font-style="normal" font-weight="normal" text-decoration="normal" x="341" y="232" text-anchor="start" dominant-baseline="alphabetic" fill-opacity="1">N</text><text fill="none" stroke="rgb(255,255,255)" font-family="geogebra-sans-serif, sans-serif" font-size="16px" font-style="normal" font-weight="normal" text-decoration="normal" x="341" y="232" text-anchor="start" dominant-baseline="alphabetic" stroke-opacity="1" stroke-linejoin="bevel" stroke-miterlimit="10" stroke-width="3">N</text><text fill="rgb(68,68,68)" stroke="none" font-family="geogebra-sans-serif, sans-serif" font-size="16px" font-style="normal" font-weight="normal" text-decoration="normal" x="341" y="232" text-anchor="start" dominant-baseline="alphabetic" fill-opacity="1">N</text><path fill="rgb(68,68,68)" stroke="none" paint-order="stroke fill markers" d=" M 212.33333333333323 199.33333333333323 C 212.33333333333323 201.54247233265642 210.54247233265642 203.33333333333323 208.33333333333323 203.33333333333323 C 206.12419433401004 203.33333333333323 204.33333333333323 201.54247233265642 204.33333333333323 199.33333333333323 C 204.33333333333323 197.12419433401004 206.12419433401004 195.33333333333323 208.33333333333323 195.33333333333323 C 210.54247233265642 195.33333333333323 212.33333333333323 197.12419433401004 212.33333333333323 199.33333333333323 Z" fill-opacity="1"/><path fill="none" stroke="rgb(0,0,0)" paint-order="fill stroke markers" d=" M 212.33333333333323 199.33333333333323 C 212.33333333333323 201.54247233265642 210.54247233265642 203.33333333333323 208.33333333333323 203.33333333333323 C 206.12419433401004 203.33333333333323 204.33333333333323 201.54247233265642 204.33333333333323 199.33333333333323 C 204.33333333333323 197.12419433401004 206.12419433401004 195.33333333333323 208.33333333333323 195.33333333333323 C 210.54247233265642 195.33333333333323 212.33333333333323 197.12419433401004 212.33333333333323 199.33333333333323 Z" stroke-opacity="1" stroke-linecap="round" stroke-linejoin="round" stroke-miterlimit="10"/><text fill="rgb(68,68,68)" stroke="none" font-family="geogebra-sans-serif, sans-serif" font-size="16px" font-style="normal" font-weight="normal" text-decoration="normal" x="212" y="191" text-anchor="start" dominant-baseline="alphabetic" fill-opacity="1">G</text><text fill="none" stroke="rgb(255,255,255)" font-family="geogebra-sans-serif, sans-serif" font-size="16px" font-style="normal" font-weight="normal" text-decoration="normal" x="212" y="191" text-anchor="start" dominant-baseline="alphabetic" stroke-opacity="1" stroke-linejoin="bevel" stroke-miterlimit="10" stroke-width="3">G</text><text fill="rgb(68,68,68)" stroke="none" font-family="geogebra-sans-serif, sans-serif" font-size="16px" font-style="normal" font-weight="normal" text-decoration="normal" x="212" y="191" text-anchor="start" dominant-baseline="alphabetic" fill-opacity="1">G</text></g></g></svg>
