<svg version="1.1" xmlns="http://www.w3.org/2000/svg" xmlns:xlink="http://www.w3.org/1999/xlink" width="443" height="408"><defs><clipPath id="WMDnqWmOxNOU"><path fill="none" stroke="none" d=" M 0 0 L 443 0 L 443 408 L 0 408 L 0 0 Z"/></clipPath></defs><g transform="scale(1,1)" clip-path="url(#WMDnqWmOxNOU)"><g><rect fill="transparent" stroke="none" x="0" y="0" width="443" height="408" fill-opacity="1"/><path fill="none" stroke="rgb(37,37,37)" paint-order="fill stroke markers" d=" M 109.5 2.5 L 109.5 408.5" stroke-opacity="1" stroke-miterlimit="10"/><path fill="none" stroke="rgb(37,37,37)" paint-order="fill stroke markers" d=" M 109.5 1.5 L 105.5 5.5" stroke-opacity="1" stroke-miterlimit="10"/><path fill="none" stroke="rgb(37,37,37)" paint-order="fill stroke markers" d=" M 109.5 1.5 L 113.5 5.5" stroke-opacity="1" stroke-miterlimit="10"/><path fill="none" stroke="rgb(37,37,37)" paint-order="fill stroke markers" d=" M 0.5 374.5 L 441.5 374.5" stroke-opacity="1" stroke-miterlimit="10"/><path fill="none" stroke="rgb(37,37,37)" paint-order="fill stroke markers" d=" M 442.5 374.5 L 438.5 370.5" stroke-opacity="1" stroke-miterlimit="10"/><path fill="none" stroke="rgb(37,37,37)" paint-order="fill stroke markers" d=" M 442.5 374.5 L 438.5 378.5" stroke-opacity="1" stroke-miterlimit="10"/><path fill="none" stroke="rgb(37,37,37)" paint-order="fill stroke markers" d=" M 10.5 374.5 L 10.5 377.5" stroke-opacity="1" stroke-miterlimit="10"/><path fill="none" stroke="rgb(37,37,37)" paint-order="fill stroke markers" d=" M 109.5 374.5 L 109.5 377.5" stroke-opacity="1" stroke-miterlimit="10"/><path fill="none" stroke="rgb(37,37,37)" paint-order="fill stroke markers" d=" M 208.5 374.5 L 208.5 377.5" stroke-opacity="1" stroke-miterlimit="10"/><path fill="none" stroke="rgb(37,37,37)" paint-order="fill stroke markers" d=" M 307.5 374.5 L 307.5 377.5" stroke-opacity="1" stroke-miterlimit="10"/><path fill="none" stroke="rgb(37,37,37)" paint-order="fill stroke markers" d=" M 406.5 374.5 L 406.5 377.5" stroke-opacity="1" stroke-miterlimit="10"/><path fill="none" stroke="rgb(37,37,37)" paint-order="fill stroke markers" d=" M 106.5 275.5 L 109.5 275.5" stroke-opacity="1" stroke-miterlimit="10"/><path fill="none" stroke="rgb(37,37,37)" paint-order="fill stroke markers" d=" M 106.5 176.5 L 109.5 176.5" stroke-opacity="1" stroke-miterlimit="10"/><path fill="none" stroke="rgb(37,37,37)" paint-order="fill stroke markers" d=" M 106.5 76.5 L 109.5 76.5" stroke-opacity="1" stroke-miterlimit="10"/><path fill="rgb(21,101,192)" stroke="none" paint-order="stroke fill markers" fill-rule="evenodd" d=" M 307.74430061111394 76.9829626606433 L 109.68364704795293 76.9829626606433 L 109.68364704795293 374.0739430053863 L 307.74430061111394 374.0739430053863 Z" fill-opacity="0.09803921568627451"/><path fill="rgb(21,101,192)" stroke="none" paint-order="stroke fill markers" fill-rule="evenodd" d=" M 109.68364704795293 374.0739430053863 L 109.68364704795293 374.0739430053863 L 109.68364704795293 374.0739430053863 M 109.68364704795293 374.0739430053863 L 109.68364704795293 374.0739430053863 L 119.58667972611099 372.50441809775305 L 119.58667972611099 374.0739430053863 M 119.58667972611099 374.0739430053863 L 119.58667972611099 372.50441809775305 L 129.48971240426903 368.6085398355965 L 129.48971240426903 374.0739430053863 M 129.48971240426903 374.0739430053863 L 129.48971240426903 368.6085398355965 L 139.3927450824271 362.73463712521027 L 139.3927450824271 374.0739430053863 M 139.3927450824271 374.0739430053863 L 139.3927450824271 362.73463712521027 L 149.29577776058514 355.0423037729827 L 149.29577776058514 374.0739430053863 M 149.29577776058514 374.0739430053863 L 149.29577776058514 355.0423037729827 L 159.19881043874318 345.63494963818107 L 159.19881043874318 374.0739430053863 M 159.19881043874318 374.0739430053863 L 159.19881043874318 345.63494963818107 L 169.10184311690125 334.58818651988906 L 169.10184311690125 374.0739430053863 M 169.10184311690125 374.0739430053863 L 169.10184311690125 334.58818651988906 L 179.0048757950593 321.9611098983431 L 179.0048757950593 374.0739430053863 M 179.0048757950593 374.0739430053863 L 179.0048757950593 321.9611098983431 L 188.90790847321733 307.8019259885159 L 188.90790847321733 374.0739430053863 M 188.90790847321733 374.0739430053863 L 188.90790847321733 307.8019259885159 L 198.8109411513754 292.151154001621 L 198.8109411513754 374.0739430053863 M 198.8109411513754 374.0739430053863 L 198.8109411513754 292.151154001621 L 208.71397382953342 275.0436162238053 L 208.71397382953342 374.0739430053863 M 208.71397382953342 374.0739430053863 L 208.71397382953342 275.0436162238053 L 218.61700650769149 256.5097558610839 L 218.61700650769149 374.0739430053863 M 218.61700650769149 374.0739430053863 L 218.61700650769149 256.5097558610839 L 228.52003918584955 236.5765528028936 L 228.52003918584955 374.0739430053863 M 228.52003918584955 374.0739430053863 L 228.52003918584955 236.5765528028936 L 238.42307186400757 215.26818456202707 L 238.42307186400757 374.0739430053863 M 238.42307186400757 374.0739430053863 L 238.42307186400757 215.26818456202707 L 248.32610454216564 192.60651814021293 L 248.32610454216564 374.0739430053863 M 248.32610454216564 374.0739430053863 L 248.32610454216564 192.60651814021293 L 258.2291372203237 168.6114854510738 L 258.2291372203237 374.0739430053863 M 258.2291372203237 374.0739430053863 L 258.2291372203237 168.6114854510738 L 268.1321698984817 143.301376026159 L 268.1321698984817 374.0739430053863 M 268.1321698984817 374.0739430053863 L 268.1321698984817 143.301376026159 L 278.0352025766398 116.69306940515582 L 278.0352025766398 374.0739430053863 M 278.0352025766398 374.0739430053863 L 278.0352025766398 116.69306940515582 L 287.93823525479786 88.80222254931675 L 287.93823525479786 374.0739430053863 M 287.93823525479786 374.0739430053863 L 287.93823525479786 88.80222254931675 L 297.8412679329559 59.643423059739746 L 297.8412679329559 374.0739430053863 M 297.8412679329559 374.0739430053863 L 297.8412679329559 59.643423059739746 L 307.74430061111394 29.230315952967942 L 307.74430061111394 374.0739430053863 L 109.68364704795293 374.0739430053863" fill-opacity="0.09803921568627451"/><path fill="none" stroke="rgb(0,102,153)" paint-order="fill stroke markers" d=" M 110.5 374.05637324770254 L 110.5 374.0739430053863 L 110.5 374.05637324770254 L 111.5 373.99982122035135 L 111.5 373.99982122035135 L 112.5 373.9107046631926 L 112.5 373.9107046631926 L 113.5 373.7918756737598 L 113.5 373.7918756737598 L 114.49999999999999 373.6451197000667 L 114.49999999999999 373.6451197000667 L 115.49999999999999 373.4717207717171 L 115.49999999999999 373.4717207717171 L 116.49999999999999 373.27267250020014 L 116.49999999999999 373.27267250020014 L 117.49999999999999 373.0487800088564 L 117.49999999999999 373.0487800088564 L 118.49999999999999 372.8007167864892 L 118.49999999999999 372.8007167864892 L 119.49999999999999 372.5290595301468 L 119.49999999999999 372.5290595301468 L 120.49999999999999 372.2343109814629 L 120.49999999999999 372.2343109814629 L 121.49999999999999 371.91691566964084 L 121.49999999999999 371.91691566964084 L 122.5 371.5772712018765 L 122.5 371.57727120187656 L 123.5 371.2157366221773 L 123.5 371.2157366221773 L 124.49999999999999 370.83263876388685 L 124.49999999999999 370.83263876388685 L 125.49999999999999 370.4282771845227 L 125.49999999999999 370.4282771845227 L 126.49999999999999 370.00292807149395 L 126.49999999999999 370.00292807149395 L 127.49999999999999 369.5568473833765 L 127.49999999999999 369.5568473833765 L 128.5 369.0902734119476 L 128.5 369.0902734119476 L 129.5 368.60342889762074 L 129.5 368.60342889762074 L 130.5 368.0965227952401 L 130.5 368.0965227952401 L 131.5 367.56975176239683 L 131.5 367.56975176239683 L 132.5 367.0233014248466 L 132.5 367.0233014248466 L 133.5 366.4573474609022 L 133.5 366.4573474609022 L 134.5 365.87205653735174 L 134.5 365.8720565373518 L 135.5 365.2675871224976 L 135.5 365.2675871224976 L 136.5 364.6440901966651 L 136.5 364.64409019666516 L 137.5 364.0017098765131 L 137.5 364.0017098765131 L 138.5 363.3405839663738 L 138.5 363.3405839663738 L 139.5 362.6608444474265 L 139.5 362.6608444474265 L 140.5 361.9626179135923 L 140.5 361.9626179135923 L 141.49999999999997 361.2460259615193 L 141.49999999999997 361.24602596151936 L 142.5 360.5111855408027 L 142.5 360.5111855408027 L 143.5 359.75820926959847 L 143.5 359.75820926959847 L 144.5 358.987205719986 L 144.5 358.987205719986 L 145.5 358.19827967677435 L 145.5 358.19827967677435 L 146.5 357.3915323729056 L 146.5 357.39153237290566 L 147.5 356.5670617041566 L 147.5 356.56706170415663 L 148.5 355.7249624254647 L 148.5 355.7249624254647 L 149.5 354.8653263308891 L 149.5 354.8653263308891 L 150.5 353.9882424189524 L 150.5 353.98824241895244 L 151.5 353.09379704488265 L 151.5 353.09379704488265 L 152.5 352.18207406108564 L 152.5 352.1820740610857 L 153.5 351.25315494701385 L 153.5 351.25315494701385 L 154.5 350.3071189294577 L 154.5 350.3071189294578 L 155.5 349.34404309416664 L 155.5 349.34404309416664 L 156.5 348.36400248960064 L 156.5 348.36400248960064 L 157.5 347.3670702235265 L 157.5 347.3670702235266 L 158.5 346.35331755309187 L 158.5 346.35331755309187 L 159.5 345.32281396894285 L 159.5 345.32281396894285 L 160.5 344.2756272738931 L 160.5 344.2756272738932 L 161.5 343.21182365659723 L 161.5 343.2118236565973 L 162.5 342.1314677606372 L 162.5 342.1314677606372 L 163.5 341.0346227493894 L 163.5 341.0346227493895 L 164.5 339.9213503670052 L 164.5 339.92135036700523 L 165.5 338.79171099580265 L 165.5 338.79171099580265 L 166.5 337.64576371034474 L 166.5 337.64576371034474 L 167.5 336.4835663284482 L 167.5 336.4835663284482 L 168.5 335.3051754593489 L 168.5 335.30517545934896 L 169.5 334.1106465492282 L 169.5 334.1106465492282 L 170.5 332.90003392428605 L 170.5 332.9000339242861 L 171.5 331.673390831533 L 171.5 331.6733908315331 L 172.5 330.4307694774554 L 172.5 330.4307694774554 L 173.5 329.17222106469796 L 173.5 329.172221064698 L 174.5 327.8977958268955 L 174.5 327.89779582689556 L 175.5 326.60754306177284 L 175.5 326.6075430617729 L 176.5 325.3015111626262 L 176.5 325.3015111626262 L 177.5 323.9797476482865 L 177.5 323.9797476482865 L 178.5 322.6422991916611 L 178.5 322.64229919166115 L 179.5 321.2892116469396 L 179.5 321.2892116469396 L 180.5 319.92053007554506 L 180.5 319.92053007554506 L 181.5 318.5362987709065 L 181.5 318.53629877090657 L 182.5 317.1365612821204 L 182.5 317.13656128212045 L 183.5 315.7213604365668 L 183.5 315.7213604365668 L 184.5 314.2907383615392 L 184.5 314.2907383615392 L 185.5 312.8447365049445 L 185.5 312.8447365049445 L 186.49999999999997 311.3833956551242 L 186.49999999999997 311.3833956551242 L 187.5 309.90675595984567 L 187.5 309.9067559598457 L 188.5 308.414856944508 L 188.5 308.414856944508 L 189.5 306.9077375296048 L 189.5 306.9077375296048 L 190.5 305.3854360474836 L 190.5 305.38543604748367 L 191.5 303.847990258438 L 191.5 303.8479902584381 L 192.5 302.29543736616716 L 192.5 302.29543736616716 L 193.5 300.7278140326349 L 193.5 300.7278140326349 L 194.5 299.1451563923592 L 194.5 299.14515639235924 L 195.5 297.54750006615916 L 195.5 297.54750006615916 L 196.5 295.9348801743877 L 196.5 295.9348801743877 L 197.5 294.3073313496734 L 197.5 294.3073313496734 L 198.5 292.6648877491966 L 198.5 292.6648877491967 L 199.5 291.0075830665207 L 199.5 291.00758306652074 L 200.5 289.33545054299964 L 200.5 289.33545054299964 L 201.5 287.64852297878264 L 201.5 287.6485229787827 L 202.5 285.94683274343276 L 202.5 285.94683274343276 L 203.5 284.230411786178 L 203.5 284.230411786178 L 204.5 282.49929164581135 L 204.5 282.49929164581135 L 205.5 280.75350346025516 L 205.5 280.7535034602552 L 206.49999999999997 278.9930779758048 L 206.49999999999997 278.9930779758048 L 207.5 277.2180455560651 L 207.5 277.21804555606514 L 208.5 275.42843619059397 L 208.5 275.42843619059397 L 209.49999999999997 273.6242795032641 L 209.49999999999997 273.6242795032641 L 210.5 271.8056047603561 L 210.5 271.8056047603561 L 211.49999999999997 269.9724408783936 L 211.49999999999997 269.9724408783936 L 212.5 268.1248164317306 L 212.5 268.12481643173066 L 213.5 266.2627596599025 L 213.5 266.2627596599026 L 214.5 264.38629847474925 L 214.5 264.3862984747493 L 215.5 262.4954604673199 L 215.5 262.49546046731996 L 216.5 260.5902729145681 L 216.5 260.59027291456823 L 217.5 258.67076278584614 L 217.5 258.6707627858462 L 218.5 256.7369567492049 L 218.5 256.736956749205 L 219.5 254.78888117750864 L 219.5 254.78888117750867 L 220.5 252.8265621543705 L 220.5 252.82656215437055 L 221.5 250.85002547991613 L 221.5 250.8500254799162 L 222.5 248.8592966763816 L 222.5 248.85929667638166 L 223.5 246.85440099355213 L 223.5 246.85440099355216 L 224.5 244.83536341404715 L 224.5 244.83536341404724 L 225.49999999999997 242.80220865845794 L 225.49999999999997 242.80220865845803 L 226.49999999999997 240.75496119034224 L 226.49999999999997 240.7549611903423 L 227.49999999999997 238.693645221082 L 227.49999999999997 238.69364522108208 L 228.49999999999997 236.61828471460865 L 228.49999999999997 236.6182847146087 L 229.49999999999997 234.52890339200047 L 229.49999999999997 234.52890339200053 L 230.49999999999997 232.42552473595697 L 230.49999999999997 232.42552473595703 L 231.5 230.3081719951543 L 231.5 230.30817199515437 L 232.49999999999997 228.17686818848594 L 232.49999999999997 228.176868188486 L 233.5 226.03163610919202 L 233.5 226.0316361091921 L 234.5 223.87249832888264 L 234.5 223.87249832888267 L 235.5 221.6994772014564 L 235.5 221.69947720145646 L 236.5 219.51259486692007 L 236.5 219.51259486692013 L 237.5 217.31187325511073 L 237.5 217.3118732551108 L 238.5 215.09733408932505 L 238.5 215.09733408932513 L 239.5 212.86899888985772 L 239.5 212.86899888985778 L 240.5 210.6268889774525 L 240.5 210.62688897745255 L 241.5 208.37102547666862 L 241.5 208.3710254766687 L 242.5 206.1014293191653 L 242.5 206.1014293191654 L 243.5 203.8181212469066 L 243.5 203.81812124690668 L 244.5 201.52112181528972 L 244.5 201.52112181528977 L 245.5 199.21045139619852 L 245.5 199.2104513961986 L 246.5 196.88613018098528 L 246.5 196.88613018098536 L 247.5 194.548178183382 L 247.5 194.5481781833821 L 248.5 192.1966152423444 L 248.5 192.19661524234442 L 249.5 189.83146102482965 L 249.5 189.83146102482974 L 250.5 187.45273502851094 L 250.5 187.45273502851103 L 251.49999999999994 185.06045658442977 L 251.49999999999994 185.06045658442986 L 252.5 182.6546448595881 L 252.5 182.6546448595882 L 253.49999999999994 180.23531885948296 L 253.49999999999994 180.23531885948304 L 254.5 177.8024974305833 L 254.5 177.80249743058337 L 255.49999999999994 175.35619926275342 L 255.49999999999994 175.35619926275356 L 256.5 172.89644289162177 L 256.5 172.89644289162192 L 257.5 170.42324670089897 L 257.5 170.42324670089909 L 258.5 167.93662892464457 L 258.5 167.9366289246447 L 259.5 165.43660764948586 L 259.5 165.436607649486 L 260.5 162.92320081678847 L 260.5 162.9232008167886 L 261.5 160.39642622478118 L 261.5 160.39642622478132 L 262.5 157.85630153063568 L 262.5 157.8563015306358 L 263.5 155.30284425250258 L 263.5 155.30284425250272 L 264.5 152.7360717715052 L 264.5 152.73607177150532 L 265.5 150.1560013336917 L 265.5 150.15600133369188 L 266.5 147.56265005194732 L 266.5 147.56265005194746 L 267.5 144.95603490786738 L 267.5 144.95603490786752 L 268.5 142.33617275359217 L 268.5 142.3361727535923 L 269.5 139.70308031360477 L 269.5 139.70308031360486 L 270.5 137.05677418649285 L 270.5 137.05677418649296 L 271.5 134.3972708466753 L 271.5 134.3972708466754 L 272.49999999999994 131.72458664609482 L 272.49999999999994 131.72458664609496 L 273.5 129.03873781587635 L 273.5 129.03873781587652 L 274.49999999999994 126.33974046795444 L 274.49999999999994 126.33974046795461 L 275.5 123.6276105966673 L 275.5 123.6276105966675 L 276.49999999999994 120.90236408032177 L 276.49999999999994 120.902364080322 L 277.5 118.1640166827263 L 277.5 118.16401668272647 L 278.49999999999994 115.41258405469665 L 278.49999999999994 115.41258405469677 L 279.5 112.64808173553064 L 279.5 112.64808173553087 L 280.5 109.87052515445782 L 280.5 109.87052515445805 L 281.5 107.0799296320593 L 281.5 107.07992963205947 L 282.5 104.27631038166254 L 282.5 104.27631038166277 L 283.5 101.45968251071025 L 283.5 101.45968251071048 L 284.5 98.63006102210323 L 284.5 98.6300610221034 L 285.5 95.78746081551913 L 285.5 95.78746081551935 L 286.5 92.93189668870758 L 286.5 92.93189668870787 L 287.5 90.06338333876056 L 287.5 90.06338333876079 L 288.5 87.1819353633611 L 288.5 87.18193536336133 L 289.5 84.2875672620089 L 289.5 84.28756726200908 L 290.5 81.38029343722428 L 290.5 81.38029343722445 L 291.49999999999994 78.46012819573093 L 291.49999999999994 78.4601281957311 L 292.5 75.52708574961747 L 292.5 75.5270857496177 L 293.49999999999994 72.58118021747902 L 293.49999999999994 72.58118021747924 L 294.5 69.62242562553826 L 294.5 69.62242562553843 L 295.49999999999994 66.6508359087477 L 295.49999999999994 66.65083590874798 L 296.5 63.66642491187264 L 296.5 63.666424911872866 L 297.49999999999994 60.6692063905557 L 297.49999999999994 60.66920639055587 L 298.5 57.65919401236226 L 298.5 57.65919401236249 L 299.49999999999994 54.63640135781009 L 299.49999999999994 54.636401357810314 L 300.5 51.600841921379015 L 300.5 51.60084192137924 L 301.5 48.552529112506534 L 301.5 48.55252911250676 L 302.5 45.49147625656383 L 302.5 45.491476256564056 L 303.5 42.4176965958178 L 303.5 42.41769659581803 L 304.5 39.331203290376095 L 304.5 39.331203290376266 L 305.5 36.232009419116764 L 305.5 36.23200941911699 L 306.5 33.120127980603 L 306.5 33.12012798060317 L 307.5 29.9955718939824 L 307.5 29.99557189398263 L 308.5 26.858353999872406 L 308.5 26.858353999872634 L 309.5 23.7084870612307 L 309.5 23.708487061230812 L 310.5 20.545983764212053 L 310.5 20.54598376421228 L 311.49999999999994 17.37085671901167 L 311.49999999999994 17.370856719011897 L 312.49999999999994 14.183118460694288 L 312.49999999999994 14.183118460694402 L 313.5 10.982781450011373 L 313.5 10.9827814500116 L 314.49999999999994 7.769858074204876 L 314.49999999999994 7.76985807420516 L 315.5 4.544360647797873 L 315.5 4.544360647798044 L 316.49999999999994 1.3063014133734896 L 316.49999999999994 1.306301413373717 L 317.5 -1.9443074576578283 L 317.5 -1.9443074576576578 L 318.49999999999994 -5.207453864303943 L 318.49999999999994 -5.207453864303716 L 319.5 -8.483125775247629 L 319.5 -8.483125775247345 L 320.49999999999994 -11.77131122811386 L 320.49999999999994 -11.771311228113575 L 321.5 -15.071998328750453 L 321.5 -15.071998328750169 L 322.49999999999994 -18.385175250516454 L 322.49999999999994 -18.385175250516227 L 323.5 -21.710830233584375 L 323.5 -21.71083023358409 L 324.5 -25.048951584250233 L 324.5 -25.048951584249835 L 325.5 -28.39952767425575 L 325.5 -28.399527674255353 L 326.49999999999994 -31.76254694011999 L 326.49999999999994 -31.762546940119762 L 327.5 -35.13799788248093 L 327.5 -35.13799788248059 L 328.5 -38.525869065445875 L 328.5 -38.525869065445534 L 329.5 -41.926149115952626 L 329.5 -41.9261491159524 L 330.49999999999994 -45.338826723140244 L 330.49999999999994 -45.338826723139846 L 331.49999999999994 -48.76389063772689 L 331.49999999999994 -48.76389063772655 L 332.5 -52.20132967139904 L 332.5 -52.20132967139864 L 333.49999999999994 -55.65113269620707 L 333.49999999999994 -55.65113269620667 L 334.49999999999994 -59.11328864397274 L 334.49999999999994 -59.113288643972396 L 335.49999999999994 -62.58778650570201 L 335.49999999999994 -62.587786505701786 L 336.5 -66.0746153310073 L 336.5 -66.07461533100695 L 337.49999999999994 -69.57376422753839 L 337.49999999999994 -69.57376422753805 L 338.49999999999994 -73.0852223604208 L 338.49999999999994 -73.08522236042046 L 339.5 -76.60897895170325 L 339.5 -76.60897895170291 L 340.5 -80.14502327980927 L 340.5 -80.14502327980898 L 341.49999999999994 -83.69334467900194 L 341.49999999999994 -83.69334467900148 L 342.5 -87.25393253885085 L 342.5 -87.2539325388505 L 343.5 -90.82677630370972 L 343.5 -90.82677630370927 L 344.5 -94.41186547219905 L 344.5 -94.41186547219871 L 345.49999999999994 -98.0091895966982 L 345.49999999999994 -98.00918959669787 L 346.5 -101.61873828284206 L 346.5 -101.61873828284166 L 347.5 -105.24050118902511 L 347.5 -105.24050118902466 L 348.5 -108.87446802591325 L 348.5 -108.8744680259129 L 349.49999999999994 -112.52062855596154 L 349.49999999999994 -112.5206285559612 L 350.49999999999994 -116.17897259293807 L 350.49999999999994 -116.17897259293773 L 351.5 -119.84949000145377 L 351.5 -119.84949000145343 L 352.49999999999994 -123.53217069650009 L 352.49999999999994 -123.53217069649975 L 353.49999999999994 -127.22700464299118 L 353.49999999999994 -127.22700464299095 L 354.49999999999994 -130.93398185531333 L 354.49999999999994 -130.933981855313 L 355.5 -134.65309239687815 L 355.5 -134.6530923968778 L 356.49999999999994 -138.38432637968464 L 356.49999999999994 -138.3843263796843 L 357.49999999999994 -142.12767396388523 L 357.49999999999994 -142.1276739638849 L 358.49999999999994 -145.88312535735696 L 358.49999999999994 -145.88312535735662 L 359.5 -149.65067081527894 L 359.5 -149.6506708152785 L 360.49999999999994 -153.43030063971497 L 360.49999999999994 -153.43030063971452 L 361.5 -157.22200517920288 L 361.5 -157.22200517920243 L 362.5 -161.0257748283462 L 362.5 -161.02577482834573 L 363.5 -164.841600027413 L 363.5 -164.84160002741254 L 364.49999999999994 -168.66947126194083 L 364.49999999999994 -168.66947126194037 L 365.5 -172.50937906234395 L 365.5 -172.5093790623436 L 366.5 -176.36131400352662 L 366.5 -176.36131400352616 L 367.5 -180.22526670450185 L 367.5 -180.2252667045015 L 368.49999999999994 -184.10122782801494 L 368.49999999999994 -184.1012278280145 L 369.5 -187.98918808017044 L 369.5 -187.98918808016987 L 370.5 -191.88913821006457 L 370.5 -191.88913821006412 L 371.5 -195.80106900942184 L 371.5 -195.8010690094215 L 372.49999999999994 -199.72497131223707 L 372.49999999999994 -199.72497131223673 L 373.5 -203.6608359944202 L 373.5 -203.66083599441987 L 374.5 -207.60865397344668 L 374.5 -207.60865397344622 L 375.5 -211.5684162080109 L 375.5 -211.56841620801043 L 376.49999999999994 -215.54011369768563 L 376.49999999999994 -215.54011369768529 L 377.5 -219.52373748258407 L 377.5 -219.52373748258373 L 378.5 -223.51927864302564 L 378.5 -223.5192786430252 L 379.5 -227.52672829920726 L 379.5 -227.52672829920658 L 380.49999999999994 -231.54607761087715 L 380.49999999999994 -231.54607761087635 L 381.5 -235.5773177770139 L 381.5 -235.5773177770132 L 382.5 -239.62044003550722 L 382.5 -239.62044003550642 L 383.49999999999994 -243.67543566284456 L 383.49999999999994 -243.67543566284388 L 384.5 -247.74229597380094 L 384.5 -247.74229597380025 L 385.5 -251.8210123211307 L 385.5 -251.82101232113013 L 386.5 -255.91157609526505 L 386.5 -255.91157609526437 L 387.49999999999994 -260.0139787240118 L 387.49999999999994 -260.0139787240111 L 388.5 -264.12821167225974 L 388.5 -264.12821167225906 L 389.5 -268.25426644168425 L 389.5 -268.25426644168357 L 390.5 -272.39213457045906 L 390.5 -272.39213457045827 L 391.49999999999994 -276.5418076329685 L 391.49999999999994 -276.54180763296785 L 392.5 -280.70327723952624 L 392.5 -280.70327723952545 L 393.5 -284.87653503609357 L 393.5 -284.8765350360928 L 394.5 -289.06157270400325 L 394.5 -289.06157270400246 L 395.49999999999994 -293.2583819596868 L 395.49999999999994 -293.2583819596861 L 396.5 -297.4669545544029 L 396.5 -297.4669545544021 L 397.5 -301.6872822739704 L 397.5 -301.68728227396963 L 398.5 -305.9193569385032 L 398.5 -305.9193569385024 L 399.49999999999994 -310.1631704021498 L 399.49999999999994 -310.163170402149 L 400.5 -314.41871455283325 L 400.5 -314.41871455283234 L 401.5 -318.68598131199593 L 401.5 -318.68598131199514 L 402.5 -322.9649626343466 L 402.5 -322.9649626343458 L 403.5 -327.25565050761026 L 403.5 -327.25565050760935 L 404.5 -331.55803695228013 L 404.5 -331.55803695227934 L 405.5 -335.87211402137183 L 405.5 -335.87211402137115 L 406.49999999999994 -340.1978738001848 L 406.49999999999994 -340.19787380018414 L 407.5 -344.5353084060584 L 407.5 -344.5353084060578 L 408.5 -348.88440998813695 L 408.5 -348.88440998813616 L 409.5 -353.2451707271352 L 409.5 -353.2451707271343 L 410.49999999999994 -357.617582835106 L 410.49999999999994 -357.6175828351052 L 411.5 -362.00163855521185 L 411.5 -362.00163855521095 L 412.5 -366.397330161496 L 412.5 -366.39733016149506 L 413.5 -370.8046499586587 L 413.5 -370.8046499586581 L 414.49999999999994 -375.2235902818358 L 414.49999999999994 -375.2235902818349 L 415.5 -379.654143496378 L 415.5 -379.65414349637746 L 416.5 -384.0963019976322 L 416.5 -384.0963019976313 L 417.5 -388.55005821072774 L 417.5 -388.55005821072695 L 418.49999999999994 -393.0154045903619 L 418.49999999999994 -393.01540459036113 L 419.5 -397.492333620592 L 419.5 -397.49233362059107 L 420.5 -401.98083781462145 L 420.5 -401.98083781462054 L 421.5 -406.48090971459766 L 421.5 -406.48090971459675 L 422.49999999999994 -410.9925418914053 L 422.49999999999994 -410.9925418914045 L 423.5 -415.51572694446617 L 423.5 -415.51572694446526 L 424.5 -420.05045750153516 L 424.5 -420.050457501534 L 425.49999999999994 -424.5967262185059 L 425.49999999999994 -424.5967262185048 L 426.49999999999994 -429.1545257792115 L 426.49999999999994 -429.1545257792105 L 427.5 -433.7238488952334 L 427.5 -433.72384889523215 L 428.5 -438.3046883057046 L 428.5 -438.30468830570345 L 429.49999999999994 -442.89703677712424 L 429.49999999999994 -442.8970367771231 L 430.49999999999994 -447.500887103165 L 430.49999999999994 -447.50088710316396 L 431.5 -452.1162321044906 L 431.5 -452.1162321044896 L 432.5 -456.74306462856595 L 432.5 -456.74306462856526 L 433.49999999999994 -461.38137754947917 L 433.49999999999994 -461.3813775494785 L 434.49999999999994 -466.03116376775785 L 434.49999999999994 -466.0311637677568 L 435.5 -470.6924162101904 L 435.5 -470.6924162101894 L 436.5 -475.3651278296472 L 436.5 -475.36512782964616 L 437.49999999999994 -480.0492916049074 L 437.49999999999994 -480.0492916049064 L 438.5 -484.7449005404839 L 438.5 -484.74490054048266 L 439.5 -489.45194766644846 L 439.5 -489.4519476664472 L 440.5 -494.1704260382649 L 440.5 -494.17042603826377 L 441.49999999999994 -498.9003287366174 L 441.49999999999994 -498.9003287366167 L 442.5 -503.6416488672449 L 442.5 -503.6416488672439 L 443.5 -508.3943795607723" stroke-opacity="0.8" stroke-linecap="round" stroke-linejoin="round" stroke-miterlimit="10" stroke-width="2.5"/><path fill="rgb(21,101,192)" stroke="none" paint-order="stroke fill markers" d=" M 312.74430061111394 29.230315952967942 C 312.74430061111394 31.991739702121908 310.5057243602679 34.23031595296794 307.74430061111394 34.23031595296794 C 304.98287686196 34.23031595296794 302.74430061111394 31.991739702121908 302.74430061111394 29.230315952967942 C 302.74430061111394 26.468892203813976 304.98287686196 24.230315952967942 307.74430061111394 24.230315952967942 C 310.5057243602679 24.230315952967942 312.74430061111394 26.468892203813976 312.74430061111394 29.230315952967942 Z" fill-opacity="1"/><path fill="none" stroke="rgb(0,0,0)" paint-order="fill stroke markers" d=" M 312.74430061111394 29.230315952967942 C 312.74430061111394 31.991739702121908 310.5057243602679 34.23031595296794 307.74430061111394 34.23031595296794 C 304.98287686196 34.23031595296794 302.74430061111394 31.991739702121908 302.74430061111394 29.230315952967942 C 302.74430061111394 26.468892203813976 304.98287686196 24.230315952967942 307.74430061111394 24.230315952967942 C 310.5057243602679 24.230315952967942 312.74430061111394 26.468892203813976 312.74430061111394 29.230315952967942 Z" stroke-opacity="1" stroke-linecap="round" stroke-linejoin="round" stroke-miterlimit="10"/></g></g></svg>
