<svg version="1.1" xmlns="http://www.w3.org/2000/svg" xmlns:xlink="http://www.w3.org/1999/xlink" width="683" height="617"><defs><clipPath id="DsyFkGuIOits"><path fill="none" stroke="none" d=" M 0 0 L 683 0 L 683 617 L 0 617 L 0 0 Z"/></clipPath></defs><g transform="scale(1,1)" clip-path="url(#DsyFkGuIOits)"><g><path fill="none" stroke="rgb(0,0,0)" paint-order="fill stroke markers" d=" M 35.5 2.5 L 35.5 617.5" stroke-opacity="1" stroke-miterlimit="10"/><path fill="none" stroke="rgb(0,0,0)" paint-order="fill stroke markers" d=" M 35.5 1.5 L 27.5 9.5" stroke-opacity="1" stroke-miterlimit="10"/><path fill="none" stroke="rgb(0,0,0)" paint-order="fill stroke markers" d=" M 35.5 1.5 L 43.5 9.5" stroke-opacity="1" stroke-miterlimit="10"/><text fill="rgb(0,0,0)" stroke="none" font-family="geogebra-sans-serif, sans-serif" font-size="32px" font-style="normal" font-weight="normal" text-decoration="normal" x="657" y="561" text-anchor="start" dominant-baseline="alphabetic" fill-opacity="1">x</text><path fill="none" stroke="rgb(0,0,0)" paint-order="fill stroke markers" d=" M 0.5 565.5 L 681.5 565.5" stroke-opacity="1" stroke-miterlimit="10"/><path fill="none" stroke="rgb(0,0,0)" paint-order="fill stroke markers" d=" M 682.5 565.5 L 674.5 557.5" stroke-opacity="1" stroke-miterlimit="10"/><path fill="none" stroke="rgb(0,0,0)" paint-order="fill stroke markers" d=" M 682.5 565.5 L 674.5 573.5" stroke-opacity="1" stroke-miterlimit="10"/><text fill="rgb(0,0,0)" stroke="none" font-family="geogebra-sans-serif, sans-serif" font-size="32px" font-style="normal" font-weight="normal" text-decoration="normal" x="40" y="30" text-anchor="start" dominant-baseline="alphabetic" fill-opacity="1">t</text><path fill="rgb(102,102,102)" stroke="none" paint-order="stroke fill markers" fill-rule="evenodd" d=" M 401.723521761364 323.9063636363636 L 253.38718361136233 323.9063636363636 L 132.6836426863631 565.3134454863634 L 522.4270626863633 565.3134454863634 Z" fill-opacity="0.09803921568627451"/><g transform="scale(35,35)"><g transform="translate(8.771428571428572,13.026189142857143)"><path fill="rgb(102,102,102)" stroke="none" paint-order="stroke fill markers" d=" M 0.509 -0.404 L 0.509 -0.404 L 0.651 -0.076 Q 0.666 -0.042 0.6880000000000001 -0.035 L 0.6890000000000001 -0.035 L 0.6900000000000001 -0.035 L 0.6900000000000001 -0.035 Q 0.7010000000000001 -0.031 0.72 -0.031 Q 0.74 -0.031 0.74 -0.02 Q 0.74 0 0.722 0 L 0.625 -0.003 L 0.624 -0.003 L 0.505 0 L 0.502 0 Q 0.488 0 0.488 -0.011 Q 0.494 -0.03 0.51 -0.031 Q 0.562 -0.031 0.562 -0.062 Q 0.562 -0.07 0.55 -0.097 L 0.434 -0.366 L 0.28500000000000003 -0.25 Q 0.256 -0.132 0.245 -0.093 Q 0.23600000000000002 -0.048 0.23600000000000002 -0.049 Q 0.23600000000000002 -0.032 0.28200000000000003 -0.031 L 0.28200000000000003 -0.031 L 0.28200000000000003 -0.031 L 0.301 -0.031 Q 0.327 -0.031 0.329 -0.02 Q 0.329 0 0.309 0 L 0.245 -0.002 L 0.244 -0.002 L 0.182 -0.003 L 0.18 -0.003 L 0.054 0 L 0.053 0 Q 0.038 0 0.038 -0.012 Q 0.038 -0.029 0.054 -0.031 L 0.066 -0.031 Q 0.131 -0.031 0.14400000000000002 -0.045 Q 0.15 -0.052000000000000005 0.156 -0.073 Q 0.156 -0.074 0.157 -0.078 L 0.291 -0.615 Q 0.295 -0.631 0.295 -0.634 Q 0.295 -0.646 0.279 -0.649 L 0.278 -0.649 L 0.278 -0.649 Q 0.276 -0.65 0.273 -0.65 Q 0.249 -0.652 0.23 -0.652 Q 0.20400000000000001 -0.652 0.202 -0.66 Q 0.201 -0.662 0.201 -0.664 Q 0.201 -0.683 0.221 -0.683 L 0.34900000000000003 -0.68 L 0.35000000000000003 -0.68 L 0.47700000000000004 -0.683 L 0.47800000000000004 -0.683 Q 0.492 -0.683 0.492 -0.672 Q 0.492 -0.655 0.47700000000000004 -0.653 L 0.47700000000000004 -0.653 Q 0.47200000000000003 -0.652 0.458 -0.652 Q 0.397 -0.652 0.385 -0.636 Q 0.38 -0.629 0.374 -0.606 L 0.294 -0.28500000000000003 L 0.684 -0.585 Q 0.72 -0.615 0.72 -0.631 Q 0.72 -0.648 0.6930000000000001 -0.652 L 0.6930000000000001 -0.652 L 0.6890000000000001 -0.652 Q 0.677 -0.654 0.677 -0.663 Q 0.677 -0.683 0.6960000000000001 -0.683 L 0.806 -0.68 L 0.807 -0.68 L 0.877 -0.683 L 0.878 -0.683 Q 0.889 -0.683 0.889 -0.672 Q 0.889 -0.655 0.871 -0.652 Q 0.8160000000000001 -0.646 0.753 -0.607 Q 0.732 -0.594 0.708 -0.5760000000000001 L 0.533 -0.441 Q 0.504 -0.42 0.504 -0.418 L 0.509 -0.404 Z"/></g><g transform="translate(9.620735571428572,13.176189142857144) scale(0.7,0.7)"><path fill="rgb(102,102,102)" stroke="none" paint-order="stroke fill markers" d=" M 0.294 -0.373 L 0.227 -0.031 Q 0.219 0.007 0.195 0.011 Q 0.19 0.012 0.186 0.012 Q 0.16 0.012 0.157 -0.015 Q 0.157 -0.022 0.167 -0.052000000000000005 L 0.265 -0.373 L 0.182 -0.373 Q 0.10400000000000001 -0.373 0.055 -0.296 Q 0.046 -0.28400000000000003 0.039 -0.28400000000000003 Q 0.027 -0.28400000000000003 0.027 -0.294 Q 0.027 -0.305 0.063 -0.354 Q 0.076 -0.371 0.088 -0.384 Q 0.132 -0.431 0.191 -0.431 L 0.47100000000000003 -0.431 Q 0.505 -0.431 0.51 -0.41600000000000004 L 0.51 -0.41500000000000004 Q 0.511 -0.41200000000000003 0.511 -0.40700000000000003 Q 0.511 -0.373 0.462 -0.373 L 0.294 -0.373 Z"/></g></g><path fill="none" stroke="rgb(0,0,0)" paint-order="fill stroke markers" d=" M 132.6836426863631 565.3134454863634 L 327.55535268636316 175.5700254863611" stroke-opacity="0.6980392156862745" stroke-linecap="round" stroke-linejoin="round" stroke-miterlimit="10" stroke-width="2.5"/><g transform="scale(35,35)"><g transform="translate(6.142857142857143,12.483332)"><path fill="rgb(0,0,0)" stroke="none" paint-order="stroke fill markers" d=" M 0.554 -0.68 L 0.582 -0.455 L 0.557 -0.455 Q 0.544 -0.5650000000000001 0.515 -0.602 Q 0.47900000000000004 -0.649 0.377 -0.649 L 0.274 -0.649 Q 0.23500000000000001 -0.649 0.228 -0.637 L 0.228 -0.636 L 0.228 -0.636 L 0.228 -0.635 Q 0.225 -0.629 0.225 -0.609 L 0.225 -0.079 Q 0.225 -0.05 0.23700000000000002 -0.042 Q 0.253 -0.031 0.32 -0.031 L 0.353 -0.031 L 0.353 0 Q 0.317 -0.003 0.185 -0.003 Q 0.068 -0.003 0.033 0 L 0.033 -0.031 L 0.057 -0.031 Q 0.122 -0.031 0.132 -0.048 Q 0.136 -0.055 0.136 -0.078 L 0.136 -0.602 Q 0.136 -0.632 0.124 -0.64 Q 0.11 -0.649 0.057 -0.649 L 0.033 -0.649 L 0.033 -0.68 L 0.554 -0.68 Z"/></g><g transform="translate(6.7678591428571435,12.633332000000001) scale(0.7,0.7)"><path fill="rgb(0,0,0)" stroke="none" paint-order="stroke fill markers" d=" M 0.294 -0.373 L 0.227 -0.031 Q 0.219 0.007 0.195 0.011 Q 0.19 0.012 0.186 0.012 Q 0.16 0.012 0.157 -0.015 Q 0.157 -0.022 0.167 -0.052000000000000005 L 0.265 -0.373 L 0.182 -0.373 Q 0.10400000000000001 -0.373 0.055 -0.296 Q 0.046 -0.28400000000000003 0.039 -0.28400000000000003 Q 0.027 -0.28400000000000003 0.027 -0.294 Q 0.027 -0.305 0.063 -0.354 Q 0.076 -0.371 0.088 -0.384 Q 0.132 -0.431 0.191 -0.431 L 0.47100000000000003 -0.431 Q 0.505 -0.431 0.51 -0.41600000000000004 L 0.51 -0.41500000000000004 Q 0.511 -0.41200000000000003 0.511 -0.40700000000000003 Q 0.511 -0.373 0.462 -0.373 L 0.294 -0.373 Z"/></g><g transform="translate(7.153104142857144,12.633332000000001) scale(0.7,0.7)"><path fill="rgb(0,0,0)" stroke="none" paint-order="stroke fill markers" d=" M 0.374 -0.605 L 0.23900000000000002 -0.065 Q 0.234 -0.047 0.234 -0.042 Q 0.234 -0.034 0.243 -0.032 L 0.243 -0.032 L 0.243 -0.032 L 0.247 -0.032 Q 0.253 -0.031 0.269 -0.031 L 0.363 -0.031 Q 0.509 -0.031 0.5750000000000001 -0.147 Q 0.592 -0.177 0.614 -0.23700000000000002 Q 0.622 -0.256 0.627 -0.257 L 0.628 -0.258 L 0.631 -0.258 Q 0.642 -0.258 0.643 -0.247 Q 0.643 -0.244 0.639 -0.233 L 0.56 -0.017 Q 0.555 -0.002 0.547 -0.001 L 0.547 -0.001 L 0.546 -0.001 Q 0.542 0 0.529 0 L 0.066 0 Q 0.041 0 0.039 -0.011 Q 0.039 -0.029 0.054 -0.031 L 0.066 -0.031 Q 0.131 -0.031 0.14400000000000002 -0.045 Q 0.15 -0.052000000000000005 0.156 -0.073 Q 0.156 -0.074 0.157 -0.078 L 0.291 -0.615 Q 0.295 -0.631 0.295 -0.634 Q 0.295 -0.646 0.279 -0.649 L 0.278 -0.649 L 0.277 -0.649 Q 0.274 -0.649 0.268 -0.65 Q 0.251 -0.652 0.23 -0.652 Q 0.20400000000000001 -0.652 0.202 -0.663 Q 0.202 -0.683 0.221 -0.683 L 0.353 -0.68 L 0.354 -0.68 L 0.501 -0.683 L 0.502 -0.683 Q 0.518 -0.683 0.518 -0.671 Q 0.518 -0.655 0.505 -0.653 Q 0.499 -0.652 0.48 -0.652 Q 0.401 -0.652 0.386 -0.635 Q 0.38 -0.628 0.374 -0.605 Z"/></g></g><path fill="none" stroke="rgb(0,0,0)" paint-order="fill stroke markers" d=" M 327.55535268636316 175.5700254863611 L 522.4270626863633 565.3134454863634" stroke-opacity="0.6980392156862745" stroke-linecap="round" stroke-linejoin="round" stroke-miterlimit="10" stroke-width="2.5"/><g transform="scale(35,35)"><g transform="translate(13.285714285714286,12.283332)"><path fill="rgb(0,0,0)" stroke="none" paint-order="stroke fill markers" d=" M 0.554 -0.68 L 0.582 -0.455 L 0.557 -0.455 Q 0.544 -0.5650000000000001 0.515 -0.602 Q 0.47900000000000004 -0.649 0.377 -0.649 L 0.274 -0.649 Q 0.23500000000000001 -0.649 0.228 -0.637 L 0.228 -0.636 L 0.228 -0.636 L 0.228 -0.635 Q 0.225 -0.629 0.225 -0.609 L 0.225 -0.079 Q 0.225 -0.05 0.23700000000000002 -0.042 Q 0.253 -0.031 0.32 -0.031 L 0.353 -0.031 L 0.353 0 Q 0.317 -0.003 0.185 -0.003 Q 0.068 -0.003 0.033 0 L 0.033 -0.031 L 0.057 -0.031 Q 0.122 -0.031 0.132 -0.048 Q 0.136 -0.055 0.136 -0.078 L 0.136 -0.602 Q 0.136 -0.632 0.124 -0.64 Q 0.11 -0.649 0.057 -0.649 L 0.033 -0.649 L 0.033 -0.68 L 0.554 -0.68 Z"/></g><g transform="translate(13.910716285714287,12.433332) scale(0.7,0.7)"><path fill="rgb(0,0,0)" stroke="none" paint-order="stroke fill markers" d=" M 0.294 -0.373 L 0.227 -0.031 Q 0.219 0.007 0.195 0.011 Q 0.19 0.012 0.186 0.012 Q 0.16 0.012 0.157 -0.015 Q 0.157 -0.022 0.167 -0.052000000000000005 L 0.265 -0.373 L 0.182 -0.373 Q 0.10400000000000001 -0.373 0.055 -0.296 Q 0.046 -0.28400000000000003 0.039 -0.28400000000000003 Q 0.027 -0.28400000000000003 0.027 -0.294 Q 0.027 -0.305 0.063 -0.354 Q 0.076 -0.371 0.088 -0.384 Q 0.132 -0.431 0.191 -0.431 L 0.47100000000000003 -0.431 Q 0.505 -0.431 0.51 -0.41600000000000004 L 0.51 -0.41500000000000004 Q 0.511 -0.41200000000000003 0.511 -0.40700000000000003 Q 0.511 -0.373 0.462 -0.373 L 0.294 -0.373 Z"/></g><g transform="translate(14.295961285714286,12.433332) scale(0.7,0.7)"><path fill="rgb(0,0,0)" stroke="none" paint-order="stroke fill markers" d=" M 0.375 -0.614 L 0.31 -0.353 L 0.422 -0.353 Q 0.533 -0.353 0.591 -0.41100000000000003 Q 0.635 -0.455 0.645 -0.533 L 0.645 -0.534 Q 0.646 -0.545 0.646 -0.553 Q 0.646 -0.642 0.52 -0.651 L 0.518 -0.651 Q 0.499 -0.652 0.464 -0.652 Q 0.41200000000000003 -0.652 0.403 -0.651 Q 0.385 -0.648 0.379 -0.629 L 0.379 -0.629 Q 0.378 -0.624 0.375 -0.614 M 0.519 -0.34 L 0.519 -0.34 Q 0.605 -0.308 0.612 -0.23500000000000001 Q 0.613 -0.229 0.613 -0.222 Q 0.613 -0.203 0.609 -0.17500000000000002 Q 0.599 -0.095 0.599 -0.061 Q 0.599 -0.009000000000000001 0.625 -0.002 L 0.626 -0.002 Q 0.632 0 0.639 0 Q 0.682 0 0.712 -0.052000000000000005 Q 0.723 -0.069 0.73 -0.091 Q 0.734 -0.105 0.743 -0.105 Q 0.755 -0.105 0.755 -0.093 Q 0.755 -0.073 0.731 -0.037 Q 0.712 -0.008 0.687 0.008 Q 0.663 0.022 0.635 0.022 Q 0.552 0.022 0.519 -0.027 Q 0.502 -0.051000000000000004 0.502 -0.08600000000000001 Q 0.502 -0.107 0.518 -0.171 Q 0.532 -0.225 0.532 -0.24 Q 0.532 -0.302 0.47600000000000003 -0.322 L 0.47600000000000003 -0.323 Q 0.453 -0.331 0.423 -0.331 L 0.304 -0.331 L 0.23800000000000002 -0.066 L 0.23500000000000001 -0.049 Q 0.23500000000000001 -0.032 0.281 -0.031 L 0.281 -0.031 L 0.281 -0.031 L 0.3 -0.031 Q 0.326 -0.031 0.328 -0.02 Q 0.328 0 0.308 0 L 0.182 -0.003 L 0.181 -0.003 L 0.056 0 L 0.055 0 Q 0.041 0 0.041 -0.011 Q 0.041 -0.029 0.056 -0.031 L 0.068 -0.031 Q 0.133 -0.031 0.146 -0.045 Q 0.152 -0.052000000000000005 0.158 -0.073 Q 0.158 -0.074 0.159 -0.078 L 0.293 -0.615 Q 0.297 -0.631 0.297 -0.634 Q 0.297 -0.646 0.281 -0.649 L 0.28 -0.649 L 0.279 -0.649 Q 0.276 -0.649 0.27 -0.65 Q 0.253 -0.652 0.232 -0.652 Q 0.20600000000000002 -0.652 0.20400000000000001 -0.663 Q 0.20400000000000001 -0.681 0.219 -0.683 L 0.233 -0.683 L 0.518 -0.683 Q 0.643 -0.683 0.704 -0.617 Q 0.739 -0.581 0.739 -0.533 Q 0.739 -0.446 0.632 -0.384 Q 0.58 -0.353 0.519 -0.34 Z"/></g></g><path fill="none" stroke="rgb(0,0,0)" paint-order="fill stroke markers" d=" M 253.38718361136233 323.9063636363636 L 401.723521761364 323.9063636363636" stroke-opacity="0.6980392156862745" stroke-linecap="round" stroke-linejoin="round" stroke-miterlimit="10" stroke-width="2.5"/><g transform="scale(35,35)"><g transform="translate(8.857142857142858,8.914285714285715)"><path fill="rgb(0,0,0)" stroke="none" paint-order="stroke fill markers" d=" M 0.677 -0.162 L 0.677 -0.162 L 0.644 0 L 0.485 0 Q 0.463 0 0.46 -0.007 Q 0.459 -0.011 0.459 -0.021 Q 0.459 -0.09 0.506 -0.222 Q 0.555 -0.36 0.561 -0.425 Q 0.562 -0.44 0.562 -0.455 Q 0.562 -0.587 0.47000000000000003 -0.649 Q 0.42 -0.683 0.36 -0.683 Q 0.275 -0.683 0.216 -0.62 L 0.216 -0.619 Q 0.159 -0.557 0.159 -0.455 Q 0.159 -0.378 0.20800000000000002 -0.243 Q 0.262 -0.093 0.262 -0.021 Q 0.262 -0.004 0.255 -0.001 L 0.255 -0.001 L 0.254 -0.001 Q 0.25 0 0.23700000000000002 0 L 0.077 0 L 0.044 -0.162 L 0.069 -0.162 Q 0.079 -0.11 0.08700000000000001 -0.088 Q 0.092 -0.073 0.105 -0.069 Q 0.11800000000000001 -0.065 0.153 -0.065 L 0.233 -0.065 Q 0.22 -0.12 0.159 -0.212 L 0.153 -0.222 Q 0.15 -0.226 0.14400000000000002 -0.23500000000000001 Q 0.07200000000000001 -0.343 0.06 -0.41200000000000003 Q 0.056 -0.433 0.056 -0.454 Q 0.056 -0.558 0.145 -0.631 Q 0.233 -0.705 0.361 -0.705 Q 0.496 -0.705 0.586 -0.623 Q 0.665 -0.552 0.665 -0.454 Q 0.665 -0.373 0.595 -0.262 L 0.595 -0.262 L 0.594 -0.261 L 0.593 -0.26 L 0.577 -0.23500000000000001 Q 0.509 -0.135 0.493 -0.083 Q 0.49 -0.074 0.488 -0.065 L 0.5680000000000001 -0.065 Q 0.623 -0.065 0.631 -0.08 L 0.634 -0.089 Q 0.642 -0.111 0.652 -0.162 L 0.677 -0.162 Z"/></g><g transform="translate(9.857142857142858,9.064285714285715) scale(0.7,0.7)"><path fill="rgb(0,0,0)" stroke="none" paint-order="stroke fill markers" d=" M 0.294 -0.373 L 0.227 -0.031 Q 0.219 0.007 0.195 0.011 Q 0.19 0.012 0.186 0.012 Q 0.16 0.012 0.157 -0.015 Q 0.157 -0.022 0.167 -0.052000000000000005 L 0.265 -0.373 L 0.182 -0.373 Q 0.10400000000000001 -0.373 0.055 -0.296 Q 0.046 -0.28400000000000003 0.039 -0.28400000000000003 Q 0.027 -0.28400000000000003 0.027 -0.294 Q 0.027 -0.305 0.063 -0.354 Q 0.076 -0.371 0.088 -0.384 Q 0.132 -0.431 0.191 -0.431 L 0.47100000000000003 -0.431 Q 0.505 -0.431 0.51 -0.41600000000000004 L 0.51 -0.41500000000000004 Q 0.511 -0.41200000000000003 0.511 -0.40700000000000003 Q 0.511 -0.373 0.462 -0.373 L 0.294 -0.373 Z"/></g></g><path fill="none" stroke="rgb(0,0,0)" paint-order="fill stroke markers" d=" M 35.24778768636305 323.9063636363636 L 253.38718361136233 323.9063636363636" stroke-opacity="0.6980392156862745" stroke-linejoin="round" stroke-miterlimit="10" stroke-width="2.5" stroke-dasharray="10.5,8"/><path fill="none" stroke="rgb(0,0,0)" paint-order="fill stroke markers" d=" M 132.6836426863631 565.3134454863634 L 522.4270626863633 565.3134454863634" stroke-opacity="0.6980392156862745" stroke-linecap="round" stroke-linejoin="round" stroke-miterlimit="10" stroke-width="2.5"/><g transform="scale(35,35)"><g transform="translate(9.085714285714285,15.742857142857142)"><path fill="rgb(0,0,0)" stroke="none" paint-order="stroke fill markers" d=" M 0.677 -0.162 L 0.677 -0.162 L 0.644 0 L 0.485 0 Q 0.463 0 0.46 -0.007 Q 0.459 -0.011 0.459 -0.021 Q 0.459 -0.09 0.506 -0.222 Q 0.555 -0.36 0.561 -0.425 Q 0.562 -0.44 0.562 -0.455 Q 0.562 -0.587 0.47000000000000003 -0.649 Q 0.42 -0.683 0.36 -0.683 Q 0.275 -0.683 0.216 -0.62 L 0.216 -0.619 Q 0.159 -0.557 0.159 -0.455 Q 0.159 -0.378 0.20800000000000002 -0.243 Q 0.262 -0.093 0.262 -0.021 Q 0.262 -0.004 0.255 -0.001 L 0.255 -0.001 L 0.254 -0.001 Q 0.25 0 0.23700000000000002 0 L 0.077 0 L 0.044 -0.162 L 0.069 -0.162 Q 0.079 -0.11 0.08700000000000001 -0.088 Q 0.092 -0.073 0.105 -0.069 Q 0.11800000000000001 -0.065 0.153 -0.065 L 0.233 -0.065 Q 0.22 -0.12 0.159 -0.212 L 0.153 -0.222 Q 0.15 -0.226 0.14400000000000002 -0.23500000000000001 Q 0.07200000000000001 -0.343 0.06 -0.41200000000000003 Q 0.056 -0.433 0.056 -0.454 Q 0.056 -0.558 0.145 -0.631 Q 0.233 -0.705 0.361 -0.705 Q 0.496 -0.705 0.586 -0.623 Q 0.665 -0.552 0.665 -0.454 Q 0.665 -0.373 0.595 -0.262 L 0.595 -0.262 L 0.594 -0.261 L 0.593 -0.26 L 0.577 -0.23500000000000001 Q 0.509 -0.135 0.493 -0.083 Q 0.49 -0.074 0.488 -0.065 L 0.5680000000000001 -0.065 Q 0.623 -0.065 0.631 -0.08 L 0.634 -0.089 Q 0.642 -0.111 0.652 -0.162 L 0.677 -0.162 Z"/></g><g transform="translate(10.085714285714285,15.892857142857142) scale(0.7,0.7)"><path fill="rgb(0,0,0)" stroke="none" paint-order="stroke fill markers" d=" M 0.46 -0.32 Q 0.46 -0.17400000000000002 0.423 -0.094 Q 0.364 0.018000000000000002 0.249 0.022 Q 0.158 0.022 0.10300000000000001 -0.05 Q 0.092 -0.063 0.084 -0.079 Q 0.039 -0.162 0.039 -0.32 Q 0.039 -0.467 0.076 -0.547 Q 0.126 -0.659 0.23800000000000002 -0.666 L 0.25 -0.666 Q 0.339 -0.666 0.395 -0.595 L 0.395 -0.594 Q 0.40900000000000003 -0.5760000000000001 0.42 -0.554 Q 0.46 -0.46900000000000003 0.46 -0.32 M 0.249 0 L 0.249 0 Q 0.312 0 0.34600000000000003 -0.061 Q 0.36 -0.088 0.366 -0.125 Q 0.377 -0.189 0.377 -0.332 Q 0.377 -0.47100000000000003 0.367 -0.527 Q 0.34900000000000003 -0.622 0.275 -0.641 Q 0.262 -0.644 0.249 -0.644 Q 0.179 -0.644 0.147 -0.5740000000000001 Q 0.136 -0.55 0.13 -0.516 Q 0.122 -0.462 0.122 -0.332 Q 0.122 -0.181 0.133 -0.121 Q 0.151 -0.025 0.221 -0.004 Q 0.23500000000000001 0 0.249 0 Z"/></g></g><path fill="none" stroke="rgb(102,102,102)" paint-order="fill stroke markers" d=" M 401.723521761364 323.9063636363636 L 253.38718361136233 323.9063636363636" stroke-opacity="0.6980392156862745" stroke-linecap="round" stroke-linejoin="round" stroke-miterlimit="10" stroke-width="2.5"/><path fill="none" stroke="rgb(102,102,102)" paint-order="fill stroke markers" d=" M 253.38718361136233 323.9063636363636 L 132.6836426863631 565.3134454863634" stroke-opacity="0.6980392156862745" stroke-linecap="round" stroke-linejoin="round" stroke-miterlimit="10" stroke-width="2.5"/><path fill="none" stroke="rgb(102,102,102)" paint-order="fill stroke markers" d=" M 132.6836426863631 565.3134454863634 L 522.4270626863633 565.3134454863634" stroke-opacity="0.6980392156862745" stroke-linecap="round" stroke-linejoin="round" stroke-miterlimit="10" stroke-width="2.5"/><path fill="none" stroke="rgb(102,102,102)" paint-order="fill stroke markers" d=" M 522.4270626863633 565.3134454863634 L 401.723521761364 323.9063636363636" stroke-opacity="0.6980392156862745" stroke-linecap="round" stroke-linejoin="round" stroke-miterlimit="10" stroke-width="2.5"/><path fill="rgb(77,77,255)" stroke="none" paint-order="stroke fill markers" d=" M 40.24778768636305 565.3134454863634 C 40.24778768636305 568.0748692355174 38.00921143551702 570.3134454863634 35.24778768636305 570.3134454863634 C 32.48636393720908 570.3134454863634 30.247787686363047 568.0748692355174 30.247787686363047 565.3134454863634 C 30.247787686363047 562.5520217372094 32.48636393720908 560.3134454863634 35.24778768636305 560.3134454863634 C 38.00921143551702 560.3134454863634 40.24778768636305 562.5520217372094 40.24778768636305 565.3134454863634 Z" fill-opacity="1"/><path fill="none" stroke="rgb(0,0,0)" paint-order="fill stroke markers" d=" M 40.24778768636305 565.3134454863634 C 40.24778768636305 568.0748692355174 38.00921143551702 570.3134454863634 35.24778768636305 570.3134454863634 C 32.48636393720908 570.3134454863634 30.247787686363047 568.0748692355174 30.247787686363047 565.3134454863634 C 30.247787686363047 562.5520217372094 32.48636393720908 560.3134454863634 35.24778768636305 560.3134454863634 C 38.00921143551702 560.3134454863634 40.24778768636305 562.5520217372094 40.24778768636305 565.3134454863634 Z" stroke-opacity="1" stroke-linecap="round" stroke-linejoin="round" stroke-miterlimit="10"/><text fill="rgb(77,77,255)" stroke="none" font-family="geogebra-sans-serif, sans-serif" font-size="32px" font-style="normal" font-weight="normal" text-decoration="normal" x="4" y="600" text-anchor="start" dominant-baseline="alphabetic" fill-opacity="1">O</text><text fill="none" stroke="rgb(255,255,255)" font-family="geogebra-sans-serif, sans-serif" font-size="32px" font-style="normal" font-weight="normal" text-decoration="normal" x="4" y="600" text-anchor="start" dominant-baseline="alphabetic" stroke-opacity="1" stroke-linecap="round" stroke-linejoin="bevel" stroke-miterlimit="10" stroke-width="3">O</text><text fill="rgb(77,77,255)" stroke="none" font-family="geogebra-sans-serif, sans-serif" font-size="32px" font-style="normal" font-weight="normal" text-decoration="normal" x="4" y="600" text-anchor="start" dominant-baseline="alphabetic" fill-opacity="1">O</text><path fill="rgb(77,77,255)" stroke="none" paint-order="stroke fill markers" d=" M 332.55535268636316 175.5700254863611 C 332.55535268636316 178.33144923551507 330.3167764355171 180.5700254863611 327.55535268636316 180.5700254863611 C 324.7939289372092 180.5700254863611 322.55535268636316 178.33144923551507 322.55535268636316 175.5700254863611 C 322.55535268636316 172.8086017372071 324.7939289372092 170.5700254863611 327.55535268636316 170.5700254863611 C 330.3167764355171 170.5700254863611 332.55535268636316 172.8086017372071 332.55535268636316 175.5700254863611 Z" fill-opacity="1"/><path fill="none" stroke="rgb(0,0,0)" paint-order="fill stroke markers" d=" M 332.55535268636316 175.5700254863611 C 332.55535268636316 178.33144923551507 330.3167764355171 180.5700254863611 327.55535268636316 180.5700254863611 C 324.7939289372092 180.5700254863611 322.55535268636316 178.33144923551507 322.55535268636316 175.5700254863611 C 322.55535268636316 172.8086017372071 324.7939289372092 170.5700254863611 327.55535268636316 170.5700254863611 C 330.3167764355171 170.5700254863611 332.55535268636316 172.8086017372071 332.55535268636316 175.5700254863611 Z" stroke-opacity="1" stroke-linecap="round" stroke-linejoin="round" stroke-miterlimit="10"/><text fill="rgb(77,77,255)" stroke="none" font-family="geogebra-sans-serif, sans-serif" font-size="32px" font-style="normal" font-weight="normal" text-decoration="normal" x="332" y="166" text-anchor="start" dominant-baseline="alphabetic" fill-opacity="1">(x</text><text fill="none" stroke="rgb(255,255,255)" font-family="geogebra-sans-serif, sans-serif" font-size="32px" font-style="normal" font-weight="normal" text-decoration="normal" x="332" y="166" text-anchor="start" dominant-baseline="alphabetic" stroke-opacity="1" stroke-linecap="round" stroke-linejoin="bevel" stroke-miterlimit="10" stroke-width="3">(x</text><text fill="rgb(77,77,255)" stroke="none" font-family="geogebra-sans-serif, sans-serif" font-size="32px" font-style="normal" font-weight="normal" text-decoration="normal" x="332" y="166" text-anchor="start" dominant-baseline="alphabetic" fill-opacity="1">(x</text><text fill="rgb(77,77,255)" stroke="none" font-family="geogebra-sans-serif, sans-serif" font-size="28px" font-style="normal" font-weight="normal" text-decoration="normal" x="359" y="180" text-anchor="start" dominant-baseline="alphabetic" fill-opacity="1">0</text><text fill="none" stroke="rgb(255,255,255)" font-family="geogebra-sans-serif, sans-serif" font-size="28px" font-style="normal" font-weight="normal" text-decoration="normal" x="359" y="180" text-anchor="start" dominant-baseline="alphabetic" stroke-opacity="1" stroke-linecap="round" stroke-linejoin="bevel" stroke-miterlimit="10" stroke-width="3">0</text><text fill="rgb(77,77,255)" stroke="none" font-family="geogebra-sans-serif, sans-serif" font-size="28px" font-style="normal" font-weight="normal" text-decoration="normal" x="359" y="180" text-anchor="start" dominant-baseline="alphabetic" fill-opacity="1">0</text><text fill="rgb(77,77,255)" stroke="none" font-family="geogebra-sans-serif, sans-serif" font-size="32px" font-style="normal" font-weight="normal" text-decoration="normal" x="375" y="166" text-anchor="start" dominant-baseline="alphabetic" fill-opacity="1">, t</text><text fill="none" stroke="rgb(255,255,255)" font-family="geogebra-sans-serif, sans-serif" font-size="32px" font-style="normal" font-weight="normal" text-decoration="normal" x="375" y="166" text-anchor="start" dominant-baseline="alphabetic" stroke-opacity="1" stroke-linecap="round" stroke-linejoin="bevel" stroke-miterlimit="10" stroke-width="3">, t</text><text fill="rgb(77,77,255)" stroke="none" font-family="geogebra-sans-serif, sans-serif" font-size="32px" font-style="normal" font-weight="normal" text-decoration="normal" x="375" y="166" text-anchor="start" dominant-baseline="alphabetic" fill-opacity="1">, t</text><text fill="rgb(77,77,255)" stroke="none" font-family="geogebra-sans-serif, sans-serif" font-size="28px" font-style="normal" font-weight="normal" text-decoration="normal" x="402" y="180" text-anchor="start" dominant-baseline="alphabetic" fill-opacity="1">0</text><text fill="none" stroke="rgb(255,255,255)" font-family="geogebra-sans-serif, sans-serif" font-size="28px" font-style="normal" font-weight="normal" text-decoration="normal" x="402" y="180" text-anchor="start" dominant-baseline="alphabetic" stroke-opacity="1" stroke-linecap="round" stroke-linejoin="bevel" stroke-miterlimit="10" stroke-width="3">0</text><text fill="rgb(77,77,255)" stroke="none" font-family="geogebra-sans-serif, sans-serif" font-size="28px" font-style="normal" font-weight="normal" text-decoration="normal" x="402" y="180" text-anchor="start" dominant-baseline="alphabetic" fill-opacity="1">0</text><text fill="rgb(77,77,255)" stroke="none" font-family="geogebra-sans-serif, sans-serif" font-size="32px" font-style="normal" font-weight="normal" text-decoration="normal" x="418" y="166" text-anchor="start" dominant-baseline="alphabetic" fill-opacity="1">)</text><text fill="none" stroke="rgb(255,255,255)" font-family="geogebra-sans-serif, sans-serif" font-size="32px" font-style="normal" font-weight="normal" text-decoration="normal" x="418" y="166" text-anchor="start" dominant-baseline="alphabetic" stroke-opacity="1" stroke-linecap="round" stroke-linejoin="bevel" stroke-miterlimit="10" stroke-width="3">)</text><text fill="rgb(77,77,255)" stroke="none" font-family="geogebra-sans-serif, sans-serif" font-size="32px" font-style="normal" font-weight="normal" text-decoration="normal" x="418" y="166" text-anchor="start" dominant-baseline="alphabetic" fill-opacity="1">)</text><path fill="rgb(77,77,255)" stroke="none" paint-order="stroke fill markers" d=" M 137.6836426863631 565.3134454863634 C 137.6836426863631 568.0748692355174 135.44506643551708 570.3134454863634 132.6836426863631 570.3134454863634 C 129.92221893720912 570.3134454863634 127.6836426863631 568.0748692355174 127.6836426863631 565.3134454863634 C 127.6836426863631 562.5520217372094 129.92221893720912 560.3134454863634 132.6836426863631 560.3134454863634 C 135.44506643551708 560.3134454863634 137.6836426863631 562.5520217372094 137.6836426863631 565.3134454863634 Z" fill-opacity="1"/><path fill="none" stroke="rgb(0,0,0)" paint-order="fill stroke markers" d=" M 137.6836426863631 565.3134454863634 C 137.6836426863631 568.0748692355174 135.44506643551708 570.3134454863634 132.6836426863631 570.3134454863634 C 129.92221893720912 570.3134454863634 127.6836426863631 568.0748692355174 127.6836426863631 565.3134454863634 C 127.6836426863631 562.5520217372094 129.92221893720912 560.3134454863634 132.6836426863631 560.3134454863634 C 135.44506643551708 560.3134454863634 137.6836426863631 562.5520217372094 137.6836426863631 565.3134454863634 Z" stroke-opacity="1" stroke-linecap="round" stroke-linejoin="round" stroke-miterlimit="10"/><text fill="rgb(77,77,255)" stroke="none" font-family="geogebra-sans-serif, sans-serif" font-size="32px" font-style="normal" font-weight="normal" text-decoration="normal" x="86" y="598" text-anchor="start" dominant-baseline="alphabetic" fill-opacity="1">x</text><text fill="none" stroke="rgb(255,255,255)" font-family="geogebra-sans-serif, sans-serif" font-size="32px" font-style="normal" font-weight="normal" text-decoration="normal" x="86" y="598" text-anchor="start" dominant-baseline="alphabetic" stroke-opacity="1" stroke-linecap="round" stroke-linejoin="bevel" stroke-miterlimit="10" stroke-width="3">x</text><text fill="rgb(77,77,255)" stroke="none" font-family="geogebra-sans-serif, sans-serif" font-size="32px" font-style="normal" font-weight="normal" text-decoration="normal" x="86" y="598" text-anchor="start" dominant-baseline="alphabetic" fill-opacity="1">x</text><text fill="rgb(77,77,255)" stroke="none" font-family="geogebra-sans-serif, sans-serif" font-size="28px" font-style="normal" font-weight="normal" text-decoration="normal" x="102" y="612" text-anchor="start" dominant-baseline="alphabetic" fill-opacity="1">0</text><text fill="none" stroke="rgb(255,255,255)" font-family="geogebra-sans-serif, sans-serif" font-size="28px" font-style="normal" font-weight="normal" text-decoration="normal" x="102" y="612" text-anchor="start" dominant-baseline="alphabetic" stroke-opacity="1" stroke-linecap="round" stroke-linejoin="bevel" stroke-miterlimit="10" stroke-width="3">0</text><text fill="rgb(77,77,255)" stroke="none" font-family="geogebra-sans-serif, sans-serif" font-size="28px" font-style="normal" font-weight="normal" text-decoration="normal" x="102" y="612" text-anchor="start" dominant-baseline="alphabetic" fill-opacity="1">0</text><text fill="rgb(77,77,255)" stroke="none" font-family="geogebra-sans-serif, sans-serif" font-size="32px" font-style="normal" font-weight="normal" text-decoration="normal" x="118" y="598" text-anchor="start" dominant-baseline="alphabetic" fill-opacity="1"> - at</text><text fill="none" stroke="rgb(255,255,255)" font-family="geogebra-sans-serif, sans-serif" font-size="32px" font-style="normal" font-weight="normal" text-decoration="normal" x="118" y="598" text-anchor="start" dominant-baseline="alphabetic" stroke-opacity="1" stroke-linecap="round" stroke-linejoin="bevel" stroke-miterlimit="10" stroke-width="3"> - at</text><text fill="rgb(77,77,255)" stroke="none" font-family="geogebra-sans-serif, sans-serif" font-size="32px" font-style="normal" font-weight="normal" text-decoration="normal" x="118" y="598" text-anchor="start" dominant-baseline="alphabetic" fill-opacity="1"> - at</text><text fill="rgb(77,77,255)" stroke="none" font-family="geogebra-sans-serif, sans-serif" font-size="28px" font-style="normal" font-weight="normal" text-decoration="normal" x="173" y="612" text-anchor="start" dominant-baseline="alphabetic" fill-opacity="1">0</text><text fill="none" stroke="rgb(255,255,255)" font-family="geogebra-sans-serif, sans-serif" font-size="28px" font-style="normal" font-weight="normal" text-decoration="normal" x="173" y="612" text-anchor="start" dominant-baseline="alphabetic" stroke-opacity="1" stroke-linecap="round" stroke-linejoin="bevel" stroke-miterlimit="10" stroke-width="3">0</text><text fill="rgb(77,77,255)" stroke="none" font-family="geogebra-sans-serif, sans-serif" font-size="28px" font-style="normal" font-weight="normal" text-decoration="normal" x="173" y="612" text-anchor="start" dominant-baseline="alphabetic" fill-opacity="1">0</text><path fill="rgb(77,77,255)" stroke="none" paint-order="stroke fill markers" d=" M 527.4270626863633 565.3134454863634 C 527.4270626863633 568.0748692355174 525.1884864355173 570.3134454863634 522.4270626863633 570.3134454863634 C 519.6656389372093 570.3134454863634 517.4270626863633 568.0748692355174 517.4270626863633 565.3134454863634 C 517.4270626863633 562.5520217372094 519.6656389372093 560.3134454863634 522.4270626863633 560.3134454863634 C 525.1884864355173 560.3134454863634 527.4270626863633 562.5520217372094 527.4270626863633 565.3134454863634 Z" fill-opacity="1"/><path fill="none" stroke="rgb(0,0,0)" paint-order="fill stroke markers" d=" M 527.4270626863633 565.3134454863634 C 527.4270626863633 568.0748692355174 525.1884864355173 570.3134454863634 522.4270626863633 570.3134454863634 C 519.6656389372093 570.3134454863634 517.4270626863633 568.0748692355174 517.4270626863633 565.3134454863634 C 517.4270626863633 562.5520217372094 519.6656389372093 560.3134454863634 522.4270626863633 560.3134454863634 C 525.1884864355173 560.3134454863634 527.4270626863633 562.5520217372094 527.4270626863633 565.3134454863634 Z" stroke-opacity="1" stroke-linecap="round" stroke-linejoin="round" stroke-miterlimit="10"/><text fill="rgb(77,77,255)" stroke="none" font-family="geogebra-sans-serif, sans-serif" font-size="32px" font-style="normal" font-weight="normal" text-decoration="normal" x="484" y="600" text-anchor="start" dominant-baseline="alphabetic" fill-opacity="1">x</text><text fill="none" stroke="rgb(255,255,255)" font-family="geogebra-sans-serif, sans-serif" font-size="32px" font-style="normal" font-weight="normal" text-decoration="normal" x="484" y="600" text-anchor="start" dominant-baseline="alphabetic" stroke-opacity="1" stroke-linecap="round" stroke-linejoin="bevel" stroke-miterlimit="10" stroke-width="3">x</text><text fill="rgb(77,77,255)" stroke="none" font-family="geogebra-sans-serif, sans-serif" font-size="32px" font-style="normal" font-weight="normal" text-decoration="normal" x="484" y="600" text-anchor="start" dominant-baseline="alphabetic" fill-opacity="1">x</text><text fill="rgb(77,77,255)" stroke="none" font-family="geogebra-sans-serif, sans-serif" font-size="28px" font-style="normal" font-weight="normal" text-decoration="normal" x="500" y="614" text-anchor="start" dominant-baseline="alphabetic" fill-opacity="1">0</text><text fill="none" stroke="rgb(255,255,255)" font-family="geogebra-sans-serif, sans-serif" font-size="28px" font-style="normal" font-weight="normal" text-decoration="normal" x="500" y="614" text-anchor="start" dominant-baseline="alphabetic" stroke-opacity="1" stroke-linecap="round" stroke-linejoin="bevel" stroke-miterlimit="10" stroke-width="3">0</text><text fill="rgb(77,77,255)" stroke="none" font-family="geogebra-sans-serif, sans-serif" font-size="28px" font-style="normal" font-weight="normal" text-decoration="normal" x="500" y="614" text-anchor="start" dominant-baseline="alphabetic" fill-opacity="1">0</text><text fill="rgb(77,77,255)" stroke="none" font-family="geogebra-sans-serif, sans-serif" font-size="32px" font-style="normal" font-weight="normal" text-decoration="normal" x="516" y="600" text-anchor="start" dominant-baseline="alphabetic" fill-opacity="1"> + at</text><text fill="none" stroke="rgb(255,255,255)" font-family="geogebra-sans-serif, sans-serif" font-size="32px" font-style="normal" font-weight="normal" text-decoration="normal" x="516" y="600" text-anchor="start" dominant-baseline="alphabetic" stroke-opacity="1" stroke-linecap="round" stroke-linejoin="bevel" stroke-miterlimit="10" stroke-width="3"> + at</text><text fill="rgb(77,77,255)" stroke="none" font-family="geogebra-sans-serif, sans-serif" font-size="32px" font-style="normal" font-weight="normal" text-decoration="normal" x="516" y="600" text-anchor="start" dominant-baseline="alphabetic" fill-opacity="1"> + at</text><text fill="rgb(77,77,255)" stroke="none" font-family="geogebra-sans-serif, sans-serif" font-size="28px" font-style="normal" font-weight="normal" text-decoration="normal" x="579" y="614" text-anchor="start" dominant-baseline="alphabetic" fill-opacity="1">0</text><text fill="none" stroke="rgb(255,255,255)" font-family="geogebra-sans-serif, sans-serif" font-size="28px" font-style="normal" font-weight="normal" text-decoration="normal" x="579" y="614" text-anchor="start" dominant-baseline="alphabetic" stroke-opacity="1" stroke-linecap="round" stroke-linejoin="bevel" stroke-miterlimit="10" stroke-width="3">0</text><text fill="rgb(77,77,255)" stroke="none" font-family="geogebra-sans-serif, sans-serif" font-size="28px" font-style="normal" font-weight="normal" text-decoration="normal" x="579" y="614" text-anchor="start" dominant-baseline="alphabetic" fill-opacity="1">0</text></g></g></svg>