<svg version="1.1" xmlns="http://www.w3.org/2000/svg" xmlns:xlink="http://www.w3.org/1999/xlink" width="683" height="615"><defs><clipPath id="QlFvRmTIJayy"><path fill="none" stroke="none" d=" M 0 0 L 683 0 L 683 615 L 0 615 L 0 0 Z"/></clipPath></defs><g transform="scale(1,1)" clip-path="url(#QlFvRmTIJayy)"><g><path fill="none" stroke="rgb(0,0,0)" paint-order="fill stroke markers" d=" M 609.1635694224254 0 C 131.29147685919128 205.92033333333336 131.29147685919128 411.8406666666667 609.1635694224254 617.7610000000001" stroke-opacity="0.6980392156862745" stroke-linecap="round" stroke-linejoin="round" stroke-miterlimit="10" stroke-width="2.5"/><path fill="none" stroke="rgb(0,0,0)" paint-order="fill stroke markers" d=" M 184.20949999999982 620 L 184.20949999999982 -5" stroke-opacity="0.6980392156862745" stroke-linecap="round" stroke-linejoin="round" stroke-miterlimit="10" stroke-width="2.5"/><path fill="none" stroke="rgb(0,0,0)" paint-order="fill stroke markers" d=" M 541.7826630939168 30.545511154542567 L 349.5052653723685 471.01045633788544" stroke-opacity="0.6980392156862745" stroke-linecap="round" stroke-linejoin="round" stroke-miterlimit="10" stroke-width="2.5"/><path fill="none" stroke="rgb(0,0,0)" paint-order="fill stroke markers" d=" M 81.23869012464411 250.77798374621403 L 683 -36.984725055307536" stroke-opacity="0.6980392156862745" stroke-linecap="round" stroke-linejoin="round" stroke-miterlimit="10" stroke-width="2.5"/><path fill="none" stroke="rgb(0,0,0)" paint-order="fill stroke markers" d=" M 81.23869012464411 250.77798374621403 L 683 744.7917499467678" stroke-opacity="0.6980392156862745" stroke-linecap="round" stroke-linejoin="round" stroke-miterlimit="10" stroke-width="2.5"/><path fill="none" stroke="rgb(0,0,0)" paint-order="fill stroke markers" d=" M 81.23869012464411 250.77798374621403 L 445.6439642331426 250.77798374621403" stroke-opacity="0.6980392156862745" stroke-linecap="round" stroke-linejoin="round" stroke-miterlimit="10" stroke-width="2.5"/><path fill="none" stroke="rgb(0,0,0)" paint-order="fill stroke markers" d=" M 184.20949999999982 30.545511154542567 L 541.7826630939168 30.545511154542567" stroke-opacity="0.6980392156862745" stroke-linejoin="round" stroke-miterlimit="10" stroke-width="2.5" stroke-dasharray="10.5,8"/><path fill="none" stroke="rgb(0,0,0)" paint-order="fill stroke markers" d=" M 184.20949999999982 471.01045633788544 L 349.5052653723685 471.01045633788544" stroke-opacity="0.6980392156862745" stroke-linejoin="round" stroke-miterlimit="10" stroke-width="2.5" stroke-dasharray="10.5,8"/><path fill="none" stroke="rgb(0,0,0)" paint-order="fill stroke markers" d=" M 263.44132717889335 250.77798374621403 L 541.7826630939168 30.545511154542567" stroke-opacity="0.6980392156862745" stroke-linejoin="round" stroke-miterlimit="10" stroke-width="2.5" stroke-dasharray="2.5,3"/><path fill="none" stroke="rgb(0,0,0)" paint-order="fill stroke markers" d=" M 311.5106766092804 140.66174745037827 L 215.3719777485063 360.89422004204977" stroke-opacity="0.6980392156862745" stroke-linejoin="round" stroke-miterlimit="10" stroke-width="2.5" stroke-dasharray="2.5,3"/><path fill="none" stroke="rgb(0,0,0)" paint-order="fill stroke markers" d=" M 311.5106766092804 140.66174745037827 L 402.6119951364051 140.66174745037827" stroke-opacity="0.6980392156862745" stroke-linejoin="round" stroke-miterlimit="10" stroke-width="2.5" stroke-dasharray="2.5,3"/><path fill="rgb(77,77,255)" stroke="none" paint-order="stroke fill markers" d=" M 322.30949999999984 308.88050000000004 C 322.30949999999984 311.641923749154 320.0709237491538 313.88050000000004 317.30949999999984 313.88050000000004 C 314.5480762508459 313.88050000000004 312.30949999999984 311.641923749154 312.30949999999984 308.88050000000004 C 312.30949999999984 306.1190762508461 314.5480762508459 303.88050000000004 317.30949999999984 303.88050000000004 C 320.0709237491538 303.88050000000004 322.30949999999984 306.1190762508461 322.30949999999984 308.88050000000004 Z" fill-opacity="1"/><path fill="none" stroke="rgb(0,0,0)" paint-order="fill stroke markers" d=" M 322.30949999999984 308.88050000000004 C 322.30949999999984 311.641923749154 320.0709237491538 313.88050000000004 317.30949999999984 313.88050000000004 C 314.5480762508459 313.88050000000004 312.30949999999984 311.641923749154 312.30949999999984 308.88050000000004 C 312.30949999999984 306.1190762508461 314.5480762508459 303.88050000000004 317.30949999999984 303.88050000000004 C 320.0709237491538 303.88050000000004 322.30949999999984 306.1190762508461 322.30949999999984 308.88050000000004 Z" stroke-opacity="1" stroke-linecap="round" stroke-linejoin="round" stroke-miterlimit="10"/><text fill="rgb(77,77,255)" stroke="none" font-family="geogebra-sans-serif, sans-serif" font-size="32px" font-style="normal" font-weight="normal" text-decoration="normal" x="321" y="299" text-anchor="start" dominant-baseline="alphabetic" fill-opacity="1">S</text><text fill="none" stroke="rgb(255,255,255)" font-family="geogebra-sans-serif, sans-serif" font-size="32px" font-style="normal" font-weight="normal" text-decoration="normal" x="321" y="299" text-anchor="start" dominant-baseline="alphabetic" stroke-opacity="1" stroke-linecap="round" stroke-linejoin="bevel" stroke-miterlimit="10" stroke-width="3">S</text><text fill="rgb(77,77,255)" stroke="none" font-family="geogebra-sans-serif, sans-serif" font-size="32px" font-style="normal" font-weight="normal" text-decoration="normal" x="321" y="299" text-anchor="start" dominant-baseline="alphabetic" fill-opacity="1">S</text><path fill="rgb(125,125,255)" stroke="none" paint-order="stroke fill markers" d=" M 546.7826630939168 30.545511154542567 C 546.7826630939168 33.30693490369653 544.5440868430708 35.54551115454257 541.7826630939168 35.54551115454257 C 539.0212393447628 35.54551115454257 536.7826630939168 33.30693490369653 536.7826630939168 30.545511154542567 C 536.7826630939168 27.7840874053886 539.0212393447628 25.545511154542567 541.7826630939168 25.545511154542567 C 544.5440868430708 25.545511154542567 546.7826630939168 27.7840874053886 546.7826630939168 30.545511154542567 Z" fill-opacity="1"/><path fill="none" stroke="rgb(0,0,0)" paint-order="fill stroke markers" d=" M 546.7826630939168 30.545511154542567 C 546.7826630939168 33.30693490369653 544.5440868430708 35.54551115454257 541.7826630939168 35.54551115454257 C 539.0212393447628 35.54551115454257 536.7826630939168 33.30693490369653 536.7826630939168 30.545511154542567 C 536.7826630939168 27.7840874053886 539.0212393447628 25.545511154542567 541.7826630939168 25.545511154542567 C 544.5440868430708 25.545511154542567 546.7826630939168 27.7840874053886 546.7826630939168 30.545511154542567 Z" stroke-opacity="1" stroke-linecap="round" stroke-linejoin="round" stroke-miterlimit="10"/><text fill="rgb(125,125,255)" stroke="none" font-family="geogebra-sans-serif, sans-serif" font-size="32px" font-style="normal" font-weight="normal" text-decoration="normal" x="546" y="32" text-anchor="start" dominant-baseline="alphabetic" fill-opacity="1">P</text><text fill="none" stroke="rgb(255,255,255)" font-family="geogebra-sans-serif, sans-serif" font-size="32px" font-style="normal" font-weight="normal" text-decoration="normal" x="546" y="32" text-anchor="start" dominant-baseline="alphabetic" stroke-opacity="1" stroke-linecap="round" stroke-linejoin="bevel" stroke-miterlimit="10" stroke-width="3">P</text><text fill="rgb(125,125,255)" stroke="none" font-family="geogebra-sans-serif, sans-serif" font-size="32px" font-style="normal" font-weight="normal" text-decoration="normal" x="546" y="32" text-anchor="start" dominant-baseline="alphabetic" fill-opacity="1">P</text><path fill="rgb(125,125,255)" stroke="none" paint-order="stroke fill markers" d=" M 354.5052653723685 471.01045633788544 C 354.5052653723685 473.7718800870394 352.26668912152246 476.01045633788544 349.5052653723685 476.01045633788544 C 346.74384162321456 476.01045633788544 344.5052653723685 473.7718800870394 344.5052653723685 471.01045633788544 C 344.5052653723685 468.2490325887315 346.74384162321456 466.01045633788544 349.5052653723685 466.01045633788544 C 352.26668912152246 466.01045633788544 354.5052653723685 468.2490325887315 354.5052653723685 471.01045633788544 Z" fill-opacity="1"/><path fill="none" stroke="rgb(0,0,0)" paint-order="fill stroke markers" d=" M 354.5052653723685 471.01045633788544 C 354.5052653723685 473.7718800870394 352.26668912152246 476.01045633788544 349.5052653723685 476.01045633788544 C 346.74384162321456 476.01045633788544 344.5052653723685 473.7718800870394 344.5052653723685 471.01045633788544 C 344.5052653723685 468.2490325887315 346.74384162321456 466.01045633788544 349.5052653723685 466.01045633788544 C 352.26668912152246 466.01045633788544 354.5052653723685 468.2490325887315 354.5052653723685 471.01045633788544 Z" stroke-opacity="1" stroke-linecap="round" stroke-linejoin="round" stroke-miterlimit="10"/><text fill="rgb(125,125,255)" stroke="none" font-family="geogebra-sans-serif, sans-serif" font-size="32px" font-style="normal" font-weight="normal" text-decoration="normal" x="354" y="461" text-anchor="start" dominant-baseline="alphabetic" fill-opacity="1">Q</text><text fill="none" stroke="rgb(255,255,255)" font-family="geogebra-sans-serif, sans-serif" font-size="32px" font-style="normal" font-weight="normal" text-decoration="normal" x="354" y="461" text-anchor="start" dominant-baseline="alphabetic" stroke-opacity="1" stroke-linecap="round" stroke-linejoin="bevel" stroke-miterlimit="10" stroke-width="3">Q</text><text fill="rgb(125,125,255)" stroke="none" font-family="geogebra-sans-serif, sans-serif" font-size="32px" font-style="normal" font-weight="normal" text-decoration="normal" x="354" y="461" text-anchor="start" dominant-baseline="alphabetic" fill-opacity="1">Q</text><path fill="rgb(68,68,68)" stroke="none" paint-order="stroke fill markers" d=" M 85.23869012464411 250.77798374621403 C 85.23869012464411 252.9871227455372 83.44782912396728 254.77798374621403 81.23869012464411 254.77798374621403 C 79.02955112532094 254.77798374621403 77.23869012464411 252.9871227455372 77.23869012464411 250.77798374621403 C 77.23869012464411 248.56884474689085 79.02955112532094 246.77798374621403 81.23869012464411 246.77798374621403 C 83.44782912396728 246.77798374621403 85.23869012464411 248.56884474689085 85.23869012464411 250.77798374621403 Z" fill-opacity="1"/><path fill="none" stroke="rgb(0,0,0)" paint-order="fill stroke markers" d=" M 85.23869012464411 250.77798374621403 C 85.23869012464411 252.9871227455372 83.44782912396728 254.77798374621403 81.23869012464411 254.77798374621403 C 79.02955112532094 254.77798374621403 77.23869012464411 252.9871227455372 77.23869012464411 250.77798374621403 C 77.23869012464411 248.56884474689085 79.02955112532094 246.77798374621403 81.23869012464411 246.77798374621403 C 83.44782912396728 246.77798374621403 85.23869012464411 248.56884474689085 85.23869012464411 250.77798374621403 Z" stroke-opacity="1" stroke-linecap="round" stroke-linejoin="round" stroke-miterlimit="10"/><text fill="rgb(68,68,68)" stroke="none" font-family="geogebra-sans-serif, sans-serif" font-size="32px" font-style="normal" font-weight="normal" text-decoration="normal" x="85" y="243" text-anchor="start" dominant-baseline="alphabetic" fill-opacity="1">O</text><text fill="none" stroke="rgb(255,255,255)" font-family="geogebra-sans-serif, sans-serif" font-size="32px" font-style="normal" font-weight="normal" text-decoration="normal" x="85" y="243" text-anchor="start" dominant-baseline="alphabetic" stroke-opacity="1" stroke-linecap="round" stroke-linejoin="bevel" stroke-miterlimit="10" stroke-width="3">O</text><text fill="rgb(68,68,68)" stroke="none" font-family="geogebra-sans-serif, sans-serif" font-size="32px" font-style="normal" font-weight="normal" text-decoration="normal" x="85" y="243" text-anchor="start" dominant-baseline="alphabetic" fill-opacity="1">O</text><path fill="rgb(68,68,68)" stroke="none" paint-order="stroke fill markers" d=" M 449.6439642331426 250.77798374621403 C 449.6439642331426 252.9871227455372 447.85310323246574 254.77798374621403 445.6439642331426 254.77798374621403 C 443.4348252338194 254.77798374621403 441.6439642331426 252.9871227455372 441.6439642331426 250.77798374621403 C 441.6439642331426 248.56884474689085 443.4348252338194 246.77798374621403 445.6439642331426 246.77798374621403 C 447.85310323246574 246.77798374621403 449.6439642331426 248.56884474689085 449.6439642331426 250.77798374621403 Z" fill-opacity="1"/><path fill="none" stroke="rgb(0,0,0)" paint-order="fill stroke markers" d=" M 449.6439642331426 250.77798374621403 C 449.6439642331426 252.9871227455372 447.85310323246574 254.77798374621403 445.6439642331426 254.77798374621403 C 443.4348252338194 254.77798374621403 441.6439642331426 252.9871227455372 441.6439642331426 250.77798374621403 C 441.6439642331426 248.56884474689085 443.4348252338194 246.77798374621403 445.6439642331426 246.77798374621403 C 447.85310323246574 246.77798374621403 449.6439642331426 248.56884474689085 449.6439642331426 250.77798374621403 Z" stroke-opacity="1" stroke-linecap="round" stroke-linejoin="round" stroke-miterlimit="10"/><text fill="rgb(68,68,68)" stroke="none" font-family="geogebra-sans-serif, sans-serif" font-size="32px" font-style="normal" font-weight="normal" text-decoration="normal" x="450" y="243" text-anchor="start" dominant-baseline="alphabetic" fill-opacity="1">V</text><text fill="none" stroke="rgb(255,255,255)" font-family="geogebra-sans-serif, sans-serif" font-size="32px" font-style="normal" font-weight="normal" text-decoration="normal" x="450" y="243" text-anchor="start" dominant-baseline="alphabetic" stroke-opacity="1" stroke-linecap="round" stroke-linejoin="bevel" stroke-miterlimit="10" stroke-width="3">V</text><text fill="rgb(68,68,68)" stroke="none" font-family="geogebra-sans-serif, sans-serif" font-size="32px" font-style="normal" font-weight="normal" text-decoration="normal" x="450" y="243" text-anchor="start" dominant-baseline="alphabetic" fill-opacity="1">V</text><path fill="rgb(68,68,68)" stroke="none" paint-order="stroke fill markers" d=" M 267.44132717889335 250.77798374621403 C 267.44132717889335 252.9871227455372 265.6504661782165 254.77798374621403 263.44132717889335 254.77798374621403 C 261.2321881795702 254.77798374621403 259.44132717889335 252.9871227455372 259.44132717889335 250.77798374621403 C 259.44132717889335 248.56884474689085 261.2321881795702 246.77798374621403 263.44132717889335 246.77798374621403 C 265.6504661782165 246.77798374621403 267.44132717889335 248.56884474689085 267.44132717889335 250.77798374621403 Z" fill-opacity="1"/><path fill="none" stroke="rgb(0,0,0)" paint-order="fill stroke markers" d=" M 267.44132717889335 250.77798374621403 C 267.44132717889335 252.9871227455372 265.6504661782165 254.77798374621403 263.44132717889335 254.77798374621403 C 261.2321881795702 254.77798374621403 259.44132717889335 252.9871227455372 259.44132717889335 250.77798374621403 C 259.44132717889335 248.56884474689085 261.2321881795702 246.77798374621403 263.44132717889335 246.77798374621403 C 265.6504661782165 246.77798374621403 267.44132717889335 248.56884474689085 267.44132717889335 250.77798374621403 Z" stroke-opacity="1" stroke-linecap="round" stroke-linejoin="round" stroke-miterlimit="10"/><text fill="rgb(68,68,68)" stroke="none" font-family="geogebra-sans-serif, sans-serif" font-size="32px" font-style="normal" font-weight="normal" text-decoration="normal" x="267" y="243" text-anchor="start" dominant-baseline="alphabetic" fill-opacity="1">A</text><text fill="none" stroke="rgb(255,255,255)" font-family="geogebra-sans-serif, sans-serif" font-size="32px" font-style="normal" font-weight="normal" text-decoration="normal" x="267" y="243" text-anchor="start" dominant-baseline="alphabetic" stroke-opacity="1" stroke-linecap="round" stroke-linejoin="bevel" stroke-miterlimit="10" stroke-width="3">A</text><text fill="rgb(68,68,68)" stroke="none" font-family="geogebra-sans-serif, sans-serif" font-size="32px" font-style="normal" font-weight="normal" text-decoration="normal" x="267" y="243" text-anchor="start" dominant-baseline="alphabetic" fill-opacity="1">A</text><path fill="rgb(68,68,68)" stroke="none" paint-order="stroke fill markers" d=" M 188.20949999999982 30.545511154542567 C 188.20949999999982 32.75465015386574 186.41863899932298 34.54551115454257 184.20949999999982 34.54551115454257 C 182.00036100067663 34.54551115454257 180.20949999999982 32.75465015386574 180.20949999999982 30.545511154542567 C 180.20949999999982 28.336372155219394 182.00036100067663 26.545511154542567 184.20949999999982 26.545511154542567 C 186.41863899932298 26.545511154542567 188.20949999999982 28.336372155219394 188.20949999999982 30.545511154542567 Z" fill-opacity="1"/><path fill="none" stroke="rgb(0,0,0)" paint-order="fill stroke markers" d=" M 188.20949999999982 30.545511154542567 C 188.20949999999982 32.75465015386574 186.41863899932298 34.54551115454257 184.20949999999982 34.54551115454257 C 182.00036100067663 34.54551115454257 180.20949999999982 32.75465015386574 180.20949999999982 30.545511154542567 C 180.20949999999982 28.336372155219394 182.00036100067663 26.545511154542567 184.20949999999982 26.545511154542567 C 186.41863899932298 26.545511154542567 188.20949999999982 28.336372155219394 188.20949999999982 30.545511154542567 Z" stroke-opacity="1" stroke-linecap="round" stroke-linejoin="round" stroke-miterlimit="10"/><text fill="rgb(68,68,68)" stroke="none" font-family="geogebra-sans-serif, sans-serif" font-size="32px" font-style="normal" font-weight="normal" text-decoration="normal" x="188" y="32" text-anchor="start" dominant-baseline="alphabetic" fill-opacity="1">M</text><text fill="none" stroke="rgb(255,255,255)" font-family="geogebra-sans-serif, sans-serif" font-size="32px" font-style="normal" font-weight="normal" text-decoration="normal" x="188" y="32" text-anchor="start" dominant-baseline="alphabetic" stroke-opacity="1" stroke-linecap="round" stroke-linejoin="bevel" stroke-miterlimit="10" stroke-width="3">M</text><text fill="rgb(68,68,68)" stroke="none" font-family="geogebra-sans-serif, sans-serif" font-size="32px" font-style="normal" font-weight="normal" text-decoration="normal" x="188" y="32" text-anchor="start" dominant-baseline="alphabetic" fill-opacity="1">M</text><path fill="rgb(68,68,68)" stroke="none" paint-order="stroke fill markers" d=" M 188.20949999999982 471.01045633788544 C 188.20949999999982 473.2195953372086 186.41863899932298 475.01045633788544 184.20949999999982 475.01045633788544 C 182.00036100067663 475.01045633788544 180.20949999999982 473.2195953372086 180.20949999999982 471.01045633788544 C 180.20949999999982 468.8013173385623 182.00036100067663 467.01045633788544 184.20949999999982 467.01045633788544 C 186.41863899932298 467.01045633788544 188.20949999999982 468.8013173385623 188.20949999999982 471.01045633788544 Z" fill-opacity="1"/><path fill="none" stroke="rgb(0,0,0)" paint-order="fill stroke markers" d=" M 188.20949999999982 471.01045633788544 C 188.20949999999982 473.2195953372086 186.41863899932298 475.01045633788544 184.20949999999982 475.01045633788544 C 182.00036100067663 475.01045633788544 180.20949999999982 473.2195953372086 180.20949999999982 471.01045633788544 C 180.20949999999982 468.8013173385623 182.00036100067663 467.01045633788544 184.20949999999982 467.01045633788544 C 186.41863899932298 467.01045633788544 188.20949999999982 468.8013173385623 188.20949999999982 471.01045633788544 Z" stroke-opacity="1" stroke-linecap="round" stroke-linejoin="round" stroke-miterlimit="10"/><text fill="rgb(68,68,68)" stroke="none" font-family="geogebra-sans-serif, sans-serif" font-size="32px" font-style="normal" font-weight="normal" text-decoration="normal" x="188" y="463" text-anchor="start" dominant-baseline="alphabetic" fill-opacity="1">N</text><text fill="none" stroke="rgb(255,255,255)" font-family="geogebra-sans-serif, sans-serif" font-size="32px" font-style="normal" font-weight="normal" text-decoration="normal" x="188" y="463" text-anchor="start" dominant-baseline="alphabetic" stroke-opacity="1" stroke-linecap="round" stroke-linejoin="bevel" stroke-miterlimit="10" stroke-width="3">N</text><text fill="rgb(68,68,68)" stroke="none" font-family="geogebra-sans-serif, sans-serif" font-size="32px" font-style="normal" font-weight="normal" text-decoration="normal" x="188" y="463" text-anchor="start" dominant-baseline="alphabetic" fill-opacity="1">N</text><path fill="rgb(68,68,68)" stroke="none" paint-order="stroke fill markers" d=" M 315.5106766092804 140.66174745037827 C 315.5106766092804 142.87088644970146 313.71981560860354 144.66174745037827 311.5106766092804 144.66174745037827 C 309.3015376099572 144.66174745037827 307.5106766092804 142.87088644970146 307.5106766092804 140.66174745037827 C 307.5106766092804 138.45260845105508 309.3015376099572 136.66174745037827 311.5106766092804 136.66174745037827 C 313.71981560860354 136.66174745037827 315.5106766092804 138.45260845105508 315.5106766092804 140.66174745037827 Z" fill-opacity="1"/><path fill="none" stroke="rgb(0,0,0)" paint-order="fill stroke markers" d=" M 315.5106766092804 140.66174745037827 C 315.5106766092804 142.87088644970146 313.71981560860354 144.66174745037827 311.5106766092804 144.66174745037827 C 309.3015376099572 144.66174745037827 307.5106766092804 142.87088644970146 307.5106766092804 140.66174745037827 C 307.5106766092804 138.45260845105508 309.3015376099572 136.66174745037827 311.5106766092804 136.66174745037827 C 313.71981560860354 136.66174745037827 315.5106766092804 138.45260845105508 315.5106766092804 140.66174745037827 Z" stroke-opacity="1" stroke-linecap="round" stroke-linejoin="round" stroke-miterlimit="10"/><text fill="rgb(68,68,68)" stroke="none" font-family="geogebra-sans-serif, sans-serif" font-size="32px" font-style="normal" font-weight="normal" text-decoration="normal" x="316" y="133" text-anchor="start" dominant-baseline="alphabetic" fill-opacity="1">Y</text><text fill="none" stroke="rgb(255,255,255)" font-family="geogebra-sans-serif, sans-serif" font-size="32px" font-style="normal" font-weight="normal" text-decoration="normal" x="316" y="133" text-anchor="start" dominant-baseline="alphabetic" stroke-opacity="1" stroke-linecap="round" stroke-linejoin="bevel" stroke-miterlimit="10" stroke-width="3">Y</text><text fill="rgb(68,68,68)" stroke="none" font-family="geogebra-sans-serif, sans-serif" font-size="32px" font-style="normal" font-weight="normal" text-decoration="normal" x="316" y="133" text-anchor="start" dominant-baseline="alphabetic" fill-opacity="1">Y</text><path fill="rgb(68,68,68)" stroke="none" paint-order="stroke fill markers" d=" M 219.3719777485063 360.89422004204977 C 219.3719777485063 363.1033590413729 217.58111674782947 364.89422004204977 215.3719777485063 364.89422004204977 C 213.16283874918312 364.89422004204977 211.3719777485063 363.1033590413729 211.3719777485063 360.89422004204977 C 211.3719777485063 358.6850810427266 213.16283874918312 356.89422004204977 215.3719777485063 356.89422004204977 C 217.58111674782947 356.89422004204977 219.3719777485063 358.6850810427266 219.3719777485063 360.89422004204977 Z" fill-opacity="1"/><path fill="none" stroke="rgb(0,0,0)" paint-order="fill stroke markers" d=" M 219.3719777485063 360.89422004204977 C 219.3719777485063 363.1033590413729 217.58111674782947 364.89422004204977 215.3719777485063 364.89422004204977 C 213.16283874918312 364.89422004204977 211.3719777485063 363.1033590413729 211.3719777485063 360.89422004204977 C 211.3719777485063 358.6850810427266 213.16283874918312 356.89422004204977 215.3719777485063 356.89422004204977 C 217.58111674782947 356.89422004204977 219.3719777485063 358.6850810427266 219.3719777485063 360.89422004204977 Z" stroke-opacity="1" stroke-linecap="round" stroke-linejoin="round" stroke-miterlimit="10"/><text fill="rgb(68,68,68)" stroke="none" font-family="geogebra-sans-serif, sans-serif" font-size="32px" font-style="normal" font-weight="normal" text-decoration="normal" x="219" y="353" text-anchor="start" dominant-baseline="alphabetic" fill-opacity="1">Z</text><text fill="none" stroke="rgb(255,255,255)" font-family="geogebra-sans-serif, sans-serif" font-size="32px" font-style="normal" font-weight="normal" text-decoration="normal" x="219" y="353" text-anchor="start" dominant-baseline="alphabetic" stroke-opacity="1" stroke-linecap="round" stroke-linejoin="bevel" stroke-miterlimit="10" stroke-width="3">Z</text><text fill="rgb(68,68,68)" stroke="none" font-family="geogebra-sans-serif, sans-serif" font-size="32px" font-style="normal" font-weight="normal" text-decoration="normal" x="219" y="353" text-anchor="start" dominant-baseline="alphabetic" fill-opacity="1">Z</text><path fill="rgb(68,68,68)" stroke="none" paint-order="stroke fill markers" d=" M 406.6119951364051 140.66174745037827 C 406.6119951364051 142.87088644970146 404.82113413572824 144.66174745037827 402.6119951364051 144.66174745037827 C 400.4028561370819 144.66174745037827 398.6119951364051 142.87088644970146 398.6119951364051 140.66174745037827 C 398.6119951364051 138.45260845105508 400.4028561370819 136.66174745037827 402.6119951364051 136.66174745037827 C 404.82113413572824 136.66174745037827 406.6119951364051 138.45260845105508 406.6119951364051 140.66174745037827 Z" fill-opacity="1"/><path fill="none" stroke="rgb(0,0,0)" paint-order="fill stroke markers" d=" M 406.6119951364051 140.66174745037827 C 406.6119951364051 142.87088644970146 404.82113413572824 144.66174745037827 402.6119951364051 144.66174745037827 C 400.4028561370819 144.66174745037827 398.6119951364051 142.87088644970146 398.6119951364051 140.66174745037827 C 398.6119951364051 138.45260845105508 400.4028561370819 136.66174745037827 402.6119951364051 136.66174745037827 C 404.82113413572824 136.66174745037827 406.6119951364051 138.45260845105508 406.6119951364051 140.66174745037827 Z" stroke-opacity="1" stroke-linecap="round" stroke-linejoin="round" stroke-miterlimit="10"/><text fill="rgb(68,68,68)" stroke="none" font-family="geogebra-sans-serif, sans-serif" font-size="32px" font-style="normal" font-weight="normal" text-decoration="normal" x="407" y="133" text-anchor="start" dominant-baseline="alphabetic" fill-opacity="1">W</text><text fill="none" stroke="rgb(255,255,255)" font-family="geogebra-sans-serif, sans-serif" font-size="32px" font-style="normal" font-weight="normal" text-decoration="normal" x="407" y="133" text-anchor="start" dominant-baseline="alphabetic" stroke-opacity="1" stroke-linecap="round" stroke-linejoin="bevel" stroke-miterlimit="10" stroke-width="3">W</text><text fill="rgb(68,68,68)" stroke="none" font-family="geogebra-sans-serif, sans-serif" font-size="32px" font-style="normal" font-weight="normal" text-decoration="normal" x="407" y="133" text-anchor="start" dominant-baseline="alphabetic" fill-opacity="1">W</text></g></g></svg>