<svg version="1.1" xmlns="http://www.w3.org/2000/svg" xmlns:xlink="http://www.w3.org/1999/xlink" width="683" height="617"><defs><clipPath id="TMEhXVrFJTtu"><path fill="none" stroke="none" d=" M 0 0 L 683 0 L 683 617 L 0 617 L 0 0 Z"/></clipPath></defs><g transform="scale(1,1)" clip-path="url(#TMEhXVrFJTtu)"><g><path fill="none" stroke="rgb(0,0,0)" paint-order="fill stroke markers" d=" M 1761.1537797678402 -332.8018477485161 C -282.37386475528524 178.08006338226505 -282.37386475528524 688.9619745130461 1761.1537797678402 1199.8438856438272" stroke-opacity="0.6980392156862745" stroke-linecap="round" stroke-linejoin="round" stroke-miterlimit="10" stroke-width="2.5"/><path fill="none" stroke="rgb(0,0,0)" paint-order="fill stroke markers" d=" M 132.71768803847456 622 L 132.71768803847456 -5" stroke-opacity="0.6980392156862745" stroke-linecap="round" stroke-linejoin="round" stroke-miterlimit="10" stroke-width="2.5"/><path fill="none" stroke="rgb(0,0,0)" paint-order="fill stroke markers" d=" M 460.81922798550056 135.17108124282424 L 268.005898724846 556.5415608109882" stroke-opacity="0.6980392156862745" stroke-linecap="round" stroke-linejoin="round" stroke-miterlimit="10" stroke-width="2.5"/><path fill="none" stroke="rgb(0,0,0)" paint-order="fill stroke markers" d=" M 132.71768803847456 405.4009246749616 L 460.81922798550056 135.17108124282424" stroke-opacity="0.6980392156862745" stroke-linecap="round" stroke-linejoin="round" stroke-miterlimit="10" stroke-width="2.5"/><path fill="none" stroke="rgb(0,0,0)" paint-order="fill stroke markers" d=" M 132.71768803847456 405.4009246749616 L 324.2984047125176 433.5210189476556" stroke-opacity="0.6980392156862745" stroke-linecap="round" stroke-linejoin="round" stroke-miterlimit="10" stroke-width="2.5"/><path fill="none" stroke="rgb(0,0,0)" paint-order="fill stroke markers" d=" M 132.71768803847456 135.17108124282424 L 460.81922798550056 135.17108124282424" stroke-opacity="0.6980392156862745" stroke-linejoin="round" stroke-miterlimit="10" stroke-width="2.5" stroke-dasharray="10.5,8"/><path fill="none" stroke="rgb(0,0,0)" paint-order="fill stroke markers" d=" M 132.71768803847456 266.6527012106612 L 301.17985789124043 266.6527012106612" stroke-opacity="0.6980392156862745" stroke-linejoin="round" stroke-miterlimit="10" stroke-width="2.5" stroke-dasharray="10.5,8"/><path fill="none" stroke="rgb(0,0,0)" paint-order="fill stroke markers" d=" M 460.81922798550056 135.17108124282424 L 279.27208919000077 108.52370907251748" stroke-opacity="0.6980392156862745" stroke-linejoin="round" stroke-miterlimit="10" stroke-width="2.5" stroke-dasharray="2.5,3"/><path fill="none" stroke="rgb(0,0,0)" paint-order="fill stroke markers" d=" M 301.17985789124043 266.6527012106612 L 324.2984047125176 433.5210189476556" stroke-opacity="0.6980392156862745" stroke-linecap="round" stroke-linejoin="round" stroke-miterlimit="10" stroke-width="2.5"/><path fill="none" stroke="rgb(0,0,0)" paint-order="fill stroke markers" d=" M 301.17985789124043 266.6527012106612 L 279.27208919000077 108.52370907251748" stroke-opacity="0.6980392156862745" stroke-linejoin="round" stroke-miterlimit="10" stroke-width="2.5" stroke-dasharray="2.5,3"/><path fill="rgb(77,77,255)" stroke="none" paint-order="stroke fill markers" d=" M 329.2984047125176 433.5210189476556 C 329.2984047125176 436.28244269680954 327.05982846167154 438.5210189476556 324.2984047125176 438.5210189476556 C 321.53698096336365 438.5210189476556 319.2984047125176 436.28244269680954 319.2984047125176 433.5210189476556 C 319.2984047125176 430.75959519850164 321.53698096336365 428.5210189476556 324.2984047125176 428.5210189476556 C 327.05982846167154 428.5210189476556 329.2984047125176 430.75959519850164 329.2984047125176 433.5210189476556 Z" fill-opacity="1"/><path fill="none" stroke="rgb(0,0,0)" paint-order="fill stroke markers" d=" M 329.2984047125176 433.5210189476556 C 329.2984047125176 436.28244269680954 327.05982846167154 438.5210189476556 324.2984047125176 438.5210189476556 C 321.53698096336365 438.5210189476556 319.2984047125176 436.28244269680954 319.2984047125176 433.5210189476556 C 319.2984047125176 430.75959519850164 321.53698096336365 428.5210189476556 324.2984047125176 428.5210189476556 C 327.05982846167154 428.5210189476556 329.2984047125176 430.75959519850164 329.2984047125176 433.5210189476556 Z" stroke-opacity="1" stroke-linecap="round" stroke-linejoin="round" stroke-miterlimit="10"/><text fill="rgb(77,77,255)" stroke="none" font-family="geogebra-sans-serif, sans-serif" font-size="32px" font-style="normal" font-weight="normal" text-decoration="normal" x="328" y="424" text-anchor="start" dominant-baseline="alphabetic" fill-opacity="1">S</text><text fill="none" stroke="rgb(255,255,255)" font-family="geogebra-sans-serif, sans-serif" font-size="32px" font-style="normal" font-weight="normal" text-decoration="normal" x="328" y="424" text-anchor="start" dominant-baseline="alphabetic" stroke-opacity="1" stroke-linecap="round" stroke-linejoin="bevel" stroke-miterlimit="10" stroke-width="3">S</text><text fill="rgb(77,77,255)" stroke="none" font-family="geogebra-sans-serif, sans-serif" font-size="32px" font-style="normal" font-weight="normal" text-decoration="normal" x="328" y="424" text-anchor="start" dominant-baseline="alphabetic" fill-opacity="1">S</text><path fill="rgb(77,77,255)" stroke="none" paint-order="stroke fill markers" d=" M 465.81922798550056 135.17108124282424 C 465.81922798550056 137.93250499197822 463.5806517346545 140.17108124282424 460.81922798550056 140.17108124282424 C 458.0578042363466 140.17108124282424 455.81922798550056 137.93250499197822 455.81922798550056 135.17108124282424 C 455.81922798550056 132.40965749367027 458.0578042363466 130.17108124282424 460.81922798550056 130.17108124282424 C 463.5806517346545 130.17108124282424 465.81922798550056 132.40965749367027 465.81922798550056 135.17108124282424 Z" fill-opacity="1"/><path fill="none" stroke="rgb(0,0,0)" paint-order="fill stroke markers" d=" M 465.81922798550056 135.17108124282424 C 465.81922798550056 137.93250499197822 463.5806517346545 140.17108124282424 460.81922798550056 140.17108124282424 C 458.0578042363466 140.17108124282424 455.81922798550056 137.93250499197822 455.81922798550056 135.17108124282424 C 455.81922798550056 132.40965749367027 458.0578042363466 130.17108124282424 460.81922798550056 130.17108124282424 C 463.5806517346545 130.17108124282424 465.81922798550056 132.40965749367027 465.81922798550056 135.17108124282424 Z" stroke-opacity="1" stroke-linecap="round" stroke-linejoin="round" stroke-miterlimit="10"/><text fill="rgb(77,77,255)" stroke="none" font-family="geogebra-sans-serif, sans-serif" font-size="32px" font-style="normal" font-weight="normal" text-decoration="normal" x="465" y="125" text-anchor="start" dominant-baseline="alphabetic" fill-opacity="1">P</text><text fill="none" stroke="rgb(255,255,255)" font-family="geogebra-sans-serif, sans-serif" font-size="32px" font-style="normal" font-weight="normal" text-decoration="normal" x="465" y="125" text-anchor="start" dominant-baseline="alphabetic" stroke-opacity="1" stroke-linecap="round" stroke-linejoin="bevel" stroke-miterlimit="10" stroke-width="3">P</text><text fill="rgb(77,77,255)" stroke="none" font-family="geogebra-sans-serif, sans-serif" font-size="32px" font-style="normal" font-weight="normal" text-decoration="normal" x="465" y="125" text-anchor="start" dominant-baseline="alphabetic" fill-opacity="1">P</text><path fill="rgb(68,68,68)" stroke="none" paint-order="stroke fill markers" d=" M 136.71768803847456 135.17108124282424 C 136.71768803847456 137.3802202421474 134.92682703779775 139.17108124282424 132.71768803847456 139.17108124282424 C 130.50854903915138 139.17108124282424 128.71768803847456 137.3802202421474 128.71768803847456 135.17108124282424 C 128.71768803847456 132.96194224350106 130.50854903915138 131.17108124282424 132.71768803847456 131.17108124282424 C 134.92682703779775 131.17108124282424 136.71768803847456 132.96194224350106 136.71768803847456 135.17108124282424 Z" fill-opacity="1"/><path fill="none" stroke="rgb(0,0,0)" paint-order="fill stroke markers" d=" M 136.71768803847456 135.17108124282424 C 136.71768803847456 137.3802202421474 134.92682703779775 139.17108124282424 132.71768803847456 139.17108124282424 C 130.50854903915138 139.17108124282424 128.71768803847456 137.3802202421474 128.71768803847456 135.17108124282424 C 128.71768803847456 132.96194224350106 130.50854903915138 131.17108124282424 132.71768803847456 131.17108124282424 C 134.92682703779775 131.17108124282424 136.71768803847456 132.96194224350106 136.71768803847456 135.17108124282424 Z" stroke-opacity="1" stroke-linecap="round" stroke-linejoin="round" stroke-miterlimit="10"/><text fill="rgb(68,68,68)" stroke="none" font-family="geogebra-sans-serif, sans-serif" font-size="32px" font-style="normal" font-weight="normal" text-decoration="normal" x="137" y="127" text-anchor="start" dominant-baseline="alphabetic" fill-opacity="1">M</text><text fill="none" stroke="rgb(255,255,255)" font-family="geogebra-sans-serif, sans-serif" font-size="32px" font-style="normal" font-weight="normal" text-decoration="normal" x="137" y="127" text-anchor="start" dominant-baseline="alphabetic" stroke-opacity="1" stroke-linecap="round" stroke-linejoin="bevel" stroke-miterlimit="10" stroke-width="3">M</text><text fill="rgb(68,68,68)" stroke="none" font-family="geogebra-sans-serif, sans-serif" font-size="32px" font-style="normal" font-weight="normal" text-decoration="normal" x="137" y="127" text-anchor="start" dominant-baseline="alphabetic" fill-opacity="1">M</text><path fill="rgb(68,68,68)" stroke="none" paint-order="stroke fill markers" d=" M 272.005898724846 556.5415608109882 C 272.005898724846 558.7506998103114 270.2150377241692 560.5415608109882 268.005898724846 560.5415608109882 C 265.79675972552286 560.5415608109882 264.005898724846 558.7506998103114 264.005898724846 556.5415608109882 C 264.005898724846 554.3324218116651 265.79675972552286 552.5415608109882 268.005898724846 552.5415608109882 C 270.2150377241692 552.5415608109882 272.005898724846 554.3324218116651 272.005898724846 556.5415608109882 Z" fill-opacity="1"/><path fill="none" stroke="rgb(0,0,0)" paint-order="fill stroke markers" d=" M 272.005898724846 556.5415608109882 C 272.005898724846 558.7506998103114 270.2150377241692 560.5415608109882 268.005898724846 560.5415608109882 C 265.79675972552286 560.5415608109882 264.005898724846 558.7506998103114 264.005898724846 556.5415608109882 C 264.005898724846 554.3324218116651 265.79675972552286 552.5415608109882 268.005898724846 552.5415608109882 C 270.2150377241692 552.5415608109882 272.005898724846 554.3324218116651 272.005898724846 556.5415608109882 Z" stroke-opacity="1" stroke-linecap="round" stroke-linejoin="round" stroke-miterlimit="10"/><text fill="rgb(68,68,68)" stroke="none" font-family="geogebra-sans-serif, sans-serif" font-size="32px" font-style="normal" font-weight="normal" text-decoration="normal" x="272" y="549" text-anchor="start" dominant-baseline="alphabetic" fill-opacity="1">P'</text><text fill="none" stroke="rgb(255,255,255)" font-family="geogebra-sans-serif, sans-serif" font-size="32px" font-style="normal" font-weight="normal" text-decoration="normal" x="272" y="549" text-anchor="start" dominant-baseline="alphabetic" stroke-opacity="1" stroke-linecap="round" stroke-linejoin="bevel" stroke-miterlimit="10" stroke-width="3">P'</text><text fill="rgb(68,68,68)" stroke="none" font-family="geogebra-sans-serif, sans-serif" font-size="32px" font-style="normal" font-weight="normal" text-decoration="normal" x="272" y="549" text-anchor="start" dominant-baseline="alphabetic" fill-opacity="1">P'</text><path fill="rgb(125,125,255)" stroke="none" paint-order="stroke fill markers" d=" M 306.17985789124043 266.6527012106612 C 306.17985789124043 269.4141249598151 303.9412816403944 271.6527012106612 301.17985789124043 271.6527012106612 C 298.4184341420865 271.6527012106612 296.17985789124043 269.4141249598151 296.17985789124043 266.6527012106612 C 296.17985789124043 263.89127746150723 298.4184341420865 261.6527012106612 301.17985789124043 261.6527012106612 C 303.9412816403944 261.6527012106612 306.17985789124043 263.89127746150723 306.17985789124043 266.6527012106612 Z" fill-opacity="1"/><path fill="none" stroke="rgb(0,0,0)" paint-order="fill stroke markers" d=" M 306.17985789124043 266.6527012106612 C 306.17985789124043 269.4141249598151 303.9412816403944 271.6527012106612 301.17985789124043 271.6527012106612 C 298.4184341420865 271.6527012106612 296.17985789124043 269.4141249598151 296.17985789124043 266.6527012106612 C 296.17985789124043 263.89127746150723 298.4184341420865 261.6527012106612 301.17985789124043 261.6527012106612 C 303.9412816403944 261.6527012106612 306.17985789124043 263.89127746150723 306.17985789124043 266.6527012106612 Z" stroke-opacity="1" stroke-linecap="round" stroke-linejoin="round" stroke-miterlimit="10"/><text fill="rgb(125,125,255)" stroke="none" font-family="geogebra-sans-serif, sans-serif" font-size="32px" font-style="normal" font-weight="normal" text-decoration="normal" x="305" y="257" text-anchor="start" dominant-baseline="alphabetic" fill-opacity="1">Q</text><text fill="none" stroke="rgb(255,255,255)" font-family="geogebra-sans-serif, sans-serif" font-size="32px" font-style="normal" font-weight="normal" text-decoration="normal" x="305" y="257" text-anchor="start" dominant-baseline="alphabetic" stroke-opacity="1" stroke-linecap="round" stroke-linejoin="bevel" stroke-miterlimit="10" stroke-width="3">Q</text><text fill="rgb(125,125,255)" stroke="none" font-family="geogebra-sans-serif, sans-serif" font-size="32px" font-style="normal" font-weight="normal" text-decoration="normal" x="305" y="257" text-anchor="start" dominant-baseline="alphabetic" fill-opacity="1">Q</text><path fill="rgb(68,68,68)" stroke="none" paint-order="stroke fill markers" d=" M 136.71768803847456 405.4009246749616 C 136.71768803847456 407.61006367428473 134.92682703779775 409.4009246749616 132.71768803847456 409.4009246749616 C 130.50854903915138 409.4009246749616 128.71768803847456 407.61006367428473 128.71768803847456 405.4009246749616 C 128.71768803847456 403.1917856756384 130.50854903915138 401.4009246749616 132.71768803847456 401.4009246749616 C 134.92682703779775 401.4009246749616 136.71768803847456 403.1917856756384 136.71768803847456 405.4009246749616 Z" fill-opacity="1"/><path fill="none" stroke="rgb(0,0,0)" paint-order="fill stroke markers" d=" M 136.71768803847456 405.4009246749616 C 136.71768803847456 407.61006367428473 134.92682703779775 409.4009246749616 132.71768803847456 409.4009246749616 C 130.50854903915138 409.4009246749616 128.71768803847456 407.61006367428473 128.71768803847456 405.4009246749616 C 128.71768803847456 403.1917856756384 130.50854903915138 401.4009246749616 132.71768803847456 401.4009246749616 C 134.92682703779775 401.4009246749616 136.71768803847456 403.1917856756384 136.71768803847456 405.4009246749616 Z" stroke-opacity="1" stroke-linecap="round" stroke-linejoin="round" stroke-miterlimit="10"/><text fill="rgb(68,68,68)" stroke="none" font-family="geogebra-sans-serif, sans-serif" font-size="32px" font-style="normal" font-weight="normal" text-decoration="normal" x="137" y="397" text-anchor="start" dominant-baseline="alphabetic" fill-opacity="1">K</text><text fill="none" stroke="rgb(255,255,255)" font-family="geogebra-sans-serif, sans-serif" font-size="32px" font-style="normal" font-weight="normal" text-decoration="normal" x="137" y="397" text-anchor="start" dominant-baseline="alphabetic" stroke-opacity="1" stroke-linecap="round" stroke-linejoin="bevel" stroke-miterlimit="10" stroke-width="3">K</text><text fill="rgb(68,68,68)" stroke="none" font-family="geogebra-sans-serif, sans-serif" font-size="32px" font-style="normal" font-weight="normal" text-decoration="normal" x="137" y="397" text-anchor="start" dominant-baseline="alphabetic" fill-opacity="1">K</text><path fill="rgb(68,68,68)" stroke="none" paint-order="stroke fill markers" d=" M 136.71768803847456 266.6527012106612 C 136.71768803847456 268.86184020998434 134.92682703779775 270.6527012106612 132.71768803847456 270.6527012106612 C 130.50854903915138 270.6527012106612 128.71768803847456 268.86184020998434 128.71768803847456 266.6527012106612 C 128.71768803847456 264.443562211338 130.50854903915138 262.6527012106612 132.71768803847456 262.6527012106612 C 134.92682703779775 262.6527012106612 136.71768803847456 264.443562211338 136.71768803847456 266.6527012106612 Z" fill-opacity="1"/><path fill="none" stroke="rgb(0,0,0)" paint-order="fill stroke markers" d=" M 136.71768803847456 266.6527012106612 C 136.71768803847456 268.86184020998434 134.92682703779775 270.6527012106612 132.71768803847456 270.6527012106612 C 130.50854903915138 270.6527012106612 128.71768803847456 268.86184020998434 128.71768803847456 266.6527012106612 C 128.71768803847456 264.443562211338 130.50854903915138 262.6527012106612 132.71768803847456 262.6527012106612 C 134.92682703779775 262.6527012106612 136.71768803847456 264.443562211338 136.71768803847456 266.6527012106612 Z" stroke-opacity="1" stroke-linecap="round" stroke-linejoin="round" stroke-miterlimit="10"/><text fill="rgb(68,68,68)" stroke="none" font-family="geogebra-sans-serif, sans-serif" font-size="32px" font-style="normal" font-weight="normal" text-decoration="normal" x="137" y="259" text-anchor="start" dominant-baseline="alphabetic" fill-opacity="1">N</text><text fill="none" stroke="rgb(255,255,255)" font-family="geogebra-sans-serif, sans-serif" font-size="32px" font-style="normal" font-weight="normal" text-decoration="normal" x="137" y="259" text-anchor="start" dominant-baseline="alphabetic" stroke-opacity="1" stroke-linecap="round" stroke-linejoin="bevel" stroke-miterlimit="10" stroke-width="3">N</text><text fill="rgb(68,68,68)" stroke="none" font-family="geogebra-sans-serif, sans-serif" font-size="32px" font-style="normal" font-weight="normal" text-decoration="normal" x="137" y="259" text-anchor="start" dominant-baseline="alphabetic" fill-opacity="1">N</text><path fill="rgb(68,68,68)" stroke="none" paint-order="stroke fill markers" d=" M 283.27208919000077 108.52370907251748 C 283.27208919000077 110.73284807184065 281.48122818932393 112.52370907251748 279.27208919000077 112.52370907251748 C 277.0629501906776 112.52370907251748 275.27208919000077 110.73284807184065 275.27208919000077 108.52370907251748 C 275.27208919000077 106.3145700731943 277.0629501906776 104.52370907251748 279.27208919000077 104.52370907251748 C 281.48122818932393 104.52370907251748 283.27208919000077 106.3145700731943 283.27208919000077 108.52370907251748 Z" fill-opacity="1"/><path fill="none" stroke="rgb(0,0,0)" paint-order="fill stroke markers" d=" M 283.27208919000077 108.52370907251748 C 283.27208919000077 110.73284807184065 281.48122818932393 112.52370907251748 279.27208919000077 112.52370907251748 C 277.0629501906776 112.52370907251748 275.27208919000077 110.73284807184065 275.27208919000077 108.52370907251748 C 275.27208919000077 106.3145700731943 277.0629501906776 104.52370907251748 279.27208919000077 104.52370907251748 C 281.48122818932393 104.52370907251748 283.27208919000077 106.3145700731943 283.27208919000077 108.52370907251748 Z" stroke-opacity="1" stroke-linecap="round" stroke-linejoin="round" stroke-miterlimit="10"/><text fill="rgb(68,68,68)" stroke="none" font-family="geogebra-sans-serif, sans-serif" font-size="32px" font-style="normal" font-weight="normal" text-decoration="normal" x="283" y="101" text-anchor="start" dominant-baseline="alphabetic" fill-opacity="1">R</text><text fill="none" stroke="rgb(255,255,255)" font-family="geogebra-sans-serif, sans-serif" font-size="32px" font-style="normal" font-weight="normal" text-decoration="normal" x="283" y="101" text-anchor="start" dominant-baseline="alphabetic" stroke-opacity="1" stroke-linecap="round" stroke-linejoin="bevel" stroke-miterlimit="10" stroke-width="3">R</text><text fill="rgb(68,68,68)" stroke="none" font-family="geogebra-sans-serif, sans-serif" font-size="32px" font-style="normal" font-weight="normal" text-decoration="normal" x="283" y="101" text-anchor="start" dominant-baseline="alphabetic" fill-opacity="1">R</text></g></g></svg>