<svg version="1.1" xmlns="http://www.w3.org/2000/svg" xmlns:xlink="http://www.w3.org/1999/xlink" width="683" height="617"><defs><clipPath id="iINMStwQWrLb"><path fill="none" stroke="none" d=" M 0 0 L 683 0 L 683 617 L 0 617 L 0 0 Z"/></clipPath></defs><g transform="scale(1,1)" clip-path="url(#iINMStwQWrLb)"><g><path fill="none" stroke="rgb(0,0,0)" paint-order="fill stroke markers" d=" M 1761.15377976784 -332.8018477485161 C -282.37386475528524 178.08006338226505 -282.37386475528524 688.9619745130461 1761.15377976784 1199.8438856438272" stroke-opacity="0.6980392156862745" stroke-linecap="round" stroke-linejoin="round" stroke-miterlimit="10" stroke-width="2.5"/><path fill="none" stroke="rgb(0,0,0)" paint-order="fill stroke markers" d=" M 132.71768803847453 622 L 132.71768803847453 -5" stroke-opacity="0.6980392156862745" stroke-linecap="round" stroke-linejoin="round" stroke-miterlimit="10" stroke-width="2.5"/><path fill="none" stroke="rgb(0,0,0)" paint-order="fill stroke markers" d=" M -5 434.2895668189866 L 679.1085949052853 -5" stroke-opacity="0.6980392156862745" stroke-linecap="round" stroke-linejoin="round" stroke-miterlimit="10" stroke-width="2.5"/><path fill="none" stroke="rgb(0,0,0)" paint-order="fill stroke markers" d=" M 460.8192279855005 135.17108124282424 L 268.005898724846 556.5415608109882" stroke-opacity="0.6980392156862745" stroke-linecap="round" stroke-linejoin="round" stroke-miterlimit="10" stroke-width="2.5"/><path fill="none" stroke="rgb(0,0,0)" paint-order="fill stroke markers" d=" M 132.71768803847453 135.17108124282424 L 460.8192279855005 135.17108124282424" stroke-opacity="0.6980392156862745" stroke-linecap="round" stroke-linejoin="round" stroke-miterlimit="10" stroke-width="2.5"/><path fill="none" stroke="rgb(0,0,0)" paint-order="fill stroke markers" d=" M 132.71768803847453 345.85632102690624 L 324.29840471251754 433.5210189476556" stroke-opacity="0.6980392156862745" stroke-linecap="round" stroke-linejoin="round" stroke-miterlimit="10" stroke-width="2.5"/><path fill="rgb(77,77,255)" stroke="none" paint-order="stroke fill markers" d=" M 329.29840471251754 433.5210189476556 C 329.29840471251754 436.28244269680954 327.0598284616715 438.5210189476556 324.29840471251754 438.5210189476556 C 321.5369809633636 438.5210189476556 319.29840471251754 436.28244269680954 319.29840471251754 433.5210189476556 C 319.29840471251754 430.75959519850164 321.5369809633636 428.5210189476556 324.29840471251754 428.5210189476556 C 327.0598284616715 428.5210189476556 329.29840471251754 430.75959519850164 329.29840471251754 433.5210189476556 Z" fill-opacity="1"/><path fill="none" stroke="rgb(0,0,0)" paint-order="fill stroke markers" d=" M 329.29840471251754 433.5210189476556 C 329.29840471251754 436.28244269680954 327.0598284616715 438.5210189476556 324.29840471251754 438.5210189476556 C 321.5369809633636 438.5210189476556 319.29840471251754 436.28244269680954 319.29840471251754 433.5210189476556 C 319.29840471251754 430.75959519850164 321.5369809633636 428.5210189476556 324.29840471251754 428.5210189476556 C 327.0598284616715 428.5210189476556 329.29840471251754 430.75959519850164 329.29840471251754 433.5210189476556 Z" stroke-opacity="1" stroke-linecap="round" stroke-linejoin="round" stroke-miterlimit="10"/><text fill="rgb(77,77,255)" stroke="none" font-family="geogebra-sans-serif, sans-serif" font-size="32px" font-style="normal" font-weight="normal" text-decoration="normal" x="328" y="424" text-anchor="start" dominant-baseline="alphabetic" fill-opacity="1">S</text><text fill="none" stroke="rgb(255,255,255)" font-family="geogebra-sans-serif, sans-serif" font-size="32px" font-style="normal" font-weight="normal" text-decoration="normal" x="328" y="424" text-anchor="start" dominant-baseline="alphabetic" stroke-opacity="1" stroke-linecap="round" stroke-linejoin="bevel" stroke-miterlimit="10" stroke-width="3">S</text><text fill="rgb(77,77,255)" stroke="none" font-family="geogebra-sans-serif, sans-serif" font-size="32px" font-style="normal" font-weight="normal" text-decoration="normal" x="328" y="424" text-anchor="start" dominant-baseline="alphabetic" fill-opacity="1">S</text><path fill="rgb(77,77,255)" stroke="none" paint-order="stroke fill markers" d=" M 465.8192279855005 135.17108124282424 C 465.8192279855005 137.93250499197822 463.58065173465445 140.17108124282424 460.8192279855005 140.17108124282424 C 458.05780423634656 140.17108124282424 455.8192279855005 137.93250499197822 455.8192279855005 135.17108124282424 C 455.8192279855005 132.40965749367027 458.05780423634656 130.17108124282424 460.8192279855005 130.17108124282424 C 463.58065173465445 130.17108124282424 465.8192279855005 132.40965749367027 465.8192279855005 135.17108124282424 Z" fill-opacity="1"/><path fill="none" stroke="rgb(0,0,0)" paint-order="fill stroke markers" d=" M 465.8192279855005 135.17108124282424 C 465.8192279855005 137.93250499197822 463.58065173465445 140.17108124282424 460.8192279855005 140.17108124282424 C 458.05780423634656 140.17108124282424 455.8192279855005 137.93250499197822 455.8192279855005 135.17108124282424 C 455.8192279855005 132.40965749367027 458.05780423634656 130.17108124282424 460.8192279855005 130.17108124282424 C 463.58065173465445 130.17108124282424 465.8192279855005 132.40965749367027 465.8192279855005 135.17108124282424 Z" stroke-opacity="1" stroke-linecap="round" stroke-linejoin="round" stroke-miterlimit="10"/><text fill="rgb(77,77,255)" stroke="none" font-family="geogebra-sans-serif, sans-serif" font-size="32px" font-style="normal" font-weight="normal" text-decoration="normal" x="465" y="125" text-anchor="start" dominant-baseline="alphabetic" fill-opacity="1">P</text><text fill="none" stroke="rgb(255,255,255)" font-family="geogebra-sans-serif, sans-serif" font-size="32px" font-style="normal" font-weight="normal" text-decoration="normal" x="465" y="125" text-anchor="start" dominant-baseline="alphabetic" stroke-opacity="1" stroke-linecap="round" stroke-linejoin="bevel" stroke-miterlimit="10" stroke-width="3">P</text><text fill="rgb(77,77,255)" stroke="none" font-family="geogebra-sans-serif, sans-serif" font-size="32px" font-style="normal" font-weight="normal" text-decoration="normal" x="465" y="125" text-anchor="start" dominant-baseline="alphabetic" fill-opacity="1">P</text><path fill="rgb(68,68,68)" stroke="none" paint-order="stroke fill markers" d=" M 136.71768803847453 135.17108124282424 C 136.71768803847453 137.3802202421474 134.9268270377977 139.17108124282424 132.71768803847453 139.17108124282424 C 130.50854903915135 139.17108124282424 128.71768803847453 137.3802202421474 128.71768803847453 135.17108124282424 C 128.71768803847453 132.96194224350106 130.50854903915135 131.17108124282424 132.71768803847453 131.17108124282424 C 134.9268270377977 131.17108124282424 136.71768803847453 132.96194224350106 136.71768803847453 135.17108124282424 Z" fill-opacity="1"/><path fill="none" stroke="rgb(0,0,0)" paint-order="fill stroke markers" d=" M 136.71768803847453 135.17108124282424 C 136.71768803847453 137.3802202421474 134.9268270377977 139.17108124282424 132.71768803847453 139.17108124282424 C 130.50854903915135 139.17108124282424 128.71768803847453 137.3802202421474 128.71768803847453 135.17108124282424 C 128.71768803847453 132.96194224350106 130.50854903915135 131.17108124282424 132.71768803847453 131.17108124282424 C 134.9268270377977 131.17108124282424 136.71768803847453 132.96194224350106 136.71768803847453 135.17108124282424 Z" stroke-opacity="1" stroke-linecap="round" stroke-linejoin="round" stroke-miterlimit="10"/><text fill="rgb(68,68,68)" stroke="none" font-family="geogebra-sans-serif, sans-serif" font-size="32px" font-style="normal" font-weight="normal" text-decoration="normal" x="137" y="127" text-anchor="start" dominant-baseline="alphabetic" fill-opacity="1">M</text><text fill="none" stroke="rgb(255,255,255)" font-family="geogebra-sans-serif, sans-serif" font-size="32px" font-style="normal" font-weight="normal" text-decoration="normal" x="137" y="127" text-anchor="start" dominant-baseline="alphabetic" stroke-opacity="1" stroke-linecap="round" stroke-linejoin="bevel" stroke-miterlimit="10" stroke-width="3">M</text><text fill="rgb(68,68,68)" stroke="none" font-family="geogebra-sans-serif, sans-serif" font-size="32px" font-style="normal" font-weight="normal" text-decoration="normal" x="137" y="127" text-anchor="start" dominant-baseline="alphabetic" fill-opacity="1">M</text><path fill="rgb(68,68,68)" stroke="none" paint-order="stroke fill markers" d=" M 272.005898724846 556.5415608109882 C 272.005898724846 558.7506998103114 270.2150377241692 560.5415608109882 268.005898724846 560.5415608109882 C 265.79675972552286 560.5415608109882 264.005898724846 558.7506998103114 264.005898724846 556.5415608109882 C 264.005898724846 554.3324218116651 265.79675972552286 552.5415608109882 268.005898724846 552.5415608109882 C 270.2150377241692 552.5415608109882 272.005898724846 554.3324218116651 272.005898724846 556.5415608109882 Z" fill-opacity="1"/><path fill="none" stroke="rgb(0,0,0)" paint-order="fill stroke markers" d=" M 272.005898724846 556.5415608109882 C 272.005898724846 558.7506998103114 270.2150377241692 560.5415608109882 268.005898724846 560.5415608109882 C 265.79675972552286 560.5415608109882 264.005898724846 558.7506998103114 264.005898724846 556.5415608109882 C 264.005898724846 554.3324218116651 265.79675972552286 552.5415608109882 268.005898724846 552.5415608109882 C 270.2150377241692 552.5415608109882 272.005898724846 554.3324218116651 272.005898724846 556.5415608109882 Z" stroke-opacity="1" stroke-linecap="round" stroke-linejoin="round" stroke-miterlimit="10"/><text fill="rgb(68,68,68)" stroke="none" font-family="geogebra-sans-serif, sans-serif" font-size="32px" font-style="normal" font-weight="normal" text-decoration="normal" x="272" y="549" text-anchor="start" dominant-baseline="alphabetic" fill-opacity="1">P'</text><text fill="none" stroke="rgb(255,255,255)" font-family="geogebra-sans-serif, sans-serif" font-size="32px" font-style="normal" font-weight="normal" text-decoration="normal" x="272" y="549" text-anchor="start" dominant-baseline="alphabetic" stroke-opacity="1" stroke-linecap="round" stroke-linejoin="bevel" stroke-miterlimit="10" stroke-width="3">P'</text><text fill="rgb(68,68,68)" stroke="none" font-family="geogebra-sans-serif, sans-serif" font-size="32px" font-style="normal" font-weight="normal" text-decoration="normal" x="272" y="549" text-anchor="start" dominant-baseline="alphabetic" fill-opacity="1">P'</text><path fill="rgb(68,68,68)" stroke="none" paint-order="stroke fill markers" d=" M 136.71768803847453 345.85632102690624 C 136.71768803847453 348.0654600262294 134.9268270377977 349.85632102690624 132.71768803847453 349.85632102690624 C 130.50854903915135 349.85632102690624 128.71768803847453 348.0654600262294 128.71768803847453 345.85632102690624 C 128.71768803847453 343.6471820275831 130.50854903915135 341.85632102690624 132.71768803847453 341.85632102690624 C 134.9268270377977 341.85632102690624 136.71768803847453 343.6471820275831 136.71768803847453 345.85632102690624 Z" fill-opacity="1"/><path fill="none" stroke="rgb(0,0,0)" paint-order="fill stroke markers" d=" M 136.71768803847453 345.85632102690624 C 136.71768803847453 348.0654600262294 134.9268270377977 349.85632102690624 132.71768803847453 349.85632102690624 C 130.50854903915135 349.85632102690624 128.71768803847453 348.0654600262294 128.71768803847453 345.85632102690624 C 128.71768803847453 343.6471820275831 130.50854903915135 341.85632102690624 132.71768803847453 341.85632102690624 C 134.9268270377977 341.85632102690624 136.71768803847453 343.6471820275831 136.71768803847453 345.85632102690624 Z" stroke-opacity="1" stroke-linecap="round" stroke-linejoin="round" stroke-miterlimit="10"/><text fill="rgb(68,68,68)" stroke="none" font-family="geogebra-sans-serif, sans-serif" font-size="32px" font-style="normal" font-weight="normal" text-decoration="normal" x="137" y="338" text-anchor="start" dominant-baseline="alphabetic" fill-opacity="1">K</text><text fill="none" stroke="rgb(255,255,255)" font-family="geogebra-sans-serif, sans-serif" font-size="32px" font-style="normal" font-weight="normal" text-decoration="normal" x="137" y="338" text-anchor="start" dominant-baseline="alphabetic" stroke-opacity="1" stroke-linecap="round" stroke-linejoin="bevel" stroke-miterlimit="10" stroke-width="3">K</text><text fill="rgb(68,68,68)" stroke="none" font-family="geogebra-sans-serif, sans-serif" font-size="32px" font-style="normal" font-weight="normal" text-decoration="normal" x="137" y="338" text-anchor="start" dominant-baseline="alphabetic" fill-opacity="1">K</text></g></g></svg>