<svg version="1.1" xmlns="http://www.w3.org/2000/svg" xmlns:xlink="http://www.w3.org/1999/xlink" width="683" height="670"><defs><clipPath id="KCZkAqlWufVQ"><path fill="none" stroke="none" d=" M 0 0 L 683 0 L 683 670 L 0 670 L 0 0 Z"/></clipPath></defs><g transform="scale(1,1)" clip-path="url(#KCZkAqlWufVQ)"><g><path fill="none" stroke="rgb(0,0,0)" paint-order="fill stroke markers" d=" M 572.6201914548894 0 C 33.86970510539916 227.52955087419775 33.86970510539916 455.0591017483955 572.6201914548894 682.5886526225933" stroke-opacity="0.6980392156862745" stroke-linecap="round" stroke-linejoin="round" stroke-miterlimit="10" stroke-width="2.5"/><path fill="none" stroke="rgb(0,0,0)" paint-order="fill stroke markers" d=" M 96.48820866032318 675 L 96.48820866032318 -5" stroke-opacity="0.6980392156862745" stroke-linecap="round" stroke-linejoin="round" stroke-miterlimit="10" stroke-width="2.5"/><path fill="none" stroke="rgb(0,0,0)" paint-order="fill stroke markers" d=" M -5 341.29432631129663 L 688 341.29432631129663" stroke-opacity="0.6980392156862745" stroke-linecap="round" stroke-linejoin="round" stroke-miterlimit="10" stroke-width="2.5"/><path fill="none" stroke="rgb(0,0,0)" paint-order="fill stroke markers" d=" M 240.6264447252203 341.29432631129663 L 456.833798822566 53.017854181501946" stroke-opacity="0.6980392156862745" stroke-linecap="round" stroke-linejoin="round" stroke-miterlimit="10" stroke-width="2.5"/><path fill="none" stroke="rgb(0,0,0)" paint-order="fill stroke markers" d=" M 456.833798822566 53.017854181501946 L 456.833798822566 341.29432631129663" stroke-opacity="0.6980392156862745" stroke-linecap="round" stroke-linejoin="round" stroke-miterlimit="10" stroke-width="2.5"/><path fill="rgb(77,77,255)" stroke="none" paint-order="stroke fill markers" d=" M 245.6264447252203 341.29432631129663 C 245.6264447252203 344.0557500604506 243.38786847437427 346.29432631129663 240.6264447252203 346.29432631129663 C 237.86502097606632 346.29432631129663 235.6264447252203 344.0557500604506 235.6264447252203 341.29432631129663 C 235.6264447252203 338.5329025621427 237.86502097606632 336.29432631129663 240.6264447252203 336.29432631129663 C 243.38786847437427 336.29432631129663 245.6264447252203 338.5329025621427 245.6264447252203 341.29432631129663 Z" fill-opacity="1"/><path fill="none" stroke="rgb(0,0,0)" paint-order="fill stroke markers" d=" M 245.6264447252203 341.29432631129663 C 245.6264447252203 344.0557500604506 243.38786847437427 346.29432631129663 240.6264447252203 346.29432631129663 C 237.86502097606632 346.29432631129663 235.6264447252203 344.0557500604506 235.6264447252203 341.29432631129663 C 235.6264447252203 338.5329025621427 237.86502097606632 336.29432631129663 240.6264447252203 336.29432631129663 C 243.38786847437427 336.29432631129663 245.6264447252203 338.5329025621427 245.6264447252203 341.29432631129663 Z" stroke-opacity="1" stroke-linecap="round" stroke-linejoin="round" stroke-miterlimit="10"/><text fill="rgb(77,77,255)" stroke="none" font-family="geogebra-sans-serif, sans-serif" font-size="32px" font-style="normal" font-weight="normal" text-decoration="normal" x="245" y="331" text-anchor="start" dominant-baseline="alphabetic" fill-opacity="1">S</text><text fill="none" stroke="rgb(255,255,255)" font-family="geogebra-sans-serif, sans-serif" font-size="32px" font-style="normal" font-weight="normal" text-decoration="normal" x="245" y="331" text-anchor="start" dominant-baseline="alphabetic" stroke-opacity="1" stroke-linecap="round" stroke-linejoin="bevel" stroke-miterlimit="10" stroke-width="3">S</text><text fill="rgb(77,77,255)" stroke="none" font-family="geogebra-sans-serif, sans-serif" font-size="32px" font-style="normal" font-weight="normal" text-decoration="normal" x="245" y="331" text-anchor="start" dominant-baseline="alphabetic" fill-opacity="1">S</text><path fill="rgb(77,77,255)" stroke="none" paint-order="stroke fill markers" d=" M 461.833798822566 53.017854181501946 C 461.833798822566 55.77927793065591 459.59522257171994 58.017854181501946 456.833798822566 58.017854181501946 C 454.07237507341205 58.017854181501946 451.833798822566 55.77927793065591 451.833798822566 53.017854181501946 C 451.833798822566 50.256430432347976 454.07237507341205 48.017854181501946 456.833798822566 48.017854181501946 C 459.59522257171994 48.017854181501946 461.833798822566 50.256430432347976 461.833798822566 53.017854181501946 Z" fill-opacity="1"/><path fill="none" stroke="rgb(0,0,0)" paint-order="fill stroke markers" d=" M 461.833798822566 53.017854181501946 C 461.833798822566 55.77927793065591 459.59522257171994 58.017854181501946 456.833798822566 58.017854181501946 C 454.07237507341205 58.017854181501946 451.833798822566 55.77927793065591 451.833798822566 53.017854181501946 C 451.833798822566 50.256430432347976 454.07237507341205 48.017854181501946 456.833798822566 48.017854181501946 C 459.59522257171994 48.017854181501946 461.833798822566 50.256430432347976 461.833798822566 53.017854181501946 Z" stroke-opacity="1" stroke-linecap="round" stroke-linejoin="round" stroke-miterlimit="10"/><text fill="rgb(77,77,255)" stroke="none" font-family="geogebra-sans-serif, sans-serif" font-size="32px" font-style="normal" font-weight="normal" text-decoration="normal" x="461" y="43" text-anchor="start" dominant-baseline="alphabetic" fill-opacity="1">P</text><text fill="none" stroke="rgb(255,255,255)" font-family="geogebra-sans-serif, sans-serif" font-size="32px" font-style="normal" font-weight="normal" text-decoration="normal" x="461" y="43" text-anchor="start" dominant-baseline="alphabetic" stroke-opacity="1" stroke-linecap="round" stroke-linejoin="bevel" stroke-miterlimit="10" stroke-width="3">P</text><text fill="rgb(77,77,255)" stroke="none" font-family="geogebra-sans-serif, sans-serif" font-size="32px" font-style="normal" font-weight="normal" text-decoration="normal" x="461" y="43" text-anchor="start" dominant-baseline="alphabetic" fill-opacity="1">P</text><path fill="rgb(68,68,68)" stroke="none" paint-order="stroke fill markers" d=" M 100.48820866032318 341.29432631129663 C 100.48820866032318 343.5034653106198 98.69734765964635 345.29432631129663 96.48820866032318 345.29432631129663 C 94.27906966100001 345.29432631129663 92.48820866032318 343.5034653106198 92.48820866032318 341.29432631129663 C 92.48820866032318 339.08518731197347 94.27906966100001 337.29432631129663 96.48820866032318 337.29432631129663 C 98.69734765964635 337.29432631129663 100.48820866032318 339.08518731197347 100.48820866032318 341.29432631129663 Z" fill-opacity="1"/><path fill="none" stroke="rgb(0,0,0)" paint-order="fill stroke markers" d=" M 100.48820866032318 341.29432631129663 C 100.48820866032318 343.5034653106198 98.69734765964635 345.29432631129663 96.48820866032318 345.29432631129663 C 94.27906966100001 345.29432631129663 92.48820866032318 343.5034653106198 92.48820866032318 341.29432631129663 C 92.48820866032318 339.08518731197347 94.27906966100001 337.29432631129663 96.48820866032318 337.29432631129663 C 98.69734765964635 337.29432631129663 100.48820866032318 339.08518731197347 100.48820866032318 341.29432631129663 Z" stroke-opacity="1" stroke-linecap="round" stroke-linejoin="round" stroke-miterlimit="10"/><text fill="rgb(68,68,68)" stroke="none" font-family="geogebra-sans-serif, sans-serif" font-size="32px" font-style="normal" font-weight="normal" text-decoration="normal" x="100" y="333" text-anchor="start" dominant-baseline="alphabetic" fill-opacity="1">X</text><text fill="none" stroke="rgb(255,255,255)" font-family="geogebra-sans-serif, sans-serif" font-size="32px" font-style="normal" font-weight="normal" text-decoration="normal" x="100" y="333" text-anchor="start" dominant-baseline="alphabetic" stroke-opacity="1" stroke-linecap="round" stroke-linejoin="bevel" stroke-miterlimit="10" stroke-width="3">X</text><text fill="rgb(68,68,68)" stroke="none" font-family="geogebra-sans-serif, sans-serif" font-size="32px" font-style="normal" font-weight="normal" text-decoration="normal" x="100" y="333" text-anchor="start" dominant-baseline="alphabetic" fill-opacity="1">X</text><path fill="rgb(68,68,68)" stroke="none" paint-order="stroke fill markers" d=" M 172.55732669277174 341.29432631129663 C 172.55732669277174 343.5034653106198 170.76646569209493 345.29432631129663 168.55732669277174 345.29432631129663 C 166.34818769344855 345.29432631129663 164.55732669277174 343.5034653106198 164.55732669277174 341.29432631129663 C 164.55732669277174 339.08518731197347 166.34818769344855 337.29432631129663 168.55732669277174 337.29432631129663 C 170.76646569209493 337.29432631129663 172.55732669277174 339.08518731197347 172.55732669277174 341.29432631129663 Z" fill-opacity="1"/><path fill="none" stroke="rgb(0,0,0)" paint-order="fill stroke markers" d=" M 172.55732669277174 341.29432631129663 C 172.55732669277174 343.5034653106198 170.76646569209493 345.29432631129663 168.55732669277174 345.29432631129663 C 166.34818769344855 345.29432631129663 164.55732669277174 343.5034653106198 164.55732669277174 341.29432631129663 C 164.55732669277174 339.08518731197347 166.34818769344855 337.29432631129663 168.55732669277174 337.29432631129663 C 170.76646569209493 337.29432631129663 172.55732669277174 339.08518731197347 172.55732669277174 341.29432631129663 Z" stroke-opacity="1" stroke-linecap="round" stroke-linejoin="round" stroke-miterlimit="10"/><text fill="rgb(68,68,68)" stroke="none" font-family="geogebra-sans-serif, sans-serif" font-size="32px" font-style="normal" font-weight="normal" text-decoration="normal" x="173" y="333" text-anchor="start" dominant-baseline="alphabetic" fill-opacity="1">A</text><text fill="none" stroke="rgb(255,255,255)" font-family="geogebra-sans-serif, sans-serif" font-size="32px" font-style="normal" font-weight="normal" text-decoration="normal" x="173" y="333" text-anchor="start" dominant-baseline="alphabetic" stroke-opacity="1" stroke-linecap="round" stroke-linejoin="bevel" stroke-miterlimit="10" stroke-width="3">A</text><text fill="rgb(68,68,68)" stroke="none" font-family="geogebra-sans-serif, sans-serif" font-size="32px" font-style="normal" font-weight="normal" text-decoration="normal" x="173" y="333" text-anchor="start" dominant-baseline="alphabetic" fill-opacity="1">A</text><path fill="rgb(68,68,68)" stroke="none" paint-order="stroke fill markers" d=" M 460.833798822566 341.29432631129663 C 460.833798822566 343.5034653106198 459.04293782188915 345.29432631129663 456.833798822566 345.29432631129663 C 454.62465982324284 345.29432631129663 452.833798822566 343.5034653106198 452.833798822566 341.29432631129663 C 452.833798822566 339.08518731197347 454.62465982324284 337.29432631129663 456.833798822566 337.29432631129663 C 459.04293782188915 337.29432631129663 460.833798822566 339.08518731197347 460.833798822566 341.29432631129663 Z" fill-opacity="1"/><path fill="none" stroke="rgb(0,0,0)" paint-order="fill stroke markers" d=" M 460.833798822566 341.29432631129663 C 460.833798822566 343.5034653106198 459.04293782188915 345.29432631129663 456.833798822566 345.29432631129663 C 454.62465982324284 345.29432631129663 452.833798822566 343.5034653106198 452.833798822566 341.29432631129663 C 452.833798822566 339.08518731197347 454.62465982324284 337.29432631129663 456.833798822566 337.29432631129663 C 459.04293782188915 337.29432631129663 460.833798822566 339.08518731197347 460.833798822566 341.29432631129663 Z" stroke-opacity="1" stroke-linecap="round" stroke-linejoin="round" stroke-miterlimit="10"/><text fill="rgb(68,68,68)" stroke="none" font-family="geogebra-sans-serif, sans-serif" font-size="32px" font-style="normal" font-weight="normal" text-decoration="normal" x="461" y="333" text-anchor="start" dominant-baseline="alphabetic" fill-opacity="1">N</text><text fill="none" stroke="rgb(255,255,255)" font-family="geogebra-sans-serif, sans-serif" font-size="32px" font-style="normal" font-weight="normal" text-decoration="normal" x="461" y="333" text-anchor="start" dominant-baseline="alphabetic" stroke-opacity="1" stroke-linecap="round" stroke-linejoin="bevel" stroke-miterlimit="10" stroke-width="3">N</text><text fill="rgb(68,68,68)" stroke="none" font-family="geogebra-sans-serif, sans-serif" font-size="32px" font-style="normal" font-weight="normal" text-decoration="normal" x="461" y="333" text-anchor="start" dominant-baseline="alphabetic" fill-opacity="1">N</text></g></g></svg>