<svg version="1.1" xmlns="http://www.w3.org/2000/svg" xmlns:xlink="http://www.w3.org/1999/xlink" width="683" height="617"><defs><clipPath id="abwWeWvNBmWo"><path fill="none" stroke="none" d=" M 0 0 L 683 0 L 683 617 L 0 617 L 0 0 Z"/></clipPath></defs><g transform="scale(1,1)" clip-path="url(#abwWeWvNBmWo)"><g><path fill="none" stroke="rgb(0,0,0)" paint-order="fill stroke markers" d=" M 1034.0892255203896 -73.33483708315902 C -5.1113853198378365 186.46531562689802 -5.1113853198378365 446.265468336955 1034.0892255203896 706.065621047012" stroke-opacity="0.6980392156862745" stroke-linecap="round" stroke-linejoin="round" stroke-miterlimit="10" stroke-width="2.5"/><path fill="none" stroke="rgb(0,0,0)" paint-order="fill stroke markers" d=" M 449.5388819227616 511.2155065144693 C 510.8693785271613 465.2176340611696 546.963939189033 393.0285127374262 546.963939189033 316.36539198192656 C 546.963939189033 239.70227122642694 510.8693785271613 167.51314990268355 449.53888192276173 121.51527744938377" stroke-opacity="0.6980392156862745" stroke-linecap="round" stroke-linejoin="round" stroke-miterlimit="10" stroke-width="2.5"/><path fill="none" stroke="rgb(0,0,0)" paint-order="fill stroke markers" d=" M 205.97623875708337 622 L 205.97623875708337 -5" stroke-opacity="0.6980392156862745" stroke-linecap="round" stroke-linejoin="round" stroke-miterlimit="10" stroke-width="2.5"/><path fill="none" stroke="rgb(0,0,0)" paint-order="fill stroke markers" d=" M -5 316.3653919819265 L 688 316.3653919819265" stroke-opacity="0.6980392156862745" stroke-linecap="round" stroke-linejoin="round" stroke-miterlimit="10" stroke-width="2.5"/><path fill="none" stroke="rgb(0,0,0)" paint-order="fill stroke markers" d=" M 449.5388819227617 622 L 449.5388819227617 -5" stroke-opacity="0.6980392156862745" stroke-linecap="round" stroke-linejoin="round" stroke-miterlimit="10" stroke-width="2.5"/><path fill="none" stroke="rgb(0,0,0)" paint-order="fill stroke markers" d=" M 303.4012960233547 316.3653919819265 L 449.5388819227617 121.51527744938375" stroke-opacity="0.6980392156862745" stroke-linecap="round" stroke-linejoin="round" stroke-miterlimit="10" stroke-width="2.5"/><path fill="none" stroke="rgb(0,0,0)" paint-order="fill stroke markers" d=" M 303.4012960233547 316.3653919819265 L 449.5388819227617 511.21550651446927" stroke-opacity="0.6980392156862745" stroke-linecap="round" stroke-linejoin="round" stroke-miterlimit="10" stroke-width="2.5"/><path fill="none" stroke="rgb(0,0,0)" paint-order="fill stroke markers" d=" M 205.97623875708337 121.51527744938375 L 449.5388819227617 121.51527744938375" stroke-opacity="0.6980392156862745" stroke-linecap="round" stroke-linejoin="round" stroke-miterlimit="10" stroke-width="2.5"/><path fill="none" stroke="rgb(0,0,0)" paint-order="fill stroke markers" d=" M 205.97623875708337 511.21550651446927 L 449.5388819227617 511.21550651446927" stroke-opacity="0.6980392156862745" stroke-linecap="round" stroke-linejoin="round" stroke-miterlimit="10" stroke-width="2.5"/><path fill="rgb(77,77,255)" stroke="none" paint-order="stroke fill markers" d=" M 308.4012960233547 316.3653919819265 C 308.4012960233547 319.12681573108046 306.16271977250864 321.3653919819265 303.4012960233547 321.3653919819265 C 300.63987227420074 321.3653919819265 298.4012960233547 319.12681573108046 298.4012960233547 316.3653919819265 C 298.4012960233547 313.60396823277256 300.63987227420074 311.3653919819265 303.4012960233547 311.3653919819265 C 306.16271977250864 311.3653919819265 308.4012960233547 313.60396823277256 308.4012960233547 316.3653919819265 Z" fill-opacity="1"/><path fill="none" stroke="rgb(0,0,0)" paint-order="fill stroke markers" d=" M 308.4012960233547 316.3653919819265 C 308.4012960233547 319.12681573108046 306.16271977250864 321.3653919819265 303.4012960233547 321.3653919819265 C 300.63987227420074 321.3653919819265 298.4012960233547 319.12681573108046 298.4012960233547 316.3653919819265 C 298.4012960233547 313.60396823277256 300.63987227420074 311.3653919819265 303.4012960233547 311.3653919819265 C 306.16271977250864 311.3653919819265 308.4012960233547 313.60396823277256 308.4012960233547 316.3653919819265 Z" stroke-opacity="1" stroke-linecap="round" stroke-linejoin="round" stroke-miterlimit="10"/><text fill="rgb(77,77,255)" stroke="none" font-family="geogebra-sans-serif, sans-serif" font-size="32px" font-style="normal" font-weight="normal" text-decoration="normal" x="307" y="306" text-anchor="start" dominant-baseline="alphabetic" fill-opacity="1">S</text><text fill="none" stroke="rgb(255,255,255)" font-family="geogebra-sans-serif, sans-serif" font-size="32px" font-style="normal" font-weight="normal" text-decoration="normal" x="307" y="306" text-anchor="start" dominant-baseline="alphabetic" stroke-opacity="1" stroke-linecap="round" stroke-linejoin="bevel" stroke-miterlimit="10" stroke-width="3">S</text><text fill="rgb(77,77,255)" stroke="none" font-family="geogebra-sans-serif, sans-serif" font-size="32px" font-style="normal" font-weight="normal" text-decoration="normal" x="307" y="306" text-anchor="start" dominant-baseline="alphabetic" fill-opacity="1">S</text><path fill="rgb(68,68,68)" stroke="none" paint-order="stroke fill markers" d=" M 209.97623875708337 316.3653919819265 C 209.97623875708337 318.57453098124967 208.18537775640652 320.3653919819265 205.97623875708337 320.3653919819265 C 203.76709975776018 320.3653919819265 201.97623875708337 318.57453098124967 201.97623875708337 316.3653919819265 C 201.97623875708337 314.15625298260335 203.76709975776018 312.3653919819265 205.97623875708337 312.3653919819265 C 208.18537775640652 312.3653919819265 209.97623875708337 314.15625298260335 209.97623875708337 316.3653919819265 Z" fill-opacity="1"/><path fill="none" stroke="rgb(0,0,0)" paint-order="fill stroke markers" d=" M 209.97623875708337 316.3653919819265 C 209.97623875708337 318.57453098124967 208.18537775640652 320.3653919819265 205.97623875708337 320.3653919819265 C 203.76709975776018 320.3653919819265 201.97623875708337 318.57453098124967 201.97623875708337 316.3653919819265 C 201.97623875708337 314.15625298260335 203.76709975776018 312.3653919819265 205.97623875708337 312.3653919819265 C 208.18537775640652 312.3653919819265 209.97623875708337 314.15625298260335 209.97623875708337 316.3653919819265 Z" stroke-opacity="1" stroke-linecap="round" stroke-linejoin="round" stroke-miterlimit="10"/><text fill="rgb(68,68,68)" stroke="none" font-family="geogebra-sans-serif, sans-serif" font-size="32px" font-style="normal" font-weight="normal" text-decoration="normal" x="210" y="308" text-anchor="start" dominant-baseline="alphabetic" fill-opacity="1">X</text><text fill="none" stroke="rgb(255,255,255)" font-family="geogebra-sans-serif, sans-serif" font-size="32px" font-style="normal" font-weight="normal" text-decoration="normal" x="210" y="308" text-anchor="start" dominant-baseline="alphabetic" stroke-opacity="1" stroke-linecap="round" stroke-linejoin="bevel" stroke-miterlimit="10" stroke-width="3">X</text><text fill="rgb(68,68,68)" stroke="none" font-family="geogebra-sans-serif, sans-serif" font-size="32px" font-style="normal" font-weight="normal" text-decoration="normal" x="210" y="308" text-anchor="start" dominant-baseline="alphabetic" fill-opacity="1">X</text><path fill="rgb(68,68,68)" stroke="none" paint-order="stroke fill markers" d=" M 258.688767390219 316.3653919819265 C 258.688767390219 318.57453098124967 256.8979063895422 320.3653919819265 254.68876739021903 320.3653919819265 C 252.47962839089584 320.3653919819265 250.68876739021903 318.57453098124967 250.68876739021903 316.3653919819265 C 250.68876739021903 314.15625298260335 252.47962839089584 312.3653919819265 254.68876739021903 312.3653919819265 C 256.8979063895422 312.3653919819265 258.688767390219 314.15625298260335 258.688767390219 316.3653919819265 Z" fill-opacity="1"/><path fill="none" stroke="rgb(0,0,0)" paint-order="fill stroke markers" d=" M 258.688767390219 316.3653919819265 C 258.688767390219 318.57453098124967 256.8979063895422 320.3653919819265 254.68876739021903 320.3653919819265 C 252.47962839089584 320.3653919819265 250.68876739021903 318.57453098124967 250.68876739021903 316.3653919819265 C 250.68876739021903 314.15625298260335 252.47962839089584 312.3653919819265 254.68876739021903 312.3653919819265 C 256.8979063895422 312.3653919819265 258.688767390219 314.15625298260335 258.688767390219 316.3653919819265 Z" stroke-opacity="1" stroke-linecap="round" stroke-linejoin="round" stroke-miterlimit="10"/><text fill="rgb(68,68,68)" stroke="none" font-family="geogebra-sans-serif, sans-serif" font-size="32px" font-style="normal" font-weight="normal" text-decoration="normal" x="259" y="308" text-anchor="start" dominant-baseline="alphabetic" fill-opacity="1">A</text><text fill="none" stroke="rgb(255,255,255)" font-family="geogebra-sans-serif, sans-serif" font-size="32px" font-style="normal" font-weight="normal" text-decoration="normal" x="259" y="308" text-anchor="start" dominant-baseline="alphabetic" stroke-opacity="1" stroke-linecap="round" stroke-linejoin="bevel" stroke-miterlimit="10" stroke-width="3">A</text><text fill="rgb(68,68,68)" stroke="none" font-family="geogebra-sans-serif, sans-serif" font-size="32px" font-style="normal" font-weight="normal" text-decoration="normal" x="259" y="308" text-anchor="start" dominant-baseline="alphabetic" fill-opacity="1">A</text><path fill="rgb(77,77,255)" stroke="none" paint-order="stroke fill markers" d=" M 454.5388819227617 316.3653919819265 C 454.5388819227617 319.12681573108046 452.3003056719156 321.3653919819265 449.5388819227617 321.3653919819265 C 446.7774581736077 321.3653919819265 444.5388819227617 319.12681573108046 444.5388819227617 316.3653919819265 C 444.5388819227617 313.60396823277256 446.7774581736077 311.3653919819265 449.5388819227617 311.3653919819265 C 452.3003056719156 311.3653919819265 454.5388819227617 313.60396823277256 454.5388819227617 316.3653919819265 Z" fill-opacity="1"/><path fill="none" stroke="rgb(0,0,0)" paint-order="fill stroke markers" d=" M 454.5388819227617 316.3653919819265 C 454.5388819227617 319.12681573108046 452.3003056719156 321.3653919819265 449.5388819227617 321.3653919819265 C 446.7774581736077 321.3653919819265 444.5388819227617 319.12681573108046 444.5388819227617 316.3653919819265 C 444.5388819227617 313.60396823277256 446.7774581736077 311.3653919819265 449.5388819227617 311.3653919819265 C 452.3003056719156 311.3653919819265 454.5388819227617 313.60396823277256 454.5388819227617 316.3653919819265 Z" stroke-opacity="1" stroke-linecap="round" stroke-linejoin="round" stroke-miterlimit="10"/><text fill="rgb(77,77,255)" stroke="none" font-family="geogebra-sans-serif, sans-serif" font-size="32px" font-style="normal" font-weight="normal" text-decoration="normal" x="454" y="306" text-anchor="start" dominant-baseline="alphabetic" fill-opacity="1">N</text><text fill="none" stroke="rgb(255,255,255)" font-family="geogebra-sans-serif, sans-serif" font-size="32px" font-style="normal" font-weight="normal" text-decoration="normal" x="454" y="306" text-anchor="start" dominant-baseline="alphabetic" stroke-opacity="1" stroke-linecap="round" stroke-linejoin="bevel" stroke-miterlimit="10" stroke-width="3">N</text><text fill="rgb(77,77,255)" stroke="none" font-family="geogebra-sans-serif, sans-serif" font-size="32px" font-style="normal" font-weight="normal" text-decoration="normal" x="454" y="306" text-anchor="start" dominant-baseline="alphabetic" fill-opacity="1">N</text><path fill="rgb(77,77,255)" stroke="none" paint-order="stroke fill markers" d=" M 454.5388819227617 121.51527744938375 C 454.5388819227617 124.27670119853771 452.3003056719156 126.51527744938375 449.5388819227617 126.51527744938375 C 446.7774581736077 126.51527744938375 444.5388819227617 124.27670119853771 444.5388819227617 121.51527744938375 C 444.5388819227617 118.75385370022978 446.7774581736077 116.51527744938375 449.5388819227617 116.51527744938375 C 452.3003056719156 116.51527744938375 454.5388819227617 118.75385370022978 454.5388819227617 121.51527744938375 Z" fill-opacity="1"/><path fill="none" stroke="rgb(0,0,0)" paint-order="fill stroke markers" d=" M 454.5388819227617 121.51527744938375 C 454.5388819227617 124.27670119853771 452.3003056719156 126.51527744938375 449.5388819227617 126.51527744938375 C 446.7774581736077 126.51527744938375 444.5388819227617 124.27670119853771 444.5388819227617 121.51527744938375 C 444.5388819227617 118.75385370022978 446.7774581736077 116.51527744938375 449.5388819227617 116.51527744938375 C 452.3003056719156 116.51527744938375 454.5388819227617 118.75385370022978 454.5388819227617 121.51527744938375 Z" stroke-opacity="1" stroke-linecap="round" stroke-linejoin="round" stroke-miterlimit="10"/><text fill="rgb(77,77,255)" stroke="none" font-family="geogebra-sans-serif, sans-serif" font-size="32px" font-style="normal" font-weight="normal" text-decoration="normal" x="454" y="112" text-anchor="start" dominant-baseline="alphabetic" fill-opacity="1">P</text><text fill="none" stroke="rgb(255,255,255)" font-family="geogebra-sans-serif, sans-serif" font-size="32px" font-style="normal" font-weight="normal" text-decoration="normal" x="454" y="112" text-anchor="start" dominant-baseline="alphabetic" stroke-opacity="1" stroke-linecap="round" stroke-linejoin="bevel" stroke-miterlimit="10" stroke-width="3">P</text><text fill="rgb(77,77,255)" stroke="none" font-family="geogebra-sans-serif, sans-serif" font-size="32px" font-style="normal" font-weight="normal" text-decoration="normal" x="454" y="112" text-anchor="start" dominant-baseline="alphabetic" fill-opacity="1">P</text><path fill="rgb(77,77,255)" stroke="none" paint-order="stroke fill markers" d=" M 454.5388819227617 511.21550651446927 C 454.5388819227617 513.9769302636232 452.3003056719156 516.2155065144693 449.5388819227617 516.2155065144693 C 446.7774581736077 516.2155065144693 444.5388819227617 513.9769302636232 444.5388819227617 511.21550651446927 C 444.5388819227617 508.4540827653153 446.7774581736077 506.21550651446927 449.5388819227617 506.21550651446927 C 452.3003056719156 506.21550651446927 454.5388819227617 508.4540827653153 454.5388819227617 511.21550651446927 Z" fill-opacity="1"/><path fill="none" stroke="rgb(0,0,0)" paint-order="fill stroke markers" d=" M 454.5388819227617 511.21550651446927 C 454.5388819227617 513.9769302636232 452.3003056719156 516.2155065144693 449.5388819227617 516.2155065144693 C 446.7774581736077 516.2155065144693 444.5388819227617 513.9769302636232 444.5388819227617 511.21550651446927 C 444.5388819227617 508.4540827653153 446.7774581736077 506.21550651446927 449.5388819227617 506.21550651446927 C 452.3003056719156 506.21550651446927 454.5388819227617 508.4540827653153 454.5388819227617 511.21550651446927 Z" stroke-opacity="1" stroke-linecap="round" stroke-linejoin="round" stroke-miterlimit="10"/><text fill="rgb(77,77,255)" stroke="none" font-family="geogebra-sans-serif, sans-serif" font-size="32px" font-style="normal" font-weight="normal" text-decoration="normal" x="454" y="501" text-anchor="start" dominant-baseline="alphabetic" fill-opacity="1">P'</text><text fill="none" stroke="rgb(255,255,255)" font-family="geogebra-sans-serif, sans-serif" font-size="32px" font-style="normal" font-weight="normal" text-decoration="normal" x="454" y="501" text-anchor="start" dominant-baseline="alphabetic" stroke-opacity="1" stroke-linecap="round" stroke-linejoin="bevel" stroke-miterlimit="10" stroke-width="3">P'</text><text fill="rgb(77,77,255)" stroke="none" font-family="geogebra-sans-serif, sans-serif" font-size="32px" font-style="normal" font-weight="normal" text-decoration="normal" x="454" y="501" text-anchor="start" dominant-baseline="alphabetic" fill-opacity="1">P'</text><path fill="rgb(68,68,68)" stroke="none" paint-order="stroke fill markers" d=" M 209.97623875708337 121.51527744938375 C 209.97623875708337 123.72441644870692 208.18537775640652 125.51527744938375 205.97623875708337 125.51527744938375 C 203.76709975776018 125.51527744938375 201.97623875708337 123.72441644870692 201.97623875708337 121.51527744938375 C 201.97623875708337 119.30613845006057 203.76709975776018 117.51527744938375 205.97623875708337 117.51527744938375 C 208.18537775640652 117.51527744938375 209.97623875708337 119.30613845006057 209.97623875708337 121.51527744938375 Z" fill-opacity="1"/><path fill="none" stroke="rgb(0,0,0)" paint-order="fill stroke markers" d=" M 209.97623875708337 121.51527744938375 C 209.97623875708337 123.72441644870692 208.18537775640652 125.51527744938375 205.97623875708337 125.51527744938375 C 203.76709975776018 125.51527744938375 201.97623875708337 123.72441644870692 201.97623875708337 121.51527744938375 C 201.97623875708337 119.30613845006057 203.76709975776018 117.51527744938375 205.97623875708337 117.51527744938375 C 208.18537775640652 117.51527744938375 209.97623875708337 119.30613845006057 209.97623875708337 121.51527744938375 Z" stroke-opacity="1" stroke-linecap="round" stroke-linejoin="round" stroke-miterlimit="10"/><text fill="rgb(68,68,68)" stroke="none" font-family="geogebra-sans-serif, sans-serif" font-size="32px" font-style="normal" font-weight="normal" text-decoration="normal" x="210" y="114" text-anchor="start" dominant-baseline="alphabetic" fill-opacity="1">M</text><text fill="none" stroke="rgb(255,255,255)" font-family="geogebra-sans-serif, sans-serif" font-size="32px" font-style="normal" font-weight="normal" text-decoration="normal" x="210" y="114" text-anchor="start" dominant-baseline="alphabetic" stroke-opacity="1" stroke-linecap="round" stroke-linejoin="bevel" stroke-miterlimit="10" stroke-width="3">M</text><text fill="rgb(68,68,68)" stroke="none" font-family="geogebra-sans-serif, sans-serif" font-size="32px" font-style="normal" font-weight="normal" text-decoration="normal" x="210" y="114" text-anchor="start" dominant-baseline="alphabetic" fill-opacity="1">M</text><path fill="rgb(68,68,68)" stroke="none" paint-order="stroke fill markers" d=" M 209.97623875708337 511.21550651446927 C 209.97623875708337 513.4246455137925 208.18537775640652 515.2155065144693 205.97623875708337 515.2155065144693 C 203.76709975776018 515.2155065144693 201.97623875708337 513.4246455137925 201.97623875708337 511.21550651446927 C 201.97623875708337 509.0063675151461 203.76709975776018 507.21550651446927 205.97623875708337 507.21550651446927 C 208.18537775640652 507.21550651446927 209.97623875708337 509.0063675151461 209.97623875708337 511.21550651446927 Z" fill-opacity="1"/><path fill="none" stroke="rgb(0,0,0)" paint-order="fill stroke markers" d=" M 209.97623875708337 511.21550651446927 C 209.97623875708337 513.4246455137925 208.18537775640652 515.2155065144693 205.97623875708337 515.2155065144693 C 203.76709975776018 515.2155065144693 201.97623875708337 513.4246455137925 201.97623875708337 511.21550651446927 C 201.97623875708337 509.0063675151461 203.76709975776018 507.21550651446927 205.97623875708337 507.21550651446927 C 208.18537775640652 507.21550651446927 209.97623875708337 509.0063675151461 209.97623875708337 511.21550651446927 Z" stroke-opacity="1" stroke-linecap="round" stroke-linejoin="round" stroke-miterlimit="10"/><text fill="rgb(68,68,68)" stroke="none" font-family="geogebra-sans-serif, sans-serif" font-size="32px" font-style="normal" font-weight="normal" text-decoration="normal" x="210" y="503" text-anchor="start" dominant-baseline="alphabetic" fill-opacity="1">M'</text><text fill="none" stroke="rgb(255,255,255)" font-family="geogebra-sans-serif, sans-serif" font-size="32px" font-style="normal" font-weight="normal" text-decoration="normal" x="210" y="503" text-anchor="start" dominant-baseline="alphabetic" stroke-opacity="1" stroke-linecap="round" stroke-linejoin="bevel" stroke-miterlimit="10" stroke-width="3">M'</text><text fill="rgb(68,68,68)" stroke="none" font-family="geogebra-sans-serif, sans-serif" font-size="32px" font-style="normal" font-weight="normal" text-decoration="normal" x="210" y="503" text-anchor="start" dominant-baseline="alphabetic" fill-opacity="1">M'</text></g></g></svg>