<svg version="1.1" xmlns="http://www.w3.org/2000/svg" xmlns:xlink="http://www.w3.org/1999/xlink" width="683" height="615"><defs><clipPath id="ODbhRXvKiEoF"><path fill="none" stroke="none" d=" M 0 0 L 683 0 L 683 615 L 0 615 L 0 0 Z"/></clipPath></defs><g transform="scale(1,1)" clip-path="url(#ODbhRXvKiEoF)"><g><path fill="none" stroke="rgb(0,0,0)" paint-order="fill stroke markers" d=" M 1034.0892255203896 -73.33483708315902 C -5.1113853198378365 186.46531562689802 -5.1113853198378365 446.265468336955 1034.0892255203896 706.065621047012" stroke-opacity="0.6980392156862745" stroke-linecap="round" stroke-linejoin="round" stroke-miterlimit="10" stroke-width="2.5"/><path fill="none" stroke="rgb(0,0,0)" paint-order="fill stroke markers" d=" M 205.97623875708337 620 L 205.97623875708337 -5" stroke-opacity="0.6980392156862745" stroke-linecap="round" stroke-linejoin="round" stroke-miterlimit="10" stroke-width="2.5"/><path fill="none" stroke="rgb(0,0,0)" paint-order="fill stroke markers" d=" M -5 117.00000000000003 L 688 117.00000000000003" stroke-opacity="0.6980392156862745" stroke-linecap="round" stroke-linejoin="round" stroke-miterlimit="10" stroke-width="2.5"/><path fill="none" stroke="rgb(0,0,0)" paint-order="fill stroke markers" d=" M -5 343.5863314860001 L 688 4.933950476728683" stroke-opacity="0.6980392156862745" stroke-linecap="round" stroke-linejoin="round" stroke-miterlimit="10" stroke-width="2.5"/><path fill="none" stroke="rgb(0,0,0)" paint-order="fill stroke markers" d=" M 303.4012960233547 316.3653919819265 L 205.97623875708337 117.00000000000003" stroke-opacity="0.6980392156862745" stroke-linecap="round" stroke-linejoin="round" stroke-miterlimit="10" stroke-width="2.5"/><path fill="none" stroke="rgb(0,0,0)" paint-order="fill stroke markers" d=" M 458.67406971073126 117.00000000000003 L 303.4012960233547 316.3653919819265" stroke-opacity="0.6980392156862745" stroke-linecap="round" stroke-linejoin="round" stroke-miterlimit="10" stroke-width="2.5"/><path fill="rgb(77,77,255)" stroke="none" paint-order="stroke fill markers" d=" M 308.4012960233547 316.3653919819265 C 308.4012960233547 319.12681573108046 306.16271977250864 321.3653919819265 303.4012960233547 321.3653919819265 C 300.63987227420074 321.3653919819265 298.4012960233547 319.12681573108046 298.4012960233547 316.3653919819265 C 298.4012960233547 313.60396823277256 300.63987227420074 311.3653919819265 303.4012960233547 311.3653919819265 C 306.16271977250864 311.3653919819265 308.4012960233547 313.60396823277256 308.4012960233547 316.3653919819265 Z" fill-opacity="1"/><path fill="none" stroke="rgb(0,0,0)" paint-order="fill stroke markers" d=" M 308.4012960233547 316.3653919819265 C 308.4012960233547 319.12681573108046 306.16271977250864 321.3653919819265 303.4012960233547 321.3653919819265 C 300.63987227420074 321.3653919819265 298.4012960233547 319.12681573108046 298.4012960233547 316.3653919819265 C 298.4012960233547 313.60396823277256 300.63987227420074 311.3653919819265 303.4012960233547 311.3653919819265 C 306.16271977250864 311.3653919819265 308.4012960233547 313.60396823277256 308.4012960233547 316.3653919819265 Z" stroke-opacity="1" stroke-linecap="round" stroke-linejoin="round" stroke-miterlimit="10"/><text fill="rgb(77,77,255)" stroke="none" font-family="geogebra-sans-serif, sans-serif" font-size="32px" font-style="normal" font-weight="normal" text-decoration="normal" x="307" y="306" text-anchor="start" dominant-baseline="alphabetic" fill-opacity="1">S</text><text fill="none" stroke="rgb(255,255,255)" font-family="geogebra-sans-serif, sans-serif" font-size="32px" font-style="normal" font-weight="normal" text-decoration="normal" x="307" y="306" text-anchor="start" dominant-baseline="alphabetic" stroke-opacity="1" stroke-linecap="round" stroke-linejoin="bevel" stroke-miterlimit="10" stroke-width="3">S</text><text fill="rgb(77,77,255)" stroke="none" font-family="geogebra-sans-serif, sans-serif" font-size="32px" font-style="normal" font-weight="normal" text-decoration="normal" x="307" y="306" text-anchor="start" dominant-baseline="alphabetic" fill-opacity="1">S</text><path fill="rgb(125,125,255)" stroke="none" paint-order="stroke fill markers" d=" M 210.97623875708337 117.00000000000003 C 210.97623875708337 119.76142374915399 208.73766250623734 122.00000000000003 205.97623875708337 122.00000000000003 C 203.2148150079294 122.00000000000003 200.97623875708337 119.76142374915399 200.97623875708337 117.00000000000003 C 200.97623875708337 114.23857625084607 203.2148150079294 112.00000000000003 205.97623875708337 112.00000000000003 C 208.73766250623734 112.00000000000003 210.97623875708337 114.23857625084607 210.97623875708337 117.00000000000003 Z" fill-opacity="1"/><path fill="none" stroke="rgb(0,0,0)" paint-order="fill stroke markers" d=" M 210.97623875708337 117.00000000000003 C 210.97623875708337 119.76142374915399 208.73766250623734 122.00000000000003 205.97623875708337 122.00000000000003 C 203.2148150079294 122.00000000000003 200.97623875708337 119.76142374915399 200.97623875708337 117.00000000000003 C 200.97623875708337 114.23857625084607 203.2148150079294 112.00000000000003 205.97623875708337 112.00000000000003 C 208.73766250623734 112.00000000000003 210.97623875708337 114.23857625084607 210.97623875708337 117.00000000000003 Z" stroke-opacity="1" stroke-linecap="round" stroke-linejoin="round" stroke-miterlimit="10"/><text fill="rgb(125,125,255)" stroke="none" font-family="geogebra-sans-serif, sans-serif" font-size="32px" font-style="normal" font-weight="normal" text-decoration="normal" x="210" y="107" text-anchor="start" dominant-baseline="alphabetic" fill-opacity="1">M</text><text fill="none" stroke="rgb(255,255,255)" font-family="geogebra-sans-serif, sans-serif" font-size="32px" font-style="normal" font-weight="normal" text-decoration="normal" x="210" y="107" text-anchor="start" dominant-baseline="alphabetic" stroke-opacity="1" stroke-linecap="round" stroke-linejoin="bevel" stroke-miterlimit="10" stroke-width="3">M</text><text fill="rgb(125,125,255)" stroke="none" font-family="geogebra-sans-serif, sans-serif" font-size="32px" font-style="normal" font-weight="normal" text-decoration="normal" x="210" y="107" text-anchor="start" dominant-baseline="alphabetic" fill-opacity="1">M</text><path fill="rgb(68,68,68)" stroke="none" paint-order="stroke fill markers" d=" M 462.67406971073126 117.00000000000003 C 462.67406971073126 119.2091389993232 460.8832087100544 121.00000000000003 458.67406971073126 121.00000000000003 C 456.4649307114081 121.00000000000003 454.67406971073126 119.2091389993232 454.67406971073126 117.00000000000003 C 454.67406971073126 114.79086100067686 456.4649307114081 113.00000000000003 458.67406971073126 113.00000000000003 C 460.8832087100544 113.00000000000003 462.67406971073126 114.79086100067686 462.67406971073126 117.00000000000003 Z" fill-opacity="1"/><path fill="none" stroke="rgb(0,0,0)" paint-order="fill stroke markers" d=" M 462.67406971073126 117.00000000000003 C 462.67406971073126 119.2091389993232 460.8832087100544 121.00000000000003 458.67406971073126 121.00000000000003 C 456.4649307114081 121.00000000000003 454.67406971073126 119.2091389993232 454.67406971073126 117.00000000000003 C 454.67406971073126 114.79086100067686 456.4649307114081 113.00000000000003 458.67406971073126 113.00000000000003 C 460.8832087100544 113.00000000000003 462.67406971073126 114.79086100067686 462.67406971073126 117.00000000000003 Z" stroke-opacity="1" stroke-linecap="round" stroke-linejoin="round" stroke-miterlimit="10"/><text fill="rgb(68,68,68)" stroke="none" font-family="geogebra-sans-serif, sans-serif" font-size="32px" font-style="normal" font-weight="normal" text-decoration="normal" x="463" y="109" text-anchor="start" dominant-baseline="alphabetic" fill-opacity="1">P</text><text fill="none" stroke="rgb(255,255,255)" font-family="geogebra-sans-serif, sans-serif" font-size="32px" font-style="normal" font-weight="normal" text-decoration="normal" x="463" y="109" text-anchor="start" dominant-baseline="alphabetic" stroke-opacity="1" stroke-linecap="round" stroke-linejoin="bevel" stroke-miterlimit="10" stroke-width="3">P</text><text fill="rgb(68,68,68)" stroke="none" font-family="geogebra-sans-serif, sans-serif" font-size="32px" font-style="normal" font-weight="normal" text-decoration="normal" x="463" y="109" text-anchor="start" dominant-baseline="alphabetic" fill-opacity="1">P</text><path fill="rgb(125,125,255)" stroke="none" paint-order="stroke fill markers" d=" M 105.12690652130377 292.21334851113915 C 105.12690652130377 294.9747722602931 102.88833027045773 297.21334851113915 100.12690652130377 297.21334851113915 C 97.3654827721498 297.21334851113915 95.12690652130377 294.9747722602931 95.12690652130377 292.21334851113915 C 95.12690652130377 289.4519247619852 97.3654827721498 287.21334851113915 100.12690652130377 287.21334851113915 C 102.88833027045773 287.21334851113915 105.12690652130377 289.4519247619852 105.12690652130377 292.21334851113915 Z" fill-opacity="1"/><path fill="none" stroke="rgb(0,0,0)" paint-order="fill stroke markers" d=" M 105.12690652130377 292.21334851113915 C 105.12690652130377 294.9747722602931 102.88833027045773 297.21334851113915 100.12690652130377 297.21334851113915 C 97.3654827721498 297.21334851113915 95.12690652130377 294.9747722602931 95.12690652130377 292.21334851113915 C 95.12690652130377 289.4519247619852 97.3654827721498 287.21334851113915 100.12690652130377 287.21334851113915 C 102.88833027045773 287.21334851113915 105.12690652130377 289.4519247619852 105.12690652130377 292.21334851113915 Z" stroke-opacity="1" stroke-linecap="round" stroke-linejoin="round" stroke-miterlimit="10"/><text fill="rgb(125,125,255)" stroke="none" font-family="geogebra-sans-serif, sans-serif" font-size="32px" font-style="normal" font-weight="normal" text-decoration="normal" x="104" y="282" text-anchor="start" dominant-baseline="alphabetic" fill-opacity="1">O</text><text fill="none" stroke="rgb(255,255,255)" font-family="geogebra-sans-serif, sans-serif" font-size="32px" font-style="normal" font-weight="normal" text-decoration="normal" x="104" y="282" text-anchor="start" dominant-baseline="alphabetic" stroke-opacity="1" stroke-linecap="round" stroke-linejoin="bevel" stroke-miterlimit="10" stroke-width="3">O</text><text fill="rgb(125,125,255)" stroke="none" font-family="geogebra-sans-serif, sans-serif" font-size="32px" font-style="normal" font-weight="normal" text-decoration="normal" x="104" y="282" text-anchor="start" dominant-baseline="alphabetic" fill-opacity="1">O</text></g></g></svg>