<svg version="1.1" xmlns="http://www.w3.org/2000/svg" xmlns:xlink="http://www.w3.org/1999/xlink" width="683" height="617"><defs><clipPath id="awNwCesDBBFX"><path fill="none" stroke="none" d=" M 0 0 L 683 0 L 683 617 L 0 617 L 0 0 Z"/></clipPath></defs><g transform="scale(1,1)" clip-path="url(#awNwCesDBBFX)"><g><path fill="none" stroke="rgb(0,0,0)" paint-order="fill stroke markers" d=" M 610.9267141389131 0 C 124.97770993333273 241.72494122269785 124.97770993333273 483.44988244539564 610.9267141389131 725.1748236680935" stroke-opacity="0.6980392156862745" stroke-linecap="round" stroke-linejoin="round" stroke-miterlimit="10" stroke-width="2.5"/><path fill="none" stroke="rgb(0,0,0)" paint-order="fill stroke markers" d=" M 156.28428353179515 622 L 156.28428353179515 -5" stroke-opacity="0.6980392156862745" stroke-linecap="round" stroke-linejoin="round" stroke-miterlimit="10" stroke-width="2.5"/><path fill="none" stroke="rgb(0,0,0)" paint-order="fill stroke markers" d=" M 156.28428353179515 95.08400366276203 L 444.8391454673191 95.08400366276203" stroke-opacity="0.6980392156862745" stroke-linecap="round" stroke-linejoin="round" stroke-miterlimit="10" stroke-width="2.5"/><path fill="none" stroke="rgb(0,0,0)" paint-order="fill stroke markers" d=" M 156.28428353179515 483.25599633723755 L 286.8308899654767 483.25599633723755" stroke-opacity="0.6980392156862745" stroke-linecap="round" stroke-linejoin="round" stroke-miterlimit="10" stroke-width="2.5"/><path fill="none" stroke="rgb(0,0,0)" paint-order="fill stroke markers" d=" M 156.98000000000002 289.1699999999998 L 444.8391454673191 95.08400366276203" stroke-opacity="0.6980392156862745" stroke-linecap="round" stroke-linejoin="round" stroke-miterlimit="10" stroke-width="2.5"/><path fill="none" stroke="rgb(0,0,0)" paint-order="fill stroke markers" d=" M 156.98000000000002 289.1699999999998 L 286.8308899654767 483.25599633723755" stroke-opacity="0.6980392156862745" stroke-linecap="round" stroke-linejoin="round" stroke-miterlimit="10" stroke-width="2.5"/><path fill="none" stroke="rgb(0,0,0)" paint-order="fill stroke markers" d=" M 156.98000000000002 289.1699999999998 L 156.28428353179515 95.08400366276203" stroke-opacity="0.6980392156862745" stroke-linecap="round" stroke-linejoin="round" stroke-miterlimit="10" stroke-width="2.5"/><path fill="none" stroke="rgb(0,0,0)" paint-order="fill stroke markers" d=" M 156.98000000000002 289.1699999999998 L 156.28428353179515 483.25599633723755" stroke-opacity="0.6980392156862745" stroke-linecap="round" stroke-linejoin="round" stroke-miterlimit="10" stroke-width="2.5"/><path fill="none" stroke="rgb(0,0,0)" paint-order="fill stroke markers" d=" M 156.98000000000002 289.1699999999998 L 336.64563843766047 362.58741183404675" stroke-opacity="0.6980392156862745" stroke-linecap="round" stroke-linejoin="round" stroke-miterlimit="10" stroke-width="2.5"/><path fill="none" stroke="rgb(0,0,0)" paint-order="fill stroke markers" d=" M 336.64563843766047 362.58741183404675 L 444.8391454673191 95.08400366276203" stroke-opacity="0.6980392156862745" stroke-linecap="round" stroke-linejoin="round" stroke-miterlimit="10" stroke-width="2.5"/><path fill="none" stroke="rgb(0,0,0)" paint-order="fill stroke markers" d=" M 336.64563843766047 362.58741183404675 L 286.8308899654767 483.25599633723755" stroke-opacity="0.6980392156862745" stroke-linecap="round" stroke-linejoin="round" stroke-miterlimit="10" stroke-width="2.5"/><path fill="rgb(77,77,255)" stroke="none" paint-order="stroke fill markers" d=" M 341.64563843766047 362.58741183404675 C 341.64563843766047 365.3488355832007 339.4070621868144 367.58741183404675 336.64563843766047 367.58741183404675 C 333.8842146885065 367.58741183404675 331.64563843766047 365.3488355832007 331.64563843766047 362.58741183404675 C 331.64563843766047 359.8259880848928 333.8842146885065 357.58741183404675 336.64563843766047 357.58741183404675 C 339.4070621868144 357.58741183404675 341.64563843766047 359.8259880848928 341.64563843766047 362.58741183404675 Z" fill-opacity="1"/><path fill="none" stroke="rgb(0,0,0)" paint-order="fill stroke markers" d=" M 341.64563843766047 362.58741183404675 C 341.64563843766047 365.3488355832007 339.4070621868144 367.58741183404675 336.64563843766047 367.58741183404675 C 333.8842146885065 367.58741183404675 331.64563843766047 365.3488355832007 331.64563843766047 362.58741183404675 C 331.64563843766047 359.8259880848928 333.8842146885065 357.58741183404675 336.64563843766047 357.58741183404675 C 339.4070621868144 357.58741183404675 341.64563843766047 359.8259880848928 341.64563843766047 362.58741183404675 Z" stroke-opacity="1" stroke-linecap="round" stroke-linejoin="round" stroke-miterlimit="10"/><text fill="rgb(77,77,255)" stroke="none" font-family="geogebra-sans-serif, sans-serif" font-size="32px" font-style="normal" font-weight="normal" text-decoration="normal" x="341" y="353" text-anchor="start" dominant-baseline="alphabetic" fill-opacity="1">S</text><text fill="none" stroke="rgb(255,255,255)" font-family="geogebra-sans-serif, sans-serif" font-size="32px" font-style="normal" font-weight="normal" text-decoration="normal" x="341" y="353" text-anchor="start" dominant-baseline="alphabetic" stroke-opacity="1" stroke-linecap="round" stroke-linejoin="bevel" stroke-miterlimit="10" stroke-width="3">S</text><text fill="rgb(77,77,255)" stroke="none" font-family="geogebra-sans-serif, sans-serif" font-size="32px" font-style="normal" font-weight="normal" text-decoration="normal" x="341" y="353" text-anchor="start" dominant-baseline="alphabetic" fill-opacity="1">S</text><path fill="rgb(77,77,255)" stroke="none" paint-order="stroke fill markers" d=" M 161.98000000000002 289.1699999999998 C 161.98000000000002 291.93142374915374 159.741423749154 294.1699999999998 156.98000000000002 294.1699999999998 C 154.21857625084604 294.1699999999998 151.98000000000002 291.93142374915374 151.98000000000002 289.1699999999998 C 151.98000000000002 286.40857625084584 154.21857625084604 284.1699999999998 156.98000000000002 284.1699999999998 C 159.741423749154 284.1699999999998 161.98000000000002 286.40857625084584 161.98000000000002 289.1699999999998 Z" fill-opacity="1"/><path fill="none" stroke="rgb(0,0,0)" paint-order="fill stroke markers" d=" M 161.98000000000002 289.1699999999998 C 161.98000000000002 291.93142374915374 159.741423749154 294.1699999999998 156.98000000000002 294.1699999999998 C 154.21857625084604 294.1699999999998 151.98000000000002 291.93142374915374 151.98000000000002 289.1699999999998 C 151.98000000000002 286.40857625084584 154.21857625084604 284.1699999999998 156.98000000000002 284.1699999999998 C 159.741423749154 284.1699999999998 161.98000000000002 286.40857625084584 161.98000000000002 289.1699999999998 Z" stroke-opacity="1" stroke-linecap="round" stroke-linejoin="round" stroke-miterlimit="10"/><text fill="rgb(77,77,255)" stroke="none" font-family="geogebra-sans-serif, sans-serif" font-size="32px" font-style="normal" font-weight="normal" text-decoration="normal" x="161" y="279" text-anchor="start" dominant-baseline="alphabetic" fill-opacity="1">K</text><text fill="none" stroke="rgb(255,255,255)" font-family="geogebra-sans-serif, sans-serif" font-size="32px" font-style="normal" font-weight="normal" text-decoration="normal" x="161" y="279" text-anchor="start" dominant-baseline="alphabetic" stroke-opacity="1" stroke-linecap="round" stroke-linejoin="bevel" stroke-miterlimit="10" stroke-width="3">K</text><text fill="rgb(77,77,255)" stroke="none" font-family="geogebra-sans-serif, sans-serif" font-size="32px" font-style="normal" font-weight="normal" text-decoration="normal" x="161" y="279" text-anchor="start" dominant-baseline="alphabetic" fill-opacity="1">K</text><path fill="rgb(68,68,68)" stroke="none" paint-order="stroke fill markers" d=" M 160.28428353179515 95.08400366276203 C 160.28428353179515 97.2931426620852 158.4934225311183 99.08400366276203 156.28428353179515 99.08400366276203 C 154.07514453247197 99.08400366276203 152.28428353179515 97.2931426620852 152.28428353179515 95.08400366276203 C 152.28428353179515 92.87486466343886 154.07514453247197 91.08400366276203 156.28428353179515 91.08400366276203 C 158.4934225311183 91.08400366276203 160.28428353179515 92.87486466343886 160.28428353179515 95.08400366276203 Z" fill-opacity="1"/><path fill="none" stroke="rgb(0,0,0)" paint-order="fill stroke markers" d=" M 160.28428353179515 95.08400366276203 C 160.28428353179515 97.2931426620852 158.4934225311183 99.08400366276203 156.28428353179515 99.08400366276203 C 154.07514453247197 99.08400366276203 152.28428353179515 97.2931426620852 152.28428353179515 95.08400366276203 C 152.28428353179515 92.87486466343886 154.07514453247197 91.08400366276203 156.28428353179515 91.08400366276203 C 158.4934225311183 91.08400366276203 160.28428353179515 92.87486466343886 160.28428353179515 95.08400366276203 Z" stroke-opacity="1" stroke-linecap="round" stroke-linejoin="round" stroke-miterlimit="10"/><text fill="rgb(68,68,68)" stroke="none" font-family="geogebra-sans-serif, sans-serif" font-size="32px" font-style="normal" font-weight="normal" text-decoration="normal" x="160" y="87" text-anchor="start" dominant-baseline="alphabetic" fill-opacity="1">M</text><text fill="none" stroke="rgb(255,255,255)" font-family="geogebra-sans-serif, sans-serif" font-size="32px" font-style="normal" font-weight="normal" text-decoration="normal" x="160" y="87" text-anchor="start" dominant-baseline="alphabetic" stroke-opacity="1" stroke-linecap="round" stroke-linejoin="bevel" stroke-miterlimit="10" stroke-width="3">M</text><text fill="rgb(68,68,68)" stroke="none" font-family="geogebra-sans-serif, sans-serif" font-size="32px" font-style="normal" font-weight="normal" text-decoration="normal" x="160" y="87" text-anchor="start" dominant-baseline="alphabetic" fill-opacity="1">M</text><path fill="rgb(68,68,68)" stroke="none" paint-order="stroke fill markers" d=" M 160.28428353179515 483.25599633723755 C 160.28428353179515 485.4651353365607 158.4934225311183 487.25599633723755 156.28428353179515 487.25599633723755 C 154.07514453247197 487.25599633723755 152.28428353179515 485.4651353365607 152.28428353179515 483.25599633723755 C 152.28428353179515 481.0468573379144 154.07514453247197 479.25599633723755 156.28428353179515 479.25599633723755 C 158.4934225311183 479.25599633723755 160.28428353179515 481.0468573379144 160.28428353179515 483.25599633723755 Z" fill-opacity="1"/><path fill="none" stroke="rgb(0,0,0)" paint-order="fill stroke markers" d=" M 160.28428353179515 483.25599633723755 C 160.28428353179515 485.4651353365607 158.4934225311183 487.25599633723755 156.28428353179515 487.25599633723755 C 154.07514453247197 487.25599633723755 152.28428353179515 485.4651353365607 152.28428353179515 483.25599633723755 C 152.28428353179515 481.0468573379144 154.07514453247197 479.25599633723755 156.28428353179515 479.25599633723755 C 158.4934225311183 479.25599633723755 160.28428353179515 481.0468573379144 160.28428353179515 483.25599633723755 Z" stroke-opacity="1" stroke-linecap="round" stroke-linejoin="round" stroke-miterlimit="10"/><text fill="rgb(68,68,68)" stroke="none" font-family="geogebra-sans-serif, sans-serif" font-size="32px" font-style="normal" font-weight="normal" text-decoration="normal" x="160" y="475" text-anchor="start" dominant-baseline="alphabetic" fill-opacity="1">N</text><text fill="none" stroke="rgb(255,255,255)" font-family="geogebra-sans-serif, sans-serif" font-size="32px" font-style="normal" font-weight="normal" text-decoration="normal" x="160" y="475" text-anchor="start" dominant-baseline="alphabetic" stroke-opacity="1" stroke-linecap="round" stroke-linejoin="bevel" stroke-miterlimit="10" stroke-width="3">N</text><text fill="rgb(68,68,68)" stroke="none" font-family="geogebra-sans-serif, sans-serif" font-size="32px" font-style="normal" font-weight="normal" text-decoration="normal" x="160" y="475" text-anchor="start" dominant-baseline="alphabetic" fill-opacity="1">N</text><path fill="rgb(68,68,68)" stroke="none" paint-order="stroke fill markers" d=" M 448.8391454673191 95.08400366276203 C 448.8391454673191 97.2931426620852 447.04828446664226 99.08400366276203 444.8391454673191 99.08400366276203 C 442.63000646799594 99.08400366276203 440.8391454673191 97.2931426620852 440.8391454673191 95.08400366276203 C 440.8391454673191 92.87486466343886 442.63000646799594 91.08400366276203 444.8391454673191 91.08400366276203 C 447.04828446664226 91.08400366276203 448.8391454673191 92.87486466343886 448.8391454673191 95.08400366276203 Z" fill-opacity="1"/><path fill="none" stroke="rgb(0,0,0)" paint-order="fill stroke markers" d=" M 448.8391454673191 95.08400366276203 C 448.8391454673191 97.2931426620852 447.04828446664226 99.08400366276203 444.8391454673191 99.08400366276203 C 442.63000646799594 99.08400366276203 440.8391454673191 97.2931426620852 440.8391454673191 95.08400366276203 C 440.8391454673191 92.87486466343886 442.63000646799594 91.08400366276203 444.8391454673191 91.08400366276203 C 447.04828446664226 91.08400366276203 448.8391454673191 92.87486466343886 448.8391454673191 95.08400366276203 Z" stroke-opacity="1" stroke-linecap="round" stroke-linejoin="round" stroke-miterlimit="10"/><text fill="rgb(68,68,68)" stroke="none" font-family="geogebra-sans-serif, sans-serif" font-size="32px" font-style="normal" font-weight="normal" text-decoration="normal" x="449" y="87" text-anchor="start" dominant-baseline="alphabetic" fill-opacity="1">P</text><text fill="none" stroke="rgb(255,255,255)" font-family="geogebra-sans-serif, sans-serif" font-size="32px" font-style="normal" font-weight="normal" text-decoration="normal" x="449" y="87" text-anchor="start" dominant-baseline="alphabetic" stroke-opacity="1" stroke-linecap="round" stroke-linejoin="bevel" stroke-miterlimit="10" stroke-width="3">P</text><text fill="rgb(68,68,68)" stroke="none" font-family="geogebra-sans-serif, sans-serif" font-size="32px" font-style="normal" font-weight="normal" text-decoration="normal" x="449" y="87" text-anchor="start" dominant-baseline="alphabetic" fill-opacity="1">P</text><path fill="rgb(68,68,68)" stroke="none" paint-order="stroke fill markers" d=" M 290.8308899654767 483.25599633723755 C 290.8308899654767 485.4651353365607 289.04002896479983 487.25599633723755 286.8308899654767 487.25599633723755 C 284.6217509661535 487.25599633723755 282.8308899654767 485.4651353365607 282.8308899654767 483.25599633723755 C 282.8308899654767 481.0468573379144 284.6217509661535 479.25599633723755 286.8308899654767 479.25599633723755 C 289.04002896479983 479.25599633723755 290.8308899654767 481.0468573379144 290.8308899654767 483.25599633723755 Z" fill-opacity="1"/><path fill="none" stroke="rgb(0,0,0)" paint-order="fill stroke markers" d=" M 290.8308899654767 483.25599633723755 C 290.8308899654767 485.4651353365607 289.04002896479983 487.25599633723755 286.8308899654767 487.25599633723755 C 284.6217509661535 487.25599633723755 282.8308899654767 485.4651353365607 282.8308899654767 483.25599633723755 C 282.8308899654767 481.0468573379144 284.6217509661535 479.25599633723755 286.8308899654767 479.25599633723755 C 289.04002896479983 479.25599633723755 290.8308899654767 481.0468573379144 290.8308899654767 483.25599633723755 Z" stroke-opacity="1" stroke-linecap="round" stroke-linejoin="round" stroke-miterlimit="10"/><text fill="rgb(68,68,68)" stroke="none" font-family="geogebra-sans-serif, sans-serif" font-size="32px" font-style="normal" font-weight="normal" text-decoration="normal" x="291" y="475" text-anchor="start" dominant-baseline="alphabetic" fill-opacity="1">Q</text><text fill="none" stroke="rgb(255,255,255)" font-family="geogebra-sans-serif, sans-serif" font-size="32px" font-style="normal" font-weight="normal" text-decoration="normal" x="291" y="475" text-anchor="start" dominant-baseline="alphabetic" stroke-opacity="1" stroke-linecap="round" stroke-linejoin="bevel" stroke-miterlimit="10" stroke-width="3">Q</text><text fill="rgb(68,68,68)" stroke="none" font-family="geogebra-sans-serif, sans-serif" font-size="32px" font-style="normal" font-weight="normal" text-decoration="normal" x="291" y="475" text-anchor="start" dominant-baseline="alphabetic" fill-opacity="1">Q</text></g></g></svg>