<svg version="1.1" xmlns="http://www.w3.org/2000/svg" xmlns:xlink="http://www.w3.org/1999/xlink" width="683" height="617"><defs><clipPath id="gSyGwNWybPrU"><path fill="none" stroke="none" d=" M 0 0 L 683 0 L 683 617 L 0 617 L 0 0 Z"/></clipPath></defs><g transform="scale(1,1)" clip-path="url(#gSyGwNWybPrU)"><g><path fill="none" stroke="rgb(0,0,0)" paint-order="fill stroke markers" d=" M 1136.0581631945524 -112.33870619706391 C -19.069198207077704 176.4431341533438 -19.069198207077704 465.2249745037515 1136.0581631945524 754.0068148541593" stroke-opacity="0.6980392156862745" stroke-linecap="round" stroke-linejoin="round" stroke-miterlimit="10" stroke-width="2.5"/><path fill="none" stroke="rgb(0,0,0)" paint-order="fill stroke markers" d=" M 215.5660470776284 622 L 215.5660470776284 -5" stroke-opacity="0.6980392156862745" stroke-linecap="round" stroke-linejoin="round" stroke-miterlimit="10" stroke-width="2.5"/><path fill="none" stroke="rgb(0,0,0)" paint-order="fill stroke markers" d=" M -5 320.83405432854767 L 688 320.83405432854767" stroke-opacity="0.6980392156862745" stroke-linecap="round" stroke-linejoin="round" stroke-miterlimit="10" stroke-width="2.5"/><path fill="none" stroke="rgb(0,0,0)" paint-order="fill stroke markers" d=" M 502.8271235821626 96.13554137913397 L 36.59816070449713 320.83405432854767" stroke-opacity="0.6980392156862745" stroke-linecap="round" stroke-linejoin="round" stroke-miterlimit="10" stroke-width="2.5"/><path fill="none" stroke="rgb(0,0,0)" paint-order="fill stroke markers" d=" M 502.8271235821626 96.13554137913397 L 611.1203137135653 320.83405432854767" stroke-opacity="0.6980392156862745" stroke-linecap="round" stroke-linejoin="round" stroke-miterlimit="10" stroke-width="2.5"/><path fill="none" stroke="rgb(0,0,0)" paint-order="fill stroke markers" d=" M 323.8592372090313 320.83405432854767 L 502.8271235821626 96.13554137913397" stroke-opacity="0.6980392156862745" stroke-linecap="round" stroke-linejoin="round" stroke-miterlimit="10" stroke-width="2.5"/><path fill="none" stroke="rgb(0,0,0)" paint-order="fill stroke markers" d=" M 215.5660470776284 96.13554137913397 L 502.8271235821626 96.13554137913397" stroke-opacity="0.6980392156862745" stroke-linejoin="round" stroke-miterlimit="10" stroke-width="2.5" stroke-dasharray="10.5,8"/><path fill="none" stroke="rgb(0,0,0)" paint-order="fill stroke markers" d=" M 502.8271235821626 96.13554137913397 L 502.8271235821626 320.83405432854767" stroke-opacity="0.6980392156862745" stroke-linecap="round" stroke-linejoin="round" stroke-miterlimit="10" stroke-width="2.5"/><path fill="none" stroke="rgb(0,0,0)" paint-order="fill stroke markers" d=" M 269.71264214332984 320.83405432854767 L 269.71264214332984 208.4847978538408" stroke-opacity="0.6980392156862745" stroke-linejoin="round" stroke-miterlimit="10" stroke-width="2.5" stroke-dasharray="2.5,3"/><path fill="none" stroke="rgb(0,0,0)" paint-order="fill stroke markers" d=" M 323.8592372090313 320.83405432854767 L 269.71264214332984 208.4847978538408" stroke-opacity="0.6980392156862745" stroke-linejoin="round" stroke-miterlimit="10" stroke-width="2.5" stroke-dasharray="2.5,3"/><path fill="rgb(77,77,255)" stroke="none" paint-order="stroke fill markers" d=" M 328.8592372090313 320.83405432854767 C 328.8592372090313 323.5954780777016 326.6206609581852 325.83405432854767 323.8592372090313 325.83405432854767 C 321.09781345987733 325.83405432854767 318.8592372090313 323.5954780777016 318.8592372090313 320.83405432854767 C 318.8592372090313 318.0726305793937 321.09781345987733 315.83405432854767 323.8592372090313 315.83405432854767 C 326.6206609581852 315.83405432854767 328.8592372090313 318.0726305793937 328.8592372090313 320.83405432854767 Z" fill-opacity="1"/><path fill="none" stroke="rgb(0,0,0)" paint-order="fill stroke markers" d=" M 328.8592372090313 320.83405432854767 C 328.8592372090313 323.5954780777016 326.6206609581852 325.83405432854767 323.8592372090313 325.83405432854767 C 321.09781345987733 325.83405432854767 318.8592372090313 323.5954780777016 318.8592372090313 320.83405432854767 C 318.8592372090313 318.0726305793937 321.09781345987733 315.83405432854767 323.8592372090313 315.83405432854767 C 326.6206609581852 315.83405432854767 328.8592372090313 318.0726305793937 328.8592372090313 320.83405432854767 Z" stroke-opacity="1" stroke-linecap="round" stroke-linejoin="round" stroke-miterlimit="10"/><text fill="rgb(77,77,255)" stroke="none" font-family="geogebra-sans-serif, sans-serif" font-size="32px" font-style="normal" font-weight="normal" text-decoration="normal" x="328" y="311" text-anchor="start" dominant-baseline="alphabetic" fill-opacity="1">S</text><text fill="none" stroke="rgb(255,255,255)" font-family="geogebra-sans-serif, sans-serif" font-size="32px" font-style="normal" font-weight="normal" text-decoration="normal" x="328" y="311" text-anchor="start" dominant-baseline="alphabetic" stroke-opacity="1" stroke-linecap="round" stroke-linejoin="bevel" stroke-miterlimit="10" stroke-width="3">S</text><text fill="rgb(77,77,255)" stroke="none" font-family="geogebra-sans-serif, sans-serif" font-size="32px" font-style="normal" font-weight="normal" text-decoration="normal" x="328" y="311" text-anchor="start" dominant-baseline="alphabetic" fill-opacity="1">S</text><path fill="rgb(125,125,255)" stroke="none" paint-order="stroke fill markers" d=" M 507.8271235821626 96.13554137913397 C 507.8271235821626 98.89696512828793 505.58854733131653 101.13554137913397 502.8271235821626 101.13554137913397 C 500.06569983300864 101.13554137913397 497.8271235821626 98.89696512828793 497.8271235821626 96.13554137913397 C 497.8271235821626 93.37411762998 500.06569983300864 91.13554137913397 502.8271235821626 91.13554137913397 C 505.58854733131653 91.13554137913397 507.8271235821626 93.37411762998 507.8271235821626 96.13554137913397 Z" fill-opacity="1"/><path fill="none" stroke="rgb(0,0,0)" paint-order="fill stroke markers" d=" M 507.8271235821626 96.13554137913397 C 507.8271235821626 98.89696512828793 505.58854733131653 101.13554137913397 502.8271235821626 101.13554137913397 C 500.06569983300864 101.13554137913397 497.8271235821626 98.89696512828793 497.8271235821626 96.13554137913397 C 497.8271235821626 93.37411762998 500.06569983300864 91.13554137913397 502.8271235821626 91.13554137913397 C 505.58854733131653 91.13554137913397 507.8271235821626 93.37411762998 507.8271235821626 96.13554137913397 Z" stroke-opacity="1" stroke-linecap="round" stroke-linejoin="round" stroke-miterlimit="10"/><text fill="rgb(125,125,255)" stroke="none" font-family="geogebra-sans-serif, sans-serif" font-size="32px" font-style="normal" font-weight="normal" text-decoration="normal" x="507" y="86" text-anchor="start" dominant-baseline="alphabetic" fill-opacity="1">P</text><text fill="none" stroke="rgb(255,255,255)" font-family="geogebra-sans-serif, sans-serif" font-size="32px" font-style="normal" font-weight="normal" text-decoration="normal" x="507" y="86" text-anchor="start" dominant-baseline="alphabetic" stroke-opacity="1" stroke-linecap="round" stroke-linejoin="bevel" stroke-miterlimit="10" stroke-width="3">P</text><text fill="rgb(125,125,255)" stroke="none" font-family="geogebra-sans-serif, sans-serif" font-size="32px" font-style="normal" font-weight="normal" text-decoration="normal" x="507" y="86" text-anchor="start" dominant-baseline="alphabetic" fill-opacity="1">P</text><path fill="rgb(68,68,68)" stroke="none" paint-order="stroke fill markers" d=" M 40.59816070449713 320.83405432854767 C 40.59816070449713 323.0431933278708 38.807299703820306 324.83405432854767 36.59816070449713 324.83405432854767 C 34.38902170517396 324.83405432854767 32.59816070449713 323.0431933278708 32.59816070449713 320.83405432854767 C 32.59816070449713 318.6249153292245 34.38902170517396 316.83405432854767 36.59816070449713 316.83405432854767 C 38.807299703820306 316.83405432854767 40.59816070449713 318.6249153292245 40.59816070449713 320.83405432854767 Z" fill-opacity="1"/><path fill="none" stroke="rgb(0,0,0)" paint-order="fill stroke markers" d=" M 40.59816070449713 320.83405432854767 C 40.59816070449713 323.0431933278708 38.807299703820306 324.83405432854767 36.59816070449713 324.83405432854767 C 34.38902170517396 324.83405432854767 32.59816070449713 323.0431933278708 32.59816070449713 320.83405432854767 C 32.59816070449713 318.6249153292245 34.38902170517396 316.83405432854767 36.59816070449713 316.83405432854767 C 38.807299703820306 316.83405432854767 40.59816070449713 318.6249153292245 40.59816070449713 320.83405432854767 Z" stroke-opacity="1" stroke-linecap="round" stroke-linejoin="round" stroke-miterlimit="10"/><text fill="rgb(68,68,68)" stroke="none" font-family="geogebra-sans-serif, sans-serif" font-size="32px" font-style="normal" font-weight="normal" text-decoration="normal" x="41" y="313" text-anchor="start" dominant-baseline="alphabetic" fill-opacity="1">T</text><text fill="none" stroke="rgb(255,255,255)" font-family="geogebra-sans-serif, sans-serif" font-size="32px" font-style="normal" font-weight="normal" text-decoration="normal" x="41" y="313" text-anchor="start" dominant-baseline="alphabetic" stroke-opacity="1" stroke-linecap="round" stroke-linejoin="bevel" stroke-miterlimit="10" stroke-width="3">T</text><text fill="rgb(68,68,68)" stroke="none" font-family="geogebra-sans-serif, sans-serif" font-size="32px" font-style="normal" font-weight="normal" text-decoration="normal" x="41" y="313" text-anchor="start" dominant-baseline="alphabetic" fill-opacity="1">T</text><path fill="rgb(68,68,68)" stroke="none" paint-order="stroke fill markers" d=" M 615.1203137135653 320.83405432854767 C 615.1203137135653 323.0431933278708 613.3294527128885 324.83405432854767 611.1203137135653 324.83405432854767 C 608.9111747142422 324.83405432854767 607.1203137135653 323.0431933278708 607.1203137135653 320.83405432854767 C 607.1203137135653 318.6249153292245 608.9111747142422 316.83405432854767 611.1203137135653 316.83405432854767 C 613.3294527128885 316.83405432854767 615.1203137135653 318.6249153292245 615.1203137135653 320.83405432854767 Z" fill-opacity="1"/><path fill="none" stroke="rgb(0,0,0)" paint-order="fill stroke markers" d=" M 615.1203137135653 320.83405432854767 C 615.1203137135653 323.0431933278708 613.3294527128885 324.83405432854767 611.1203137135653 324.83405432854767 C 608.9111747142422 324.83405432854767 607.1203137135653 323.0431933278708 607.1203137135653 320.83405432854767 C 607.1203137135653 318.6249153292245 608.9111747142422 316.83405432854767 611.1203137135653 316.83405432854767 C 613.3294527128885 316.83405432854767 615.1203137135653 318.6249153292245 615.1203137135653 320.83405432854767 Z" stroke-opacity="1" stroke-linecap="round" stroke-linejoin="round" stroke-miterlimit="10"/><text fill="rgb(68,68,68)" stroke="none" font-family="geogebra-sans-serif, sans-serif" font-size="32px" font-style="normal" font-weight="normal" text-decoration="normal" x="615" y="313" text-anchor="start" dominant-baseline="alphabetic" fill-opacity="1">G</text><text fill="none" stroke="rgb(255,255,255)" font-family="geogebra-sans-serif, sans-serif" font-size="32px" font-style="normal" font-weight="normal" text-decoration="normal" x="615" y="313" text-anchor="start" dominant-baseline="alphabetic" stroke-opacity="1" stroke-linecap="round" stroke-linejoin="bevel" stroke-miterlimit="10" stroke-width="3">G</text><text fill="rgb(68,68,68)" stroke="none" font-family="geogebra-sans-serif, sans-serif" font-size="32px" font-style="normal" font-weight="normal" text-decoration="normal" x="615" y="313" text-anchor="start" dominant-baseline="alphabetic" fill-opacity="1">G</text><path fill="rgb(68,68,68)" stroke="none" paint-order="stroke fill markers" d=" M 219.5660470776284 96.13554137913397 C 219.5660470776284 98.34468037845714 217.77518607695157 100.13554137913397 215.5660470776284 100.13554137913397 C 213.35690807830522 100.13554137913397 211.5660470776284 98.34468037845714 211.5660470776284 96.13554137913397 C 211.5660470776284 93.9264023798108 213.35690807830522 92.13554137913397 215.5660470776284 92.13554137913397 C 217.77518607695157 92.13554137913397 219.5660470776284 93.9264023798108 219.5660470776284 96.13554137913397 Z" fill-opacity="1"/><path fill="none" stroke="rgb(0,0,0)" paint-order="fill stroke markers" d=" M 219.5660470776284 96.13554137913397 C 219.5660470776284 98.34468037845714 217.77518607695157 100.13554137913397 215.5660470776284 100.13554137913397 C 213.35690807830522 100.13554137913397 211.5660470776284 98.34468037845714 211.5660470776284 96.13554137913397 C 211.5660470776284 93.9264023798108 213.35690807830522 92.13554137913397 215.5660470776284 92.13554137913397 C 217.77518607695157 92.13554137913397 219.5660470776284 93.9264023798108 219.5660470776284 96.13554137913397 Z" stroke-opacity="1" stroke-linecap="round" stroke-linejoin="round" stroke-miterlimit="10"/><text fill="rgb(68,68,68)" stroke="none" font-family="geogebra-sans-serif, sans-serif" font-size="32px" font-style="normal" font-weight="normal" text-decoration="normal" x="220" y="88" text-anchor="start" dominant-baseline="alphabetic" fill-opacity="1">M</text><text fill="none" stroke="rgb(255,255,255)" font-family="geogebra-sans-serif, sans-serif" font-size="32px" font-style="normal" font-weight="normal" text-decoration="normal" x="220" y="88" text-anchor="start" dominant-baseline="alphabetic" stroke-opacity="1" stroke-linecap="round" stroke-linejoin="bevel" stroke-miterlimit="10" stroke-width="3">M</text><text fill="rgb(68,68,68)" stroke="none" font-family="geogebra-sans-serif, sans-serif" font-size="32px" font-style="normal" font-weight="normal" text-decoration="normal" x="220" y="88" text-anchor="start" dominant-baseline="alphabetic" fill-opacity="1">M</text><path fill="rgb(68,68,68)" stroke="none" paint-order="stroke fill markers" d=" M 219.5660470776284 320.83405432854767 C 219.5660470776284 323.0431933278708 217.77518607695157 324.83405432854767 215.5660470776284 324.83405432854767 C 213.35690807830522 324.83405432854767 211.5660470776284 323.0431933278708 211.5660470776284 320.83405432854767 C 211.5660470776284 318.6249153292245 213.35690807830522 316.83405432854767 215.5660470776284 316.83405432854767 C 217.77518607695157 316.83405432854767 219.5660470776284 318.6249153292245 219.5660470776284 320.83405432854767 Z" fill-opacity="1"/><path fill="none" stroke="rgb(0,0,0)" paint-order="fill stroke markers" d=" M 219.5660470776284 320.83405432854767 C 219.5660470776284 323.0431933278708 217.77518607695157 324.83405432854767 215.5660470776284 324.83405432854767 C 213.35690807830522 324.83405432854767 211.5660470776284 323.0431933278708 211.5660470776284 320.83405432854767 C 211.5660470776284 318.6249153292245 213.35690807830522 316.83405432854767 215.5660470776284 316.83405432854767 C 217.77518607695157 316.83405432854767 219.5660470776284 318.6249153292245 219.5660470776284 320.83405432854767 Z" stroke-opacity="1" stroke-linecap="round" stroke-linejoin="round" stroke-miterlimit="10"/><text fill="rgb(68,68,68)" stroke="none" font-family="geogebra-sans-serif, sans-serif" font-size="32px" font-style="normal" font-weight="normal" text-decoration="normal" x="220" y="313" text-anchor="start" dominant-baseline="alphabetic" fill-opacity="1">X</text><text fill="none" stroke="rgb(255,255,255)" font-family="geogebra-sans-serif, sans-serif" font-size="32px" font-style="normal" font-weight="normal" text-decoration="normal" x="220" y="313" text-anchor="start" dominant-baseline="alphabetic" stroke-opacity="1" stroke-linecap="round" stroke-linejoin="bevel" stroke-miterlimit="10" stroke-width="3">X</text><text fill="rgb(68,68,68)" stroke="none" font-family="geogebra-sans-serif, sans-serif" font-size="32px" font-style="normal" font-weight="normal" text-decoration="normal" x="220" y="313" text-anchor="start" dominant-baseline="alphabetic" fill-opacity="1">X</text><path fill="rgb(68,68,68)" stroke="none" paint-order="stroke fill markers" d=" M 273.71264214332984 320.83405432854767 C 273.71264214332984 323.0431933278708 271.921781142653 324.83405432854767 269.71264214332984 324.83405432854767 C 267.5035031440067 324.83405432854767 265.71264214332984 323.0431933278708 265.71264214332984 320.83405432854767 C 265.71264214332984 318.6249153292245 267.5035031440067 316.83405432854767 269.71264214332984 316.83405432854767 C 271.921781142653 316.83405432854767 273.71264214332984 318.6249153292245 273.71264214332984 320.83405432854767 Z" fill-opacity="1"/><path fill="none" stroke="rgb(0,0,0)" paint-order="fill stroke markers" d=" M 273.71264214332984 320.83405432854767 C 273.71264214332984 323.0431933278708 271.921781142653 324.83405432854767 269.71264214332984 324.83405432854767 C 267.5035031440067 324.83405432854767 265.71264214332984 323.0431933278708 265.71264214332984 320.83405432854767 C 265.71264214332984 318.6249153292245 267.5035031440067 316.83405432854767 269.71264214332984 316.83405432854767 C 271.921781142653 316.83405432854767 273.71264214332984 318.6249153292245 273.71264214332984 320.83405432854767 Z" stroke-opacity="1" stroke-linecap="round" stroke-linejoin="round" stroke-miterlimit="10"/><text fill="rgb(68,68,68)" stroke="none" font-family="geogebra-sans-serif, sans-serif" font-size="32px" font-style="normal" font-weight="normal" text-decoration="normal" x="274" y="313" text-anchor="start" dominant-baseline="alphabetic" fill-opacity="1">A</text><text fill="none" stroke="rgb(255,255,255)" font-family="geogebra-sans-serif, sans-serif" font-size="32px" font-style="normal" font-weight="normal" text-decoration="normal" x="274" y="313" text-anchor="start" dominant-baseline="alphabetic" stroke-opacity="1" stroke-linecap="round" stroke-linejoin="bevel" stroke-miterlimit="10" stroke-width="3">A</text><text fill="rgb(68,68,68)" stroke="none" font-family="geogebra-sans-serif, sans-serif" font-size="32px" font-style="normal" font-weight="normal" text-decoration="normal" x="274" y="313" text-anchor="start" dominant-baseline="alphabetic" fill-opacity="1">A</text><path fill="rgb(68,68,68)" stroke="none" paint-order="stroke fill markers" d=" M 506.8271235821626 320.83405432854767 C 506.8271235821626 323.0431933278708 505.03626258148574 324.83405432854767 502.8271235821626 324.83405432854767 C 500.6179845828394 324.83405432854767 498.8271235821626 323.0431933278708 498.8271235821626 320.83405432854767 C 498.8271235821626 318.6249153292245 500.6179845828394 316.83405432854767 502.8271235821626 316.83405432854767 C 505.03626258148574 316.83405432854767 506.8271235821626 318.6249153292245 506.8271235821626 320.83405432854767 Z" fill-opacity="1"/><path fill="none" stroke="rgb(0,0,0)" paint-order="fill stroke markers" d=" M 506.8271235821626 320.83405432854767 C 506.8271235821626 323.0431933278708 505.03626258148574 324.83405432854767 502.8271235821626 324.83405432854767 C 500.6179845828394 324.83405432854767 498.8271235821626 323.0431933278708 498.8271235821626 320.83405432854767 C 498.8271235821626 318.6249153292245 500.6179845828394 316.83405432854767 502.8271235821626 316.83405432854767 C 505.03626258148574 316.83405432854767 506.8271235821626 318.6249153292245 506.8271235821626 320.83405432854767 Z" stroke-opacity="1" stroke-linecap="round" stroke-linejoin="round" stroke-miterlimit="10"/><text fill="rgb(68,68,68)" stroke="none" font-family="geogebra-sans-serif, sans-serif" font-size="32px" font-style="normal" font-weight="normal" text-decoration="normal" x="507" y="313" text-anchor="start" dominant-baseline="alphabetic" fill-opacity="1">N</text><text fill="none" stroke="rgb(255,255,255)" font-family="geogebra-sans-serif, sans-serif" font-size="32px" font-style="normal" font-weight="normal" text-decoration="normal" x="507" y="313" text-anchor="start" dominant-baseline="alphabetic" stroke-opacity="1" stroke-linecap="round" stroke-linejoin="bevel" stroke-miterlimit="10" stroke-width="3">N</text><text fill="rgb(68,68,68)" stroke="none" font-family="geogebra-sans-serif, sans-serif" font-size="32px" font-style="normal" font-weight="normal" text-decoration="normal" x="507" y="313" text-anchor="start" dominant-baseline="alphabetic" fill-opacity="1">N</text><path fill="rgb(68,68,68)" stroke="none" paint-order="stroke fill markers" d=" M 273.71264214332984 208.4847978538408 C 273.71264214332984 210.69393685316396 271.921781142653 212.4847978538408 269.71264214332984 212.4847978538408 C 267.5035031440067 212.4847978538408 265.71264214332984 210.69393685316396 265.71264214332984 208.4847978538408 C 265.71264214332984 206.27565885451762 267.5035031440067 204.4847978538408 269.71264214332984 204.4847978538408 C 271.921781142653 204.4847978538408 273.71264214332984 206.27565885451762 273.71264214332984 208.4847978538408 Z" fill-opacity="1"/><path fill="none" stroke="rgb(0,0,0)" paint-order="fill stroke markers" d=" M 273.71264214332984 208.4847978538408 C 273.71264214332984 210.69393685316396 271.921781142653 212.4847978538408 269.71264214332984 212.4847978538408 C 267.5035031440067 212.4847978538408 265.71264214332984 210.69393685316396 265.71264214332984 208.4847978538408 C 265.71264214332984 206.27565885451762 267.5035031440067 204.4847978538408 269.71264214332984 204.4847978538408 C 271.921781142653 204.4847978538408 273.71264214332984 206.27565885451762 273.71264214332984 208.4847978538408 Z" stroke-opacity="1" stroke-linecap="round" stroke-linejoin="round" stroke-miterlimit="10"/><text fill="rgb(68,68,68)" stroke="none" font-family="geogebra-sans-serif, sans-serif" font-size="32px" font-style="normal" font-weight="normal" text-decoration="normal" x="274" y="200" text-anchor="start" dominant-baseline="alphabetic" fill-opacity="1">Y</text><text fill="none" stroke="rgb(255,255,255)" font-family="geogebra-sans-serif, sans-serif" font-size="32px" font-style="normal" font-weight="normal" text-decoration="normal" x="274" y="200" text-anchor="start" dominant-baseline="alphabetic" stroke-opacity="1" stroke-linecap="round" stroke-linejoin="bevel" stroke-miterlimit="10" stroke-width="3">Y</text><text fill="rgb(68,68,68)" stroke="none" font-family="geogebra-sans-serif, sans-serif" font-size="32px" font-style="normal" font-weight="normal" text-decoration="normal" x="274" y="200" text-anchor="start" dominant-baseline="alphabetic" fill-opacity="1">Y</text></g></g></svg>